<?xml version="1.0" encoding="utf-8"?>
<!-- Generator: Adobe Illustrator 25.4.1, SVG Export Plug-In . SVG Version: 6.00 Build 0)  -->
<svg version="1.1" id="Capa_1" xmlns="http://www.w3.org/2000/svg" xmlns:xlink="http://www.w3.org/1999/xlink" x="0px" y="0px"
	 viewBox="0 0 900 150" style="enable-background:new 0 0 900 150;" xml:space="preserve">
<style type="text/css">
	.st0{fill:#724E91;}
	.st1{fill:#44505F;}
	.st2{clip-path:url(#SVGID_00000010281221421416452120000005887675501261662356_);}
	.st3{enable-background:new    ;}
	.st4{fill:#494F6F;}
	.st5{fill:#1A2E35;}
	.st6{fill:#5A4870;}
	.st7{fill:#424863;}
	.st8{fill:#545B80;}
	.st9{fill:#FAD1D7;}
	.st10{fill:#FFFFFF;}
	.st11{fill:#2462DE;}
	.st12{fill:#3A78F0;}
	.st13{fill:#2569D6;}
	.st14{fill:#8A71A5;}
	.st15{fill:#662D91;}
	.st16{fill:#FFC299;}
	.st17{fill:#F58D7D;}
	.st18{opacity:0.33;}
	.st19{fill:#FFC9C7;}
	.st20{fill:#F57E6C;}
</style>
<g>
	<g>
		<path class="st0" d="M62.93,40.84H47.77v51.01H35.34V40.84H20.43V30.52h42.5V40.84z"/>
		<path class="st0" d="M109.94,30.52v42.46c-0.06,6.37-1.81,11.25-5.27,14.64c-3.45,3.38-8.41,5.08-14.87,5.08
			c-6.57,0-11.59-1.71-15.06-5.14c-3.47-3.42-5.2-8.38-5.2-14.87V30.52h12.47v42.21c0,3.48,0.56,5.97,1.69,7.46
			c1.12,1.49,3.16,2.23,6.11,2.23c2.95,0,4.97-0.74,6.07-2.21c1.09-1.47,1.66-3.9,1.68-7.27V30.52H109.94z"/>
		<path class="st0" d="M159.05,40.84h-15.16v51.01h-12.43V40.84h-14.91V30.52h42.5V40.84z"/>
		<path class="st0" d="M208.17,66.7c0,8.23-1.94,14.62-5.83,19.17c-3.89,4.55-9.29,6.82-16.2,6.82c-6.88,0-12.29-2.25-16.22-6.76
			c-3.93-4.51-5.93-10.82-5.98-18.93V56.51c0-8.42,1.95-15,5.85-19.73c3.9-4.73,9.32-7.1,16.26-7.1c6.82,0,12.2,2.32,16.13,6.97
			c3.93,4.65,5.92,11.17,5.98,19.57V66.7z M195.74,56.42c0-5.53-0.79-9.65-2.36-12.34c-1.57-2.7-4.02-4.04-7.33-4.04
			c-3.29,0-5.71,1.3-7.29,3.9c-1.57,2.6-2.39,6.55-2.44,11.86V66.7c0,5.36,0.8,9.32,2.4,11.86c1.6,2.54,4.07,3.81,7.41,3.81
			c3.23,0,5.63-1.24,7.2-3.73s2.37-6.34,2.4-11.56V56.42z"/>
		<path class="st0" d="M235.63,69.44h-6.15v22.41H217.1V30.52h19.76c6.21,0,11,1.61,14.38,4.82c3.38,3.22,5.08,7.79,5.08,13.71
			c0,8.14-2.96,13.84-8.89,17.1l10.74,25.1v0.59h-13.31L235.63,69.44z M229.48,59.12h7.03c2.47,0,4.32-0.82,5.56-2.46
			c1.24-1.64,1.85-3.84,1.85-6.59c0-6.15-2.4-9.22-7.2-9.22h-7.25V59.12z"/>
		<path class="st0" d="M277.75,91.85h-12.38V30.52h12.38V91.85z M273.88,13.96h13.39l-11.71,13.06h-9.94L273.88,13.96z"/>
		<path class="st0" d="M318.19,79.29H301.3l-3.29,12.55h-13.1l19.17-61.33h11.33l19.29,61.33h-13.23L318.19,79.29z M303.99,68.97
			h11.46l-5.73-21.86L303.99,68.97z"/>
		<path class="st0" d="M366.33,75.76c0-2.5-0.64-4.39-1.92-5.67c-1.28-1.28-3.6-2.6-6.97-3.98c-6.15-2.33-10.57-5.06-13.27-8.19
			s-4.04-6.83-4.04-11.1c0-5.17,1.83-9.32,5.5-12.45s8.32-4.7,13.96-4.7c3.76,0,7.12,0.79,10.07,2.38c2.95,1.59,5.22,3.83,6.8,6.72
			c1.59,2.89,2.38,6.18,2.38,9.86H366.5c0-2.86-0.61-5.05-1.83-6.55c-1.22-1.5-2.98-2.25-5.29-2.25c-2.16,0-3.85,0.64-5.05,1.92
			c-1.21,1.28-1.81,3-1.81,5.16c0,1.68,0.67,3.21,2.02,4.57c1.35,1.36,3.73,2.77,7.16,4.23c5.98,2.16,10.33,4.82,13.04,7.96
			c2.71,3.15,4.06,7.15,4.06,12c0,5.34-1.7,9.51-5.1,12.51c-3.4,3.01-8.02,4.51-13.86,4.51c-3.96,0-7.57-0.82-10.83-2.44
			c-3.26-1.63-5.81-3.96-7.65-6.99c-1.84-3.03-2.76-6.61-2.76-10.74h12.43c0,3.54,0.69,6.11,2.06,7.71c1.38,1.6,3.62,2.4,6.74,2.4
			C364.17,82.62,366.33,80.33,366.33,75.76z"/>
		<path d="M42.5,115.17h-7.92v5.36h9.29v3.31H30.46v-20.02h13.39v3.34h-9.27v4.77h7.92V115.17z"/>
		<path d="M62.58,123.85h-4.12l-8.03-13.17v13.17H46.3v-20.02h4.12l8.04,13.2v-13.2h4.11V123.85z"/>
		<path d="M85.23,115.17h-7.92v5.36h9.29v3.31H73.19v-20.02h13.39v3.34h-9.27v4.77h7.92V115.17z"/>
		<path d="M105.31,123.85h-4.12l-8.03-13.17v13.17h-4.12v-20.02h4.12l8.04,13.2v-13.2h4.11V123.85z"/>
		<path d="M123.58,107.17h-6.13v16.68h-4.12v-16.68h-6.05v-3.34h16.31V107.17z"/>
		<path d="M141.99,114.29c0,1.97-0.35,3.7-1.04,5.18c-0.7,1.49-1.69,2.63-2.99,3.44c-1.3,0.81-2.78,1.21-4.46,1.21
			c-1.66,0-3.14-0.4-4.44-1.2c-1.3-0.8-2.31-1.94-3.02-3.42c-0.71-1.48-1.08-3.18-1.09-5.11v-0.99c0-1.97,0.36-3.71,1.07-5.2
			c0.71-1.5,1.71-2.65,3.01-3.45c1.3-0.8,2.78-1.2,4.45-1.2c1.67,0,3.15,0.4,4.45,1.2c1.3,0.8,2.3,1.95,3.01,3.45
			c0.71,1.5,1.07,3.23,1.07,5.19V114.29z M137.81,113.38c0-2.1-0.38-3.69-1.13-4.78s-1.82-1.64-3.22-1.64
			c-1.38,0-2.45,0.54-3.2,1.62s-1.13,2.66-1.14,4.74v0.98c0,2.04,0.38,3.63,1.13,4.76c0.75,1.13,1.83,1.69,3.24,1.69
			c1.38,0,2.45-0.54,3.19-1.63c0.74-1.09,1.12-2.67,1.13-4.75V113.38z"/>
		<path d="M152.39,116.52h-3.29v7.33h-4.12v-20.02h7.44c2.36,0,4.19,0.53,5.47,1.58s1.92,2.54,1.92,4.47c0,1.37-0.3,2.5-0.89,3.42
			c-0.59,0.91-1.49,1.64-2.69,2.18l4.33,8.18v0.19h-4.43L152.39,116.52z M149.11,113.18h3.33c1.04,0,1.84-0.26,2.41-0.79
			c0.57-0.53,0.85-1.25,0.85-2.18c0-0.94-0.27-1.69-0.8-2.23s-1.36-0.81-2.47-0.81h-3.31V113.18z"/>
		<path d="M179.23,123.85h-4.12l-8.03-13.17v13.17h-4.12v-20.02h4.12l8.04,13.2v-13.2h4.11V123.85z"/>
		<path d="M199.28,114.29c0,1.97-0.35,3.7-1.04,5.18c-0.7,1.49-1.69,2.63-2.99,3.44c-1.3,0.81-2.78,1.21-4.46,1.21
			c-1.66,0-3.14-0.4-4.44-1.2c-1.3-0.8-2.31-1.94-3.02-3.42c-0.71-1.48-1.08-3.18-1.09-5.11v-0.99c0-1.97,0.36-3.71,1.07-5.2
			c0.71-1.5,1.71-2.65,3.01-3.45c1.3-0.8,2.78-1.2,4.45-1.2c1.67,0,3.15,0.4,4.45,1.2c1.3,0.8,2.3,1.95,3.01,3.45
			c0.71,1.5,1.07,3.23,1.07,5.19V114.29z M195.1,113.38c0-2.1-0.38-3.69-1.13-4.78s-1.82-1.64-3.22-1.64c-1.38,0-2.45,0.54-3.2,1.62
			s-1.13,2.66-1.14,4.74v0.98c0,2.04,0.38,3.63,1.13,4.76c0.75,1.13,1.83,1.69,3.24,1.69c1.38,0,2.45-0.54,3.19-1.63
			c0.74-1.09,1.12-2.67,1.13-4.75V113.38z"/>
		<path d="M212.65,118.59c0-0.78-0.28-1.38-0.83-1.79s-1.54-0.86-2.97-1.32c-1.43-0.46-2.56-0.92-3.4-1.37
			c-2.27-1.23-3.41-2.88-3.41-4.96c0-1.08,0.3-2.05,0.91-2.89s1.48-1.51,2.63-1.99c1.14-0.48,2.42-0.71,3.84-0.71
			c1.43,0,2.7,0.26,3.82,0.78c1.12,0.52,1.99,1.25,2.6,2.19c0.62,0.94,0.93,2.02,0.93,3.22h-4.12c0-0.92-0.29-1.63-0.87-2.14
			c-0.58-0.51-1.39-0.76-2.43-0.76c-1.01,0-1.79,0.21-2.35,0.64c-0.56,0.43-0.84,0.99-0.84,1.68c0,0.65,0.33,1.2,0.98,1.64
			c0.66,0.44,1.62,0.85,2.89,1.24c2.35,0.71,4.06,1.58,5.13,2.63c1.07,1.04,1.61,2.35,1.61,3.9c0,1.73-0.66,3.09-1.97,4.08
			s-3.07,1.48-5.29,1.48c-1.54,0-2.94-0.28-4.21-0.85c-1.26-0.56-2.23-1.34-2.89-2.32c-0.66-0.98-1-2.12-1-3.41h4.14
			c0,2.21,1.32,3.31,3.96,3.31c0.98,0,1.75-0.2,2.3-0.6C212.38,119.87,212.65,119.31,212.65,118.59z"/>
		<path d="M233.99,118.88l4.54-15.05h4.59l-6.97,20.02h-4.3l-6.94-20.02h4.58L233.99,118.88z"/>
		<path d="M249.39,123.85h-4.12v-20.02h4.12V123.85z"/>
		<path d="M260.62,116.52h-3.29v7.33h-4.12v-20.02h7.44c2.36,0,4.19,0.53,5.47,1.58s1.92,2.54,1.92,4.47c0,1.37-0.3,2.5-0.89,3.42
			c-0.59,0.91-1.49,1.64-2.69,2.18l4.33,8.18v0.19h-4.43L260.62,116.52z M257.34,113.18h3.33c1.04,0,1.84-0.26,2.41-0.79
			c0.57-0.53,0.85-1.25,0.85-2.18c0-0.94-0.27-1.69-0.8-2.23s-1.36-0.81-2.47-0.81h-3.31V113.18z"/>
		<path d="M285.56,107.17h-6.13v16.68h-4.12v-16.68h-6.05v-3.34h16.31V107.17z"/>
		<path d="M303.06,103.83v13.18c0,2.19-0.69,3.92-2.06,5.2c-1.37,1.27-3.24,1.91-5.62,1.91c-2.34,0-4.19-0.62-5.57-1.86
			s-2.08-2.94-2.1-5.1v-13.34h4.12v13.21c0,1.31,0.31,2.27,0.94,2.87c0.63,0.6,1.5,0.9,2.61,0.9c2.32,0,3.5-1.22,3.53-3.66v-13.32
			H303.06z"/>
		<path d="M317.44,119.72h-7.23l-1.38,4.12h-4.39l7.45-20.02h3.82l7.49,20.02h-4.39L317.44,119.72z M311.33,116.38h5l-2.52-7.49
			L311.33,116.38z"/>
		<path d="M329.21,120.53h8.76v3.31h-12.88v-20.02h4.12V120.53z"/>
		<path d="M352.38,115.17h-7.92v5.36h9.29v3.31h-13.42v-20.02h13.39v3.34h-9.27v4.77h7.92V115.17z"/>
		<path d="M366.55,118.59c0-0.78-0.28-1.38-0.83-1.79s-1.54-0.86-2.97-1.32c-1.43-0.46-2.56-0.92-3.4-1.37
			c-2.27-1.23-3.41-2.88-3.41-4.96c0-1.08,0.3-2.05,0.91-2.89s1.48-1.51,2.63-1.99c1.14-0.48,2.42-0.71,3.84-0.71
			c1.43,0,2.7,0.26,3.82,0.78c1.12,0.52,1.99,1.25,2.6,2.19c0.62,0.94,0.93,2.02,0.93,3.22h-4.12c0-0.92-0.29-1.63-0.87-2.14
			c-0.58-0.51-1.39-0.76-2.43-0.76c-1.01,0-1.79,0.21-2.35,0.64c-0.56,0.43-0.84,0.99-0.84,1.68c0,0.65,0.33,1.2,0.98,1.64
			c0.66,0.44,1.62,0.85,2.89,1.24c2.35,0.71,4.06,1.58,5.13,2.63c1.07,1.04,1.61,2.35,1.61,3.9c0,1.73-0.66,3.09-1.97,4.08
			s-3.07,1.48-5.29,1.48c-1.54,0-2.94-0.28-4.21-0.85c-1.26-0.56-2.23-1.34-2.89-2.32c-0.66-0.98-1-2.12-1-3.41h4.14
			c0,2.21,1.32,3.31,3.96,3.31c0.98,0,1.75-0.2,2.3-0.6C366.28,119.87,366.55,119.31,366.55,118.59z"/>
	</g>
	<g>
		<defs>
			<polygon id="SVGID_1_" points="900,150 357.77,150 669.79,0 900,0 			"/>
		</defs>
		<use xlink:href="#SVGID_1_"  style="overflow:visible;opacity:0.6;fill:#F7B2BD;"/>
		<clipPath id="SVGID_00000137836274155595368410000005997502323807473831_">
			<use xlink:href="#SVGID_1_"  style="overflow:visible;opacity:0.6;"/>
		</clipPath>
	</g>
	<g>
		<path class="st1" d="M646.54,57.48c0-2.27,0.54-4.09,1.61-5.48c1.07-1.38,2.48-2.07,4.22-2.07c1.73,0,3.1,0.59,4.12,1.78V44h2.53
			v21h-2.32l-0.12-1.59c-1.01,1.24-2.42,1.86-4.22,1.86c-1.71,0-3.11-0.7-4.19-2.11s-1.62-3.24-1.62-5.5V57.48z M649.06,57.77
			c0,1.68,0.35,2.99,1.04,3.94c0.69,0.95,1.65,1.42,2.87,1.42c1.6,0,2.78-0.72,3.51-2.16v-6.79c-0.76-1.39-1.92-2.09-3.49-2.09
			c-1.24,0-2.21,0.48-2.9,1.44C649.41,54.47,649.06,55.89,649.06,57.77z"/>
		<path class="st1" d="M669.08,65.27c-2.01,0-3.64-0.66-4.89-1.98s-1.89-3.08-1.89-5.28v-0.46c0-1.47,0.28-2.78,0.84-3.93
			s1.34-2.06,2.35-2.71c1.01-0.65,2.1-0.98,3.28-0.98c1.92,0,3.42,0.63,4.48,1.9s1.6,3.08,1.6,5.44v1.05h-10.02
			c0.04,1.46,0.46,2.64,1.28,3.53c0.82,0.9,1.85,1.35,3.11,1.35c0.89,0,1.65-0.18,2.27-0.55c0.62-0.36,1.16-0.85,1.63-1.45l1.54,1.2
			C673.42,64.32,671.56,65.27,669.08,65.27z M668.77,52.01c-1.02,0-1.88,0.37-2.57,1.11c-0.69,0.74-1.12,1.78-1.29,3.12h7.41v-0.19
			c-0.07-1.29-0.42-2.28-1.04-2.99C670.66,52.36,669.82,52.01,668.77,52.01z"/>
		<path class="st1" d="M690.85,65.27c-2.01,0-3.64-0.66-4.89-1.98s-1.89-3.08-1.89-5.28v-0.46c0-1.47,0.28-2.78,0.84-3.93
			s1.34-2.06,2.35-2.71c1.01-0.65,2.1-0.98,3.28-0.98c1.92,0,3.42,0.63,4.48,1.9s1.6,3.08,1.6,5.44v1.05h-10.02
			c0.04,1.46,0.46,2.64,1.28,3.53c0.82,0.9,1.85,1.35,3.11,1.35c0.89,0,1.65-0.18,2.27-0.55c0.62-0.36,1.16-0.85,1.63-1.45l1.54,1.2
			C695.18,64.32,693.32,65.27,690.85,65.27z M690.53,52.01c-1.02,0-1.88,0.37-2.57,1.11c-0.69,0.74-1.12,1.78-1.29,3.12h7.41v-0.19
			c-0.07-1.29-0.42-2.28-1.04-2.99C692.43,52.36,691.59,52.01,690.53,52.01z"/>
		<path class="st1" d="M701.93,50.21l0.08,1.86c1.13-1.42,2.61-2.13,4.43-2.13c3.12,0,4.7,1.76,4.73,5.29V65h-2.53v-9.79
			c-0.01-1.07-0.25-1.85-0.73-2.37s-1.22-0.77-2.23-0.77c-0.82,0-1.54,0.22-2.16,0.66c-0.62,0.44-1.1,1.01-1.45,1.72V65h-2.53V50.21
			H701.93z"/>
		<path class="st1" d="M723.6,61.07c0-0.68-0.26-1.21-0.77-1.59c-0.51-0.38-1.41-0.7-2.69-0.98c-1.28-0.27-2.3-0.6-3.05-0.98
			s-1.31-0.84-1.67-1.37c-0.36-0.53-0.54-1.16-0.54-1.89c0-1.21,0.51-2.24,1.54-3.08s2.34-1.26,3.93-1.26c1.68,0,3.04,0.43,4.08,1.3
			c1.04,0.87,1.57,1.97,1.57,3.32h-2.54c0-0.69-0.29-1.29-0.88-1.79s-1.33-0.75-2.22-0.75c-0.92,0-1.64,0.2-2.16,0.6
			s-0.78,0.92-0.78,1.57c0,0.61,0.24,1.07,0.72,1.38c0.48,0.31,1.36,0.61,2.62,0.89c1.26,0.28,2.29,0.62,3.07,1.01
			c0.78,0.39,1.36,0.86,1.74,1.42c0.38,0.55,0.57,1.22,0.57,2.02c0,1.32-0.53,2.38-1.59,3.18c-1.06,0.8-2.43,1.2-4.12,1.2
			c-1.19,0-2.23-0.21-3.14-0.63c-0.91-0.42-1.62-1-2.14-1.76c-0.51-0.75-0.77-1.57-0.77-2.44h2.53c0.04,0.85,0.38,1.52,1.02,2.02
			c0.63,0.5,1.47,0.75,2.51,0.75c0.96,0,1.72-0.19,2.3-0.58C723.31,62.24,723.6,61.72,723.6,61.07z"/>
		<path class="st1" d="M735.57,65.27c-2.01,0-3.64-0.66-4.89-1.98s-1.89-3.08-1.89-5.28v-0.46c0-1.47,0.28-2.78,0.84-3.93
			s1.34-2.06,2.35-2.71c1.01-0.65,2.1-0.98,3.28-0.98c1.92,0,3.42,0.63,4.48,1.9s1.6,3.08,1.6,5.44v1.05h-10.02
			c0.04,1.46,0.46,2.64,1.28,3.53c0.82,0.9,1.85,1.35,3.11,1.35c0.89,0,1.65-0.18,2.27-0.55c0.62-0.36,1.16-0.85,1.63-1.45l1.54,1.2
			C739.9,64.32,738.04,65.27,735.57,65.27z M735.25,52.01c-1.02,0-1.88,0.37-2.57,1.11c-0.69,0.74-1.12,1.78-1.29,3.12h7.41v-0.19
			c-0.07-1.29-0.42-2.28-1.04-2.99C737.15,52.36,736.31,52.01,735.25,52.01z"/>
		<path class="st1" d="M746.65,50.21l0.08,1.86c1.13-1.42,2.61-2.13,4.43-2.13c3.12,0,4.7,1.76,4.73,5.29V65h-2.53v-9.79
			c-0.01-1.07-0.25-1.85-0.73-2.37s-1.22-0.77-2.23-0.77c-0.82,0-1.54,0.22-2.16,0.66c-0.62,0.44-1.1,1.01-1.45,1.72V65h-2.53V50.21
			H746.65z M755.02,44.44c0,0.98-0.28,1.78-0.84,2.39s-1.26,0.92-2.1,0.92c-0.38,0-0.7-0.05-0.97-0.14s-0.63-0.28-1.07-0.56
			c-0.44-0.28-0.76-0.45-0.96-0.51c-0.2-0.06-0.42-0.09-0.68-0.09c-0.38,0-0.69,0.14-0.96,0.43c-0.27,0.29-0.4,0.65-0.4,1.1
			l-1.7-0.1c0-0.98,0.28-1.78,0.83-2.42c0.55-0.64,1.25-0.96,2.1-0.96c0.32,0,0.61,0.05,0.86,0.14c0.25,0.09,0.6,0.27,1.04,0.53
			s0.77,0.44,1,0.52s0.49,0.12,0.77,0.12c0.39,0,0.72-0.16,0.98-0.46s0.39-0.67,0.39-1.08L755.02,44.44z"/>
		<path class="st1" d="M768.84,65c-0.15-0.29-0.27-0.81-0.36-1.56c-1.18,1.22-2.58,1.83-4.21,1.83c-1.46,0-2.66-0.41-3.59-1.24
			c-0.93-0.83-1.4-1.87-1.4-3.14c0-1.54,0.58-2.74,1.76-3.59c1.17-0.85,2.82-1.28,4.94-1.28h2.46v-1.16c0-0.88-0.27-1.59-0.79-2.11
			c-0.53-0.52-1.31-0.79-2.34-0.79c-0.9,0-1.66,0.23-2.27,0.68c-0.61,0.46-0.92,1.01-0.92,1.65h-2.54c0-0.74,0.26-1.45,0.79-2.14
			c0.52-0.69,1.24-1.23,2.13-1.63c0.9-0.4,1.88-0.6,2.96-0.6c1.7,0,3.04,0.43,4.01,1.28c0.96,0.85,1.47,2.03,1.5,3.52v6.81
			c0,1.36,0.17,2.44,0.52,3.24V65H768.84z M764.65,63.07c0.79,0,1.54-0.21,2.26-0.62s1.22-0.94,1.54-1.6v-3.04h-1.98
			c-3.1,0-4.65,0.91-4.65,2.72c0,0.79,0.26,1.41,0.79,1.86C763.14,62.85,763.82,63.07,764.65,63.07z"/>
		<path class="st1" d="M777.33,50.21l0.08,1.86c1.13-1.42,2.61-2.13,4.43-2.13c3.12,0,4.7,1.76,4.73,5.29V65h-2.53v-9.79
			c-0.01-1.07-0.25-1.85-0.73-2.37s-1.22-0.77-2.23-0.77c-0.82,0-1.54,0.22-2.16,0.66c-0.62,0.44-1.1,1.01-1.45,1.72V65h-2.53V50.21
			H777.33z"/>
		<path class="st1" d="M792.77,62.93h8.65V65h-11.74v-1.86l8.16-10.84h-8.04v-2.09h11.21V52L792.77,62.93z"/>
		<path class="st1" d="M813.4,65c-0.15-0.29-0.27-0.81-0.36-1.56c-1.18,1.22-2.58,1.83-4.21,1.83c-1.46,0-2.66-0.41-3.59-1.24
			c-0.93-0.83-1.4-1.87-1.4-3.14c0-1.54,0.58-2.74,1.76-3.59c1.17-0.85,2.82-1.28,4.94-1.28H813v-1.16c0-0.88-0.27-1.59-0.79-2.11
			c-0.53-0.52-1.31-0.79-2.34-0.79c-0.9,0-1.66,0.23-2.27,0.68c-0.61,0.46-0.92,1.01-0.92,1.65h-2.54c0-0.74,0.26-1.45,0.79-2.14
			c0.52-0.69,1.24-1.23,2.13-1.63c0.9-0.4,1.88-0.6,2.96-0.6c1.7,0,3.04,0.43,4.01,1.28c0.96,0.85,1.47,2.03,1.5,3.52v6.81
			c0,1.36,0.17,2.44,0.52,3.24V65H813.4z M809.2,63.07c0.79,0,1.54-0.21,2.26-0.62s1.22-0.94,1.54-1.6v-3.04h-1.98
			c-3.1,0-4.65,0.91-4.65,2.72c0,0.79,0.26,1.41,0.79,1.86C807.69,62.85,808.37,63.07,809.2,63.07z"/>
		<path class="st1" d="M651.99,91.29l3.45-11.09h2.71l-5.95,17.08c-0.92,2.46-2.38,3.69-4.39,3.69l-0.48-0.04l-0.94-0.18V98.7
			l0.68,0.05c0.86,0,1.52-0.17,2-0.52c0.48-0.35,0.87-0.98,1.18-1.9l0.56-1.5l-5.28-14.63h2.76L651.99,91.29z"/>
		<path class="st1" d="M676.46,95c-0.15-0.29-0.27-0.81-0.36-1.56c-1.18,1.22-2.58,1.83-4.21,1.83c-1.46,0-2.66-0.41-3.59-1.24
			c-0.93-0.83-1.4-1.87-1.4-3.14c0-1.54,0.58-2.74,1.76-3.59c1.17-0.85,2.82-1.28,4.94-1.28h2.46v-1.16c0-0.88-0.27-1.59-0.79-2.11
			c-0.53-0.53-1.31-0.79-2.34-0.79c-0.9,0-1.66,0.23-2.27,0.68c-0.61,0.46-0.92,1.01-0.92,1.65h-2.54c0-0.74,0.26-1.45,0.79-2.14
			c0.52-0.69,1.24-1.23,2.13-1.63c0.9-0.4,1.88-0.6,2.96-0.6c1.7,0,3.04,0.43,4.01,1.28c0.96,0.85,1.47,2.03,1.5,3.52v6.81
			c0,1.36,0.17,2.44,0.52,3.24V95H676.46z M672.27,93.07c0.79,0,1.54-0.21,2.26-0.62s1.22-0.94,1.54-1.6v-3.04h-1.98
			c-3.1,0-4.65,0.91-4.65,2.72c0,0.79,0.26,1.41,0.79,1.86C670.76,92.85,671.44,93.07,672.27,93.07z"/>
		<path class="st1" d="M695.9,87.77c0,2.25-0.52,4.07-1.54,5.44c-1.03,1.38-2.43,2.06-4.18,2.06c-1.8,0-3.21-0.57-4.24-1.71v7.12
			h-2.53V80.21h2.31l0.12,1.64c1.03-1.28,2.46-1.91,4.29-1.91c1.78,0,3.18,0.67,4.22,2.01c1.04,1.34,1.55,3.21,1.55,5.59V87.77z
			 M693.37,87.48c0-1.67-0.36-2.98-1.07-3.95c-0.71-0.96-1.69-1.45-2.93-1.45c-1.53,0-2.68,0.68-3.45,2.04v7.07
			c0.76,1.35,1.91,2.02,3.47,2.02c1.21,0,2.18-0.48,2.89-1.44C693.01,90.8,693.37,89.38,693.37,87.48z"/>
		<path class="st1" d="M707.1,82.47c-0.38-0.06-0.8-0.1-1.24-0.1c-1.66,0-2.79,0.71-3.38,2.12V95h-2.53V80.21h2.46l0.04,1.71
			c0.83-1.32,2-1.98,3.53-1.98c0.49,0,0.87,0.06,1.12,0.19V82.47z"/>
		<path class="st1" d="M716.14,95.27c-2.01,0-3.64-0.66-4.89-1.97c-1.26-1.32-1.89-3.08-1.89-5.29v-0.46c0-1.47,0.28-2.78,0.84-3.93
			c0.56-1.15,1.34-2.06,2.35-2.71c1.01-0.65,2.1-0.98,3.27-0.98c1.92,0,3.42,0.63,4.48,1.9c1.07,1.27,1.6,3.08,1.6,5.44v1.05h-10.02
			c0.04,1.46,0.46,2.64,1.28,3.54c0.82,0.9,1.85,1.35,3.11,1.35c0.89,0,1.65-0.18,2.27-0.55c0.62-0.36,1.16-0.85,1.63-1.45l1.54,1.2
			C720.48,94.32,718.62,95.27,716.14,95.27z M715.83,82.01c-1.02,0-1.88,0.37-2.57,1.12c-0.69,0.74-1.12,1.78-1.29,3.12h7.41v-0.19
			c-0.07-1.29-0.42-2.28-1.04-2.99C717.72,82.36,716.88,82.01,715.83,82.01z"/>
		<path class="st1" d="M728.07,80.21l0.08,1.86c1.13-1.42,2.61-2.13,4.43-2.13c3.13,0,4.7,1.76,4.73,5.29V95h-2.53v-9.79
			c-0.01-1.07-0.25-1.85-0.73-2.37c-0.48-0.51-1.22-0.77-2.24-0.77c-0.82,0-1.54,0.22-2.16,0.66c-0.62,0.44-1.1,1.01-1.45,1.72V95
			h-2.53V80.21H728.07z"/>
		<path class="st1" d="M741.35,87.48c0-2.27,0.54-4.09,1.61-5.47c1.08-1.38,2.48-2.07,4.22-2.07c1.73,0,3.1,0.59,4.12,1.78V74h2.53
			v21h-2.32l-0.12-1.59c-1.01,1.24-2.42,1.86-4.22,1.86c-1.71,0-3.11-0.7-4.19-2.11c-1.08-1.4-1.62-3.23-1.62-5.5V87.48z
			 M743.88,87.77c0,1.68,0.35,2.99,1.04,3.94c0.69,0.95,1.65,1.42,2.87,1.42c1.6,0,2.78-0.72,3.51-2.16v-6.79
			c-0.76-1.39-1.92-2.09-3.49-2.09c-1.24,0-2.21,0.48-2.9,1.44C744.23,84.47,743.88,85.89,743.88,87.77z"/>
		<path class="st1" d="M758.61,76.28c0-0.41,0.12-0.76,0.38-1.04c0.25-0.28,0.62-0.42,1.11-0.42s0.87,0.14,1.12,0.42
			c0.26,0.28,0.38,0.63,0.38,1.04c0,0.41-0.13,0.75-0.38,1.03c-0.25,0.27-0.63,0.41-1.12,0.41s-0.86-0.14-1.11-0.41
			C758.74,77.03,758.61,76.69,758.61,76.28z M761.35,95h-2.53V80.21h2.53V95z"/>
		<path class="st1" d="M768.61,92.93h8.65V95h-11.74v-1.86l8.16-10.84h-8.04v-2.09h11.21V82L768.61,92.93z"/>
		<path class="st1" d="M790.08,95c-0.15-0.29-0.26-0.81-0.36-1.56c-1.18,1.22-2.58,1.83-4.21,1.83c-1.46,0-2.66-0.41-3.59-1.24
			c-0.93-0.83-1.4-1.87-1.4-3.14c0-1.54,0.58-2.74,1.76-3.59c1.17-0.85,2.82-1.28,4.94-1.28h2.46v-1.16c0-0.88-0.26-1.59-0.79-2.11
			c-0.53-0.53-1.31-0.79-2.34-0.79c-0.9,0-1.66,0.23-2.27,0.68c-0.61,0.46-0.92,1.01-0.92,1.65h-2.54c0-0.74,0.26-1.45,0.79-2.14
			c0.52-0.69,1.23-1.23,2.13-1.63c0.9-0.4,1.88-0.6,2.96-0.6c1.7,0,3.04,0.43,4.01,1.28c0.97,0.85,1.47,2.03,1.5,3.52v6.81
			c0,1.36,0.17,2.44,0.52,3.24V95H790.08z M785.89,93.07c0.79,0,1.54-0.21,2.26-0.62s1.23-0.94,1.54-1.6v-3.04h-1.98
			c-3.1,0-4.65,0.91-4.65,2.72c0,0.79,0.26,1.41,0.79,1.86C784.38,92.85,785.06,93.07,785.89,93.07z"/>
		<path class="st1" d="M799.63,80.21v16.5c0,2.84-1.29,4.27-3.87,4.27c-0.56,0-1.07-0.08-1.54-0.24v-2.01
			c0.29,0.07,0.67,0.11,1.15,0.11c0.57,0,1-0.15,1.29-0.46c0.3-0.31,0.44-0.84,0.44-1.6V80.21H799.63z M796.84,76.28
			c0-0.4,0.12-0.74,0.38-1.03c0.25-0.29,0.62-0.43,1.1-0.43c0.49,0,0.87,0.14,1.12,0.42s0.38,0.63,0.38,1.04
			c0,0.41-0.13,0.75-0.38,1.03s-0.63,0.41-1.12,0.41s-0.86-0.14-1.11-0.41S796.84,76.69,796.84,76.28z"/>
		<path class="st1" d="M810.68,95.27c-2,0-3.64-0.66-4.89-1.97c-1.26-1.32-1.89-3.08-1.89-5.29v-0.46c0-1.47,0.28-2.78,0.84-3.93
			c0.56-1.15,1.34-2.06,2.35-2.71c1.01-0.65,2.1-0.98,3.27-0.98c1.92,0,3.42,0.63,4.48,1.9c1.07,1.27,1.6,3.08,1.6,5.44v1.05h-10.02
			c0.04,1.46,0.46,2.64,1.28,3.54c0.82,0.9,1.85,1.35,3.11,1.35c0.89,0,1.65-0.18,2.27-0.55c0.62-0.36,1.16-0.85,1.63-1.45l1.54,1.2
			C815.02,94.32,813.16,95.27,810.68,95.27z M810.37,82.01c-1.02,0-1.88,0.37-2.57,1.12c-0.69,0.74-1.12,1.78-1.29,3.12h7.41v-0.19
			c-0.07-1.29-0.42-2.28-1.04-2.99C812.27,82.36,811.43,82.01,810.37,82.01z"/>
	</g>
	<g>
		<g>
			<g>
				<g>
					<circle class="st0" cx="416.11" cy="19.86" r="2.63"/>
				</g>
				<g>
					<circle class="st0" cx="450.47" cy="19.86" r="2.63"/>
				</g>
				<g>
					<circle class="st0" cx="484.84" cy="19.86" r="2.63"/>
				</g>
				<g>
					<circle class="st0" cx="519.21" cy="19.86" r="2.63"/>
				</g>
				<g>
					<circle class="st0" cx="416.11" cy="53.93" r="2.63"/>
				</g>
				<g>
					<circle class="st0" cx="450.47" cy="53.93" r="2.63"/>
				</g>
				<g>
					<circle class="st0" cx="484.84" cy="53.93" r="2.63"/>
				</g>
				<g>
					<circle class="st0" cx="519.21" cy="53.93" r="2.63"/>
				</g>
				<g>
					<path class="st0" d="M418.74,88c0,1.46-1.18,2.63-2.63,2.63c-1.46,0-2.63-1.18-2.63-2.63c0-1.46,1.18-2.63,2.63-2.63
						C417.56,85.36,418.74,86.54,418.74,88z"/>
				</g>
				<g>
					<path class="st0" d="M453.11,88c0,1.46-1.18,2.63-2.63,2.63c-1.46,0-2.63-1.18-2.63-2.63c0-1.46,1.18-2.63,2.63-2.63
						C451.93,85.36,453.11,86.54,453.11,88z"/>
				</g>
				<g>
					<path class="st0" d="M487.48,88c0,1.46-1.18,2.63-2.63,2.63c-1.46,0-2.63-1.18-2.63-2.63c0-1.46,1.18-2.63,2.63-2.63
						C486.3,85.36,487.48,86.54,487.48,88z"/>
				</g>
				<g>
					<path class="st0" d="M521.84,88c0,1.46-1.18,2.63-2.63,2.63c-1.46,0-2.63-1.18-2.63-2.63c0-1.46,1.18-2.63,2.63-2.63
						C520.66,85.36,521.84,86.54,521.84,88z"/>
				</g>
				<g>
					<path class="st0" d="M418.74,122.06c0,1.46-1.18,2.63-2.63,2.63c-1.46,0-2.63-1.18-2.63-2.63c0-1.46,1.18-2.63,2.63-2.63
						C417.56,119.43,418.74,120.61,418.74,122.06z"/>
				</g>
				<g>
					<path class="st0" d="M453.11,122.06c0,1.46-1.18,2.63-2.63,2.63c-1.46,0-2.63-1.18-2.63-2.63c0-1.46,1.18-2.63,2.63-2.63
						C451.93,119.43,453.11,120.61,453.11,122.06z"/>
				</g>
				<g>
					<path class="st0" d="M487.48,122.06c0,1.46-1.18,2.63-2.63,2.63c-1.46,0-2.63-1.18-2.63-2.63c0-1.46,1.18-2.63,2.63-2.63
						C486.3,119.43,487.48,120.61,487.48,122.06z"/>
				</g>
				<g>
					<path class="st0" d="M521.84,122.06c0,1.46-1.18,2.63-2.63,2.63c-1.46,0-2.63-1.18-2.63-2.63c0-1.46,1.18-2.63,2.63-2.63
						C520.66,119.43,521.84,120.61,521.84,122.06z"/>
				</g>
			</g>
			<g>
				<g>
					<circle class="st0" cx="551.45" cy="19.86" r="2.63"/>
				</g>
				<g>
					<circle class="st0" cx="585.82" cy="19.86" r="2.63"/>
				</g>
				<g>
					<circle class="st0" cx="551.45" cy="53.93" r="2.63"/>
				</g>
				<g>
					<circle class="st0" cx="585.82" cy="53.93" r="2.63"/>
				</g>
				<g>
					<path class="st0" d="M554.09,88c0,1.46-1.18,2.63-2.63,2.63c-1.46,0-2.63-1.18-2.63-2.63c0-1.46,1.18-2.63,2.63-2.63
						C552.91,85.36,554.09,86.54,554.09,88z"/>
				</g>
				<g>
					<path class="st0" d="M588.45,88c0,1.46-1.18,2.63-2.63,2.63c-1.46,0-2.63-1.18-2.63-2.63c0-1.46,1.18-2.63,2.63-2.63
						C587.27,85.36,588.45,86.54,588.45,88z"/>
				</g>
				<g>
					<path class="st0" d="M554.09,122.06c0,1.46-1.18,2.63-2.63,2.63c-1.46,0-2.63-1.18-2.63-2.63c0-1.46,1.18-2.63,2.63-2.63
						C552.91,119.43,554.09,120.61,554.09,122.06z"/>
				</g>
				<g>
					<path class="st0" d="M588.45,122.06c0,1.46-1.18,2.63-2.63,2.63c-1.46,0-2.63-1.18-2.63-2.63c0-1.46,1.18-2.63,2.63-2.63
						C587.27,119.43,588.45,120.61,588.45,122.06z"/>
				</g>
			</g>
		</g>
		<g>
			<defs>
				<rect id="SVGID_00000168108994335145886450000005734766230756769457_" x="448.93" y="0" width="183.23" height="150"/>
			</defs>
			<clipPath id="SVGID_00000181770724737485003090000005768494590768059805_">
				<use xlink:href="#SVGID_00000168108994335145886450000005734766230756769457_"  style="overflow:visible;"/>
			</clipPath>
			<g style="clip-path:url(#SVGID_00000181770724737485003090000005768494590768059805_);">
				<g>
					<g class="st3">
						<g>
							<g>
								<path class="st4" d="M579.52,93.13c0.03,0.46,0.04,0.61,0.02,0.84c-0.02,0.24-0.05,0.57-0.08,0.81
									c-0.02,0.13-0.05,0.3-0.08,0.42c-0.16,0.74-0.47,1.49-0.71,1.94c-0.46,0.87-0.93,1.41-1.17,1.65
									c-0.26,0.26-0.44,0.44-0.89,0.77c-0.11,0.08-0.36,0.25-0.77,0.46c0.21-0.1,0.33-0.32,0.3-0.62
									c1.91-0.92,3.31-3.59,3.09-5.91C579.44,93.41,579.54,93.28,579.52,93.13z"/>
							</g>
						</g>
						<g>
							<g>
								<path class="st4" d="M572.57,19.7l0.7,7.34l0.7,7.34l0.7,7.34l0.7,7.34l0.7,7.34l0.7,7.34l0.7,7.34l0.7,7.34l0.7,7.34
									l0.7,7.34c0.01,0.14-0.08,0.28-0.29,0.38l-6.95-73.43C572.49,19.98,572.58,19.84,572.57,19.7z"/>
							</g>
						</g>
						<g>
							<g>
								<path class="st5" d="M565.8,15.72c0.4-0.18,0.52-0.23,0.92-0.34c0.31-0.08,0.67-0.12,0.83-0.13
									c0.61-0.02,1.17,0.03,1.92,0.33c-0.81-0.34-1.79-0.31-2.8,0.18C566.33,15.63,566.01,15.62,565.8,15.72z"/>
							</g>
						</g>
						<g>
							<g>
								<path class="st4" d="M569.48,15.6l0.32,0.13c-0.81-0.34-1.79-0.31-2.8,0.18l-0.32-0.13
									C567.69,15.29,568.67,15.26,569.48,15.6z"/>
							</g>
						</g>
						<g>
							<g>
								<path class="st6" d="M569.8,15.73c0.31,0.14,0.35,0.16,0.48,0.24c0.21,0.13,0.39,0.25,0.54,0.36
									c0.35,0.28,0.64,0.58,0.87,0.91c0.18,0.26,0.74,1.06,0.88,2.46c0.01,0.14-0.08,0.28-0.29,0.38
									c-0.22-2.31-1.98-3.46-3.89-2.53c-0.06-0.61-0.68-1.34-1.39-1.64C568.01,15.43,568.99,15.39,569.8,15.73z"/>
							</g>
						</g>
						<g>
							<g>
								<path class="st5" d="M575.85,100.03l-7.42,3.59l-7.42,3.59l-7.42,3.59l-7.42,3.59l-7.42,3.59l-7.42,3.59l-7.42,3.59
									l-7.42,3.59l-7.42,3.59l-7.42,3.59c0.21-0.1,0.33-0.32,0.3-0.62l74.2-35.93C576.17,99.72,576.06,99.93,575.85,100.03z"/>
							</g>
						</g>
						<g>
							<g>
								<path class="st7" d="M497.65,135.96c-0.28-0.13-0.37-0.17-0.57-0.29c-0.23-0.14-0.42-0.28-0.53-0.38
									c-0.46-0.38-0.73-0.76-0.85-0.94c-0.05-0.08-0.34-0.5-0.54-1.08c-0.19-0.56-0.24-0.97-0.27-1.28
									c0.02,0.2,0.25,0.42,0.66,0.6C495.71,134.29,496.52,135.49,497.65,135.96z"/>
							</g>
						</g>
						<g>
							<g>
								<path class="st4" d="M497.97,136.1l-0.32-0.13c-1.13-0.47-1.94-1.67-2.1-3.37l0.32,0.13
									C496.03,134.43,496.84,135.62,497.97,136.1z"/>
							</g>
						</g>
						<g>
							<g>
								<path class="st8" d="M501.65,135.97c-0.4,0.18-0.51,0.23-0.92,0.34c-0.27,0.07-0.65,0.12-0.81,0.12
									c-0.23,0.01-0.56,0.02-0.95-0.05c-0.32-0.06-0.58-0.12-0.99-0.28c-1.13-0.47-1.94-1.67-2.1-3.37
									c0.71,0.3,1.69,0.34,2.19,0.1c0.22,2.32,1.97,3.46,3.89,2.53C501.97,135.65,501.86,135.86,501.65,135.97z"/>
							</g>
						</g>
						<g>
							<g>
								<path class="st5" d="M491.6,51.66l7.42-3.59l7.42-3.59l7.42-3.59l7.42-3.59l7.42-3.59l7.42-3.59l7.42-3.59l7.42-3.59
									l7.42-3.59l7.42-3.59c0.21-0.1,0.52-0.09,0.88,0.06l-74.2,35.93C492.13,51.56,491.82,51.55,491.6,51.66z"/>
							</g>
						</g>
						<g>
							<g>
								<polygon class="st4" points="492.8,51.85 492.48,51.71 566.68,15.78 567,15.92 								"/>
							</g>
						</g>
						<g>
							<g>
								<path class="st5" d="M494.88,131.99l-0.7-7.34l-0.7-7.34l-0.7-7.34l-0.7-7.34l-0.7-7.34l-0.7-7.34l-0.7-7.34l-0.7-7.34
									l-0.7-7.34l-0.7-7.34c0.02,0.2,0.25,0.42,0.66,0.6l6.95,73.43C495.13,132.42,494.9,132.2,494.88,131.99z"/>
							</g>
						</g>
						<g>
							<g>
								<polygon class="st4" points="495.87,132.73 495.54,132.59 488.59,59.16 488.91,59.29 								"/>
							</g>
						</g>
						<g>
							<g>
								<path class="st6" d="M494.19,53.48c-0.06-0.61-0.68-1.34-1.39-1.64L567,15.92c0.71,0.3,1.33,1.03,1.39,1.64L494.19,53.48z"
									/>
							</g>
						</g>
						<g>
							<g>
								<path class="st6" d="M498.06,132.82c-0.5,0.24-1.48,0.2-2.19-0.1l-6.95-73.43c0.71,0.3,1.69,0.34,2.19,0.1L498.06,132.82z"
									/>
							</g>
						</g>
						<g>
							<g>
								<path class="st5" d="M487.93,58.56c-0.03-0.45-0.04-0.61-0.02-0.84c0.02-0.24,0.05-0.57,0.08-0.81
									c0.02-0.13,0.05-0.3,0.08-0.42c0.16-0.74,0.47-1.49,0.71-1.94c0.46-0.87,0.93-1.41,1.17-1.65c0.26-0.26,0.44-0.44,0.89-0.77
									c0.11-0.08,0.36-0.25,0.77-0.46c0.21-0.1,0.52-0.09,0.88,0.06c-2.42,1.17-4.17,4.52-3.89,7.44
									C488.18,58.98,487.95,58.76,487.93,58.56z"/>
							</g>
						</g>
						<g>
							<g>
								<path class="st4" d="M488.91,59.29l-0.32-0.13c-0.28-2.92,1.48-6.27,3.89-7.44l0.32,0.13
									C490.39,53.02,488.63,56.37,488.91,59.29z"/>
							</g>
						</g>
						<g>
							<g>
								<path class="st6" d="M491.1,59.39c-0.5,0.24-1.48,0.2-2.19-0.1c-0.28-2.92,1.48-6.27,3.89-7.44
									c0.71,0.3,1.33,1.03,1.39,1.64C492.28,54.41,490.88,57.08,491.1,59.39z"/>
							</g>
						</g>
						<g>
							<g>
								<path class="st0" d="M568.39,17.55c1.91-0.93,3.67,0.21,3.89,2.53c2.32,24.48,4.64,48.96,6.95,73.43
									c0.22,2.31-1.18,4.98-3.09,5.91c-24.73,11.98-49.47,23.96-74.2,35.93c-1.91,0.93-3.67-0.21-3.89-2.53
									c-2.32-24.48-4.64-48.96-6.95-73.43c-0.22-2.31,1.17-4.98,3.09-5.91C518.93,41.51,543.66,29.53,568.39,17.55z"/>
							</g>
						</g>
					</g>
				</g>
				<g>
					<g class="st3">
						<g>
							<g>
								<path class="st6" d="M579.85,94c0.01,0.07-0.04,0.14-0.15,0.2c0.17,1.79-0.91,3.86-2.4,4.58c0.01,0.16-0.05,0.27-0.15,0.32
									c0.64-0.32,1-0.69,1.2-0.89c0.18-0.18,0.53-0.59,0.87-1.23c0.09-0.16,0.38-0.75,0.53-1.44c0.08-0.4,0.1-0.6,0.12-0.91
									C579.88,94.45,579.87,94.33,579.85,94z"/>
							</g>
						</g>
						<g>
							<g>
								<path class="st6" d="M572.92,20.79l0.69,7.32l0.69,7.32l0.69,7.32l0.69,7.32l0.69,7.32l0.69,7.32l0.69,7.32l0.69,7.32
									l0.69,7.32l0.69,7.32c0.01,0.07-0.04,0.14-0.15,0.2l-6.93-73.21C572.87,20.93,572.92,20.86,572.92,20.79z"/>
							</g>
						</g>
						<g>
							<g>
								<path class="st9" d="M568.41,18.08c0.28-0.12,0.36-0.16,0.64-0.24c0.19-0.05,0.43-0.08,0.57-0.09
									c0.46-0.02,0.84,0.05,1.26,0.22c-0.59-0.25-1.29-0.22-2.02,0.13C568.68,18.03,568.52,18.03,568.41,18.08z"/>
							</g>
						</g>
						<g>
							<g>
								<path class="st10" d="M570.88,17.98l0.17,0.07c-0.59-0.25-1.29-0.22-2.02,0.13l-0.17-0.07
									C569.6,17.76,570.3,17.73,570.88,17.98z"/>
							</g>
						</g>
						<g>
							<g>
								<path class="st0" d="M571.05,18.05c0.35,0.16,0.49,0.24,0.81,0.51c0.25,0.21,0.45,0.5,0.51,0.6
									c0.17,0.25,0.46,0.78,0.54,1.63c0.01,0.07-0.04,0.14-0.15,0.2c-0.17-1.79-1.53-2.68-3.01-1.96
									c-0.03-0.31-0.35-0.69-0.72-0.85C569.76,17.83,570.46,17.8,571.05,18.05z"/>
							</g>
						</g>
						<g>
							<g>
								<path class="st6" d="M577.15,99.09l-7.41,3.59l-7.41,3.59l-7.41,3.59l-7.41,3.59l-7.41,3.59l-7.41,3.59l-7.41,3.59
									l-7.41,3.59l-7.41,3.59l-7.41,3.59c0.11-0.05,0.17-0.16,0.15-0.32l74.11-35.89C577.32,98.93,577.26,99.04,577.15,99.09z"/>
							</g>
						</g>
						<g>
							<g>
								<path class="st11" d="M500.4,135.02c-0.27-0.12-0.82-0.37-1.29-1.07c-0.46-0.67-0.54-1.38-0.57-1.68
									c0.01,0.11,0.13,0.22,0.34,0.31C499,133.81,499.59,134.67,500.4,135.02z"/>
							</g>
						</g>
						<g>
							<g>
								<path class="st12" d="M500.57,135.09l-0.17-0.07c-0.81-0.34-1.4-1.2-1.52-2.43l0.17,0.07
									C499.16,133.88,499.75,134.74,500.57,135.09z"/>
							</g>
						</g>
						<g>
							<g>
								<path class="st12" d="M503.04,134.98c-0.29,0.13-0.36,0.16-0.64,0.24c-0.17,0.05-0.41,0.08-0.55,0.09
									c-0.48,0.02-0.84-0.04-1.28-0.22c-0.81-0.34-1.4-1.2-1.52-2.43c0.37,0.15,0.88,0.18,1.14,0.05
									c0.17,1.79,1.53,2.68,3.01,1.96C503.21,134.82,503.15,134.93,503.04,134.98z"/>
							</g>
						</g>
						<g>
							<g>
								<path class="st9" d="M494.3,53.97l7.41-3.59l7.41-3.59l7.41-3.59l7.41-3.59l7.41-3.59l7.41-3.59l7.41-3.59l7.41-3.59
									l7.41-3.59l7.41-3.59c0.11-0.05,0.27-0.05,0.46,0.03L494.76,54C494.57,53.92,494.41,53.92,494.3,53.97z"/>
							</g>
						</g>
						<g>
							<g>
								<polygon class="st10" points="494.92,54.07 494.76,54 568.86,18.11 569.03,18.18 								"/>
							</g>
						</g>
						<g>
							<g>
								<path class="st9" d="M498.54,132.27c-2.31-24.4-4.62-48.81-6.93-73.21c0.01,0.11,0.13,0.22,0.34,0.31l6.93,73.21
									C498.67,132.49,498.55,132.38,498.54,132.27z"/>
							</g>
						</g>
						<g>
							<g>
								<polygon class="st10" points="499.05,132.65 498.88,132.58 491.95,59.37 492.11,59.44 								"/>
							</g>
						</g>
						<g>
							<g>
								<path class="st0" d="M495.65,54.92c-0.03-0.31-0.35-0.69-0.72-0.85l74.11-35.89c0.37,0.15,0.69,0.53,0.72,0.85L495.65,54.92
									z"/>
							</g>
						</g>
						<g>
							<g>
								<path class="st0" d="M500.19,132.7c-0.26,0.13-0.77,0.1-1.14-0.05l-6.93-73.21c0.37,0.15,0.88,0.18,1.14,0.05L500.19,132.7z
									"/>
							</g>
						</g>
						<g>
							<g>
								<path class="st9" d="M491.6,59.06c-0.02-0.33-0.03-0.45-0.02-0.62c0.02-0.34,0.04-0.53,0.12-0.91
									c0.15-0.69,0.44-1.28,0.53-1.44c0.34-0.64,0.69-1.04,0.87-1.23c0.2-0.2,0.56-0.58,1.2-0.89c0.11-0.05,0.27-0.05,0.46,0.03
									c-1.74,0.84-3.01,3.26-2.81,5.37C491.73,59.28,491.61,59.17,491.6,59.06z"/>
							</g>
						</g>
						<g>
							<g>
								<path class="st10" d="M492.11,59.44l-0.17-0.07c-0.2-2.11,1.07-4.53,2.81-5.37l0.17,0.07
									C493.18,54.91,491.91,57.33,492.11,59.44z"/>
							</g>
						</g>
						<g>
							<g>
								<path class="st0" d="M493.25,59.49c-0.26,0.13-0.77,0.1-1.14-0.05c-0.2-2.11,1.07-4.53,2.81-5.37
									c0.37,0.15,0.69,0.53,0.72,0.85C494.16,55.63,493.08,57.7,493.25,59.49z"/>
							</g>
						</g>
						<g>
							<g>
								<path class="st10" d="M569.75,19.03c1.48-0.72,2.84,0.16,3.01,1.96c2.31,24.4,4.62,48.81,6.93,73.21
									c0.17,1.79-0.91,3.86-2.4,4.58c-24.7,11.96-49.4,23.93-74.11,35.89c-1.48,0.72-2.84-0.16-3.01-1.96
									c-2.31-24.4-4.62-48.81-6.93-73.21c-0.17-1.79,0.91-3.86,2.39-4.58C520.35,42.95,545.05,30.99,569.75,19.03z"/>
							</g>
						</g>
					</g>
				</g>
				<g class="st3">
					<g>
						<g>
							<path class="st13" d="M507.81,120.35l-3.03-31.99l31.67-15.34l3.03,31.99L507.81,120.35L507.81,120.35z M546.18,101.77
								l-3.03-31.99l25.44-12.32l3.03,31.99L546.18,101.77L546.18,101.77z M503.87,79.35l-1.74-18.39l63.88-30.75l1.74,18.39
								l-3.58,1.73l-59.42,28.59L503.87,79.35L503.87,79.35z"/>
						</g>
						<g>
							<g>
								<path class="st14" d="M556.6,71.3c-2.5,1.21-4.29,4.63-4,7.65c0.29,3.02,2.54,4.48,5.04,3.27c1.84-0.89,3.29-2.98,3.82-5.22
									c0.19-0.8,0.26-1.63,0.18-2.43c-0.16-1.73-0.98-2.95-2.11-3.45C558.68,70.76,557.66,70.79,556.6,71.3L556.6,71.3z
									 M553.03,95.11l-0.2-2.1l11.14-5.39l0.2,2.1L553.03,95.11L553.03,95.11z M558.13,87.48c-4.9,2.37-9.33-0.5-9.89-6.42
									c-0.56-5.92,2.96-12.64,7.86-15.02c0.08-0.04,0.15-0.07,0.23-0.11c0.15-0.07,0.3-0.13,0.45-0.19
									c0.08-0.03,0.15-0.06,0.23-0.08c0.15-0.06,0.3-0.11,0.45-0.15c0.14-0.04,0.28-0.08,0.42-0.11l0.04-0.01
									c0.07-0.02,0.14-0.03,0.21-0.04c0.15-0.03,0.29-0.06,0.44-0.08c0.14-0.02,0.29-0.03,0.43-0.04
									c0.07-0.01,0.14-0.01,0.22-0.01c0.14-0.01,0.28-0.01,0.42,0c0.14,0,0.28,0.01,0.41,0.02c0.07,0,0.14,0.01,0.21,0.02
									c0.41,0.05,0.8,0.14,1.17,0.28c0.06,0.02,0.12,0.04,0.19,0.07c0.08,0.03,0.15,0.06,0.23,0.09l0,0
									c2.23,0.98,3.83,3.37,4.15,6.77c0.15,1.56,0.01,3.18-0.36,4.77l-0.01,0.02c-0.03,0.13-0.06,0.26-0.1,0.39
									c-0.03,0.11-0.05,0.21-0.08,0.31c-0.2,0.69-0.43,1.38-0.72,2.04c-0.03,0.07-0.06,0.14-0.09,0.21
									c-0.1,0.22-0.2,0.44-0.3,0.66c-0.05,0.1-0.1,0.21-0.15,0.31c-0.11,0.22-0.22,0.43-0.34,0.64c-0.05,0.09-0.09,0.16-0.14,0.25
									l-0.01,0.01c-0.09,0.16-0.19,0.32-0.3,0.48c-0.05,0.08-0.1,0.16-0.15,0.24c-0.1,0.16-0.21,0.32-0.32,0.47
									c-0.33,0.46-0.67,0.9-1.04,1.31c-0.06,0.07-0.12,0.14-0.18,0.2c-0.18,0.2-0.37,0.4-0.57,0.59c-0.2,0.19-0.4,0.37-0.6,0.55
									c-0.2,0.17-0.4,0.33-0.61,0.49l-0.04,0.03c-0.07,0.05-0.13,0.09-0.2,0.14c-0.07,0.05-0.14,0.1-0.22,0.15
									c-0.07,0.05-0.14,0.1-0.22,0.14c-0.07,0.05-0.15,0.1-0.22,0.14c-0.07,0.05-0.15,0.09-0.22,0.13
									C558.59,87.25,558.36,87.37,558.13,87.48L558.13,87.48z M568.59,57.46l-25.44,12.32l3.03,31.99l25.44-12.32L568.59,57.46
									L568.59,57.46z"/>
							</g>
						</g>
						<g>
							<g>
								<path class="st14" d="M509.59,111.56l-0.2-2.1l13.06-6.32l0.2,2.1L509.59,111.56L509.59,111.56z M509.13,106.73l-0.2-2.1
									l26.68-12.92l0.2,2.1L509.13,106.73L509.13,106.73z M508.68,101.91l-0.2-2.1l26.68-12.92l0.2,2.1L508.68,101.91
									L508.68,101.91z M508.22,97.08l-0.2-2.1l26.68-12.92l0.2,2.1L508.22,97.08L508.22,97.08z M507.76,92.26l-0.2-2.1
									l26.68-12.92l0.2,2.1L507.76,92.26L507.76,92.26z M536.46,73.02l-31.67,15.34l3.03,31.99l31.67-15.34L536.46,73.02
									L536.46,73.02z"/>
							</g>
						</g>
						<g>
							<g>
								<path class="st14" d="M506.28,73.96l-0.25-2.68l50.36-24.21l0.25,2.68L506.28,73.96L506.28,73.96z M505.62,67.04l-0.38-3.99
									l40.51-19.43l0.38,3.99L505.62,67.04L505.62,67.04z M548.92,46.25l-0.38-3.99l11.8-5.71l0.38,3.99L548.92,46.25
									L548.92,46.25z M566.01,30.21l-63.88,30.75l1.74,18.39l0.88-0.43l59.42-28.59l3.58-1.73L566.01,30.21L566.01,30.21z"/>
							</g>
						</g>
						<g>
							<polygon class="st9" points="545.75,43.61 505.25,63.05 505.62,67.04 546.13,47.61 545.75,43.61 							"/>
						</g>
						<g>
							<polygon class="st9" points="556.39,47.07 506.03,71.28 506.28,73.96 556.64,49.76 556.39,47.07 							"/>
						</g>
						<g>
							<polygon class="st9" points="534.25,77.23 507.56,90.16 507.76,92.26 534.45,79.34 534.25,77.23 							"/>
						</g>
						<g>
							<polygon class="st9" points="534.7,82.06 508.02,94.98 508.22,97.08 534.9,84.16 534.7,82.06 							"/>
						</g>
						<g>
							<polygon class="st9" points="535.16,86.88 508.48,99.81 508.68,101.91 535.36,88.99 535.16,86.88 							"/>
						</g>
						<g>
							<polygon class="st9" points="535.62,91.71 508.93,104.63 509.13,106.73 535.82,93.81 535.62,91.71 							"/>
						</g>
						<g>
							<polygon class="st9" points="522.45,103.13 509.39,109.45 509.59,111.56 522.65,105.23 522.45,103.13 							"/>
						</g>
						<g>
							<polygon class="st9" points="563.97,87.61 552.83,93.01 553.03,95.11 564.17,89.71 563.97,87.61 							"/>
						</g>
						<g>
							<polygon class="st9" points="560.35,36.54 548.55,42.26 548.92,46.25 560.72,40.54 560.35,36.54 							"/>
						</g>
						<g>
							<path class="st9" d="M561.84,65.7l-2.32,5.43c-0.84-0.37-1.86-0.34-2.92,0.18c-2.5,1.21-4.29,4.63-4,7.65
								c-0.29-3.02,1.51-6.44,4-7.65c1.06-0.52,2.08-0.54,2.92-0.18c1.14,0.5,1.95,1.72,2.11,3.45c0.08,0.8,0.01,1.62-0.18,2.43
								l4.17,0.23l-0.01,0.02c-0.03,0.13-0.06,0.26-0.1,0.39c-0.03,0.11-0.05,0.21-0.08,0.31c-0.2,0.69-0.43,1.38-0.72,2.04
								c-0.03,0.07-0.06,0.14-0.09,0.21c-0.1,0.22-0.2,0.44-0.3,0.66c-0.05,0.1-0.1,0.21-0.15,0.31c-0.11,0.22-0.22,0.43-0.34,0.64
								c-0.05,0.09-0.09,0.16-0.14,0.25l-0.01,0.01c-0.09,0.16-0.19,0.32-0.3,0.48c-0.05,0.08-0.1,0.16-0.15,0.24
								c0.05-0.08,0.1-0.16,0.15-0.24c0.1-0.16,0.2-0.32,0.3-0.48l0.01-0.01c0.05-0.09,0.09-0.16,0.14-0.25
								c0.12-0.21,0.24-0.42,0.34-0.64c0.05-0.1,0.1-0.2,0.15-0.31c0.11-0.21,0.21-0.43,0.3-0.66c0.03-0.07,0.06-0.14,0.09-0.21
								c0.28-0.67,0.52-1.35,0.72-2.04c0.03-0.1,0.06-0.21,0.08-0.31c0.04-0.13,0.07-0.26,0.1-0.39l0.01-0.02
								c0.37-1.58,0.51-3.2,0.36-4.77C565.66,69.07,564.07,66.68,561.84,65.7L561.84,65.7z"/>
						</g>
						<g>
							<path class="st15" d="M556.1,66.04c-4.9,2.37-8.42,9.1-7.86,15.02c0.56,5.92,4.99,8.8,9.89,6.42
								c0.23-0.11,0.46-0.23,0.68-0.36c0.08-0.04,0.15-0.09,0.22-0.13c0.07-0.04,0.15-0.09,0.22-0.14c0.07-0.05,0.14-0.09,0.22-0.14
								c0.07-0.05,0.14-0.1,0.22-0.15c0.07-0.05,0.13-0.1,0.2-0.14l0.04-0.03c0.2-0.15,0.41-0.31,0.61-0.49
								c0.2-0.17,0.4-0.35,0.6-0.55c0.2-0.19,0.39-0.38,0.57-0.59c0.06-0.07,0.12-0.14,0.18-0.2c0.37-0.41,0.71-0.85,1.04-1.31
								c0.11-0.15,0.22-0.3,0.32-0.47c0.05-0.08,0.1-0.16,0.15-0.24c0.1-0.16,0.2-0.32,0.3-0.48l0.01-0.01
								c0.05-0.09,0.09-0.16,0.14-0.25c0.12-0.21,0.24-0.42,0.34-0.64c0.05-0.1,0.1-0.2,0.15-0.31c0.11-0.21,0.21-0.43,0.3-0.66
								c0.03-0.07,0.06-0.14,0.09-0.21c0.28-0.67,0.52-1.35,0.72-2.04c0.03-0.1,0.06-0.21,0.08-0.31c0.04-0.13,0.07-0.26,0.1-0.39
								l0.01-0.02L561.45,77c-0.53,2.24-1.98,4.33-3.82,5.22c-2.5,1.21-4.75-0.26-5.04-3.27c-0.29-3.02,1.51-6.44,4-7.65
								c1.06-0.52,2.08-0.54,2.92-0.18l2.32-5.43l0,0c-0.08-0.03-0.15-0.07-0.23-0.09c-0.06-0.02-0.12-0.05-0.19-0.07
								c-0.37-0.13-0.77-0.23-1.17-0.28c-0.07-0.01-0.14-0.02-0.21-0.02c-0.14-0.02-0.27-0.03-0.41-0.02
								c-0.14-0.01-0.28-0.01-0.42,0c-0.07,0-0.14,0-0.22,0.01c-0.14,0.01-0.28,0.03-0.43,0.04c-0.15,0.02-0.29,0.04-0.44,0.08
								c-0.07,0.01-0.14,0.03-0.21,0.04l-0.04,0.01c-0.14,0.03-0.28,0.07-0.42,0.11c-0.15,0.04-0.3,0.09-0.45,0.15
								c-0.08,0.03-0.15,0.05-0.23,0.08c-0.15,0.06-0.3,0.12-0.45,0.19C556.25,65.97,556.18,66.01,556.1,66.04L556.1,66.04z"/>
						</g>
					</g>
				</g>
				<g>
					<g>
						<g>
							<path class="st16" d="M512.58,121.12c0.09,2.58-0.74,7.08-0.79,7.64c2.68,11.2,9.39,19.54,10.3,23.47
								c0.61,2.62-5.86,3.56-11.45,6.26c-2.78,1.35-8.66,2.97-8.76,2.69c-0.3-0.85-6.28-27.34-9.22-32.03
								c-2.94-4.69-8.78-14.23-8.95-15.67c-0.02-0.13-0.01-0.28,0.01-0.43c0.2-1.52,1.76-5.68,2.07-6.41
								c0.33-0.8,1.6-8.76,1.71-10.22c0.04-0.49,0.27-1.22,0.59-1.97c0.37-0.89,0.85-1.84,1.27-2.54c0-0.01,0-0.01,0-0.01
								c0.27-0.44,0.5-0.79,0.65-0.96c0.18-0.19,0.52-0.41,0.91-0.62c0.91-0.49,2.1-0.95,2.1-0.95s0.24-0.52,0.63-1.2
								c1.15-2.05,3.75-1.57,3.75-1.57c0.04,0,1.18,0.1,2.09,1.53c0.66,1.04,2.83,9.12,2.83,9.12s2.2,7.19,5.57,11.76"/>
						</g>
						<g>
							<path class="st17" d="M498.25,113.83c-1.36-4.06-1.66-6.05-1.66-6.05l-2.09-2.57c0,0,0.43-0.76,0.59-1.06
								c0.16-0.3-1.32-3.68-2.49-7.04c-1.17-3.36-2.77-2.65-2.84-3.51c-0.05-0.63,0.56-2.05,1.16-3.27c0.91-0.49,2.1-0.95,2.1-0.95
								c-0.23,1.04-0.11,3.52,0.4,5.56c0.51,2.04,3.8,11.79,4.52,13.71C498.66,110.55,497.79,111.11,498.25,113.83z"/>
						</g>
						<g class="st18">
							<path class="st17" d="M507.45,159.64c-2.78,1.35-5.46,1.83-5.56,1.55c-0.3-0.85-6.28-27.34-9.22-32.03
								c-2.94-4.69-8.78-14.24-8.95-15.67c-0.02-0.13-0.01-0.28,0.01-0.43c0,0.01,0.01,0.01,0.01,0.01c1,2.01,2.97-0.27,2.39-1.76
								c-0.58-1.49,0.69-4.75,1.07-6.24c0.38-1.47,0.65-9.49,0.9-10.61l0-0.02c0.23-1,1.19-2.41,1.27-2.52
								c-0.05,0.19-0.99,4.27-1.15,7.36c-0.16,3.16,0.34,5.13-0.32,6.66c-0.66,1.54-1.04,2.86,0.7,3.68
								c1.73,0.81,5.85,10.29,7.45,14.75c1.44,4,1.17,4.85,2.55,9.64C499.83,138.35,504.31,151.87,507.45,159.64z"/>
						</g>
						<g>
							<path class="st19" d="M499.84,92.01c-0.26,0.77-3.09,1.36-3.78,1.48c-0.69,0.11-1.5-1.2-1.64-1.52
								c-0.14-0.32-0.6-2.02,0-3.34c0.59-1.32,2-1.65,2.73-1.61c0.73,0.04,1.58,0.5,2.06,1.63c0.58,1.38,0.65,3.26,0.65,3.26
								L499.84,92.01z"/>
						</g>
					</g>
					<g>
						<g>
							<path class="st17" d="M513.3,152.56c5.35-1.98,9.31-1.77,8.85,0.48c-0.46,2.24-6.05,6.16-11.4,8.14
								c-5.35,1.98-9.31,1.76-8.85-0.48C502.37,158.45,507.96,154.54,513.3,152.56z"/>
						</g>
					</g>
				</g>
				<g>
					<g>
						<g>
							<path class="st16" d="M615.49,154.34l-13.77,7.29l-5.33,2.83c0,0-10.49-18.53-11.5-19.95c-1-1.42-4.87-3.45-6.06-4.91
								c-1.2-1.46-7.43-10.49-8-12.58c-0.57-2.09-1.15-7.77-1.23-11.08c-0.08-3.3,0.31-4.58,0.31-4.58s-0.28-0.88-0.99-2.41
								c-0.46-0.99-0.66-1.7-0.45-2.39l0,0c0.11-0.38,0.35-0.76,0.73-1.18c0.59-0.65,1.4-0.63,2.01-0.49
								c0.49,0.12,0.84,0.31,0.84,0.31s-4.84-15.46-5.27-19c-0.25-2.04,0.49-3.03,1.36-3.51c0.63-0.36,1.33-0.45,1.75-0.49
								c1-0.09,2.09,3.44,2.09,3.44l10.54,23.91c0,0,1.41-2.04,4.04-2.17c2.63-0.13,3.11,1.67,3.11,1.67s0,0,1.21-0.19
								c1.21-0.19,3.64,0.69,4.2,3.01c1.49-0.85,3.87,0.02,4.89,1.52c1.02,1.5,2.17,7.52,2.45,11.24c0.28,3.72,0.34,6.25,1.49,9.02
								C605.26,136.91,615.49,154.34,615.49,154.34z"/>
						</g>
						<g>
							<path class="st17" d="M576.62,125.17c-0.17-1.15-0.49-3.11-0.56-4.46c-0.06-1.34-0.04-3.1-0.54-5.08
								c-0.5-1.97-0.4-3.96-1.04-5.15c-0.65-1.19-2.43-5.29-2.43-5.29s1.67,5.57,1.95,6.98c0.29,1.42,1.1,8.03,1.15,9.23
								C575.2,122.61,575.69,124.27,576.62,125.17z"/>
						</g>
						<g>
							<path class="st19" d="M572.49,107.88c-0.14,0.87-0.99,1.59-1.56,1.94c-0.57,0.35-1.12,0.35-1.12,0.35s-0.15-0.04-0.43-0.46
								c-0.29-0.42-0.87-1.98-0.92-2.63c-0.05-0.66,0.53-1.72,1.4-1.9s1.23-0.09,1.41,0.2
								C571.44,105.66,572.52,107.71,572.49,107.88z"/>
						</g>
						<g>
							<path class="st19" d="M568.13,83.31c-0.1,1.21,0.73,2.77,1.2,3.13s1.68,0.37,1.99,0.24c0.66-0.26,0.77-0.61,0.59-1.06
								c-0.26-0.64-0.81-2.58-1.51-3.04C569.7,82.12,568.18,82.59,568.13,83.31z"/>
						</g>
						<g class="st18">
							<path class="st17" d="M601.01,162.22l-4.62,2.23c0,0-10.49-18.53-11.5-19.95c-1-1.42-4.87-3.45-6.06-4.91
								c-1.2-1.46-7.43-10.49-8-12.58c-0.57-2.09-1.15-7.77-1.23-11.08c-0.08-3.3,0.31-4.58,0.31-4.58s-0.28-0.88-0.99-2.41
								c-0.46-0.99-0.66-1.7-0.45-2.39c0.3,1.94,1.66,4.18,1.69,4.81c0.03,0.63-0.09,0.96-0.16,1.98c-0.06,1.02,0.09,3.22,0.32,5.97
								c0.17,1.93,0.27,3.84,0.72,5.43c0.18-0.17,0.51-0.46,0.8-0.69c0.01-0.01,0.01-0.01,0.02-0.02c0.01-0.01,0.02-0.02,0.04-0.03
								c0,0,0,0,0.01-0.01c0.74-0.55,1.56-0.05,1.62-0.81c0.1-1.24-0.69-5-0.97-7.25c-0.28-2.24,0.55-7.01-1-10.44
								c-0.08-0.18-0.2-0.38-0.36-0.62c0.49,0.12,0.84,0.31,0.84,0.31s-4.84-15.46-5.27-19c-0.25-2.04,0.49-3.03,1.36-3.51
								c-0.37,0.61-0.55,1.23-0.6,1.83c-0.07,0.91,0.4,3.61,2.16,8.65s7.53,20.42,8.63,22.79c1.1,2.36-0.38,6.65-0.08,8.64
								c0.3,1.99,1.55,7.8,6.05,11.27c4.51,3.47,3.13,3.96,4.43,7.21C589.95,146.13,601.01,162.22,601.01,162.22z"/>
						</g>
					</g>
					<g>
						<g>
							<path class="st20" d="M606.59,155.21c5.36-2.28,9.42-2.25,9.06,0.06c-0.36,2.31-5,6.03-10.36,8.31
								c-5.36,2.28-9.41,2.25-9.05-0.07C596.59,161.2,601.23,157.48,606.59,155.21z"/>
						</g>
					</g>
				</g>
			</g>
		</g>
	</g>
</g>
</svg>
