<?xml version="1.0" encoding="utf-8"?>
<!-- Generator: Adobe Illustrator 25.4.1, SVG Export Plug-In . SVG Version: 6.00 Build 0)  -->
<svg version="1.1" id="Capa_1" xmlns="http://www.w3.org/2000/svg" xmlns:xlink="http://www.w3.org/1999/xlink" x="0px" y="0px"
	 viewBox="0 0 600 200" style="enable-background:new 0 0 600 200;" xml:space="preserve">
<style type="text/css">
	.st0{fill:#61A661;}
	.st1{fill:#343D48;}
	.st2{display:none;clip-path:url(#SVGID_00000051342605657879892940000007413267903500576154_);}
	.st3{display:inline;}
	.st4{fill:#CBDBC1;}
	.st5{display:inline;opacity:0.5;}
	.st6{fill:#F5D171;}
</style>
<g>
	<g>
		<g>
			<path class="st0" d="M56.63,84.74h-9.08l-1.77,8.44h-7.05l10.31-41.23h6.09l10.38,41.23H58.4L56.63,84.74z M49,77.8h6.16
				l-3.08-14.7L49,77.8z"/>
			<path class="st0" d="M90.48,79.44c-0.17,4.7-1.22,8.26-3.17,10.68s-4.7,3.62-8.25,3.62c-3.73,0-6.59-1.53-8.58-4.6
				c-1.99-3.07-2.98-7.44-2.98-13.13v-6.94c0-5.66,1.03-10.03,3.08-13.1c2.05-3.07,4.91-4.6,8.56-4.6c3.59,0,6.32,1.26,8.19,3.77
				c1.87,2.51,2.93,6.12,3.18,10.82h-6.68c-0.06-2.91-0.42-4.91-1.08-6.02c-0.66-1.1-1.86-1.66-3.61-1.66
				c-1.78,0-3.04,0.78-3.78,2.34c-0.74,1.56-1.13,4.12-1.18,7.69v7.79c0,4.1,0.37,6.91,1.1,8.44s1.99,2.29,3.77,2.29
				c1.75,0,2.96-0.53,3.62-1.6c0.66-1.07,1.04-3,1.13-5.79H90.48z"/>
			<path class="st0" d="M116.95,79.44c-0.17,4.7-1.22,8.26-3.17,10.68s-4.7,3.62-8.25,3.62c-3.73,0-6.59-1.53-8.58-4.6
				c-1.99-3.07-2.98-7.44-2.98-13.13v-6.94c0-5.66,1.03-10.03,3.08-13.1c2.05-3.07,4.91-4.6,8.56-4.6c3.59,0,6.32,1.26,8.19,3.77
				c1.87,2.51,2.93,6.12,3.18,10.82h-6.68c-0.06-2.91-0.42-4.91-1.08-6.02c-0.66-1.1-1.86-1.66-3.61-1.66
				c-1.78,0-3.04,0.78-3.78,2.34c-0.74,1.56-1.13,4.12-1.18,7.69v7.79c0,4.1,0.37,6.91,1.1,8.44s1.99,2.29,3.77,2.29
				c1.75,0,2.96-0.53,3.62-1.6c0.66-1.07,1.04-3,1.13-5.79H116.95z"/>
			<path class="st0" d="M138.09,75.34h-10.38v10.93h12.28v6.91h-18.94V51.94h18.9v6.94h-12.23v9.74h10.38V75.34z"/>
			<path class="st0" d="M157.75,82.36c0-1.68-0.34-2.95-1.03-3.81c-0.69-0.86-1.94-1.75-3.75-2.68c-3.31-1.57-5.69-3.4-7.14-5.51
				c-1.45-2.1-2.17-4.59-2.17-7.46c0-3.47,0.99-6.26,2.96-8.37c1.97-2.11,4.47-3.16,7.51-3.16c2.02,0,3.83,0.53,5.42,1.6
				c1.59,1.07,2.81,2.57,3.66,4.52s1.28,4.15,1.28,6.63h-6.64c0-1.93-0.33-3.39-0.99-4.4c-0.66-1.01-1.61-1.51-2.84-1.51
				c-1.16,0-2.07,0.43-2.72,1.29c-0.65,0.86-0.97,2.02-0.97,3.47c0,1.13,0.36,2.16,1.09,3.07c0.73,0.92,2.01,1.86,3.85,2.85
				c3.22,1.45,5.55,3.24,7.01,5.35c1.46,2.11,2.19,4.8,2.19,8.07c0,3.59-0.91,6.39-2.74,8.41c-1.83,2.02-4.31,3.03-7.45,3.03
				c-2.13,0-4.07-0.55-5.82-1.64s-3.12-2.66-4.11-4.7s-1.48-4.45-1.48-7.22h6.68c0,2.38,0.37,4.11,1.11,5.18
				c0.74,1.08,1.95,1.61,3.62,1.61C156.59,86.98,157.75,85.44,157.75,82.36z"/>
			<path class="st0" d="M175.83,93.18h-6.66V51.94h6.66V93.18z"/>
			<path class="st0" d="M181.43,93.18V51.94h10.2c3.44,0,6.06,0.96,7.85,2.88c1.79,1.92,2.68,4.72,2.68,8.42
				c0,2.1-0.37,3.9-1.11,5.41c-0.74,1.51-1.75,2.62-3.04,3.31c1.48,0.53,2.62,1.59,3.42,3.19c0.8,1.59,1.2,3.56,1.2,5.9
				c0,4-0.88,7.02-2.64,9.06c-1.76,2.04-4.31,3.06-7.65,3.06H181.43z M188.09,69.19h3.47c2.61,0,3.92-1.69,3.92-5.07
				c0-1.87-0.3-3.21-0.91-4.02c-0.6-0.81-1.59-1.22-2.95-1.22h-3.53V69.19z M188.09,75.25v11.02h4.26c1.19,0,2.1-0.46,2.72-1.39
				c0.62-0.92,0.93-2.24,0.93-3.94c0-3.7-1.07-5.6-3.22-5.69H188.09z"/>
			<path class="st0" d="M214.41,93.18h-6.66V51.94h6.66V93.18z"/>
			<path class="st0" d="M226.67,86.27h11.69v6.91h-18.35V51.94h6.66V86.27z"/>
			<path class="st0" d="M249.17,93.18h-6.66V51.94h6.66V93.18z"/>
			<path class="st0" d="M254.77,93.18V51.94h8.72c3.85,0,6.92,1.53,9.21,4.59s3.46,7.25,3.5,12.57v6.68c0,5.42-1.14,9.67-3.43,12.76
				c-2.29,3.09-5.44,4.63-9.46,4.63H254.77z M261.43,58.88v27.39h1.99c2.22,0,3.78-0.73,4.69-2.2c0.91-1.46,1.38-3.99,1.43-7.58
				v-7.17c0-3.85-0.43-6.54-1.29-8.06c-0.86-1.52-2.33-2.32-4.39-2.39H261.43z"/>
			<path class="st0" d="M296.25,84.74h-9.08l-1.77,8.44h-7.05l10.31-41.23h6.09l10.38,41.23h-7.11L296.25,84.74z M288.61,77.8h6.16
				l-3.08-14.7L288.61,77.8z"/>
			<path class="st0" d="M308.21,93.18V51.94h8.72c3.85,0,6.92,1.53,9.21,4.59c2.29,3.06,3.46,7.25,3.5,12.57v6.68
				c0,5.42-1.14,9.67-3.43,12.76c-2.29,3.09-5.44,4.63-9.46,4.63H308.21z M314.87,58.88v27.39h1.99c2.22,0,3.78-0.73,4.69-2.2
				c0.91-1.46,1.38-3.99,1.43-7.58v-7.17c0-3.85-0.43-6.54-1.29-8.06c-0.86-1.52-2.33-2.32-4.39-2.39H314.87z"/>
		</g>
		<g>
			<path class="st1" d="M110.12,114.34h-6.97v4.72h8.19v2.92H99.52v-17.63h11.79v2.94h-8.16v4.2h6.97V114.34z"/>
			<path class="st1" d="M128.55,121.98h-3.63l-7.07-11.6v11.6h-3.63v-17.63h3.63l7.08,11.62v-11.62h3.62V121.98z"/>
			<path class="st1" d="M145.91,115.52h-2.89v6.45h-3.63v-17.63h6.55c2.08,0,3.69,0.46,4.82,1.39c1.13,0.93,1.7,2.24,1.7,3.94
				c0,1.2-0.26,2.21-0.78,3.01c-0.52,0.8-1.31,1.44-2.37,1.92l3.81,7.21v0.17h-3.9L145.91,115.52z M143.02,112.58h2.93
				c0.91,0,1.62-0.23,2.12-0.7c0.5-0.46,0.75-1.1,0.75-1.92c0-0.83-0.24-1.49-0.71-1.96c-0.47-0.48-1.2-0.71-2.17-0.71h-2.92V112.58
				z"/>
			<path class="st1" d="M166.56,114.34h-6.97v4.72h8.19v2.92h-11.82v-17.63h11.79v2.94h-8.16v4.2h6.97V114.34z"/>
			<path class="st1" d="M184.49,116.11c-0.14,1.9-0.84,3.39-2.1,4.48c-1.26,1.09-2.93,1.63-5,1.63c-2.26,0-4.04-0.76-5.33-2.28
				c-1.3-1.52-1.94-3.61-1.94-6.27v-1.08c0-1.7,0.3-3.19,0.9-4.48s1.45-2.28,2.56-2.97c1.11-0.69,2.4-1.04,3.87-1.04
				c2.04,0,3.67,0.54,4.92,1.63s1.96,2.62,2.16,4.59h-3.63c-0.09-1.14-0.41-1.96-0.95-2.48c-0.54-0.51-1.38-0.77-2.49-0.77
				c-1.21,0-2.12,0.43-2.72,1.3c-0.6,0.87-0.91,2.21-0.93,4.04v1.33c0,1.91,0.29,3.3,0.87,4.18c0.58,0.88,1.49,1.32,2.73,1.32
				c1.12,0,1.96-0.26,2.51-0.77c0.55-0.51,0.87-1.31,0.95-2.38H184.49z"/>
			<path class="st1" d="M200.97,104.35v11.61c0,1.93-0.6,3.46-1.81,4.58c-1.21,1.12-2.86,1.68-4.95,1.68c-2.06,0-3.69-0.54-4.9-1.63
				s-1.83-2.59-1.85-4.49v-11.75h3.63v11.64c0,1.15,0.28,2,0.83,2.52c0.55,0.53,1.32,0.79,2.29,0.79c2.04,0,3.08-1.07,3.11-3.22
				v-11.73H200.97z"/>
			<path class="st1" d="M211.22,115.52h-2.89v6.45h-3.63v-17.63h6.55c2.08,0,3.69,0.46,4.82,1.39c1.13,0.93,1.7,2.24,1.7,3.94
				c0,1.2-0.26,2.21-0.78,3.01c-0.52,0.8-1.31,1.44-2.37,1.92l3.81,7.21v0.17h-3.9L211.22,115.52z M208.32,112.58h2.93
				c0.91,0,1.62-0.23,2.12-0.7c0.5-0.46,0.75-1.1,0.75-1.92c0-0.83-0.24-1.49-0.71-1.96c-0.47-0.48-1.2-0.71-2.17-0.71h-2.92V112.58
				z"/>
			<path class="st1" d="M230.4,117.35c0-0.69-0.24-1.21-0.73-1.58s-1.36-0.75-2.62-1.16c-1.26-0.41-2.26-0.81-2.99-1.21
				c-2-1.08-3-2.54-3-4.37c0-0.95,0.27-1.8,0.8-2.55c0.54-0.75,1.31-1.33,2.31-1.75c1-0.42,2.13-0.63,3.38-0.63
				c1.26,0,2.38,0.23,3.37,0.68c0.98,0.46,1.75,1.1,2.29,1.93c0.54,0.83,0.82,1.78,0.82,2.83h-3.63c0-0.81-0.25-1.44-0.76-1.88
				c-0.51-0.45-1.22-0.67-2.14-0.67c-0.89,0-1.58,0.19-2.07,0.56c-0.49,0.38-0.74,0.87-0.74,1.48c0,0.57,0.29,1.05,0.87,1.44
				c0.58,0.39,1.43,0.75,2.55,1.09c2.07,0.62,3.57,1.39,4.52,2.31c0.94,0.92,1.42,2.07,1.42,3.44c0,1.53-0.58,2.72-1.73,3.59
				s-2.71,1.3-4.66,1.3c-1.36,0-2.59-0.25-3.71-0.75c-1.11-0.5-1.96-1.18-2.55-2.04c-0.59-0.86-0.88-1.87-0.88-3h3.64
				c0,1.95,1.16,2.92,3.49,2.92c0.86,0,1.54-0.18,2.02-0.53C230.16,118.47,230.4,117.98,230.4,117.35z"/>
			<path class="st1" d="M251.73,113.56c0,1.74-0.31,3.26-0.92,4.57s-1.49,2.32-2.63,3.03c-1.14,0.71-2.45,1.07-3.93,1.07
				c-1.46,0-2.76-0.35-3.91-1.05s-2.03-1.71-2.66-3.01s-0.95-2.8-0.96-4.5v-0.87c0-1.74,0.31-3.26,0.94-4.58
				c0.63-1.32,1.51-2.33,2.65-3.04c1.14-0.71,2.45-1.06,3.92-1.06c1.47,0,2.78,0.35,3.92,1.06c1.14,0.71,2.03,1.72,2.65,3.04
				c0.63,1.32,0.94,2.84,0.94,4.57V113.56z M248.05,112.76c0-1.85-0.33-3.25-0.99-4.21c-0.66-0.96-1.61-1.44-2.83-1.44
				c-1.22,0-2.16,0.47-2.82,1.42s-1,2.34-1,4.17v0.86c0,1.8,0.33,3.2,0.99,4.19c0.66,0.99,1.61,1.49,2.86,1.49
				c1.22,0,2.16-0.48,2.81-1.44c0.65-0.96,0.98-2.35,0.99-4.18V112.76z"/>
			<path class="st1" d="M264.26,117.35c0-0.69-0.24-1.21-0.73-1.58s-1.36-0.75-2.62-1.16c-1.26-0.41-2.26-0.81-2.99-1.21
				c-2-1.08-3-2.54-3-4.37c0-0.95,0.27-1.8,0.8-2.55c0.54-0.75,1.31-1.33,2.31-1.75c1-0.42,2.13-0.63,3.38-0.63
				c1.26,0,2.38,0.23,3.37,0.68c0.98,0.46,1.75,1.1,2.29,1.93c0.54,0.83,0.82,1.78,0.82,2.83h-3.63c0-0.81-0.25-1.44-0.76-1.88
				c-0.51-0.45-1.22-0.67-2.14-0.67c-0.89,0-1.58,0.19-2.07,0.56c-0.49,0.38-0.74,0.87-0.74,1.48c0,0.57,0.29,1.05,0.87,1.44
				c0.58,0.39,1.43,0.75,2.55,1.09c2.07,0.62,3.57,1.39,4.52,2.31c0.94,0.92,1.42,2.07,1.42,3.44c0,1.53-0.58,2.72-1.73,3.59
				s-2.71,1.3-4.66,1.3c-1.36,0-2.59-0.25-3.71-0.75c-1.11-0.5-1.96-1.18-2.55-2.04c-0.59-0.86-0.88-1.87-0.88-3h3.64
				c0,1.95,1.16,2.92,3.49,2.92c0.86,0,1.54-0.18,2.02-0.53C264.02,118.47,264.26,117.98,264.26,117.35z"/>
			<path class="st1" d="M40.2,149.98v-17.63h5.42c1.55,0,2.94,0.35,4.16,1.05c1.22,0.7,2.18,1.69,2.86,2.98
				c0.69,1.29,1.03,2.75,1.03,4.39v0.81c0,1.64-0.34,3.1-1.01,4.37c-0.67,1.28-1.62,2.26-2.85,2.97c-1.23,0.7-2.61,1.06-4.15,1.07
				H40.2z M43.83,135.29v11.77h1.76c1.42,0,2.51-0.46,3.26-1.39c0.75-0.93,1.13-2.26,1.15-3.98v-0.93c0-1.79-0.37-3.15-1.11-4.07
				c-0.74-0.92-1.83-1.39-3.26-1.39H43.83z"/>
			<path class="st1" d="M60.92,149.98h-3.63v-17.63h3.63V149.98z"/>
			<path class="st1" d="M78.98,147.75c-0.65,0.78-1.58,1.39-2.77,1.82c-1.19,0.43-2.52,0.65-3.97,0.65c-1.53,0-2.86-0.33-4.01-1
				s-2.04-1.63-2.66-2.9c-0.62-1.27-0.95-2.76-0.96-4.47v-1.2c0-1.76,0.3-3.28,0.89-4.57c0.59-1.29,1.45-2.27,2.57-2.96
				c1.12-0.68,2.43-1.02,3.93-1.02c2.09,0,3.73,0.5,4.9,1.5c1.18,1,1.88,2.45,2.09,4.35h-3.54c-0.16-1.01-0.52-1.75-1.07-2.22
				c-0.55-0.47-1.31-0.7-2.28-0.7c-1.24,0-2.18,0.46-2.82,1.39c-0.65,0.93-0.97,2.31-0.98,4.14v1.13c0,1.85,0.35,3.25,1.05,4.19
				c0.7,0.94,1.73,1.42,3.09,1.42c1.36,0,2.34-0.29,2.92-0.87v-3.04h-3.31v-2.68h6.94V147.75z"/>
			<path class="st1" d="M86.53,149.98H82.9v-17.63h3.63V149.98z"/>
			<path class="st1" d="M103.56,135.29h-5.4v14.69h-3.63v-14.69H89.2v-2.94h14.36V135.29z"/>
			<path class="st1" d="M114.88,146.35h-6.37l-1.21,3.63h-3.86l6.56-17.63h3.37l6.6,17.63h-3.86L114.88,146.35z M109.49,143.4h4.41
				l-2.22-6.6L109.49,143.4z"/>
			<path class="st1" d="M125.99,147.06h7.71v2.92h-11.35v-17.63h3.63V147.06z"/>
			<path class="st1" d="M147.14,142.34h-6.97v4.72h8.19v2.92h-11.82v-17.63h11.79v2.94h-8.16v4.2h6.97V142.34z"/>
			<path class="st1" d="M160.37,145.35c0-0.69-0.24-1.21-0.73-1.58s-1.36-0.75-2.62-1.16c-1.26-0.41-2.26-0.81-2.99-1.21
				c-2-1.08-3-2.54-3-4.37c0-0.95,0.27-1.8,0.8-2.55c0.54-0.75,1.31-1.33,2.31-1.75c1-0.42,2.13-0.63,3.38-0.63
				c1.26,0,2.38,0.23,3.37,0.68c0.98,0.46,1.75,1.1,2.29,1.93c0.54,0.83,0.82,1.78,0.82,2.83h-3.63c0-0.81-0.25-1.44-0.76-1.88
				c-0.51-0.45-1.22-0.67-2.14-0.67c-0.89,0-1.58,0.19-2.07,0.56c-0.49,0.38-0.74,0.87-0.74,1.48c0,0.57,0.29,1.05,0.87,1.44
				c0.58,0.39,1.43,0.75,2.55,1.09c2.07,0.62,3.57,1.39,4.52,2.31c0.94,0.92,1.42,2.07,1.42,3.44c0,1.53-0.58,2.72-1.73,3.59
				s-2.71,1.3-4.66,1.3c-1.36,0-2.59-0.25-3.71-0.75c-1.11-0.5-1.96-1.18-2.55-2.04c-0.59-0.86-0.88-1.87-0.88-3h3.64
				c0,1.95,1.16,2.92,3.49,2.92c0.86,0,1.54-0.18,2.02-0.53C160.13,146.47,160.37,145.98,160.37,145.35z"/>
			<path class="st1" d="M184.74,142.34h-6.97v4.72h8.19v2.92h-11.82v-17.63h11.79v2.94h-8.16v4.2h6.97V142.34z"/>
			<path class="st1" d="M188.83,149.98v-17.63h5.42c1.55,0,2.94,0.35,4.16,1.05c1.22,0.7,2.18,1.69,2.86,2.98
				c0.69,1.29,1.03,2.75,1.03,4.39v0.81c0,1.64-0.34,3.1-1.01,4.37c-0.67,1.28-1.62,2.26-2.85,2.97c-1.23,0.7-2.61,1.06-4.15,1.07
				H188.83z M192.46,135.29v11.77h1.76c1.42,0,2.51-0.46,3.26-1.39c0.75-0.93,1.13-2.26,1.15-3.98v-0.93c0-1.79-0.37-3.15-1.11-4.07
				c-0.74-0.92-1.83-1.39-3.26-1.39H192.46z"/>
			<path class="st1" d="M219.03,132.35v11.61c0,1.93-0.6,3.46-1.81,4.58c-1.21,1.12-2.86,1.68-4.95,1.68c-2.06,0-3.69-0.54-4.9-1.63
				s-1.83-2.59-1.85-4.49v-11.75h3.63v11.64c0,1.15,0.28,2,0.83,2.52c0.55,0.53,1.32,0.79,2.29,0.79c2.04,0,3.08-1.07,3.11-3.22
				v-11.73H219.03z"/>
			<path class="st1" d="M236.6,144.11c-0.14,1.9-0.84,3.39-2.1,4.48c-1.26,1.09-2.93,1.63-5,1.63c-2.26,0-4.04-0.76-5.33-2.28
				c-1.3-1.52-1.94-3.61-1.94-6.27v-1.08c0-1.7,0.3-3.19,0.9-4.48s1.45-2.28,2.56-2.97c1.11-0.69,2.4-1.04,3.87-1.04
				c2.04,0,3.67,0.54,4.92,1.63s1.96,2.62,2.16,4.59h-3.63c-0.09-1.14-0.41-1.96-0.95-2.48c-0.54-0.51-1.38-0.77-2.49-0.77
				c-1.21,0-2.12,0.43-2.72,1.3c-0.6,0.87-0.91,2.21-0.93,4.04v1.33c0,1.91,0.29,3.3,0.87,4.18c0.58,0.88,1.49,1.32,2.73,1.32
				c1.12,0,1.96-0.26,2.51-0.77c0.55-0.51,0.87-1.31,0.95-2.38H236.6z"/>
			<path class="st1" d="M249.68,146.35h-6.37l-1.21,3.63h-3.86l6.56-17.63h3.37l6.6,17.63h-3.86L249.68,146.35z M244.29,143.4h4.41
				l-2.22-6.6L244.29,143.4z"/>
			<path class="st1" d="M268.98,135.29h-5.4v14.69h-3.63v-14.69h-5.33v-2.94h14.36V135.29z"/>
			<path class="st1" d="M275.66,149.98h-3.63v-17.63h3.63V149.98z"/>
			<path class="st1" d="M286.28,145.61l4-13.26h4.04l-6.14,17.63h-3.79l-6.12-17.63h4.03L286.28,145.61z"/>
			<path class="st1" d="M311.05,141.56c0,1.74-0.31,3.26-0.92,4.57s-1.49,2.32-2.63,3.03c-1.14,0.71-2.45,1.07-3.93,1.07
				c-1.46,0-2.76-0.35-3.91-1.05s-2.03-1.71-2.66-3.01s-0.95-2.8-0.96-4.5v-0.87c0-1.74,0.31-3.26,0.94-4.58
				c0.63-1.32,1.51-2.33,2.65-3.04c1.14-0.71,2.45-1.06,3.92-1.06s2.78,0.35,3.92,1.06c1.14,0.71,2.03,1.72,2.65,3.04
				c0.63,1.32,0.94,2.84,0.94,4.57V141.56z M307.37,140.76c0-1.85-0.33-3.25-0.99-4.21c-0.66-0.96-1.61-1.44-2.83-1.44
				c-1.22,0-2.16,0.47-2.82,1.42c-0.66,0.95-1,2.34-1,4.17v0.86c0,1.8,0.33,3.2,0.99,4.19c0.66,0.99,1.61,1.49,2.86,1.49
				c1.22,0,2.16-0.48,2.81-1.44c0.65-0.96,0.98-2.35,0.99-4.18V140.76z"/>
			<path class="st1" d="M323.58,145.35c0-0.69-0.24-1.21-0.73-1.58s-1.36-0.75-2.62-1.16c-1.26-0.41-2.26-0.81-2.99-1.21
				c-2-1.08-3-2.54-3-4.37c0-0.95,0.27-1.8,0.8-2.55c0.54-0.75,1.31-1.33,2.31-1.75c1.01-0.42,2.13-0.63,3.38-0.63
				c1.26,0,2.38,0.23,3.37,0.68c0.98,0.46,1.75,1.1,2.29,1.93c0.54,0.83,0.82,1.78,0.82,2.83h-3.63c0-0.81-0.25-1.44-0.76-1.88
				c-0.51-0.45-1.22-0.67-2.14-0.67c-0.89,0-1.58,0.19-2.07,0.56c-0.49,0.38-0.74,0.87-0.74,1.48c0,0.57,0.29,1.05,0.87,1.44
				c0.58,0.39,1.43,0.75,2.55,1.09c2.07,0.62,3.57,1.39,4.52,2.31c0.94,0.92,1.42,2.07,1.42,3.44c0,1.53-0.58,2.72-1.73,3.59
				s-2.71,1.3-4.66,1.3c-1.36,0-2.59-0.25-3.71-0.75c-1.11-0.5-1.96-1.18-2.55-2.04c-0.59-0.86-0.88-1.87-0.88-3h3.64
				c0,1.95,1.16,2.92,3.49,2.92c0.87,0,1.54-0.18,2.02-0.53C323.33,146.47,323.58,145.98,323.58,145.35z"/>
		</g>
	</g>
	<g>
		<defs>
			<polygon id="SVGID_1_" points="601.51,200.66 436.87,200.66 534.18,98.14 439.57,-1 601.51,-1 			"/>
		</defs>
		<use xlink:href="#SVGID_1_"  style="overflow:visible;fill:#F5D171;"/>
		<clipPath id="SVGID_00000093173275058865266860000008008026140130734224_">
			<use xlink:href="#SVGID_1_"  style="overflow:visible;"/>
		</clipPath>
		<g style="display:none;clip-path:url(#SVGID_00000093173275058865266860000008008026140130734224_);">
			<g class="st3">
				<path class="st4" d="M1317.61,77c2.09-0.04,2.97,1.4,1.97,3.22l-4.19,7.61c-1,1.82-3.51,3.33-5.6,3.37
					c-2.09,0.04-2.98-1.4-1.97-3.22l4.19-7.61C1313.01,78.55,1315.52,77.05,1317.61,77z"/>
			</g>
			<g class="st3">
				<path class="st4" d="M1302.31,77.31c2.09-0.04,2.97,1.4,1.97,3.22l-4.19,7.61c-1,1.82-3.51,3.33-5.6,3.37
					c-2.09,0.04-2.97-1.4-1.97-3.22l4.19-7.61C1297.71,78.86,1300.21,77.35,1302.31,77.31z"/>
			</g>
			<g class="st3">
				<path class="st4" d="M1295.83,61.59c2.09-0.04,2.97,1.4,1.97,3.22l-21.85,39.65c-1,1.82-3.51,3.33-5.6,3.37
					c-2.09,0.04-2.97-1.4-1.97-3.22l21.85-39.65C1291.23,63.14,1293.73,61.64,1295.83,61.59z"/>
			</g>
			<g class="st3">
				<path class="st4" d="M1280.64,61.69c2.09-0.04,2.97,1.4,1.97,3.22l-22.07,40.06c-1,1.82-3.51,3.33-5.6,3.37
					c-2.09,0.04-2.97-1.4-1.97-3.22l22.07-40.06C1276.04,63.24,1278.54,61.73,1280.64,61.69z"/>
			</g>
			<g class="st3">
				<path class="st4" d="M1274.59,45.19c2.09-0.04,2.97,1.4,1.97,3.22l-40.59,73.66c-1,1.82-3.51,3.33-5.6,3.37
					c-2.09,0.04-2.97-1.4-1.97-3.22l40.59-73.66C1269.99,46.74,1272.49,45.24,1274.59,45.19z"/>
			</g>
			<g class="st3">
				<path class="st4" d="M1250.17,62.02c2.09-0.04,2.97,1.4,1.97,3.22l-22.39,40.63c-1,1.82-3.51,3.33-5.6,3.37
					c-2.09,0.04-2.97-1.4-1.97-3.22l22.39-40.63C1245.57,63.57,1248.08,62.06,1250.17,62.02z"/>
			</g>
			<g class="st3">
				<path class="st4" d="M1249.45,35.85c2.09-0.04,2.97,1.4,1.97,3.22l-51.57,93.58c-1,1.82-3.51,3.33-5.6,3.37
					c-2.09,0.04-2.98-1.4-1.97-3.22l51.57-93.58C1244.85,37.4,1247.36,35.89,1249.45,35.85z"/>
			</g>
			<g class="st3">
				<path class="st4" d="M1243.45,19.28c2.09-0.04,2.97,1.4,1.97,3.22l-70.17,127.33c-1,1.82-3.51,3.33-5.6,3.37
					c-2.09,0.04-2.97-1.4-1.97-3.22l70.17-127.33C1238.85,20.83,1241.35,19.32,1243.45,19.28z"/>
			</g>
			<g class="st3">
				<path class="st4" d="M1237.74,2.18c2.09-0.04,2.97,1.4,1.97,3.22l-89.35,162.15c-1,1.82-3.51,3.33-5.6,3.37
					c-2.09,0.04,2.39-11.13,3.39-12.95l83.99-152.41C1233.14,3.73,1235.64,2.22,1237.74,2.18z"/>
			</g>
			<g class="st3">
				<path class="st4" d="M1215.59,14.89c2.09-0.04,2.97,1.4,1.97,3.22l-75.68,137.33c-1,1.82-3.51,3.33-5.6,3.37
					c-2.09,0.04-2.97-1.4-1.97-3.22l75.68-137.33C1210.99,16.44,1213.5,14.93,1215.59,14.89z"/>
			</g>
			<g class="st3">
				<path class="st4" d="M1203.42,9.5c2.09-0.04,2.97,1.4,1.97,3.22l-81.95,148.71c-1,1.82-3.51,3.33-5.6,3.37
					c-2.09,0.04-2.97-1.4-1.97-3.22l81.95-148.71C1198.82,11.06,1201.32,9.55,1203.42,9.5z"/>
			</g>
			<g class="st3">
				<path class="st4" d="M1195.6-3.79c2.09-0.04,2.97,1.4,1.97,3.22l-96.93,175.9c-1,1.82-3.51,3.33-5.6,3.37
					c-2.09,0.04-2.97-1.4-1.97-3.22l96.93-175.9C1191-2.23,1193.5-3.74,1195.6-3.79z"/>
			</g>
			<g class="st3">
				<path class="st4" d="M1192.23-25.13c2.09-0.04,2.97,1.4,1.97,3.22L1073.4,197.3c-1,1.82-3.51,3.33-5.6,3.37
					c-2.09,0.04-2.97-1.4-1.97-3.22l120.8-219.21C1187.63-23.58,1190.13-25.09,1192.23-25.13z"/>
			</g>
			<g class="st3">
				<path class="st4" d="M1166.43-5.81c2.09-0.04,2.97,1.4,1.97,3.22l-99.83,181.17c-1,1.82-3.51,3.33-5.6,3.37
					c-2.09,0.04-2.97-1.4-1.97-3.22l99.83-181.17C1161.84-4.26,1164.34-5.77,1166.43-5.81z"/>
			</g>
			<g class="st3">
				<path class="st4" d="M1145.18,5.3c2.09-0.04,2.97,1.4,1.97,3.22l-87.93,159.56c-1,1.82-3.51,3.33-5.6,3.37
					c-2.09,0.04-2.97-1.4-1.97-3.22l87.93-159.56C1140.58,6.85,1143.08,5.35,1145.18,5.3z"/>
			</g>
			<g class="st3">
				<path class="st4" d="M1138.72-10.46c2.09-0.04,2.97,1.4,1.97,3.22l-105.64,191.7c-1,1.82-3.51,3.33-5.6,3.37
					c-2.09,0.04-2.97-1.4-1.97-3.22l105.64-191.7C1134.12-8.91,1136.63-10.42,1138.72-10.46z"/>
			</g>
			<g class="st3">
				<path class="st4" d="M1114.26,6.45c2.09-0.04,2.97,1.4,1.97,3.22l-87.34,158.5c-1,1.82-3.51,3.33-5.6,3.37
					c-2.09,0.04-2.97-1.4-1.97-3.22l87.34-158.49C1109.66,8,1112.17,6.49,1114.26,6.45z"/>
			</g>
			<g class="st3">
				<path class="st4" d="M1094.11,15.54c2.09-0.04,2.98,1.4,1.97,3.22l-77.65,140.92c-1,1.82-3.51,3.33-5.6,3.37
					c-2.09,0.04-2.97-1.4-1.97-3.22l77.65-140.92C1089.51,17.09,1092.02,15.58,1094.11,15.54z"/>
			</g>
			<g class="st3">
				<path class="st4" d="M1074.88,22.98c2.09-0.04,2.97,1.4,1.97,3.22l-69.79,126.65c-1,1.82-3.51,3.33-5.6,3.37
					c-2.09,0.04-2.97-1.4-1.97-3.22l69.79-126.65C1070.28,24.53,1072.78,23.02,1074.88,22.98z"/>
			</g>
			<g class="st3">
				<path class="st4" d="M1056.87,28.19c2.09-0.04,2.97,1.4,1.97,3.22l-64.38,116.83c-1,1.82-3.51,3.33-5.6,3.37
					c-2.09,0.04-2.97-1.4-1.97-3.22l64.38-116.83C1052.27,29.74,1054.78,28.23,1056.87,28.19z"/>
			</g>
			<g class="st3">
				<path class="st4" d="M1045.08,22.1c2.09-0.04,2.97,1.4,1.97,3.22l-71.43,129.62c-1,1.82-3.51,3.33-5.6,3.37
					c-2.09,0.04-2.97-1.4-1.97-3.22l71.43-129.62C1040.48,23.65,1042.99,22.14,1045.08,22.1z"/>
			</g>
			<g class="st3">
				<path class="st4" d="M1023.18,34.37c2.09-0.04,2.97,1.4,1.97,3.22l-58.25,105.7c-1,1.82-3.51,3.33-5.6,3.37
					c-2.09,0.04-2.97-1.4-1.97-3.22l58.25-105.7C1018.58,35.92,1021.09,34.41,1023.18,34.37z"/>
			</g>
			<g class="st3">
				<path class="st4" d="M1001.71,45.86c2.09-0.04,2.97,1.4,1.97,3.22l-45.92,83.33c-1,1.82-3.51,3.33-5.6,3.37
					c-2.09,0.04-2.97-1.4-1.97-3.22l45.92-83.33C997.11,47.41,999.61,45.9,1001.71,45.86z"/>
			</g>
			<g class="st3">
				<path class="st4" d="M991.29,37.29c2.09-0.04,2.97,1.4,1.97,3.22l-55.69,101.07c-1,1.82-3.51,3.33-5.6,3.37
					c-2.09,0.04-2.97-1.4-1.97-3.22l55.69-101.07C986.69,38.84,989.2,37.34,991.29,37.29z"/>
			</g>
			<g class="st3">
				<path class="st4" d="M958.93,68.55c2.09-0.04,2.97,1.4,1.97,3.22l-21.59,39.18c-1,1.82-3.51,3.33-5.6,3.37
					c-2.09,0.04-2.97-1.4-1.97-3.22l21.59-39.18C954.33,70.1,956.84,68.59,958.93,68.55z"/>
			</g>
			<g class="st3">
				<path class="st4" d="M938.5,78.16c2.09-0.04,2.97,1.4,1.97,3.22l-11.34,20.57c-1,1.82-3.51,3.33-5.6,3.37
					c-2.09,0.04-2.98-1.4-1.97-3.22l11.34-20.57C933.9,79.71,936.4,78.2,938.5,78.16z"/>
			</g>
			<g class="st3">
				<path class="st4" d="M947.84,33.72c2.09-0.04,2.97,1.4,1.97,3.22l-60.64,110.05c-1,1.82-3.51,3.33-5.6,3.37
					c-2.09,0.04-2.97-1.4-1.97-3.22l60.64-110.05C943.24,35.27,945.75,33.76,947.84,33.72z"/>
			</g>
			<g class="st3">
				<path class="st4" d="M927.91,42.42c2.09-0.04,2.97,1.4,1.97,3.22l-51.39,93.26c-1,1.82-3.51,3.33-5.6,3.37s-2.97-1.4-1.97-3.22
					l51.39-93.26C923.31,43.97,925.82,42.46,927.91,42.42z"/>
			</g>
			<g class="st3">
				<path class="st4" d="M932.04,7.44c2.09-0.04,2.97,1.4,1.97,3.22L843.73,174.5c-1,1.82-3.51,3.33-5.6,3.37
					c-2.09,0.04-2.97-1.4-1.97-3.22l90.28-163.84C927.44,8.99,929.95,7.48,932.04,7.44z"/>
			</g>
			<g class="st3">
				<path class="st4" d="M920.34,1.21c2.09-0.04,2.97,1.4,1.97,3.22l-97.49,176.92c-1,1.82-3.51,3.33-5.6,3.37s-2.97-1.4-1.97-3.22
					L914.74,4.58C915.74,2.76,918.25,1.25,920.34,1.21z"/>
			</g>
			<g class="st3">
				<path class="st4" d="M914.95-16.48c2.09-0.04,2.97,1.4,1.97,3.22l-117.32,212.9c-1,1.82-3.51,3.33-5.6,3.37
					c-2.09,0.04-2.97-1.4-1.97-3.22L909.35-13.11C910.35-14.93,912.86-16.44,914.95-16.48z"/>
			</g>
			<g class="st3">
				<path class="st4" d="M907.3-30.07c2.09-0.04,2.97,1.4,1.97,3.22L776.64,213.83c-1,1.82-3.51,3.33-5.6,3.37
					c-2.09,0.04-2.98-1.4-1.97-3.22L901.7-26.7C902.7-28.52,905.21-30.03,907.3-30.07z"/>
			</g>
			<g class="st5">
				<path class="st4" d="M887.66-21.9c2.09-0.04,2.97,1.4,1.97,3.22L765.66,206.28c-1,1.82-3.51,3.33-5.6,3.37
					c-2.09,0.04-2.98-1.4-1.97-3.22L882.05-18.53C883.06-20.35,885.56-21.86,887.66-21.9z"/>
			</g>
			<g class="st5">
				<path class="st4" d="M867.18-12.23c2.09-0.04,2.97,1.4,1.97,3.22L755.51,197.22c-1,1.82-3.51,3.33-5.6,3.37
					c-2.09,0.04-2.97-1.4-1.97-3.22L861.58-8.86C862.58-10.68,865.09-12.19,867.18-12.23z"/>
			</g>
			<g class="st5">
				<path class="st4" d="M856.28-19.9c2.09-0.04,2.97,1.4,1.97,3.22L735.82,205.5c-1,1.82-3.51,3.33-5.6,3.37
					c-2.09,0.04-2.97-1.4-1.97-3.22L850.67-16.52C851.68-18.35,854.18-19.86,856.28-19.9z"/>
			</g>
			<g class="st5">
				<path class="st4" d="M849.29-34.7c2.09-0.04,2.97,1.4,1.97,3.22L712.18,220.91c-1,1.82-3.51,3.33-5.6,3.37
					c-2.09,0.04-2.98-1.4-1.97-3.22L843.69-31.33C844.69-33.15,847.2-34.66,849.29-34.7z"/>
			</g>
			<g class="st5">
				<path class="st4" d="M813.97,1.93c2.09-0.04,2.98,1.4,1.97,3.22L716.9,184.89c-1,1.82-3.51,3.33-5.6,3.37
					c-2.09,0.04-2.97-1.4-1.97-3.22L808.37,5.31C809.37,3.48,811.88,1.97,813.97,1.93z"/>
			</g>
			<g class="st5">
				<path class="st4" d="M798.45,2.61c2.09-0.04,2.97,1.4,1.97,3.22L701.8,184.81c-1,1.82-3.51,3.33-5.6,3.37
					c-2.09,0.04-2.97-1.4-1.97-3.22L792.85,5.99C793.85,4.16,796.36,2.66,798.45,2.61z"/>
			</g>
			<g class="st5">
				<path class="st4" d="M776.24,15.45c2.09-0.04,2.97,1.4,1.97,3.22l-84.82,153.92c-1,1.82-3.51,3.33-5.6,3.37
					c-2.09,0.04-2.97-1.4-1.97-3.22l84.82-153.92C771.64,17,774.14,15.49,776.24,15.45z"/>
			</g>
			<g class="st5">
				<path class="st4" d="M749.44,36.6c2.09-0.04,2.97,1.4,1.97,3.22L684.2,161.78c-1,1.82-3.51,3.33-5.6,3.37
					c-2.09,0.04-2.97-1.4-1.97-3.22l67.21-121.96C744.84,38.15,747.35,36.64,749.44,36.6z"/>
			</g>
			<g class="st5">
				<path class="st4" d="M737.78,30.29c2.09-0.04,2.97,1.4,1.97,3.22l-69.13,125.46c-1,1.82-3.51,3.33-5.6,3.37s-2.97-1.4-1.97-3.22
					l69.13-125.46C733.18,31.84,735.69,30.33,737.78,30.29z"/>
			</g>
			<g class="st5">
				<path class="st4" d="M708.91,55.23c2.09-0.04,2.97,1.4,1.97,3.22l-41.99,76.19c-1,1.82-3.51,3.33-5.6,3.37
					c-2.09,0.04-2.97-1.4-1.97-3.22L703.3,58.6C704.31,56.78,706.81,55.27,708.91,55.23z"/>
			</g>
			<g class="st5">
				<path class="st4" d="M711.11,23.75c2.09-0.04,2.97,1.4,1.97,3.22l-77.01,139.75c-1,1.82-3.51,3.33-5.6,3.37
					c-2.09,0.04-2.97-1.4-1.97-3.22L705.5,27.13C706.51,25.3,709.01,23.8,711.11,23.75z"/>
			</g>
			<g class="st5">
				<path class="st4" d="M698.28,19.55c2.09-0.04,2.97,1.4,1.97,3.22l-81.98,148.77c-1,1.82-3.51,3.33-5.6,3.37
					c-2.09,0.04-2.97-1.4-1.97-3.22l81.98-148.77C693.68,21.1,696.19,19.59,698.28,19.55z"/>
			</g>
			<g class="st5">
				<path class="st4" d="M689.55,7.91c2.09-0.04,2.97,1.4,1.97,3.22l-95.15,172.66c-1,1.82-3.51,3.33-5.6,3.37
					c-2.09,0.04-2.98-1.4-1.97-3.22l95.15-172.66C684.95,9.46,687.46,7.95,689.55,7.91z"/>
			</g>
			<g class="st5">
				<path class="st4" d="M667.93,19.68c2.09-0.04,2.97,1.4,1.97,3.22l-82.51,149.74c-1,1.82-3.51,3.33-5.6,3.37
					c-2.09,0.04-2.97-1.4-1.97-3.22l82.51-149.74C663.33,21.23,665.84,19.72,667.93,19.68z"/>
			</g>
			<g class="st5">
				<path class="st4" d="M649.61,25.45c2.09-0.04,2.98,1.4,1.97,3.22l-76.49,138.8c-1,1.82-3.51,3.33-5.6,3.37
					c-2.09,0.04-2.97-1.4-1.97-3.22l76.49-138.8C645.01,27,647.52,25.49,649.61,25.45z"/>
			</g>
			<g class="st5">
				<path class="st4" d="M624.6,43.38c2.09-0.04,2.97,1.4,1.97,3.22L569.5,150.16c-1,1.82-3.51,3.33-5.6,3.37
					c-2.09,0.04-2.97-1.4-1.97-3.22L619,46.75C620,44.93,622.51,43.42,624.6,43.38z"/>
			</g>
			<g class="st5">
				<path class="st4" d="M610.26,41.91c2.09-0.04,2.97,1.4,1.97,3.22l-59.02,107.1c-1,1.82-3.51,3.33-5.6,3.37
					c-2.09,0.04-2.97-1.4-1.97-3.22l59.02-107.1C605.66,43.46,608.17,41.96,610.26,41.91z"/>
			</g>
			<g class="st5">
				<path class="st4" d="M575.98,76.64c2.09-0.04,2.97,1.4,1.97,3.22l-21.08,38.25c-1,1.82-3.51,3.33-5.6,3.37
					c-2.09,0.04-2.97-1.4-1.97-3.22l21.08-38.25C571.38,78.19,573.89,76.69,575.98,76.64z"/>
			</g>
			<g class="st5">
				<path class="st4" d="M570.81,58.55c2.09-0.04,2.97,1.4,1.97,3.22l-41.35,75.04c-1,1.82-3.51,3.33-5.6,3.37
					c-2.09,0.04-2.97-1.4-1.97-3.22l41.35-75.04C566.21,60.1,568.72,58.59,570.81,58.55z"/>
			</g>
			<g class="st5">
				<path class="st4" d="M560.69,49.45c2.09-0.04,2.97,1.4,1.97,3.22l-51.72,93.86c-1,1.82-3.51,3.33-5.6,3.37
					c-2.09,0.04-2.97-1.4-1.97-3.22l51.72-93.86C556.09,51,558.6,49.49,560.69,49.45z"/>
			</g>
			<g class="st5">
				<path class="st4" d="M551.66,38.37c2.09-0.04,2.97,1.4,1.97,3.22l-64.27,116.64c-1,1.82-3.51,3.33-5.6,3.37
					c-2.09,0.04-2.97-1.4-1.97-3.22l64.27-116.64C547.06,39.92,549.57,38.41,551.66,38.37z"/>
			</g>
			<g class="st5">
				<path class="st4" d="M527.28,55.14c2.09-0.04,2.97,1.4,1.97,3.22l-46.12,83.7c-1,1.82-3.51,3.33-5.6,3.37
					c-2.09,0.04-2.97-1.4-1.97-3.22l46.12-83.7C522.68,56.69,525.18,55.18,527.28,55.14z"/>
			</g>
			<g class="st5">
				<path class="st4" d="M520.02,40.83c2.09-0.04,2.97,1.4,1.97,3.22l-62.23,112.93c-1,1.82-3.51,3.33-5.6,3.37
					c-2.09,0.04-2.97-1.4-1.97-3.22L514.42,44.2C515.42,42.38,517.93,40.87,520.02,40.83z"/>
			</g>
			<g class="st5">
				<path class="st4" d="M503.31,43.67c2.09-0.04,2.97,1.4,1.97,3.22l-59.43,107.85c-1,1.82-3.51,3.33-5.6,3.37
					c-2.09,0.04-2.97-1.4-1.97-3.22l59.43-107.85C498.71,45.23,501.22,43.72,503.31,43.67z"/>
			</g>
			<g class="st5">
				<path class="st4" d="M497.82,26.17c2.09-0.04,2.97,1.4,1.97,3.22l-79.06,143.47c-1,1.82-3.51,3.33-5.6,3.37
					c-2.09,0.04-2.97-1.4-1.97-3.22l79.06-143.47C493.22,27.72,495.73,26.22,497.82,26.17z"/>
			</g>
			<g class="st5">
				<path class="st4" d="M480.71,29.75c2.09-0.04,2.97,1.4,1.97,3.22l-75.45,136.92c-1,1.82-3.51,3.33-5.6,3.37
					c-2.09,0.04-2.97-1.4-1.97-3.22L475.1,33.13C476.11,31.3,478.61,29.8,480.71,29.75z"/>
			</g>
			<g class="st5">
				<path class="st4" d="M473.16,15.98c2.09-0.04,2.97,1.4,1.97,3.22l-90.96,165.07c-1,1.82-3.51,3.33-5.6,3.37
					c-2.09,0.04-2.97-1.4-1.97-3.22l90.96-165.07C468.56,17.53,471.07,16.02,473.16,15.98z"/>
			</g>
			<g class="st5">
				<path class="st4" d="M470.1-5.94c2.09-0.04,2.97,1.4,1.97,3.22L356.61,206.81c-1,1.82-3.51,3.33-5.6,3.37
					c-2.09,0.04-2.97-1.4-1.97-3.22L464.5-2.57C465.5-4.39,468.01-5.9,470.1-5.94z"/>
			</g>
			<g class="st5">
				<path class="st4" d="M444.98,12.17c2.09-0.04,2.97,1.4,1.97,3.22l-95.83,173.9c-1,1.82-3.51,3.33-5.6,3.37
					c-2.09,0.04-2.97-1.4-1.97-3.22l95.83-173.9C440.38,13.72,442.88,12.22,444.98,12.17z"/>
			</g>
			<g class="st5">
				<path class="st4" d="M435.51,1.87c2.09-0.04,2.97,1.4,1.97,3.22L329.96,200.21c-1,1.82-3.51,3.33-5.6,3.37
					c-2.09,0.04-2.97-1.4-1.97-3.22L429.91,5.24C430.91,3.42,433.42,1.91,435.51,1.87z"/>
			</g>
			<g class="st5">
				<path class="st4" d="M415.02,11.6c2.09-0.04,2.97,1.4,1.97,3.22L319.85,191.1c-1,1.82-3.51,3.33-5.6,3.37
					c-2.09,0.04-2.97-1.4-1.97-3.22l97.14-176.28C410.42,13.15,412.92,11.64,415.02,11.6z"/>
			</g>
			<g class="st5">
				<path class="st4" d="M388.16,32.86c2.09-0.04,2.97,1.4,1.97,3.22L316.1,170.44c-1,1.82-3.51,3.33-5.6,3.37
					c-2.09,0.04-2.98-1.4-1.97-3.22l74.04-134.36C383.56,34.41,386.07,32.91,388.16,32.86z"/>
			</g>
			<g class="st5">
				<path class="st4" d="M379.29,21.48c2.09-0.04,2.97,1.4,1.97,3.22l-86.92,157.73c-1,1.82-3.51,3.33-5.6,3.37
					c-2.09,0.04-2.97-1.4-1.97-3.22l86.92-157.73C374.69,23.03,377.2,21.52,379.29,21.48z"/>
			</g>
			<g class="st5">
				<path class="st4" d="M356.46,35.44c2.09-0.04,2.97,1.4,1.97,3.22l-71.87,130.43c-1,1.82-3.51,3.33-5.6,3.37
					c-2.09,0.04-2.97-1.4-1.97-3.22l71.87-130.43C351.86,36.99,354.37,35.48,356.46,35.44z"/>
			</g>
			<g class="st5">
				<path class="st4" d="M335.51,45.97c2.09-0.04,2.97,1.4,1.97,3.22l-60.6,109.97c-1,1.82-3.51,3.33-5.6,3.37
					c-2.09,0.04-2.97-1.4-1.97-3.22l60.6-109.97C330.91,47.52,333.42,46.02,335.51,45.97z"/>
			</g>
			<g class="st5">
				<path class="st4" d="M316.86,52.36c2.09-0.04,2.97,1.4,1.97,3.22l-53.9,97.82c-1,1.82-3.51,3.33-5.6,3.37
					c-2.09,0.04-2.97-1.4-1.97-3.22l53.9-97.82C312.26,53.91,314.77,52.4,316.86,52.36z"/>
			</g>
		</g>
	</g>
	<g>
		<g>
			<g>
				<polygon class="st6" points="576.34,3.34 573.26,0.15 558.47,0.15 576.34,18.66 				"/>
			</g>
			<g>
				<polygon class="st6" points="576.34,49.27 528.91,0.15 514.12,0.15 576.34,64.59 				"/>
			</g>
			<g>
				<polygon class="st6" points="576.34,95.2 484.57,0.15 469.77,0.15 566.57,100.4 469.77,200.66 484.57,200.66 576.34,105.6 				
					"/>
			</g>
			<g>
				<polygon class="st6" points="576.34,136.21 514.12,200.66 528.91,200.66 576.34,151.54 				"/>
			</g>
			<g>
				<polygon class="st6" points="576.34,182.15 558.47,200.66 573.26,200.66 576.34,197.47 				"/>
			</g>
			<g>
				<polyline class="st6" points="351.53,0.15 336.73,0.15 433.53,100.4 336.73,200.66 351.53,200.66 448.32,100.4 				"/>
			</g>
			<g>
				<polygon class="st6" points="440.22,0.15 425.43,0.15 522.22,100.4 425.43,200.66 440.22,200.66 537.01,100.4 				"/>
			</g>
		</g>
		<g>
			<polygon class="st6" points="395.87,0.15 381.08,0.15 477.87,100.4 381.08,200.66 395.87,200.66 492.67,100.4 			"/>
		</g>
	</g>
</g>
</svg>
