<?xml version="1.0" encoding="utf-8"?>
<!-- Generator: Adobe Illustrator 25.4.1, SVG Export Plug-In . SVG Version: 6.00 Build 0)  -->
<svg version="1.1" id="Capa_1" xmlns="http://www.w3.org/2000/svg" xmlns:xlink="http://www.w3.org/1999/xlink" x="0px" y="0px"
	 viewBox="0 0 900 150" style="enable-background:new 0 0 900 150;" xml:space="preserve">
<style type="text/css">
	.st0{display:none;clip-path:url(#SVGID_00000032650983227692160480000006679414456453490321_);}
	.st1{display:inline;}
	.st2{fill:#CBDBC1;}
	.st3{display:inline;opacity:0.5;}
	.st4{fill:#F5D171;}
	.st5{fill:#61A661;}
	.st6{fill:#44505F;}
</style>
<g>
	<g>
		<g>
			<defs>
				<polygon id="SVGID_1_" points="900,150.51 523.81,150.51 596.69,73.73 525.83,-0.51 900,-0.51 				"/>
			</defs>
			<use xlink:href="#SVGID_1_"  style="overflow:visible;fill:#F5D171;"/>
			<clipPath id="SVGID_00000048499256839705793300000002426291308826990774_">
				<use xlink:href="#SVGID_1_"  style="overflow:visible;"/>
			</clipPath>
			<g style="display:none;clip-path:url(#SVGID_00000048499256839705793300000002426291308826990774_);">
				<g class="st1">
					<path class="st2" d="M1183.42,57.91c1.57-0.03,2.23,1.05,1.48,2.41l-3.14,5.7c-0.75,1.36-2.63,2.49-4.2,2.52
						c-1.57,0.03-2.23-1.05-1.48-2.41l3.14-5.7C1179.98,59.07,1181.86,57.94,1183.42,57.91z"/>
				</g>
				<g class="st1">
					<path class="st2" d="M1171.96,58.13c1.57-0.03,2.23,1.05,1.48,2.41l-3.14,5.7c-0.75,1.37-2.63,2.49-4.2,2.53
						c-1.57,0.03-2.23-1.05-1.48-2.41l3.14-5.7C1168.52,59.3,1170.39,58.17,1171.96,58.13z"/>
				</g>
				<g class="st1">
					<path class="st2" d="M1167.11,46.36c1.57-0.03,2.23,1.05,1.48,2.41l-16.36,29.7c-0.75,1.36-2.63,2.49-4.2,2.53
						c-1.57,0.03-2.23-1.05-1.48-2.41l16.36-29.7C1163.66,47.53,1165.54,46.4,1167.11,46.36z"/>
				</g>
				<g class="st1">
					<path class="st2" d="M1155.73,46.44c1.57-0.03,2.23,1.05,1.48,2.41l-16.53,30c-0.75,1.36-2.63,2.49-4.2,2.53
						c-1.57,0.03-2.23-1.05-1.48-2.41l16.53-30C1152.29,47.6,1154.16,46.47,1155.73,46.44z"/>
				</g>
				<g class="st1">
					<path class="st2" d="M1151.2,34.08c1.57-0.03,2.23,1.05,1.48,2.41l-30.4,55.17c-0.75,1.37-2.63,2.49-4.2,2.53
						c-1.57,0.03-2.23-1.05-1.48-2.41l30.4-55.17C1147.76,35.24,1149.63,34.11,1151.2,34.08z"/>
				</g>
				<g class="st1">
					<path class="st2" d="M1132.92,46.68c1.57-0.03,2.23,1.05,1.48,2.41l-16.77,30.43c-0.75,1.37-2.63,2.49-4.2,2.53
						c-1.57,0.03-2.23-1.05-1.48-2.41l16.77-30.43C1129.47,47.84,1131.35,46.71,1132.92,46.68z"/>
				</g>
				<g class="st1">
					<path class="st2" d="M1132.38,27.08c1.57-0.03,2.23,1.05,1.48,2.41l-38.62,70.08c-0.75,1.37-2.63,2.49-4.2,2.53
						c-1.57,0.03-2.23-1.05-1.48-2.41l38.62-70.08C1128.93,28.24,1130.81,27.11,1132.38,27.08z"/>
				</g>
				<g class="st1">
					<path class="st2" d="M1127.88,14.67c1.57-0.03,2.23,1.05,1.48,2.41l-52.55,95.36c-0.75,1.36-2.63,2.49-4.2,2.52
						c-1.57,0.03-2.23-1.05-1.48-2.41l52.55-95.36C1124.44,15.84,1126.31,14.71,1127.88,14.67z"/>
				</g>
				<g class="st1">
					<path class="st2" d="M1123.6,1.87c1.57-0.03,2.23,1.05,1.48,2.41l-66.92,121.44c-0.75,1.36-2.63,2.49-4.2,2.53
						c-1.57,0.03,1.79-8.34,2.54-9.7l62.9-114.15C1120.16,3.03,1122.04,1.9,1123.6,1.87z"/>
				</g>
				<g class="st1">
					<path class="st2" d="M1107.02,11.39c1.57-0.03,2.23,1.05,1.48,2.41l-56.68,102.85c-0.75,1.36-2.63,2.49-4.2,2.53
						c-1.57,0.03-2.23-1.05-1.48-2.41l56.68-102.85C1103.57,12.55,1105.45,11.42,1107.02,11.39z"/>
				</g>
				<g class="st1">
					<path class="st2" d="M1097.9,7.35c1.57-0.03,2.23,1.05,1.48,2.41L1038,121.14c-0.75,1.37-2.63,2.49-4.2,2.53
						c-1.57,0.03-2.23-1.05-1.48-2.41L1093.7,9.88C1094.45,8.51,1096.33,7.39,1097.9,7.35z"/>
				</g>
				<g class="st1">
					<path class="st2" d="M1092.04-2.6c1.57-0.03,2.23,1.05,1.48,2.41l-72.6,131.74c-0.75,1.36-2.63,2.49-4.2,2.53
						c-1.57,0.03-2.23-1.05-1.48-2.41l72.6-131.74C1088.6-1.44,1090.48-2.57,1092.04-2.6z"/>
				</g>
				<g class="st1">
					<path class="st2" d="M1089.52-18.59c1.57-0.03,2.23,1.05,1.48,2.41L1000.52,148c-0.75,1.36-2.63,2.49-4.2,2.53
						c-1.57,0.03-2.23-1.05-1.48-2.41l90.47-164.17C1086.07-17.43,1087.95-18.56,1089.52-18.59z"/>
				</g>
				<g class="st1">
					<path class="st2" d="M1070.2-4.11c1.57-0.03,2.23,1.05,1.48,2.41l-74.77,135.68c-0.75,1.36-2.63,2.49-4.2,2.53
						c-1.57,0.03-2.23-1.05-1.48-2.41l74.77-135.68C1066.76-2.95,1068.64-4.08,1070.2-4.11z"/>
				</g>
				<g class="st1">
					<path class="st2" d="M1054.28,4.21c1.57-0.03,2.23,1.05,1.48,2.41l-65.85,119.5c-0.75,1.37-2.63,2.49-4.2,2.53
						c-1.57,0.03-2.23-1.05-1.48-2.41l65.85-119.5C1050.84,5.37,1052.71,4.24,1054.28,4.21z"/>
				</g>
				<g class="st1">
					<path class="st2" d="M1049.45-7.6c1.57-0.03,2.23,1.05,1.48,2.41l-79.12,143.57c-0.75,1.37-2.63,2.49-4.2,2.53
						c-1.57,0.03-2.23-1.05-1.48-2.41l79.12-143.57C1046-6.44,1047.88-7.57,1049.45-7.6z"/>
				</g>
				<g class="st1">
					<path class="st2" d="M1031.13,5.06c1.57-0.03,2.23,1.05,1.48,2.41l-65.41,118.7c-0.75,1.36-2.63,2.49-4.2,2.53
						c-1.57,0.03-2.23-1.05-1.48-2.41l65.41-118.7C1027.69,6.22,1029.56,5.09,1031.13,5.06z"/>
				</g>
				<g class="st1">
					<path class="st2" d="M1016.04,11.87c1.57-0.03,2.23,1.05,1.48,2.41l-58.16,105.54c-0.75,1.36-2.63,2.49-4.2,2.53
						c-1.57,0.03-2.23-1.05-1.48-2.41l58.16-105.54C1012.59,13.03,1014.47,11.91,1016.04,11.87z"/>
				</g>
				<g class="st1">
					<path class="st2" d="M1001.63,17.45c1.57-0.03,2.23,1.05,1.48,2.41l-52.27,94.85c-0.75,1.36-2.63,2.49-4.2,2.53
						c-1.57,0.03-2.23-1.05-1.48-2.41l52.27-94.85C998.19,18.61,1000.06,17.48,1001.63,17.45z"/>
				</g>
				<g class="st1">
					<path class="st2" d="M988.15,21.35c1.57-0.03,2.23,1.05,1.48,2.41l-48.22,87.5c-0.75,1.36-2.63,2.49-4.2,2.53
						c-1.57,0.03-2.23-1.05-1.48-2.41l48.22-87.5C984.7,22.51,986.58,21.38,988.15,21.35z"/>
				</g>
				<g class="st1">
					<path class="st2" d="M979.32,16.79c1.57-0.03,2.23,1.05,1.48,2.41l-53.5,97.08c-0.75,1.36-2.63,2.49-4.2,2.53
						c-1.57,0.03-2.23-1.05-1.48-2.41l53.5-97.08C975.88,17.95,977.75,16.82,979.32,16.79z"/>
				</g>
				<g class="st1">
					<path class="st2" d="M962.91,25.98c1.57-0.03,2.23,1.05,1.48,2.41l-43.62,79.16c-0.75,1.36-2.63,2.49-4.2,2.53
						c-1.57,0.03-2.23-1.05-1.48-2.41l43.62-79.16C959.47,27.14,961.35,26.01,962.91,25.98z"/>
				</g>
				<g class="st1">
					<path class="st2" d="M946.83,34.58c1.57-0.03,2.23,1.05,1.48,2.41L913.92,99.4c-0.75,1.36-2.63,2.49-4.2,2.53
						c-1.57,0.03-2.23-1.05-1.48-2.41l34.39-62.41C943.39,35.74,945.27,34.61,946.83,34.58z"/>
				</g>
				<g class="st1">
					<path class="st2" d="M939.03,28.17c1.57-0.03,2.23,1.05,1.48,2.41l-41.71,75.69c-0.75,1.36-2.63,2.49-4.2,2.53
						c-1.57,0.03-2.23-1.05-1.48-2.41l41.71-75.69C935.59,29.33,937.47,28.2,939.03,28.17z"/>
				</g>
				<g class="st1">
					<path class="st2" d="M914.79,51.57c1.57-0.03,2.23,1.05,1.48,2.41L900.1,83.33c-0.75,1.36-2.63,2.49-4.2,2.53
						c-1.57,0.03-2.23-1.05-1.48-2.41L910.6,54.1C911.35,52.73,913.23,51.6,914.79,51.57z"/>
				</g>
				<g class="st1">
					<path class="st2" d="M899.49,58.77c1.57-0.03,2.23,1.05,1.48,2.41l-8.49,15.41c-0.75,1.37-2.63,2.49-4.2,2.53
						c-1.57,0.03-2.23-1.05-1.48-2.41l8.49-15.41C896.05,59.93,897.93,58.8,899.49,58.77z"/>
				</g>
				<g class="st1">
					<path class="st2" d="M906.49,25.49c1.57-0.03,2.23,1.05,1.48,2.41l-45.42,82.42c-0.75,1.36-2.63,2.49-4.2,2.53
						c-1.57,0.03-2.23-1.05-1.48-2.41l45.42-82.42C903.05,26.65,904.92,25.52,906.49,25.49z"/>
				</g>
				<g class="st1">
					<path class="st2" d="M891.56,32c1.57-0.03,2.23,1.05,1.48,2.41l-38.49,69.85c-0.75,1.37-2.63,2.49-4.2,2.53
						s-2.23-1.05-1.48-2.41l38.49-69.85C888.12,33.16,890,32.03,891.56,32z"/>
				</g>
				<g class="st1">
					<path class="st2" d="M894.66,5.81c1.57-0.03,2.23,1.05,1.48,2.41l-67.62,122.7c-0.75,1.36-2.63,2.49-4.2,2.53
						c-1.57,0.03-2.23-1.05-1.48-2.41l67.62-122.7C891.21,6.97,893.09,5.84,894.66,5.81z"/>
				</g>
				<g class="st1">
					<path class="st2" d="M885.9,1.14c1.57-0.03,2.23,1.05,1.48,2.41l-73.01,132.5c-0.75,1.36-2.63,2.49-4.2,2.53
						c-1.57,0.03-2.23-1.05-1.48-2.41L881.7,3.66C882.45,2.3,884.33,1.17,885.9,1.14z"/>
				</g>
				<g class="st1">
					<path class="st2" d="M881.86-12.11c1.57-0.03,2.23,1.05,1.48,2.41l-87.86,159.44c-0.75,1.36-2.63,2.49-4.2,2.52
						c-1.57,0.03-2.23-1.05-1.48-2.41L877.66-9.58C878.42-10.95,880.29-12.08,881.86-12.11z"/>
				</g>
				<g class="st1">
					<path class="st2" d="M876.13-22.28c1.57-0.03,2.23,1.05,1.48,2.41l-99.33,180.25c-0.75,1.37-2.63,2.49-4.2,2.53
						c-1.57,0.03-2.23-1.05-1.48-2.41l99.33-180.25C872.68-21.12,874.56-22.25,876.13-22.28z"/>
				</g>
				<g class="st3">
					<path class="st2" d="M861.42-16.17c1.57-0.03,2.23,1.05,1.48,2.41l-92.84,168.48c-0.75,1.36-2.63,2.49-4.2,2.52
						c-1.57,0.03-2.23-1.05-1.48-2.41l92.84-168.48C857.97-15,859.85-16.13,861.42-16.17z"/>
				</g>
				<g class="st3">
					<path class="st2" d="M846.08-8.92c1.57-0.03,2.23,1.05,1.48,2.41l-85.11,154.45c-0.75,1.36-2.63,2.49-4.2,2.53
						c-1.57,0.03-2.23-1.05-1.48-2.41L841.89-6.4C842.64-7.76,844.52-8.89,846.08-8.92z"/>
				</g>
				<g class="st3">
					<path class="st2" d="M837.91-14.67c1.57-0.03,2.23,1.05,1.48,2.41L747.7,154.14c-0.75,1.36-2.63,2.49-4.2,2.53
						c-1.57,0.03-2.23-1.05-1.48-2.41l91.69-166.39C834.47-13.51,836.35-14.64,837.91-14.67z"/>
				</g>
				<g class="st3">
					<path class="st2" d="M832.69-25.76c1.57-0.03,2.23,1.05,1.48,2.41L730,165.68c-0.75,1.36-2.63,2.49-4.2,2.52
						c-1.57,0.03-2.23-1.05-1.48-2.41L828.49-23.23C829.24-24.59,831.12-25.72,832.69-25.76z"/>
				</g>
				<g class="st3">
					<path class="st2" d="M806.23,1.68c1.57-0.03,2.23,1.05,1.48,2.41l-74.18,134.61c-0.75,1.36-2.63,2.49-4.2,2.53
						c-1.57,0.03-2.23-1.05-1.48-2.41L802.03,4.21C802.79,2.84,804.66,1.71,806.23,1.68z"/>
				</g>
				<g class="st3">
					<path class="st2" d="M794.61,2.19c1.57-0.03,2.23,1.05,1.48,2.41l-73.86,134.04c-0.75,1.37-2.63,2.49-4.2,2.53
						c-1.57,0.03-2.23-1.05-1.48-2.41L790.41,4.72C791.16,3.35,793.04,2.22,794.61,2.19z"/>
				</g>
				<g class="st3">
					<path class="st2" d="M777.97,11.81c1.57-0.03,2.23,1.05,1.48,2.41l-63.52,115.27c-0.75,1.36-2.63,2.49-4.2,2.53
						c-1.57,0.03-2.23-1.05-1.48-2.41l63.52-115.27C774.53,12.97,776.4,11.84,777.97,11.81z"/>
				</g>
				<g class="st3">
					<path class="st2" d="M757.9,27.65c1.57-0.03,2.23,1.05,1.48,2.41l-50.33,91.34c-0.75,1.37-2.63,2.49-4.2,2.53
						c-1.57,0.03-2.23-1.05-1.48-2.41l50.33-91.34C754.46,28.81,756.33,27.68,757.9,27.65z"/>
				</g>
				<g class="st3">
					<path class="st2" d="M749.17,22.92c1.57-0.03,2.23,1.05,1.48,2.41l-51.78,93.96c-0.75,1.36-2.63,2.49-4.2,2.53
						c-1.57,0.03-2.23-1.05-1.48-2.41l51.78-93.96C745.73,24.08,747.6,22.95,749.17,22.92z"/>
				</g>
				<g class="st3">
					<path class="st2" d="M727.55,41.6c1.57-0.03,2.23,1.05,1.48,2.41l-31.45,57.06c-0.75,1.37-2.63,2.49-4.2,2.53
						c-1.57,0.03-2.23-1.05-1.48-2.41l31.45-57.06C724.1,42.76,725.98,41.63,727.55,41.6z"/>
				</g>
				<g class="st3">
					<path class="st2" d="M729.19,18.02c1.57-0.03,2.23,1.05,1.48,2.41L672.99,125.1c-0.75,1.36-2.63,2.49-4.2,2.53
						c-1.57,0.03-2.23-1.05-1.48-2.41L725,20.55C725.75,19.19,727.63,18.06,729.19,18.02z"/>
				</g>
				<g class="st3">
					<path class="st2" d="M719.59,14.88c1.57-0.03,2.23,1.05,1.48,2.41l-61.4,111.42c-0.75,1.37-2.63,2.49-4.2,2.53
						c-1.57,0.03-2.23-1.05-1.48-2.41l61.4-111.42C716.14,16.04,718.02,14.91,719.59,14.88z"/>
				</g>
				<g class="st3">
					<path class="st2" d="M713.05,6.16c1.57-0.03,2.23,1.05,1.48,2.41l-71.26,129.31c-0.75,1.37-2.63,2.49-4.2,2.53
						c-1.57,0.03-2.23-1.05-1.48-2.41L708.86,8.68C709.61,7.32,711.48,6.19,713.05,6.16z"/>
				</g>
				<g class="st3">
					<path class="st2" d="M696.86,14.97c1.57-0.03,2.23,1.05,1.48,2.41l-61.8,112.14c-0.75,1.37-2.63,2.49-4.2,2.53
						c-1.57,0.03-2.23-1.05-1.48-2.41l61.8-112.14C693.42,16.13,695.29,15,696.86,14.97z"/>
				</g>
				<g class="st3">
					<path class="st2" d="M683.14,19.3c1.57-0.03,2.23,1.05,1.48,2.41l-57.28,103.95c-0.75,1.37-2.63,2.49-4.2,2.53
						c-1.57,0.03-2.23-1.05-1.48-2.41l57.28-103.95C679.69,20.46,681.57,19.33,683.14,19.3z"/>
				</g>
				<g class="st3">
					<path class="st2" d="M664.41,32.72c1.57-0.03,2.23,1.05,1.48,2.41l-42.74,77.56c-0.75,1.37-2.63,2.49-4.2,2.53
						c-1.57,0.03-2.23-1.05-1.48-2.41l42.74-77.56C660.96,33.88,662.84,32.75,664.41,32.72z"/>
				</g>
				<g class="st3">
					<path class="st2" d="M653.67,31.63c1.57-0.03,2.23,1.05,1.48,2.41l-44.2,80.21c-0.75,1.36-2.63,2.49-4.2,2.53
						c-1.57,0.03-2.23-1.05-1.48-2.41l44.2-80.21C650.22,32.79,652.1,31.66,653.67,31.63z"/>
				</g>
				<g class="st3">
					<path class="st2" d="M627.99,57.64c1.57-0.03,2.23,1.05,1.48,2.41l-15.78,28.64c-0.75,1.36-2.63,2.49-4.2,2.53
						c-1.57,0.03-2.23-1.05-1.48-2.41l15.78-28.64C624.55,58.8,626.43,57.67,627.99,57.64z"/>
				</g>
				<g class="st3">
					<path class="st2" d="M624.12,44.09c1.57-0.03,2.23,1.05,1.48,2.41l-30.97,56.2c-0.75,1.36-2.63,2.49-4.2,2.53
						c-1.57,0.03-2.23-1.05-1.48-2.41l30.97-56.2C620.68,45.25,622.55,44.12,624.12,44.09z"/>
				</g>
				<g class="st3">
					<path class="st2" d="M616.54,37.27c1.57-0.03,2.23,1.05,1.48,2.41l-38.74,70.29c-0.75,1.36-2.63,2.49-4.2,2.53
						c-1.57,0.03-2.23-1.05-1.48-2.41l38.74-70.29C613.1,38.43,614.98,37.3,616.54,37.27z"/>
				</g>
				<g class="st3">
					<path class="st2" d="M609.78,28.97c1.57-0.03,2.23,1.05,1.48,2.41l-48.14,87.35c-0.75,1.36-2.63,2.49-4.2,2.53
						c-1.57,0.03-2.23-1.05-1.48-2.41l48.14-87.35C606.34,30.13,608.21,29,609.78,28.97z"/>
				</g>
				<g class="st3">
					<path class="st2" d="M591.52,41.53c1.57-0.03,2.23,1.05,1.48,2.41l-34.54,62.68c-0.75,1.37-2.63,2.49-4.2,2.53
						c-1.57,0.03-2.23-1.05-1.48-2.41l34.54-62.68C588.07,42.69,589.95,41.56,591.52,41.53z"/>
				</g>
				<g class="st3">
					<path class="st2" d="M586.08,30.81c1.57-0.03,2.23,1.05,1.48,2.41l-46.61,84.58c-0.75,1.36-2.63,2.49-4.2,2.53
						c-1.57,0.03-2.23-1.05-1.48-2.41l46.61-84.58C582.64,31.97,584.52,30.84,586.08,30.81z"/>
				</g>
				<g class="st3">
					<path class="st2" d="M573.57,32.94c1.57-0.03,2.23,1.05,1.48,2.41l-44.51,80.77c-0.75,1.36-2.63,2.49-4.2,2.53
						c-1.57,0.03-2.23-1.05-1.48-2.41l44.51-80.77C570.13,34.11,572,32.98,573.57,32.94z"/>
				</g>
				<g class="st3">
					<path class="st2" d="M569.46,19.84c1.57-0.03,2.23,1.05,1.48,2.41L511.72,129.7c-0.75,1.37-2.63,2.49-4.2,2.53
						s-2.23-1.05-1.48-2.41l59.21-107.45C566.01,21,567.89,19.87,569.46,19.84z"/>
				</g>
				<g class="st3">
					<path class="st2" d="M556.64,22.52c1.57-0.03,2.23,1.05,1.48,2.41l-56.51,102.54c-0.75,1.36-2.63,2.49-4.2,2.53
						c-1.57,0.03-2.23-1.05-1.48-2.41l56.51-102.54C553.2,23.68,555.07,22.55,556.64,22.52z"/>
				</g>
				<g class="st3">
					<path class="st2" d="M550.99,12.2c1.57-0.03,2.23,1.05,1.48,2.41l-68.12,123.63c-0.75,1.36-2.63,2.49-4.2,2.53
						c-1.57,0.03-2.23-1.05-1.48-2.41l68.12-123.63C547.55,13.36,549.42,12.23,550.99,12.2z"/>
				</g>
				<g class="st3">
					<path class="st2" d="M548.7-4.21c1.57-0.03,2.23,1.05,1.48,2.41L463.7,155.12c-0.75,1.36-2.63,2.49-4.2,2.53
						s-2.23-1.05-1.48-2.41L544.5-1.69C545.25-3.05,547.13-4.18,548.7-4.21z"/>
				</g>
				<g class="st3">
					<path class="st2" d="M529.88,9.35c1.57-0.03,2.23,1.05,1.48,2.41l-71.77,130.24c-0.75,1.36-2.63,2.49-4.2,2.53
						c-1.57,0.03-2.23-1.05-1.48-2.41l71.77-130.24C526.44,10.51,528.31,9.38,529.88,9.35z"/>
				</g>
				<g class="st3">
					<path class="st2" d="M522.79,1.64c1.57-0.03,2.23,1.05,1.48,2.41l-80.53,146.13c-0.75,1.36-2.63,2.49-4.2,2.53
						c-1.57,0.03-2.23-1.05-1.48-2.41L518.59,4.16C519.35,2.8,521.22,1.67,522.79,1.64z"/>
				</g>
				<g class="st3">
					<path class="st2" d="M507.44,8.92c1.57-0.03,2.23,1.05,1.48,2.41l-72.75,132.02c-0.75,1.36-2.63,2.49-4.2,2.53
						c-1.57,0.03-2.23-1.05-1.48-2.41l72.75-132.02C504,10.08,505.87,8.95,507.44,8.92z"/>
				</g>
				<g class="st3">
					<path class="st2" d="M487.33,24.85c1.57-0.03,2.23,1.05,1.48,2.41l-55.45,100.62c-0.75,1.37-2.63,2.49-4.2,2.53
						c-1.57,0.03-2.23-1.05-1.48-2.41l55.45-100.62C483.89,26.01,485.76,24.88,487.33,24.85z"/>
				</g>
				<g class="st3">
					<path class="st2" d="M480.69,16.32c1.57-0.03,2.23,1.05,1.48,2.41l-65.1,118.13c-0.75,1.37-2.63,2.49-4.2,2.53
						c-1.57,0.03-2.23-1.05-1.48-2.41l65.1-118.13C477.24,17.48,479.12,16.36,480.69,16.32z"/>
				</g>
				<g class="st3">
					<path class="st2" d="M463.59,26.78c1.57-0.03,2.23,1.05,1.48,2.41l-53.83,97.68c-0.75,1.36-2.63,2.49-4.2,2.53
						s-2.23-1.05-1.48-2.41l53.83-97.68C460.14,27.94,462.02,26.81,463.59,26.78z"/>
				</g>
				<g class="st3">
					<path class="st2" d="M447.9,34.67c1.57-0.03,2.23,1.05,1.48,2.41l-45.39,82.36c-0.75,1.36-2.63,2.49-4.2,2.53
						c-1.57,0.03-2.23-1.05-1.48-2.41l45.39-82.36C444.45,35.83,446.33,34.7,447.9,34.67z"/>
				</g>
				<g class="st3">
					<path class="st2" d="M433.93,39.45c1.57-0.03,2.23,1.05,1.48,2.41l-40.37,73.26c-0.75,1.36-2.63,2.49-4.2,2.53
						c-1.57,0.03-2.23-1.05-1.48-2.41l40.37-73.26C430.49,40.61,432.36,39.48,433.93,39.45z"/>
				</g>
			</g>
		</g>
		<g>
			<g>
				<g>
					<polygon class="st4" points="597.94,2.73 595.64,0.35 584.56,0.35 597.94,14.21 					"/>
				</g>
				<g>
					<polygon class="st4" points="597.94,37.13 562.42,0.35 551.34,0.35 597.94,48.61 					"/>
				</g>
				<g>
					<polygon class="st4" points="597.94,71.53 529.21,0.35 518.13,0.35 590.62,75.43 518.13,150.51 529.21,150.51 597.94,79.33 
											"/>
				</g>
				<g>
					<polygon class="st4" points="597.94,102.25 551.34,150.51 562.42,150.51 597.94,113.73 					"/>
				</g>
				<g>
					<polygon class="st4" points="597.94,136.65 584.56,150.51 595.64,150.51 597.94,148.12 					"/>
				</g>
				<g>
					<polyline class="st4" points="429.57,0.35 418.49,0.35 490.99,75.43 418.49,150.51 429.57,150.51 502.07,75.43 					"/>
				</g>
				<g>
					<polygon class="st4" points="496,0.35 484.92,0.35 557.41,75.43 484.92,150.51 496,150.51 568.49,75.43 					"/>
				</g>
			</g>
			<g>
				<polygon class="st4" points="462.79,0.35 451.71,0.35 524.2,75.43 451.71,150.51 462.79,150.51 535.28,75.43 				"/>
			</g>
		</g>
	</g>
	<g>
		<g>
			<path class="st5" d="M48.12,91.78H35.04l-2.54,12.15H22.35L37.2,44.56h8.78l14.94,59.38H50.67L48.12,91.78z M37.13,81.79H46
				l-4.44-21.17L37.13,81.79z"/>
			<path class="st5" d="M96.87,84.16c-0.24,6.77-1.76,11.9-4.57,15.38c-2.81,3.48-6.76,5.22-11.88,5.22
				c-5.37,0-9.49-2.21-12.35-6.63c-2.86-4.42-4.29-10.72-4.29-18.9v-9.99c0-8.16,1.48-14.44,4.44-18.86
				c2.96-4.42,7.07-6.63,12.33-6.63c5.18,0,9.11,1.81,11.79,5.42c2.69,3.62,4.21,8.81,4.58,15.58h-9.62
				c-0.09-4.19-0.6-7.08-1.55-8.67c-0.95-1.59-2.68-2.39-5.2-2.39c-2.57,0-4.38,1.12-5.45,3.36s-1.63,5.93-1.7,11.07v11.21
				c0,5.9,0.53,9.95,1.58,12.15s2.87,3.3,5.43,3.3c2.52,0,4.26-0.77,5.22-2.3c0.96-1.54,1.5-4.32,1.63-8.34H96.87z"/>
			<path class="st5" d="M134.97,84.16c-0.24,6.77-1.76,11.9-4.57,15.38c-2.81,3.48-6.76,5.22-11.88,5.22
				c-5.37,0-9.49-2.21-12.35-6.63c-2.86-4.42-4.29-10.72-4.29-18.9v-9.99c0-8.16,1.48-14.44,4.44-18.86
				c2.96-4.42,7.07-6.63,12.33-6.63c5.18,0,9.11,1.81,11.79,5.42c2.69,3.62,4.21,8.81,4.58,15.58h-9.62
				c-0.09-4.19-0.6-7.08-1.55-8.67c-0.95-1.59-2.68-2.39-5.2-2.39c-2.57,0-4.38,1.12-5.45,3.36s-1.63,5.93-1.7,11.07v11.21
				c0,5.9,0.53,9.95,1.58,12.15s2.87,3.3,5.43,3.3c2.52,0,4.26-0.77,5.22-2.3c0.96-1.54,1.5-4.32,1.63-8.34H134.97z"/>
			<path class="st5" d="M165.41,78.24h-14.94v15.74h17.68v9.95h-27.27V44.56h27.21v9.99h-17.62v14.03h14.94V78.24z"/>
			<path class="st5" d="M193.73,88.36c0-2.42-0.5-4.25-1.48-5.49c-0.99-1.24-2.79-2.52-5.4-3.85c-4.76-2.26-8.19-4.9-10.28-7.93
				c-2.09-3.03-3.13-6.61-3.13-10.75c0-5,1.42-9.02,4.26-12.05c2.84-3.03,6.44-4.55,10.81-4.55c2.92,0,5.51,0.77,7.8,2.3
				c2.28,1.54,4.04,3.7,5.27,6.5c1.23,2.8,1.84,5.98,1.84,9.54h-9.56c0-2.77-0.47-4.89-1.42-6.34s-2.31-2.18-4.09-2.18
				c-1.67,0-2.98,0.62-3.92,1.86c-0.93,1.24-1.4,2.9-1.4,5c0,1.63,0.52,3.11,1.57,4.42c1.04,1.32,2.89,2.69,5.55,4.1
				c4.63,2.09,8,4.66,10.1,7.71c2.1,3.04,3.15,6.92,3.15,11.62c0,5.17-1.32,9.2-3.95,12.11s-6.21,4.36-10.73,4.36
				c-3.07,0-5.86-0.79-8.38-2.37c-2.52-1.58-4.5-3.83-5.92-6.77s-2.14-6.4-2.14-10.4h9.62c0,3.43,0.53,5.91,1.6,7.46
				c1.07,1.55,2.81,2.33,5.22,2.33C192.05,95.01,193.73,92.79,193.73,88.36z"/>
			<path class="st5" d="M219.76,103.94h-9.59V44.56h9.59V103.94z"/>
			<path class="st5" d="M227.82,103.94V44.56h14.68c4.96,0,8.73,1.38,11.3,4.14c2.58,2.76,3.87,6.8,3.87,12.13
				c0,3.02-0.53,5.61-1.6,7.79s-2.52,3.77-4.37,4.77c2.13,0.76,3.77,2.29,4.93,4.59c1.15,2.3,1.73,5.13,1.73,8.5
				c0,5.76-1.27,10.11-3.8,13.05c-2.53,2.94-6.21,4.4-11.01,4.4H227.82z M237.41,69.39h4.99c3.76,0,5.64-2.43,5.64-7.3
				c0-2.69-0.44-4.62-1.31-5.79c-0.87-1.17-2.28-1.75-4.24-1.75h-5.09V69.39z M237.41,78.12v15.86h6.13c1.72,0,3.02-0.67,3.92-2
				c0.89-1.33,1.34-3.22,1.34-5.67c0-5.33-1.54-8.06-4.63-8.2H237.41z"/>
			<path class="st5" d="M275.33,103.94h-9.59V44.56h9.59V103.94z"/>
			<path class="st5" d="M292.98,93.99h16.83v9.95h-26.43V44.56h9.59V93.99z"/>
			<path class="st5" d="M325.37,103.94h-9.59V44.56h9.59V103.94z"/>
			<path class="st5" d="M333.43,103.94V44.56h12.56c5.55,0,9.97,2.2,13.26,6.61c3.29,4.4,4.98,10.44,5.04,18.11v9.62
				c0,7.8-1.65,13.93-4.94,18.37c-3.29,4.45-7.83,6.67-13.62,6.67H333.43z M343.02,54.55v39.44h2.87c3.2,0,5.45-1.05,6.75-3.16
				c1.3-2.11,1.99-5.74,2.06-10.91V69.6c0-5.55-0.62-9.41-1.86-11.6c-1.24-2.19-3.35-3.34-6.33-3.45H343.02z"/>
			<path class="st5" d="M393.17,91.78h-13.08l-2.54,12.15h-10.15l14.84-59.38h8.78l14.94,59.38h-10.24L393.17,91.78z M382.17,81.79
				h8.87l-4.44-21.17L382.17,81.79z"/>
			<path class="st5" d="M410.39,103.94V44.56h12.56c5.55,0,9.97,2.2,13.26,6.61c3.29,4.4,4.98,10.44,5.04,18.11v9.62
				c0,7.8-1.65,13.93-4.94,18.37c-3.29,4.45-7.83,6.67-13.62,6.67H410.39z M419.99,54.55v39.44h2.87c3.2,0,5.45-1.05,6.75-3.16
				c1.3-2.11,1.99-5.74,2.06-10.91V69.6c0-5.55-0.62-9.41-1.86-11.6c-1.24-2.19-3.35-3.34-6.33-3.45H419.99z"/>
		</g>
	</g>
	<g>
		<path class="st6" d="M626.62,54.07h-7.88v6.44h9.15v1.96h-11.55V44.3h11.42v1.96h-9.03v5.86h7.88V54.07z"/>
		<path class="st6" d="M632.7,48.97l0.08,1.7c1.03-1.3,2.38-1.95,4.04-1.95c2.85,0,4.29,1.61,4.32,4.83v8.93h-2.31v-8.94
			c-0.01-0.97-0.23-1.69-0.67-2.16c-0.44-0.47-1.12-0.7-2.04-0.7c-0.75,0-1.41,0.2-1.97,0.6c-0.57,0.4-1.01,0.92-1.32,1.57v9.62
			h-2.31V48.97H632.7z"/>
		<path class="st6" d="M657.48,51.04c-0.35-0.06-0.73-0.09-1.14-0.09c-1.51,0-2.54,0.64-3.08,1.93v9.59h-2.31V48.97h2.25l0.04,1.56
			c0.76-1.21,1.83-1.81,3.22-1.81c0.45,0,0.79,0.06,1.02,0.17V51.04z"/>
		<path class="st6" d="M664.97,62.72c-1.83,0-3.32-0.6-4.47-1.8c-1.15-1.2-1.72-2.81-1.72-4.82v-0.42c0-1.34,0.26-2.54,0.77-3.59
			s1.23-1.88,2.15-2.47c0.92-0.59,1.92-0.89,2.99-0.89c1.76,0,3.12,0.58,4.09,1.74c0.97,1.16,1.46,2.81,1.46,4.97v0.96h-9.15
			c0.03,1.33,0.42,2.41,1.17,3.23c0.75,0.82,1.69,1.23,2.84,1.23c0.82,0,1.51-0.17,2.07-0.5c0.57-0.33,1.06-0.77,1.49-1.32l1.41,1.1
			C668.94,61.85,667.24,62.72,664.97,62.72z M664.69,50.61c-0.93,0-1.71,0.34-2.35,1.02c-0.63,0.68-1.02,1.63-1.17,2.85h6.77v-0.17
			c-0.07-1.17-0.38-2.08-0.95-2.73C666.42,50.94,665.65,50.61,664.69,50.61z"/>
		<path class="st6" d="M678.33,60.84c0.82,0,1.54-0.25,2.16-0.75c0.62-0.5,0.96-1.12,1.02-1.87h2.18c-0.04,0.77-0.31,1.51-0.8,2.21
			c-0.49,0.7-1.15,1.26-1.97,1.67c-0.82,0.42-1.69,0.62-2.6,0.62c-1.84,0-3.3-0.61-4.39-1.84c-1.09-1.23-1.63-2.91-1.63-5.04v-0.39
			c0-1.32,0.24-2.48,0.72-3.51c0.48-1.02,1.17-1.82,2.08-2.38c0.9-0.57,1.97-0.85,3.2-0.85c1.51,0,2.77,0.45,3.78,1.36
			s1.54,2.08,1.6,3.53h-2.18c-0.07-0.87-0.4-1.59-0.99-2.15c-0.59-0.56-1.33-0.84-2.2-0.84c-1.17,0-2.08,0.42-2.73,1.27
			c-0.65,0.84-0.97,2.07-0.97,3.66v0.44c0,1.56,0.32,2.75,0.96,3.59C676.23,60.42,677.14,60.84,678.33,60.84z"/>
		<path class="st6" d="M694.64,61.14c-0.9,1.06-2.22,1.59-3.96,1.59c-1.44,0-2.54-0.42-3.29-1.25c-0.75-0.84-1.13-2.07-1.14-3.71
			v-8.79h2.31v8.73c0,2.05,0.83,3.07,2.5,3.07c1.76,0,2.94-0.66,3.52-1.97v-9.83h2.31v13.51h-2.2L694.64,61.14z"/>
		<path class="st6" d="M706.92,51.04c-0.35-0.06-0.73-0.09-1.14-0.09c-1.51,0-2.54,0.64-3.08,1.93v9.59h-2.31V48.97h2.25l0.04,1.56
			c0.76-1.21,1.83-1.81,3.22-1.81c0.45,0,0.79,0.06,1.02,0.17V51.04z"/>
		<path class="st6" d="M716.91,58.89c0-0.62-0.24-1.11-0.71-1.45s-1.29-0.64-2.46-0.89c-1.17-0.25-2.1-0.55-2.78-0.9
			s-1.19-0.77-1.52-1.25c-0.33-0.48-0.49-1.06-0.49-1.72c0-1.11,0.47-2.04,1.41-2.81c0.94-0.77,2.13-1.15,3.59-1.15
			c1.53,0,2.77,0.4,3.73,1.19s1.43,1.8,1.43,3.03h-2.32c0-0.63-0.27-1.18-0.81-1.63c-0.54-0.46-1.21-0.69-2.03-0.69
			c-0.84,0-1.5,0.18-1.97,0.55s-0.71,0.84-0.71,1.44c0,0.56,0.22,0.98,0.66,1.26c0.44,0.28,1.24,0.55,2.39,0.81s2.09,0.57,2.8,0.92
			c0.72,0.36,1.25,0.79,1.59,1.29c0.34,0.5,0.52,1.12,0.52,1.84c0,1.21-0.48,2.17-1.45,2.9c-0.96,0.73-2.22,1.09-3.76,1.09
			c-1.08,0-2.04-0.19-2.87-0.57s-1.48-0.92-1.95-1.6c-0.47-0.69-0.71-1.43-0.71-2.23h2.31c0.04,0.77,0.35,1.39,0.93,1.84
			c0.58,0.45,1.34,0.68,2.29,0.68c0.87,0,1.57-0.18,2.1-0.53C716.64,59.95,716.91,59.48,716.91,58.89z"/>
		<path class="st6" d="M721.61,55.59c0-1.32,0.26-2.51,0.78-3.57c0.52-1.06,1.24-1.87,2.17-2.45c0.93-0.58,1.99-0.86,3.18-0.86
			c1.84,0,3.33,0.64,4.46,1.91c1.14,1.27,1.7,2.97,1.7,5.08v0.16c0,1.32-0.25,2.5-0.75,3.54c-0.5,1.04-1.22,1.86-2.16,2.44
			c-0.94,0.58-2.01,0.87-3.23,0.87c-1.83,0-3.31-0.64-4.45-1.91c-1.14-1.27-1.7-2.96-1.7-5.06V55.59z M723.94,55.87
			c0,1.5,0.35,2.7,1.04,3.61c0.7,0.91,1.62,1.36,2.79,1.36c1.17,0,2.11-0.46,2.8-1.38s1.04-2.21,1.04-3.86
			c0-1.48-0.35-2.68-1.05-3.6c-0.7-0.92-1.64-1.38-2.8-1.38c-1.14,0-2.06,0.45-2.76,1.36S723.94,54.18,723.94,55.87z"/>
		<path class="st6" d="M744.67,58.89c0-0.62-0.24-1.11-0.71-1.45s-1.29-0.64-2.46-0.89c-1.17-0.25-2.1-0.55-2.78-0.9
			s-1.19-0.77-1.52-1.25c-0.33-0.48-0.49-1.06-0.49-1.72c0-1.11,0.47-2.04,1.41-2.81c0.94-0.77,2.13-1.15,3.59-1.15
			c1.53,0,2.77,0.4,3.73,1.19s1.43,1.8,1.43,3.03h-2.32c0-0.63-0.27-1.18-0.81-1.63c-0.54-0.46-1.21-0.69-2.03-0.69
			c-0.84,0-1.5,0.18-1.97,0.55s-0.71,0.84-0.71,1.44c0,0.56,0.22,0.98,0.66,1.26c0.44,0.28,1.24,0.55,2.39,0.81s2.09,0.57,2.8,0.92
			c0.72,0.36,1.25,0.79,1.59,1.29c0.34,0.5,0.52,1.12,0.52,1.84c0,1.21-0.48,2.17-1.45,2.9c-0.96,0.73-2.22,1.09-3.76,1.09
			c-1.08,0-2.04-0.19-2.87-0.57s-1.48-0.92-1.95-1.6c-0.47-0.69-0.71-1.43-0.71-2.23h2.31c0.04,0.77,0.35,1.39,0.93,1.84
			c0.58,0.45,1.34,0.68,2.29,0.68c0.87,0,1.57-0.18,2.1-0.53C744.41,59.95,744.67,59.48,744.67,58.89z"/>
		<path class="st6" d="M615.43,86.29c0-2.07,0.49-3.74,1.47-5c0.98-1.26,2.27-1.89,3.86-1.89c1.58,0,2.83,0.54,3.76,1.62v-7.04h2.31
			v19.18h-2.12l-0.11-1.45c-0.92,1.13-2.21,1.7-3.86,1.7c-1.56,0-2.84-0.64-3.83-1.92c-0.99-1.28-1.48-2.95-1.48-5.02V86.29z
			 M617.74,86.55c0,1.53,0.32,2.73,0.95,3.6c0.63,0.87,1.51,1.3,2.62,1.3c1.46,0,2.53-0.66,3.21-1.97v-6.21
			c-0.69-1.27-1.75-1.91-3.18-1.91c-1.13,0-2.01,0.44-2.65,1.31S617.74,84.84,617.74,86.55z"/>
		<path class="st6" d="M630.42,76.06c0-0.37,0.12-0.69,0.34-0.95s0.57-0.39,1.02-0.39s0.79,0.13,1.02,0.39s0.35,0.57,0.35,0.95
			c0,0.38-0.12,0.69-0.35,0.94s-0.57,0.37-1.02,0.37s-0.79-0.12-1.02-0.37S630.42,76.44,630.42,76.06z M632.92,93.15h-2.31V79.65
			h2.31V93.15z"/>
		<path class="st6" d="M636.06,86.29c0-2.11,0.49-3.78,1.46-5.02s2.26-1.87,3.87-1.87c1.65,0,2.93,0.58,3.86,1.75l0.11-1.5h2.11
			v13.18c0,1.75-0.52,3.12-1.55,4.13s-2.43,1.51-4.18,1.51c-0.97,0-1.93-0.21-2.86-0.62c-0.93-0.42-1.64-0.99-2.13-1.71l1.2-1.39
			c0.99,1.22,2.2,1.83,3.63,1.83c1.12,0,2-0.32,2.63-0.95c0.63-0.63,0.94-1.52,0.94-2.67v-1.16c-0.92,1.07-2.18,1.6-3.78,1.6
			c-1.58,0-2.86-0.64-3.84-1.91C636.55,90.22,636.06,88.48,636.06,86.29z M638.38,86.55c0,1.52,0.31,2.72,0.94,3.59
			c0.62,0.87,1.5,1.3,2.62,1.3c1.46,0,2.53-0.66,3.21-1.99v-6.17c-0.71-1.29-1.77-1.94-3.18-1.94c-1.12,0-2,0.44-2.63,1.31
			C638.7,83.54,638.38,84.84,638.38,86.55z"/>
		<path class="st6" d="M650.97,76.06c0-0.37,0.12-0.69,0.34-0.95s0.57-0.39,1.02-0.39s0.79,0.13,1.02,0.39s0.35,0.57,0.35,0.95
			c0,0.38-0.12,0.69-0.35,0.94s-0.57,0.37-1.02,0.37s-0.79-0.12-1.02-0.37S650.97,76.44,650.97,76.06z M653.46,93.15h-2.31V79.65
			h2.31V93.15z"/>
		<path class="st6" d="M660.29,76.38v3.27h2.52v1.79h-2.52v8.39c0,0.54,0.11,0.95,0.34,1.22c0.22,0.27,0.61,0.41,1.15,0.41
			c0.27,0,0.63-0.05,1.1-0.15v1.86c-0.61,0.17-1.2,0.25-1.77,0.25c-1.03,0-1.81-0.31-2.33-0.94s-0.79-1.51-0.79-2.66v-8.38h-2.46
			v-1.79h2.46v-3.27H660.29z"/>
		<path class="st6" d="M673.85,93.15c-0.13-0.27-0.24-0.74-0.32-1.42c-1.07,1.12-2.36,1.67-3.85,1.67c-1.33,0-2.42-0.38-3.28-1.13
			c-0.85-0.75-1.28-1.71-1.28-2.87c0-1.41,0.54-2.5,1.6-3.28s2.57-1.17,4.51-1.17h2.25V83.9c0-0.81-0.24-1.45-0.72-1.93
			s-1.19-0.72-2.13-0.72c-0.82,0-1.51,0.21-2.07,0.62c-0.56,0.42-0.84,0.92-0.84,1.51h-2.32c0-0.67,0.24-1.33,0.72-1.95
			c0.48-0.63,1.13-1.13,1.95-1.49c0.82-0.37,1.72-0.55,2.7-0.55c1.56,0,2.78,0.39,3.66,1.17s1.34,1.85,1.37,3.21V90
			c0,1.24,0.16,2.23,0.47,2.96v0.2H673.85z M670.02,91.39c0.72,0,1.41-0.19,2.06-0.56c0.65-0.37,1.12-0.86,1.41-1.46V86.6h-1.81
			c-2.83,0-4.25,0.83-4.25,2.48c0,0.72,0.24,1.29,0.72,1.7C668.64,91.19,669.26,91.39,670.02,91.39z"/>
		<path class="st6" d="M681.93,93.15h-2.31V73.98h2.31V93.15z"/>
		<path class="st6" d="M691.23,93.4c-1.83,0-3.32-0.6-4.47-1.8c-1.15-1.2-1.72-2.81-1.72-4.82v-0.42c0-1.34,0.26-2.54,0.77-3.59
			s1.23-1.88,2.15-2.47c0.92-0.59,1.92-0.89,2.99-0.89c1.76,0,3.12,0.58,4.09,1.74c0.97,1.16,1.46,2.81,1.46,4.97v0.96h-9.15
			c0.03,1.33,0.42,2.41,1.17,3.23c0.75,0.82,1.69,1.23,2.84,1.23c0.82,0,1.51-0.17,2.07-0.5c0.57-0.33,1.06-0.77,1.49-1.32l1.41,1.1
			C695.19,92.53,693.49,93.4,691.23,93.4z M690.94,81.29c-0.93,0-1.71,0.34-2.35,1.02c-0.63,0.68-1.02,1.63-1.17,2.85h6.77v-0.17
			c-0.07-1.17-0.38-2.08-0.95-2.73C692.67,81.62,691.91,81.29,690.94,81.29z"/>
		<path class="st6" d="M707.03,89.57c0-0.62-0.24-1.11-0.71-1.45s-1.29-0.64-2.46-0.89c-1.17-0.25-2.1-0.55-2.78-0.9
			s-1.19-0.77-1.52-1.25c-0.33-0.48-0.49-1.06-0.49-1.72c0-1.11,0.47-2.04,1.41-2.81c0.94-0.77,2.13-1.15,3.59-1.15
			c1.53,0,2.77,0.4,3.73,1.19s1.43,1.8,1.43,3.03h-2.32c0-0.63-0.27-1.18-0.81-1.63c-0.54-0.46-1.21-0.69-2.03-0.69
			c-0.84,0-1.5,0.18-1.97,0.55s-0.71,0.84-0.71,1.44c0,0.56,0.22,0.98,0.66,1.26c0.44,0.28,1.24,0.55,2.39,0.81s2.09,0.57,2.8,0.92
			c0.72,0.36,1.25,0.79,1.59,1.29c0.34,0.5,0.52,1.12,0.52,1.84c0,1.21-0.48,2.17-1.45,2.9c-0.96,0.73-2.22,1.09-3.76,1.09
			c-1.08,0-2.04-0.19-2.87-0.57s-1.48-0.92-1.95-1.6c-0.47-0.69-0.71-1.43-0.71-2.23h2.31c0.04,0.77,0.35,1.39,0.93,1.84
			c0.58,0.45,1.34,0.68,2.29,0.68c0.87,0,1.57-0.18,2.1-0.53C706.77,90.63,707.03,90.16,707.03,89.57z"/>
		<path class="st6" d="M724.28,93.4c-1.83,0-3.32-0.6-4.47-1.8c-1.15-1.2-1.72-2.81-1.72-4.82v-0.42c0-1.34,0.26-2.54,0.77-3.59
			s1.23-1.88,2.15-2.47c0.92-0.59,1.92-0.89,2.99-0.89c1.76,0,3.12,0.58,4.09,1.74c0.97,1.16,1.46,2.81,1.46,4.97v0.96h-9.15
			c0.03,1.33,0.42,2.41,1.17,3.23c0.75,0.82,1.69,1.23,2.84,1.23c0.82,0,1.51-0.17,2.07-0.5c0.57-0.33,1.06-0.77,1.49-1.32l1.41,1.1
			C728.24,92.53,726.55,93.4,724.28,93.4z M724,81.29c-0.93,0-1.71,0.34-2.35,1.02c-0.63,0.68-1.02,1.63-1.17,2.85h6.77v-0.17
			c-0.07-1.17-0.38-2.08-0.95-2.73C725.73,81.62,724.96,81.29,724,81.29z"/>
		<path class="st6" d="M731.66,86.29c0-2.07,0.49-3.74,1.47-5c0.98-1.26,2.27-1.89,3.86-1.89c1.58,0,2.83,0.54,3.76,1.62v-7.04h2.31
			v19.18h-2.12l-0.11-1.45c-0.92,1.13-2.21,1.7-3.86,1.7c-1.56,0-2.84-0.64-3.83-1.92c-0.99-1.28-1.48-2.95-1.48-5.02V86.29z
			 M733.97,86.55c0,1.53,0.32,2.73,0.95,3.6c0.63,0.87,1.51,1.3,2.62,1.3c1.46,0,2.53-0.66,3.21-1.97v-6.21
			c-0.69-1.27-1.75-1.91-3.18-1.91c-1.13,0-2.01,0.44-2.65,1.31S733.97,84.84,733.97,86.55z"/>
		<path class="st6" d="M754.98,91.82c-0.9,1.06-2.22,1.59-3.96,1.59c-1.44,0-2.54-0.42-3.29-1.25c-0.75-0.84-1.13-2.07-1.14-3.71
			v-8.79h2.31v8.73c0,2.05,0.83,3.07,2.5,3.07c1.76,0,2.94-0.66,3.52-1.97v-9.83h2.31v13.51h-2.2L754.98,91.82z"/>
		<path class="st6" d="M766.16,91.52c0.82,0,1.54-0.25,2.16-0.75c0.62-0.5,0.96-1.12,1.02-1.87h2.18c-0.04,0.77-0.31,1.51-0.8,2.21
			c-0.49,0.7-1.15,1.26-1.97,1.67c-0.82,0.42-1.69,0.62-2.6,0.62c-1.84,0-3.3-0.61-4.39-1.84c-1.09-1.23-1.63-2.91-1.63-5.04v-0.39
			c0-1.32,0.24-2.48,0.72-3.51c0.48-1.02,1.17-1.82,2.08-2.38c0.9-0.57,1.97-0.85,3.2-0.85c1.51,0,2.77,0.45,3.78,1.36
			s1.54,2.08,1.6,3.53h-2.18c-0.07-0.87-0.4-1.59-0.99-2.15c-0.59-0.56-1.33-0.84-2.2-0.84c-1.17,0-2.08,0.42-2.73,1.27
			c-0.65,0.84-0.97,2.07-0.97,3.66v0.44c0,1.56,0.32,2.75,0.96,3.59C764.05,91.1,764.96,91.52,766.16,91.52z"/>
		<path class="st6" d="M782.46,93.15c-0.13-0.27-0.24-0.74-0.32-1.42c-1.07,1.12-2.36,1.67-3.85,1.67c-1.33,0-2.42-0.38-3.28-1.13
			c-0.85-0.75-1.28-1.71-1.28-2.87c0-1.41,0.54-2.5,1.6-3.28s2.57-1.17,4.51-1.17h2.25V83.9c0-0.81-0.24-1.45-0.72-1.93
			s-1.19-0.72-2.13-0.72c-0.82,0-1.51,0.21-2.07,0.62c-0.56,0.42-0.84,0.92-0.84,1.51h-2.32c0-0.67,0.24-1.33,0.72-1.95
			c0.48-0.63,1.13-1.13,1.95-1.49c0.82-0.37,1.72-0.55,2.7-0.55c1.56,0,2.78,0.39,3.66,1.17s1.34,1.85,1.37,3.21V90
			c0,1.24,0.16,2.23,0.47,2.96v0.2H782.46z M778.63,91.39c0.72,0,1.41-0.19,2.06-0.56c0.65-0.37,1.12-0.86,1.41-1.46V86.6h-1.81
			c-2.83,0-4.25,0.83-4.25,2.48c0,0.72,0.24,1.29,0.72,1.7C777.25,91.19,777.87,91.39,778.63,91.39z"/>
		<path class="st6" d="M791.16,76.38v3.27h2.52v1.79h-2.52v8.39c0,0.54,0.11,0.95,0.34,1.22c0.22,0.27,0.61,0.41,1.15,0.41
			c0.27,0,0.63-0.05,1.1-0.15v1.86c-0.61,0.17-1.2,0.25-1.77,0.25c-1.03,0-1.81-0.31-2.33-0.94s-0.79-1.51-0.79-2.66v-8.38h-2.46
			v-1.79h2.46v-3.27H791.16z"/>
		<path class="st6" d="M796.39,76.06c0-0.37,0.12-0.69,0.34-0.95s0.57-0.39,1.02-0.39s0.79,0.13,1.02,0.39s0.35,0.57,0.35,0.95
			c0,0.38-0.12,0.69-0.35,0.94s-0.57,0.37-1.02,0.37s-0.79-0.12-1.02-0.37S796.39,76.44,796.39,76.06z M798.89,93.15h-2.31V79.65
			h2.31V93.15z"/>
		<path class="st6" d="M807.04,90.02l3.35-10.37h2.36l-4.84,13.51h-1.76l-4.89-13.51h2.36L807.04,90.02z"/>
		<path class="st6" d="M814.17,86.27c0-1.32,0.26-2.51,0.78-3.57c0.52-1.06,1.24-1.87,2.17-2.45c0.93-0.58,1.99-0.86,3.18-0.86
			c1.84,0,3.33,0.64,4.46,1.91c1.14,1.27,1.7,2.97,1.7,5.08v0.16c0,1.32-0.25,2.5-0.75,3.54c-0.5,1.04-1.22,1.86-2.16,2.44
			c-0.94,0.58-2.01,0.87-3.23,0.87c-1.83,0-3.31-0.64-4.45-1.91c-1.14-1.27-1.7-2.96-1.7-5.06V86.27z M816.49,86.55
			c0,1.5,0.35,2.7,1.04,3.61c0.7,0.91,1.62,1.36,2.79,1.36c1.17,0,2.11-0.46,2.8-1.38s1.04-2.21,1.04-3.86
			c0-1.48-0.35-2.68-1.05-3.6c-0.7-0.92-1.64-1.38-2.8-1.38c-1.14,0-2.06,0.45-2.76,1.36S816.49,84.86,816.49,86.55z"/>
		<path class="st6" d="M837.22,89.57c0-0.62-0.24-1.11-0.71-1.45s-1.29-0.64-2.46-0.89c-1.17-0.25-2.1-0.55-2.78-0.9
			s-1.19-0.77-1.52-1.25c-0.33-0.48-0.49-1.06-0.49-1.72c0-1.11,0.47-2.04,1.41-2.81c0.94-0.77,2.13-1.15,3.59-1.15
			c1.53,0,2.77,0.4,3.73,1.19s1.43,1.8,1.43,3.03h-2.32c0-0.63-0.27-1.18-0.81-1.63c-0.54-0.46-1.21-0.69-2.03-0.69
			c-0.84,0-1.5,0.18-1.97,0.55s-0.71,0.84-0.71,1.44c0,0.56,0.22,0.98,0.66,1.26c0.44,0.28,1.24,0.55,2.39,0.81s2.09,0.57,2.8,0.92
			c0.72,0.36,1.25,0.79,1.59,1.29c0.34,0.5,0.52,1.12,0.52,1.84c0,1.21-0.48,2.17-1.45,2.9c-0.96,0.73-2.22,1.09-3.76,1.09
			c-1.08,0-2.04-0.19-2.87-0.57s-1.48-0.92-1.95-1.6c-0.47-0.69-0.71-1.43-0.71-2.23h2.31c0.04,0.77,0.35,1.39,0.93,1.84
			c0.58,0.45,1.34,0.68,2.29,0.68c0.87,0,1.57-0.18,2.1-0.53C836.96,90.63,837.22,90.16,837.22,89.57z"/>
	</g>
</g>
</svg>
