<?xml version="1.0" encoding="utf-8"?>
<!-- Generator: Adobe Illustrator 25.4.1, SVG Export Plug-In . SVG Version: 6.00 Build 0)  -->
<!DOCTYPE svg PUBLIC "-//W3C//DTD SVG 1.1//EN" "http://www.w3.org/Graphics/SVG/1.1/DTD/svg11.dtd" [
	<!ENTITY ns_extend "http://ns.adobe.com/Extensibility/1.0/">
	<!ENTITY ns_ai "http://ns.adobe.com/AdobeIllustrator/10.0/">
	<!ENTITY ns_graphs "http://ns.adobe.com/Graphs/1.0/">
	<!ENTITY ns_vars "http://ns.adobe.com/Variables/1.0/">
	<!ENTITY ns_imrep "http://ns.adobe.com/ImageReplacement/1.0/">
	<!ENTITY ns_sfw "http://ns.adobe.com/SaveForWeb/1.0/">
	<!ENTITY ns_custom "http://ns.adobe.com/GenericCustomNamespace/1.0/">
	<!ENTITY ns_adobe_xpath "http://ns.adobe.com/XPath/1.0/">
]>
<svg version="1.1" id="Capa_1" xmlns:x="&ns_extend;" xmlns:i="&ns_ai;" xmlns:graph="&ns_graphs;"
	 xmlns="http://www.w3.org/2000/svg" xmlns:xlink="http://www.w3.org/1999/xlink" x="0px" y="0px" viewBox="0 0 260.8 265.7"
	 style="enable-background:new 0 0 260.8 265.7;" xml:space="preserve">
<style type="text/css">
	.st0{fill:#5B5B5B;}
	.st1{fill:#2CA3E5;stroke:#2CA3E5;stroke-width:4;stroke-linecap:round;stroke-linejoin:round;stroke-miterlimit:10;}
</style>
<metadata>
	<sfw  xmlns="&ns_sfw;">
		<slices></slices>
		<sliceSourceBounds  bottomLeftOrigin="true" height="265.7" width="260.8" x="821.2" y="-673"></sliceSourceBounds>
	</sfw>
</metadata>
<g>
	<g>
		<g>
			<g>
				<path class="st0" d="M127.8,0c26,0,48.4,5,69.3,16c22.6,11.9,40.6,28.5,52.4,51.4c8.5,16.5,12.2,34.1,11,52.6
					c-0.8,13.2-4.2,25.9-10.1,37.8c-13.8,27.6-35.7,46.4-63.9,58.3c-2,0.9-2.7,1.6-2.3,4c2.1,12.2,3.8,24.5,5.7,36.7
					c0.5,3.3-0.6,5.8-3.3,7.6c-3,2-5.9,1.5-8.7-0.5c-5-3.7-10-7.3-15-11c-10.7-7.8-21.4-15.6-32-23.6c-2.6-2-5.4-2.2-8.3-2.3
					c-29-1.5-55.4-10.4-78.5-28.1C23.4,182.9,9,162.5,2.7,136.7c-2.8-11.7-3.4-23.5-1.9-35.5c3.4-26,15.4-47.4,34.3-65.2
					C53.6,18.8,75.5,8.2,100.1,3.1c4.9-1,9.9-1.9,15-2.4C120.1,0.2,125.1,0.1,127.8,0z M172.6,241.7c-1.2-8.4-2.3-16.3-3.6-24.1
					c-1-6.3,1.5-11,7.5-13.4c2.4-0.9,4.7-1.8,7-2.9c21-9.5,38.3-23.4,50.1-43.5c11.4-19.3,15.1-40,10.4-62
					c-5-23.3-17.9-41.5-36.5-55.8c-18.4-14.1-39.4-22-62.3-24.5c-13.7-1.5-27.4-1-41,1.8c-26.6,5.5-49.4,17.5-67.3,38.2
					C23.6,71,16,88.9,14.8,109.4c-0.8,14.8,2.2,28.9,8.8,42.2c12.7,25.4,33.3,42,59.3,52.2c13.7,5.4,28,8.2,42.7,8.5
					c4.4,0.1,8.5,1.1,12.2,3.9c6.4,4.8,12.8,9.4,19.1,14.1C162.1,234,167.2,237.7,172.6,241.7z"/>
			</g>
		</g>
	</g>
	<g>
		<path class="st1" d="M57.7,59.7h30.9v10.1H69.9v35.4h17.7v10.1H69.9V153h19v10.1H57.7V59.7z"/>
		<path class="st1" d="M134.9,59.7h10.8v103.4h-8.9l-23.2-71l0.7,26.1v44.9H103V59.7h9.2l24,70.4l-1.2-29.9V59.7z"/>
		<path class="st1" d="M161.4,89c0-15.2,3.6-24.6,10.8-28.3c2.8-1.4,5.9-2.1,9.3-2.2c6.3,0,10.9,1.3,13.7,4
			c2.8,2.7,4.6,6.2,5.5,10.6c0.8,4.4,1.2,9.8,1.2,16.1v8h-11.8V83.7c0-5.3-0.5-9.1-1.6-11.3c-1.1-2.3-3.2-3.4-6.3-3.4
			s-5.4,1.4-6.7,4.3c-1.3,2.9-1.9,7.9-1.9,15.2v43.5c0,8.3,0.6,14,1.7,17.2c1.1,3.2,3.4,4.8,6.7,4.8c3.3,0,5.6-1.7,6.9-5
			c1.2-3.3,1.9-9.1,1.9-17.3v-13.5h-8.4v-9.4h19.6v54.3h-6.4l-1.6-8c-2.3,6-6.7,9-13.2,9s-11.4-2.5-14.5-7.6
			c-3.1-5.1-4.7-13.1-4.7-24.2V89z"/>
	</g>
</g>
</svg>
