<?xml version="1.0" encoding="utf-8"?>
<!-- Generator: Adobe Illustrator 25.4.1, SVG Export Plug-In . SVG Version: 6.00 Build 0)  -->
<!DOCTYPE svg PUBLIC "-//W3C//DTD SVG 1.1//EN" "http://www.w3.org/Graphics/SVG/1.1/DTD/svg11.dtd" [
	<!ENTITY ns_extend "http://ns.adobe.com/Extensibility/1.0/">
	<!ENTITY ns_ai "http://ns.adobe.com/AdobeIllustrator/10.0/">
	<!ENTITY ns_graphs "http://ns.adobe.com/Graphs/1.0/">
	<!ENTITY ns_vars "http://ns.adobe.com/Variables/1.0/">
	<!ENTITY ns_imrep "http://ns.adobe.com/ImageReplacement/1.0/">
	<!ENTITY ns_sfw "http://ns.adobe.com/SaveForWeb/1.0/">
	<!ENTITY ns_custom "http://ns.adobe.com/GenericCustomNamespace/1.0/">
	<!ENTITY ns_adobe_xpath "http://ns.adobe.com/XPath/1.0/">
]>
<svg version="1.1" id="Capa_1" xmlns:x="&ns_extend;" xmlns:i="&ns_ai;" xmlns:graph="&ns_graphs;"
	 xmlns="http://www.w3.org/2000/svg" xmlns:xlink="http://www.w3.org/1999/xlink" x="0px" y="0px" viewBox="0 0 260.8 265.7"
	 style="enable-background:new 0 0 260.8 265.7;" xml:space="preserve">
<style type="text/css">
	.st0{fill:#5B5B5B;}
	.st1{fill:#2CA3E5;stroke:#2CA3E5;stroke-width:4;stroke-linecap:round;stroke-linejoin:round;stroke-miterlimit:10;}
</style>
<metadata>
	<sfw  xmlns="&ns_sfw;">
		<slices></slices>
		<sliceSourceBounds  bottomLeftOrigin="true" height="265.7" width="260.1" x="0.7" y="0"></sliceSourceBounds>
	</sfw>
</metadata>
<g>
	<g>
		<path class="st0" d="M128.2,0c25.9,0,48.3,5,69.1,16c22.5,11.9,40.5,28.5,52.3,51.4c8.5,16.5,12.2,34.1,11,52.6
			c-0.8,13.2-4.2,25.9-10.1,37.8c-13.8,27.6-35.6,46.4-63.7,58.3c-2,0.9-2.7,1.6-2.3,4c2.1,12.2,3.8,24.5,5.7,36.7
			c0.5,3.3-0.6,5.8-3.3,7.6c-3,2-5.9,1.5-8.7-0.5c-5-3.7-10-7.3-15-11c-10.7-7.8-21.3-15.6-31.9-23.6c-2.6-2-5.4-2.2-8.3-2.3
			c-28.9-1.5-55.3-10.4-78.3-28.1C23.8,183,9.5,162.5,3.3,136.7C0.6,125,0,113.2,1.5,101.2c3.4-26,15.4-47.4,34.2-65.2
			C54.2,18.8,76,8.2,100.6,3.1c4.9-1,9.9-1.9,15-2.4C120.5,0.2,125.5,0.1,128.2,0z M172.9,241.7c-1.2-8.4-2.3-16.3-3.6-24.1
			c-1-6.3,1.5-11,7.5-13.4c2.4-0.9,4.7-1.8,7-2.9c21-9.5,38.2-23.4,50-43.5c11.4-19.3,15.1-40,10.4-62c-5-23.3-17.9-41.5-36.4-55.8
			c-18.4-14.1-39.3-22-62.2-24.5c-13.7-1.5-27.3-1-40.9,1.8c-26.5,5.5-49.3,17.5-67.1,38.2c-13.3,15.5-20.9,33.4-22,53.9
			c-0.8,14.8,2.2,28.9,8.8,42.2c12.7,25.4,33.2,42,59.2,52.2c13.7,5.4,27.9,8.2,42.6,8.5c4.4,0.1,8.5,1.1,12.2,3.9
			c6.4,4.8,12.8,9.4,19.1,14.1C162.4,234,167.5,237.7,172.9,241.7z"/>
	</g>
</g>
<g>
	<g>
		<path class="st1" d="M67.4,59.7h30.9v10.1H79.6v35.4h17.7v10.1H79.6V153h19v10.1H67.4V59.7z"/>
		<path class="st1" d="M111.5,91.7c-0.7-2.5-1.1-5.4-1.1-8.9c0-7.5,1.4-13.4,4.1-17.8c2.8-4.4,8-6.6,15.8-6.6
			c10,0,15.9,4.8,17.7,14.5c0.8,4.2,1.2,9.4,1.2,15.7v6.1h-11.6v-6.9c0-6.6-0.3-11-1-13.3s-1.5-3.8-2.5-4.5s-2.3-1.1-3.8-1.1
			c-2.9,0-5.1,1.1-6.3,3.2c-1.3,2.2-1.9,5.3-1.9,9.6s0.6,7.3,1.8,9.3c1.2,2,2.6,3.8,4.3,5.6c1.7,1.8,2.7,2.8,2.9,3l7.1,7.5
			c8.5,8.9,12.7,18.8,12.7,29.7c0,8.9-1.4,15.8-4.1,20.5c-2.8,4.7-8,7.1-15.8,7.1c-9.4,0-15.3-4.1-17.8-12.3
			c-1.4-4.6-2.2-10.7-2.2-18.2c0-0.2,0-0.4,0-0.6v-10h11.8v10.5c0,7.6,0.5,12.8,1.6,15.8s3.1,4.4,6.1,4.4s5-0.7,6.2-2.1
			c1.1-1.4,1.8-3.5,2-6.4s0.3-6.1,0.3-9.6c0-7.2-3.2-13.9-9.5-20.2l-6.8-6.8C116.7,102.6,113,96.9,111.5,91.7z"/>
		<path class="st1" d="M163.9,59.7h20.8c9.2,0,14.9,3.8,17.3,11.4c1.5,4.8,2.2,10.4,2.2,16.7c0,6.4-0.2,11.2-0.5,14.4
			c-0.8,7.1-2.6,12.2-5.6,15.4c-2.9,3.2-7.4,4.8-13.4,4.8h-8.6V163h-12.2V59.7z M192.1,88.9c0-7.1-0.6-12.1-1.7-15.1
			c-1.1-3-3.3-4.5-6.6-4.5h-7.7v43.1h7.4c3.4,0,5.7-1.5,6.9-4.5c1.1-3,1.7-8.7,1.7-17L192.1,88.9L192.1,88.9z"/>
	</g>
</g>
</svg>
