<?xml version="1.0" encoding="utf-8"?>
<!-- Generator: Adobe Illustrator 25.4.1, SVG Export Plug-In . SVG Version: 6.00 Build 0)  -->
<!DOCTYPE svg PUBLIC "-//W3C//DTD SVG 1.1//EN" "http://www.w3.org/Graphics/SVG/1.1/DTD/svg11.dtd" [
	<!ENTITY ns_extend "http://ns.adobe.com/Extensibility/1.0/">
	<!ENTITY ns_ai "http://ns.adobe.com/AdobeIllustrator/10.0/">
	<!ENTITY ns_graphs "http://ns.adobe.com/Graphs/1.0/">
	<!ENTITY ns_vars "http://ns.adobe.com/Variables/1.0/">
	<!ENTITY ns_imrep "http://ns.adobe.com/ImageReplacement/1.0/">
	<!ENTITY ns_sfw "http://ns.adobe.com/SaveForWeb/1.0/">
	<!ENTITY ns_custom "http://ns.adobe.com/GenericCustomNamespace/1.0/">
	<!ENTITY ns_adobe_xpath "http://ns.adobe.com/XPath/1.0/">
]>
<svg version="1.1" id="Capa_1" xmlns:x="&ns_extend;" xmlns:i="&ns_ai;" xmlns:graph="&ns_graphs;"
	 xmlns="http://www.w3.org/2000/svg" xmlns:xlink="http://www.w3.org/1999/xlink" x="0px" y="0px" viewBox="0 0 260.8 265.7"
	 style="enable-background:new 0 0 260.8 265.7;" xml:space="preserve">
<style type="text/css">
	.st0{fill:#5B5B5B;}
	.st1{fill:#2CA3E5;stroke:#2CA3E5;stroke-width:4;stroke-linecap:round;stroke-linejoin:round;stroke-miterlimit:10;}
</style>
<metadata>
	<sfw  xmlns="&ns_sfw;">
		<slices></slices>
		<sliceSourceBounds  bottomLeftOrigin="true" height="265.7" width="260.8" x="821.5" y="-673"></sliceSourceBounds>
	</sfw>
</metadata>
<g>
	<g>
		<path class="st0" d="M128,0c26,0,48.4,5,69.3,16C220,27.9,238,44.5,249.8,67.5c8.5,16.5,12.2,34.1,11,52.6
			c-0.8,13.2-4.2,25.9-10.1,37.8c-13.8,27.6-35.7,46.4-63.9,58.3c-2,0.9-2.7,1.6-2.3,4c2.1,12.2,3.8,24.5,5.7,36.7
			c0.5,3.3-0.6,5.8-3.3,7.6c-3,2-5.9,1.5-8.7-0.5c-5-3.7-10-7.3-15-11c-10.7-7.8-21.4-15.6-32-23.6c-2.6-2-5.4-2.2-8.3-2.3
			c-29-1.5-55.4-10.4-78.5-28.1C23.6,182.9,9.2,162.5,3,136.7c-2.8-11.7-3.4-23.5-1.9-35.5c3.4-26,15.4-47.4,34.3-65.2
			C53.8,18.8,75.7,8.2,100.3,3.1c4.9-1,9.9-1.9,15-2.4C120.3,0.2,125.4,0.1,128,0z M172.8,241.7c-1.2-8.4-2.3-16.3-3.6-24.1
			c-1-6.3,1.5-11,7.5-13.4c2.4-0.9,4.7-1.8,7-2.9c21-9.5,38.3-23.4,50.1-43.5c11.4-19.3,15.1-40,10.4-62
			c-5-23.3-17.9-41.5-36.5-55.8c-18.4-14.1-39.4-22-62.3-24.5c-13.7-1.5-27.4-1-41,1.8C77.9,22.8,55,34.8,37.1,55.5
			C23.8,71,16.2,88.9,15.1,109.4c-0.8,14.8,2.2,28.9,8.8,42.2c12.7,25.4,33.3,42,59.3,52.2c13.7,5.4,28,8.2,42.7,8.5
			c4.4,0.1,8.5,1.1,12.2,3.9c6.4,4.8,12.8,9.4,19.1,14.1C162.3,234,167.4,237.7,172.8,241.7z"/>
	</g>
</g>
<g>
	<g>
		<path class="st1" d="M56.9,59.7h20.8c9.2,0,14.9,3.8,17.3,11.4c1.5,4.8,2.2,10.4,2.2,16.7c0,6.4-0.2,11.2-0.5,14.4
			c-0.8,7.1-2.6,12.2-5.6,15.4c-2.9,3.2-7.4,4.8-13.4,4.8h-8.6v40.6H56.9V59.7z M85.1,88.9c0-7.1-0.6-12.1-1.7-15.1
			c-1.1-3-3.3-4.5-6.6-4.5h-7.7v43.1h7.4c3.4,0,5.7-1.5,6.9-4.5c1.1-3,1.7-8.7,1.7-17V88.9z"/>
		<path class="st1" d="M108.1,87.8c0-11.8,2.1-19.8,6.3-24.2c3.3-3.4,8.2-5.2,14.5-5.2c9.2,0,15.2,3.8,17.7,11.4
			c1.5,4.5,2.3,10.5,2.3,18v45.6c0,10.8-1.5,18.6-4.5,23.5c-3,4.9-8.3,7.4-15.8,7.4c-7.5,0-12.8-2.5-15.9-7.4
			c-3.1-4.9-4.6-12.8-4.6-23.5V87.8z M136.8,87.1c0-6.6-0.5-11.3-1.6-14.1c-1.1-2.8-3.2-4.1-6.4-4.1c-3.2,0-5.4,1.4-6.7,4.2
			c-1.3,2.8-1.9,7.5-1.9,13.9v46.5c0,7.9,0.5,13.2,1.6,16.1c1.1,2.8,3.3,4.3,6.6,4.3c3.3,0,5.5-1.4,6.6-4.3c1.1-2.9,1.6-8.2,1.6-16
			V87.1z"/>
		<path class="st1" d="M164.7,59.7h21.7c6.1,0,10.6,1.3,13.3,3.8c2.7,2.5,4.3,6.9,4.9,13c0.2,2.5,0.4,6.4,0.4,11.7
			c0,5.3-0.7,9.8-2.1,13.4c-1.4,3.6-3.8,5.9-7.4,7c2.6,0.4,4.5,1.8,5.9,4.1c1.3,2.3,2.3,5.9,2.8,10.9c0.5,5,0.8,12.4,0.8,22.3
			s0.3,15.6,0.9,17.2h-12.1c-0.6-1.3-0.9-12.9-0.9-34.8c0-7.4-0.7-11.7-2.2-12.9c-1.4-1.2-3.6-1.8-6.6-1.8l-7.2-0.4v49.9h-12.2V59.7
			z M192.8,85c0-8-0.7-12.6-2.1-13.8c-1.4-1.3-3.5-1.9-6.2-1.9h-7.6v34.9h7.8c2.4,0,4.1-0.5,5.2-1.4c1.1-0.9,1.9-2.6,2.3-5.2
			c0.5-2.5,0.7-6.5,0.7-12V85z"/>
	</g>
</g>
</svg>
