<?xml version="1.0" encoding="utf-8"?>
<!-- Generator: Adobe Illustrator 25.4.1, SVG Export Plug-In . SVG Version: 6.00 Build 0)  -->
<svg version="1.1" id="Capa_1" xmlns="http://www.w3.org/2000/svg" xmlns:xlink="http://www.w3.org/1999/xlink" x="0px" y="0px"
	 viewBox="0 0 600 200" style="enable-background:new 0 0 600 200;" xml:space="preserve">
<style type="text/css">
	.st0{fill:#00AFB9;}
	.st1{fill:#DC522A;}
	.st2{enable-background:new    ;}
	.st3{clip-path:url(#SVGID_00000023269285779965491790000004345246631538715008_);}
	.st4{fill:#75B8C8;}
	.st5{clip-path:url(#SVGID_00000084507953433992428700000012999150670468289920_);}
	.st6{opacity:0.4;}
	.st7{clip-path:url(#SVGID_00000022533512139850280310000007667942217919647365_);enable-background:new    ;}
	.st8{clip-path:url(#SVGID_00000063609920430595869920000014165067844050486962_);}
	.st9{clip-path:url(#SVGID_00000171683889392099948670000004331900959072941197_);}
	.st10{clip-path:url(#SVGID_00000134208957562235129910000002154298662486033589_);enable-background:new    ;}
	.st11{clip-path:url(#SVGID_00000078745749635815703380000011957345872100368791_);}
	.st12{clip-path:url(#SVGID_00000036212394554702315730000004636853611023479999_);}
	.st13{fill:#9B3B1F;}
	.st14{clip-path:url(#SVGID_00000127029394375729416270000016451824847248793786_);}
	.st15{fill:#D6D3EC;}
	.st16{clip-path:url(#SVGID_00000013154643946942271660000007336681365159266485_);enable-background:new    ;}
	.st17{fill:#C5C8EE;}
	.st18{clip-path:url(#SVGID_00000157989262246299227850000010976793285449926277_);}
	.st19{fill:#E6E6F0;}
	.st20{clip-path:url(#SVGID_00000048472631590402771320000000906705001895468706_);}
	.st21{clip-path:url(#SVGID_00000082349627922944997500000010424087941351582612_);enable-background:new    ;}
</style>
<g>
	<path class="st0" d="M60.79,48.76h-3.64v13.27h-7.33V25.7h11.7c3.68,0,6.52,0.95,8.52,2.86c2,1.9,3.01,4.61,3.01,8.12
		c0,4.82-1.75,8.2-5.26,10.13l6.36,14.87v0.35h-7.88L60.79,48.76z M57.14,42.64h4.17c1.46,0,2.56-0.49,3.29-1.46
		c0.73-0.97,1.1-2.27,1.1-3.9c0-3.64-1.42-5.46-4.27-5.46h-4.29V42.64z"/>
	<path class="st0" d="M96.84,46.31H85.41v9.63h13.52v6.09H78.08V25.7h20.81v6.11H85.41v8.58h11.43V46.31z"/>
	<path class="st0" d="M120.49,54.59h-10l-1.95,7.43h-7.76l11.35-36.33h6.71l11.43,36.33h-7.83L120.49,54.59z M112.08,48.48h6.79
		l-3.39-12.95L112.08,48.48z"/>
	<path class="st0" d="M141,55.94h12.87v6.09h-20.21V25.7H141V55.94z"/>
	<path class="st0" d="M165.78,62.03h-7.33V25.7h7.33V62.03z"/>
	<path class="st0" d="M171.94,62.03V25.7h9.61c4.24,0,7.62,1.35,10.14,4.04c2.52,2.69,3.8,6.39,3.85,11.08v5.89
		c0,4.77-1.26,8.52-3.78,11.24c-2.52,2.72-5.99,4.08-10.42,4.08H171.94z M179.27,31.82v24.13h2.2c2.45,0,4.17-0.64,5.17-1.93
		c1-1.29,1.52-3.51,1.57-6.67v-6.31c0-3.39-0.47-5.76-1.42-7.1s-2.56-2.04-4.84-2.11H179.27z"/>
	<path class="st0" d="M217.62,54.59h-10l-1.95,7.43h-7.76l11.35-36.33h6.71l11.43,36.33h-7.83L217.62,54.59z M209.21,48.48H216
		l-3.39-12.95L209.21,48.48z"/>
	<path class="st0" d="M230.79,62.03V25.7h9.61c4.24,0,7.62,1.35,10.14,4.04c2.52,2.69,3.8,6.39,3.85,11.08v5.89
		c0,4.77-1.26,8.52-3.78,11.24c-2.52,2.72-5.99,4.08-10.42,4.08H230.79z M238.13,31.82v24.13h2.2c2.45,0,4.17-0.64,5.17-1.93
		c1-1.29,1.52-3.51,1.57-6.67v-6.31c0-3.39-0.47-5.76-1.42-7.1s-2.56-2.04-4.84-2.11H238.13z"/>
	<path class="st0" d="M44.06,102.88h-10l-1.95,7.43h-7.76L35.7,73.98h6.71l11.43,36.33H46L44.06,102.88z M35.65,96.76h6.79
		l-3.39-12.95L35.65,96.76z"/>
	<path class="st0" d="M80.44,73.98v25.15c-0.03,3.78-1.07,6.67-3.12,8.67c-2.05,2-4.98,3.01-8.81,3.01c-3.89,0-6.87-1.01-8.92-3.04
		c-2.05-2.03-3.08-4.96-3.08-8.81V73.98h7.38v25c0,2.06,0.33,3.53,1,4.42s1.87,1.32,3.62,1.32c1.75,0,2.94-0.44,3.59-1.31
		c0.65-0.87,0.98-2.31,1-4.3V73.98H80.44z"/>
	<path class="st0" d="M95.58,73.98l6.86,26.27l6.84-26.27h9.58v36.33h-7.36v-9.83l0.67-15.14l-7.26,24.97h-4.99l-7.26-24.97
		l0.67,15.14v9.83H86V73.98H95.58z"/>
	<path class="st0" d="M143.51,94.59h-11.43v9.63h13.52v6.09h-20.86V73.98h20.81v6.11h-13.47v8.58h11.43V94.59z"/>
	<path class="st0" d="M175.22,110.31h-7.33l-10.73-23.83v23.83h-7.34V73.98h7.34l10.75,23.85V73.98h7.31V110.31z"/>
	<path class="st0" d="M203.91,80.1h-8.98v30.21h-7.36V80.1h-8.83v-6.11h25.17V80.1z"/>
	<path class="st0" d="M222.47,102.88h-10l-1.95,7.43h-7.76l11.35-36.33h6.71l11.43,36.33h-7.83L222.47,102.88z M214.07,96.76h6.79
		l-3.39-12.95L214.07,96.76z"/>
	<path class="st0" d="M235.65,110.31V73.98h9.61c4.24,0,7.62,1.35,10.14,4.04c2.52,2.69,3.8,6.39,3.85,11.08v5.89
		c0,4.77-1.26,8.52-3.78,11.24c-2.52,2.72-5.99,4.08-10.42,4.08H235.65z M242.98,80.1v24.13h2.2c2.45,0,4.17-0.64,5.17-1.93
		s1.52-3.51,1.57-6.67V89.3c0-3.39-0.47-5.76-1.42-7.1c-0.95-1.34-2.56-2.04-4.84-2.11H242.98z"/>
	<path class="st0" d="M281.33,102.88h-10l-1.95,7.43h-7.76l11.35-36.33h6.71l11.43,36.33h-7.83L281.33,102.88z M272.92,96.76h6.79
		l-3.39-12.95L272.92,96.76z"/>
	<path d="M44.09,145.31h-5.01v-10.42h-9.77v10.42H24.3V121h5.01v9.85h9.77V121h5.01V145.31z"/>
	<path d="M64.46,134.78h-9.62v6.51h11.29v4.02h-16.3V121H66.1v4.06H54.84v5.79h9.62V134.78z"/>
	<path d="M79.44,136.41h-3.99v8.9h-5.01V121h9.03c2.87,0,5.09,0.64,6.65,1.92s2.34,3.09,2.34,5.43c0,1.66-0.36,3.04-1.08,4.15
		c-0.72,1.11-1.81,1.99-3.26,2.65l5.26,9.94v0.23H84L79.44,136.41z M75.45,132.36h4.04c1.26,0,2.23-0.32,2.92-0.96
		c0.69-0.64,1.04-1.52,1.04-2.65c0-1.15-0.33-2.05-0.98-2.71c-0.65-0.66-1.65-0.99-3-0.99h-4.02V132.36z"/>
	<path d="M102.63,136.41h-3.99v8.9h-5.01V121h9.03c2.87,0,5.09,0.64,6.65,1.92s2.34,3.09,2.34,5.43c0,1.66-0.36,3.04-1.08,4.15
		c-0.72,1.11-1.81,1.99-3.26,2.65l5.26,9.94v0.23h-5.38L102.63,136.41z M98.64,132.36h4.04c1.26,0,2.23-0.32,2.92-0.96
		c0.69-0.64,1.04-1.52,1.04-2.65c0-1.15-0.33-2.05-0.98-2.71c-0.65-0.66-1.65-0.99-3-0.99h-4.02V132.36z"/>
	<path d="M130.55,140.3h-8.78l-1.67,5.01h-5.33l9.05-24.31h4.64l9.1,24.31h-5.33L130.55,140.3z M123.12,136.25h6.08l-3.06-9.1
		L123.12,136.25z"/>
	<path d="M147.75,121l6.25,17.63l6.21-17.63h6.58v24.31h-5.03v-6.65l0.5-11.47l-6.56,18.12h-3.44l-6.55-18.1l0.5,11.46v6.65h-5.01
		V121H147.75z"/>
	<path d="M177.86,145.31h-5.01V121h5.01V145.31z"/>
	<path d="M198.49,134.78h-9.62v6.51h11.29v4.02h-16.3V121h16.26v4.06h-11.25v5.79h9.62V134.78z"/>
	<path d="M224.24,145.31h-5.01l-9.75-16v16h-5.01V121h5.01l9.77,16.03V121h4.99V145.31z"/>
	<path d="M247.8,125.06h-7.45v20.26h-5.01v-20.26H228V121h19.8V125.06z"/>
	<path d="M263.75,140.3h-8.78l-1.67,5.01h-5.33l9.05-24.31h4.64l9.1,24.31h-5.33L263.75,140.3z M256.32,136.25h6.08l-3.06-9.1
		L256.32,136.25z"/>
	<path d="M287.01,138.93c0-0.95-0.33-1.67-1-2.18c-0.67-0.51-1.87-1.04-3.61-1.6c-1.74-0.56-3.11-1.12-4.12-1.66
		c-2.76-1.49-4.14-3.5-4.14-6.03c0-1.31,0.37-2.49,1.11-3.52c0.74-1.03,1.8-1.83,3.19-2.41c1.39-0.58,2.94-0.87,4.67-0.87
		c1.74,0,3.28,0.31,4.64,0.94c1.36,0.63,2.41,1.52,3.16,2.66s1.13,2.45,1.13,3.91h-5.01c0-1.11-0.35-1.98-1.05-2.6
		s-1.69-0.93-2.96-0.93c-1.22,0-2.18,0.26-2.86,0.78c-0.68,0.52-1.02,1.2-1.02,2.05c0,0.79,0.4,1.45,1.19,1.99
		c0.8,0.53,1.97,1.04,3.51,1.5c2.85,0.86,4.93,1.92,6.23,3.19c1.3,1.27,1.95,2.85,1.95,4.74c0,2.1-0.8,3.75-2.39,4.95
		s-3.74,1.79-6.43,1.79c-1.87,0-3.57-0.34-5.11-1.03s-2.71-1.62-3.51-2.81c-0.81-1.19-1.21-2.57-1.21-4.14h5.03
		c0,2.68,1.6,4.02,4.81,4.02c1.19,0,2.12-0.24,2.79-0.73C286.67,140.48,287.01,139.8,287.01,138.93z"/>
	<path class="st1" d="M25.81,162.5v4.54h-2.65v-12.87h5.02c0.97,0,1.82,0.18,2.55,0.53c0.73,0.35,1.3,0.86,1.69,1.51
		c0.4,0.65,0.59,1.39,0.59,2.22c0,1.26-0.43,2.26-1.29,2.98c-0.86,0.73-2.06,1.09-3.58,1.09H25.81z M25.81,160.36h2.37
		c0.7,0,1.24-0.17,1.6-0.5s0.55-0.8,0.55-1.41c0-0.63-0.19-1.14-0.56-1.53c-0.37-0.39-0.88-0.59-1.54-0.6h-2.43V160.36z"/>
	<path class="st1" d="M42.34,164.39h-4.65l-0.88,2.65h-2.82l4.79-12.87h2.46l4.82,12.87h-2.82L42.34,164.39z M38.41,162.24h3.22
		l-1.62-4.82L38.41,162.24z"/>
	<path class="st1" d="M53.83,162.33h-2.11v4.71h-2.65v-12.87h4.78c1.52,0,2.69,0.34,3.52,1.02s1.24,1.64,1.24,2.87
		c0,0.88-0.19,1.61-0.57,2.2c-0.38,0.59-0.96,1.05-1.73,1.4l2.78,5.26v0.12h-2.85L53.83,162.33z M51.72,160.18h2.14
		c0.67,0,1.18-0.17,1.55-0.51s0.55-0.81,0.55-1.4c0-0.61-0.17-1.08-0.52-1.43s-0.87-0.52-1.59-0.52h-2.13V160.18z"/>
	<path class="st1" d="M69.7,164.39h-4.65l-0.88,2.65h-2.82l4.79-12.87h2.46l4.82,12.87h-2.82L69.7,164.39z M65.76,162.24h3.22
		l-1.62-4.82L65.76,162.24z"/>
	<path class="st1" d="M92.85,162.75c-0.1,1.39-0.61,2.48-1.53,3.27c-0.92,0.8-2.14,1.19-3.65,1.19c-1.65,0-2.95-0.56-3.89-1.67
		c-0.95-1.11-1.42-2.64-1.42-4.58v-0.79c0-1.24,0.22-2.33,0.65-3.27c0.44-0.94,1.06-1.67,1.87-2.17s1.75-0.76,2.83-0.76
		c1.48,0,2.68,0.4,3.59,1.19c0.91,0.8,1.43,1.91,1.57,3.35h-2.65c-0.07-0.83-0.3-1.43-0.69-1.81s-1-0.56-1.82-0.56
		c-0.88,0-1.55,0.32-1.99,0.95c-0.44,0.63-0.66,1.62-0.68,2.95v0.97c0,1.39,0.21,2.41,0.63,3.05c0.42,0.64,1.09,0.96,1.99,0.96
		c0.82,0,1.43-0.19,1.83-0.56c0.4-0.37,0.63-0.95,0.69-1.74H92.85z"/>
	<path class="st1" d="M101.17,162.33h-2.11v4.71H96.4v-12.87h4.78c1.52,0,2.69,0.34,3.52,1.02s1.24,1.64,1.24,2.87
		c0,0.88-0.19,1.61-0.57,2.2c-0.38,0.59-0.96,1.05-1.73,1.4l2.78,5.26v0.12h-2.85L101.17,162.33z M99.05,160.18h2.14
		c0.67,0,1.18-0.17,1.55-0.51s0.55-0.81,0.55-1.4c0-0.61-0.17-1.08-0.52-1.43s-0.87-0.52-1.59-0.52h-2.13V160.18z"/>
	<path class="st1" d="M117.51,161.46h-5.09v3.45h5.98v2.13h-8.63v-12.87h8.61v2.15h-5.96v3.07h5.09V161.46z"/>
	<path class="st1" d="M129.03,164.39h-4.65l-0.88,2.65h-2.82l4.79-12.87h2.46l4.82,12.87h-2.82L129.03,164.39z M125.09,162.24h3.22
		l-1.62-4.82L125.09,162.24z"/>
	<path class="st1" d="M140.52,162.33h-2.11v4.71h-2.65v-12.87h4.78c1.52,0,2.69,0.34,3.52,1.02s1.24,1.64,1.24,2.87
		c0,0.88-0.19,1.61-0.57,2.2c-0.38,0.59-0.96,1.05-1.73,1.4l2.78,5.26v0.12h-2.85L140.52,162.33z M138.41,160.18h2.14
		c0.67,0,1.18-0.17,1.55-0.51s0.55-0.81,0.55-1.4c0-0.61-0.17-1.08-0.52-1.43s-0.87-0.52-1.59-0.52h-2.13V160.18z"/>
	<path class="st1" d="M165.18,154.17v8.48c0,1.41-0.44,2.52-1.32,3.34c-0.88,0.82-2.08,1.23-3.61,1.23c-1.5,0-2.7-0.4-3.58-1.19
		c-0.88-0.8-1.33-1.89-1.35-3.28v-8.58h2.65v8.5c0,0.84,0.2,1.46,0.61,1.84c0.4,0.39,0.96,0.58,1.68,0.58
		c1.49,0,2.25-0.78,2.27-2.35v-8.57H165.18z"/>
	<path class="st1" d="M179.63,167.04h-2.65l-5.16-8.47v8.47h-2.65v-12.87h2.65l5.17,8.49v-8.49h2.64V167.04z"/>
	<path class="st1" d="M192.73,162.5v4.54h-2.65v-12.87h5.02c0.97,0,1.82,0.18,2.55,0.53c0.73,0.35,1.3,0.86,1.69,1.51
		c0.4,0.65,0.59,1.39,0.59,2.22c0,1.26-0.43,2.26-1.29,2.98c-0.86,0.73-2.06,1.09-3.58,1.09H192.73z M192.73,160.36h2.37
		c0.7,0,1.24-0.17,1.6-0.5s0.55-0.8,0.55-1.41c0-0.63-0.19-1.14-0.56-1.53c-0.37-0.39-0.88-0.59-1.54-0.6h-2.43V160.36z"/>
	<path class="st1" d="M208.33,162.33h-2.11v4.71h-2.65v-12.87h4.78c1.52,0,2.69,0.34,3.52,1.02s1.24,1.64,1.24,2.87
		c0,0.88-0.19,1.61-0.57,2.2c-0.38,0.59-0.96,1.05-1.73,1.4l2.78,5.26v0.12h-2.85L208.33,162.33z M206.22,160.18h2.14
		c0.67,0,1.18-0.17,1.55-0.51s0.55-0.81,0.55-1.4c0-0.61-0.17-1.08-0.52-1.43s-0.87-0.52-1.59-0.52h-2.13V160.18z"/>
	<path class="st1" d="M227.5,160.9c0,1.27-0.22,2.38-0.67,3.33c-0.45,0.96-1.09,1.69-1.92,2.21c-0.83,0.52-1.79,0.78-2.87,0.78
		c-1.07,0-2.02-0.26-2.86-0.77c-0.84-0.51-1.49-1.24-1.95-2.2s-0.69-2.05-0.7-3.28v-0.64c0-1.27,0.23-2.38,0.68-3.35
		c0.46-0.96,1.1-1.7,1.94-2.22c0.83-0.52,1.79-0.77,2.86-0.77c1.07,0,2.03,0.26,2.86,0.77c0.83,0.52,1.48,1.26,1.94,2.22
		c0.46,0.96,0.69,2.08,0.69,3.34V160.9z M224.82,160.31c0-1.35-0.24-2.38-0.72-3.08c-0.48-0.7-1.17-1.05-2.07-1.05
		c-0.89,0-1.58,0.35-2.06,1.04s-0.73,1.71-0.73,3.05v0.63c0,1.31,0.24,2.33,0.72,3.06c0.48,0.72,1.18,1.09,2.09,1.09
		c0.89,0,1.57-0.35,2.05-1.05c0.48-0.7,0.72-1.72,0.72-3.05V160.31z"/>
	<path class="st1" d="M235.3,159.97l2.68-5.8h2.9l-4.23,8.2v4.67h-2.7v-4.67l-4.23-8.2h2.91L235.3,159.97z"/>
	<path class="st1" d="M251.61,161.46h-5.09v3.45h5.98v2.13h-8.63v-12.87h8.61v2.15h-5.96v3.07h5.09V161.46z"/>
	<path class="st1" d="M265.96,162.75c-0.1,1.39-0.61,2.48-1.53,3.27c-0.92,0.8-2.14,1.19-3.65,1.19c-1.65,0-2.95-0.56-3.89-1.67
		c-0.95-1.11-1.42-2.64-1.42-4.58v-0.79c0-1.24,0.22-2.33,0.65-3.27c0.44-0.94,1.06-1.67,1.87-2.17s1.75-0.76,2.82-0.76
		c1.49,0,2.68,0.4,3.59,1.19c0.91,0.8,1.43,1.91,1.57,3.35h-2.65c-0.06-0.83-0.3-1.43-0.69-1.81c-0.4-0.37-1-0.56-1.82-0.56
		c-0.88,0-1.55,0.32-1.98,0.95c-0.44,0.63-0.67,1.62-0.68,2.95v0.97c0,1.39,0.21,2.41,0.63,3.05c0.42,0.64,1.08,0.96,1.99,0.96
		c0.82,0,1.43-0.19,1.83-0.56c0.4-0.37,0.64-0.95,0.69-1.74H265.96z"/>
	<path class="st1" d="M278.95,156.32h-3.94v10.72h-2.65v-10.72h-3.89v-2.15h10.48V156.32z"/>
	<path class="st1" d="M292.6,160.9c0,1.27-0.22,2.38-0.67,3.33c-0.45,0.96-1.09,1.69-1.92,2.21c-0.83,0.52-1.79,0.78-2.87,0.78
		c-1.07,0-2.02-0.26-2.86-0.77c-0.84-0.51-1.49-1.24-1.95-2.2s-0.69-2.05-0.7-3.28v-0.64c0-1.27,0.23-2.38,0.68-3.35
		c0.46-0.96,1.1-1.7,1.94-2.22c0.83-0.52,1.79-0.77,2.86-0.77c1.07,0,2.03,0.26,2.86,0.77c0.83,0.52,1.48,1.26,1.94,2.22
		c0.46,0.96,0.69,2.08,0.69,3.34V160.9z M289.91,160.31c0-1.35-0.24-2.38-0.72-3.08c-0.48-0.7-1.17-1.05-2.07-1.05
		c-0.89,0-1.58,0.35-2.06,1.04s-0.73,1.71-0.73,3.05v0.63c0,1.31,0.24,2.33,0.72,3.06c0.48,0.72,1.18,1.09,2.09,1.09
		c0.89,0,1.57-0.35,2.05-1.05c0.48-0.7,0.72-1.72,0.72-3.05V160.31z"/>
</g>
<g>
	<g>
		<g class="st2">
			<g>
				<defs>
					<path id="SVGID_1_" d="M429.05,57.22l-0.07,20.23c0.03-8.92,5.97-17.81,17.8-24.54c23.51-13.38,61.34-13.14,84.52,0.53
						c11.52,6.79,17.25,15.62,17.22,24.42l0.07-20.22c0.03-8.8-5.7-17.63-17.22-24.42c-23.18-13.66-61.01-13.9-84.52-0.53
						C435.02,39.42,429.08,48.31,429.05,57.22z"/>
				</defs>
				<use xlink:href="#SVGID_1_"  style="overflow:visible;fill:#75B8C8;"/>
				<clipPath id="SVGID_00000059997117282420875390000009931478921581317026_">
					<use xlink:href="#SVGID_1_"  style="overflow:visible;"/>
				</clipPath>
				<g style="clip-path:url(#SVGID_00000059997117282420875390000009931478921581317026_);">
					<g>
						<path class="st4" d="M429.05,57.22l-0.07,20.23c0.03-8.92,5.97-17.81,17.8-24.54c23.51-13.38,61.34-13.14,84.52,0.53
							c11.52,6.79,17.25,15.62,17.22,24.42l0.07-20.22c0.03-8.8-5.7-17.63-17.22-24.42c-23.18-13.66-61.01-13.9-84.52-0.53
							C435.02,39.42,429.08,48.31,429.05,57.22z"/>
					</g>
				</g>
			</g>
			<g>
				<defs>
					<path id="SVGID_00000135676146958858202630000014512036263959985585_" d="M418.85,57.19L418.8,73.4
						c-0.04,10.31,6.67,20.64,20.15,28.58c27.14,16,71.44,16.28,98.95,0.63c13.85-7.88,20.8-18.29,20.84-28.73l0.04-16.21
						c-0.04,10.44-6.99,20.85-20.84,28.73c-27.51,15.66-71.81,15.37-98.95-0.63C425.52,77.83,418.81,67.49,418.85,57.19z"/>
				</defs>
				<use xlink:href="#SVGID_00000135676146958858202630000014512036263959985585_"  style="overflow:visible;fill:#75B8C8;"/>
				<clipPath id="SVGID_00000018204566912048635630000004563506211806463422_">
					<use xlink:href="#SVGID_00000135676146958858202630000014512036263959985585_"  style="overflow:visible;"/>
				</clipPath>
				<g style="clip-path:url(#SVGID_00000018204566912048635630000004563506211806463422_);">
					<g>
						<path class="st4" d="M418.85,57.19L418.8,73.4c-0.04,10.31,6.67,20.64,20.15,28.58c27.14,16,71.44,16.28,98.95,0.63
							c13.85-7.88,20.8-18.29,20.84-28.73l0.04-16.21c-0.04,10.44-6.99,20.85-20.84,28.73c-27.51,15.66-71.81,15.37-98.95-0.63
							C425.52,77.83,418.81,67.49,418.85,57.19z"/>
					</g>
				</g>
			</g>
			<g>
				<g>
					<path class="st0" d="M538.63,29.08c27.14,16,26.83,41.66-0.68,57.32c-27.51,15.66-71.81,15.37-98.95-0.63
						c-27.13-15.99-26.83-41.65,0.68-57.31C467.19,12.81,511.5,13.09,538.63,29.08z M530.78,82.18
						c23.51-13.38,23.77-35.29,0.58-48.96c-23.18-13.66-61.01-13.9-84.52-0.53c-23.5,13.37-23.76,35.29-0.58,48.95
						C469.45,95.31,507.28,95.55,530.78,82.18z"/>
				</g>
			</g>
		</g>
	</g>
	<g class="st6">
		<path class="st4" d="M429.55,61.85c1.66,7.2,7.23,14.19,16.72,19.78c23.17,13.68,61.01,13.92,84.51,0.55
			c9.76-5.55,15.51-12.56,17.24-19.83c-1.64-7.22-7.21-14.2-16.72-19.8c-23.18-13.67-61.01-13.91-84.53-0.53
			C437.04,47.57,431.29,54.57,429.55,61.85z"/>
	</g>
	<g>
		<g class="st2">
			<g class="st2">
				<defs>
					<path id="SVGID_00000127753941442994115580000003158725540919256733_" class="st2" d="M392.13,112.99l43.57-25.12
						c1.03-0.6,2.46-0.51,4.03,0.41l-43.57,25.12C394.6,112.48,393.17,112.39,392.13,112.99z"/>
				</defs>
				<use xlink:href="#SVGID_00000127753941442994115580000003158725540919256733_"  style="overflow:visible;fill:#75B8C8;"/>
				<clipPath id="SVGID_00000029761196367439248960000000323500384486111671_">
					<use xlink:href="#SVGID_00000127753941442994115580000003158725540919256733_"  style="overflow:visible;"/>
				</clipPath>
				<g style="clip-path:url(#SVGID_00000029761196367439248960000000323500384486111671_);enable-background:new    ;">
					<g>
						<path class="st4" d="M392.13,112.99l43.57-25.12c1.03-0.6,2.46-0.51,4.03,0.41l-43.57,25.12
							C394.6,112.48,393.17,112.39,392.13,112.99z"/>
					</g>
				</g>
			</g>
			<g class="st2">
				<defs>
					<path id="SVGID_00000072962005264435393840000009479804228857627323_" class="st2" d="M443.69,101.71l-43.57,25.12
						c1.02-0.59,1.66-1.84,1.67-3.63c0.02-3.59-2.49-7.99-5.61-9.8l43.57-25.12c3.12,1.82,5.64,6.21,5.61,9.8
						C445.35,99.87,444.71,101.13,443.69,101.71z"/>
				</defs>
				<use xlink:href="#SVGID_00000072962005264435393840000009479804228857627323_"  style="overflow:visible;fill:#75B8C8;"/>
				<clipPath id="SVGID_00000137835368494794604600000009629687130909239974_">
					<use xlink:href="#SVGID_00000072962005264435393840000009479804228857627323_"  style="overflow:visible;"/>
				</clipPath>
				<g style="clip-path:url(#SVGID_00000137835368494794604600000009629687130909239974_);">
					<g>
						<path class="st4" d="M401.78,123.2c0.01-1.2-0.27-2.49-0.76-3.74l43.56-25.15c0.49,1.26,0.78,2.56,0.77,3.77
							c-0.01,1.79-0.65,3.04-1.67,3.63l-43.57,25.12C401.14,126.25,401.77,124.99,401.78,123.2z"/>
					</g>
					<g>
						<path class="st4" d="M396.17,113.4l43.57-25.12c2.07,1.21,3.87,3.54,4.84,6.03l-43.56,25.15
							C400.05,116.96,398.25,114.61,396.17,113.4z"/>
					</g>
				</g>
			</g>
			<g>
				<g>
					<path class="st4" d="M396.17,113.4c3.12,1.82,5.64,6.21,5.61,9.8c-0.02,3.6-2.57,5.04-5.7,3.22c-3.13-1.82-5.64-6.21-5.62-9.81
						C390.49,113.02,393.04,111.58,396.17,113.4z"/>
				</g>
			</g>
		</g>
	</g>
	<g>
		<g class="st2">
			<g class="st2">
				<defs>
					<path id="SVGID_00000142142924502053430220000015781678120452317076_" class="st2" d="M312.01,148.07l95.93-51.7
						c1.9-1.09,4.52-0.92,7.4,0.77l-94.45,51.85C317.43,146.97,314.29,146.76,312.01,148.07z"/>
				</defs>
				<use xlink:href="#SVGID_00000142142924502053430220000015781678120452317076_"  style="overflow:visible;fill:#00AFB9;"/>
				<clipPath id="SVGID_00000168108151661098145270000014230068399276362671_">
					<use xlink:href="#SVGID_00000142142924502053430220000015781678120452317076_"  style="overflow:visible;"/>
				</clipPath>
				<g style="clip-path:url(#SVGID_00000168108151661098145270000014230068399276362671_);">
					<g>
						<path class="st4" d="M312.01,148.07l95.93-51.7c1.9-1.09,4.52-0.92,7.4,0.77l-94.45,51.85
							C317.43,146.97,314.29,146.76,312.01,148.07z"/>
					</g>
				</g>
			</g>
			<g class="st2">
				<defs>
					<path id="SVGID_00000082342552464698267900000018303641563915615630_" class="st2" d="M422.53,121.83l-93.01,56.79
						c2.25-1.29,3.66-4.05,3.69-7.99c0.07-7.93-5.44-17.61-12.31-21.64l94.45-51.85c5.72,3.35,10.32,11.42,10.26,18.03
						C425.57,118.45,424.4,120.75,422.53,121.83z"/>
				</defs>
				<use xlink:href="#SVGID_00000082342552464698267900000018303641563915615630_"  style="overflow:visible;fill:#00AFB9;"/>
				<clipPath id="SVGID_00000005234709851891972160000014723724671708018581_">
					<use xlink:href="#SVGID_00000082342552464698267900000018303641563915615630_"  style="overflow:visible;"/>
				</clipPath>
				<g style="clip-path:url(#SVGID_00000005234709851891972160000014723724671708018581_);enable-background:new    ;">
					<g>
						<path class="st0" d="M333.21,170.63c0.07-7.93-5.44-17.61-12.31-21.64l94.45-51.85c5.72,3.35,10.32,11.42,10.26,18.03
							L333.21,170.63z"/>
					</g>
					<g>
						<path class="st4" d="M425.6,115.17c-0.03,3.28-1.2,5.58-3.08,6.66l-93.01,56.79c2.25-1.29,3.66-4.05,3.69-7.99L425.6,115.17z"
							/>
					</g>
				</g>
			</g>
			<g>
				<g>
					<path class="st0" d="M320.9,148.99c6.87,4.02,12.38,13.71,12.31,21.64c-0.07,7.93-5.7,11.08-12.57,7.06
						c-6.87-4.03-12.39-13.71-12.31-21.64C308.39,148.12,314.02,144.97,320.9,148.99z"/>
				</g>
			</g>
		</g>
	</g>
</g>
<g>
	<defs>
		<polygon id="SVGID_00000039854272706029727070000008264941421927325085_" points="599.33,0.23 600,0.23 600,199.77 254.31,199.77 
					"/>
	</defs>
	<use xlink:href="#SVGID_00000039854272706029727070000008264941421927325085_"  style="overflow:visible;fill:#75B8C8;"/>
	<clipPath id="SVGID_00000051376303139867490380000012074620716556584868_">
		<use xlink:href="#SVGID_00000039854272706029727070000008264941421927325085_"  style="overflow:visible;"/>
	</clipPath>
	<g style="clip-path:url(#SVGID_00000051376303139867490380000012074620716556584868_);">
		<g>
			<g class="st2">
				<g>
					<defs>
						<path id="SVGID_00000031916504273436926930000010611227682825251212_" d="M429.05,57.22l-0.07,20.23
							c0.03-8.92,5.97-17.81,17.8-24.54c23.51-13.38,61.34-13.14,84.52,0.53c11.52,6.79,17.25,15.62,17.22,24.42l0.07-20.22
							c0.03-8.8-5.7-17.63-17.22-24.42c-23.18-13.66-61.01-13.9-84.52-0.53C435.02,39.42,429.08,48.31,429.05,57.22z"/>
					</defs>
					<use xlink:href="#SVGID_00000031916504273436926930000010611227682825251212_"  style="overflow:visible;fill:#322A89;"/>
					<clipPath id="SVGID_00000089537373191063146370000011420672093932156816_">
						<use xlink:href="#SVGID_00000031916504273436926930000010611227682825251212_"  style="overflow:visible;"/>
					</clipPath>
					<g style="clip-path:url(#SVGID_00000089537373191063146370000011420672093932156816_);">
						<g>
							<path class="st13" d="M429.05,57.22l-0.07,20.23c0.03-8.92,5.97-17.81,17.8-24.54c23.51-13.38,61.34-13.14,84.52,0.53
								c11.52,6.79,17.25,15.62,17.22,24.42l0.07-20.22c0.03-8.8-5.7-17.63-17.22-24.42c-23.18-13.66-61.01-13.9-84.52-0.53
								C435.02,39.42,429.08,48.31,429.05,57.22z"/>
						</g>
					</g>
				</g>
				<g>
					<defs>
						<path id="SVGID_00000017488162875054226390000003845943804638828711_" d="M418.85,57.19L418.8,73.4
							c-0.04,10.31,6.67,20.64,20.15,28.58c27.14,16,71.44,16.28,98.95,0.63c13.85-7.88,20.8-18.29,20.84-28.73l0.04-16.21
							c-0.04,10.44-6.99,20.85-20.84,28.73c-27.51,15.66-71.81,15.37-98.95-0.63C425.52,77.83,418.81,67.49,418.85,57.19z"/>
					</defs>
					<use xlink:href="#SVGID_00000017488162875054226390000003845943804638828711_"  style="overflow:visible;fill:#9B3B1F;"/>
					<clipPath id="SVGID_00000166634478912966996240000011070543269924809896_">
						<use xlink:href="#SVGID_00000017488162875054226390000003845943804638828711_"  style="overflow:visible;"/>
					</clipPath>
					<g style="clip-path:url(#SVGID_00000166634478912966996240000011070543269924809896_);">
						<g>
							<path class="st13" d="M418.85,57.19L418.8,73.4c-0.04,10.31,6.67,20.64,20.15,28.58c27.14,16,71.44,16.28,98.95,0.63
								c13.85-7.88,20.8-18.29,20.84-28.73l0.04-16.21c-0.04,10.44-6.99,20.85-20.84,28.73c-27.51,15.66-71.81,15.37-98.95-0.63
								C425.52,77.83,418.81,67.49,418.85,57.19z"/>
						</g>
					</g>
				</g>
				<g>
					<g>
						<path class="st1" d="M538.63,29.08c27.14,16,26.83,41.66-0.68,57.32c-27.51,15.66-71.81,15.37-98.95-0.63
							c-27.13-15.99-26.83-41.65,0.68-57.31C467.19,12.81,511.5,13.09,538.63,29.08z M530.78,82.18
							c23.51-13.38,23.77-35.29,0.58-48.96c-23.18-13.66-61.01-13.9-84.52-0.53c-23.5,13.37-23.76,35.29-0.58,48.95
							C469.45,95.31,507.28,95.55,530.78,82.18z"/>
					</g>
				</g>
			</g>
		</g>
		<g class="st6">
			<path class="st15" d="M429.55,61.85c1.66,7.2,7.23,14.19,16.72,19.78c23.17,13.68,61.01,13.92,84.51,0.55
				c9.76-5.55,15.51-12.56,17.24-19.83c-1.64-7.22-7.21-14.2-16.72-19.8c-23.18-13.67-61.01-13.91-84.53-0.53
				C437.04,47.57,431.29,54.57,429.55,61.85z"/>
		</g>
		<g>
			<g class="st2">
				<g class="st2">
					<defs>
						<path id="SVGID_00000111163592406122024350000015723999653821644419_" class="st2" d="M392.13,112.99l43.57-25.12
							c1.03-0.6,2.46-0.51,4.03,0.41l-43.57,25.12C394.6,112.48,393.17,112.39,392.13,112.99z"/>
					</defs>
					<use xlink:href="#SVGID_00000111163592406122024350000015723999653821644419_"  style="overflow:visible;fill:#C5C8EE;"/>
					<clipPath id="SVGID_00000072995088809106240220000016720955268150880388_">
						<use xlink:href="#SVGID_00000111163592406122024350000015723999653821644419_"  style="overflow:visible;"/>
					</clipPath>
					<g style="clip-path:url(#SVGID_00000072995088809106240220000016720955268150880388_);enable-background:new    ;">
						<g>
							<path class="st17" d="M392.13,112.99l43.57-25.12c1.03-0.6,2.46-0.51,4.03,0.41l-43.57,25.12
								C394.6,112.48,393.17,112.39,392.13,112.99z"/>
						</g>
					</g>
				</g>
				<g class="st2">
					<defs>
						<path id="SVGID_00000010282072086803015590000012624443018125008007_" class="st2" d="M443.69,101.71l-43.57,25.12
							c1.02-0.59,1.66-1.84,1.67-3.63c0.02-3.59-2.49-7.99-5.61-9.8l43.57-25.12c3.12,1.82,5.64,6.21,5.61,9.8
							C445.35,99.87,444.71,101.13,443.69,101.71z"/>
					</defs>
					<use xlink:href="#SVGID_00000010282072086803015590000012624443018125008007_"  style="overflow:visible;fill:#ACAFF1;"/>
					<clipPath id="SVGID_00000072980906939939209360000000544670547787000200_">
						<use xlink:href="#SVGID_00000010282072086803015590000012624443018125008007_"  style="overflow:visible;"/>
					</clipPath>
					<g style="clip-path:url(#SVGID_00000072980906939939209360000000544670547787000200_);">
						<g>
							<path class="st17" d="M401.78,123.2c0.01-1.2-0.27-2.49-0.76-3.74l43.56-25.15c0.49,1.26,0.78,2.56,0.77,3.77
								c-0.01,1.79-0.65,3.04-1.67,3.63l-43.57,25.12C401.14,126.25,401.77,124.99,401.78,123.2z"/>
						</g>
						<g>
							<path class="st19" d="M396.17,113.4l43.57-25.12c2.07,1.21,3.87,3.54,4.84,6.03l-43.56,25.15
								C400.05,116.96,398.25,114.61,396.17,113.4z"/>
						</g>
					</g>
				</g>
				<g>
					<g>
						<path class="st17" d="M396.17,113.4c3.12,1.82,5.64,6.21,5.61,9.8c-0.02,3.6-2.57,5.04-5.7,3.22
							c-3.13-1.82-5.64-6.21-5.62-9.81C390.49,113.02,393.04,111.58,396.17,113.4z"/>
					</g>
				</g>
			</g>
		</g>
		<g>
			<g class="st2">
				<g class="st2">
					<defs>
						<path id="SVGID_00000160878586411161672500000006905475938756774062_" class="st2" d="M312.01,148.07l95.93-51.7
							c1.9-1.09,4.52-0.92,7.4,0.77l-94.45,51.85C317.43,146.97,314.29,146.76,312.01,148.07z"/>
					</defs>
					<use xlink:href="#SVGID_00000160878586411161672500000006905475938756774062_"  style="overflow:visible;fill:#9B3B1F;"/>
					<clipPath id="SVGID_00000127724952465358216220000009281434204937627564_">
						<use xlink:href="#SVGID_00000160878586411161672500000006905475938756774062_"  style="overflow:visible;"/>
					</clipPath>
					<g style="clip-path:url(#SVGID_00000127724952465358216220000009281434204937627564_);">
						<g>
							<path class="st13" d="M312.01,148.07l95.93-51.7c1.9-1.09,4.52-0.92,7.4,0.77l-94.45,51.85
								C317.43,146.97,314.29,146.76,312.01,148.07z"/>
						</g>
					</g>
				</g>
				<g class="st2">
					<defs>
						<path id="SVGID_00000129915821716520822560000007805307574492312235_" class="st2" d="M422.53,121.83l-93.01,56.79
							c2.25-1.29,3.66-4.05,3.69-7.99c0.07-7.93-5.44-17.61-12.31-21.64l94.45-51.85c5.72,3.35,10.32,11.42,10.26,18.03
							C425.57,118.45,424.4,120.75,422.53,121.83z"/>
					</defs>
					<use xlink:href="#SVGID_00000129915821716520822560000007805307574492312235_"  style="overflow:visible;fill:#9B3B1F;"/>
					<clipPath id="SVGID_00000142144345452305312740000001762580055220459152_">
						<use xlink:href="#SVGID_00000129915821716520822560000007805307574492312235_"  style="overflow:visible;"/>
					</clipPath>
					<g style="clip-path:url(#SVGID_00000142144345452305312740000001762580055220459152_);enable-background:new    ;">
						<g>
							<path class="st1" d="M333.21,170.63c0.07-7.93-5.44-17.61-12.31-21.64l94.45-51.85c5.72,3.35,10.32,11.42,10.26,18.03
								L333.21,170.63z"/>
						</g>
						<g>
							<path class="st13" d="M425.6,115.17c-0.03,3.28-1.2,5.58-3.08,6.66l-93.01,56.79c2.25-1.29,3.66-4.05,3.69-7.99L425.6,115.17
								z"/>
						</g>
					</g>
				</g>
				<g>
					<g>
						<path class="st13" d="M320.9,148.99c6.87,4.02,12.38,13.71,12.31,21.64c-0.07,7.93-5.7,11.08-12.57,7.06
							c-6.87-4.03-12.39-13.71-12.31-21.64C308.39,148.12,314.02,144.97,320.9,148.99z"/>
					</g>
				</g>
			</g>
		</g>
	</g>
</g>
</svg>
