<?xml version="1.0" encoding="utf-8"?>
<!-- Generator: Adobe Illustrator 25.4.1, SVG Export Plug-In . SVG Version: 6.00 Build 0)  -->
<svg version="1.1" id="Capa_1" xmlns="http://www.w3.org/2000/svg" xmlns:xlink="http://www.w3.org/1999/xlink" x="0px" y="0px"
	 viewBox="0 0 900 150" style="enable-background:new 0 0 900 150;" xml:space="preserve">
<style type="text/css">
	.st0{fill:#00AFB9;}
	.st1{enable-background:new    ;}
	.st2{clip-path:url(#SVGID_00000111175140362077261140000000783855397768909227_);}
	.st3{fill:#75B8C8;}
	.st4{clip-path:url(#SVGID_00000057857993766722061340000013135059887439181227_);}
	.st5{opacity:0.4;fill:#75B8C8;}
	.st6{clip-path:url(#SVGID_00000182520501015188346840000011051728859258766466_);enable-background:new    ;}
	.st7{clip-path:url(#SVGID_00000082350310227462361030000014863853767920512131_);}
	.st8{clip-path:url(#SVGID_00000120537828083355638030000013996829871847378611_);}
	.st9{clip-path:url(#SVGID_00000052791062501507339710000003483234586833886391_);enable-background:new    ;}
	.st10{clip-path:url(#XMLID_00000132800012164975627710000016957107743435335851_);}
	.st11{clip-path:url(#SVGID_00000159448875457067349550000009612836038011360395_);}
	.st12{fill:#9B3B1F;}
	.st13{clip-path:url(#SVGID_00000076571659592575501900000013546529430335460780_);}
	.st14{fill:#DC522A;}
	.st15{opacity:0.4;fill:#D6D3EC;}
	.st16{clip-path:url(#SVGID_00000161627009346052982480000016808741184861892770_);enable-background:new    ;}
	.st17{fill:#C5C8EE;}
	.st18{clip-path:url(#SVGID_00000179613656067600102370000005445023033003611041_);}
	.st19{fill:#E6E6F0;}
	.st20{clip-path:url(#SVGID_00000103250919034050275090000001371442690790858885_);}
	.st21{clip-path:url(#SVGID_00000002383659020654873130000004031123472191888828_);enable-background:new    ;}
	.st22{fill:#FFFFFF;}
</style>
<g>
	<g>
		<path class="st0" d="M82.28,40.47h-3.43v12.51h-6.91V18.75h11.03c3.46,0,6.14,0.9,8.03,2.69s2.83,4.35,2.83,7.65
			c0,4.55-1.65,7.73-4.96,9.55l6,14.01v0.33h-7.43L82.28,40.47z M78.84,34.71h3.93c1.38,0,2.41-0.46,3.1-1.38
			c0.69-0.92,1.03-2.14,1.03-3.68c0-3.43-1.34-5.15-4.02-5.15h-4.04V34.71z"/>
		<path class="st0" d="M116.25,38.17h-10.77v9.08h12.74v5.74H98.57V18.75h19.61v5.76h-12.7v8.09h10.77V38.17z"/>
		<path class="st0" d="M138.54,45.97h-9.43l-1.83,7.01h-7.31l10.7-34.23h6.33l10.77,34.23h-7.38L138.54,45.97z M130.62,40.21h6.4
			l-3.2-12.2L130.62,40.21z"/>
		<path class="st0" d="M157.87,47.24H170v5.74h-19.04V18.75h6.91V47.24z"/>
		<path class="st0" d="M181.21,52.98h-6.91V18.75h6.91V52.98z"/>
		<path class="st0" d="M187.02,52.98V18.75h9.05c4,0,7.18,1.27,9.56,3.81c2.37,2.54,3.58,6.02,3.63,10.44v5.55
			c0,4.5-1.19,8.03-3.56,10.59c-2.38,2.56-5.65,3.84-9.82,3.84H187.02z M193.93,24.51v22.74H196c2.3,0,3.93-0.61,4.87-1.82
			s1.43-3.31,1.48-6.29v-5.95c0-3.2-0.45-5.43-1.34-6.69c-0.89-1.26-2.41-1.92-4.56-1.99H193.93z"/>
		<path class="st0" d="M230.07,45.97h-9.43l-1.83,7.01h-7.31l10.7-34.23h6.32l10.77,34.23h-7.38L230.07,45.97z M222.15,40.21h6.39
			l-3.2-12.2L222.15,40.21z"/>
		<path class="st0" d="M242.49,52.98V18.75h9.05c4,0,7.18,1.27,9.56,3.81c2.37,2.54,3.58,6.02,3.63,10.44v5.55
			c0,4.5-1.19,8.03-3.56,10.59c-2.38,2.56-5.65,3.84-9.82,3.84H242.49z M249.4,24.51v22.74h2.07c2.3,0,3.93-0.61,4.87-1.82
			s1.43-3.31,1.48-6.29v-5.95c0-3.2-0.45-5.43-1.34-6.69c-0.89-1.26-2.41-1.92-4.56-1.99H249.4z"/>
		<path class="st0" d="M66.51,91.47h-9.43l-1.83,7.01h-7.31l10.7-34.23h6.32l10.77,34.23h-7.38L66.51,91.47z M58.59,85.71h6.39
			l-3.2-12.2L58.59,85.71z"/>
		<path class="st0" d="M100.79,64.24v23.7c-0.03,3.56-1.01,6.28-2.94,8.17c-1.93,1.89-4.7,2.83-8.3,2.83
			c-3.67,0-6.47-0.96-8.41-2.87c-1.94-1.91-2.9-4.68-2.9-8.3V64.24h6.96V87.8c0,1.94,0.31,3.33,0.94,4.16s1.76,1.25,3.41,1.25
			c1.65,0,2.77-0.41,3.39-1.23s0.92-2.17,0.94-4.06V64.24H100.79z"/>
		<path class="st0" d="M115.06,64.24L121.53,89l6.44-24.76H137v34.23h-6.94v-9.26l0.63-14.27l-6.84,23.54h-4.7l-6.84-23.54
			l0.63,14.27v9.26h-6.91V64.24H115.06z"/>
		<path class="st0" d="M160.23,83.67h-10.77v9.08h12.74v5.74h-19.66V64.24h19.61V70h-12.7v8.09h10.77V83.67z"/>
		<path class="st0" d="M190.11,98.48h-6.91l-10.11-22.45v22.45h-6.91V64.24h6.91l10.13,22.48V64.24h6.89V98.48z"/>
		<path class="st0" d="M217.15,70h-8.46v28.47h-6.94V70h-8.32v-5.76h23.72V70z"/>
		<path class="st0" d="M234.64,91.47h-9.43l-1.83,7.01h-7.31l10.7-34.23h6.32l10.77,34.23h-7.38L234.64,91.47z M226.72,85.71h6.39
			l-3.2-12.2L226.72,85.71z"/>
		<path class="st0" d="M247.06,98.48V64.24h9.05c4,0,7.18,1.27,9.56,3.81c2.37,2.54,3.58,6.02,3.63,10.44v5.55
			c0,4.5-1.19,8.03-3.56,10.59c-2.38,2.56-5.65,3.84-9.82,3.84H247.06z M253.97,70v22.74h2.07c2.3,0,3.93-0.61,4.87-1.82
			s1.43-3.31,1.48-6.29v-5.95c0-3.2-0.45-5.43-1.34-6.69c-0.89-1.26-2.41-1.92-4.56-1.99H253.97z"/>
		<path class="st0" d="M290.11,91.47h-9.43l-1.83,7.01h-7.31l10.7-34.23h6.33l10.77,34.23h-7.38L290.11,91.47z M282.19,85.71h6.4
			l-3.2-12.2L282.19,85.71z"/>
		<path d="M66.54,131.46h-4.72v-9.82h-9.21v9.82H47.9v-22.91h4.72v9.28h9.21v-9.28h4.72V131.46z"/>
		<path d="M85.74,121.53h-9.06v6.14h10.64v3.79H71.96v-22.91h15.33v3.82H76.68v5.46h9.06V121.53z"/>
		<path d="M99.85,123.08h-3.76v8.39h-4.72v-22.91h8.51c2.71,0,4.79,0.6,6.26,1.81c1.47,1.21,2.2,2.91,2.2,5.11
			c0,1.56-0.34,2.87-1.01,3.91c-0.68,1.04-1.7,1.88-3.08,2.49l4.96,9.36v0.22h-5.07L99.85,123.08z M96.09,119.25h3.81
			c1.19,0,2.1-0.3,2.75-0.91c0.65-0.6,0.98-1.43,0.98-2.49c0-1.08-0.31-1.93-0.92-2.55c-0.61-0.62-1.56-0.93-2.82-0.93h-3.79V119.25
			z"/>
		<path d="M121.71,123.08h-3.76v8.39h-4.72v-22.91h8.51c2.71,0,4.79,0.6,6.26,1.81c1.47,1.21,2.2,2.91,2.2,5.11
			c0,1.56-0.34,2.87-1.01,3.91s-1.7,1.88-3.08,2.49l4.96,9.36v0.22h-5.07L121.71,123.08z M117.95,119.25h3.81
			c1.19,0,2.1-0.3,2.75-0.91c0.65-0.6,0.98-1.43,0.98-2.49c0-1.08-0.31-1.93-0.92-2.55c-0.61-0.62-1.56-0.93-2.83-0.93h-3.79V119.25
			z"/>
		<path d="M148.02,126.74h-8.28l-1.57,4.72h-5.02l8.53-22.91h4.38l8.58,22.91h-5.02L148.02,126.74z M141.02,122.92h5.73l-2.88-8.58
			L141.02,122.92z"/>
		<path d="M164.23,108.55l5.89,16.62l5.85-16.62h6.2v22.91h-4.74v-6.26l0.47-10.81l-6.18,17.07h-3.24l-6.17-17.06l0.47,10.79v6.26
			h-4.72v-22.91H164.23z"/>
		<path d="M192.6,131.46h-4.72v-22.91h4.72V131.46z"/>
		<path d="M212.05,121.53h-9.06v6.14h10.64v3.79h-15.36v-22.91h15.33v3.82h-10.61v5.46h9.06V121.53z"/>
		<path d="M236.31,131.46h-4.72l-9.19-15.08v15.08h-4.72v-22.91h4.72l9.21,15.11v-15.11h4.71V131.46z"/>
		<path d="M258.51,112.38h-7.02v19.09h-4.72v-19.09h-6.92v-3.82h18.66V112.38z"/>
		<path d="M273.54,126.74h-8.28l-1.57,4.72h-5.02l8.53-22.91h4.37l8.58,22.91h-5.02L273.54,126.74z M266.54,122.92h5.73l-2.88-8.58
			L266.54,122.92z"/>
		<path d="M295.46,125.45c0-0.89-0.31-1.58-0.94-2.05c-0.63-0.48-1.76-0.98-3.4-1.51c-1.64-0.53-2.93-1.05-3.89-1.57
			c-2.6-1.41-3.9-3.3-3.9-5.68c0-1.24,0.35-2.34,1.05-3.31c0.7-0.97,1.7-1.73,3.01-2.27s2.77-0.82,4.4-0.82
			c1.64,0,3.09,0.3,4.37,0.89c1.28,0.59,2.27,1.43,2.98,2.51c0.71,1.08,1.06,2.31,1.06,3.68h-4.72c0-1.05-0.33-1.86-0.99-2.45
			c-0.66-0.58-1.59-0.87-2.79-0.87c-1.15,0-2.05,0.24-2.69,0.73c-0.64,0.49-0.96,1.13-0.96,1.93c0,0.75,0.38,1.37,1.12,1.87
			s1.85,0.98,3.31,1.42c2.69,0.81,4.64,1.81,5.87,3.01c1.23,1.2,1.84,2.69,1.84,4.47c0,1.98-0.75,3.54-2.25,4.67
			c-1.5,1.13-3.52,1.69-6.06,1.69c-1.76,0-3.37-0.32-4.82-0.97c-1.45-0.64-2.55-1.53-3.31-2.65c-0.76-1.12-1.14-2.42-1.14-3.9h4.74
			c0,2.53,1.51,3.79,4.53,3.79c1.12,0,2-0.23,2.63-0.68C295.14,126.91,295.46,126.27,295.46,125.45z"/>
	</g>
	<g>
		<g>
			<g class="st1">
				<g>
					<defs>
						<path id="SVGID_1_" d="M482.64,42.84l-0.05,15.2c0.02-6.7,4.49-13.39,13.38-18.44c17.67-10.06,46.11-9.88,63.54,0.4
							c8.66,5.11,12.97,11.74,12.95,18.36l0.05-15.2c0.02-6.62-4.29-13.25-12.95-18.36c-17.42-10.27-45.87-10.45-63.54-0.4
							C487.13,29.46,482.66,36.14,482.64,42.84z"/>
					</defs>
					<use xlink:href="#SVGID_1_"  style="overflow:visible;fill:#75B8C8;"/>
					<clipPath id="SVGID_00000109026269919391824230000009893681577121769125_">
						<use xlink:href="#SVGID_1_"  style="overflow:visible;"/>
					</clipPath>
					<g style="clip-path:url(#SVGID_00000109026269919391824230000009893681577121769125_);">
						<path class="st3" d="M482.64,42.84l-0.05,15.2c0.02-6.7,4.49-13.39,13.38-18.44c17.67-10.06,46.11-9.88,63.54,0.4
							c8.66,5.11,12.97,11.74,12.95,18.36l0.05-15.2c0.02-6.62-4.29-13.25-12.95-18.36c-17.42-10.27-45.87-10.45-63.54-0.4
							C487.13,29.46,482.66,36.14,482.64,42.84z"/>
					</g>
				</g>
				<g>
					<defs>
						<path id="SVGID_00000017480700282066396490000000752326994273500580_" d="M474.97,42.82L474.93,55
							c-0.03,7.75,5.02,15.51,15.15,21.49c20.4,12.03,53.7,12.24,74.38,0.47c10.41-5.92,15.64-13.75,15.66-21.6l0.03-12.19
							c-0.03,7.85-5.26,15.68-15.66,21.6c-20.68,11.77-53.98,11.55-74.39-0.47C479.98,58.33,474.94,50.56,474.97,42.82z"/>
					</defs>
					<use xlink:href="#SVGID_00000017480700282066396490000000752326994273500580_"  style="overflow:visible;fill:#75B8C8;"/>
					<clipPath id="SVGID_00000111877601304101046570000012020339702590498708_">
						<use xlink:href="#SVGID_00000017480700282066396490000000752326994273500580_"  style="overflow:visible;"/>
					</clipPath>
					<g style="clip-path:url(#SVGID_00000111877601304101046570000012020339702590498708_);">
						<path class="st3" d="M474.97,42.82L474.93,55c-0.03,7.75,5.02,15.51,15.15,21.49c20.4,12.03,53.7,12.24,74.38,0.47
							c10.41-5.92,15.64-13.75,15.66-21.6l0.03-12.19c-0.03,7.85-5.26,15.68-15.66,21.6c-20.68,11.77-53.98,11.55-74.39-0.47
							C479.98,58.33,474.94,50.56,474.97,42.82z"/>
					</g>
				</g>
				<g>
					<g>
						<path class="st0" d="M565.01,21.69c20.4,12.03,20.17,31.32-0.51,43.09c-20.68,11.77-53.98,11.55-74.39-0.47
							c-20.39-12.02-20.17-31.31,0.51-43.08C511.31,9.45,544.62,9.66,565.01,21.69z M559.11,61.6
							c17.67-10.06,17.87-26.53,0.44-36.81c-17.42-10.27-45.87-10.45-63.54-0.4c-17.67,10.05-17.86,26.53-0.44,36.8
							C513.01,71.47,541.45,71.65,559.11,61.6z"/>
					</g>
				</g>
			</g>
		</g>
		<path class="st5" d="M483.01,46.32c1.25,5.42,5.43,10.67,12.57,14.87c17.42,10.29,45.86,10.47,63.53,0.41
			c7.34-4.17,11.66-9.44,12.96-14.91c-1.24-5.43-5.42-10.68-12.57-14.88c-17.42-10.27-45.87-10.45-63.54-0.4
			C488.64,35.58,484.32,40.85,483.01,46.32z"/>
		<g>
			<g class="st1">
				<g class="st1">
					<defs>
						<path id="SVGID_00000036962318519711303830000014524852550371174580_" class="st1" d="M454.89,84.77l32.76-18.88
							c0.78-0.45,1.85-0.38,3.03,0.31l-32.76,18.88C456.74,84.39,455.66,84.32,454.89,84.77z"/>
					</defs>
					<use xlink:href="#SVGID_00000036962318519711303830000014524852550371174580_"  style="overflow:visible;fill:#75B8C8;"/>
					<clipPath id="SVGID_00000152987016013964451190000009064777812285016962_">
						<use xlink:href="#SVGID_00000036962318519711303830000014524852550371174580_"  style="overflow:visible;"/>
					</clipPath>
					<g style="clip-path:url(#SVGID_00000152987016013964451190000009064777812285016962_);enable-background:new    ;">
						<path class="st3" d="M454.89,84.77l32.76-18.88c0.78-0.45,1.85-0.38,3.03,0.31l-32.76,18.88
							C456.74,84.39,455.66,84.32,454.89,84.77z"/>
					</g>
				</g>
				<g class="st1">
					<defs>
						<path id="SVGID_00000129928131203402295880000009872610576297682823_" class="st1" d="M493.64,76.29l-32.76,18.88
							c0.77-0.44,1.24-1.39,1.25-2.73c0.02-2.7-1.87-6-4.22-7.37l32.76-18.88c2.35,1.37,4.24,4.67,4.22,7.37
							C494.89,74.9,494.41,75.85,493.64,76.29z"/>
					</defs>
					<use xlink:href="#SVGID_00000129928131203402295880000009872610576297682823_"  style="overflow:visible;fill:#75B8C8;"/>
					<clipPath id="SVGID_00000059304151602611035630000004278108909226767759_">
						<use xlink:href="#SVGID_00000129928131203402295880000009872610576297682823_"  style="overflow:visible;"/>
					</clipPath>
					<g style="clip-path:url(#SVGID_00000059304151602611035630000004278108909226767759_);">
						<path class="st3" d="M462.14,92.44c0.01-0.9-0.2-1.87-0.57-2.81l32.75-18.91c0.37,0.95,0.59,1.93,0.58,2.84
							c-0.01,1.34-0.49,2.29-1.25,2.73l-32.76,18.88C461.66,94.73,462.13,93.79,462.14,92.44z"/>
						<path class="st3" d="M457.92,85.07l32.76-18.88c1.56,0.91,2.91,2.66,3.64,4.53l-32.75,18.91
							C460.84,87.75,459.49,85.98,457.92,85.07z"/>
					</g>
				</g>
				<g>
					<path class="st3" d="M457.92,85.07c2.35,1.37,4.24,4.67,4.22,7.37c-0.02,2.71-1.94,3.79-4.28,2.42
						c-2.35-1.37-4.24-4.67-4.22-7.37C453.65,84.79,455.57,83.71,457.92,85.07z"/>
				</g>
			</g>
		</g>
		<g>
			<g class="st1">
				<g class="st1">
					<defs>
						<path id="SVGID_00000114789301934920268100000004355036023728098192_" class="st1" d="M394.66,111.13l72.12-38.86
							c1.43-0.82,3.4-0.69,5.56,0.58l-71,38.98C398.73,110.31,396.37,110.15,394.66,111.13z"/>
					</defs>
					<use xlink:href="#SVGID_00000114789301934920268100000004355036023728098192_"  style="overflow:visible;fill:#00AFB9;"/>
					<clipPath id="SVGID_00000135678524605767133670000004871069300804413884_">
						<use xlink:href="#SVGID_00000114789301934920268100000004355036023728098192_"  style="overflow:visible;"/>
					</clipPath>
					<g style="clip-path:url(#SVGID_00000135678524605767133670000004871069300804413884_);">
						<path class="st3" d="M394.66,111.13l72.12-38.86c1.43-0.82,3.4-0.69,5.56,0.58l-71,38.98
							C398.73,110.31,396.37,110.15,394.66,111.13z"/>
					</g>
				</g>
				<g class="st1">
					<defs>
						<path id="SVGID_00000173119446408530037320000011160683430675014545_" class="st1" d="M477.73,91.41l-69.92,42.69
							c1.69-0.97,2.75-3.04,2.78-6c0.05-5.96-4.09-13.24-9.25-16.26l71-38.98c4.3,2.52,7.76,8.59,7.71,13.55
							C480.02,88.87,479.14,90.6,477.73,91.41z"/>
					</defs>
					<use xlink:href="#SVGID_00000173119446408530037320000011160683430675014545_"  style="overflow:visible;fill:#00AFB9;"/>
					<clipPath id="SVGID_00000120543293191766312960000008790887309524374704_">
						<use xlink:href="#SVGID_00000173119446408530037320000011160683430675014545_"  style="overflow:visible;"/>
					</clipPath>
					<g style="clip-path:url(#SVGID_00000120543293191766312960000008790887309524374704_);enable-background:new    ;">
						<path class="st0" d="M410.59,128.1c0.05-5.96-4.09-13.24-9.25-16.26l71-38.98c4.3,2.52,7.76,8.59,7.71,13.55L410.59,128.1z"/>
						<path class="st3" d="M480.05,86.4c-0.02,2.47-0.9,4.2-2.31,5l-69.92,42.69c1.69-0.97,2.75-3.04,2.78-6L480.05,86.4z"/>
					</g>
				</g>
				<g>
					<g>
						<path class="st0" d="M401.33,111.83c5.16,3.02,9.31,10.31,9.25,16.26c-0.05,5.96-4.29,8.33-9.45,5.31
							c-5.17-3.03-9.31-10.31-9.26-16.27C391.94,111.18,396.17,108.8,401.33,111.83z"/>
					</g>
				</g>
			</g>
		</g>
	</g>
	<g>
		<defs>
			<polygon id="XMLID_00000054987169652253332760000006757371860007408778_" points="610.65,0 900,0 900,150 351.28,150 			"/>
		</defs>
		<use xlink:href="#XMLID_00000054987169652253332760000006757371860007408778_"  style="overflow:visible;fill:#75B8C8;"/>
		<clipPath id="XMLID_00000071540361788511933890000016503619257383497364_">
			<use xlink:href="#XMLID_00000054987169652253332760000006757371860007408778_"  style="overflow:visible;"/>
		</clipPath>
		<g style="clip-path:url(#XMLID_00000071540361788511933890000016503619257383497364_);">
			<g>
				<g class="st1">
					<g>
						<defs>
							<path id="SVGID_00000090287900018382701930000006109306283665223335_" d="M482.64,42.84l-0.05,15.2
								c0.02-6.7,4.49-13.39,13.38-18.44c17.67-10.06,46.11-9.88,63.54,0.4c8.66,5.11,12.97,11.74,12.95,18.36l0.05-15.2
								c0.02-6.62-4.29-13.25-12.95-18.36c-17.42-10.27-45.87-10.45-63.54-0.4C487.13,29.46,482.66,36.14,482.64,42.84z"/>
						</defs>
						<use xlink:href="#SVGID_00000090287900018382701930000006109306283665223335_"  style="overflow:visible;fill:#322A89;"/>
						<clipPath id="SVGID_00000002355655639880040940000009643688119272447922_">
							<use xlink:href="#SVGID_00000090287900018382701930000006109306283665223335_"  style="overflow:visible;"/>
						</clipPath>
						<g style="clip-path:url(#SVGID_00000002355655639880040940000009643688119272447922_);">
							<path class="st12" d="M482.64,42.84l-0.05,15.2c0.02-6.7,4.49-13.39,13.38-18.44c17.67-10.06,46.11-9.88,63.54,0.4
								c8.66,5.11,12.97,11.74,12.95,18.36l0.05-15.2c0.02-6.62-4.29-13.25-12.95-18.36c-17.42-10.27-45.87-10.45-63.54-0.4
								C487.13,29.46,482.66,36.14,482.64,42.84z"/>
						</g>
					</g>
					<g>
						<defs>
							<path id="SVGID_00000150082122167079839140000007604893223523716496_" d="M474.97,42.82L474.93,55
								c-0.03,7.75,5.02,15.51,15.15,21.49c20.4,12.03,53.7,12.24,74.38,0.47c10.41-5.92,15.64-13.75,15.66-21.6l0.03-12.19
								c-0.03,7.85-5.26,15.68-15.66,21.6c-20.68,11.77-53.98,11.55-74.39-0.47C479.98,58.33,474.94,50.56,474.97,42.82z"/>
						</defs>
						<use xlink:href="#SVGID_00000150082122167079839140000007604893223523716496_"  style="overflow:visible;fill:#9B3B1F;"/>
						<clipPath id="SVGID_00000147217715794452818890000017176413308901775792_">
							<use xlink:href="#SVGID_00000150082122167079839140000007604893223523716496_"  style="overflow:visible;"/>
						</clipPath>
						<g style="clip-path:url(#SVGID_00000147217715794452818890000017176413308901775792_);">
							<path class="st12" d="M474.97,42.82L474.93,55c-0.03,7.75,5.02,15.51,15.15,21.49c20.4,12.03,53.7,12.24,74.38,0.47
								c10.41-5.92,15.64-13.75,15.66-21.6l0.03-12.19c-0.03,7.85-5.26,15.68-15.66,21.6c-20.68,11.77-53.98,11.55-74.39-0.47
								C479.98,58.33,474.94,50.56,474.97,42.82z"/>
						</g>
					</g>
					<g>
						<path class="st14" d="M565.01,21.69c20.4,12.03,20.17,31.32-0.51,43.09c-20.68,11.77-53.98,11.55-74.39-0.47
							c-20.39-12.02-20.17-31.31,0.51-43.08C511.31,9.45,544.62,9.66,565.01,21.69z M559.11,61.6
							c17.67-10.06,17.87-26.53,0.44-36.81c-17.42-10.27-45.87-10.45-63.54-0.4c-17.67,10.05-17.86,26.53-0.44,36.8
							C513.01,71.47,541.45,71.65,559.11,61.6z"/>
					</g>
				</g>
			</g>
			<path class="st15" d="M483.01,46.32c1.25,5.42,5.43,10.67,12.57,14.87c17.42,10.29,45.86,10.47,63.53,0.41
				c7.34-4.17,11.66-9.44,12.96-14.91c-1.24-5.43-5.42-10.68-12.57-14.88c-17.42-10.27-45.87-10.45-63.54-0.4
				C488.64,35.58,484.32,40.85,483.01,46.32z"/>
			<g>
				<g class="st1">
					<g class="st1">
						<defs>
							<path id="SVGID_00000086686017918880078290000016235236130460325770_" class="st1" d="M454.89,84.77l32.76-18.88
								c0.78-0.45,1.85-0.38,3.03,0.31l-32.76,18.88C456.74,84.39,455.66,84.32,454.89,84.77z"/>
						</defs>
						<use xlink:href="#SVGID_00000086686017918880078290000016235236130460325770_"  style="overflow:visible;fill:#C5C8EE;"/>
						<clipPath id="SVGID_00000011734342501341836220000001949426488886786218_">
							<use xlink:href="#SVGID_00000086686017918880078290000016235236130460325770_"  style="overflow:visible;"/>
						</clipPath>
						<g style="clip-path:url(#SVGID_00000011734342501341836220000001949426488886786218_);enable-background:new    ;">
							<path class="st17" d="M454.89,84.77l32.76-18.88c0.78-0.45,1.85-0.38,3.03,0.31l-32.76,18.88
								C456.74,84.39,455.66,84.32,454.89,84.77z"/>
						</g>
					</g>
					<g class="st1">
						<defs>
							<path id="SVGID_00000105395379058353245450000012791564604484852883_" class="st1" d="M493.64,76.29l-32.76,18.88
								c0.77-0.44,1.24-1.39,1.25-2.73c0.02-2.7-1.87-6-4.22-7.37l32.76-18.88c2.35,1.37,4.24,4.67,4.22,7.37
								C494.89,74.9,494.41,75.85,493.64,76.29z"/>
						</defs>
						<use xlink:href="#SVGID_00000105395379058353245450000012791564604484852883_"  style="overflow:visible;fill:#ACAFF1;"/>
						<clipPath id="SVGID_00000028313510220057621240000016200173708989743502_">
							<use xlink:href="#SVGID_00000105395379058353245450000012791564604484852883_"  style="overflow:visible;"/>
						</clipPath>
						<g style="clip-path:url(#SVGID_00000028313510220057621240000016200173708989743502_);">
							<path class="st17" d="M462.14,92.44c0.01-0.9-0.2-1.87-0.57-2.81l32.75-18.91c0.37,0.95,0.59,1.93,0.58,2.84
								c-0.01,1.34-0.49,2.29-1.25,2.73l-32.76,18.88C461.66,94.73,462.13,93.79,462.14,92.44z"/>
							<path class="st19" d="M457.92,85.07l32.76-18.88c1.56,0.91,2.91,2.66,3.64,4.53l-32.75,18.91
								C460.84,87.75,459.49,85.98,457.92,85.07z"/>
						</g>
					</g>
					<g>
						<path class="st17" d="M457.92,85.07c2.35,1.37,4.24,4.67,4.22,7.37c-0.02,2.71-1.94,3.79-4.28,2.42
							c-2.35-1.37-4.24-4.67-4.22-7.37C453.65,84.79,455.57,83.71,457.92,85.07z"/>
					</g>
				</g>
			</g>
			<g>
				<g class="st1">
					<g class="st1">
						<defs>
							<path id="SVGID_00000109022759643936071080000012973231370130938792_" class="st1" d="M394.66,111.13l72.12-38.86
								c1.43-0.82,3.4-0.69,5.56,0.58l-71,38.98C398.73,110.31,396.37,110.15,394.66,111.13z"/>
						</defs>
						<use xlink:href="#SVGID_00000109022759643936071080000012973231370130938792_"  style="overflow:visible;fill:#9B3B1F;"/>
						<clipPath id="SVGID_00000039099729794750582100000010411056382454272173_">
							<use xlink:href="#SVGID_00000109022759643936071080000012973231370130938792_"  style="overflow:visible;"/>
						</clipPath>
						<g style="clip-path:url(#SVGID_00000039099729794750582100000010411056382454272173_);">
							<path class="st12" d="M394.66,111.13l72.12-38.86c1.43-0.82,3.4-0.69,5.56,0.58l-71,38.98
								C398.73,110.31,396.37,110.15,394.66,111.13z"/>
						</g>
					</g>
					<g class="st1">
						<defs>
							<path id="SVGID_00000028308610397157221170000000164765020457891988_" class="st1" d="M477.73,91.41l-69.92,42.69
								c1.69-0.97,2.75-3.04,2.78-6c0.05-5.96-4.09-13.24-9.25-16.26l71-38.98c4.3,2.52,7.76,8.59,7.71,13.55
								C480.02,88.87,479.14,90.6,477.73,91.41z"/>
						</defs>
						<use xlink:href="#SVGID_00000028308610397157221170000000164765020457891988_"  style="overflow:visible;fill:#9B3B1F;"/>
						<clipPath id="SVGID_00000093178404226076041580000012093965727475530425_">
							<use xlink:href="#SVGID_00000028308610397157221170000000164765020457891988_"  style="overflow:visible;"/>
						</clipPath>
						<g style="clip-path:url(#SVGID_00000093178404226076041580000012093965727475530425_);enable-background:new    ;">
							<path class="st14" d="M410.59,128.1c0.05-5.96-4.09-13.24-9.25-16.26l71-38.98c4.3,2.52,7.76,8.59,7.71,13.55L410.59,128.1z"
								/>
							<path class="st12" d="M480.05,86.4c-0.02,2.47-0.9,4.2-2.31,5l-69.92,42.69c1.69-0.97,2.75-3.04,2.78-6L480.05,86.4z"/>
						</g>
					</g>
					<g>
						<path class="st12" d="M401.33,111.83c5.16,3.02,9.31,10.31,9.25,16.26c-0.05,5.96-4.29,8.33-9.45,5.31
							c-5.17-3.03-9.31-10.31-9.26-16.27C391.94,111.18,396.17,108.8,401.33,111.83z"/>
					</g>
				</g>
			</g>
		</g>
	</g>
	<g>
		<path class="st22" d="M613.71,62.56v7.51h-2.53v-19.2h7.08c2.1,0,3.75,0.54,4.94,1.61c1.19,1.07,1.79,2.49,1.79,4.26
			c0,1.86-0.58,3.3-1.75,4.3c-1.16,1.01-2.83,1.51-5,1.51H613.71z M613.71,60.49h4.55c1.35,0,2.39-0.32,3.11-0.96
			c0.72-0.64,1.08-1.56,1.08-2.77c0-1.14-0.36-2.06-1.08-2.75s-1.71-1.04-2.97-1.07h-4.69V60.49z"/>
		<path class="st22" d="M636.5,70.07c-0.14-0.28-0.25-0.78-0.34-1.5c-1.13,1.18-2.49,1.77-4.06,1.77c-1.41,0-2.56-0.4-3.46-1.19
			c-0.9-0.79-1.35-1.8-1.35-3.03c0-1.49,0.56-2.64,1.69-3.46c1.13-0.82,2.72-1.23,4.77-1.23h2.37V60.3c0-0.85-0.25-1.53-0.76-2.04
			c-0.51-0.51-1.26-0.76-2.25-0.76c-0.87,0-1.6,0.22-2.19,0.66s-0.88,0.97-0.88,1.59h-2.45c0-0.71,0.25-1.4,0.76-2.06
			c0.5-0.66,1.19-1.19,2.06-1.58c0.87-0.39,1.82-0.58,2.85-0.58c1.64,0,2.93,0.41,3.86,1.23c0.93,0.82,1.42,1.95,1.45,3.4v6.56
			c0,1.31,0.17,2.35,0.5,3.12v0.21H636.5z M632.45,68.21c0.76,0,1.49-0.2,2.17-0.59s1.18-0.91,1.49-1.54v-2.93h-1.91
			c-2.99,0-4.48,0.88-4.48,2.62c0,0.76,0.25,1.36,0.76,1.79S631.65,68.21,632.45,68.21z"/>
		<path class="st22" d="M649.27,57.99c-0.37-0.06-0.77-0.09-1.2-0.09c-1.6,0-2.69,0.68-3.26,2.04v10.12h-2.44V55.81h2.37l0.04,1.65
			c0.8-1.27,1.93-1.91,3.4-1.91c0.47,0,0.83,0.06,1.08,0.18V57.99z"/>
		<path class="st22" d="M659.79,70.07c-0.14-0.28-0.25-0.78-0.34-1.5c-1.13,1.18-2.49,1.77-4.06,1.77c-1.41,0-2.56-0.4-3.46-1.19
			c-0.9-0.79-1.35-1.8-1.35-3.03c0-1.49,0.56-2.64,1.69-3.46c1.13-0.82,2.72-1.23,4.77-1.23h2.37V60.3c0-0.85-0.25-1.53-0.76-2.04
			c-0.51-0.51-1.26-0.76-2.25-0.76c-0.87,0-1.6,0.22-2.19,0.66s-0.88,0.97-0.88,1.59h-2.45c0-0.71,0.25-1.4,0.76-2.06
			c0.5-0.66,1.19-1.19,2.06-1.58c0.87-0.39,1.82-0.58,2.85-0.58c1.64,0,2.93,0.41,3.86,1.23c0.93,0.82,1.42,1.95,1.45,3.4v6.56
			c0,1.31,0.17,2.35,0.5,3.12v0.21H659.79z M655.74,68.21c0.76,0,1.49-0.2,2.17-0.59s1.18-0.91,1.49-1.54v-2.93h-1.91
			c-2.99,0-4.48,0.88-4.48,2.62c0,0.76,0.25,1.36,0.76,1.79S654.94,68.21,655.74,68.21z"/>
		<path class="st22" d="M678.08,68.34c0.87,0,1.63-0.26,2.28-0.79s1.01-1.19,1.08-1.98h2.31c-0.04,0.82-0.33,1.6-0.84,2.33
			s-1.21,1.33-2.08,1.77c-0.87,0.44-1.78,0.66-2.75,0.66c-1.94,0-3.49-0.65-4.63-1.94c-1.15-1.3-1.72-3.07-1.72-5.32v-0.41
			c0-1.39,0.25-2.62,0.76-3.7c0.51-1.08,1.24-1.92,2.2-2.52c0.95-0.6,2.08-0.9,3.38-0.9c1.6,0,2.93,0.48,3.99,1.44
			c1.06,0.96,1.62,2.2,1.69,3.73h-2.31c-0.07-0.92-0.42-1.68-1.05-2.27c-0.63-0.59-1.4-0.89-2.33-0.89c-1.24,0-2.2,0.45-2.88,1.34
			c-0.68,0.89-1.02,2.18-1.02,3.87v0.46c0,1.64,0.34,2.91,1.01,3.8S676.82,68.34,678.08,68.34z"/>
		<path class="st22" d="M693.38,57.99c-0.37-0.06-0.77-0.09-1.2-0.09c-1.6,0-2.69,0.68-3.26,2.04v10.12h-2.44V55.81h2.37l0.04,1.65
			c0.8-1.27,1.93-1.91,3.4-1.91c0.47,0,0.83,0.06,1.08,0.18V57.99z"/>
		<path class="st22" d="M701.29,70.33c-1.93,0-3.51-0.63-4.72-1.91c-1.21-1.27-1.82-2.97-1.82-5.09v-0.45
			c0-1.41,0.27-2.68,0.81-3.79c0.54-1.11,1.3-1.98,2.27-2.61c0.97-0.63,2.02-0.94,3.16-0.94c1.85,0,3.3,0.61,4.32,1.83
			s1.54,2.97,1.54,5.25v1.02h-9.66c0.04,1.41,0.45,2.54,1.23,3.41c0.79,0.87,1.79,1.3,3,1.3c0.86,0,1.59-0.18,2.19-0.53
			c0.6-0.35,1.12-0.82,1.57-1.4l1.49,1.16C705.48,69.42,703.68,70.33,701.29,70.33z M700.99,57.55c-0.98,0-1.81,0.36-2.48,1.07
			c-0.67,0.72-1.08,1.72-1.24,3.01h7.15v-0.18c-0.07-1.24-0.4-2.2-1-2.88C702.82,57.89,702.01,57.55,700.99,57.55z"/>
		<path class="st22" d="M718.49,70.07c-0.14-0.28-0.25-0.78-0.34-1.5c-1.13,1.18-2.49,1.77-4.06,1.77c-1.41,0-2.56-0.4-3.46-1.19
			c-0.9-0.79-1.35-1.8-1.35-3.03c0-1.49,0.56-2.64,1.69-3.46c1.13-0.82,2.72-1.23,4.77-1.23h2.37V60.3c0-0.85-0.25-1.53-0.76-2.04
			c-0.51-0.51-1.26-0.76-2.25-0.76c-0.87,0-1.6,0.22-2.19,0.66s-0.88,0.97-0.88,1.59h-2.45c0-0.71,0.25-1.4,0.76-2.06
			c0.5-0.66,1.19-1.19,2.06-1.58c0.87-0.39,1.82-0.58,2.85-0.58c1.64,0,2.93,0.41,3.86,1.23c0.93,0.82,1.42,1.95,1.45,3.4v6.56
			c0,1.31,0.17,2.35,0.5,3.12v0.21H718.49z M714.44,68.21c0.76,0,1.49-0.2,2.17-0.59s1.18-0.91,1.49-1.54v-2.93h-1.91
			c-2.99,0-4.48,0.88-4.48,2.62c0,0.76,0.25,1.36,0.76,1.79S713.64,68.21,714.44,68.21z"/>
		<path class="st22" d="M731.26,57.99c-0.37-0.06-0.77-0.09-1.2-0.09c-1.6,0-2.69,0.68-3.26,2.04v10.12h-2.44V55.81h2.37l0.04,1.65
			c0.8-1.27,1.93-1.91,3.4-1.91c0.47,0,0.83,0.06,1.08,0.18V57.99z"/>
		<path class="st22" d="M619.61,97.66c-0.95,1.12-2.34,1.67-4.18,1.67c-1.52,0-2.68-0.44-3.47-1.32c-0.79-0.88-1.2-2.19-1.21-3.92
			v-9.28h2.44v9.21c0,2.16,0.88,3.24,2.64,3.24c1.86,0,3.1-0.69,3.72-2.08V84.81h2.44v14.26h-2.32L619.61,97.66z"/>
		<path class="st22" d="M627.99,84.81l0.08,1.79c1.09-1.37,2.51-2.06,4.27-2.06c3.01,0,4.54,1.7,4.56,5.1v9.43h-2.44v-9.44
			c-0.01-1.03-0.24-1.79-0.71-2.28c-0.46-0.49-1.18-0.74-2.16-0.74c-0.79,0-1.49,0.21-2.08,0.63s-1.06,0.98-1.4,1.66v10.16h-2.44
			V84.81H627.99z"/>
		<path class="st22" d="M659.32,92.1c0,2.17-0.5,3.92-1.49,5.25c-0.99,1.33-2.34,1.99-4.04,1.99c-1.73,0-3.09-0.55-4.09-1.65v6.87
			h-2.44V84.81h2.23l0.12,1.58c0.99-1.23,2.37-1.85,4.14-1.85c1.71,0,3.07,0.64,4.07,1.94c1,1.29,1.5,3.09,1.5,5.39V92.1z
			 M656.88,91.82c0-1.61-0.34-2.88-1.03-3.81s-1.63-1.4-2.82-1.4c-1.48,0-2.58,0.66-3.32,1.96v6.82c0.73,1.3,1.85,1.95,3.35,1.95
			c1.17,0,2.1-0.46,2.79-1.39C656.53,95.03,656.88,93.65,656.88,91.82z"/>
		<path class="st22" d="M669.31,86.99c-0.37-0.06-0.77-0.09-1.2-0.09c-1.6,0-2.69,0.68-3.26,2.04v10.12h-2.44V84.81h2.37l0.04,1.65
			c0.8-1.27,1.93-1.91,3.4-1.91c0.47,0,0.83,0.06,1.08,0.18V86.99z"/>
		<path class="st22" d="M670.64,91.81c0-1.4,0.28-2.65,0.82-3.77c0.55-1.12,1.31-1.98,2.29-2.58c0.98-0.61,2.1-0.91,3.36-0.91
			c1.94,0,3.51,0.67,4.71,2.02c1.2,1.35,1.8,3.13,1.8,5.37v0.17c0,1.39-0.27,2.63-0.8,3.74c-0.53,1.1-1.29,1.96-2.28,2.58
			c-0.99,0.62-2.12,0.92-3.41,0.92c-1.93,0-3.5-0.67-4.7-2.02c-1.2-1.34-1.8-3.12-1.8-5.34V91.81z M673.1,92.1
			c0,1.58,0.37,2.85,1.1,3.81c0.73,0.96,1.72,1.44,2.95,1.44c1.24,0,2.22-0.49,2.95-1.46s1.09-2.33,1.09-4.08
			c0-1.56-0.37-2.83-1.11-3.8c-0.74-0.97-1.73-1.46-2.96-1.46c-1.2,0-2.17,0.48-2.91,1.44C673.46,88.94,673.1,90.31,673.1,92.1z"/>
		<path class="st22" d="M691.16,95.5l3.32-10.69h2.61l-5.73,16.46c-0.89,2.37-2.3,3.56-4.23,3.56l-0.46-0.04l-0.91-0.17v-1.98
			l0.66,0.05c0.83,0,1.47-0.17,1.93-0.5c0.46-0.33,0.84-0.95,1.14-1.83l0.54-1.45l-5.09-14.11h2.66L691.16,95.5z"/>
		<path class="st22" d="M705.01,99.33c-1.93,0-3.51-0.63-4.72-1.9s-1.82-2.97-1.82-5.1v-0.45c0-1.41,0.27-2.68,0.81-3.79
			c0.54-1.11,1.3-1.98,2.27-2.61c0.97-0.63,2.02-0.94,3.16-0.94c1.85,0,3.3,0.61,4.32,1.83c1.03,1.22,1.54,2.97,1.54,5.25v1.02
			h-9.66c0.04,1.41,0.45,2.54,1.23,3.41c0.79,0.87,1.79,1.3,3,1.3c0.86,0,1.59-0.18,2.19-0.53c0.6-0.35,1.12-0.82,1.57-1.4
			l1.49,1.16C709.2,98.42,707.4,99.33,705.01,99.33z M704.71,86.55c-0.98,0-1.81,0.36-2.48,1.07s-1.08,1.72-1.24,3.01h7.15v-0.18
			c-0.07-1.24-0.4-2.2-1-2.88S705.73,86.55,704.71,86.55z"/>
		<path class="st22" d="M719.12,97.34c0.87,0,1.63-0.26,2.28-0.79s1.01-1.19,1.08-1.98h2.31c-0.04,0.82-0.33,1.6-0.84,2.33
			s-1.21,1.33-2.08,1.77c-0.87,0.44-1.78,0.66-2.75,0.66c-1.94,0-3.49-0.65-4.63-1.94c-1.15-1.3-1.72-3.07-1.72-5.32v-0.41
			c0-1.39,0.25-2.62,0.76-3.71c0.51-1.08,1.24-1.92,2.2-2.52c0.95-0.6,2.08-0.9,3.38-0.9c1.6,0,2.93,0.48,3.99,1.44
			c1.06,0.96,1.62,2.2,1.69,3.73h-2.31c-0.07-0.92-0.42-1.68-1.05-2.28c-0.63-0.59-1.4-0.89-2.33-0.89c-1.24,0-2.2,0.45-2.88,1.34
			c-0.68,0.89-1.02,2.18-1.02,3.87v0.46c0,1.64,0.34,2.91,1.01,3.8C716.9,96.9,717.86,97.34,719.12,97.34z"/>
		<path class="st22" d="M730.84,81.35v3.46h2.66v1.88h-2.66v8.86c0,0.57,0.12,1,0.36,1.29s0.64,0.43,1.21,0.43
			c0.28,0,0.67-0.05,1.16-0.16v1.97c-0.64,0.18-1.27,0.26-1.87,0.26c-1.09,0-1.91-0.33-2.46-0.99c-0.55-0.66-0.83-1.6-0.83-2.81
			v-8.85h-2.6v-1.88h2.6v-3.46H730.84z"/>
		<path class="st22" d="M735.44,91.81c0-1.4,0.28-2.65,0.82-3.77c0.55-1.12,1.31-1.98,2.29-2.58c0.98-0.61,2.1-0.91,3.36-0.91
			c1.94,0,3.51,0.67,4.71,2.02c1.2,1.35,1.8,3.13,1.8,5.37v0.17c0,1.39-0.27,2.63-0.8,3.74c-0.53,1.1-1.29,1.96-2.28,2.58
			c-0.99,0.62-2.12,0.92-3.41,0.92c-1.93,0-3.5-0.67-4.7-2.02c-1.2-1.34-1.8-3.12-1.8-5.34V91.81z M737.89,92.1
			c0,1.58,0.37,2.85,1.1,3.81c0.73,0.96,1.72,1.44,2.95,1.44c1.24,0,2.22-0.49,2.95-1.46s1.09-2.33,1.09-4.08
			c0-1.56-0.37-2.83-1.11-3.8c-0.74-0.97-1.73-1.46-2.96-1.46c-1.2,0-2.17,0.48-2.91,1.44C738.26,88.94,737.89,90.31,737.89,92.1z"
			/>
	</g>
</g>
</svg>
