<?xml version="1.0" encoding="utf-8"?>
<!-- Generator: Adobe Illustrator 25.4.1, SVG Export Plug-In . SVG Version: 6.00 Build 0)  -->
<svg version="1.1" id="Capa_1" xmlns="http://www.w3.org/2000/svg" xmlns:xlink="http://www.w3.org/1999/xlink" x="0px" y="0px"
	 viewBox="0 0 855.26 636.84" style="enable-background:new 0 0 855.26 636.84;" xml:space="preserve">
<style type="text/css">
	.st0{fill:#D1D2EC;}
	.st1{fill:#E6E6F0;}
	.st2{enable-background:new    ;}
	.st3{fill:#322A89;}
	.st4{clip-path:url(#SVGID_00000085237866815364022650000003706507723352122294_);}
	.st5{fill:#DC522A;}
	.st6{fill:#A7AACA;}
	.st7{fill:#E88C73;}
	.st8{clip-path:url(#SVGID_00000072260515287711411070000014441388755982957453_);}
	.st9{fill:#9B3B1F;}
	.st10{clip-path:url(#SVGID_00000127764632901329904890000015461413018842343340_);}
	.st11{clip-path:url(#SVGID_00000112619418002013355310000016227015740809968531_);}
	.st12{clip-path:url(#SVGID_00000113330437537334148290000003645260423040320648_);}
	.st13{fill:#4D4BCF;}
	.st14{clip-path:url(#SVGID_00000034805246891738398600000002140007455513196692_);enable-background:new    ;}
	.st15{clip-path:url(#SVGID_00000142859882738403228460000017040391638530576063_);enable-background:new    ;}
	.st16{clip-path:url(#SVGID_00000179625027464450590480000000583135073781068193_);enable-background:new    ;}
	.st17{clip-path:url(#SVGID_00000156565891287018673050000016159583768458682526_);enable-background:new    ;}
	.st18{clip-path:url(#SVGID_00000047039861486138769150000011421301984295584174_);}
	.st19{clip-path:url(#SVGID_00000086684393805115174170000005662741097971037578_);}
	.st20{clip-path:url(#SVGID_00000026150819188416863730000007609545417335464592_);}
	.st21{clip-path:url(#SVGID_00000048497473221861608520000001974052702013172137_);}
	.st22{clip-path:url(#SVGID_00000162323956018322963520000003569356805464649107_);}
	.st23{clip-path:url(#SVGID_00000039847301341341379290000017348847225176803746_);enable-background:new    ;}
	.st24{clip-path:url(#SVGID_00000116210426048410257260000000891471899794888870_);}
	.st25{fill:#F29A82;}
	.st26{clip-path:url(#SVGID_00000047050532815643460370000012922871743079562401_);enable-background:new    ;}
	.st27{clip-path:url(#SVGID_00000148642465865330162160000006037605959731954818_);enable-background:new    ;}
	.st28{fill:#C5C8EE;}
	.st29{clip-path:url(#SVGID_00000009551723244217633040000012719276058909457078_);enable-background:new    ;}
	.st30{clip-path:url(#SVGID_00000045591285572673355100000007890537956914786732_);enable-background:new    ;}
	.st31{clip-path:url(#SVGID_00000063629070595742639860000003313565847859498411_);enable-background:new    ;}
	.st32{fill:#FFFFFF;}
	.st33{fill:#E7A07D;}
	.st34{fill:#E8E9EE;}
	.st35{fill:#152F4E;}
	.st36{fill:#F37874;}
	.st37{fill:#F3B69A;}
	.st38{fill:#603813;}
	.st39{fill:#F3BDA5;}
	.st40{fill:#F3645F;}
	.st41{fill:#D8DAEE;}
	.st42{fill:#E9DFD8;}
	.st43{fill:#F3A600;}
	.st44{fill:#F3B000;}
	.st45{fill:#8C6239;}
	.st46{clip-path:url(#SVGID_00000088836437362763862780000009340088936684783773_);}
	.st47{clip-path:url(#SVGID_00000117644565906726830970000004354348613662989959_);}
	.st48{opacity:0.4;fill:#D6D3EC;}
	.st49{clip-path:url(#SVGID_00000067194540633778893030000004215941337512421531_);enable-background:new    ;}
	.st50{clip-path:url(#SVGID_00000135664242600542347000000005216737506780494516_);}
	.st51{clip-path:url(#SVGID_00000079466066696021879000000015952658231611792813_);}
	.st52{clip-path:url(#SVGID_00000109028267169820635250000018361173132381466292_);enable-background:new    ;}
	.st53{fill:url(#SVGID_00000043441444918937956940000012606316617825445541_);}
	.st54{fill:url(#SVGID_00000129924900512585183360000005480040162828022930_);}
	.st55{opacity:0.4;fill:#FFFFFF;}
	.st56{fill:#CC9758;}
	.st57{fill:#0F2649;}
</style>
<g>
	<polygon class="st0" points="593.63,542.46 220.03,587.34 110.55,283.6 484.15,238.71 	"/>
	<polygon class="st1" points="679.96,438.47 507.27,599.74 113.97,459.34 286.65,298.08 	"/>
	<g>
		<g>
			<g>
				<g class="st2">
					<g>
						<polygon class="st3" points="588.73,39.07 588.53,108.36 584.26,110.85 584.46,41.55 						"/>
					</g>
					<g class="st2">
						<defs>
							<path id="SVGID_1_" class="st2" d="M584.46,41.55l-0.2,69.3c-64.67-37.34-169.56-37.34-233.82,0.01l0.2-69.3
								C414.89,4.21,519.78,4.21,584.46,41.55z"/>
						</defs>
						<use xlink:href="#SVGID_1_"  style="overflow:visible;fill:#322A89;"/>
						<clipPath id="SVGID_00000165207954686210902070000002193067693120493996_">
							<use xlink:href="#SVGID_1_"  style="overflow:visible;"/>
						</clipPath>
						<g style="clip-path:url(#SVGID_00000165207954686210902070000002193067693120493996_);">
							<path class="st5" d="M584.46,41.55l-0.2,69.3c-36.02-20.8-84.51-30.01-131.51-27.64l0.2-69.3
								C499.95,11.54,548.44,20.76,584.46,41.55z"/>
							<path class="st5" d="M452.95,13.91l-0.2,69.3c-37.39,1.88-73.84,11.1-102.31,27.64l0.2-69.3
								C379.11,25.01,415.55,15.8,452.95,13.91z"/>
						</g>
					</g>
					<g>
						<polygon class="st5" points="350.63,41.56 350.44,110.85 166.37,217.82 166.57,148.52 						"/>
					</g>
					<g>
						<polygon class="st6" points="166.57,148.52 166.37,217.82 162.06,215.33 162.26,146.04 						"/>
					</g>
					<g>
						<path class="st7" d="M588.73,39.07l-4.28,2.48C519.78,4.21,414.89,4.21,350.63,41.56L166.57,148.52l-4.31-2.49L346.32,39.07
							c32.14-18.68,75.13-28.96,121.05-28.96C513.29,10.11,556.38,20.39,588.73,39.07z"/>
					</g>
				</g>
			</g>
			<g>
				<g class="st2">
					<g class="st2">
						<defs>
							<path id="SVGID_00000020390285608384302160000006638988530102772158_" class="st2" d="M239.72,92.35l17.82-10.36
								c5.86-3.41,14.17-2.06,23.45,3.3c4.81,2.78,9.87,6.63,14.99,11.45l-17.82,10.36c-5.12-4.82-10.19-8.67-14.99-11.45
								C253.89,90.29,245.58,88.94,239.72,92.35z"/>
						</defs>
						<use xlink:href="#SVGID_00000020390285608384302160000006638988530102772158_"  style="overflow:visible;fill:#9B3B1F;"/>
						<clipPath id="SVGID_00000127747860180018456700000017293678718039999397_">
							<use xlink:href="#SVGID_00000020390285608384302160000006638988530102772158_"  style="overflow:visible;"/>
						</clipPath>
						<g style="clip-path:url(#SVGID_00000127747860180018456700000017293678718039999397_);">
							<path class="st9" d="M239.72,92.35l17.82-10.36c5.86-3.41,14.17-2.06,23.45,3.3c4.81,2.78,9.87,6.63,14.99,11.45
								l-17.82,10.36c-5.12-4.82-10.19-8.67-14.99-11.45C253.89,90.29,245.58,88.94,239.72,92.35z"/>
						</g>
					</g>
					<g class="st2">
						<defs>
							<path id="SVGID_00000072970537135151653580000004053799150632179644_" class="st2" d="M278.16,107.1l17.82-10.36
								c35.07,31.53,70.35,57.55,105.64,77.92c35.29,20.38,70.6,35.12,105.74,44.12l-17.82,10.36c-35.13-9-70.44-23.74-105.74-44.12
								C348.51,164.64,313.23,138.63,278.16,107.1z"/>
						</defs>
						<use xlink:href="#SVGID_00000072970537135151653580000004053799150632179644_"  style="overflow:visible;fill:#9B3B1F;"/>
						<clipPath id="SVGID_00000038393008900899609370000008851100941243231109_">
							<use xlink:href="#SVGID_00000072970537135151653580000004053799150632179644_"  style="overflow:visible;"/>
						</clipPath>
						<g style="clip-path:url(#SVGID_00000038393008900899609370000008851100941243231109_);">
							<path class="st9" d="M278.16,107.1l17.82-10.36c35.07,31.53,70.35,57.55,105.64,77.92c35.29,20.38,70.6,35.12,105.74,44.12
								l-17.82,10.36c-35.13-9-70.44-23.74-105.74-44.12C348.51,164.64,313.23,138.63,278.16,107.1z"/>
						</g>
					</g>
					<g class="st2">
						<defs>
							<path id="SVGID_00000087370119098692443140000007714146280709632172_" class="st2" d="M489.54,229.13l17.82-10.36
								c5.13,1.1,10.2,3.1,15.01,5.87l-17.82,10.36C499.74,232.23,494.67,230.23,489.54,229.13z"/>
						</defs>
						<use xlink:href="#SVGID_00000087370119098692443140000007714146280709632172_"  style="overflow:visible;fill:#4D4BCF;"/>
						<clipPath id="SVGID_00000140723902709187072760000006330533355583034248_">
							<use xlink:href="#SVGID_00000087370119098692443140000007714146280709632172_"  style="overflow:visible;"/>
						</clipPath>
						<g style="clip-path:url(#SVGID_00000140723902709187072760000006330533355583034248_);">
							<path class="st9" d="M489.54,229.13l17.82-10.36c5.13,1.1,10.2,3.1,15.01,5.87l-17.82,10.36
								C499.74,232.23,494.67,230.23,489.54,229.13z"/>
						</g>
					</g>
					<g class="st2">
						<defs>
							<path id="SVGID_00000129916619903859476360000002757781270382262677_" class="st2" d="M545.32,405.07l-17.82,10.36
								c5.54-3.22,8.89-10.68,8.79-23.02c0.06-21.61,0.22-78.96,0.29-100.57c0.34-25.1-13.98-46.41-32.03-56.82l17.82-10.36
								c18.05,10.42,32.37,31.73,32.03,56.82c-0.06,21.61-0.22,78.96-0.29,100.57C554.2,394.39,550.85,401.85,545.32,405.07z"/>
						</defs>
						<use xlink:href="#SVGID_00000129916619903859476360000002757781270382262677_"  style="overflow:visible;fill:#322A89;"/>
						<clipPath id="SVGID_00000169537253872155903340000004848917374409356694_">
							<use xlink:href="#SVGID_00000129916619903859476360000002757781270382262677_"  style="overflow:visible;"/>
						</clipPath>
						<g style="clip-path:url(#SVGID_00000169537253872155903340000004848917374409356694_);">
							<path class="st9" d="M504.55,235.01l17.82-10.36c18.05,10.42,32.37,31.73,32.03,56.82c-0.06,21.61-0.22,78.96-0.29,100.57
								c0.1,12.34-3.25,19.81-8.79,23.02l-17.82,10.36c5.54-3.22,8.89-10.68,8.79-23.02c0.06-21.61,0.22-78.96,0.29-100.57
								C536.91,266.73,522.59,245.43,504.55,235.01z"/>
						</g>
					</g>
					<g>
						<path class="st13" d="M504.55,235.01c18.05,10.42,32.37,31.73,32.03,56.82c-0.06,21.61-0.22,78.96-0.29,100.57
							c0.2,25.4-14.2,30.14-32.24,19.72c-4.81-2.78-9.88-6.63-15-11.45c-35.07-31.53-70.35-57.54-105.64-77.92
							c-35.29-20.38-70.6-35.12-105.74-44.12c-5.13-1.09-10.21-3.1-15.01-5.87c-18.04-10.42-32.36-31.73-32.02-56.82
							c0.06-21.61,0.22-78.96,0.29-100.57c-0.2-25.41,14.2-30.14,32.24-19.72c4.81,2.78,9.87,6.63,14.99,11.45
							c35.07,31.53,70.35,57.54,105.64,77.92c35.29,20.38,70.6,35.12,105.74,44.12C494.67,230.23,499.74,232.23,504.55,235.01z"/>
					</g>
				</g>
			</g>
			<g>
				<g class="st2">
					<g class="st2">
						<defs>
							<path id="SVGID_00000042739133547589595530000009428626321982750655_" class="st2" d="M150.76,144.07l89.1-51.78
								c5.86-3.41,14.18-2.06,23.45,3.3c4.81,2.78,9.87,6.62,14.99,11.45l-89.1,51.78c-5.12-4.82-10.18-8.67-14.99-11.45
								C164.94,142.02,156.63,140.67,150.76,144.07z"/>
						</defs>
						<use xlink:href="#SVGID_00000042739133547589595530000009428626321982750655_"  style="overflow:visible;fill:#E6E6F0;"/>
						<clipPath id="SVGID_00000037660421738307802150000000849926975956805769_">
							<use xlink:href="#SVGID_00000042739133547589595530000009428626321982750655_"  style="overflow:visible;"/>
						</clipPath>
						<g style="clip-path:url(#SVGID_00000037660421738307802150000000849926975956805769_);enable-background:new    ;">
							<path class="st1" d="M150.76,144.07l89.1-51.78c5.86-3.41,14.18-2.06,23.45,3.3c4.81,2.78,9.87,6.62,14.99,11.45l-89.1,51.78
								c-5.12-4.82-10.18-8.67-14.99-11.45C164.94,142.02,156.63,140.67,150.76,144.07z"/>
						</g>
					</g>
					<g class="st2">
						<defs>
							<path id="SVGID_00000033349861099540320310000014978119569474595496_" class="st2" d="M189.21,158.82l89.1-51.78
								c35.07,31.53,70.35,57.55,105.64,77.92c35.3,20.38,70.61,35.12,105.74,44.12l-89.1,51.78c-35.13-9-70.44-23.74-105.74-44.12
								C259.55,216.37,224.28,190.36,189.21,158.82z"/>
						</defs>
						<use xlink:href="#SVGID_00000033349861099540320310000014978119569474595496_"  style="overflow:visible;fill:#E6E6F0;"/>
						<clipPath id="SVGID_00000031173212341089428860000006471566073388014221_">
							<use xlink:href="#SVGID_00000033349861099540320310000014978119569474595496_"  style="overflow:visible;"/>
						</clipPath>
						<g style="clip-path:url(#SVGID_00000031173212341089428860000006471566073388014221_);enable-background:new    ;">
							<path class="st1" d="M189.21,158.82l89.1-51.78c35.07,31.53,70.35,57.55,105.64,77.92c35.3,20.38,70.61,35.12,105.74,44.12
								l-89.1,51.78c-35.13-9-70.44-23.74-105.74-44.12C259.55,216.37,224.28,190.36,189.21,158.82z"/>
						</g>
					</g>
					<g class="st2">
						<defs>
							<path id="SVGID_00000044167164227097237010000006547388871325927060_" class="st2" d="M400.59,280.86l89.1-51.78
								c5.13,1.09,10.2,3.1,15.01,5.87l-89.1,51.78C410.79,283.96,405.72,281.96,400.59,280.86z"/>
						</defs>
						<use xlink:href="#SVGID_00000044167164227097237010000006547388871325927060_"  style="overflow:visible;fill:#E6E6F0;"/>
						<clipPath id="SVGID_00000116944292208663957760000013552962512479684505_">
							<use xlink:href="#SVGID_00000044167164227097237010000006547388871325927060_"  style="overflow:visible;"/>
						</clipPath>
						<g style="clip-path:url(#SVGID_00000116944292208663957760000013552962512479684505_);enable-background:new    ;">
							<path class="st1" d="M400.59,280.86l89.1-51.78c5.13,1.09,10.2,3.1,15.01,5.87l-89.1,51.78
								C410.79,283.96,405.72,281.96,400.59,280.86z"/>
						</g>
					</g>
					<g class="st2">
						<defs>
							<path id="SVGID_00000141443479024228925930000004811723424041055390_" class="st2" d="M527.65,415.38l-89.1,51.78
								c5.54-3.22,8.88-10.68,8.79-23.01c0.06-21.62,0.22-78.97,0.28-100.58c0.34-25.1-13.98-46.41-32.03-56.83l89.1-51.78
								c18.04,10.42,32.37,31.73,32.03,56.83c-0.06,21.61-0.22,78.96-0.29,100.58C536.53,404.7,533.18,412.16,527.65,415.38z"/>
						</defs>
						<use xlink:href="#SVGID_00000141443479024228925930000004811723424041055390_"  style="overflow:visible;fill:#D1D2EC;"/>
						<clipPath id="SVGID_00000075869301709675791390000005848830570057126805_">
							<use xlink:href="#SVGID_00000141443479024228925930000004811723424041055390_"  style="overflow:visible;"/>
						</clipPath>
						<g style="clip-path:url(#SVGID_00000075869301709675791390000005848830570057126805_);enable-background:new    ;">
							<path class="st0" d="M415.59,286.73l89.1-51.78c18.04,10.42,32.37,31.73,32.03,56.83c-0.06,21.61-0.22,78.96-0.29,100.58
								c0.1,12.34-3.25,19.8-8.79,23.01l-89.1,51.78c5.54-3.22,8.88-10.68,8.79-23.01c0.06-21.62,0.22-78.97,0.28-100.58
								C447.96,318.46,433.64,297.15,415.59,286.73z"/>
						</g>
					</g>
					<g>
						<path class="st1" d="M415.59,286.73c18.04,10.42,32.37,31.73,32.03,56.83c-0.06,21.61-0.22,78.96-0.28,100.58
							c0.2,25.4-14.2,30.13-32.24,19.71c-4.81-2.78-9.88-6.63-14.99-11.45c-35.07-31.53-70.34-57.54-105.63-77.91
							c-35.3-20.38-70.61-35.12-105.75-44.13c-5.13-1.09-10.2-3.1-15.01-5.87c-18.04-10.42-32.36-31.73-32.02-56.82
							c0.06-21.62,0.22-78.97,0.29-100.58c-0.19-25.4,14.21-30.13,32.25-19.72c4.81,2.78,9.87,6.62,14.99,11.45
							c35.07,31.53,70.35,57.55,105.64,77.92c35.29,20.38,70.61,35.12,105.74,44.12C405.72,281.96,410.79,283.96,415.59,286.73z"/>
					</g>
				</g>
			</g>
			<g>
				<g class="st2">
					<g class="st2">
						<defs>
							<path id="SVGID_00000123443452932775193960000006075493751062754197_" class="st2" d="M140.75,150.05l44.55-25.89
								c6.7-3.89,15.05-4.22,24.54,1.25c0.38,0.22,0.76,0.45,1.14,0.68l-44.55,25.89c-0.38-0.24-0.76-0.47-1.14-0.68
								C155.8,145.83,147.45,146.16,140.75,150.05z"/>
						</defs>
						<use xlink:href="#SVGID_00000123443452932775193960000006075493751062754197_"  style="overflow:visible;fill:#E88C73;"/>
						<clipPath id="SVGID_00000097483049308205960270000007747332950187875498_">
							<use xlink:href="#SVGID_00000123443452932775193960000006075493751062754197_"  style="overflow:visible;"/>
						</clipPath>
						<g style="clip-path:url(#SVGID_00000097483049308205960270000007747332950187875498_);">
							<path class="st5" d="M140.75,150.05l44.55-25.89c6.7-3.89,15.05-4.22,24.54,1.25c0.38,0.22,0.76,0.45,1.14,0.68l-44.55,25.89
								c-0.38-0.24-0.76-0.47-1.14-0.68C155.8,145.83,147.45,146.16,140.75,150.05z"/>
						</g>
					</g>
					<g class="st2">
						<defs>
							<path id="SVGID_00000106148915059191718210000006850463179772214203_" class="st2" d="M452.66,466.43l-44.55,25.89
								c10.36-6.02,16.78-19.9,16.35-35.73l44.55-25.89C469.44,446.54,463.02,460.41,452.66,466.43z"/>
						</defs>
						<use xlink:href="#SVGID_00000106148915059191718210000006850463179772214203_"  style="overflow:visible;fill:#DC522A;"/>
						<clipPath id="SVGID_00000165213760043997461680000003997522143578750134_">
							<use xlink:href="#SVGID_00000106148915059191718210000006850463179772214203_"  style="overflow:visible;"/>
						</clipPath>
						<g style="clip-path:url(#SVGID_00000165213760043997461680000003997522143578750134_);">
							<path class="st5" d="M424.46,456.6l44.55-25.89c0.43,15.83-6,29.71-16.35,35.73l-44.55,25.89
								C418.47,486.3,424.89,472.43,424.46,456.6z"/>
						</g>
					</g>
					<g class="st2">
						<defs>
							<path id="SVGID_00000034065473283262358620000011427395542926744192_" class="st2" d="M166.43,151.99l44.55-25.89
								c3.43,1.91,6.86,3.86,10.29,5.84c31.14,17.98,62.23,38.53,93.38,56.51c31.15,17.99,70.56,37.65,101.69,55.62l-44.55,25.89
								c-31.14-17.98-70.54-37.64-101.69-55.62c-31.15-17.98-62.24-38.53-93.38-56.51C173.29,155.85,169.86,153.9,166.43,151.99z"/>
						</defs>
						<use xlink:href="#SVGID_00000034065473283262358620000011427395542926744192_"  style="overflow:visible;fill:#6462DC;"/>
						<clipPath id="SVGID_00000149376583492178731770000013290808422126801059_">
							<use xlink:href="#SVGID_00000034065473283262358620000011427395542926744192_"  style="overflow:visible;"/>
						</clipPath>
						<g style="clip-path:url(#SVGID_00000149376583492178731770000013290808422126801059_);">
							<path class="st5" d="M166.43,151.99l44.55-25.89c3.43,1.91,6.86,3.86,10.29,5.84c31.14,17.98,62.23,38.53,93.38,56.51
								c31.15,17.99,70.56,37.65,101.69,55.62l-44.55,25.89c-31.14-17.98-70.54-37.64-101.69-55.62
								c-31.15-17.98-62.24-38.53-93.38-56.51C173.29,155.85,169.86,153.9,166.43,151.99z"/>
						</g>
					</g>
					<g class="st2">
						<defs>
							<path id="SVGID_00000160162589196882210940000009869232919798453405_" class="st2" d="M424.74,360.19l44.55-25.89
								c-0.09,32.14-0.18,64.27-0.27,96.41l-44.55,25.89C424.55,424.46,424.65,392.32,424.74,360.19z"/>
						</defs>
						<use xlink:href="#SVGID_00000160162589196882210940000009869232919798453405_"  style="overflow:visible;fill:#322A89;"/>
						<clipPath id="SVGID_00000123409392939907493060000016738716770170354616_">
							<use xlink:href="#SVGID_00000160162589196882210940000009869232919798453405_"  style="overflow:visible;"/>
						</clipPath>
						<g style="clip-path:url(#SVGID_00000123409392939907493060000016738716770170354616_);">
							<path class="st5" d="M424.74,360.19l44.55-25.89c-0.09,32.14-0.18,64.27-0.27,96.41l-44.55,25.89
								C424.55,424.46,424.65,392.32,424.74,360.19z"/>
						</g>
					</g>
					<g class="st2">
						<defs>
							<path id="SVGID_00000119098619781298248650000016381303256512641921_" class="st2" d="M371.79,269.96l44.55-25.89
								c3.43,1.98,6.86,3.99,10.29,6.04c24.58,14.88,43.54,58.16,42.66,84.18l-44.55,25.89c0.88-26.02-18.07-69.3-42.66-84.18
								C378.65,273.95,375.22,271.94,371.79,269.96z"/>
						</defs>
						<use xlink:href="#SVGID_00000119098619781298248650000016381303256512641921_"  style="overflow:visible;fill:#322A89;"/>
						<clipPath id="SVGID_00000085209818156199501850000017035934282089798558_">
							<use xlink:href="#SVGID_00000119098619781298248650000016381303256512641921_"  style="overflow:visible;"/>
						</clipPath>
						<g style="clip-path:url(#SVGID_00000085209818156199501850000017035934282089798558_);">
							<path class="st5" d="M371.79,269.96l44.55-25.89c3.43,1.98,6.86,3.99,10.29,6.04c24.58,14.88,43.54,58.16,42.66,84.18
								l-44.55,25.89c0.88-26.02-18.07-69.3-42.66-84.18C378.65,273.95,375.22,271.94,371.79,269.96z"/>
						</g>
					</g>
					<g>
						<path class="st7" d="M371.79,269.96c3.43,1.98,6.86,3.99,10.29,6.04c24.58,14.88,43.54,58.16,42.66,84.18
							c-0.09,32.14-0.18,64.27-0.27,96.41c0.73,26.95-18.41,48.24-42.99,34.73c-3.43-1.91-6.86-3.86-10.29-5.84
							c-31.14-17.98-70.52-42.83-101.68-60.82c-31.15-17.98-62.26-33.34-93.39-51.32c-3.43-1.98-6.86-3.99-10.29-6.04
							c-0.38-0.2-0.76-0.41-1.13-0.63c-24.64-14.23-41.42-58.67-41.52-83.55c0.09-32.14,0.18-64.27,0.27-96.41
							c0.24-24.69,17.21-49.64,41.84-35.42c0.38,0.22,0.76,0.45,1.14,0.68c3.43,1.91,6.86,3.86,10.29,5.84
							c31.14,17.98,62.23,38.53,93.38,56.51C301.25,232.32,340.65,251.99,371.79,269.96z"/>
					</g>
				</g>
			</g>
			<g>
				<g class="st2">
					<g>
						<polygon class="st5" points="687.83,101.24 687.64,170.53 584.26,110.85 584.46,41.55 						"/>
					</g>
					<g class="st2">
						<defs>
							<path id="SVGID_00000176754890829920533070000004907012742102769289_" class="st2" d="M736.57,169.43l-0.2,69.3
								c0.07-24.68-16.19-49.4-48.73-68.19l0.2-69.3C720.38,120.03,736.64,144.75,736.57,169.43z"/>
						</defs>
						<use xlink:href="#SVGID_00000176754890829920533070000004907012742102769289_"  style="overflow:visible;fill:#DC522A;"/>
						<clipPath id="SVGID_00000160906306839610513830000004687994391242540429_">
							<use xlink:href="#SVGID_00000176754890829920533070000004907012742102769289_"  style="overflow:visible;"/>
						</clipPath>
						<g style="clip-path:url(#SVGID_00000160906306839610513830000004687994391242540429_);enable-background:new    ;">
							<path class="st5" d="M736.57,169.43l-0.2,69.3c0.06-22.15-13.02-44.33-39.24-62.23l0.2-69.3
								C723.54,125.1,736.63,147.28,736.57,169.43z"/>
							<path class="st5" d="M697.33,107.2l-0.2,69.3c-2.99-2.04-6.16-4.03-9.5-5.96l0.2-69.3
								C691.17,103.16,694.34,105.15,697.33,107.2z"/>
						</g>
					</g>
					<g class="st2">
						<defs>
							<path id="SVGID_00000134227382853567460290000009697574677068029587_" class="st2" d="M742.51,168.96l-0.2,69.3
								c0.14,26.6-17.48,51.53-49.62,70.21l0.2-69.3C725.04,220.49,742.66,195.55,742.51,168.96z"/>
						</defs>
						<clipPath id="SVGID_00000072998088554131905430000010845882562274056584_">
							<use xlink:href="#SVGID_00000134227382853567460290000009697574677068029587_"  style="overflow:visible;"/>
						</clipPath>
						<g style="clip-path:url(#SVGID_00000072998088554131905430000010845882562274056584_);">
							<path class="st25" d="M742.51,168.96l-0.2,69.3c0.14,26.6-17.48,51.53-49.62,70.21l0.2-69.3
								C725.04,220.49,742.66,195.55,742.51,168.96z"/>
						</g>
					</g>
					<g>
						<polygon class="st6" points="508.83,346.13 508.64,415.43 504.33,412.94 504.53,343.65 						"/>
					</g>
					<g>
						<polygon class="st25" points="692.9,239.16 692.7,308.46 508.64,415.43 508.83,346.13 						"/>
					</g>
					<g>
						<path class="st7" d="M692.11,98.75c32.35,18.68,50.25,43.61,50.41,70.21c0.14,26.59-17.48,51.53-49.61,70.21L508.83,346.13
							l-4.3-2.48L688.6,236.68c64.26-37.34,63.92-98.1-0.76-135.44L584.46,41.55l4.28-2.48L692.11,98.75z"/>
					</g>
				</g>
			</g>
			<g>
				<g class="st2">
					<g class="st2">
						<defs>
							<path id="SVGID_00000031187368657927637220000013646068251916890502_" class="st2" d="M525.65,332.41l13.36,7.77
								c-5.72-3.33-13.65-2.86-22.4,2.19l-13.36-7.77C512,329.55,519.92,329.08,525.65,332.41z"/>
						</defs>
						<use xlink:href="#SVGID_00000031187368657927637220000013646068251916890502_"  style="overflow:visible;fill:#E6E6F0;"/>
						<clipPath id="SVGID_00000130644976752584530970000005565831046378201234_">
							<use xlink:href="#SVGID_00000031187368657927637220000013646068251916890502_"  style="overflow:visible;"/>
						</clipPath>
						<g style="clip-path:url(#SVGID_00000130644976752584530970000005565831046378201234_);enable-background:new    ;">
							<path class="st1" d="M516.61,342.37l-13.36-7.77c8.75-5.05,16.68-5.52,22.4-2.19l13.36,7.77
								C533.29,336.85,525.36,337.31,516.61,342.37z"/>
						</g>
					</g>
					<g class="st2">
						<defs>
							<path id="SVGID_00000145742945321361537180000001324260509970157718_" class="st2" d="M494.42,416.88l-13.37-7.77
								c-5.65-3.28-9.15-10.26-9.18-20.19c-0.06-19.97,13.99-44.3,31.37-54.33l13.36,7.77c-17.38,10.03-31.42,34.36-31.37,54.33
								C485.27,406.62,488.78,413.6,494.42,416.88z"/>
						</defs>
						<use xlink:href="#SVGID_00000145742945321361537180000001324260509970157718_"  style="overflow:visible;fill:#E6E6F0;"/>
						<clipPath id="SVGID_00000172424179543571267700000002887398427788764058_">
							<use xlink:href="#SVGID_00000145742945321361537180000001324260509970157718_"  style="overflow:visible;"/>
						</clipPath>
						<g style="clip-path:url(#SVGID_00000172424179543571267700000002887398427788764058_);enable-background:new    ;">
							<path class="st1" d="M494.42,416.88l-13.37-7.77c-5.37-3.12-8.81-9.6-9.15-18.77l13.36,7.77
								C485.62,407.29,489.05,413.76,494.42,416.88z"/>
							<path class="st1" d="M485.27,398.11l-13.36-7.77c-0.02-0.47-0.03-0.94-0.03-1.42c-0.05-18.15,11.54-39.9,26.7-51.24
								l13.36,7.77c-15.16,11.35-26.76,33.1-26.7,51.24C485.25,397.18,485.25,397.65,485.27,398.11z"/>
							<path class="st1" d="M511.95,345.45l-13.36-7.77c1.52-1.14,3.08-2.17,4.66-3.09l13.36,7.77
								C515.03,343.28,513.47,344.32,511.95,345.45z"/>
						</g>
					</g>
					<g>
						<path class="st28" d="M516.61,342.37c17.39-10.04,31.52-1.98,31.58,17.99c0.06,19.98-13.99,44.3-31.37,54.33
							c-17.38,10.03-31.51,1.98-31.57-17.99C485.19,376.73,499.23,352.4,516.61,342.37z"/>
					</g>
				</g>
			</g>
			<g>
				<g class="st2">
					<g class="st2">
						<defs>
							<path id="SVGID_00000026875500467163087310000000792378745669098431_" class="st2" d="M669.57,255.86l6.93,4.03
								c-1.68-0.98-4.02-0.84-6.59,0.64l-6.93-4.03C665.55,255.02,667.88,254.88,669.57,255.86z"/>
						</defs>
						<use xlink:href="#SVGID_00000026875500467163087310000000792378745669098431_"  style="overflow:visible;fill:#E6E6F0;"/>
						<clipPath id="SVGID_00000048473974763411781100000012358472026559812498_">
							<use xlink:href="#SVGID_00000026875500467163087310000000792378745669098431_"  style="overflow:visible;"/>
						</clipPath>
						<g style="clip-path:url(#SVGID_00000048473974763411781100000012358472026559812498_);enable-background:new    ;">
							<path class="st1" d="M669.91,260.53l-6.93-4.03c2.57-1.48,4.9-1.62,6.59-0.64l6.93,4.03
								C674.81,258.9,672.48,259.04,669.91,260.53z"/>
						</g>
					</g>
					<g class="st2">
						<defs>
							<path id="SVGID_00000055669651178223504720000011663594758083074953_" class="st2" d="M601.7,368.47l-6.93-4.03
								c-1.66-0.97-2.69-3.02-2.7-5.94l6.93,4.03C599.01,365.45,600.04,367.5,601.7,368.47z"/>
						</defs>
						<use xlink:href="#SVGID_00000055669651178223504720000011663594758083074953_"  style="overflow:visible;fill:#D1D2EC;"/>
						<clipPath id="SVGID_00000049908912517865170510000015672829177985514941_">
							<use xlink:href="#SVGID_00000055669651178223504720000011663594758083074953_"  style="overflow:visible;"/>
						</clipPath>
						<g style="clip-path:url(#SVGID_00000049908912517865170510000015672829177985514941_);enable-background:new    ;">
							<path class="st0" d="M601.7,368.47l-6.93-4.03c-1.58-0.92-2.59-2.82-2.69-5.52l6.93,4.03
								C599.11,365.65,600.12,367.55,601.7,368.47z"/>
							<path class="st0" d="M599.01,362.95l-6.93-4.03c-0.01-0.14-0.01-0.28-0.01-0.42l6.93,4.03
								C599,362.67,599,362.81,599.01,362.95z"/>
						</g>
					</g>
					<g>
						<polygon class="st0" points="599,362.53 592.07,358.5 591.93,308.22 598.86,312.24 						"/>
					</g>
					<g>
						<polygon class="st1" points="608.08,296.26 601.16,292.23 662.98,256.5 669.91,260.53 						"/>
					</g>
					<g class="st2">
						<defs>
							<path id="SVGID_00000107555473918429913860000007002356676295929502_" class="st2" d="M598.86,312.24l-6.93-4.03
								c-0.02-5.88,4.11-13.03,9.23-15.98l6.93,4.03C602.97,299.21,598.84,306.37,598.86,312.24z"/>
						</defs>
						<use xlink:href="#SVGID_00000107555473918429913860000007002356676295929502_"  style="overflow:visible;fill:#E6E6F0;"/>
						<clipPath id="SVGID_00000020375109074452729950000012824635354099009214_">
							<use xlink:href="#SVGID_00000107555473918429913860000007002356676295929502_"  style="overflow:visible;"/>
						</clipPath>
						<g style="clip-path:url(#SVGID_00000020375109074452729950000012824635354099009214_);enable-background:new    ;">
							<path class="st1" d="M598.86,312.24l-6.93-4.03c-0.02-5.34,3.39-11.74,7.85-15.07l6.93,4.03
								C602.25,300.51,598.84,306.9,598.86,312.24z"/>
							<path class="st1" d="M606.71,297.17l-6.93-4.03c0.45-0.34,0.91-0.64,1.37-0.91l6.93,4.03
								C607.62,296.53,607.16,296.83,606.71,297.17z"/>
						</g>
					</g>
					<g>
						<path class="st28" d="M669.91,260.53c5.11-2.95,9.27-0.58,9.29,5.29l0.14,50.29c0.02,5.88-4.12,13.04-9.23,15.98l-61.83,35.73
							c-5.12,2.95-9.27,0.58-9.29-5.29l-0.14-50.29c-0.02-5.88,4.11-13.03,9.23-15.98L669.91,260.53z"/>
					</g>
				</g>
			</g>
		</g>
		<g>
			<path class="st32" d="M219.17,263.92l13.53,60.4l14.37-44.29l12.35,7.13l-20.07,58.66l-13.46-7.77l-19.07-81.25L219.17,263.92z"
				/>
			<path class="st32" d="M265.17,290.48l26.61,15.37c9.49,5.48,16.56,14.69,16.56,31.46c0,17.39-6.31,15.81-9.69,15.09l11.52,34.31
				l-13.09-7.56l-10.06-32.39l-10.22-7.25v27.92l-11.64-6.72L265.17,290.48z M290.64,336.95c4.05,2.34,5.98,2.08,5.98-6.41
				c0-7.98-2.33-11.3-5.98-13.41l-13.79-7.96v19.82L290.64,336.95z"/>
		</g>
	</g>
	<g>
		<g>
			<path d="M55.2,297.87c1.2,3.35,1.3,6.91,1.57,10.4c0.27,3.49,0.78,7.12,2.64,10.17c-2.9-1.12-5.44-3.42-6.93-6.27
				c-1.06-2.02-1.56-4.3-2.76-6.26c-1.15-1.88-2.77-2.86-4.38-4.23c-2.28-1.94-3.6-4.44-2.67-7.33
				C45.09,286.8,53.23,292.38,55.2,297.87z"/>
		</g>
		<g>
			<path class="st33" d="M62.99,360.4c-0.31-0.3-0.16-0.12-0.57-0.31c-1.31-0.58-1.82,0.02-2.71,0.14c-0.5,0.07-0.94,0.32-1.04,0.76
				c-1.37,5.68,0.09,7.46,0.38,6.61c0.22-0.65,0.13-1.38,0.52-1.97c0.53,0.31-0.25,2.93,0.97,3.55c1.52,0.77,3.42,2.28,3.92,0.66
				c0.32-1.03,0.14-1.62-0.82-7.93C63.6,361.71,62.79,360.51,62.99,360.4z"/>
		</g>
		<g>
			<path class="st33" d="M58.17,326.96c-1.93-10.27-16.24-14.1-9.23,4.8c0.78,2.09,3,9.01,4.85,13.59c0.98,2.42,4.71-0.37,5.42-1.1
				C61.6,341.81,60.24,338.02,58.17,326.96z"/>
		</g>
		<g>
			<path class="st33" d="M63.24,362.37c0.37,1.47-0.61-0.67-2.07,0.26c-2.35,1.49-2.51-1.03-6.3-12.3c-0.84-2.51-0.7-4.23-1.77-7.64
				c-0.28-0.9,0.08-1.93,0.81-2.65c1.36-1.34,5.51-4.76,6.14-3.29c0.52,1.22,1.33,6.63,1.83,8.13
				C63.39,349.32,62.45,359.23,63.24,362.37z"/>
		</g>
		<g id="character_00000182520496712885031280000017329808415922934915_">
			<g>
				<g>
					<path class="st33" d="M54.74,414.23c-4.73-4.46-3.71-6.16-2.91-11.15c1-4.9,1.6-12.6,4.39-22.75c0.45-1.63,1.76-4.06,1.27-5.75
						c-1.19-4.08-6.66-7.3-9.24-4.19c-1.07,1.28-0.98,3.13-1.3,4.77c-0.82,4.24-4.27,6.28-1.66,30.6c0.05,0.48,0.11,1.1,0.25,1.69
						c-0.04,0.34-0.1,0.8-0.33,1.51c-0.49,1.49-2.05,5.03-0.12,7.17c1.04,1.16,2.69,1.38,4.05,1.97c2.74,1.17,4.24,4.79,7.57,4.65
						c1.92-0.08,4.33-2.2,4.49-3.06C61.56,417.8,56.38,415.79,54.74,414.23z"/>
				</g>
				<g>
					<path class="st33" d="M33.3,319.55c2.25-1.02,3.07-1.59,5.44-2.12c0.38-0.09,1.67,0.4,2.06,0.32c2.88-0.61,5.94-0.47,8.61,0.7
						c0.03,0.01,0.06,0.03,0.09,0.04v17.67H32.58L33.3,319.55z"/>
				</g>
				<g>
					<path class="st33" d="M42.48,376.47c0.25,12.1-3.92,32.58-3.32,41.18c0.1,1.38-3.37,2.1-4.57,1.4
						c-0.83-0.48-1.41-0.3-1.45-1.26c-0.4-9.11-5.71-18.94-2.45-34.19c0.24-1.11,1.09-2.18,2.21-2.41L42.48,376.47z"/>
				</g>
				<g>
					<path class="st33" d="M38.84,414.52c0.11,4.84,3.59,8.88,6.09,12.78c0.38,0.6-0.26,1.82-0.3,2.53
						c-0.06,0.91,0.55,1.81-4.15,2.13c-2.26,0.15-3.28,0.33-6.45-6.85c-0.67-1.52-2.05-2.65-1.9-4.47c0.11-1.4,1.14-2.57,1.36-3.95
						c0.25-1.55-0.46-3.38,0.57-4.56c0.96-1.1,3.11-1.03,4.26,0.99L38.84,414.52z"/>
				</g>
				<g>
					<path class="st33" d="M44.93,427.3c-2.11-3.29-4.92-6.68-5.81-10.56c-0.28-9.05,3.6-28.58,3.36-40.27l-9.58,4.72
						c-1.11,0.23-1.97,1.3-2.21,2.41c-3.27,15.25,2.05,25.07,2.45,34.19c-0.39,0.95-0.95,1.84-1.03,2.86
						c-0.14,1.83,1.23,2.96,1.9,4.47c3.17,7.18,4.2,7,6.45,6.85c4.71-0.32,4.1-1.22,4.15-2.13C44.67,429.12,45.31,427.9,44.93,427.3
						z"/>
				</g>
				<g>
					<path class="st34" d="M54.74,414.23c-3.42-3.22-3.83-5.01-3.5-7.64c-1.63,1.35-3.83,1.82-5.71,0.77
						c0.01,0.03,0.01,0.05,0.02,0.08c-0.04,0.34-0.1,0.8-0.33,1.51c-0.49,1.49-2.05,5.03-0.12,7.17c1.04,1.16,2.69,1.38,4.05,1.97
						c2.74,1.17,4.24,4.79,7.57,4.65c1.92-0.08,4.33-2.2,4.49-3.06C61.56,417.8,56.38,415.79,54.74,414.23z"/>
				</g>
				<g>
					<path class="st34" d="M44.93,427.3c-2.11-3.29-4.92-6.68-5.81-10.56c-0.02-0.82-0.01-1.72,0.02-2.69
						c-2,1.24-4.57,1.31-6.44-0.24c0.22,1.35,0.38,2.67,0.44,3.98c-0.39,0.95-0.95,1.84-1.03,2.86c-0.14,1.83,1.23,2.96,1.9,4.47
						c3.17,7.18,4.2,7,6.45,6.85c4.71-0.32,4.1-1.22,4.15-2.13C44.67,429.12,45.31,427.9,44.93,427.3z"/>
				</g>
				<g>
					<path class="st35" d="M44.93,427.3c-0.87-1.35-1.85-2.72-2.77-4.13c0.2,2.19-0.4,3.97-2.93,3.82
						c-4.46-0.01-4.82-5.32-6.08-9.21c-0.39,0.94-0.95,1.84-1.03,2.86c-0.14,1.83,1.23,2.96,1.9,4.47c0.57,1.29,2.71,5.88,3.91,6.79
						C40.65,434,48.04,432.16,44.93,427.3z"/>
				</g>
				<g>
					<path class="st36" d="M57.36,361.16c-0.62-4.5-3.46-36.78-5.47-41.33c-0.94-2.14-3.88-2.63-6-2.69
						c-1.12-0.03-0.81-0.23-0.68,2.19c0.11,2.15,1.17,4.6-0.3,6.43c-3.03,3.78-10.72-0.08-11.61-6.2
						c-3.99,2.41-9.69,5.09-8.12,10.72c0.83,2.97,0.21,5.26,0.34,8.2c0.28,5.99,1.1,18.3-0.73,35.76
						c-0.85,8.09-1.62,13.39,10.15,15.94c6.83,1.48,21.15,0.73,24.06-5.59C61.52,379.09,57.41,361.46,57.36,361.16z"/>
				</g>
				<g>
					<path class="st3" d="M53.52,413c0.47,1.6,2.11,2.65,3.03,4.18c0.53,0.88-0.39,1.48-1,1.44c-5.8-0.38-8.42-4.29-10.8-8.31
						c-0.66,1.97-1.05,4.29,0.34,5.83c1.04,1.16,2.35,1.59,3.72,2.18c2.96,1.27,6.71,7.2,11.17,3.96
						C65,418.63,57.06,416.92,53.52,413z"/>
				</g>
			</g>
			<g>
				<g id="head_00000080927699078177019050000005026138689157001109_">
					<g>
						<path class="st33" d="M34.45,319.77c-0.19,6.1,11.26,6.21,11.09,0.47c-0.23-8-0.71-8.92-4.49-10.16
							c-1.03-0.34-2.11-0.6-3.2-0.62c-3.98-0.07-2.88,3.19-2.74,4.6C35.56,318.23,34.52,317.57,34.45,319.77z"/>
					</g>
					<g>
						<g>
							<g>
								<path class="st37" d="M52.42,298.68c2.36,4.11,2.54,9.37,1.49,13.99c-0.69,3.03-2.21,6.14-4.99,7.46
									c-1.65,0.78-3.58,0.82-5.34,0.33c-1.75-0.49-3.34-1.48-4.73-2.66c-2.06-1.76-4.18-4.24-5.03-6.88
									c-0.32-0.99-0.39-2.09-0.61-3.11c-0.35-1.63-0.66-3.29-0.51-4.98c0.14-1.54-0.03-2.93,0.53-4.43
									c0.51-1.37,1.37-2.62,2.49-3.56c1.93-1.63,4.54-2.36,7.03-2.05c0.87,0.11,1.73,0.34,2.57,0.59c1.85,0.56,3.73,1.27,5.1,2.65
									c0.02,0.03,0.05,0.05,0.07,0.07C51.24,296.89,51.88,297.75,52.42,298.68z"/>
							</g>
							<g>
								<path d="M41.24,309.91c-0.64,0.24-1.43,0.34-2.01,0.71c-0.4,0.26-0.57,0.67-0.76,1.08c-0.76,1.67-2,0.43-2.42,1.24
									c-0.26,0.52-0.19,1.31-0.18,1.88c0.01,0.45,0.02,0.91,0.06,1.36c-2.38-0.17-4.91-4.31-5.86-6.25
									c-1.22-2.46-1.35-5.7-1.3-8.44c0.13-6.82,5.17-7.86,5.17-7.86s2.36-3.43,8.12-2.89c3.85,0.36,7.64,1.7,10.12,4.2
									c3.78,3.8,2.56,9.28,2.47,9.92c-0.22,1.52-2.22-0.17-3.28-1.23c-1.76-1.76-0.72-1.01-2.71,1.22
									C46.6,307.16,43.99,308.87,41.24,309.91z"/>
							</g>
						</g>
						<g>
							<path class="st37" d="M36.47,308.53c-1.84-0.2-2.41,1.96-1.22,3.7c0.35,0.51,0.98,0.98,1.45,1.39
								c3.18,2.84,4.15-0.03,3.14-0.99C37.49,310.4,38.78,308.79,36.47,308.53z"/>
						</g>
						<g>
							<path class="st33" d="M37.39,312.75c-0.2-0.2-2.25-1.48-0.78-2.22c0.41-0.2,0.83,0.15,0.88,0.55
								c0.02,0.21-0.06,0.42-0.03,0.63c0.01,0.12,0.06,0.24,0.12,0.35c0.17,0.3,0.8,0.61,0.65,1.03
								C38.1,313.46,37.5,312.86,37.39,312.75z"/>
						</g>
					</g>
				</g>
			</g>
			<g>
				<path class="st37" d="M20.21,332.67c2.04-10.35,17.2-14.21,9.77,4.84c-0.82,2.11-3.17,9.08-5.14,13.7
					c-1.04,2.44-4.98-0.37-5.74-1.11C16.58,347.64,18.01,343.81,20.21,332.67z"/>
			</g>
		</g>
		<g>
			<path class="st37" d="M14.28,368.63c-0.39,1.48,1.2-0.95,2.75-0.02c0.34,0.21,2.36,1.07,2.75,0.9c1.56-0.68-0.34-1.22,3.92-13.3
				c0.89-2.53,0.74-4.26,1.87-7.7c0.3-0.91-0.08-1.94-0.86-2.67c-1.44-1.35-5.83-4.8-6.5-3.31c-0.55,1.23-0.98,4.44-1.46,6.31
				C15.57,353.45,15.11,365.47,14.28,368.63z"/>
		</g>
		<g>
			<path class="st37" d="M12.75,375.27c0.18,2.16,0.74,2.08,1.76,2.92c3.76,3.1,2.58-1.04,3.05-3.57c0.41-2.19,1.73-2.46,0.79,0.52
				c-0.33,1.07,0.62,1.41,0.98,1.32c0.36-0.09,0.42-0.51,0.53-0.74c0.7-1.5,1.72-3.07,0.96-6.25c-0.81-3.35-3.38-2.62-3.99-2.7
				C14.64,366.48,12.42,371.34,12.75,375.27z"/>
		</g>
		<g>
			<path class="st37" d="M63.65,361.27c-0.18-0.31-0.4-0.61-0.65-0.87c-0.97-0.1-3.6,2.32-0.42,4.35c0.32,0.2,0.61,0.75,0.64,1.07
				c0.06,0.49-0.17,1.16,0.29,1.59c0.19,0.17,0.63,0.35,0.89,0.21C64.67,367.49,65.4,364.26,63.65,361.27z"/>
		</g>
		<g>
			<path d="M22.01,304.2c-0.61,3.5-0.1,7.03,0.23,10.51c0.33,3.49,0.45,7.15-0.85,10.47c2.66-1.6,4.77-4.3,5.75-7.36
				c0.69-2.17,0.8-4.51,1.64-6.64c0.81-2.04,2.24-3.3,3.59-4.92c1.92-2.3,2.78-4.99,1.37-7.68
				C30.07,291.56,23.01,298.45,22.01,304.2z"/>
		</g>
	</g>
	<g>
		<path class="st33" d="M164.67,420.66c-0.56,6.74-3.19,13.16-4.04,19.87c-0.43,3.43-0.39,6.93-1.29,10.27
			c-0.9,3.34-2.97,6.62-6.22,7.78c-1.15,0.42-2.61,0.48-3.44-0.42c-0.86-0.93-0.67-2.38-0.43-3.63c3.28-17.67,1.63-36.23-4.69-53.05
			c-1.07-2.84-2.27-5.99-1.12-8.79c1.06-2.57,3.92-4.06,6.7-4.2c2.38-0.12,6.18,0.35,7.59,2.45c1.58,2.36,2.4,6.16,3.37,8.85
			C163.48,406.46,165.26,413.52,164.67,420.66z"/>
		<path class="st33" d="M162.23,453.26c-0.56,2.62-2.14,4.89-3.2,7.35c-1.43,3.34-1.93,7.03-3.58,10.28
			c-0.68,1.34-1.59,2.57-2.69,3.6c-1.05,0.98-2.52,1.6-3.88,2.04c-1.35,0.43-2.75,0.76-4.16,0.71c-1.41-0.05-2.85-0.49-3.89-1.45
			c-0.71-0.65-1.21-1.54-1.35-2.49c-0.15-1.01,0.11-1.94,0.46-2.88c0.79-2.12,1.88-4.11,3.02-6.06c0.6-1.04,1.22-2.06,1.81-3.1
			c0.98-1.72,1.92-3.49,2.64-5.34c0.78-1.99,2.61-5.8,2.93-9.08c0,0,4.09-2.56,7.64-1.23C161,446.74,162.91,450.12,162.23,453.26z"
			/>
		<path class="st35" d="M139.32,476.15c0.54,0.63,1.44,1.08,2.22,1.31c1.77,0.53,3.79,0.39,5.58,0.01c3.66-0.79,6.76-3.08,8.43-6.39
			c0.25-0.49,0.47-0.99,0.67-1.5c1.14-2.86,1.79-6.02,3-8.85c1.06-2.46,2.75-4.71,3.32-7.33c0.47-2.17,0.11-4.63-2.5-6.53
			c0.12,0.09,0.21,0.53,0.27,0.67c0.1,0.25,0.2,0.5,0.29,0.75c0.19,0.53,0.36,1.06,0.48,1.61c0.25,1.09,0.31,2.25-0.07,3.31
			c-0.3,0.81-0.89,1.42-1.36,2.12c-0.54,0.81-0.97,1.69-1.32,2.59c-0.53,1.39-0.85,2.87-1.25,4.3c-0.41,1.47-0.82,2.94-1.24,4.41
			c-0.17,0.6-0.34,1.21-0.64,1.75c-0.23,0.41-0.53,0.8-0.93,1.06c-0.48,0.32-1.05,0.26-1.61,0.25c-0.82-0.02-1.65-0.1-2.46-0.25
			c-1.6-0.29-3.15-0.84-4.56-1.63c-1.2-0.67-2.29-1.53-3.21-2.55c-1.21,2.13-2.32,4.32-3,6.68c-0.1,0.34-0.19,0.69-0.27,1.04
			C138.95,473.93,138.64,475.35,139.32,476.15z"/>
		<path class="st33" d="M138.7,412.25c-0.88,4.54-2.65,8.91-3.04,13.51c-0.32,3.68,0.25,7.41-0.28,11.06
			c-0.53,3.65-2.58,7.46-6.12,8.49c-1.18,0.34-2.6,0.29-3.46-0.58c-1.11-1.12-0.81-2.95-0.56-4.51c1.83-11.37-3.05-22.75-3.18-34.27
			c-0.03-3.1,0.27-6.27-0.57-9.26c-0.86-3.05-2.9-6.09-1.97-9.12c0.69-2.26,3.01-3.77,5.36-3.98c2.35-0.2,4.69,0.73,6.6,2.12
			C139.36,391.42,140.43,403.36,138.7,412.25z"/>
		<path class="st33" d="M116.29,445.84c-0.87,0.73-1.75,1.45-2.6,2.2c-1.35,1.18-2.47,2.53-3.61,3.91
			c-1.32,1.58-2.71,3.51-1.79,5.61c0.3,0.7,0.9,1.24,1.57,1.59c0.67,0.35,1.43,0.53,2.18,0.64c2.37,0.35,4.84,0.08,7.08-0.77
			c2.55-0.97,4.67-2.65,6.3-4.82c0.76-1.01,1.42-2.08,1.98-3.21c0.61-1.24,1.3-1.85,2.5-2.59c1.47-0.91,3.07-1.59,4.52-2.52
			c1.11-0.71,2.19-1.58,2.82-2.76c0.79-1.49,0.92-3.26,0.41-4.86c-0.37-1.14-1.04-2.02-1.62-3.04c-0.25-0.45-0.46-2.25-0.41-4.19
			c0.02-0.6-2.03-2.2-3.64-2.78c-0.89-0.32-1.92-0.39-2.76,0.04c-1.13,0.59-2.77-0.58-4.06-0.4c0.3,3.36,0.2,7.7-1.54,10.41
			c-1.73,2.71-4.17,4.9-6.63,6.97C116.74,445.47,116.51,445.65,116.29,445.84z"/>
		<path class="st35" d="M107.94,455.22c0.34-1.27,1.11-2.39,1.94-3.39c1.15-1.38,2.45-2.61,3.8-3.79c1.07,1.96,2.3,3.54,4.37,4.56
			c1.5,0.74,3.68,1.51,5.07,0.22c0.8-0.75,1.4-1.64,2.26-2.34c0.9-0.73,1.85-1.69,2.8-2.35c2.13-1.47,4.64-3.52,6.46-5.01
			c2.57-2.57,1.43-4.75,1.3-8.04c0.84,0.9,1.56,2.23,1.87,3.22c0.51,1.6,0.29,3.37-0.5,4.86c-0.63,1.18-1.71,2.13-2.82,2.84
			c-1.46,0.93-3.07,1.6-4.54,2.51c-1.2,0.74-1.88,1.36-2.5,2.59c-0.39,0.79-0.84,1.55-1.33,2.29c-0.21,0.31-0.42,0.62-0.65,0.92
			c-1.43,1.91-3.42,3.82-5.56,4.94c-2.28,1.2-5.05,1.18-7.55,1.06c-0.89-0.04-1.78-0.11-2.62-0.4c-0.84-0.29-1.62-0.85-1.99-1.65
			C107.33,457.34,107.69,456.15,107.94,455.22z"/>
		<g>
			<g>
				<g id="_x31_0_x5F_woman_x5F_smart_x5F_watch_00000016044748464423469170000004416957996446610850_">
					<g id="character_00000047778945414315481420000001022625543845731977_">
						<g id="character_00000042010009748948474400000008755196964858076316_">
							<g>
								<path class="st38" d="M162.18,222.8c0.17,2.18,0.17,4.38,0.15,6.65c-0.03,4.44-1.05,8.89-0.36,13.32
									c0.6,3.85,2.45,7.34,4.53,10.58c0.99,1.54,1.83,2.71,2.29,4.45c0.48,1.87,1.36,3.72,2.27,5.41
									c2.06,3.84,5.01,7.57,4.86,11.92c-3.95,1.71-8.51,0.91-12.15-1.2c-4.08-2.36-6.7-6.77-9.48-10.47
									c-2.01-2.67-3.89-5.47-5.08-8.59c-0.92-2.43-1.41-5.02-1.43-7.62c-0.01-1.36,0.11-2.72,0.22-4.08
									c0.54-6.26,1.08-12.52,1.62-18.78c0.02,0.23-0.38,0.27-0.5,0.07c-0.12-0.2-0.03-0.46,0.06-0.67
									c1.03-0.08,1.1-0.49,1.05-1.52c-0.04-1.04-0.42-2.04-0.44-3.08c-0.03-1.42,0.63-2.81,1.62-3.83
									c0.99-1.02,2.29-1.7,3.64-2.14c1.33-0.43,2.89-0.61,4.06,0.16c1,0.66,1.5,1.86,1.86,3
									C161.66,218.54,162,220.66,162.18,222.8z"/>
							</g>
							<g>
								<g>
									<g>
										<path class="st39" d="M84.49,301.86c-0.78-0.18-1.51-0.59-2.28-0.84c-1.03-0.33-2.12-0.37-3.2-0.4
											c-3.07-0.1-6.14-0.2-9.21-0.31c-0.51-0.02-1.14,0.06-1.31,0.57c-0.08,0.23-0.03,0.49,0.05,0.71
											c0.26,0.69,0.89,1.15,1.55,1.37c0.66,0.21,1.35,0.23,2.04,0.29c1.14,0.1,2.27,0.34,3.36,0.71c0.1,0.03,0.2,0.07,0.26,0.17
											c0.1,0.18-0.03,0.4-0.16,0.56c-0.59,0.7-1.31,1.26-2.08,1.72c-0.4,0.24-0.81,0.44-1.23,0.63
											c-0.38,0.17-0.7,0.46-1.09,0.59c-2.1,0.73-4.33,1.06-6.29,2.17c-0.66,0.37-1.5,1.48-0.33,1.83c0.97,0.28,1.99,0,2.96-0.26
											c1.18-0.31,2.38-0.56,3.59-0.76c0.28-0.05,0.58-0.07,0.86-0.14c0.13-0.03,0.34-0.19,0.48-0.13
											c0.78,0.29-0.95,1.43-1.15,1.59c-0.79,0.64-1.58,1.27-2.38,1.91c-0.89,0.72-1.85,1.54-2.06,2.73
											c-0.07,0.39-0.09,0.72,0.23,0.89c0.24,0.13,0.67,0.12,0.93,0.06c0.58-0.13,1.04-0.57,1.5-0.98
											c1.12-0.99,2.31-1.89,3.56-2.67c0.58-0.36,1.23-0.82,1.86-1.06c0.83-0.32,0.52,0.57,0.14,0.96
											c-0.85,0.86-1.74,1.71-2.39,2.78c-0.27,0.44-0.65,1.08-0.74,1.6c-0.11,0.65,0.53,0.86,1,0.7c0.47-0.16,0.84-0.55,1.2-0.92
											c0.87-0.9,1.73-1.8,2.6-2.7c0.36-0.37,0.75-0.95,1.18-1.2c0.32-0.19,0.7-0.15,0.64,0.34c-0.08,0.67-0.49,1.22-0.73,1.84
											c-0.17,0.43-0.25,0.9-0.25,1.37c0,0.22,0.05,0.48,0.24,0.55c0.15,0.06,0.31-0.04,0.44-0.13c0.72-0.52,1.44-1.15,1.87-1.98
											c0.46-0.89,1.21-1.72,1.82-2.49c1.26-1.59,2.7-3.06,4.44-3.98c0.75-0.4,1.06-0.77,1.06-1.73c0-1.15,0.01-2.32-0.3-3.43
											c-0.2-0.73-0.55-1.45-1.07-1.96C85.54,301.84,85.19,302.03,84.49,301.86z"/>
									</g>
									<g>
										<path class="st40" d="M136.94,242.91c-0.08,0-0.17,0.01-0.25,0.01C137.42,242.7,137.84,242.89,136.94,242.91z"/>
									</g>
									<g>
										<path class="st34" d="M94.95,308.26c6.13-1.95,13.55-5.32,23.04-9.21c2.55-1.05,4.98-2.55,7.06-4.43
											c2.11-1.9,3.26-4.29,4.24-7.14c0.44-1.29,0.79-2.84,0.1-4.11c-0.63-1.16-1.83-3.34-3.02-3.19
											c-16.11,2.06-23.83,7.31-33.38,13.86c-2.31,1.59-4.61,3.2-6.89,4.84c-0.77,0.55-1.58,1.17-1.88,2.06
											c-0.3,0.9-0.01,1.89,0.31,2.79c0.58,1.61,1.35,4.82,3.19,5.2C90.09,309.42,92.69,308.98,94.95,308.26z"/>
									</g>
									<g>
										<path class="st34" d="M126.21,289.77c2.79-6.49,5.42-15.05,9.08-25.7c0.99-2.87,1.55-5.93,1.59-8.99
											c0.04-3.08-0.93-5.69-2.37-8.47c-0.65-1.26-1.56-2.61-2.98-2.9c-1.29-0.26-2.53,0.46-3.55,1.23
											c-6.13,4.64-9.51,12.35-10.92,19.67c-1.31,6.81-3.57,13.42-4.83,20.27c-0.24,1.3-0.58,2.68-0.55,4.02
											c0.15,6.36,4.31,10.25,8.6,8.32C122.37,296.27,124.69,293.29,126.21,289.77z"/>
									</g>
									<g>
										<path class="st41" d="M118.18,269.46c0.81-2.45,2.44-4.75,3.45-7.18c0.95-2.27,1.52-4.66,2.08-7.05
											c0.84-3.54,1.71-6.99,4.39-9.6c1.32-1.29,4.14-1.47,5.92-1.73c2.27-0.33,4.58-0.43,6.87-0.3c1.71,0.1,3.4,0.41,5.1,0.41
											c1.09,0,2.31-0.81,3.39-0.57c3.89,0.88,7.07,2.57,10.36,4.77c3.63,2.43,7.12,5.11,10.18,8.25
											c0.49,0.5,0.97,1.01,1.43,1.54c0.85,0.95,1.67,1.97,2.15,3.15c0.3,0.75,0.46,1.58,0.38,2.39
											c-0.09,0.91-0.66,1.42-0.9,2.26c-0.48,1.72-1.06,3.4-1.72,5.07c-3.56,9.08-9.14,17.48-10.76,27.09
											c-0.63,3.76-0.63,7.59-0.42,11.39c0.1,1.8,0.42,3.65,0.33,5.45c-0.03,0.49,0.08,1.37,0,1.79
											c-0.13,0.66-0.47,0.9-1.09,1.38c-3.28,2.56-7.55,2.84-11.2,4.72c-16.02,8.22-24.82-3.2-26.05-4.12
											c-0.92-0.7-0.52-0.48,0.25-7.13C125.52,284.19,113.49,283.7,118.18,269.46z"/>
									</g>
								</g>
								<g>
									<path class="st35" d="M122.12,313.22c-8.52,15.66-4.66,44.22-6.68,60.59c-0.7,5.67-6.38,27.49,11.59,29.32
										c1.41,0.14,2.85,0.1,4.22,0.44c4.71,1.16,9.48,8.27,20.78,6.5c3.64-0.57,7.94-1.02,10.91-3.34
										c3.68-2.87,7.31-7.32,6.59-12.22c1.35-15.94,2.66-14.16,2.85-32.83c0.31-30.88-5.24-36.34-11.97-48.92
										c0.61,1.13-1.59,4.5-4.7,6.34c-7.15,4.23-18.74,4.89-25.04,2.43C125.61,319.54,122.6,315.21,122.12,313.22z"/>
								</g>
							</g>
							<g>
								<g>
									<path class="st33" d="M156.54,248.64c-0.01,0.79-0.21,1.53-0.71,2.13c-1.48,1.74-3.2,3.22-5.34,4.07
										c-2.86,1.13-6.17,1.09-9.01-0.11c-1.03-0.43-2.01-1.03-2.78-1.85c-1.34-1.44-1.46-3.39-1.77-5.24
										c-0.28-1.69-0.58-3.38-0.84-5.08c-0.32-2-0.77-4.18-0.48-6.21c0.36-2.52,2.58-3.4,4.74-4.16c1.71-0.61,9.52-2.06,11.33-2.1
										c6.59-0.13,2.67,3.31,2.42,5.83c-0.3,3.01,0.12,5.78,1.35,8.53C155.94,245.57,156.56,247.18,156.54,248.64z"/>
								</g>
								<g>
									<path class="st37" d="M150.04,242.19c0.4-0.25,0.79-0.52,1.16-0.82c0.89-0.71,1.82-1.65,2.21-2.74
										c0.38-1.04,1.06-1.94,1.59-2.93c0.31-0.59,0.78-1.01,1.12-1.58c4.04-6.86,4.24-16.05-1.52-22.02
										c-4.08-4.24-10.57-5.99-16.23-4.38c-1.53,0.44-2.99,1.09-4.41,1.82c-1.22,0.63-2.44,1.33-3.37,2.34
										c-0.61,0.67-1.08,1.45-1.51,2.24c-0.49,0.89-0.93,1.82-1.18,2.81c-0.94,3.78,0.96,7.56,0.64,11.36
										c-0.15,1.84-0.88,3.54-0.9,5.43c-0.04,2.84,1.01,5.58,1.76,8.29c0.38,1.37,0.77,2.76,1.47,4c0.5,0.89,1.17,1.72,2.07,2.22
										c0.94,0.51,1.77,0.44,2.8,0.27c2.35-0.4,4.56-1.3,6.73-2.26c1.55-0.69,3.08-1.44,4.54-2.32
										C148.02,243.34,149.06,242.81,150.04,242.19z"/>
								</g>
								<g>
									<path class="st38" d="M163.6,220.72c-0.75-11.85-7.22-13.45-7.22-13.45s-1.93-3.84-11.69-3.92
										c-4.44-0.04-9.66,2.22-12.79,5.61c-2.33,2.52-3.79,5.41-4.27,8.79c-0.12,0.88-0.46,4.57,0.69,4.67
										c0.98,0.09,2.23-1.12,2.98-1.65c0.31-0.22,3.03-2.28,2.84-2.6c0.97,1.67,2.58,2.87,4.23,3.88
										c1.65,1.02,3.38,1.92,4.82,3.21c1.47,1.32,2.57,3,3.61,4.68c0.48,0.77,0.95,1.56,1.61,2.19c0.66,0.62,1.54,1.08,2.45,1.02
										c0.49-0.03,0.97-0.23,1.33-0.56c0.29-0.27,0.39-0.69,0.68-0.93c0.68-0.58,1.94-0.48,2.65-0.04
										c1.23,0.76-1.52,1.34-1.81,2.5c-0.06,0.22,0.36,5.22,0.36,5.22S164.34,232.46,163.6,220.72z"/>
								</g>
								<g>
									<path class="st37" d="M156.25,227.9c2.95-0.2,3.7,3.46,1.67,6.29c-0.59,0.82-1.64,1.56-2.41,2.21
										c-5.28,4.5-6.61-0.37-4.93-1.9C154.48,230.94,152.54,228.15,156.25,227.9z"/>
								</g>
								<g>
									<path class="st33" d="M154.78,234.6c0.34-0.31,3.7-2.29,1.41-3.65c-0.63-0.37-1.34,0.18-1.44,0.85
										c-0.05,0.35,0.06,0.71,0.01,1.05c-0.03,0.21-0.12,0.4-0.23,0.58c-0.3,0.49-1.32,0.95-1.12,1.66
										C153.59,235.73,154.58,234.78,154.78,234.6z"/>
								</g>
							</g>
						</g>
					</g>
				</g>
			</g>
		</g>
		<g>
			<path class="st34" d="M171.95,257.29c-1.44-1.91-3.98-2.52-6.28-1.39c-2.19,1.08-3.6,3.28-4.57,5.51
				c-2.66,6.11-2.69,13.21-0.89,19.51c1.63,5.73,3.3,11.49,5.33,17.1c0.22,0.61,0.41,1.3,0.76,1.86c3.26,5.26,8.75,4.51,11.64,1.54
				c1.27-1.3,2.02-2.48,2.06-4.25c0.05-1.82-0.43-3.78-0.68-5.58c-0.54-3.91-1.14-7.81-1.79-11.7c-0.71-4.29-1.49-8.57-2.43-12.81
				c-0.66-2.97-1.27-6.15-2.61-8.91C172.34,257.86,172.16,257.56,171.95,257.29z"/>
		</g>
		<path class="st39" d="M156.36,335.55c-0.73,0.56-1.49,1.14-1.94,1.95c-0.33,0.59-0.47,1.26-0.69,1.89
			c-0.52,1.5-1.46,2.81-2.11,4.25c-0.16,0.34-0.3,0.71-0.31,1.09c-0.01,0.38,0.14,0.78,0.46,0.99c0.45,0.29,1.06,0.11,1.52-0.17
			c1.7-1.06,2.38-3.15,3.53-4.78c0.85,0.73,1.13,1.96,0.98,3.06c-0.14,1.11-0.64,2.14-1.13,3.14c-0.58,1.17-1.15,2.35-1.73,3.52
			c-0.15,0.32-0.31,0.66-0.23,1.01c0.33,1.4,1.78,0,2.46,0.44c0.59,0.38,0.31,1.22,0.74,1.7c0.38,0.42,1.1,0.35,1.54,0
			c0.64-0.5,0.87-1.52,1.25-2.22c-0.01,0.24-0.02,0.49,0.06,0.72c0.08,0.23,0.26,0.44,0.5,0.48c0.67,0.11,0.96-0.6,1.45-0.86
			c0.51-0.27,1.16-0.03,1.72-0.33c0.6-0.33,1-0.93,1.36-1.52c0.68-1.12,1.26-2.3,1.76-3.52c0.47-1.16,0.59-2.45,0.68-3.69
			c0.01-2.12-0.37-4.14-0.5-6.22c-0.06-0.96,0.47-2.01,0.76-2.92c0.36-1.14,0.72-2.28,1.08-3.42c0.16-0.49,0.31-1.02,0.16-1.51
			c-0.27-0.88-1.34-1.19-2.25-1.36c-1.26-0.24-2.52-0.48-3.78-0.72c-0.75-0.14-1.58-0.26-2.21,0.17c-0.69,0.48-0.82,1.41-0.99,2.23
			C159.96,331.52,158.42,333.98,156.36,335.55z"/>
		<path class="st34" d="M166.58,335.62c2.51-0.98,3.91-3.99,4.88-6.42c2.93-7.35,16.35-36.52,2.98-38.85
			c-2.04-0.36-4.28,2.35-5.69,4.2c-1.76,2.3-9.34,23.83-10,34.95c-0.09,1.47-0.09,3.03,0.63,4.24
			C160.53,335.67,164.64,336.37,166.58,335.62z"/>
	</g>
	<g>
		<g id="man_00000157266743564246185190000007348834800217028742_">
			<g>
				<g>
					<g>
						<g>
							<path class="st35" d="M51.81,491.32c2.6-2.15,6.19-3.72,7.94-3.69c1.32,0.02,2.51,0.75,3.63,1.45c1.08,0.68,1,1.42,0.93,2.56
								c-0.19,3.17-3.94,5.58-5.56,6.2c-1.73,0.66-2.86,0.47-4.58,2.28c-0.38,0.4-0.69,0.93-1.19,1.18
								c-3.89,1.97-8.64,0.74-6.75-5.69c0.83-2.82,0.65-3.33,3.51-5.04C50.4,490.18,50.71,492.24,51.81,491.32z"/>
						</g>
					</g>
				</g>
			</g>
		</g>
		<path class="st33" d="M64.37,446.25c-0.48-0.64-1.36-0.79-2.15-0.93c-3.46-0.62-6.85-1.99-10.25-2.82
			c-1.53-0.37-3.07-0.63-4.62-0.66l-3.37-3.04c-0.07,0.47-0.12,0.95-0.16,1.42c-0.92,11.07,3.52,21.84,2.96,47.83
			c-0.09,3.93,0.51,6.2,2.11,7.54c2.76,2.32,5.75-0.31,6.29-2.21c1.03-3.62,2.09-23.54,3.44-26.03c1.77-3.24,3.28-6.72,3.54-8.63
			c0.37-2.72,0.57-0.18,0.85-2.91c0.26-2.49,1.17-4.8,1.61-7.26C64.76,447.78,64.85,446.89,64.37,446.25z"/>
		<path class="st42" d="M55.97,488.02c-0.27,2.48-0.53,4.45-0.8,5.37c-0.54,1.91-3.53,4.53-6.29,2.21c-1.6-1.35-2.2-3.61-2.11-7.54
			c0-0.12,0-0.23,0.01-0.35C49.41,489.07,52.83,488.93,55.97,488.02z"/>
		<path class="st43" d="M45.73,468.55c-1.01-0.75-2.54-20.76-1.92-28.33c0.04-0.47,0.09-0.95,0.16-1.42l3.37,3.04
			c1.55,0.03,3.09,0.29,4.62,0.66c3.41,0.83,6.79,2.2,10.25,2.82c0.79,0.14,1.67,0.29,2.15,0.93c0.48,0.63,0.39,1.52,0.25,2.3
			c-0.44,2.47-1.36,4.77-1.61,7.26c-0.28,2.73-0.48,0.19-0.85,2.91c-0.26,1.91-1.78,5.39-3.54,8.63c-0.14,0.25-0.25,0.68-0.36,1.26
			C54.41,470.45,47.28,469.71,45.73,468.55z"/>
		<path class="st37" d="M71.37,488.13c0.09,3.71,0.83,13.67-2.51,14.94c-1.66,0.63-6.11-0.67-6.44-2.49
			c-1.95-10.97-4.46-32.8-4.36-33.15c0.64-2.2,3.56-0.95,4.98-0.46C72.04,470.07,70.74,461.81,71.37,488.13z"/>
		<path class="st42" d="M71.05,490.95c0.13-0.09,0.27-0.18,0.41-0.28c0.14,4.49,0.14,11.36-2.6,12.4c-1.66,0.63-6.11-0.67-6.44-2.49
			c-0.39-2.18-0.8-4.79-1.2-7.58C64.51,493.72,68.08,493.01,71.05,490.95z"/>
		<path class="st37" d="M61.79,442.3c-2,0.12-4.01,0.14-6.02,0.12c-0.89-0.01-2.03,0.16-2.9-0.05c-0.75-0.18-1.34-0.77-2.12-0.95
			c-0.62-0.15-2.34-1.42-2.83-1.02c-0.74,0.62,0.29,3.09,0.49,4.04c1.84,8.38,7.16,10.15,8.8,18.54c1.12,5.71,3.27,12.24,4.31,14.77
			c0.75,1.82-0.56,0.23,3.7,0.99c1,0.18,2.01,0.25,3.03,0.21c0.77-0.03,1.75-0.4,2.45-0.01c0.44-2.99,0.12-6.08,0.74-9.02
			c0.66-3.09,0.51-6.43,0.62-9.61C72.87,435.99,73.86,441.59,61.79,442.3z"/>
		<path class="st44" d="M55.63,462.89c-1.64-8.39-5.39-10.08-7.22-18.46c-0.21-0.94-1.23-3.42-0.49-4.04
			c0.49-0.41,23.86-3.81,24.57-0.32c0.45,2.2,0.68,19.26,0.7,21.6c0.04,4.07,1.68,7.01-9.94,7.53
			C55.23,469.56,56.21,465.83,55.63,462.89z"/>
		<path class="st32" d="M74.9,406.59c0.06,0.8-0.07,2.35-0.85,2.87c-0.64,0.43-2.04,0.27-2.77,0.34c-2.29,0.21-4.57,0.36-6.86,0.51
			c-1.04,0.07-2.07,0.13-3.11,0.17c-3.04,0.1-6.06-0.1-9.02-0.59c-1.15-0.19-3.05-0.47-3.97-1.23c-0.91-0.76-0.99-1.98-0.84-3.2
			c0.27-2.18,1.35-4.31,3.42-5.15c2.08-0.83,4.13-0.48,6.19-0.21c4.76,0.61,9.47,1.52,14.08,2.73c0.82,0.22,1.66,0.45,2.34,0.94
			C74.31,404.33,74.81,405.44,74.9,406.59z"/>
		<g>
			<g>
				<g>
					<g>
						<g>
							<path class="st35" d="M73.33,399.96c-0.73-1.1-7.16-4.93-12.81-6.97c-5.33-1.92-10.78-5.83-16.46-2.62
								c-6.9,3.89-2.98,12.43-1.89,25.36c1.95,23.23-2.15,25.69,7.7,26.94c8.55,1.09,19.84,3.47,22.75-1.33
								c0.9-1.49,0.5-3.28,0.41-4.9C71.82,415.15,75.76,403.61,73.33,399.96z"/>
						</g>
					</g>
				</g>
			</g>
		</g>
		<path class="st37" d="M61.95,388.36c0.21-1.41-11.17-6.66-11.17-4.55c0,6.15-1.05,5.25-1.24,7.51c-0.17,2.08,1.75,5.89,9.15,4.82
			C64.28,395.33,61.29,392.85,61.95,388.36z"/>
		<g>
			<g>
				<path class="st37" d="M68.24,369.38c0.78,0.95,1.39,2.02,1.58,3.27c0.42,2.79-0.71,5.67-0.1,8.44
					c0.59,2.69-0.56,8.79-5.86,10.35c-2.68,0.79-7.97-0.13-9.67-0.95c-2.28-1.09-3.79-3.31-5.14-5.45
					C37.98,367.48,60.73,360.25,68.24,369.38z"/>
			</g>
			<path class="st38" d="M48.76,363.58c2.01-4.32,17.45-5.87,21.64,4.4c0.33,0.8,0.39,1.65,0.62,2.46c0.49,1.71-1.14,2.33-1.5,2.57
				c-1.12,0.76-1.33,2.51-1.82,3.69c-0.31,0.75-0.91,1.16-1.09,1.96c-0.19,0.89-0.23,4.13-1.7,3.22c-1.18-0.73-0.96-3.28-1.8-3.12
				c-4.05,0.79,1.06,12.33-10.25,9.83c-2.61-0.58-3.62-1.12-5.96-4.45c-2.3-3.28-2.54-4.22-2.92-6.98
				C42.26,364.6,47.88,365.47,48.76,363.58z"/>
			<path class="st37" d="M62.25,377.09c-2.08-0.45-3,2.08-1.86,4.3c0.33,0.65,1,1.28,1.48,1.83c3.29,3.76,4.75,0.43,3.71-0.84
				C63.19,379.44,64.87,377.66,62.25,377.09z"/>
			<path class="st33" d="M62.3,381.14c-0.21-0.26-2.39-2.02-0.62-2.75c0.49-0.2,0.94,0.27,0.93,0.76c0,0.25-0.12,0.5-0.12,0.75
				c0,0.78,0.99,1.14,0.72,1.74C63.02,382.07,62.42,381.29,62.3,381.14z"/>
		</g>
		<path class="st35" d="M71.22,498.32c2.36,1.21,9.07-1.83,11.7-0.77c1.85,0.75,2.38,3.73,1.72,5.39c-0.98,2.48-5.1,3.42-7.46,3.25
			c-6.31-0.47-9.78,5.26-13.95,1.46c-1.92-1.74-1.08-4.64-0.81-7.07C64.15,502.36,68.71,502.85,71.22,498.32z"/>
		<g>
			<path class="st37" d="M75.33,410.57h-8.4c0.66,5.15,1.18,11.74,2.52,15.16c0.51,1.31,1.08,0.1,2.23,1.24
				c0.95,0.94,2.15,1.21,3.35,0.61c2.91-1.45,2.53-3.09,2.4-3.48C76.15,420.08,75.41,413.37,75.33,410.57z"/>
			<path class="st35" d="M76.3,405.83c0.03,0.21,0.76,2.73,0.75,9.65c-1.78,1.44-4.27,2.04-6.57,1.99c-1.15-0.05-2.33-0.2-3.49-0.49
				c-0.43-3.08-0.77-6.4-1.35-9.4C63.68,397.6,74.82,394.7,76.3,405.83z"/>
			<path class="st37" d="M78.84,436.47c-1.63-2.17-2.69-3.02-4.44-5.1c-4.05-4.8-6.08-4.69-4.92-9.4c0.41-1.64,2.16-2.81,3.47-2.53
				c4.37,0.95,2.26,1.73,8.14,10.02c0.67,0.95,1.94,3.05,3.09,4.4C85.51,435.41,79.6,437.48,78.84,436.47z"/>
			<path class="st37" d="M85.43,434.23c7.1,3.38,7.12,3.78,6.29,4.41c-0.88,0.67-2.1-0.11-2.75-0.37c-3.36-1.32-0.16,2.73,0.96,3.93
				c2.9,3.09,1.22,3.39-0.7,1.71c-4.53-3.98,0.26,1.68-0.52,3.24c-0.12,0.25-0.25,0.24-0.5,0.17c-1.07-0.29-0.96-0.59-1.59-1.96
				c-1.57-3.45-2.01-2.65-1.79-1.92c0.48,1.59,0.96,3.37-0.49,2.69c-0.65-0.3-1.68-6.54-1.95-2.5c-0.08,1.25-0.99,0.9-1.23,0.01
				c-0.27-1-0.02-4.33-2.64-7.6c-0.24-0.3-0.53-0.6-0.7-0.95c-0.67-1.3,3.29-3.17,4.02-2.33C83.04,434.15,83.93,433.52,85.43,434.23
				z"/>
		</g>
	</g>
	<g>
		<g id="man_00000134224699907670492400000011590311992193586863_">
			<g>
				<path class="st35" d="M174.65,503.62c-2.6-2.15-6.19-3.72-7.94-3.69c-1.32,0.02-2.51,0.75-3.63,1.45
					c-1.08,0.68-1,1.42-0.93,2.56c0.19,3.17,3.94,5.58,5.56,6.2c1.73,0.66,2.86,0.47,4.58,2.28c0.38,0.4,0.69,0.93,1.19,1.18
					c3.89,1.97,8.64,0.74,6.75-5.69c-0.83-2.82-0.65-3.33-3.51-5.04C176.06,502.48,175.76,504.54,174.65,503.62z"/>
			</g>
		</g>
		<g>
			<path class="st33" d="M162.09,458.56c0.48-0.64,1.36-0.79,2.15-0.93c3.46-0.62,6.85-1.99,10.25-2.82
				c1.53-0.37,3.07-0.63,4.62-0.66l3.37-3.04c0.07,0.47,0.12,0.95,0.16,1.42c0.92,11.07-3.52,21.84-2.96,47.83
				c0.08,3.93-0.51,6.2-2.11,7.55c-2.76,2.32-5.75-0.31-6.29-2.21c-1.03-3.62-2.09-23.54-3.44-26.03c-1.77-3.24-3.28-6.72-3.54-8.63
				c-0.37-2.72-0.57-0.18-0.85-2.91c-0.26-2.49-1.17-4.8-1.61-7.26C161.7,460.08,161.61,459.19,162.09,458.56z"/>
		</g>
		<g>
			<path class="st42" d="M170.49,500.32c0.27,2.48,0.53,4.45,0.8,5.38c0.54,1.91,3.53,4.53,6.29,2.21c1.6-1.35,2.2-3.61,2.11-7.55
				c0-0.12,0-0.23-0.01-0.35C177.05,501.37,173.63,501.24,170.49,500.32z"/>
		</g>
		<g>
			<path class="st37" d="M155.09,500.44c-0.09,3.71-0.83,13.67,2.51,14.94c1.66,0.63,6.11-0.67,6.44-2.49
				c1.95-10.97,4.46-32.8,4.36-33.15c-0.64-2.2-3.56-0.95-4.98-0.46C154.42,482.37,155.73,474.11,155.09,500.44z"/>
		</g>
		<g>
			<path class="st42" d="M155.41,503.26c-0.13-0.09-0.27-0.18-0.41-0.28c-0.14,4.49-0.14,11.36,2.6,12.4
				c1.66,0.63,6.11-0.67,6.44-2.49c0.39-2.18,0.8-4.79,1.2-7.58C161.95,506.03,158.38,505.31,155.41,503.26z"/>
		</g>
		<g>
			<path class="st35" d="M155.25,510.63c-2.36,1.21-9.07-1.83-11.7-0.77c-1.85,0.75-2.38,3.73-1.72,5.39
				c0.98,2.48,5.1,3.42,7.46,3.25c6.3-0.47,9.78,5.26,13.95,1.46c1.92-1.74,1.08-4.64,0.81-7.07
				C162.31,514.66,157.75,515.16,155.25,510.63z"/>
		</g>
		<g>
			<path class="st36" d="M185.82,455.21c-0.28-2.86-0.41-5.74-0.59-8.61c-0.49-7.61-0.98-15.23-1.67-22.83
				c-0.29-3.12-0.58-6.25-1.08-9.34c-0.44-2.78-1.36-5.99-4.72-5.84c-3.89,0.17-7.77,0.86-11.56,1.77c-2.79,0.67-5.58,1.48-8.01,3
				c-2.37,1.48-5.27,4.35-5.36,7.36c-0.03,0.99,0.35,2.04,0.37,3.06c0.04,2-0.32,3.99-0.31,5.99c0.05,6.39,0.41,19.52-2.26,38.03
				c-1.24,8.58-2.27,14.19,10.14,17.38c7.21,1.86,22.48,1.66,25.83-4.96C189.51,474.47,185.86,455.54,185.82,455.21z"/>
		</g>
		<g>
			<path class="st37" d="M162.73,404.62c-0.13-1.85,11.64-9.4,11.52-6.63c-0.34,8.12,1.03,10.01,1.1,12.98
				c0.06,2.74-2.36,5.38-9.77,4.37C159.98,414.58,163.14,410.5,162.73,404.62z"/>
		</g>
		<g>
			<g>
				<g>
					<path class="st37" d="M156.43,385.7c-0.78,0.95-1.39,2.02-1.58,3.27c-0.42,2.79,0.71,5.67,0.1,8.44
						c-0.59,2.69,0.56,8.79,5.86,10.35c2.68,0.79,7.97-0.14,9.67-0.95c2.28-1.09,3.79-3.31,5.14-5.45
						C186.69,383.79,163.94,376.56,156.43,385.7z"/>
				</g>
			</g>
			<g>
				<path class="st45" d="M175.91,379.89c-2.01-4.32-17.45-5.87-21.64,4.4c-0.33,0.8-0.39,1.65-0.62,2.46
					c-0.2,0.72-0.03,1.32,0.45,1.86c0.56,0.64,0.79,1.02,1.03,1.92c0.5,1.87,0.66,3.82,0.48,5.74c-0.09,0.96-0.15,2.15,0.69,2.62
					c0.56,0.31,1.24,0.11,1.87,0.11c1.09-0.01,2.12,0.56,2.86,1.36c0.92,0.99,1.18,2.36,2.15,3.28c0.99,0.93,2.2,1.46,3.54,1.61
					c1.51,0.17,2.9-0.2,4.39-0.33c0.88-0.08,1.7-0.21,2.53-0.55c1.82-0.73,3.01-2.36,4.1-3.92c2.3-3.28,2.54-4.22,2.92-6.98
					C182.41,380.92,176.79,381.79,175.91,379.89z"/>
			</g>
			<g>
				<path class="st37" d="M159.65,395.16c2.08-0.45,3,2.08,1.86,4.31c-0.33,0.65-1,1.28-1.48,1.83c-3.29,3.76-4.75,0.43-3.72-0.83
					C158.71,397.52,157.03,395.73,159.65,395.16z"/>
			</g>
			<g>
				<path class="st33" d="M159.23,399.7c0.21-0.26,2.39-2.02,0.62-2.75c-0.49-0.2-0.94,0.27-0.93,0.76c0,0.25,0.12,0.5,0.11,0.75
					c0,0.78-0.99,1.14-0.72,1.74C158.5,400.63,159.11,399.85,159.23,399.7z"/>
			</g>
		</g>
		<g>
			<path class="st45" d="M183.95,422.02c0.11-1.56-0.19-3.18-0.61-4.7c-0.64-2.29-1.55-4.52-1.78-6.88
				c-0.29-2.99,0.54-5.96,1.24-8.89c0.7-2.92,1.28-6.01,0.5-8.91c-0.68-2.55-2.66-4.89-5.32-5.43c-1.67-0.34-3.16-0.53-4.29,0.97
				c-1.75,2.31-2.1,6.74-1.32,9.47c0.55,1.92,1.44,3.74,1.93,5.68c0.29,1.12,0.44,2.31,0.3,3.46c-0.11,0.97-0.52,1.83-0.53,2.82
				c-0.01,2.31,1.19,4.22,2.28,6.16c1.19,2.12,1.36,4.28,0.97,6.67c-0.38,2.35-1.11,4.67-1,7.05c0.11,2.38,1.35,4.93,3.62,5.63
				c-1.12-2.11-0.51-4.72,0.75-6.6c0.94-1.39,2.12-2.65,2.74-4.2C183.74,423.57,183.89,422.8,183.95,422.02z"/>
		</g>
		<g>
			<path class="st37" d="M162.54,418.05c-0.35-1.16-1.01-2.39-2.16-2.9c-1.1-0.49-2.46-0.59-3.58-0.12c-0.93,0.39-1.76,1-2.48,1.69
				c-0.98,0.94-1.5,2.32-2.03,3.56c-1.53,3.61-2.26,7.84-3.16,11.65c-0.18,0.76-10.43,10.72-12.05,11.77
				c-0.11,0.07-0.23,0.13-0.35,0.19c-3.05,0.99-6.78,3.01-7.55,4.92c-1.06,2.61-1.57,2.83-1.31,3.65c0.65,2.09,1.74,0.44,2.25,0.61
				c0.56,0.19,0.24,0.6,1.23,1.71c0.81,0.9,1.04-0.02,1.47,0.08c0.35,0.08,0.32,0.54,0.74,0.53c0.15,0,0.27-0.14,0.43-0.12
				c0.4,0.04,0.21,0.42,1.35,0.38c1.08-0.04,0.01-2.52,1.95-3.96c0.48-0.36,1.03-0.63,1.54-0.95c0.62-0.39,1.2-0.85,1.71-1.38
				c0.2-0.2,0.47-0.5,0.73-0.79c2.91-2.28,6.11-4.1,9.12-6.22c1.45-1.02,2.9-2.05,4.32-3.13c1.23-0.93,2.8-1.88,3.49-3.28
				c1.41-2.86,2.57-5.85,3.37-8.94c0.4-1.56,0.72-3.14,0.93-4.74C162.7,420.85,162.96,419.46,162.54,418.05z"/>
		</g>
	</g>
	<g>
		<g>
			<g class="st2">
				<g>
					<defs>
						<path id="SVGID_00000108301241099647165190000011065564229074590619_" d="M629.58,423.24l-0.12,33.8
							c0.05-14.9,9.98-29.76,29.75-41.01c39.29-22.36,102.53-21.96,141.27,0.88c19.25,11.35,28.83,26.1,28.78,40.82l0.12-33.8
							c0.05-14.72-9.53-29.47-28.78-40.82c-38.74-22.84-101.97-23.24-141.27-0.88C639.56,393.48,629.63,408.34,629.58,423.24z"/>
					</defs>
					<use xlink:href="#SVGID_00000108301241099647165190000011065564229074590619_"  style="overflow:visible;fill:#322A89;"/>
					<clipPath id="SVGID_00000094577526019013433070000007094677627588398237_">
						<use xlink:href="#SVGID_00000108301241099647165190000011065564229074590619_"  style="overflow:visible;"/>
					</clipPath>
					<g style="clip-path:url(#SVGID_00000094577526019013433070000007094677627588398237_);">
						<path class="st9" d="M629.58,423.24l-0.12,33.8c0.05-14.9,9.98-29.76,29.75-41.01c39.29-22.36,102.53-21.96,141.27,0.88
							c19.25,11.35,28.83,26.1,28.78,40.82l0.12-33.8c0.05-14.72-9.53-29.47-28.78-40.82c-38.74-22.84-101.97-23.24-141.27-0.88
							C639.56,393.48,629.63,408.34,629.58,423.24z"/>
					</g>
				</g>
				<g>
					<defs>
						<path id="SVGID_00000181061659765074474880000005924226758551127473_" d="M612.53,423.18l-0.07,27.09
							c-0.06,17.23,11.15,34.49,33.68,47.77c45.36,26.74,119.4,27.22,165.38,1.05c23.14-13.17,34.77-30.57,34.83-48.02l0.07-27.09
							c-0.06,17.45-11.69,34.85-34.83,48.02c-45.99,26.17-120.03,25.69-165.38-1.05C623.69,457.68,612.47,440.41,612.53,423.18z"/>
					</defs>
					<use xlink:href="#SVGID_00000181061659765074474880000005924226758551127473_"  style="overflow:visible;fill:#9B3B1F;"/>
					<clipPath id="SVGID_00000139984831588731573280000003888754531885215419_">
						<use xlink:href="#SVGID_00000181061659765074474880000005924226758551127473_"  style="overflow:visible;"/>
					</clipPath>
					<g style="clip-path:url(#SVGID_00000139984831588731573280000003888754531885215419_);">
						<path class="st9" d="M612.53,423.18l-0.07,27.09c-0.06,17.23,11.15,34.49,33.68,47.77c45.36,26.74,119.4,27.22,165.38,1.05
							c23.14-13.17,34.77-30.57,34.83-48.02l0.07-27.09c-0.06,17.45-11.69,34.85-34.83,48.02c-45.99,26.17-120.03,25.69-165.38-1.05
							C623.69,457.68,612.47,440.41,612.53,423.18z"/>
					</g>
				</g>
				<g>
					<path class="st5" d="M812.74,376.21c45.36,26.74,44.84,69.64-1.14,95.8c-45.99,26.17-120.03,25.69-165.38-1.05
						c-45.34-26.73-44.84-69.62,1.14-95.78C693.34,349.01,767.4,349.47,812.74,376.21z M799.62,464.95
						c39.3-22.36,39.73-58.99,0.98-81.84c-38.74-22.84-101.97-23.24-141.27-0.88c-39.28,22.35-39.71,58.98-0.97,81.82
						C697.1,486.9,760.34,487.3,799.62,464.95z"/>
				</g>
			</g>
		</g>
		<path class="st48" d="M630.42,430.97c2.77,12.04,12.08,23.71,27.94,33.07c38.73,22.87,101.97,23.27,141.25,0.91
			c16.31-9.28,25.92-20.99,28.82-33.15c-2.75-12.07-12.06-23.74-27.94-33.09c-38.74-22.84-101.97-23.24-141.28-0.89
			C642.94,407.1,633.32,418.81,630.42,430.97z"/>
		<g>
			<g class="st2">
				<g class="st2">
					<defs>
						<path id="SVGID_00000010309749343587777520000016050253221082854550_" class="st2" d="M567.89,516.45l72.83-41.99
							c1.73-0.99,4.11-0.85,6.74,0.68l-72.83,41.99C572,515.6,569.61,515.45,567.89,516.45z"/>
					</defs>
					<use xlink:href="#SVGID_00000010309749343587777520000016050253221082854550_"  style="overflow:visible;fill:#C5C8EE;"/>
					<clipPath id="SVGID_00000049220454137401458900000007160283348325028535_">
						<use xlink:href="#SVGID_00000010309749343587777520000016050253221082854550_"  style="overflow:visible;"/>
					</clipPath>
					<g style="clip-path:url(#SVGID_00000049220454137401458900000007160283348325028535_);enable-background:new    ;">
						<path class="st28" d="M567.89,516.45l72.83-41.99c1.73-0.99,4.11-0.85,6.74,0.68l-72.83,41.99
							C572,515.6,569.61,515.45,567.89,516.45z"/>
					</g>
				</g>
				<g class="st2">
					<defs>
						<path id="SVGID_00000008140754833488028470000007521755269602591922_" class="st2" d="M654.06,497.6l-72.83,41.99
							c1.7-0.98,2.77-3.08,2.78-6.07c0.04-6.01-4.16-13.35-9.38-16.39l72.83-41.99c5.22,3.04,9.42,10.38,9.38,16.39
							C656.82,494.52,655.76,496.62,654.06,497.6z"/>
					</defs>
					<use xlink:href="#SVGID_00000008140754833488028470000007521755269602591922_"  style="overflow:visible;fill:#ACAFF1;"/>
					<clipPath id="SVGID_00000043419027512476767950000012057763842642422182_">
						<use xlink:href="#SVGID_00000008140754833488028470000007521755269602591922_"  style="overflow:visible;"/>
					</clipPath>
					<g style="clip-path:url(#SVGID_00000043419027512476767950000012057763842642422182_);">
						<path class="st28" d="M584.01,533.52c0.01-2.01-0.46-4.16-1.27-6.25l72.81-42.04c0.83,2.11,1.3,4.28,1.29,6.3
							c-0.02,2.99-1.08,5.09-2.79,6.07l-72.83,41.99C582.93,538.61,584,536.51,584.01,533.52z"/>
						<path class="st1" d="M574.63,517.13l72.83-41.99c3.46,2.02,6.47,5.92,8.09,10.08l-72.81,42.04
							C581.12,523.09,578.11,519.16,574.63,517.13z"/>
					</g>
				</g>
				<g>
					<path class="st28" d="M574.63,517.13c5.22,3.04,9.42,10.38,9.38,16.39c-0.04,6.01-4.3,8.43-9.52,5.39
						c-5.22-3.04-9.43-10.38-9.39-16.39C565.14,516.51,569.41,514.09,574.63,517.13z"/>
				</g>
			</g>
		</g>
		<g>
			<g class="st2">
				<g class="st2">
					<defs>
						<path id="SVGID_00000003099133407688658680000010350770942829272982_" class="st2" d="M433.97,575.08l160.34-86.41
							c3.17-1.82,7.55-1.53,12.37,1.29l-157.86,86.67C443.03,573.24,437.78,572.89,433.97,575.08z"/>
					</defs>
					<use xlink:href="#SVGID_00000003099133407688658680000010350770942829272982_"  style="overflow:visible;fill:#9B3B1F;"/>
					<clipPath id="SVGID_00000164501611518352940400000008254542016398606773_">
						<use xlink:href="#SVGID_00000003099133407688658680000010350770942829272982_"  style="overflow:visible;"/>
					</clipPath>
					<g style="clip-path:url(#SVGID_00000164501611518352940400000008254542016398606773_);">
						<path class="st9" d="M433.97,575.08l160.34-86.41c3.17-1.82,7.55-1.53,12.37,1.29l-157.86,86.67
							C443.03,573.24,437.78,572.89,433.97,575.08z"/>
					</g>
				</g>
				<g class="st2">
					<defs>
						<path id="SVGID_00000145059932218661166460000012050642159375245976_" class="st2" d="M618.68,531.22l-155.46,94.92
							c3.76-2.15,6.11-6.77,6.17-13.35c0.12-13.25-9.09-29.44-20.57-36.16l157.86-86.67c9.57,5.6,17.24,19.09,17.14,30.13
							C623.77,525.58,621.82,529.42,618.68,531.22z"/>
					</defs>
					<use xlink:href="#SVGID_00000145059932218661166460000012050642159375245976_"  style="overflow:visible;fill:#9B3B1F;"/>
					<clipPath id="SVGID_00000180329168068907605430000014837449660137284024_">
						<use xlink:href="#SVGID_00000145059932218661166460000012050642159375245976_"  style="overflow:visible;"/>
					</clipPath>
					<g style="clip-path:url(#SVGID_00000180329168068907605430000014837449660137284024_);enable-background:new    ;">
						<path class="st5" d="M469.39,612.79c0.12-13.25-9.09-29.44-20.57-36.16l157.86-86.67c9.57,5.6,17.24,19.09,17.14,30.13
							L469.39,612.79z"/>
						<path class="st9" d="M623.83,520.09c-0.05,5.48-2.01,9.33-5.14,11.12l-155.46,94.92c3.76-2.15,6.11-6.77,6.17-13.35
							L623.83,520.09z"/>
					</g>
				</g>
				<g>
					<path class="st9" d="M448.82,576.63c11.48,6.73,20.7,22.91,20.57,36.16c-0.12,13.25-9.53,18.53-21.01,11.8
						c-11.49-6.73-20.7-22.92-20.58-36.16C427.92,575.17,437.33,569.9,448.82,576.63z"/>
				</g>
			</g>
		</g>
	</g>
	<g>
		
			<linearGradient id="SVGID_00000005247579412403760800000010735807256749013398_" gradientUnits="userSpaceOnUse" x1="471.3531" y1="16.0959" x2="449.7238" y2="46.3769" gradientTransform="matrix(-0.0451 0.999 -0.999 -0.0451 482.3117 61.1435)">
			<stop  offset="0" style="stop-color:#38ACA8"/>
			<stop  offset="1" style="stop-color:#5F637A"/>
		</linearGradient>
		<path style="fill:url(#SVGID_00000005247579412403760800000010735807256749013398_);" d="M425.73,540.92
			c2.47-1.74,9.24-7.81,4.35-19.6c-2.56-6.21-9.97-10.67-17.66-8.81l18.11-9.52c7.82-2.11,15.44,2.4,18.02,8.71
			c5.92,14.28-5.22,20.13-5.22,20.13L425.73,540.92z"/>
		
			<linearGradient id="SVGID_00000121251813372463921750000007188840659075021443_" gradientUnits="userSpaceOnUse" x1="529.8982" y1="56.7323" x2="491.1565" y2="110.9706" gradientTransform="matrix(-0.0451 0.999 -0.999 -0.0451 482.3117 61.1435)">
			<stop  offset="0" style="stop-color:#FFAC06"/>
			<stop  offset="0.99" style="stop-color:#ED3333"/>
		</linearGradient>
		<path style="fill:url(#SVGID_00000121251813372463921750000007188840659075021443_);" d="M314.34,600.91l1.54-9.48l-12.58-2.75
			l4.95-12.53l-11.09-3.23l107.75-56.64c7.69-1.86,15.1,2.6,17.66,8.81c5.92,14.25-5.2,20.13-5.2,20.13L314.34,600.91z"/>
		<polygon class="st55" points="426.65,531.08 315.88,591.43 303.3,588.68 308.25,576.15 421.4,516.42 		"/>
		<path class="st32" d="M417.67,545.06c1.68-1.06,10.25-7.1,4.91-19.97c-2.56-6.21-9.97-10.67-17.66-8.81l24.91-13.1
			c0.24-0.06,0.46-0.15,0.7-0.18l-18.11,9.52c7.69-1.86,15.1,2.6,17.66,8.81c4.9,11.79-1.87,17.86-4.35,19.6L417.67,545.06z"/>
		<polygon class="st56" points="297.16,572.93 308.25,576.15 303.3,588.68 315.88,591.43 314.34,600.91 274.65,607.66 		"/>
		<path class="st57" d="M288.73,605.27c0,0-2.54-1.32-3.77-3.41c-1.23-2.1-1.96-7.07-1.96-7.07l-8.35,12.88L288.73,605.27z"/>
	</g>
</g>
</svg>
