<?xml version="1.0" encoding="utf-8"?>
<!-- Generator: Adobe Illustrator 25.4.1, SVG Export Plug-In . SVG Version: 6.00 Build 0)  -->
<svg version="1.1" id="Capa_1" xmlns="http://www.w3.org/2000/svg" xmlns:xlink="http://www.w3.org/1999/xlink" x="0px" y="0px"
	 viewBox="0 0 900 150" style="enable-background:new 0 0 900 150;" xml:space="preserve">
<style type="text/css">
	.st0{clip-path:url(#SVGID_00000171710086419729847010000016343133142734632377_);}
	.st1{fill:#BED6ED;}
	.st2{opacity:0.3;clip-path:url(#SVGID_00000052782864829000088080000006332338933992429458_);}
	.st3{fill:#FFFFFF;}
	.st4{fill:#F98012;}
	.st5{fill:#44505F;}
	.st6{fill:#EE8018;}
</style>
<g>
	<g>
		<defs>
			<rect id="SVGID_1_" x="1" width="560.95" height="151.48"/>
		</defs>
		<clipPath id="SVGID_00000070116635127558198490000016390381133949244076_">
			<use xlink:href="#SVGID_1_"  style="overflow:visible;"/>
		</clipPath>
		<g style="clip-path:url(#SVGID_00000070116635127558198490000016390381133949244076_);">
			<g>
				<path class="st1" d="M503.08-8.94c-0.99-0.47-1.98-0.92-2.98-1.36L393.32,163.76c0.84,0.69,1.69,1.37,2.56,2.04L503.08-8.94z"/>
			</g>
			<g>
				<path class="st1" d="M464.46-18.75c-1.25-0.07-2.49-0.1-3.74-0.12l-92.89,151.41c0.58,1.1,1.18,2.2,1.8,3.28L464.46-18.75z"/>
			</g>
			<g>
				<path class="st1" d="M491.14-13.73c-1.06-0.35-2.13-0.68-3.2-1L383.86,154.93c0.77,0.81,1.54,1.61,2.34,2.4L491.14-13.73z"/>
			</g>
			<g>
				<path class="st1" d="M478.3-17.06c-1.15-0.22-2.3-0.42-3.45-0.6L375.32,144.6c0.68,0.94,1.38,1.88,2.1,2.8L478.3-17.06z"/>
			</g>
			<g>
				<path class="st1" d="M449.39-18.44c-1.37,0.13-2.74,0.29-4.1,0.47l-83.65,136.35c0.46,1.3,0.93,2.59,1.44,3.87L449.39-18.44z"/>
			</g>
			<g>
				<path class="st1" d="M512.81-3.66c-0.46-0.28-0.93-0.56-1.4-0.83L403.62,171.22c0.46,0.29,0.91,0.58,1.38,0.87
					c0.46,0.28,0.93,0.56,1.4,0.83L514.19-2.79C513.73-3.08,513.28-3.38,512.81-3.66z"/>
			</g>
			<g>
				<path class="st1" d="M432.7-15.49c-1.55,0.41-3.1,0.85-4.63,1.33L357.24,101.3c0.27,1.59,0.57,3.16,0.91,4.74L432.7-15.49z"/>
			</g>
			<g>
				<path class="st1" d="M355.81,85.59l57.6-93.89c-1.91,0.94-3.8,1.93-5.65,2.99l-51.84,84.51
					C355.82,81.33,355.78,83.46,355.81,85.59z"/>
			</g>
			<g>
				<path class="st1" d="M560.57,67.13c-0.27-1.59-0.57-3.16-0.91-4.74l-74.55,121.52c1.55-0.41,3.1-0.85,4.63-1.33L560.57,67.13z"
					/>
			</g>
			<g>
				<path class="st1" d="M556.17,50.05c-0.46-1.3-0.93-2.59-1.44-3.87l-86.31,140.69c1.37-0.13,2.74-0.29,4.1-0.47L556.17,50.05z"/>
			</g>
			<g>
				<path class="st1" d="M387.29,10.03c-6.12,5.92-11.6,12.69-16.26,20.28c-4.66,7.59-8.21,15.55-10.71,23.68L387.29,10.03z"/>
			</g>
			<g>
				<path class="st1" d="M561.89,89.24c0.1-2.13,0.14-4.27,0.11-6.39l-57.6,93.89c1.91-0.94,3.8-1.93,5.65-2.99L561.89,89.24z"/>
			</g>
			<g>
				<path class="st1" d="M530.53,158.41c6.12-5.92,11.6-12.69,16.26-20.28c4.66-7.59,8.21-15.55,10.71-23.68L530.53,158.41z"/>
			</g>
			<g>
				<path class="st1" d="M533.95,13.5c-0.77-0.81-1.54-1.61-2.34-2.4L426.67,182.16c1.06,0.35,2.13,0.68,3.2,1L533.95,13.5z"/>
			</g>
			<g>
				<path class="st1" d="M524.49,4.67c-0.84-0.69-1.69-1.37-2.56-2.04l-107.2,174.74c0.99,0.47,1.98,0.92,2.98,1.36L524.49,4.67z"/>
			</g>
			<g>
				<path class="st1" d="M549.98,35.89c-0.58-1.1-1.18-2.2-1.8-3.28l-94.82,154.57c1.25,0.07,2.49,0.1,3.74,0.12L549.98,35.89z"/>
			</g>
			<g>
				<path class="st1" d="M542.49,23.83c-0.68-0.94-1.38-1.88-2.1-2.8L439.51,185.49c1.15,0.22,2.3,0.42,3.45,0.6L542.49,23.83z"/>
			</g>
		</g>
	</g>
	<g>
		<defs>
			<polygon id="SVGID_00000121246109178737703430000006842456940358629807_" points="523.39,0 430.78,151.48 901,151.48 901,0 			
				"/>
		</defs>
		<use xlink:href="#SVGID_00000121246109178737703430000006842456940358629807_"  style="overflow:visible;fill:#BED6ED;"/>
		<clipPath id="SVGID_00000137122308614363501400000008574793622478888595_">
			<use xlink:href="#SVGID_00000121246109178737703430000006842456940358629807_"  style="overflow:visible;"/>
		</clipPath>
		<g style="opacity:0.3;clip-path:url(#SVGID_00000137122308614363501400000008574793622478888595_);">
			<g>
				<path class="st3" d="M503.08-8.94c-0.99-0.47-1.98-0.92-2.98-1.36L393.32,163.76c0.84,0.69,1.69,1.37,2.56,2.04L503.08-8.94z"/>
			</g>
			<g>
				<path class="st3" d="M464.46-18.75c-1.25-0.07-2.49-0.1-3.74-0.12l-92.89,151.41c0.58,1.1,1.18,2.2,1.8,3.28L464.46-18.75z"/>
			</g>
			<g>
				<path class="st3" d="M491.14-13.73c-1.06-0.35-2.13-0.68-3.2-1L383.86,154.93c0.77,0.81,1.54,1.61,2.34,2.4L491.14-13.73z"/>
			</g>
			<g>
				<path class="st3" d="M478.3-17.06c-1.15-0.22-2.3-0.42-3.45-0.6L375.32,144.6c0.68,0.94,1.38,1.88,2.1,2.8L478.3-17.06z"/>
			</g>
			<g>
				<path class="st3" d="M449.39-18.44c-1.37,0.13-2.74,0.29-4.1,0.47l-83.65,136.35c0.46,1.3,0.93,2.59,1.44,3.87L449.39-18.44z"/>
			</g>
			<g>
				<path class="st3" d="M512.81-3.66c-0.46-0.28-0.93-0.56-1.4-0.83L403.62,171.22c0.46,0.29,0.91,0.58,1.38,0.87
					c0.46,0.28,0.93,0.56,1.4,0.83L514.19-2.79C513.73-3.08,513.28-3.38,512.81-3.66z"/>
			</g>
			<g>
				<path class="st3" d="M432.7-15.49c-1.55,0.41-3.1,0.85-4.63,1.33L357.24,101.3c0.27,1.59,0.57,3.16,0.91,4.74L432.7-15.49z"/>
			</g>
			<g>
				<path class="st3" d="M355.81,85.59l57.6-93.89c-1.91,0.94-3.8,1.93-5.65,2.99l-51.84,84.51
					C355.82,81.33,355.78,83.46,355.81,85.59z"/>
			</g>
			<g>
				<path class="st3" d="M560.57,67.13c-0.27-1.59-0.57-3.16-0.91-4.74l-74.55,121.52c1.55-0.41,3.1-0.85,4.63-1.33L560.57,67.13z"
					/>
			</g>
			<g>
				<path class="st3" d="M556.17,50.05c-0.46-1.3-0.93-2.59-1.44-3.87l-86.31,140.69c1.37-0.13,2.74-0.29,4.1-0.47L556.17,50.05z"/>
			</g>
			<g>
				<path class="st3" d="M387.29,10.03c-6.12,5.92-11.6,12.69-16.26,20.28c-4.66,7.59-8.21,15.55-10.71,23.68L387.29,10.03z"/>
			</g>
			<g>
				<path class="st3" d="M561.89,89.24c0.1-2.13,0.14-4.27,0.11-6.39l-57.6,93.89c1.91-0.94,3.8-1.93,5.65-2.99L561.89,89.24z"/>
			</g>
			<g>
				<path class="st3" d="M530.53,158.41c6.12-5.92,11.6-12.69,16.26-20.28c4.66-7.59,8.21-15.55,10.71-23.68L530.53,158.41z"/>
			</g>
			<g>
				<path class="st3" d="M533.95,13.5c-0.77-0.81-1.54-1.61-2.34-2.4L426.67,182.16c1.06,0.35,2.13,0.68,3.2,1L533.95,13.5z"/>
			</g>
			<g>
				<path class="st3" d="M524.49,4.67c-0.84-0.69-1.69-1.37-2.56-2.04l-107.2,174.74c0.99,0.47,1.98,0.92,2.98,1.36L524.49,4.67z"/>
			</g>
			<g>
				<path class="st3" d="M549.98,35.89c-0.58-1.1-1.18-2.2-1.8-3.28l-94.82,154.57c1.25,0.07,2.49,0.1,3.74,0.12L549.98,35.89z"/>
			</g>
			<g>
				<path class="st3" d="M542.49,23.83c-0.68-0.94-1.38-1.88-2.1-2.8L439.51,185.49c1.15,0.22,2.3,0.42,3.45,0.6L542.49,23.83z"/>
			</g>
		</g>
	</g>
</g>
<g>
	<path d="M128.55,38.95h-9.18v6.22h10.78v3.84h-15.56V25.8h15.53v3.87h-10.74v5.53h9.18V38.95z"/>
	<path d="M132.95,49.01V25.8h7.14c2.04,0,3.87,0.46,5.48,1.38c1.61,0.92,2.87,2.23,3.77,3.92c0.9,1.7,1.36,3.62,1.36,5.78v1.07
		c0,2.16-0.44,4.08-1.33,5.75c-0.89,1.68-2.14,2.98-3.75,3.91c-1.62,0.92-3.44,1.39-5.47,1.4H132.95z M137.74,29.68v15.5h2.31
		c1.87,0,3.3-0.61,4.29-1.83c0.99-1.22,1.49-2.97,1.51-5.25v-1.23c0-2.36-0.49-4.15-1.47-5.36c-0.98-1.22-2.41-1.83-4.29-1.83
		H137.74z"/>
	<path d="M159.26,49.01h-4.78V25.8h4.78V49.01z"/>
	<path d="M180.7,29.68h-7.11v19.34h-4.78V29.68h-7.01V25.8h18.91V29.68z"/>
	<path d="M194.62,44.23h-8.39l-1.59,4.78h-5.08l8.64-23.21h4.43l8.69,23.21h-5.08L194.62,44.23z M187.52,40.36h5.8l-2.92-8.69
		L187.52,40.36z"/>
	<path d="M212.07,40.52h-3.81v8.5h-4.78V25.8h8.62c2.74,0,4.86,0.61,6.34,1.83c1.49,1.22,2.23,2.95,2.23,5.18
		c0,1.58-0.34,2.9-1.03,3.96s-1.72,1.9-3.12,2.53l5.02,9.48v0.22h-5.13L212.07,40.52z M208.26,36.64h3.86c1.2,0,2.13-0.3,2.79-0.92
		s0.99-1.45,0.99-2.53c0-1.09-0.31-1.96-0.93-2.58s-1.58-0.94-2.86-0.94h-3.84V36.64z"/>
	<path d="M246.41,38.95h-9.18v6.22H248v3.84h-15.56V25.8h15.53v3.87h-10.74v5.53h9.18V38.95z"/>
	<path d="M269.68,49.01h-4.78l-9.31-15.27v15.27h-4.78V25.8h4.78l9.33,15.3V25.8h4.77V49.01z"/>
	<path class="st4" d="M65.34,60.44l11.31,43.32l11.27-43.32h15.8v59.9H91.59v-16.21l1.11-24.97l-11.97,41.18H72.5L60.53,79.16
		l1.11,24.97v16.21H49.54v-59.9H65.34z"/>
	<path class="st4" d="M155.6,95.78c0,8.04-1.9,14.28-5.7,18.72c-3.8,4.44-9.07,6.67-15.82,6.67c-6.72,0-12-2.2-15.84-6.6
		c-3.84-4.4-5.79-10.57-5.84-18.49V85.83c0-8.23,1.91-14.65,5.72-19.27c3.81-4.62,9.11-6.93,15.88-6.93
		c6.66,0,11.92,2.27,15.76,6.81s5.79,10.91,5.84,19.11V95.78z M143.46,85.74c0-5.4-0.77-9.42-2.3-12.05
		c-1.54-2.63-3.92-3.95-7.16-3.95c-3.21,0-5.58,1.27-7.12,3.81c-1.54,2.54-2.33,6.4-2.39,11.58v10.65c0,5.24,0.78,9.1,2.34,11.58
		c1.56,2.48,3.98,3.72,7.24,3.72c3.15,0,5.5-1.21,7.04-3.64c1.54-2.43,2.32-6.19,2.34-11.29V85.74z"/>
	<path class="st4" d="M206.45,95.78c0,8.04-1.9,14.28-5.7,18.72s-9.07,6.67-15.82,6.67c-6.72,0-12-2.2-15.84-6.6
		c-3.84-4.4-5.79-10.57-5.84-18.49V85.83c0-8.23,1.91-14.65,5.72-19.27c3.81-4.62,9.1-6.93,15.88-6.93c6.67,0,11.92,2.27,15.76,6.81
		s5.79,10.91,5.84,19.11V95.78z M194.31,85.74c0-5.4-0.77-9.42-2.3-12.05s-3.92-3.95-7.16-3.95c-3.21,0-5.58,1.27-7.12,3.81
		c-1.54,2.54-2.33,6.4-2.39,11.58v10.65c0,5.24,0.78,9.1,2.34,11.58c1.56,2.48,3.98,3.72,7.24,3.72c3.15,0,5.5-1.21,7.03-3.64
		c1.54-2.43,2.32-6.19,2.35-11.29V85.74z"/>
	<path class="st4" d="M215.13,120.34v-59.9h15.84c6.99,0,12.57,2.22,16.72,6.66s6.27,10.53,6.36,18.27v9.71
		c0,7.87-2.08,14.05-6.23,18.53s-9.88,6.73-17.18,6.73H215.13z M227.22,70.52v39.78h3.62c4.03,0,6.87-1.06,8.52-3.19
		c1.65-2.12,2.51-5.79,2.59-11V85.7c0-5.59-0.78-9.5-2.34-11.7c-1.56-2.21-4.22-3.37-7.98-3.48H227.22z"/>
	<path class="st4" d="M274.82,110.3h21.23v10.04h-33.32v-59.9h12.09V110.3z"/>
	<path class="st4" d="M333.98,94.42h-18.84v15.88h22.3v10.04h-34.39v-59.9h34.31v10.08h-22.22v14.15h18.84V94.42z"/>
</g>
<g>
	<path class="st5" d="M548.54,42.25c1.2-1.47,2.76-2.21,4.69-2.21c3.35,0,5.04,1.89,5.07,5.67v10.47h-2.71V45.69
		c-0.01-1.14-0.27-1.99-0.78-2.53c-0.51-0.55-1.31-0.82-2.4-0.82c-0.88,0-1.65,0.23-2.31,0.7s-1.18,1.08-1.55,1.85v11.29h-2.71
		v-22.5h2.71V42.25z"/>
	<path class="st5" d="M568.93,56.47c-2.15,0-3.9-0.71-5.24-2.12c-1.35-1.41-2.02-3.3-2.02-5.66v-0.5c0-1.57,0.3-2.98,0.9-4.21
		c0.6-1.23,1.44-2.2,2.52-2.9c1.08-0.7,2.25-1.05,3.51-1.05c2.06,0,3.66,0.68,4.8,2.04s1.71,3.3,1.71,5.83v1.13h-10.74
		c0.04,1.56,0.5,2.83,1.37,3.79s1.99,1.44,3.33,1.44c0.96,0,1.77-0.2,2.43-0.59s1.25-0.91,1.74-1.55l1.66,1.29
		C573.58,55.45,571.59,56.47,568.93,56.47z M568.59,42.26c-1.09,0-2.01,0.4-2.75,1.19c-0.74,0.8-1.2,1.91-1.38,3.35h7.94V46.6
		c-0.08-1.38-0.45-2.44-1.11-3.2C570.62,42.64,569.73,42.26,568.59,42.26z"/>
	<path class="st5" d="M585.91,42.76c-0.41-0.07-0.85-0.1-1.33-0.1c-1.78,0-2.98,0.76-3.62,2.27v11.25h-2.71V40.33h2.64l0.04,1.83
		c0.89-1.42,2.15-2.12,3.78-2.12c0.53,0,0.93,0.07,1.2,0.21V42.76z"/>
	<path class="st5" d="M596.06,42.76c-0.41-0.07-0.85-0.1-1.33-0.1c-1.78,0-2.98,0.76-3.62,2.27v11.25h-2.71V40.33h2.64l0.04,1.83
		c0.89-1.42,2.15-2.12,3.78-2.12c0.53,0,0.93,0.07,1.2,0.21V42.76z"/>
	<path class="st5" d="M607.75,56.18c-0.16-0.31-0.28-0.87-0.38-1.67c-1.26,1.31-2.76,1.96-4.51,1.96c-1.56,0-2.84-0.44-3.85-1.33
		c-1-0.88-1.5-2-1.5-3.36c0-1.65,0.63-2.93,1.88-3.85c1.25-0.91,3.02-1.37,5.3-1.37h2.64v-1.25c0-0.95-0.28-1.7-0.85-2.26
		s-1.4-0.84-2.5-0.84c-0.97,0-1.78,0.24-2.43,0.73s-0.98,1.08-0.98,1.77h-2.72c0-0.79,0.28-1.55,0.84-2.29
		c0.56-0.74,1.32-1.32,2.29-1.75c0.96-0.43,2.02-0.64,3.17-0.64c1.83,0,3.26,0.46,4.29,1.37c1.04,0.91,1.57,2.17,1.61,3.77v7.29
		c0,1.46,0.19,2.61,0.56,3.47v0.23H607.75z M603.25,54.11c0.85,0,1.66-0.22,2.42-0.66s1.31-1.01,1.66-1.71v-3.25h-2.12
		c-3.32,0-4.98,0.97-4.98,2.92c0,0.85,0.28,1.51,0.85,1.99S602.36,54.11,603.25,54.11z"/>
	<path class="st5" d="M616.83,40.33l0.07,1.76c1.16-1.37,2.73-2.05,4.7-2.05c2.22,0,3.73,0.85,4.53,2.55
		c0.53-0.76,1.21-1.38,2.06-1.85s1.84-0.7,3-0.7c3.48,0,5.24,1.84,5.3,5.52v10.62h-2.71V45.72c0-1.13-0.26-1.98-0.78-2.54
		s-1.39-0.84-2.61-0.84c-1.01,0-1.84,0.3-2.5,0.9c-0.66,0.6-1.05,1.41-1.16,2.42v10.52h-2.72V45.79c0-2.3-1.13-3.46-3.38-3.46
		c-1.78,0-2.99,0.76-3.65,2.27v11.57h-2.71V40.33H616.83z"/>
	<path class="st5" d="M640.59,36.13c0-0.44,0.13-0.81,0.4-1.11c0.27-0.3,0.67-0.45,1.19-0.45s0.93,0.15,1.2,0.45
		s0.41,0.67,0.41,1.11s-0.14,0.81-0.41,1.1s-0.67,0.44-1.2,0.44s-0.93-0.15-1.19-0.44C640.72,36.93,640.59,36.57,640.59,36.13z
		 M643.52,56.18h-2.71V40.33h2.71V56.18z"/>
	<path class="st5" d="M654.43,56.47c-2.15,0-3.9-0.71-5.24-2.12c-1.35-1.41-2.02-3.3-2.02-5.66v-0.5c0-1.57,0.3-2.98,0.9-4.21
		c0.6-1.23,1.44-2.2,2.52-2.9c1.08-0.7,2.25-1.05,3.51-1.05c2.06,0,3.66,0.68,4.8,2.04s1.71,3.3,1.71,5.83v1.13h-10.74
		c0.04,1.56,0.5,2.83,1.37,3.79s1.99,1.44,3.33,1.44c0.96,0,1.77-0.2,2.43-0.59s1.25-0.91,1.74-1.55l1.66,1.29
		C659.08,55.45,657.09,56.47,654.43,56.47z M654.1,42.26c-1.09,0-2.01,0.4-2.75,1.19c-0.74,0.8-1.2,1.91-1.38,3.35h7.94V46.6
		c-0.08-1.38-0.45-2.44-1.11-3.2C656.13,42.64,655.23,42.26,654.1,42.26z"/>
	<path class="st5" d="M666.31,40.33l0.09,1.99c1.21-1.52,2.79-2.29,4.75-2.29c3.35,0,5.04,1.89,5.07,5.67v10.47h-2.71V45.69
		c-0.01-1.14-0.27-1.99-0.78-2.53c-0.51-0.55-1.31-0.82-2.4-0.82c-0.88,0-1.65,0.23-2.31,0.7s-1.18,1.08-1.55,1.85v11.29h-2.71
		V40.33H666.31z"/>
	<path class="st5" d="M683.98,36.49v3.84h2.96v2.09h-2.96v9.84c0,0.64,0.13,1.11,0.4,1.43s0.71,0.48,1.35,0.48
		c0.31,0,0.74-0.06,1.29-0.18v2.18c-0.71,0.19-1.41,0.29-2.08,0.29c-1.21,0-2.12-0.37-2.74-1.1s-0.92-1.77-0.92-3.12v-9.83h-2.89
		v-2.09h2.89v-3.84H683.98z"/>
	<path class="st5" d="M699.89,56.18c-0.16-0.31-0.28-0.87-0.38-1.67c-1.26,1.31-2.76,1.96-4.51,1.96c-1.56,0-2.84-0.44-3.85-1.33
		c-1-0.88-1.5-2-1.5-3.36c0-1.65,0.63-2.93,1.88-3.85c1.25-0.91,3.02-1.37,5.3-1.37h2.64v-1.25c0-0.95-0.28-1.7-0.85-2.26
		s-1.4-0.84-2.5-0.84c-0.97,0-1.78,0.24-2.43,0.73s-0.98,1.08-0.98,1.77h-2.72c0-0.79,0.28-1.55,0.84-2.29
		c0.56-0.74,1.32-1.32,2.29-1.75c0.96-0.43,2.02-0.64,3.17-0.64c1.83,0,3.26,0.46,4.29,1.37c1.04,0.91,1.57,2.17,1.61,3.77v7.29
		c0,1.46,0.19,2.61,0.56,3.47v0.23H699.89z M695.39,54.11c0.85,0,1.66-0.22,2.42-0.66s1.31-1.01,1.66-1.71v-3.25h-2.12
		c-3.32,0-4.98,0.97-4.98,2.92c0,0.85,0.28,1.51,0.85,1.99S694.5,54.11,695.39,54.11z"/>
	<path class="st5" d="M715.65,51.98c0-0.73-0.28-1.3-0.83-1.71s-1.51-0.75-2.88-1.05c-1.37-0.29-2.46-0.64-3.27-1.05
		c-0.8-0.41-1.4-0.9-1.79-1.46s-0.58-1.24-0.58-2.02c0-1.3,0.55-2.4,1.65-3.3c1.1-0.9,2.5-1.35,4.21-1.35c1.8,0,3.25,0.46,4.37,1.39
		c1.12,0.93,1.68,2.11,1.68,3.56h-2.72c0-0.74-0.32-1.38-0.94-1.92c-0.63-0.54-1.42-0.81-2.38-0.81c-0.99,0-1.76,0.21-2.31,0.64
		s-0.83,0.99-0.83,1.68c0,0.65,0.26,1.15,0.78,1.48s1.45,0.65,2.8,0.95s2.45,0.66,3.29,1.08s1.46,0.93,1.87,1.52
		s0.61,1.31,0.61,2.16c0,1.42-0.57,2.55-1.7,3.41s-2.6,1.28-4.41,1.28c-1.27,0-2.39-0.22-3.37-0.67s-1.74-1.08-2.29-1.88
		c-0.55-0.8-0.83-1.68-0.83-2.61h2.71c0.05,0.91,0.41,1.63,1.09,2.16c0.68,0.53,1.57,0.8,2.69,0.8c1.03,0,1.85-0.21,2.47-0.62
		C715.34,53.22,715.65,52.67,715.65,51.98z"/>
	<path class="st5" d="M559.22,80.43c0,2.41-0.55,4.36-1.66,5.83s-2.6,2.21-4.48,2.21c-1.92,0-3.44-0.61-4.54-1.83v7.63h-2.71V72.33
		h2.48l0.13,1.76c1.1-1.37,2.64-2.05,4.6-2.05c1.9,0,3.41,0.72,4.52,2.15c1.11,1.44,1.66,3.43,1.66,5.99V80.43z M556.51,80.12
		c0-1.79-0.38-3.2-1.14-4.23s-1.81-1.55-3.13-1.55c-1.64,0-2.87,0.73-3.69,2.18v7.57c0.81,1.45,2.05,2.17,3.72,2.17
		c1.3,0,2.33-0.51,3.1-1.55C556.12,83.69,556.51,82.15,556.51,80.12z"/>
	<path class="st5" d="M572.45,88.18c-0.16-0.31-0.28-0.87-0.38-1.67c-1.26,1.31-2.76,1.96-4.51,1.96c-1.56,0-2.84-0.44-3.85-1.33
		c-1-0.88-1.5-2-1.5-3.36c0-1.65,0.63-2.93,1.88-3.85c1.25-0.91,3.02-1.37,5.3-1.37h2.64v-1.25c0-0.95-0.28-1.7-0.85-2.26
		s-1.4-0.84-2.5-0.84c-0.97,0-1.78,0.24-2.43,0.73s-0.98,1.08-0.98,1.77h-2.72c0-0.79,0.28-1.55,0.84-2.29
		c0.56-0.74,1.32-1.32,2.29-1.75c0.96-0.43,2.02-0.64,3.17-0.64c1.83,0,3.26,0.46,4.29,1.37c1.04,0.91,1.57,2.17,1.61,3.77v7.29
		c0,1.46,0.19,2.61,0.56,3.47v0.23H572.45z M567.95,86.11c0.85,0,1.66-0.22,2.42-0.66s1.31-1.01,1.66-1.71v-3.25h-2.12
		c-3.32,0-4.98,0.97-4.98,2.92c0,0.85,0.28,1.51,0.85,1.99S567.06,86.11,567.95,86.11z"/>
	<path class="st5" d="M586.64,74.76c-0.41-0.07-0.85-0.1-1.33-0.1c-1.78,0-2.98,0.76-3.62,2.27v11.25h-2.71V72.33h2.64l0.04,1.83
		c0.89-1.42,2.15-2.12,3.78-2.12c0.53,0,0.93,0.07,1.2,0.21V74.76z"/>
	<path class="st5" d="M598.33,88.18c-0.16-0.31-0.28-0.87-0.38-1.67c-1.26,1.31-2.76,1.96-4.51,1.96c-1.56,0-2.84-0.44-3.85-1.33
		c-1-0.88-1.5-2-1.5-3.36c0-1.65,0.63-2.93,1.88-3.85c1.25-0.91,3.02-1.37,5.3-1.37h2.64v-1.25c0-0.95-0.28-1.7-0.85-2.26
		s-1.4-0.84-2.5-0.84c-0.97,0-1.78,0.24-2.43,0.73s-0.98,1.08-0.98,1.77h-2.72c0-0.79,0.28-1.55,0.84-2.29
		c0.56-0.74,1.32-1.32,2.29-1.75c0.96-0.43,2.02-0.64,3.17-0.64c1.83,0,3.26,0.46,4.29,1.37c1.04,0.91,1.57,2.17,1.61,3.77v7.29
		c0,1.46,0.19,2.61,0.56,3.47v0.23H598.33z M593.83,86.11c0.85,0,1.66-0.22,2.42-0.66s1.31-1.01,1.66-1.71v-3.25h-2.12
		c-3.32,0-4.98,0.97-4.98,2.92c0,0.85,0.28,1.51,0.85,1.99S592.94,86.11,593.83,86.11z"/>
	<path class="st5" d="M618.65,86.26c0.97,0,1.81-0.29,2.53-0.88s1.12-1.32,1.2-2.2h2.56c-0.05,0.91-0.36,1.77-0.94,2.59
		s-1.35,1.47-2.31,1.96c-0.96,0.49-1.98,0.73-3.05,0.73c-2.16,0-3.88-0.72-5.15-2.16c-1.28-1.44-1.91-3.41-1.91-5.91v-0.45
		c0-1.54,0.28-2.92,0.85-4.12s1.38-2.13,2.44-2.8c1.06-0.66,2.31-1,3.76-1c1.78,0,3.25,0.53,4.43,1.6s1.8,2.45,1.88,4.15h-2.56
		c-0.08-1.03-0.47-1.87-1.17-2.53c-0.7-0.66-1.56-0.99-2.58-0.99c-1.38,0-2.44,0.5-3.2,1.49c-0.76,0.99-1.14,2.42-1.14,4.3v0.51
		c0,1.83,0.38,3.23,1.13,4.22S617.25,86.26,618.65,86.26z"/>
	<path class="st5" d="M635.65,74.76c-0.41-0.07-0.85-0.1-1.33-0.1c-1.78,0-2.98,0.76-3.62,2.27v11.25h-2.71V72.33h2.64l0.04,1.83
		c0.89-1.42,2.15-2.12,3.78-2.12c0.53,0,0.93,0.07,1.2,0.21V74.76z"/>
	<path class="st5" d="M644.44,88.47c-2.15,0-3.9-0.71-5.24-2.12c-1.35-1.41-2.02-3.3-2.02-5.66v-0.5c0-1.57,0.3-2.98,0.9-4.21
		c0.6-1.23,1.44-2.2,2.52-2.9c1.08-0.7,2.25-1.05,3.51-1.05c2.06,0,3.66,0.68,4.8,2.04s1.71,3.3,1.71,5.83v1.13h-10.74
		c0.04,1.56,0.5,2.83,1.37,3.79s1.99,1.44,3.33,1.44c0.96,0,1.77-0.2,2.43-0.59s1.25-0.91,1.74-1.55l1.66,1.29
		C649.09,87.45,647.1,88.47,644.44,88.47z M644.11,74.26c-1.09,0-2.01,0.4-2.75,1.19c-0.74,0.8-1.2,1.91-1.38,3.35h7.94V78.6
		c-0.08-1.38-0.45-2.44-1.11-3.2C646.14,74.64,645.24,74.26,644.11,74.26z"/>
	<path class="st5" d="M663.54,88.18c-0.16-0.31-0.28-0.87-0.38-1.67c-1.26,1.31-2.76,1.96-4.51,1.96c-1.56,0-2.84-0.44-3.85-1.33
		c-1-0.88-1.5-2-1.5-3.36c0-1.65,0.63-2.93,1.88-3.85c1.25-0.91,3.02-1.37,5.3-1.37h2.64v-1.25c0-0.95-0.28-1.7-0.85-2.26
		s-1.4-0.84-2.5-0.84c-0.97,0-1.78,0.24-2.43,0.73s-0.98,1.08-0.98,1.77h-2.72c0-0.79,0.28-1.55,0.84-2.29
		c0.56-0.74,1.32-1.32,2.29-1.75c0.96-0.43,2.02-0.64,3.17-0.64c1.83,0,3.26,0.46,4.29,1.37c1.04,0.91,1.57,2.17,1.61,3.77v7.29
		c0,1.46,0.19,2.61,0.56,3.47v0.23H663.54z M659.05,86.11c0.85,0,1.66-0.22,2.42-0.66s1.31-1.01,1.66-1.71v-3.25H661
		c-3.32,0-4.98,0.97-4.98,2.92c0,0.85,0.28,1.51,0.85,1.99S658.16,86.11,659.05,86.11z"/>
	<path class="st5" d="M677.74,74.76c-0.41-0.07-0.85-0.1-1.33-0.1c-1.78,0-2.98,0.76-3.62,2.27v11.25h-2.71V72.33h2.64l0.04,1.83
		c0.89-1.42,2.15-2.12,3.78-2.12c0.53,0,0.93,0.07,1.2,0.21V74.76z"/>
	<path class="st6" d="M555.62,118.61c-1.05,1.24-2.6,1.86-4.64,1.86c-1.69,0-2.98-0.49-3.86-1.47c-0.88-0.98-1.33-2.43-1.34-4.36
		v-10.31h2.71v10.24c0,2.4,0.98,3.6,2.93,3.6c2.07,0,3.45-0.77,4.13-2.31v-11.53h2.71v15.85h-2.58L555.62,118.61z"/>
	<path class="st6" d="M564.93,104.33l0.09,1.99c1.21-1.52,2.79-2.29,4.75-2.29c3.35,0,5.04,1.89,5.07,5.67v10.47h-2.71v-10.49
		c-0.01-1.14-0.27-1.99-0.78-2.53c-0.51-0.55-1.31-0.82-2.4-0.82c-0.88,0-1.65,0.23-2.31,0.7s-1.18,1.08-1.55,1.85v11.29h-2.71
		v-15.85H564.93z"/>
	<path class="st6" d="M592.71,118.26c0.97,0,1.81-0.29,2.53-0.88s1.12-1.32,1.2-2.2H599c-0.05,0.91-0.36,1.77-0.94,2.59
		s-1.35,1.47-2.31,1.96c-0.96,0.49-1.98,0.73-3.05,0.73c-2.16,0-3.88-0.72-5.15-2.16c-1.28-1.44-1.91-3.41-1.91-5.91v-0.45
		c0-1.54,0.28-2.92,0.85-4.12s1.38-2.13,2.44-2.8c1.06-0.66,2.31-1,3.76-1c1.78,0,3.25,0.53,4.43,1.6s1.8,2.45,1.88,4.15h-2.56
		c-0.08-1.03-0.47-1.87-1.17-2.53c-0.7-0.66-1.56-0.99-2.58-0.99c-1.38,0-2.44,0.5-3.2,1.49c-0.76,0.99-1.14,2.42-1.14,4.3v0.51
		c0,1.83,0.38,3.23,1.13,4.22S591.31,118.26,592.71,118.26z"/>
	<path class="st6" d="M611.84,118.61c-1.05,1.24-2.6,1.86-4.64,1.86c-1.69,0-2.98-0.49-3.86-1.47c-0.88-0.98-1.33-2.43-1.34-4.36
		v-10.31h2.71v10.24c0,2.4,0.98,3.6,2.93,3.6c2.07,0,3.45-0.77,4.13-2.31v-11.53h2.71v15.85h-2.58L611.84,118.61z"/>
	<path class="st6" d="M626.25,106.76c-0.41-0.07-0.85-0.1-1.33-0.1c-1.78,0-2.98,0.76-3.62,2.27v11.25h-2.71v-15.85h2.64l0.04,1.83
		c0.89-1.42,2.15-2.12,3.78-2.12c0.53,0,0.93,0.07,1.2,0.21V106.76z"/>
	<path class="st6" d="M637.97,115.98c0-0.73-0.28-1.3-0.83-1.71s-1.51-0.75-2.88-1.05c-1.37-0.29-2.46-0.64-3.27-1.05
		c-0.8-0.41-1.4-0.9-1.79-1.46s-0.58-1.24-0.58-2.02c0-1.3,0.55-2.4,1.65-3.3c1.1-0.9,2.5-1.35,4.21-1.35c1.8,0,3.25,0.46,4.37,1.39
		c1.12,0.93,1.68,2.11,1.68,3.56h-2.72c0-0.74-0.32-1.38-0.94-1.92c-0.63-0.54-1.42-0.81-2.38-0.81c-0.99,0-1.76,0.21-2.31,0.64
		s-0.83,0.99-0.83,1.68c0,0.65,0.26,1.15,0.78,1.48s1.45,0.65,2.8,0.95s2.45,0.66,3.29,1.08s1.46,0.93,1.87,1.52
		s0.61,1.31,0.61,2.16c0,1.42-0.57,2.55-1.7,3.41s-2.6,1.28-4.41,1.28c-1.27,0-2.39-0.22-3.37-0.67s-1.74-1.08-2.29-1.88
		c-0.55-0.8-0.83-1.68-0.83-2.61h2.71c0.05,0.91,0.41,1.63,1.09,2.16c0.68,0.53,1.57,0.8,2.69,0.8c1.03,0,1.85-0.21,2.47-0.62
		C637.66,117.22,637.97,116.67,637.97,115.98z"/>
	<path class="st6" d="M643.49,112.11c0-1.55,0.3-2.95,0.92-4.19s1.46-2.2,2.55-2.87s2.33-1.01,3.73-1.01c2.16,0,3.9,0.75,5.24,2.24
		c1.33,1.49,2,3.48,2,5.96v0.19c0,1.54-0.3,2.93-0.89,4.15s-1.44,2.18-2.53,2.86c-1.1,0.68-2.36,1.03-3.79,1.03
		c-2.15,0-3.89-0.75-5.22-2.24c-1.33-1.49-2-3.47-2-5.93V112.11z M646.22,112.43c0,1.76,0.41,3.17,1.22,4.23
		c0.81,1.06,1.91,1.6,3.27,1.6c1.38,0,2.47-0.54,3.28-1.62s1.22-2.59,1.22-4.53c0-1.74-0.41-3.15-1.24-4.23
		c-0.83-1.08-1.92-1.62-3.29-1.62c-1.34,0-2.42,0.53-3.24,1.6S646.22,110.45,646.22,112.43z"/>
	<path class="st6" d="M682.16,112.43c0,2.42-0.56,4.37-1.67,5.84c-1.11,1.47-2.61,2.21-4.48,2.21c-2,0-3.55-0.71-4.64-2.12
		l-0.13,1.83h-2.49v-22.5h2.71v8.39c1.09-1.36,2.6-2.04,4.53-2.04s3.44,0.73,4.53,2.18c1.1,1.46,1.65,3.45,1.65,5.98V112.43z
		 M679.45,112.12c0-1.85-0.36-3.27-1.07-4.28s-1.74-1.51-3.08-1.51c-1.79,0-3.07,0.83-3.85,2.49v6.86c0.83,1.66,2.12,2.49,3.88,2.49
		c1.3,0,2.31-0.5,3.03-1.51S679.45,114.14,679.45,112.12z"/>
	<path class="st6" d="M695.36,120.18c-0.16-0.31-0.28-0.87-0.38-1.67c-1.26,1.31-2.76,1.96-4.51,1.96c-1.56,0-2.84-0.44-3.85-1.33
		c-1-0.88-1.5-2-1.5-3.36c0-1.65,0.63-2.93,1.88-3.85c1.25-0.91,3.02-1.37,5.3-1.37h2.64v-1.25c0-0.95-0.28-1.7-0.85-2.26
		s-1.4-0.84-2.5-0.84c-0.97,0-1.78,0.24-2.43,0.73s-0.98,1.08-0.98,1.77h-2.72c0-0.79,0.28-1.55,0.84-2.29
		c0.56-0.74,1.32-1.32,2.29-1.75c0.96-0.43,2.02-0.64,3.17-0.64c1.83,0,3.26,0.46,4.29,1.37c1.04,0.91,1.57,2.17,1.61,3.77v7.29
		c0,1.46,0.19,2.61,0.56,3.47v0.23H695.36z M690.86,118.11c0.85,0,1.66-0.22,2.42-0.66s1.31-1.01,1.66-1.71v-3.25h-2.12
		c-3.32,0-4.98,0.97-4.98,2.92c0,0.85,0.28,1.51,0.85,1.99S689.98,118.11,690.86,118.11z M693.37,97.68h3.28l-3.93,4.31l-2.18-0.01
		L693.37,97.68z"/>
	<path class="st6" d="M711.12,115.98c0-0.73-0.28-1.3-0.83-1.71s-1.51-0.75-2.88-1.05c-1.37-0.29-2.46-0.64-3.27-1.05
		c-0.8-0.41-1.4-0.9-1.79-1.46s-0.58-1.24-0.58-2.02c0-1.3,0.55-2.4,1.65-3.3c1.1-0.9,2.5-1.35,4.21-1.35c1.8,0,3.25,0.46,4.37,1.39
		c1.12,0.93,1.68,2.11,1.68,3.56h-2.72c0-0.74-0.32-1.38-0.94-1.92c-0.63-0.54-1.42-0.81-2.38-0.81c-0.99,0-1.76,0.21-2.31,0.64
		s-0.83,0.99-0.83,1.68c0,0.65,0.26,1.15,0.78,1.48s1.45,0.65,2.8,0.95s2.45,0.66,3.29,1.08s1.46,0.93,1.87,1.52
		s0.61,1.31,0.61,2.16c0,1.42-0.57,2.55-1.7,3.41s-2.6,1.28-4.41,1.28c-1.27,0-2.39-0.22-3.37-0.67s-1.74-1.08-2.29-1.88
		c-0.55-0.8-0.83-1.68-0.83-2.61h2.71c0.05,0.91,0.41,1.63,1.09,2.16c0.68,0.53,1.57,0.8,2.69,0.8c1.03,0,1.85-0.21,2.47-0.62
		C710.81,117.22,711.12,116.67,711.12,115.98z"/>
	<path class="st6" d="M717.38,100.13c0-0.44,0.13-0.81,0.4-1.11c0.27-0.3,0.67-0.45,1.19-0.45s0.93,0.15,1.2,0.45
		s0.41,0.67,0.41,1.11s-0.14,0.81-0.41,1.1s-0.67,0.44-1.2,0.44s-0.93-0.15-1.19-0.44C717.51,100.93,717.38,100.57,717.38,100.13z
		 M720.31,120.18h-2.71v-15.85h2.71V120.18z"/>
	<path class="st6" d="M731,118.26c0.97,0,1.81-0.29,2.53-0.88s1.12-1.32,1.2-2.2h2.56c-0.05,0.91-0.36,1.77-0.94,2.59
		s-1.35,1.47-2.31,1.96c-0.96,0.49-1.98,0.73-3.05,0.73c-2.16,0-3.88-0.72-5.15-2.16c-1.28-1.44-1.91-3.41-1.91-5.91v-0.45
		c0-1.54,0.28-2.92,0.85-4.12s1.38-2.13,2.44-2.8c1.06-0.66,2.31-1,3.76-1c1.78,0,3.25,0.53,4.43,1.6s1.8,2.45,1.88,4.15h-2.56
		c-0.08-1.03-0.47-1.87-1.17-2.53c-0.7-0.66-1.56-0.99-2.58-0.99c-1.38,0-2.44,0.5-3.2,1.49c-0.76,0.99-1.14,2.42-1.14,4.3v0.51
		c0,1.83,0.38,3.23,1.13,4.22S729.6,118.26,731,118.26z"/>
	<path class="st6" d="M739.63,112.11c0-1.55,0.3-2.95,0.92-4.19s1.46-2.2,2.55-2.87s2.33-1.01,3.73-1.01c2.16,0,3.9,0.75,5.24,2.24
		c1.33,1.49,2,3.48,2,5.96v0.19c0,1.54-0.3,2.93-0.89,4.15s-1.44,2.18-2.53,2.86c-1.1,0.68-2.36,1.03-3.79,1.03
		c-2.15,0-3.89-0.75-5.22-2.24c-1.33-1.49-2-3.47-2-5.93V112.11z M742.35,112.43c0,1.76,0.41,3.17,1.22,4.23
		c0.81,1.06,1.91,1.6,3.27,1.6c1.38,0,2.47-0.54,3.28-1.62s1.22-2.59,1.22-4.53c0-1.74-0.41-3.15-1.24-4.23
		c-0.83-1.08-1.92-1.62-3.29-1.62c-1.34,0-2.42,0.53-3.24,1.6S742.35,110.45,742.35,112.43z"/>
</g>
</svg>
