<?xml version="1.0" encoding="utf-8"?>
<!-- Generator: Adobe Illustrator 25.4.1, SVG Export Plug-In . SVG Version: 6.00 Build 0)  -->
<svg version="1.1" id="Capa_1" xmlns="http://www.w3.org/2000/svg" xmlns:xlink="http://www.w3.org/1999/xlink" x="0px" y="0px"
	 viewBox="0 0 600 200" style="enable-background:new 0 0 600 200;" xml:space="preserve">
<style type="text/css">
	.st0{fill:#F98012;}
	.st1{fill:#44505F;}
	.st2{clip-path:url(#SVGID_00000081635799918550916950000005865381960038556803_);}
	.st3{fill:#BED6ED;}
	.st4{opacity:0.3;clip-path:url(#SVGID_00000038396877957253460680000004480005272285769099_);}
	.st5{fill:#FFFFFF;}
</style>
<g>
	<path d="M108.22,37.57h-8.91v6.03h10.45v3.73H94.67V24.82h15.06v3.76H99.31v5.37h8.91V37.57z"/>
	<path d="M112.49,47.33V24.82h6.93c1.98,0,3.75,0.45,5.31,1.34c1.56,0.89,2.78,2.16,3.66,3.8s1.31,3.51,1.31,5.61v1.04
		c0,2.09-0.43,3.95-1.29,5.58c-0.86,1.63-2.07,2.89-3.64,3.79c-1.57,0.9-3.33,1.35-5.3,1.36H112.49z M117.13,28.58v15.03h2.24
		c1.81,0,3.2-0.59,4.16-1.78s1.45-2.88,1.47-5.09v-1.19c0-2.29-0.47-4.02-1.42-5.2s-2.33-1.77-4.16-1.77H117.13z"/>
	<path d="M138,47.33h-4.64V24.82H138V47.33z"/>
	<path d="M158.8,28.58h-6.9v18.76h-4.64V28.58h-6.8v-3.76h18.34V28.58z"/>
	<path d="M172.3,42.69h-8.13l-1.55,4.64h-4.93l8.38-22.51h4.3l8.43,22.51h-4.93L172.3,42.69z M165.42,38.94h5.63l-2.83-8.43
		L165.42,38.94z"/>
	<path d="M189.23,39.09h-3.7v8.24h-4.64V24.82h8.37c2.66,0,4.71,0.59,6.15,1.78s2.17,2.86,2.17,5.03c0,1.54-0.33,2.82-1,3.84
		c-0.67,1.03-1.67,1.84-3.02,2.45l4.87,9.2v0.22h-4.98L189.23,39.09z M185.54,35.33h3.74c1.17,0,2.07-0.3,2.71-0.89
		s0.96-1.41,0.96-2.45c0-1.06-0.3-1.9-0.9-2.5s-1.53-0.91-2.78-0.91h-3.73V35.33z"/>
	<path d="M222.54,37.57h-8.91v6.03h10.45v3.73H209V24.82h15.06v3.76h-10.42v5.37h8.91V37.57z"/>
	<path d="M245.12,47.33h-4.64l-9.03-14.81v14.81h-4.64V24.82h4.64l9.05,14.84V24.82h4.62V47.33z"/>
	<path class="st0" d="M46.9,58.42l10.97,42.02l10.93-42.02h15.32v58.1H72.36V100.8l1.08-24.22l-11.61,39.95h-7.98L42.23,76.58
		l1.08,24.22v15.72H31.58v-58.1H46.9z"/>
	<path class="st0" d="M134.46,92.7c0,7.79-1.84,13.85-5.53,18.16c-3.69,4.31-8.8,6.46-15.34,6.46c-6.52,0-11.64-2.13-15.36-6.4
		c-3.73-4.27-5.61-10.25-5.67-17.94v-9.94c0-7.98,1.85-14.21,5.55-18.7s8.83-6.72,15.4-6.72c6.46,0,11.56,2.2,15.28,6.6
		c3.72,4.4,5.61,10.58,5.67,18.54V92.7z M122.68,82.96c0-5.24-0.75-9.14-2.23-11.69c-1.49-2.55-3.8-3.83-6.94-3.83
		c-3.11,0-5.41,1.23-6.9,3.69c-1.49,2.46-2.26,6.21-2.31,11.23V92.7c0,5.08,0.76,8.83,2.27,11.23c1.52,2.41,3.86,3.61,7.02,3.61
		c3.06,0,5.33-1.18,6.82-3.53c1.49-2.35,2.25-6,2.27-10.95V82.96z"/>
	<path class="st0" d="M183.78,92.7c0,7.79-1.84,13.85-5.53,18.16c-3.69,4.31-8.8,6.46-15.34,6.46c-6.52,0-11.64-2.13-15.36-6.4
		c-3.73-4.27-5.61-10.25-5.67-17.94v-9.94c0-7.98,1.85-14.21,5.55-18.7c3.7-4.48,8.83-6.72,15.4-6.72c6.46,0,11.56,2.2,15.28,6.6
		c3.72,4.4,5.61,10.58,5.67,18.54V92.7z M172.01,82.96c0-5.24-0.75-9.14-2.23-11.69c-1.49-2.55-3.8-3.83-6.94-3.83
		c-3.11,0-5.41,1.23-6.9,3.69c-1.49,2.46-2.26,6.21-2.31,11.23V92.7c0,5.08,0.76,8.83,2.27,11.23c1.52,2.41,3.86,3.61,7.02,3.61
		c3.06,0,5.33-1.18,6.82-3.53c1.49-2.35,2.25-6,2.27-10.95V82.96z"/>
	<path class="st0" d="M192.2,116.52v-58.1h15.36c6.78,0,12.19,2.15,16.22,6.46c4.03,4.31,6.09,10.22,6.17,17.72v9.42
		c0,7.64-2.02,13.63-6.05,17.98s-9.58,6.52-16.66,6.52H192.2z M203.93,68.2v38.59h3.51c3.91,0,6.66-1.03,8.26-3.09
		s2.43-5.62,2.51-10.67v-10.1c0-5.43-0.76-9.21-2.27-11.35c-1.52-2.14-4.1-3.27-7.74-3.37H203.93z"/>
	<path class="st0" d="M250.1,106.78h20.59v9.74h-32.32v-58.1h11.73V106.78z"/>
	<path class="st0" d="M307.48,91.38h-18.28v15.4h21.63v9.74h-33.36v-58.1h33.28v9.78h-21.55v13.73h18.28V91.38z"/>
	<path class="st1" d="M33.02,136.11c1.07-1.31,2.45-1.96,4.16-1.96c2.97,0,4.47,1.68,4.5,5.03v9.3h-2.41v-9.31
		c-0.01-1.01-0.24-1.76-0.7-2.25c-0.46-0.49-1.16-0.73-2.13-0.73c-0.78,0-1.46,0.21-2.05,0.62s-1.05,0.96-1.38,1.64v10.03h-2.41
		v-19.98h2.41V136.11z"/>
	<path class="st1" d="M51.13,148.74c-1.91,0-3.46-0.63-4.66-1.88s-1.79-2.93-1.79-5.03v-0.44c0-1.4,0.27-2.64,0.8-3.74
		s1.28-1.96,2.24-2.58c0.96-0.62,2-0.93,3.11-0.93c1.83,0,3.25,0.6,4.27,1.81c1.01,1.21,1.52,2.93,1.52,5.18v1h-9.53
		c0.03,1.39,0.44,2.51,1.22,3.36c0.78,0.85,1.76,1.28,2.96,1.28c0.85,0,1.57-0.17,2.16-0.52c0.59-0.35,1.11-0.81,1.55-1.38
		l1.47,1.14C55.25,147.84,53.48,148.74,51.13,148.74z M50.83,136.13c-0.97,0-1.79,0.35-2.44,1.06c-0.66,0.71-1.07,1.7-1.22,2.97
		h7.05v-0.18c-0.07-1.22-0.4-2.17-0.99-2.84C52.63,136.46,51.83,136.13,50.83,136.13z"/>
	<path class="st1" d="M66.2,136.57c-0.36-0.06-0.76-0.09-1.18-0.09c-1.58,0-2.65,0.67-3.21,2.02v9.99H59.4v-14.07h2.34l0.04,1.63
		c0.79-1.26,1.91-1.89,3.36-1.89c0.47,0,0.82,0.06,1.07,0.18V136.57z"/>
	<path class="st1" d="M75.21,136.57c-0.36-0.06-0.76-0.09-1.18-0.09c-1.58,0-2.65,0.67-3.21,2.02v9.99h-2.41v-14.07h2.34l0.04,1.63
		c0.79-1.26,1.91-1.89,3.36-1.89c0.47,0,0.82,0.06,1.07,0.18V136.57z"/>
	<path class="st1" d="M85.59,148.48c-0.14-0.28-0.25-0.77-0.34-1.48c-1.12,1.16-2.45,1.74-4.01,1.74c-1.39,0-2.53-0.39-3.41-1.18
		c-0.89-0.78-1.33-1.78-1.33-2.98c0-1.47,0.56-2.6,1.67-3.41s2.68-1.22,4.7-1.22h2.34v-1.11c0-0.84-0.25-1.51-0.75-2.01
		c-0.5-0.5-1.24-0.75-2.22-0.75c-0.86,0-1.58,0.22-2.16,0.65s-0.87,0.96-0.87,1.57h-2.42c0-0.7,0.25-1.38,0.75-2.04
		c0.5-0.65,1.17-1.17,2.03-1.55s1.79-0.57,2.82-0.57c1.62,0,2.89,0.41,3.81,1.22c0.92,0.81,1.4,1.93,1.43,3.35v6.48
		c0,1.29,0.17,2.32,0.49,3.08v0.21H85.59z M81.6,146.65c0.75,0,1.47-0.2,2.15-0.58c0.68-0.39,1.17-0.9,1.47-1.52v-2.89h-1.89
		c-2.95,0-4.42,0.86-4.42,2.59c0,0.75,0.25,1.34,0.75,1.77S80.81,146.65,81.6,146.65z"/>
	<path class="st1" d="M93.65,134.41l0.06,1.56c1.03-1.21,2.42-1.82,4.17-1.82c1.97,0,3.31,0.75,4.02,2.26
		c0.47-0.68,1.08-1.22,1.83-1.64c0.75-0.42,1.64-0.62,2.66-0.62c3.09,0,4.66,1.63,4.71,4.9v9.43h-2.41v-9.29
		c0-1.01-0.23-1.76-0.69-2.26c-0.46-0.5-1.23-0.75-2.31-0.75c-0.89,0-1.63,0.27-2.22,0.8c-0.59,0.53-0.93,1.25-1.03,2.15v9.34h-2.42
		v-9.22c0-2.05-1-3.07-3-3.07c-1.58,0-2.66,0.67-3.24,2.02v10.27h-2.41v-14.07H93.65z"/>
	<path class="st1" d="M114.75,130.68c0-0.39,0.12-0.72,0.36-0.99s0.59-0.4,1.06-0.4s0.82,0.13,1.07,0.4s0.36,0.6,0.36,0.99
		c0,0.39-0.12,0.72-0.36,0.98s-0.6,0.39-1.07,0.39s-0.82-0.13-1.06-0.39S114.75,131.07,114.75,130.68z M117.35,148.48h-2.41v-14.07
		h2.41V148.48z"/>
	<path class="st1" d="M127.04,148.74c-1.91,0-3.46-0.63-4.66-1.88s-1.79-2.93-1.79-5.03v-0.44c0-1.4,0.27-2.64,0.8-3.74
		s1.28-1.96,2.24-2.58c0.96-0.62,2-0.93,3.11-0.93c1.83,0,3.25,0.6,4.27,1.81c1.01,1.21,1.52,2.93,1.52,5.18v1h-9.53
		c0.03,1.39,0.44,2.51,1.22,3.36c0.78,0.85,1.76,1.28,2.96,1.28c0.85,0,1.57-0.17,2.16-0.52c0.59-0.35,1.11-0.81,1.55-1.38
		l1.47,1.14C131.17,147.84,129.4,148.74,127.04,148.74z M126.74,136.13c-0.97,0-1.79,0.35-2.44,1.06c-0.66,0.71-1.07,1.7-1.22,2.97
		h7.05v-0.18c-0.07-1.22-0.4-2.17-0.99-2.84C128.54,136.46,127.75,136.13,126.74,136.13z"/>
	<path class="st1" d="M137.59,134.41l0.08,1.77c1.08-1.35,2.48-2.03,4.21-2.03c2.97,0,4.47,1.68,4.5,5.03v9.3h-2.41v-9.31
		c-0.01-1.01-0.24-1.76-0.7-2.25c-0.46-0.49-1.16-0.73-2.13-0.73c-0.78,0-1.46,0.21-2.05,0.62s-1.05,0.96-1.38,1.64v10.03h-2.41
		v-14.07H137.59z"/>
	<path class="st1" d="M153.27,131v3.41h2.63v1.86h-2.63v8.74c0,0.56,0.12,0.99,0.35,1.27s0.63,0.42,1.2,0.42
		c0.28,0,0.66-0.05,1.14-0.16v1.94c-0.63,0.17-1.25,0.26-1.85,0.26c-1.08,0-1.89-0.33-2.43-0.97c-0.55-0.65-0.82-1.57-0.82-2.77
		v-8.73h-2.56v-1.86h2.56V131H153.27z"/>
	<path class="st1" d="M167.39,148.48c-0.14-0.28-0.25-0.77-0.34-1.48c-1.12,1.16-2.45,1.74-4.01,1.74c-1.39,0-2.53-0.39-3.41-1.18
		c-0.89-0.78-1.33-1.78-1.33-2.98c0-1.47,0.56-2.6,1.67-3.41c1.11-0.81,2.68-1.22,4.7-1.22h2.34v-1.11c0-0.84-0.25-1.51-0.75-2.01
		c-0.5-0.5-1.24-0.75-2.22-0.75c-0.86,0-1.58,0.22-2.16,0.65c-0.58,0.43-0.87,0.96-0.87,1.57h-2.42c0-0.7,0.25-1.38,0.75-2.04
		c0.5-0.65,1.17-1.17,2.03-1.55s1.79-0.57,2.82-0.57c1.62,0,2.89,0.41,3.81,1.22c0.92,0.81,1.4,1.93,1.43,3.35v6.48
		c0,1.29,0.16,2.32,0.49,3.08v0.21H167.39z M163.4,146.65c0.75,0,1.47-0.2,2.15-0.58c0.68-0.39,1.17-0.9,1.47-1.52v-2.89h-1.89
		c-2.95,0-4.42,0.86-4.42,2.59c0,0.75,0.25,1.34,0.75,1.77S162.61,146.65,163.4,146.65z"/>
	<path class="st1" d="M181.39,144.75c0-0.65-0.25-1.16-0.74-1.52c-0.49-0.36-1.34-0.67-2.56-0.93c-1.22-0.26-2.19-0.57-2.9-0.94
		s-1.24-0.8-1.59-1.3s-0.51-1.1-0.51-1.79c0-1.15,0.49-2.13,1.46-2.93c0.98-0.8,2.22-1.2,3.74-1.2c1.6,0,2.89,0.41,3.88,1.24
		c0.99,0.82,1.49,1.88,1.49,3.16h-2.42c0-0.66-0.28-1.23-0.84-1.7c-0.56-0.48-1.26-0.72-2.11-0.72c-0.88,0-1.56,0.19-2.05,0.57
		c-0.49,0.38-0.74,0.88-0.74,1.5c0,0.58,0.23,1.02,0.69,1.31c0.46,0.29,1.29,0.58,2.49,0.85c1.2,0.27,2.17,0.59,2.92,0.96
		c0.75,0.37,1.3,0.82,1.66,1.35c0.36,0.53,0.54,1.16,0.54,1.92c0,1.26-0.5,2.26-1.51,3.02c-1.01,0.76-2.31,1.14-3.92,1.14
		c-1.13,0-2.12-0.2-2.99-0.6c-0.87-0.4-1.55-0.96-2.04-1.67c-0.49-0.71-0.73-1.49-0.73-2.32h2.41c0.04,0.81,0.37,1.45,0.97,1.92
		s1.4,0.71,2.39,0.71c0.91,0,1.64-0.18,2.19-0.55C181.11,145.86,181.39,145.37,181.39,144.75z"/>
	<path class="st1" d="M205.41,141.6c0,2.14-0.49,3.87-1.47,5.18c-0.98,1.31-2.31,1.96-3.98,1.96c-1.71,0-3.05-0.54-4.03-1.62v6.78
		h-2.41v-19.48h2.2l0.12,1.56c0.98-1.21,2.34-1.82,4.08-1.82c1.69,0,3.03,0.64,4.01,1.91c0.98,1.27,1.48,3.05,1.48,5.32V141.6z
		 M203,141.33c0-1.59-0.34-2.84-1.01-3.76s-1.6-1.38-2.78-1.38c-1.46,0-2.55,0.65-3.28,1.94v6.72c0.72,1.28,1.82,1.92,3.3,1.92
		c1.15,0,2.07-0.46,2.75-1.37C202.66,144.49,203,143.13,203,141.33z"/>
	<path class="st1" d="M217.15,148.48c-0.14-0.28-0.25-0.77-0.34-1.48c-1.12,1.16-2.45,1.74-4.01,1.74c-1.39,0-2.53-0.39-3.41-1.18
		c-0.89-0.78-1.33-1.78-1.33-2.98c0-1.47,0.56-2.6,1.67-3.41c1.11-0.81,2.68-1.22,4.7-1.22h2.34v-1.11c0-0.84-0.25-1.51-0.75-2.01
		c-0.5-0.5-1.24-0.75-2.22-0.75c-0.86,0-1.58,0.22-2.16,0.65c-0.58,0.43-0.87,0.96-0.87,1.57h-2.42c0-0.7,0.25-1.38,0.75-2.04
		c0.5-0.65,1.17-1.17,2.03-1.55s1.79-0.57,2.82-0.57c1.62,0,2.89,0.41,3.81,1.22c0.92,0.81,1.4,1.93,1.43,3.35v6.48
		c0,1.29,0.16,2.32,0.49,3.08v0.21H217.15z M213.16,146.65c0.75,0,1.47-0.2,2.15-0.58c0.68-0.39,1.17-0.9,1.47-1.52v-2.89h-1.89
		c-2.95,0-4.42,0.86-4.42,2.59c0,0.75,0.25,1.34,0.75,1.77S212.37,146.65,213.16,146.65z"/>
	<path class="st1" d="M229.76,136.57c-0.36-0.06-0.76-0.09-1.18-0.09c-1.58,0-2.65,0.67-3.21,2.02v9.99h-2.41v-14.07h2.34l0.04,1.63
		c0.79-1.26,1.91-1.89,3.36-1.89c0.47,0,0.82,0.06,1.07,0.18V136.57z"/>
	<path class="st1" d="M240.13,148.48c-0.14-0.28-0.25-0.77-0.34-1.48c-1.12,1.16-2.45,1.74-4.01,1.74c-1.39,0-2.53-0.39-3.41-1.18
		c-0.89-0.78-1.33-1.78-1.33-2.98c0-1.47,0.56-2.6,1.67-3.41c1.11-0.81,2.68-1.22,4.7-1.22h2.34v-1.11c0-0.84-0.25-1.51-0.75-2.01
		c-0.5-0.5-1.24-0.75-2.22-0.75c-0.86,0-1.58,0.22-2.16,0.65c-0.58,0.43-0.87,0.96-0.87,1.57h-2.42c0-0.7,0.25-1.38,0.75-2.04
		c0.5-0.65,1.17-1.17,2.03-1.55c0.85-0.38,1.79-0.57,2.82-0.57c1.62,0,2.89,0.41,3.81,1.22c0.92,0.81,1.4,1.93,1.43,3.35v6.48
		c0,1.29,0.16,2.32,0.49,3.08v0.21H240.13z M236.14,146.65c0.75,0,1.47-0.2,2.15-0.58c0.68-0.39,1.17-0.9,1.47-1.52v-2.89h-1.89
		c-2.95,0-4.42,0.86-4.42,2.59c0,0.75,0.25,1.34,0.75,1.77C234.71,146.44,235.35,146.65,236.14,146.65z"/>
	<path class="st1" d="M258.17,146.78c0.86,0,1.61-0.26,2.25-0.78c0.64-0.52,1-1.17,1.07-1.95h2.28c-0.04,0.81-0.32,1.57-0.83,2.3
		c-0.51,0.73-1.19,1.31-2.05,1.74c-0.85,0.43-1.76,0.65-2.71,0.65c-1.92,0-3.44-0.64-4.57-1.92c-1.13-1.28-1.7-3.03-1.7-5.25v-0.4
		c0-1.37,0.25-2.59,0.75-3.66s1.22-1.89,2.17-2.48s2.05-0.88,3.34-0.88c1.58,0,2.89,0.47,3.93,1.42c1.04,0.94,1.6,2.17,1.67,3.68
		h-2.28c-0.07-0.91-0.41-1.66-1.03-2.24c-0.62-0.58-1.39-0.88-2.3-0.88c-1.22,0-2.17,0.44-2.84,1.32s-1.01,2.15-1.01,3.82v0.46
		c0,1.62,0.33,2.87,1,3.75C255.98,146.34,256.93,146.78,258.17,146.78z"/>
	<path class="st1" d="M273.27,136.57c-0.36-0.06-0.76-0.09-1.18-0.09c-1.58,0-2.65,0.67-3.21,2.02v9.99h-2.41v-14.07h2.34l0.04,1.63
		c0.79-1.26,1.91-1.89,3.36-1.89c0.47,0,0.82,0.06,1.07,0.18V136.57z"/>
	<path class="st1" d="M281.08,148.74c-1.91,0-3.46-0.63-4.66-1.88s-1.79-2.93-1.79-5.03v-0.44c0-1.4,0.27-2.64,0.8-3.74
		s1.28-1.96,2.24-2.58c0.96-0.62,2-0.93,3.11-0.93c1.83,0,3.25,0.6,4.27,1.81c1.01,1.21,1.52,2.93,1.52,5.18v1h-9.53
		c0.03,1.39,0.44,2.51,1.22,3.36c0.78,0.85,1.76,1.28,2.96,1.28c0.85,0,1.57-0.17,2.16-0.52c0.59-0.35,1.11-0.81,1.55-1.38
		l1.47,1.14C285.2,147.84,283.43,148.74,281.08,148.74z M280.78,136.13c-0.97,0-1.79,0.35-2.44,1.06c-0.66,0.71-1.07,1.7-1.22,2.97
		h7.05v-0.18c-0.07-1.22-0.4-2.17-0.99-2.84C282.58,136.46,281.78,136.13,280.78,136.13z"/>
	<path class="st1" d="M298.03,148.48c-0.14-0.28-0.25-0.77-0.34-1.48c-1.12,1.16-2.45,1.74-4.01,1.74c-1.39,0-2.53-0.39-3.41-1.18
		c-0.89-0.78-1.33-1.78-1.33-2.98c0-1.47,0.56-2.6,1.67-3.41s2.68-1.22,4.7-1.22h2.34v-1.11c0-0.84-0.25-1.51-0.75-2.01
		c-0.5-0.5-1.24-0.75-2.22-0.75c-0.86,0-1.58,0.22-2.16,0.65s-0.87,0.96-0.87,1.57h-2.42c0-0.7,0.25-1.38,0.75-2.04
		c0.5-0.65,1.17-1.17,2.03-1.55c0.85-0.38,1.79-0.57,2.82-0.57c1.62,0,2.89,0.41,3.81,1.22c0.92,0.81,1.4,1.93,1.43,3.35v6.48
		c0,1.29,0.17,2.32,0.49,3.08v0.21H298.03z M294.04,146.65c0.75,0,1.47-0.2,2.15-0.58c0.68-0.39,1.17-0.9,1.47-1.52v-2.89h-1.89
		c-2.95,0-4.42,0.86-4.42,2.59c0,0.75,0.25,1.34,0.75,1.77S293.25,146.65,294.04,146.65z"/>
	<path class="st1" d="M310.64,136.57c-0.36-0.06-0.76-0.09-1.18-0.09c-1.58,0-2.65,0.67-3.21,2.02v9.99h-2.41v-14.07h2.34l0.04,1.63
		c0.79-1.26,1.91-1.89,3.36-1.89c0.47,0,0.82,0.06,1.07,0.18V136.57z"/>
	<path class="st0" d="M90.65,177.52c-0.89,1.05-2.19,1.57-3.92,1.57c-1.42,0-2.51-0.41-3.26-1.24c-0.75-0.83-1.12-2.05-1.13-3.68
		v-8.7h2.29v8.64c0,2.03,0.82,3.04,2.47,3.04c1.75,0,2.91-0.65,3.48-1.95v-9.72h2.29v13.37H90.7L90.65,177.52z"/>
	<path class="st0" d="M98.5,165.48l0.07,1.68c1.02-1.29,2.36-1.93,4-1.93c2.83,0,4.25,1.59,4.27,4.78v8.83h-2.29V170
		c-0.01-0.96-0.23-1.68-0.66-2.14c-0.43-0.46-1.11-0.69-2.02-0.69c-0.74,0-1.39,0.2-1.95,0.59c-0.56,0.4-1,0.92-1.31,1.56v9.53
		h-2.29v-13.37H98.5z"/>
	<path class="st0" d="M121.93,177.23c0.82,0,1.53-0.25,2.14-0.74c0.61-0.5,0.95-1.11,1.01-1.85h2.16c-0.04,0.77-0.31,1.5-0.79,2.19
		c-0.49,0.69-1.13,1.24-1.95,1.66c-0.81,0.41-1.67,0.62-2.58,0.62c-1.82,0-3.27-0.61-4.34-1.82s-1.61-2.88-1.61-4.99v-0.38
		c0-1.3,0.24-2.46,0.72-3.47c0.48-1.01,1.16-1.8,2.06-2.36c0.89-0.56,1.95-0.84,3.17-0.84c1.5,0,2.74,0.45,3.74,1.35
		c0.99,0.9,1.52,2.06,1.59,3.5h-2.16c-0.07-0.86-0.39-1.58-0.98-2.13s-1.32-0.83-2.18-0.83c-1.16,0-2.06,0.42-2.7,1.25
		s-0.96,2.04-0.96,3.63v0.43c0,1.54,0.32,2.73,0.95,3.56S120.75,177.23,121.93,177.23z"/>
	<path class="st0" d="M138.07,177.52c-0.89,1.05-2.19,1.57-3.92,1.57c-1.42,0-2.51-0.41-3.26-1.24c-0.75-0.83-1.12-2.05-1.13-3.68
		v-8.7h2.29v8.64c0,2.03,0.82,3.04,2.47,3.04c1.75,0,2.91-0.65,3.48-1.95v-9.72h2.29v13.37h-2.17L138.07,177.52z"/>
	<path class="st0" d="M150.22,167.53c-0.35-0.06-0.72-0.09-1.12-0.09c-1.5,0-2.52,0.64-3.05,1.92v9.49h-2.29v-13.37h2.22l0.04,1.54
		c0.75-1.19,1.81-1.79,3.19-1.79c0.45,0,0.78,0.06,1.01,0.17V167.53z"/>
	<path class="st0" d="M160.11,175.3c0-0.62-0.23-1.1-0.7-1.44s-1.28-0.64-2.43-0.88s-2.08-0.54-2.76-0.89
		c-0.68-0.35-1.18-0.76-1.51-1.24c-0.33-0.48-0.49-1.05-0.49-1.71c0-1.09,0.46-2.02,1.39-2.78c0.93-0.76,2.11-1.14,3.55-1.14
		c1.52,0,2.74,0.39,3.69,1.17c0.94,0.78,1.41,1.78,1.41,3h-2.3c0-0.63-0.27-1.17-0.8-1.62s-1.2-0.68-2.01-0.68
		c-0.83,0-1.48,0.18-1.95,0.54s-0.7,0.84-0.7,1.42c0,0.55,0.22,0.97,0.65,1.25c0.44,0.28,1.23,0.55,2.37,0.8
		c1.14,0.25,2.07,0.56,2.77,0.91s1.23,0.78,1.58,1.28c0.34,0.5,0.51,1.11,0.51,1.82c0,1.19-0.48,2.15-1.43,2.87
		c-0.96,0.72-2.2,1.08-3.72,1.08c-1.07,0-2.02-0.19-2.84-0.57c-0.82-0.38-1.47-0.91-1.93-1.59c-0.47-0.68-0.7-1.41-0.7-2.21h2.29
		c0.04,0.77,0.35,1.37,0.92,1.82c0.57,0.45,1.33,0.67,2.27,0.67c0.86,0,1.56-0.17,2.08-0.53
		C159.85,176.35,160.11,175.89,160.11,175.3z"/>
	<path class="st0" d="M164.77,172.04c0-1.31,0.26-2.49,0.77-3.53c0.51-1.05,1.23-1.85,2.15-2.42c0.92-0.57,1.97-0.85,3.14-0.85
		c1.82,0,3.29,0.63,4.42,1.89c1.12,1.26,1.69,2.94,1.69,5.03v0.16c0,1.3-0.25,2.47-0.75,3.5c-0.5,1.03-1.21,1.84-2.14,2.42
		c-0.93,0.58-1.99,0.87-3.19,0.87c-1.81,0-3.28-0.63-4.4-1.89c-1.12-1.26-1.69-2.93-1.69-5V172.04z M167.06,172.31
		c0,1.48,0.34,2.67,1.03,3.57c0.69,0.9,1.61,1.35,2.76,1.35c1.16,0,2.08-0.46,2.77-1.37s1.03-2.19,1.03-3.82
		c0-1.47-0.35-2.65-1.04-3.56s-1.62-1.37-2.77-1.37c-1.13,0-2.04,0.45-2.73,1.35C167.41,169.35,167.06,170.64,167.06,172.31z"/>
	<path class="st0" d="M197.38,172.31c0,2.04-0.47,3.68-1.41,4.92c-0.94,1.24-2.2,1.86-3.78,1.86c-1.69,0-2.99-0.6-3.92-1.79
		l-0.11,1.54h-2.1v-18.98h2.29v7.08c0.92-1.14,2.19-1.72,3.82-1.72c1.62,0,2.9,0.61,3.82,1.84s1.39,2.91,1.39,5.04V172.31z
		 M195.1,172.05c0-1.56-0.3-2.76-0.9-3.61c-0.6-0.85-1.47-1.27-2.59-1.27c-1.51,0-2.59,0.7-3.25,2.1v5.78c0.7,1.4,1.79,2.1,3.27,2.1
		c1.1,0,1.95-0.42,2.56-1.27C194.79,175.03,195.1,173.76,195.1,172.05z"/>
	<path class="st0" d="M208.51,178.85c-0.13-0.26-0.24-0.73-0.32-1.41c-1.06,1.1-2.33,1.66-3.8,1.66c-1.32,0-2.4-0.37-3.24-1.12
		c-0.84-0.75-1.27-1.69-1.27-2.83c0-1.39,0.53-2.47,1.59-3.24c1.06-0.77,2.55-1.15,4.47-1.15h2.22v-1.05c0-0.8-0.24-1.43-0.72-1.91
		c-0.48-0.47-1.18-0.71-2.11-0.71c-0.82,0-1.5,0.21-2.05,0.62c-0.55,0.41-0.83,0.91-0.83,1.49h-2.3c0-0.67,0.24-1.31,0.71-1.93
		c0.47-0.62,1.12-1.11,1.93-1.48c0.81-0.36,1.7-0.54,2.67-0.54c1.54,0,2.75,0.38,3.62,1.16s1.33,1.83,1.36,3.18v6.15
		c0,1.23,0.16,2.2,0.47,2.93v0.2H208.51z M204.72,177.1c0.72,0,1.4-0.19,2.04-0.56c0.64-0.37,1.11-0.85,1.4-1.45v-2.74h-1.79
		c-2.8,0-4.2,0.82-4.2,2.46c0,0.72,0.24,1.28,0.72,1.68C203.36,176.9,203.97,177.1,204.72,177.1z M206.83,159.87h2.77l-3.31,3.63
		l-1.84-0.01L206.83,159.87z"/>
	<path class="st0" d="M221.81,175.3c0-0.62-0.23-1.1-0.7-1.44c-0.47-0.34-1.28-0.64-2.43-0.88s-2.08-0.54-2.75-0.89
		c-0.68-0.35-1.18-0.76-1.51-1.24c-0.33-0.48-0.49-1.05-0.49-1.71c0-1.09,0.46-2.02,1.39-2.78s2.11-1.14,3.55-1.14
		c1.52,0,2.74,0.39,3.69,1.17s1.41,1.78,1.41,3h-2.3c0-0.63-0.27-1.17-0.8-1.62s-1.2-0.68-2.01-0.68c-0.83,0-1.48,0.18-1.95,0.54
		s-0.7,0.84-0.7,1.42c0,0.55,0.22,0.97,0.66,1.25c0.44,0.28,1.22,0.55,2.37,0.8c1.14,0.25,2.06,0.56,2.77,0.91
		c0.71,0.35,1.23,0.78,1.58,1.28c0.34,0.5,0.51,1.11,0.51,1.82c0,1.19-0.48,2.15-1.43,2.87s-2.19,1.08-3.72,1.08
		c-1.07,0-2.02-0.19-2.84-0.57s-1.47-0.91-1.93-1.59s-0.7-1.41-0.7-2.21h2.29c0.04,0.77,0.35,1.37,0.92,1.82
		c0.57,0.45,1.33,0.67,2.27,0.67c0.87,0,1.56-0.17,2.08-0.53C221.55,176.35,221.81,175.89,221.81,175.3z"/>
	<path class="st0" d="M227.08,161.93c0-0.37,0.11-0.68,0.34-0.94c0.23-0.25,0.56-0.38,1.01-0.38c0.44,0,0.78,0.13,1.01,0.38
		c0.23,0.26,0.35,0.57,0.35,0.94c0,0.37-0.12,0.68-0.35,0.93s-0.57,0.37-1.01,0.37c-0.45,0-0.78-0.12-1.01-0.37
		S227.08,162.3,227.08,161.93z M229.56,178.85h-2.29v-13.37h2.29V178.85z"/>
	<path class="st0" d="M238.58,177.23c0.82,0,1.53-0.25,2.14-0.74c0.61-0.5,0.95-1.11,1.01-1.85h2.16c-0.04,0.77-0.3,1.5-0.79,2.19
		c-0.49,0.69-1.13,1.24-1.95,1.66c-0.81,0.41-1.67,0.62-2.58,0.62c-1.82,0-3.27-0.61-4.34-1.82c-1.08-1.21-1.61-2.88-1.61-4.99
		v-0.38c0-1.3,0.24-2.46,0.72-3.47c0.48-1.01,1.16-1.8,2.06-2.36c0.89-0.56,1.95-0.84,3.17-0.84c1.5,0,2.75,0.45,3.74,1.35
		c0.99,0.9,1.52,2.06,1.59,3.5h-2.16c-0.07-0.86-0.39-1.58-0.98-2.13s-1.32-0.83-2.18-0.83c-1.16,0-2.06,0.42-2.7,1.25
		c-0.64,0.84-0.96,2.04-0.96,3.63v0.43c0,1.54,0.32,2.73,0.95,3.56C236.49,176.81,237.4,177.23,238.58,177.23z"/>
	<path class="st0" d="M245.85,172.04c0-1.31,0.26-2.49,0.77-3.53s1.23-1.85,2.15-2.42c0.92-0.57,1.97-0.85,3.14-0.85
		c1.82,0,3.29,0.63,4.42,1.89c1.12,1.26,1.69,2.94,1.69,5.03v0.16c0,1.3-0.25,2.47-0.75,3.5c-0.5,1.03-1.21,1.84-2.14,2.42
		c-0.93,0.58-1.99,0.87-3.19,0.87c-1.81,0-3.28-0.63-4.4-1.89c-1.12-1.26-1.69-2.93-1.69-5V172.04z M248.15,172.31
		c0,1.48,0.34,2.67,1.03,3.57c0.69,0.9,1.61,1.35,2.76,1.35c1.16,0,2.08-0.46,2.77-1.37s1.03-2.19,1.03-3.82
		c0-1.47-0.35-2.65-1.04-3.56c-0.7-0.91-1.62-1.37-2.77-1.37c-1.13,0-2.04,0.45-2.73,1.35C248.5,169.35,248.15,170.64,248.15,172.31
		z"/>
</g>
<g>
	<g>
		<defs>
			<rect id="SVGID_1_" x="-124.69" width="718.07" height="199.52"/>
		</defs>
		<clipPath id="SVGID_00000044867956497242568330000007959382545447054757_">
			<use xlink:href="#SVGID_1_"  style="overflow:visible;"/>
		</clipPath>
		<g style="clip-path:url(#SVGID_00000044867956497242568330000007959382545447054757_);">
			<g>
				<path class="st3" d="M536.61-11.77c-1.3-0.62-2.61-1.21-3.93-1.79L392.04,215.7c1.11,0.91,2.23,1.81,3.37,2.69L536.61-11.77z"/>
			</g>
			<g>
				<path class="st3" d="M485.74-24.69c-1.64-0.09-3.28-0.13-4.93-0.16L358.47,174.58c0.77,1.45,1.55,2.89,2.38,4.32L485.74-24.69z"
					/>
			</g>
			<g>
				<path class="st3" d="M520.88-18.08c-1.4-0.46-2.81-0.9-4.22-1.31L379.58,204.06c1.01,1.07,2.03,2.13,3.08,3.17L520.88-18.08z"/>
			</g>
			<g>
				<path class="st3" d="M503.97-22.47c-1.51-0.29-3.02-0.56-4.54-0.79l-131.1,213.71c0.9,1.24,1.82,2.47,2.76,3.69L503.97-22.47z"
					/>
			</g>
			<g>
				<path class="st3" d="M465.89-24.29c-1.81,0.17-3.61,0.38-5.41,0.62L350.32,155.92c0.6,1.71,1.23,3.41,1.9,5.1L465.89-24.29z"/>
			</g>
			<g>
				<path class="st3" d="M549.43-4.82c-0.61-0.37-1.23-0.73-1.84-1.1L405.61,225.52c0.6,0.38,1.2,0.77,1.81,1.14
					c0.61,0.37,1.23,0.73,1.84,1.1L551.24-3.68C550.64-4.06,550.04-4.45,549.43-4.82z"/>
			</g>
			<g>
				<path class="st3" d="M443.91-20.4c-2.05,0.54-4.08,1.12-6.1,1.76l-93.29,152.07c0.35,2.09,0.75,4.17,1.2,6.24L443.91-20.4z"/>
			</g>
			<g>
				<path class="st3" d="M342.64,112.73l75.86-123.67c-2.52,1.23-5,2.55-7.44,3.94l-68.28,111.31
					C342.65,107.12,342.6,109.93,342.64,112.73z"/>
			</g>
			<g>
				<path class="st3" d="M612.33,88.42c-0.35-2.09-0.75-4.17-1.2-6.24l-98.19,160.06c2.05-0.54,4.08-1.12,6.1-1.76L612.33,88.42z"/>
			</g>
			<g>
				<path class="st3" d="M606.54,65.92c-0.6-1.71-1.23-3.41-1.9-5.1L490.96,246.13c1.81-0.17,3.61-0.38,5.41-0.62L606.54,65.92z"/>
			</g>
			<g>
				<path class="st3" d="M384.1,13.21c-8.06,7.79-15.28,16.72-21.41,26.71c-6.13,10-10.82,20.48-14.11,31.19L384.1,13.21z"/>
			</g>
			<g>
				<path class="st3" d="M614.07,117.54c0.13-2.81,0.18-5.62,0.14-8.42l-75.86,123.67c2.52-1.23,5-2.55,7.44-3.94L614.07,117.54z"/>
			</g>
			<g>
				<path class="st3" d="M572.76,208.64c8.06-7.79,15.28-16.72,21.41-26.71c6.13-10,10.82-20.48,14.11-31.19L572.76,208.64z"/>
			</g>
			<g>
				<path class="st3" d="M577.27,17.79c-1.01-1.07-2.03-2.13-3.08-3.17L435.97,239.93c1.4,0.46,2.81,0.9,4.22,1.31L577.27,17.79z"/>
			</g>
			<g>
				<path class="st3" d="M564.81,6.15c-1.11-0.91-2.23-1.81-3.37-2.69L420.25,233.62c1.3,0.62,2.61,1.21,3.93,1.79L564.81,6.15z"/>
			</g>
			<g>
				<path class="st3" d="M598.38,47.27c-0.77-1.45-1.55-2.89-2.38-4.32L471.12,246.54c1.64,0.09,3.28,0.13,4.93,0.16L598.38,47.27z"
					/>
			</g>
			<g>
				<path class="st3" d="M588.52,31.39c-0.9-1.24-1.82-2.47-2.76-3.69L452.88,244.31c1.51,0.29,3.02,0.56,4.54,0.79L588.52,31.39z"
					/>
			</g>
		</g>
	</g>
	<g>
		<defs>
			<polygon id="SVGID_00000099663551011296276420000006519648550713104829_" points="563.36,0 441.38,199.52 599.9,199.52 599.9,0 
							"/>
		</defs>
		<use xlink:href="#SVGID_00000099663551011296276420000006519648550713104829_"  style="overflow:visible;fill:#BED6ED;"/>
		<clipPath id="SVGID_00000181804480621363684430000008689646519058419854_">
			<use xlink:href="#SVGID_00000099663551011296276420000006519648550713104829_"  style="overflow:visible;"/>
		</clipPath>
		<g style="opacity:0.3;clip-path:url(#SVGID_00000181804480621363684430000008689646519058419854_);">
			<g>
				<path class="st5" d="M536.61-11.77c-1.3-0.62-2.61-1.21-3.93-1.79L392.04,215.7c1.11,0.91,2.23,1.81,3.37,2.69L536.61-11.77z"/>
			</g>
			<g>
				<path class="st5" d="M485.74-24.69c-1.64-0.09-3.28-0.13-4.93-0.16L358.47,174.58c0.77,1.45,1.55,2.89,2.38,4.32L485.74-24.69z"
					/>
			</g>
			<g>
				<path class="st5" d="M520.88-18.08c-1.4-0.46-2.81-0.9-4.22-1.31L379.58,204.06c1.01,1.07,2.03,2.13,3.08,3.17L520.88-18.08z"/>
			</g>
			<g>
				<path class="st5" d="M503.97-22.47c-1.51-0.29-3.02-0.56-4.54-0.79l-131.1,213.71c0.9,1.24,1.82,2.47,2.76,3.69L503.97-22.47z"
					/>
			</g>
			<g>
				<path class="st5" d="M465.89-24.29c-1.81,0.17-3.61,0.38-5.41,0.62L350.32,155.92c0.6,1.71,1.23,3.41,1.9,5.1L465.89-24.29z"/>
			</g>
			<g>
				<path class="st5" d="M549.43-4.82c-0.61-0.37-1.23-0.73-1.84-1.1L405.61,225.52c0.6,0.38,1.2,0.77,1.81,1.14
					c0.61,0.37,1.23,0.73,1.84,1.1L551.24-3.68C550.64-4.06,550.04-4.45,549.43-4.82z"/>
			</g>
			<g>
				<path class="st5" d="M443.91-20.4c-2.05,0.54-4.08,1.12-6.1,1.76l-93.29,152.07c0.35,2.09,0.75,4.17,1.2,6.24L443.91-20.4z"/>
			</g>
			<g>
				<path class="st5" d="M342.64,112.73l75.86-123.67c-2.52,1.23-5,2.55-7.44,3.94l-68.28,111.31
					C342.65,107.12,342.6,109.93,342.64,112.73z"/>
			</g>
			<g>
				<path class="st5" d="M612.33,88.42c-0.35-2.09-0.75-4.17-1.2-6.24l-98.19,160.06c2.05-0.54,4.08-1.12,6.1-1.76L612.33,88.42z"/>
			</g>
			<g>
				<path class="st5" d="M606.54,65.92c-0.6-1.71-1.23-3.41-1.9-5.1L490.96,246.13c1.81-0.17,3.61-0.38,5.41-0.62L606.54,65.92z"/>
			</g>
			<g>
				<path class="st5" d="M384.1,13.21c-8.06,7.79-15.28,16.72-21.41,26.71c-6.13,10-10.82,20.48-14.11,31.19L384.1,13.21z"/>
			</g>
			<g>
				<path class="st5" d="M614.07,117.54c0.13-2.81,0.18-5.62,0.14-8.42l-75.86,123.67c2.52-1.23,5-2.55,7.44-3.94L614.07,117.54z"/>
			</g>
			<g>
				<path class="st5" d="M572.76,208.64c8.06-7.79,15.28-16.72,21.41-26.71c6.13-10,10.82-20.48,14.11-31.19L572.76,208.64z"/>
			</g>
			<g>
				<path class="st5" d="M577.27,17.79c-1.01-1.07-2.03-2.13-3.08-3.17L435.97,239.93c1.4,0.46,2.81,0.9,4.22,1.31L577.27,17.79z"/>
			</g>
			<g>
				<path class="st5" d="M564.81,6.15c-1.11-0.91-2.23-1.81-3.37-2.69L420.25,233.62c1.3,0.62,2.61,1.21,3.93,1.79L564.81,6.15z"/>
			</g>
			<g>
				<path class="st5" d="M598.38,47.27c-0.77-1.45-1.55-2.89-2.38-4.32L471.12,246.54c1.64,0.09,3.28,0.13,4.93,0.16L598.38,47.27z"
					/>
			</g>
			<g>
				<path class="st5" d="M588.52,31.39c-0.9-1.24-1.82-2.47-2.76-3.69L452.88,244.31c1.51,0.29,3.02,0.56,4.54,0.79L588.52,31.39z"
					/>
			</g>
		</g>
	</g>
</g>
</svg>
