<?xml version="1.0" encoding="utf-8"?>
<!-- Generator: Adobe Illustrator 25.4.1, SVG Export Plug-In . SVG Version: 6.00 Build 0)  -->
<svg version="1.1" id="Capa_1" xmlns="http://www.w3.org/2000/svg" xmlns:xlink="http://www.w3.org/1999/xlink" x="0px" y="0px"
	 viewBox="0 0 600 200" style="enable-background:new 0 0 600 200;" xml:space="preserve">
<style type="text/css">
	.st0{clip-path:url(#SVGID_00000034786045031164008660000010221447685905739690_);}
	.st1{fill:#F98012;}
	.st2{clip-path:url(#SVGID_00000180354883278477507730000007220962861936572567_);}
	.st3{fill:#FFFFFF;}
	.st4{fill:#04724D;}
	.st5{fill:#44505F;}
</style>
<g>
	<defs>
		<rect id="SVGID_1_" y="0.97" width="600" height="199.06"/>
	</defs>
	<clipPath id="SVGID_00000155145234538004888580000004994237929474207109_">
		<use xlink:href="#SVGID_1_"  style="overflow:visible;"/>
	</clipPath>
	<g style="clip-path:url(#SVGID_00000155145234538004888580000004994237929474207109_);">
		<g>
			<path class="st1" d="M774.67-2.91c-0.8-0.63-1.88-0.65-2.7-0.14l-34.19-41.21c0.04-0.05,0.09-0.09,0.13-0.15
				c0.8-1.02,0.62-2.49-0.39-3.29c-0.68-0.53-1.56-0.63-2.31-0.34l-27.84-50.34c0.17-0.12,0.32-0.27,0.45-0.44
				c0.8-1.02,0.62-2.49-0.39-3.29c-1.02-0.8-2.49-0.62-3.29,0.39c-0.22,0.28-0.36,0.59-0.44,0.91l-40.71-4.24
				c-0.02-0.67-0.32-1.33-0.89-1.78c-1.02-0.8-2.49-0.62-3.29,0.39c-0.17,0.21-0.29,0.44-0.37,0.69l-27.5-5.65
				c0.05-0.75-0.25-1.51-0.89-2.01c-0.47-0.37-1.03-0.53-1.58-0.49l-7.32-38.73c0.43-0.14,0.82-0.4,1.11-0.78
				c0.8-1.02,0.62-2.49-0.39-3.29c-0.85-0.67-2.01-0.65-2.84-0.04l-20.51-21.24c0,0,0.01-0.01,0.01-0.01
				c0.8-1.02,0.62-2.49-0.39-3.29c-1.02-0.8-2.49-0.62-3.29,0.39c-0.43,0.55-0.57,1.22-0.46,1.86l-34.99,11.05
				c-0.15-0.32-0.37-0.62-0.67-0.86c-1.02-0.8-2.49-0.62-3.29,0.39c-0.8,1.02-0.62,2.49,0.39,3.29c0.04,0.03,0.08,0.06,0.12,0.08
				l-34.01,66.22l-0.22-0.06l0.07,0.36l-0.55,1.08l0.66-0.5l7.96,43.09c-0.43,0.14-0.82,0.4-1.12,0.78
				c-0.61,0.78-0.65,1.83-0.17,2.64l-27.39,21.4c-0.06-0.06-0.13-0.12-0.2-0.17c-1.02-0.8-2.49-0.62-3.29,0.39
				c-0.73,0.93-0.64,2.23,0.14,3.06L409.01,5.5c-0.15-0.29-0.36-0.55-0.63-0.77c-1.02-0.8-2.49-0.62-3.29,0.39
				c-0.8,1.02-0.62,2.49,0.39,3.29c0.39,0.31,0.84,0.47,1.3,0.5L412,86.92c-0.53,0.1-1.03,0.39-1.39,0.85
				c-0.33,0.42-0.49,0.92-0.5,1.41L377.23,93c-0.12-0.49-0.4-0.94-0.82-1.27c-1.02-0.8-2.49-0.62-3.29,0.39
				c-0.56,0.71-0.64,1.64-0.29,2.41l-25.63,15.84c-0.11-0.13-0.23-0.25-0.37-0.36c-1.02-0.8-2.49-0.62-3.29,0.39
				c-0.8,1.02-0.62,2.49,0.39,3.29c0.08,0.06,0.16,0.11,0.24,0.16l-21.75,49.67c-0.89-0.26-1.89,0.03-2.5,0.8
				c-0.8,1.02-0.62,2.49,0.39,3.29c0.66,0.52,1.52,0.62,2.25,0.36l14.39,27.57c-0.22,0.14-0.42,0.32-0.6,0.53
				c-0.74,0.94-0.64,2.26,0.17,3.09l-22.3,23.78c-0.04-0.03-0.07-0.07-0.11-0.1c-1.02-0.8-2.49-0.62-3.29,0.39
				c-0.8,1.02-0.62,2.49,0.39,3.29c1.02,0.8,2.49,0.62,3.29-0.39c0.05-0.06,0.09-0.12,0.13-0.18l14.99,8.94
				c-0.41,0.95-0.15,2.1,0.7,2.77c1.02,0.8,2.49,0.62,3.29-0.39c0.51-0.65,0.62-1.49,0.37-2.22l35.48-17.74
				c0.13,0.2,0.3,0.38,0.49,0.53c1.02,0.8,2.49,0.62,3.29-0.39c0.59-0.75,0.65-1.74,0.23-2.54l5.11-4.34l28.33-24.07
				c1.01,0.76,2.45,0.57,3.24-0.43c0.8-1.02,0.62-2.49-0.39-3.29c-0.3-0.23-0.63-0.38-0.97-0.45l3.48-37.14
				c0.65-0.04,1.28-0.34,1.72-0.89c0,0,0,0,0-0.01l18.56,10.98l26.62-44.6c0.95,0.41,2.1,0.16,2.77-0.7
				c0.35-0.45,0.51-0.98,0.5-1.51l29.29-4.59c0.13,0.45,0.4,0.87,0.8,1.18c1.02,0.8,2.49,0.62,3.29-0.39
				c0.37-0.47,0.53-1.05,0.49-1.6l47.49-9.42c0.14,0.42,0.4,0.8,0.77,1.09c1.02,0.8,2.49,0.62,3.29-0.39
				c0.8-1.02,0.62-2.49-0.39-3.29c-0.4-0.31-0.87-0.48-1.34-0.5l-2.68-31.94c0.51-0.11,1-0.4,1.35-0.84
				c0.7-0.89,0.65-2.13-0.05-2.96l51.61-56.65l-0.22-0.2c0.64,0.5,1.46,0.62,2.17,0.39l12.96,27.23c-0.21,0.14-0.41,0.31-0.57,0.52
				c-0.8,1.02-0.62,2.49,0.39,3.29c1.02,0.8,2.49,0.62,3.29-0.39c0.47-0.6,0.6-1.35,0.42-2.04l60.43-24.44
				c0.14,0.23,0.33,0.45,0.55,0.63c0.75,0.59,1.75,0.65,2.55,0.22l15.46,22.84c-0.07,0.07-0.14,0.14-0.2,0.22
				c-0.8,1.02-0.62,2.49,0.39,3.29c1.02,0.8,2.49,0.62,3.29-0.39c0.43-0.54,0.57-1.22,0.46-1.85l73.41-27.43
				c0.15,0.28,0.36,0.54,0.62,0.75c1.02,0.8,2.49,0.62,3.29-0.39C775.86-0.64,775.68-2.11,774.67-2.91z M771.5-2.67
				c-0.04,0.05-0.09,0.09-0.13,0.15c-0.28,0.36-0.44,0.78-0.49,1.2l-59.84,1.49l24.16-43.86c0.69,0.27,1.48,0.19,2.11-0.2
				L771.5-2.67z M679.55,0.97c-0.04-0.29-0.13-0.57-0.27-0.82l55.17-44.31c0.06,0.05,0.11,0.1,0.17,0.15
				c0.02,0.02,0.04,0.03,0.06,0.05L710.36,0.2L679.55,0.97z M612.41,25.19L602-31.02c0.43-0.14,0.82-0.4,1.12-0.78
				c0.05-0.07,0.1-0.14,0.15-0.21l23.64,10.75l-14,46.48C612.75,25.19,612.58,25.18,612.41,25.19z M334.56,221.14l3.57-21.29
				c0.72,0.03,1.45-0.28,1.93-0.89c0,0,0.01-0.01,0.01-0.01l29.11,16.41c-0.06,0.22-0.09,0.45-0.08,0.67L334.56,221.14z
				 M369.97,106.46l-18.99,52.43c-0.15-0.03-0.3-0.05-0.44-0.05l-4.61-44.72c0.5-0.12,0.96-0.4,1.3-0.83
				c0.39-0.49,0.55-1.1,0.49-1.68L369.97,106.46z M559.1-165.54c0.17-0.22,0.3-0.46,0.38-0.71l24.95,4.8l-19.07,28.84l-7.3-32.18
				C558.46-164.94,558.82-165.19,559.1-165.54z M675.85-0.61l-40.22-41c0.14-0.18,0.24-0.37,0.33-0.56l46.76,12.37l-5.27,28.75
				C676.89-1.1,676.32-0.95,675.85-0.61z M541.12,54.88c-0.08,0.1-0.14,0.2-0.2,0.31l-4.1-1.64l-7.51-31.02l12.51,31.75
				C541.56,54.42,541.32,54.62,541.12,54.88z M544.88,90.86l-35.16-46.82c0.07-0.07,0.14-0.15,0.21-0.23c0.08-0.1,0.14-0.2,0.2-0.31
				l26.18,10.48l8.89,36.72C545.08,90.75,544.98,90.8,544.88,90.86z M492.78,101.22l-23.95-29.95c0.05-0.06,0.11-0.12,0.16-0.18
				c0.12-0.16,0.22-0.33,0.3-0.5l29.92,8.82l-4.98,21.49C493.72,100.84,493.21,100.95,492.78,101.22z M412.68,105.47l0.07-13.93
				c0.59-0.07,1.15-0.37,1.55-0.88c0.07-0.09,0.14-0.19,0.19-0.29l43.33,17.7c-0.01,0.04-0.02,0.09-0.02,0.14L412.68,105.47z
				 M410.93,140.86l-19.11-23.32l-9.94-12.13c0.05-0.05,0.09-0.1,0.14-0.16c0.24-0.3,0.39-0.65,0.46-1.01l29.6,1.8l-0.16,34.48
				C411.56,140.56,411.23,140.67,410.93,140.86z M406.03,185.07l-43.17,7.86l-11.28-29.69c0.28-0.15,0.53-0.35,0.73-0.62
				c0.07-0.09,0.13-0.19,0.19-0.29l53.5,22.03C405.98,184.61,405.99,184.84,406.03,185.07z M369.58,214.54
				c-0.07,0.08-0.12,0.17-0.18,0.26l-29.04-16.37c0.11-0.27,0.17-0.54,0.18-0.82l21.92-3.99l7.74,20.37
				C369.98,214.13,369.76,214.31,369.58,214.54z M351.01,163.46l11.24,29.58L340.5,197c-0.11-0.51-0.4-0.98-0.84-1.33
				c-0.07-0.05-0.13-0.1-0.2-0.14l10.57-32.05C350.36,163.54,350.69,163.53,351.01,163.46z M351.92,159.34
				c-0.04-0.03-0.08-0.05-0.11-0.08l9.58-18.52l17.98-34.75c0.41,0.15,0.85,0.18,1.27,0.09l14.38,41.57l-42.41,12.58
				C352.46,159.89,352.23,159.58,351.92,159.34z M382.5,103.63c-0.01-0.18-0.04-0.35-0.09-0.52l28.05-12.66
				c0.14,0.23,0.32,0.44,0.54,0.61c0.34,0.27,0.73,0.42,1.13,0.48l-0.07,13.89L382.5,103.63z M499.46-26.04l5.1,45.69l-17.6,1.29
				c-0.1-0.54-0.39-1.04-0.85-1.4c-0.14-0.11-0.3-0.2-0.45-0.28l13.48-45.32C499.24-26.05,499.35-26.04,499.46-26.04z M521.5,8.38
				l4.98,8.19c-0.12,0.1-0.22,0.21-0.32,0.34c-0.28,0.35-0.44,0.76-0.48,1.18l-20.51,1.51l-5.1-45.71c0.13-0.03,0.26-0.08,0.39-0.13
				L521.5,8.38z M618.97-153.01c0.4,0.31,0.86,0.47,1.33,0.5l3.16,39.16l-57.04-16.45c0.05-0.34,0.03-0.68-0.07-1.01l52.06-22.83
				C618.55-153.41,618.74-153.19,618.97-153.01z M659.2-103.13c0.25,0.2,0.54,0.34,0.83,0.42l-4.27,30.83
				c-0.38,0-0.75,0.08-1.09,0.26l-13.15-20.43l17.35-11.4C658.97-103.33,659.08-103.23,659.2-103.13z M698.76-26.83
				c-0.14,0.18-0.25,0.37-0.33,0.56l-15.02-3.97L686.67-48c0.35,0.02,0.7-0.04,1.03-0.18l11.52,20.92
				C699.05-27.15,698.89-27,698.76-26.83z M600.09-35.26l-16.05-23.25c0.02-0.02,0.04-0.05,0.06-0.07c0.11-0.14,0.2-0.28,0.27-0.43
				l25.42,8.37l-7.72,15.19C601.41-35.69,600.69-35.61,600.09-35.26z M458.28,107.08c-0.11,0.14-0.19,0.28-0.27,0.43l-43.29-17.69
				c0.1-0.36,0.1-0.74,0.02-1.1l35.82-12.83l8.52,30.53C458.78,106.58,458.5,106.8,458.28,107.08z M440.41,37.31
				c0.1-0.04,0.2-0.1,0.3-0.16l14.64,18.26l10.1,12.6c-0.05,0.06-0.1,0.11-0.15,0.18c-0.45,0.57-0.59,1.29-0.45,1.95l-13.89,4.97
				L440.41,37.31z M504.63,20.24l2.25,20.12c-0.24,0.14-0.45,0.33-0.63,0.56c-0.1,0.13-0.19,0.27-0.26,0.41l-19.44-18.57
				c0.27-0.37,0.42-0.79,0.45-1.22L504.63,20.24z M486.13,23.19l19.64,18.77c-0.04,0.24-0.04,0.48-0.01,0.72l-27.31-3.23l5.75-15.79
				C484.87,23.8,485.59,23.64,486.13,23.19z M505.94,43.31c0.06,0.14,0.13,0.27,0.22,0.39l-37.24,24.41
				c-0.1-0.11-0.21-0.22-0.33-0.32c-0.12-0.09-0.24-0.17-0.37-0.24l10.02-27.52L505.94,43.31z M467.65,67.35
				c-0.59-0.13-1.21-0.03-1.73,0.28l-10.3-12.84l-14.44-18.01c0.05-0.06,0.1-0.11,0.15-0.18c0.21-0.27,0.35-0.57,0.43-0.88
				l35.85,4.23L467.65,67.35z M509.37,40.41c-0.58-0.38-1.28-0.47-1.92-0.3l-2.22-19.91l20.45-1.5c0.06,0.4,0.22,0.79,0.48,1.12
				L509.37,40.41z M629.6-109.45l11.09,17.22l-12.65,8.31c-0.1-0.11-0.21-0.22-0.33-0.31c-0.29-0.23-0.62-0.38-0.96-0.45l1.96-24.54
				C629.02-109.24,629.32-109.31,629.6-109.45z M653.9-70.99c-0.08,0.1-0.15,0.22-0.21,0.33l-25.17-11.07
				c0.16-0.56,0.11-1.16-0.14-1.68l12.65-8.3l13.16,20.44C654.08-71.19,653.98-71.1,653.9-70.99z M653.47-70.1
				c-0.16,0.66-0.03,1.36,0.37,1.92l-19.97-10.54L653.47-70.1z M581.19-62.11l-19-27.04c0.09-0.08,0.18-0.18,0.26-0.28
				c0.2-0.26,0.34-0.55,0.42-0.85l11.62,1.5l6.89,26.57C581.32-62.17,581.25-62.14,581.19-62.11z M583.71-61.87
				c-0.51-0.4-1.14-0.56-1.74-0.48l-6.83-26.34l48.79,6.3c0,0.27,0.05,0.53,0.14,0.78l-39.87,20.26
				C584.06-61.54,583.9-61.72,583.71-61.87z M624-82.99l-49.03-6.33l-10.03-38.66c0.29-0.11,0.55-0.28,0.78-0.5l58.52,44.91
				C624.14-83.38,624.05-83.19,624-82.99z M564.17-127.82c0.06,0,0.12-0.01,0.18-0.01l9.97,38.43l-11.38-1.47
				c0-0.69-0.31-1.38-0.89-1.84c-0.29-0.23-0.61-0.37-0.94-0.44l0.86-9.69L564.17-127.82z M561.7-88.8l18.98,27.04
				c-0.09,0.08-0.18,0.18-0.26,0.28c-0.37,0.48-0.53,1.05-0.49,1.61l-13.16,1.85l-5.45-30.61C561.45-88.68,561.57-88.73,561.7-88.8z
				 M580.04-59.28c0.14,0.42,0.4,0.8,0.77,1.09c0.21,0.16,0.43,0.28,0.66,0.36l-7.87,36.54c-0.1-0.01-0.2-0.01-0.3,0l-6.43-36.14
				L580.04-59.28z M574.86-20.79c-0.2-0.16-0.43-0.28-0.66-0.36l7.99-36.54c0.13,0,0.27,0,0.4-0.02l8.19,29.69l-15.43,7.76
				C575.22-20.46,575.05-20.64,574.86-20.79z M584.56-59.59c0.08-0.41,0.04-0.83-0.09-1.22l39.87-20.26
				c0.13,0.19,0.29,0.37,0.49,0.52c0.04,0.03,0.08,0.06,0.13,0.09l-14.88,29.28L584.56-59.59z M625.48-80.19
				c0.3,0.11,0.61,0.15,0.92,0.13l6.65,34.78c-0.42,0.14-0.81,0.4-1.11,0.78c-0.11,0.14-0.2,0.28-0.27,0.43L610.64-51L625.48-80.19z
				 M636.13-43.07l48.38-6.73c0.12,0.5,0.4,0.96,0.83,1.3c0.23,0.18,0.48,0.31,0.74,0.39l-3.25,17.72l-46.72-12.36
				C636.12-42.86,636.13-42.97,636.13-43.07z M684.44-50.4l-48.4,6.73c-0.13-0.47-0.4-0.9-0.81-1.22c-0.47-0.37-1.03-0.53-1.59-0.49
				L627-80.17c0.42-0.14,0.81-0.4,1.11-0.78c0.03-0.03,0.05-0.07,0.07-0.1l56.44,29.8C684.51-50.97,684.45-50.69,684.44-50.4z
				 M655.68-67.2c0.67,0.02,1.34-0.26,1.82-0.79l21,12.84L655.68-67.2z M658.55-103.95l-17.35,11.39l-11.08-17.21
				c0.12-0.1,0.23-0.21,0.33-0.34c0.17-0.21,0.29-0.44,0.37-0.68l27.5,5.65C658.29-104.74,658.37-104.32,658.55-103.95z
				 M627.15-109.72c0.29,0.23,0.62,0.38,0.96,0.45l-1.85,23.12l-2.13-26.38l2.15,0.62C626.16-111.11,626.47-110.26,627.15-109.72z
				 M625.78-84.68c-0.43,0.09-0.84,0.31-1.17,0.64l-58.38-44.81l-0.05-0.21c0.03-0.05,0.05-0.11,0.08-0.16l57.26,16.51L625.78-84.68
				z M559.41-88.86c0.4,0.24,0.86,0.35,1.31,0.33l5.44,30.59l-33.35,4.68c-0.1-0.37-0.3-0.73-0.58-1.02L559.41-88.86z M532.9-52.67
				l33.37-4.68l6.44,36.16c-0.34,0.11-0.66,0.3-0.93,0.56l-39.2-30.82C532.79-51.82,532.9-52.25,532.9-52.67z M483.21,23.21
				c0.13,0.1,0.27,0.19,0.41,0.26l-5.79,15.91l-35.99-4.25c0-0.12-0.01-0.24-0.03-0.36l40.74-12.39
				C482.7,22.69,482.92,22.98,483.21,23.21z M439.83,37.47l10.56,37.84l-35.86,12.84c-0.15-0.29-0.36-0.56-0.64-0.78
				c-0.05-0.04-0.09-0.07-0.14-0.1l24.97-49.91C439.09,37.49,439.47,37.53,439.83,37.47z M459.66,106.23l-8.53-30.54l13.93-4.99
				c0.15,0.29,0.36,0.56,0.64,0.77c0.23,0.18,0.48,0.3,0.73,0.39l-6.27,34.32C459.99,106.19,459.82,106.2,459.66,106.23z M469.45,70
				c0.07-0.47,0-0.96-0.21-1.39l24.77-16.24l12.55-8.23c0.02,0.02,0.04,0.04,0.06,0.06c0.2,0.15,0.41,0.27,0.63,0.35l-7.93,34.25
				L469.45,70z M510.35,42.95c0.19-0.75,0-1.56-0.53-2.15l16.77-20.57c0.49,0.37,1.08,0.51,1.65,0.45l7.88,32.58L510.35,42.95z
				 M529.87,16.96l30.77-25.11l11.15-9.1c0.05,0.05,0.1,0.1,0.16,0.14c1.01,0.79,2.46,0.62,3.27-0.37l20.3,12.46
				c-0.25,0.45-0.34,0.95-0.27,1.44l-65.22,20.8C529.99,17.13,529.93,17.05,529.87,16.96z M595.89-5.51l-20.35-12.49
				c0.25-0.55,0.27-1.17,0.07-1.73l15.32-7.7l5.88,21.32C596.48-5.98,596.16-5.79,595.89-5.51z M583.17-57.87
				c0.15-0.06,0.29-0.14,0.42-0.23l16.03,23.21c-0.06,0.06-0.12,0.13-0.18,0.2c-0.57,0.72-0.64,1.68-0.27,2.46l-7.85,3.94
				L583.17-57.87z M602.73-35.09c-0.04-0.03-0.08-0.06-0.13-0.09l7.76-15.27l21.12,6.96c-0.05,0.27-0.05,0.55-0.01,0.82l-28.06,8.46
				C603.27-34.54,603.04-34.85,602.73-35.09z M683.3-29.65l14.97,3.96c-0.08,0.66,0.11,1.34,0.57,1.85L678.6-0.61
				c-0.18-0.13-0.37-0.23-0.57-0.31L683.3-29.65z M699.3-23.44c1.01,0.67,2.38,0.47,3.14-0.5c0.54-0.69,0.63-1.59,0.32-2.35
				l30.05-17.35L679.78-1.04L699.3-23.44z M733.91-44.96L702.46-26.8c-0.12-0.15-0.25-0.3-0.41-0.42c-0.3-0.23-0.63-0.38-0.98-0.45
				l1.5-20.93l31.16,2.83C733.74-45.49,733.8-45.22,733.91-44.96z M700.46-27.72c-0.25,0.01-0.49,0.07-0.72,0.16l-11.53-20.93
				c0.15-0.11,0.29-0.25,0.41-0.4c0.22-0.28,0.37-0.61,0.44-0.94l12.9,1.17L700.46-27.72z M689.12-50.43
				c-0.03-0.66-0.33-1.31-0.89-1.75c-0.11-0.08-0.22-0.15-0.33-0.22l17.53-45.58c0.03,0.01,0.06,0.01,0.08,0.02l-3.5,48.7
				L689.12-50.43z M704.53-98.41c0.11,0.08,0.22,0.15,0.33,0.22l-17.53,45.58c-0.43-0.1-0.87-0.09-1.28,0.05l-13.01-27.2
				l31.11-19.02C704.26-98.65,704.39-98.53,704.53-98.41z M685.51-52.31c-0.18,0.12-0.35,0.26-0.49,0.43L657.84-68.5
				c0.32-0.63,0.32-1.37,0.04-2l14.65-8.95L685.51-52.31z M657.56-71.01c-0.11-0.14-0.23-0.26-0.38-0.37
				c-0.25-0.2-0.54-0.34-0.83-0.42l4.27-30.83c0.25,0,0.51-0.04,0.75-0.11L672.26-80L657.56-71.01z M626.76-113.01
				c-0.13,0.16-0.23,0.33-0.3,0.51l-2.37-0.68l-2.91-36.05l6.7,35.44C627.45-113.65,627.06-113.39,626.76-113.01z M618.17-154.2
				l-52.06,22.83c-0.12-0.21-0.28-0.4-0.47-0.56l19.44-29.41l33,6.34C618.06-154.73,618.09-154.46,618.17-154.2z M563.57-127.88
				l-3.06,34.67c-0.66,0.03-1.3,0.33-1.74,0.89c-0.68,0.86-0.65,2.04-0.01,2.87L548-92.19l15.46-35.72
				C563.5-127.9,563.54-127.89,563.57-127.88z M558.64-88.85l-26.88,34.19l16-36.97L558.64-88.85z M532.19-50.97l39.2,30.82
				c-0.11,0.19-0.2,0.4-0.25,0.6l-41.35-5.28l0.98-25.49C531.29-50.36,531.8-50.58,532.19-50.97z M571.07-18.95
				c0,0.43,0.12,0.86,0.35,1.23l-23.03,18.8l-6.76,5.52l-12.17,9.93c0,0-0.01-0.01-0.01-0.01c-0.36-0.29-0.79-0.45-1.22-0.49
				l1.54-40.24L571.07-18.95z M527.62,16.05c-0.22,0.04-0.43,0.1-0.64,0.2l-4.76-7.82l-21.26-34.98c0.14-0.11,0.26-0.23,0.38-0.38
				c0.21-0.26,0.35-0.55,0.42-0.85l27.4,3.5L527.62,16.05z M498.55-26.24l-13.47,45.31c-0.83-0.15-1.7,0.15-2.26,0.86
				c-0.17,0.22-0.3,0.46-0.38,0.72l-24.35-4.64l40.22-42.38C498.39-26.32,498.47-26.28,498.55-26.24z M482.32,21.24
				c-0.01,0.19,0,0.38,0.04,0.56l-40.73,12.39c-0.08-0.18-0.19-0.35-0.32-0.51l16.28-17.15L482.32,21.24z M440.88,33.27
				c-0.9-0.65-2.11-0.58-2.92,0.13L408.88,7.88c0.12-0.18,0.21-0.37,0.28-0.57l47.74,9.09L440.88,33.27z M408.48,8.33l29.08,25.52
				c-0.68,1.01-0.48,2.38,0.5,3.14c0.05,0.04,0.09,0.07,0.14,0.1l-24.97,49.91c-0.2-0.07-0.41-0.11-0.62-0.13l-5.21-78.01
				C407.79,8.79,408.16,8.61,408.48,8.33z M410.21,89.9l-28.05,12.66c-0.14-0.23-0.32-0.44-0.54-0.61c-0.66-0.52-1.5-0.62-2.23-0.36
				l-3.1-6.09c0.19-0.13,0.37-0.29,0.52-0.49c0.33-0.42,0.49-0.92,0.5-1.41l32.88-3.81C410.19,89.82,410.2,89.86,410.21,89.9z
				 M375.75,95.77l3.1,6.09c-0.19,0.13-0.37,0.29-0.52,0.49c-0.39,0.49-0.55,1.1-0.49,1.68l-6.93,1.6l3.54-9.78
				C374.89,95.94,375.33,95.91,375.75,95.77z M377.98,104.61c0.15,0.39,0.39,0.75,0.74,1.02c0.04,0.03,0.08,0.05,0.11,0.08
				l-26.51,51.22l18.34-50.63L377.98,104.61z M349.93,158.9c-0.5,0.12-0.96,0.4-1.3,0.83c-0.35,0.45-0.52,0.99-0.5,1.52l-6.53,1.04
				l3.82-47.16L349.93,158.9z M348.23,161.84c0.13,0.45,0.4,0.86,0.8,1.18c0.14,0.11,0.28,0.2,0.43,0.27l-10.52,31.9l2.62-32.28
				L348.23,161.84z M373.15,214.4c-0.08-0.09-0.17-0.18-0.27-0.26c-0.62-0.49-1.4-0.61-2.1-0.4l-7.69-20.24l43.15-7.85
				c0.07,0.15,0.16,0.29,0.27,0.42l-7.84,6.66L373.15,214.4z M406.49,183.17c-0.15,0.19-0.26,0.4-0.35,0.61l-53.41-21.99
				c0.09-0.32,0.1-0.65,0.05-0.98l42.44-12.58l11.9,34.39C406.88,182.76,406.67,182.94,406.49,183.17z M381.21,105.89
				c0.07-0.03,0.13-0.07,0.19-0.11l10.06,12.27l18.99,23.18c-0.05,0.05-0.1,0.11-0.14,0.17c-0.43,0.55-0.57,1.22-0.46,1.86
				l-14.25,4.23L381.21,105.89z M413.6,141.01c-0.33-0.26-0.71-0.41-1.1-0.47l0.17-34.46l45.12,2.75c0.04,0.3,0.13,0.59,0.28,0.85
				l-44.17,31.61C413.81,141.19,413.71,141.09,413.6,141.01z M461.56,106.69c-0.25-0.19-0.52-0.33-0.81-0.41l6.26-34.3
				c0.46,0.02,0.93-0.09,1.33-0.34l23.95,29.95c-0.05,0.06-0.11,0.12-0.16,0.18c-0.35,0.45-0.51,0.98-0.5,1.51l-29.29,4.59
				C462.23,107.42,461.96,107,461.56,106.69z M495.44,101.38c-0.2-0.15-0.41-0.27-0.63-0.35l4.97-21.45l43.94,12.95
				c-0.03,0.17-0.03,0.35-0.02,0.52l-47.49,9.42C496.07,102.05,495.81,101.67,495.44,101.38z M499.91,78.98l7.94-34.29
				c0.48,0.05,0.96-0.05,1.38-0.29l35.16,46.82c-0.07,0.07-0.14,0.15-0.21,0.23c-0.12,0.16-0.22,0.33-0.3,0.5L499.91,78.98z
				 M536.99,54.26l3.7,1.48c-0.22,0.87,0.07,1.83,0.82,2.42c0.4,0.31,0.87,0.48,1.34,0.5l2.55,30.36L536.99,54.26z M542.39,54.05
				l-13.26-33.65c0.27-0.15,0.51-0.35,0.71-0.6c0.47-0.59,0.6-1.34,0.43-2.03L595.41-3c0.11,0.27,0.28,0.53,0.49,0.75L544.3,54.41
				C543.72,54,543.03,53.89,542.39,54.05z M597.41-6.22l-5.93-21.48l8.01-4.03c0.1,0.12,0.21,0.22,0.33,0.32
				c0.28,0.22,0.59,0.36,0.92,0.44l-3.08,24.74C597.58-6.23,597.5-6.23,597.41-6.22z M603.52-32.56c0.11-0.35,0.13-0.71,0.07-1.07
				l28.06-8.46c0.15,0.33,0.38,0.64,0.69,0.88c0.15,0.12,0.32,0.22,0.49,0.29l-5.74,19.07L603.52-32.56z M633.41-40.74
				c0.62,0.1,1.27-0.05,1.79-0.44l40.21,40.99c-0.01,0.01-0.02,0.02-0.03,0.03c-0.05,0.07-0.1,0.14-0.15,0.21l-47.6-21.64
				L633.41-40.74z M734.68-47.74c-0.17,0.12-0.32,0.27-0.45,0.44c-0.22,0.28-0.37,0.61-0.44,0.94l-31.17-2.84l3.5-48.72
				c0.25-0.01,0.49-0.07,0.72-0.16L734.68-47.74z M703.64-100.2c0.01,0.31,0.08,0.61,0.2,0.89l-31.06,18.99l-10.86-22.7
				c0.21-0.14,0.4-0.31,0.57-0.52c0.22-0.28,0.36-0.59,0.44-0.91L703.64-100.2z M618.58-156.32c0,0-0.01,0.01-0.01,0.01
				c-0.17,0.22-0.3,0.46-0.38,0.71l-32.75-6.29l10.21-15.45c0.79,0.39,1.73,0.29,2.42-0.22L618.58-156.32z M594.56-178.45
				c0.14,0.29,0.33,0.56,0.59,0.78l-10.35,15.66l-25.2-4.84c0.01-0.19,0-0.37-0.03-0.55L594.56-178.45z M556.47-164.79
				c0.33,0.12,0.67,0.16,1.01,0.13l7.32,32.27c-0.9-0.28-1.92,0-2.54,0.79c-0.61,0.77-0.65,1.8-0.19,2.6l-39.12,29.48L556.47-164.79
				z M562.43-128.52c0.07,0.07,0.14,0.14,0.22,0.2c0.08,0.06,0.16,0.12,0.25,0.17l-15.5,35.81l-24.64-6.29L562.43-128.52z
				 M547.17-91.78L531.2-54.89c-0.25-0.07-0.51-0.1-0.77-0.09l-7.97-43.11L547.17-91.78z M528.91-50.98
				c0.06,0.06,0.13,0.12,0.2,0.17c0.32,0.25,0.68,0.41,1.06,0.47l-0.97,25.44l-27.35-3.49c0-0.41-0.11-0.82-0.33-1.19L528.91-50.98z
				 M496.96-25.82l-39.57,41.69l-48.12-9.16c0.01-0.22,0-0.44-0.05-0.65L496.96-25.82z M373.15,95.04c0.11,0.13,0.23,0.25,0.37,0.36
				c0.12,0.09,0.24,0.17,0.37,0.24l-3.68,10.15l-22.64,5.24c-0.02-0.05-0.04-0.1-0.06-0.15L373.15,95.04z M344.73,114.09
				c0.06,0.02,0.11,0.03,0.17,0.04l-3.91,48.26l-16.97,2.72c-0.13-0.45-0.4-0.86-0.8-1.18c-0.08-0.06-0.16-0.11-0.24-0.16
				L344.73,114.09z M323.11,167.69c0.18-0.13,0.35-0.29,0.5-0.47c0.35-0.45,0.52-0.99,0.5-1.52l16.83-2.69l-2.61,32.17
				c-0.28-0.01-0.55,0.02-0.82,0.1L323.11,167.69z M336.76,199.35C336.76,199.35,336.76,199.36,336.76,199.35
				c0.24,0.19,0.5,0.32,0.77,0.4l-3.6,21.48l-18.99,2.81c-0.06-0.23-0.16-0.46-0.3-0.66l22.35-23.83L336.76,199.35z M315.02,224.65
				l18.8-2.79l-1.95,11.61c-0.72-0.03-1.45,0.28-1.93,0.89l-15.04-8.97C314.99,225.15,315.03,224.9,315.02,224.65z M333.74,234.5
				c-0.13-0.2-0.3-0.38-0.49-0.53c-0.24-0.19-0.5-0.32-0.77-0.4l1.98-11.8l34.72-5.14c0.01,0.04,0.03,0.09,0.04,0.13L333.74,234.5z
				 M408.2,182.28c-0.18,0.01-0.36,0.04-0.53,0.09l-11.87-34.32l14.23-4.22c0.15,0.32,0.37,0.62,0.67,0.85
				c0.29,0.23,0.63,0.38,0.97,0.45L408.2,182.28z M432.35,154.45l-18.05-10.68c0.28-0.64,0.25-1.37-0.07-1.98l44.2-31.63
				c0.07,0.07,0.15,0.15,0.23,0.21L432.35,154.45z M598.85-1.92c0.21-0.14,0.41-0.31,0.57-0.52c0.8-1.02,0.62-2.49-0.39-3.29
				c-0.23-0.18-0.49-0.31-0.76-0.4l3.09-24.78c0.02,0,0.04,0,0.05,0l10.41,56.21c0,0,0,0-0.01,0L598.85-1.92z M614.58,26.38
				c-0.15-0.26-0.34-0.5-0.59-0.69c-0.15-0.12-0.32-0.22-0.49-0.29l13.97-46.41l47.52,21.61c-0.14,0.44-0.14,0.91-0.01,1.35
				L614.58,26.38z M678.82,3c0.09-0.08,0.17-0.17,0.25-0.27c0.27-0.35,0.43-0.75,0.48-1.16l30.47-0.76l-13.7,24.88
				c-0.67-0.28-1.43-0.22-2.05,0.13L678.82,3z M697.56,26.87c-0.15-0.33-0.38-0.63-0.68-0.86c-0.01-0.01-0.02-0.02-0.04-0.03
				l13.88-25.19l60.19-1.5c0.01,0.06,0.02,0.11,0.03,0.17L697.56,26.87z"/>
		</g>
	</g>
</g>
<g>
	<defs>
		<polygon id="SVGID_00000169530768710810604180000010064310876592674467_" points="571.87,-0.31 355.72,200.31 600,200.31 
			600,-0.31 		"/>
	</defs>
	<use xlink:href="#SVGID_00000169530768710810604180000010064310876592674467_"  style="overflow:visible;fill:#F98012;"/>
	<clipPath id="SVGID_00000035505921680428505780000006039437166027868297_">
		<use xlink:href="#SVGID_00000169530768710810604180000010064310876592674467_"  style="overflow:visible;"/>
	</clipPath>
	<g style="clip-path:url(#SVGID_00000035505921680428505780000006039437166027868297_);">
		<g>
			<path class="st3" d="M774.67-2.91c-0.8-0.63-1.88-0.65-2.7-0.14l-34.19-41.21c0.04-0.05,0.09-0.09,0.13-0.15
				c0.8-1.02,0.62-2.49-0.39-3.29c-0.68-0.53-1.56-0.63-2.31-0.34l-27.84-50.34c0.17-0.12,0.32-0.27,0.45-0.44
				c0.8-1.02,0.62-2.49-0.39-3.29c-1.02-0.8-2.49-0.62-3.29,0.39c-0.22,0.28-0.36,0.59-0.44,0.91l-40.71-4.24
				c-0.02-0.67-0.32-1.33-0.89-1.78c-1.02-0.8-2.49-0.62-3.29,0.39c-0.17,0.21-0.29,0.44-0.37,0.69l-27.5-5.65
				c0.05-0.75-0.25-1.51-0.89-2.01c-0.47-0.37-1.03-0.53-1.58-0.49l-7.32-38.73c0.43-0.14,0.82-0.4,1.11-0.78
				c0.8-1.02,0.62-2.49-0.39-3.29c-0.85-0.67-2.01-0.65-2.84-0.04l-20.51-21.24c0,0,0.01-0.01,0.01-0.01
				c0.8-1.02,0.62-2.49-0.39-3.29c-1.02-0.8-2.49-0.62-3.29,0.39c-0.43,0.55-0.57,1.22-0.46,1.86l-34.99,11.05
				c-0.15-0.32-0.37-0.62-0.67-0.86c-1.02-0.8-2.49-0.62-3.29,0.39c-0.8,1.02-0.62,2.49,0.39,3.29c0.04,0.03,0.08,0.06,0.12,0.08
				l-34.01,66.22l-0.22-0.06l0.07,0.36l-0.55,1.08l0.66-0.5l7.96,43.09c-0.43,0.14-0.82,0.4-1.12,0.78
				c-0.61,0.78-0.65,1.83-0.17,2.64l-27.39,21.4c-0.06-0.06-0.13-0.12-0.2-0.17c-1.02-0.8-2.49-0.62-3.29,0.39
				c-0.73,0.93-0.64,2.23,0.14,3.06L409.01,5.5c-0.15-0.29-0.36-0.55-0.63-0.77c-1.02-0.8-2.49-0.62-3.29,0.39
				c-0.8,1.02-0.62,2.49,0.39,3.29c0.39,0.31,0.84,0.47,1.3,0.5L412,86.92c-0.53,0.1-1.03,0.39-1.39,0.85
				c-0.33,0.42-0.49,0.92-0.5,1.41L377.23,93c-0.12-0.49-0.4-0.94-0.82-1.27c-1.02-0.8-2.49-0.62-3.29,0.39
				c-0.56,0.71-0.64,1.64-0.29,2.41l-25.63,15.84c-0.11-0.13-0.23-0.25-0.37-0.36c-1.02-0.8-2.49-0.62-3.29,0.39
				c-0.8,1.02-0.62,2.49,0.39,3.29c0.08,0.06,0.16,0.11,0.24,0.16l-21.75,49.67c-0.89-0.26-1.89,0.03-2.5,0.8
				c-0.8,1.02-0.62,2.49,0.39,3.29c0.66,0.52,1.52,0.62,2.25,0.36l14.39,27.57c-0.22,0.14-0.42,0.32-0.6,0.53
				c-0.74,0.94-0.64,2.26,0.17,3.09l-22.3,23.78c-0.04-0.03-0.07-0.07-0.11-0.1c-1.02-0.8-2.49-0.62-3.29,0.39
				c-0.8,1.02-0.62,2.49,0.39,3.29c1.02,0.8,2.49,0.62,3.29-0.39c0.05-0.06,0.09-0.12,0.13-0.18l14.99,8.94
				c-0.41,0.95-0.15,2.1,0.7,2.77c1.02,0.8,2.49,0.62,3.29-0.39c0.51-0.65,0.62-1.49,0.37-2.22l35.48-17.74
				c0.13,0.2,0.3,0.38,0.49,0.53c1.02,0.8,2.49,0.62,3.29-0.39c0.59-0.75,0.65-1.74,0.23-2.54l5.11-4.34l28.33-24.07
				c1.01,0.76,2.45,0.57,3.24-0.43c0.8-1.02,0.62-2.49-0.39-3.29c-0.3-0.23-0.63-0.38-0.97-0.45l3.48-37.14
				c0.65-0.04,1.28-0.34,1.72-0.89c0,0,0,0,0-0.01l18.56,10.98l26.62-44.6c0.95,0.41,2.1,0.16,2.77-0.7
				c0.35-0.45,0.51-0.98,0.5-1.51l29.29-4.59c0.13,0.45,0.4,0.87,0.8,1.18c1.02,0.8,2.49,0.62,3.29-0.39
				c0.37-0.47,0.53-1.05,0.49-1.6l47.49-9.42c0.14,0.42,0.4,0.8,0.77,1.09c1.02,0.8,2.49,0.62,3.29-0.39
				c0.8-1.02,0.62-2.49-0.39-3.29c-0.4-0.31-0.87-0.48-1.34-0.5l-2.68-31.94c0.51-0.11,1-0.4,1.35-0.84
				c0.7-0.89,0.65-2.13-0.05-2.96l51.61-56.65l-0.22-0.2c0.64,0.5,1.46,0.62,2.17,0.39l12.96,27.23c-0.21,0.14-0.41,0.31-0.57,0.52
				c-0.8,1.02-0.62,2.49,0.39,3.29c1.02,0.8,2.49,0.62,3.29-0.39c0.47-0.6,0.6-1.35,0.42-2.04l60.43-24.44
				c0.14,0.23,0.33,0.45,0.55,0.63c0.75,0.59,1.75,0.65,2.55,0.22l15.46,22.84c-0.07,0.07-0.14,0.14-0.2,0.22
				c-0.8,1.02-0.62,2.49,0.39,3.29c1.02,0.8,2.49,0.62,3.29-0.39c0.43-0.54,0.57-1.22,0.46-1.85l73.41-27.43
				c0.15,0.28,0.36,0.54,0.62,0.75c1.02,0.8,2.49,0.62,3.29-0.39C775.86-0.64,775.68-2.11,774.67-2.91z M771.5-2.67
				c-0.04,0.05-0.09,0.09-0.13,0.15c-0.28,0.36-0.44,0.78-0.49,1.2l-59.84,1.49l24.16-43.86c0.69,0.27,1.48,0.19,2.11-0.2
				L771.5-2.67z M679.55,0.97c-0.04-0.29-0.13-0.57-0.27-0.82l55.17-44.31c0.06,0.05,0.11,0.1,0.17,0.15
				c0.02,0.02,0.04,0.03,0.06,0.05L710.36,0.2L679.55,0.97z M612.41,25.19L602-31.02c0.43-0.14,0.82-0.4,1.12-0.78
				c0.05-0.07,0.1-0.14,0.15-0.21l23.64,10.75l-14,46.48C612.75,25.19,612.58,25.18,612.41,25.19z M334.56,221.14l3.57-21.29
				c0.72,0.03,1.45-0.28,1.93-0.89c0,0,0.01-0.01,0.01-0.01l29.11,16.41c-0.06,0.22-0.09,0.45-0.08,0.67L334.56,221.14z
				 M369.97,106.46l-18.99,52.43c-0.15-0.03-0.3-0.05-0.44-0.05l-4.61-44.72c0.5-0.12,0.96-0.4,1.3-0.83
				c0.39-0.49,0.55-1.1,0.49-1.68L369.97,106.46z M559.1-165.54c0.17-0.22,0.3-0.46,0.38-0.71l24.95,4.8l-19.07,28.84l-7.3-32.18
				C558.46-164.94,558.82-165.19,559.1-165.54z M675.85-0.61l-40.22-41c0.14-0.18,0.24-0.37,0.33-0.56l46.76,12.37l-5.27,28.75
				C676.89-1.1,676.32-0.95,675.85-0.61z M541.12,54.88c-0.08,0.1-0.14,0.2-0.2,0.31l-4.1-1.64l-7.51-31.02l12.51,31.75
				C541.56,54.42,541.32,54.62,541.12,54.88z M544.88,90.86l-35.16-46.82c0.07-0.07,0.14-0.15,0.21-0.23c0.08-0.1,0.14-0.2,0.2-0.31
				l26.18,10.48l8.89,36.72C545.08,90.75,544.98,90.8,544.88,90.86z M492.78,101.22l-23.95-29.95c0.05-0.06,0.11-0.12,0.16-0.18
				c0.12-0.16,0.22-0.33,0.3-0.5l29.92,8.82l-4.98,21.49C493.72,100.84,493.21,100.95,492.78,101.22z M412.68,105.47l0.07-13.93
				c0.59-0.07,1.15-0.37,1.55-0.88c0.07-0.09,0.14-0.19,0.19-0.29l43.33,17.7c-0.01,0.04-0.02,0.09-0.02,0.14L412.68,105.47z
				 M410.93,140.86l-19.11-23.32l-9.94-12.13c0.05-0.05,0.09-0.1,0.14-0.16c0.24-0.3,0.39-0.65,0.46-1.01l29.6,1.8l-0.16,34.48
				C411.56,140.56,411.23,140.67,410.93,140.86z M406.03,185.07l-43.17,7.86l-11.28-29.69c0.28-0.15,0.53-0.35,0.73-0.62
				c0.07-0.09,0.13-0.19,0.19-0.29l53.5,22.03C405.98,184.61,405.99,184.84,406.03,185.07z M369.58,214.54
				c-0.07,0.08-0.12,0.17-0.18,0.26l-29.04-16.37c0.11-0.27,0.17-0.54,0.18-0.82l21.92-3.99l7.74,20.37
				C369.98,214.13,369.76,214.31,369.58,214.54z M351.01,163.46l11.24,29.58L340.5,197c-0.11-0.51-0.4-0.98-0.84-1.33
				c-0.07-0.05-0.13-0.1-0.2-0.14l10.57-32.05C350.36,163.54,350.69,163.53,351.01,163.46z M351.92,159.34
				c-0.04-0.03-0.08-0.05-0.11-0.08l9.58-18.52l17.98-34.75c0.41,0.15,0.85,0.18,1.27,0.09l14.38,41.57l-42.41,12.58
				C352.46,159.89,352.23,159.58,351.92,159.34z M382.5,103.63c-0.01-0.18-0.04-0.35-0.09-0.52l28.05-12.66
				c0.14,0.23,0.32,0.44,0.54,0.61c0.34,0.27,0.73,0.42,1.13,0.48l-0.07,13.89L382.5,103.63z M499.46-26.04l5.1,45.69l-17.6,1.29
				c-0.1-0.54-0.39-1.04-0.85-1.4c-0.14-0.11-0.3-0.2-0.45-0.28l13.48-45.32C499.24-26.05,499.35-26.04,499.46-26.04z M521.5,8.38
				l4.98,8.19c-0.12,0.1-0.22,0.21-0.32,0.34c-0.28,0.35-0.44,0.76-0.48,1.18l-20.51,1.51l-5.1-45.71c0.13-0.03,0.26-0.08,0.39-0.13
				L521.5,8.38z M618.97-153.01c0.4,0.31,0.86,0.47,1.33,0.5l3.16,39.16l-57.04-16.45c0.05-0.34,0.03-0.68-0.07-1.01l52.06-22.83
				C618.55-153.41,618.74-153.19,618.97-153.01z M659.2-103.13c0.25,0.2,0.54,0.34,0.83,0.42l-4.27,30.83
				c-0.38,0-0.75,0.08-1.09,0.26l-13.15-20.43l17.35-11.4C658.97-103.33,659.08-103.23,659.2-103.13z M698.76-26.83
				c-0.14,0.18-0.25,0.37-0.33,0.56l-15.02-3.97L686.67-48c0.35,0.02,0.7-0.04,1.03-0.18l11.52,20.92
				C699.05-27.15,698.89-27,698.76-26.83z M600.09-35.26l-16.05-23.25c0.02-0.02,0.04-0.05,0.06-0.07c0.11-0.14,0.2-0.28,0.27-0.43
				l25.42,8.37l-7.72,15.19C601.41-35.69,600.69-35.61,600.09-35.26z M458.28,107.08c-0.11,0.14-0.19,0.28-0.27,0.43l-43.29-17.69
				c0.1-0.36,0.1-0.74,0.02-1.1l35.82-12.83l8.52,30.53C458.78,106.58,458.5,106.8,458.28,107.08z M440.41,37.31
				c0.1-0.04,0.2-0.1,0.3-0.16l14.64,18.26l10.1,12.6c-0.05,0.06-0.1,0.11-0.15,0.18c-0.45,0.57-0.59,1.29-0.45,1.95l-13.89,4.97
				L440.41,37.31z M504.63,20.24l2.25,20.12c-0.24,0.14-0.45,0.33-0.63,0.56c-0.1,0.13-0.19,0.27-0.26,0.41l-19.44-18.57
				c0.27-0.37,0.42-0.79,0.45-1.22L504.63,20.24z M486.13,23.19l19.64,18.77c-0.04,0.24-0.04,0.48-0.01,0.72l-27.31-3.23l5.75-15.79
				C484.87,23.8,485.59,23.64,486.13,23.19z M505.94,43.31c0.06,0.14,0.13,0.27,0.22,0.39l-37.24,24.41
				c-0.1-0.11-0.21-0.22-0.33-0.32c-0.12-0.09-0.24-0.17-0.37-0.24l10.02-27.52L505.94,43.31z M467.65,67.35
				c-0.59-0.13-1.21-0.03-1.73,0.28l-10.3-12.84l-14.44-18.01c0.05-0.06,0.1-0.11,0.15-0.18c0.21-0.27,0.35-0.57,0.43-0.88
				l35.85,4.23L467.65,67.35z M509.37,40.41c-0.58-0.38-1.28-0.47-1.92-0.3l-2.22-19.91l20.45-1.5c0.06,0.4,0.22,0.79,0.48,1.12
				L509.37,40.41z M629.6-109.45l11.09,17.22l-12.65,8.31c-0.1-0.11-0.21-0.22-0.33-0.31c-0.29-0.23-0.62-0.38-0.96-0.45l1.96-24.54
				C629.02-109.24,629.32-109.31,629.6-109.45z M653.9-70.99c-0.08,0.1-0.15,0.22-0.21,0.33l-25.17-11.07
				c0.16-0.56,0.11-1.16-0.14-1.68l12.65-8.3l13.16,20.44C654.08-71.19,653.98-71.1,653.9-70.99z M653.47-70.1
				c-0.16,0.66-0.03,1.36,0.37,1.92l-19.97-10.54L653.47-70.1z M581.19-62.11l-19-27.04c0.09-0.08,0.18-0.18,0.26-0.28
				c0.2-0.26,0.34-0.55,0.42-0.85l11.62,1.5l6.89,26.57C581.32-62.17,581.25-62.14,581.19-62.11z M583.71-61.87
				c-0.51-0.4-1.14-0.56-1.74-0.48l-6.83-26.34l48.79,6.3c0,0.27,0.05,0.53,0.14,0.78l-39.87,20.26
				C584.06-61.54,583.9-61.72,583.71-61.87z M624-82.99l-49.03-6.33l-10.03-38.66c0.29-0.11,0.55-0.28,0.78-0.5l58.52,44.91
				C624.14-83.38,624.05-83.19,624-82.99z M564.17-127.82c0.06,0,0.12-0.01,0.18-0.01l9.97,38.43l-11.38-1.47
				c0-0.69-0.31-1.38-0.89-1.84c-0.29-0.23-0.61-0.37-0.94-0.44l0.86-9.69L564.17-127.82z M561.7-88.8l18.98,27.04
				c-0.09,0.08-0.18,0.18-0.26,0.28c-0.37,0.48-0.53,1.05-0.49,1.61l-13.16,1.85l-5.45-30.61C561.45-88.68,561.57-88.73,561.7-88.8z
				 M580.04-59.28c0.14,0.42,0.4,0.8,0.77,1.09c0.21,0.16,0.43,0.28,0.66,0.36l-7.87,36.54c-0.1-0.01-0.2-0.01-0.3,0l-6.43-36.14
				L580.04-59.28z M574.86-20.79c-0.2-0.16-0.43-0.28-0.66-0.36l7.99-36.54c0.13,0,0.27,0,0.4-0.02l8.19,29.69l-15.43,7.76
				C575.22-20.46,575.05-20.64,574.86-20.79z M584.56-59.59c0.08-0.41,0.04-0.83-0.09-1.22l39.87-20.26
				c0.13,0.19,0.29,0.37,0.49,0.52c0.04,0.03,0.08,0.06,0.13,0.09l-14.88,29.28L584.56-59.59z M625.48-80.19
				c0.3,0.11,0.61,0.15,0.92,0.13l6.65,34.78c-0.42,0.14-0.81,0.4-1.11,0.78c-0.11,0.14-0.2,0.28-0.27,0.43L610.64-51L625.48-80.19z
				 M636.13-43.07l48.38-6.73c0.12,0.5,0.4,0.96,0.83,1.3c0.23,0.18,0.48,0.31,0.74,0.39l-3.25,17.72l-46.72-12.36
				C636.12-42.86,636.13-42.97,636.13-43.07z M684.44-50.4l-48.4,6.73c-0.13-0.47-0.4-0.9-0.81-1.22c-0.47-0.37-1.03-0.53-1.59-0.49
				L627-80.17c0.42-0.14,0.81-0.4,1.11-0.78c0.03-0.03,0.05-0.07,0.07-0.1l56.44,29.8C684.51-50.97,684.45-50.69,684.44-50.4z
				 M655.68-67.2c0.67,0.02,1.34-0.26,1.82-0.79l21,12.84L655.68-67.2z M658.55-103.95l-17.35,11.39l-11.08-17.21
				c0.12-0.1,0.23-0.21,0.33-0.34c0.17-0.21,0.29-0.44,0.37-0.68l27.5,5.65C658.29-104.74,658.37-104.32,658.55-103.95z
				 M627.15-109.72c0.29,0.23,0.62,0.38,0.96,0.45l-1.85,23.12l-2.13-26.38l2.15,0.62C626.16-111.11,626.47-110.26,627.15-109.72z
				 M625.78-84.68c-0.43,0.09-0.84,0.31-1.17,0.64l-58.38-44.81l-0.05-0.21c0.03-0.05,0.05-0.11,0.08-0.16l57.26,16.51L625.78-84.68
				z M559.41-88.86c0.4,0.24,0.86,0.35,1.31,0.33l5.44,30.59l-33.35,4.68c-0.1-0.37-0.3-0.73-0.58-1.02L559.41-88.86z M532.9-52.67
				l33.37-4.68l6.44,36.16c-0.34,0.11-0.66,0.3-0.93,0.56l-39.2-30.82C532.79-51.82,532.9-52.25,532.9-52.67z M483.21,23.21
				c0.13,0.1,0.27,0.19,0.41,0.26l-5.79,15.91l-35.99-4.25c0-0.12-0.01-0.24-0.03-0.36l40.74-12.39
				C482.7,22.69,482.92,22.98,483.21,23.21z M439.83,37.47l10.56,37.84l-35.86,12.84c-0.15-0.29-0.36-0.56-0.64-0.78
				c-0.05-0.04-0.09-0.07-0.14-0.1l24.97-49.91C439.09,37.49,439.47,37.53,439.83,37.47z M459.66,106.23l-8.53-30.54l13.93-4.99
				c0.15,0.29,0.36,0.56,0.64,0.77c0.23,0.18,0.48,0.3,0.73,0.39l-6.27,34.32C459.99,106.19,459.82,106.2,459.66,106.23z M469.45,70
				c0.07-0.47,0-0.96-0.21-1.39l24.77-16.24l12.55-8.23c0.02,0.02,0.04,0.04,0.06,0.06c0.2,0.15,0.41,0.27,0.63,0.35l-7.93,34.25
				L469.45,70z M510.35,42.95c0.19-0.75,0-1.56-0.53-2.15l16.77-20.57c0.49,0.37,1.08,0.51,1.65,0.45l7.88,32.58L510.35,42.95z
				 M529.87,16.96l30.77-25.11l11.15-9.1c0.05,0.05,0.1,0.1,0.16,0.14c1.01,0.79,2.46,0.62,3.27-0.37l20.3,12.46
				c-0.25,0.45-0.34,0.95-0.27,1.44l-65.22,20.8C529.99,17.13,529.93,17.05,529.87,16.96z M595.89-5.51l-20.35-12.49
				c0.25-0.55,0.27-1.17,0.07-1.73l15.32-7.7l5.88,21.32C596.48-5.98,596.16-5.79,595.89-5.51z M583.17-57.87
				c0.15-0.06,0.29-0.14,0.42-0.23l16.03,23.21c-0.06,0.06-0.12,0.13-0.18,0.2c-0.57,0.72-0.64,1.68-0.27,2.46l-7.85,3.94
				L583.17-57.87z M602.73-35.09c-0.04-0.03-0.08-0.06-0.13-0.09l7.76-15.27l21.12,6.96c-0.05,0.27-0.05,0.55-0.01,0.82l-28.06,8.46
				C603.27-34.54,603.04-34.85,602.73-35.09z M683.3-29.65l14.97,3.96c-0.08,0.66,0.11,1.34,0.57,1.85L678.6-0.61
				c-0.18-0.13-0.37-0.23-0.57-0.31L683.3-29.65z M699.3-23.44c1.01,0.67,2.38,0.47,3.14-0.5c0.54-0.69,0.63-1.59,0.32-2.35
				l30.05-17.35L679.78-1.04L699.3-23.44z M733.91-44.96L702.46-26.8c-0.12-0.15-0.25-0.3-0.41-0.42c-0.3-0.23-0.63-0.38-0.98-0.45
				l1.5-20.93l31.16,2.83C733.74-45.49,733.8-45.22,733.91-44.96z M700.46-27.72c-0.25,0.01-0.49,0.07-0.72,0.16l-11.53-20.93
				c0.15-0.11,0.29-0.25,0.41-0.4c0.22-0.28,0.37-0.61,0.44-0.94l12.9,1.17L700.46-27.72z M689.12-50.43
				c-0.03-0.66-0.33-1.31-0.89-1.75c-0.11-0.08-0.22-0.15-0.33-0.22l17.53-45.58c0.03,0.01,0.06,0.01,0.08,0.02l-3.5,48.7
				L689.12-50.43z M704.53-98.41c0.11,0.08,0.22,0.15,0.33,0.22l-17.53,45.58c-0.43-0.1-0.87-0.09-1.28,0.05l-13.01-27.2
				l31.11-19.02C704.26-98.65,704.39-98.53,704.53-98.41z M685.51-52.31c-0.18,0.12-0.35,0.26-0.49,0.43L657.84-68.5
				c0.32-0.63,0.32-1.37,0.04-2l14.65-8.95L685.51-52.31z M657.56-71.01c-0.11-0.14-0.23-0.26-0.38-0.37
				c-0.25-0.2-0.54-0.34-0.83-0.42l4.27-30.83c0.25,0,0.51-0.04,0.75-0.11L672.26-80L657.56-71.01z M626.76-113.01
				c-0.13,0.16-0.23,0.33-0.3,0.51l-2.37-0.68l-2.91-36.05l6.7,35.44C627.45-113.65,627.06-113.39,626.76-113.01z M618.17-154.2
				l-52.06,22.83c-0.12-0.21-0.28-0.4-0.47-0.56l19.44-29.41l33,6.34C618.06-154.73,618.09-154.46,618.17-154.2z M563.57-127.88
				l-3.06,34.67c-0.66,0.03-1.3,0.33-1.74,0.89c-0.68,0.86-0.65,2.04-0.01,2.87L548-92.19l15.46-35.72
				C563.5-127.9,563.54-127.89,563.57-127.88z M558.64-88.85l-26.88,34.19l16-36.97L558.64-88.85z M532.19-50.97l39.2,30.82
				c-0.11,0.19-0.2,0.4-0.25,0.6l-41.35-5.28l0.98-25.49C531.29-50.36,531.8-50.58,532.19-50.97z M571.07-18.95
				c0,0.43,0.12,0.86,0.35,1.23l-23.03,18.8l-6.76,5.52l-12.17,9.93c0,0-0.01-0.01-0.01-0.01c-0.36-0.29-0.79-0.45-1.22-0.49
				l1.54-40.24L571.07-18.95z M527.62,16.05c-0.22,0.04-0.43,0.1-0.64,0.2l-4.76-7.82l-21.26-34.98c0.14-0.11,0.26-0.23,0.38-0.38
				c0.21-0.26,0.35-0.55,0.42-0.85l27.4,3.5L527.62,16.05z M498.55-26.24l-13.47,45.31c-0.83-0.15-1.7,0.15-2.26,0.86
				c-0.17,0.22-0.3,0.46-0.38,0.72l-24.35-4.64l40.22-42.38C498.39-26.32,498.47-26.28,498.55-26.24z M482.32,21.24
				c-0.01,0.19,0,0.38,0.04,0.56l-40.73,12.39c-0.08-0.18-0.19-0.35-0.32-0.51l16.28-17.15L482.32,21.24z M440.88,33.27
				c-0.9-0.65-2.11-0.58-2.92,0.13L408.88,7.88c0.12-0.18,0.21-0.37,0.28-0.57l47.74,9.09L440.88,33.27z M408.48,8.33l29.08,25.52
				c-0.68,1.01-0.48,2.38,0.5,3.14c0.05,0.04,0.09,0.07,0.14,0.1l-24.97,49.91c-0.2-0.07-0.41-0.11-0.62-0.13l-5.21-78.01
				C407.79,8.79,408.16,8.61,408.48,8.33z M410.21,89.9l-28.05,12.66c-0.14-0.23-0.32-0.44-0.54-0.61c-0.66-0.52-1.5-0.62-2.23-0.36
				l-3.1-6.09c0.19-0.13,0.37-0.29,0.52-0.49c0.33-0.42,0.49-0.92,0.5-1.41l32.88-3.81C410.19,89.82,410.2,89.86,410.21,89.9z
				 M375.75,95.77l3.1,6.09c-0.19,0.13-0.37,0.29-0.52,0.49c-0.39,0.49-0.55,1.1-0.49,1.68l-6.93,1.6l3.54-9.78
				C374.89,95.94,375.33,95.91,375.75,95.77z M377.98,104.61c0.15,0.39,0.39,0.75,0.74,1.02c0.04,0.03,0.08,0.05,0.11,0.08
				l-26.51,51.22l18.34-50.63L377.98,104.61z M349.93,158.9c-0.5,0.12-0.96,0.4-1.3,0.83c-0.35,0.45-0.52,0.99-0.5,1.52l-6.53,1.04
				l3.82-47.16L349.93,158.9z M348.23,161.84c0.13,0.45,0.4,0.86,0.8,1.18c0.14,0.11,0.28,0.2,0.43,0.27l-10.52,31.9l2.62-32.28
				L348.23,161.84z M373.15,214.4c-0.08-0.09-0.17-0.18-0.27-0.26c-0.62-0.49-1.4-0.61-2.1-0.4l-7.69-20.24l43.15-7.85
				c0.07,0.15,0.16,0.29,0.27,0.42l-7.84,6.66L373.15,214.4z M406.49,183.17c-0.15,0.19-0.26,0.4-0.35,0.61l-53.41-21.99
				c0.09-0.32,0.1-0.65,0.05-0.98l42.44-12.58l11.9,34.39C406.88,182.76,406.67,182.94,406.49,183.17z M381.21,105.89
				c0.07-0.03,0.13-0.07,0.19-0.11l10.06,12.27l18.99,23.18c-0.05,0.05-0.1,0.11-0.14,0.17c-0.43,0.55-0.57,1.22-0.46,1.86
				l-14.25,4.23L381.21,105.89z M413.6,141.01c-0.33-0.26-0.71-0.41-1.1-0.47l0.17-34.46l45.12,2.75c0.04,0.3,0.13,0.59,0.28,0.85
				l-44.17,31.61C413.81,141.19,413.71,141.09,413.6,141.01z M461.56,106.69c-0.25-0.19-0.52-0.33-0.81-0.41l6.26-34.3
				c0.46,0.02,0.93-0.09,1.33-0.34l23.95,29.95c-0.05,0.06-0.11,0.12-0.16,0.18c-0.35,0.45-0.51,0.98-0.5,1.51l-29.29,4.59
				C462.23,107.42,461.96,107,461.56,106.69z M495.44,101.38c-0.2-0.15-0.41-0.27-0.63-0.35l4.97-21.45l43.94,12.95
				c-0.03,0.17-0.03,0.35-0.02,0.52l-47.49,9.42C496.07,102.05,495.81,101.67,495.44,101.38z M499.91,78.98l7.94-34.29
				c0.48,0.05,0.96-0.05,1.38-0.29l35.16,46.82c-0.07,0.07-0.14,0.15-0.21,0.23c-0.12,0.16-0.22,0.33-0.3,0.5L499.91,78.98z
				 M536.99,54.26l3.7,1.48c-0.22,0.87,0.07,1.83,0.82,2.42c0.4,0.31,0.87,0.48,1.34,0.5l2.55,30.36L536.99,54.26z M542.39,54.05
				l-13.26-33.65c0.27-0.15,0.51-0.35,0.71-0.6c0.47-0.59,0.6-1.34,0.43-2.03L595.41-3c0.11,0.27,0.28,0.53,0.49,0.75L544.3,54.41
				C543.72,54,543.03,53.89,542.39,54.05z M597.41-6.22l-5.93-21.48l8.01-4.03c0.1,0.12,0.21,0.22,0.33,0.32
				c0.28,0.22,0.59,0.36,0.92,0.44l-3.08,24.74C597.58-6.23,597.5-6.23,597.41-6.22z M603.52-32.56c0.11-0.35,0.13-0.71,0.07-1.07
				l28.06-8.46c0.15,0.33,0.38,0.64,0.69,0.88c0.15,0.12,0.32,0.22,0.49,0.29l-5.74,19.07L603.52-32.56z M633.41-40.74
				c0.62,0.1,1.27-0.05,1.79-0.44l40.21,40.99c-0.01,0.01-0.02,0.02-0.03,0.03c-0.05,0.07-0.1,0.14-0.15,0.21l-47.6-21.64
				L633.41-40.74z M734.68-47.74c-0.17,0.12-0.32,0.27-0.45,0.44c-0.22,0.28-0.37,0.61-0.44,0.94l-31.17-2.84l3.5-48.72
				c0.25-0.01,0.49-0.07,0.72-0.16L734.68-47.74z M703.64-100.2c0.01,0.31,0.08,0.61,0.2,0.89l-31.06,18.99l-10.86-22.7
				c0.21-0.14,0.4-0.31,0.57-0.52c0.22-0.28,0.36-0.59,0.44-0.91L703.64-100.2z M618.58-156.32c0,0-0.01,0.01-0.01,0.01
				c-0.17,0.22-0.3,0.46-0.38,0.71l-32.75-6.29l10.21-15.45c0.79,0.39,1.73,0.29,2.42-0.22L618.58-156.32z M594.56-178.45
				c0.14,0.29,0.33,0.56,0.59,0.78l-10.35,15.66l-25.2-4.84c0.01-0.19,0-0.37-0.03-0.55L594.56-178.45z M556.47-164.79
				c0.33,0.12,0.67,0.16,1.01,0.13l7.32,32.27c-0.9-0.28-1.92,0-2.54,0.79c-0.61,0.77-0.65,1.8-0.19,2.6l-39.12,29.48L556.47-164.79
				z M562.43-128.52c0.07,0.07,0.14,0.14,0.22,0.2c0.08,0.06,0.16,0.12,0.25,0.17l-15.5,35.81l-24.64-6.29L562.43-128.52z
				 M547.17-91.78L531.2-54.89c-0.25-0.07-0.51-0.1-0.77-0.09l-7.97-43.11L547.17-91.78z M528.91-50.98
				c0.06,0.06,0.13,0.12,0.2,0.17c0.32,0.25,0.68,0.41,1.06,0.47l-0.97,25.44l-27.35-3.49c0-0.41-0.11-0.82-0.33-1.19L528.91-50.98z
				 M496.96-25.82l-39.57,41.69l-48.12-9.16c0.01-0.22,0-0.44-0.05-0.65L496.96-25.82z M373.15,95.04c0.11,0.13,0.23,0.25,0.37,0.36
				c0.12,0.09,0.24,0.17,0.37,0.24l-3.68,10.15l-22.64,5.24c-0.02-0.05-0.04-0.1-0.06-0.15L373.15,95.04z M344.73,114.09
				c0.06,0.02,0.11,0.03,0.17,0.04l-3.91,48.26l-16.97,2.72c-0.13-0.45-0.4-0.86-0.8-1.18c-0.08-0.06-0.16-0.11-0.24-0.16
				L344.73,114.09z M323.11,167.69c0.18-0.13,0.35-0.29,0.5-0.47c0.35-0.45,0.52-0.99,0.5-1.52l16.83-2.69l-2.61,32.17
				c-0.28-0.01-0.55,0.02-0.82,0.1L323.11,167.69z M336.76,199.35C336.76,199.35,336.76,199.36,336.76,199.35
				c0.24,0.19,0.5,0.32,0.77,0.4l-3.6,21.48l-18.99,2.81c-0.06-0.23-0.16-0.46-0.3-0.66l22.35-23.83L336.76,199.35z M315.02,224.65
				l18.8-2.79l-1.95,11.61c-0.72-0.03-1.45,0.28-1.93,0.89l-15.04-8.97C314.99,225.15,315.03,224.9,315.02,224.65z M333.74,234.5
				c-0.13-0.2-0.3-0.38-0.49-0.53c-0.24-0.19-0.5-0.32-0.77-0.4l1.98-11.8l34.72-5.14c0.01,0.04,0.03,0.09,0.04,0.13L333.74,234.5z
				 M408.2,182.28c-0.18,0.01-0.36,0.04-0.53,0.09l-11.87-34.32l14.23-4.22c0.15,0.32,0.37,0.62,0.67,0.85
				c0.29,0.23,0.63,0.38,0.97,0.45L408.2,182.28z M432.35,154.45l-18.05-10.68c0.28-0.64,0.25-1.37-0.07-1.98l44.2-31.63
				c0.07,0.07,0.15,0.15,0.23,0.21L432.35,154.45z M598.85-1.92c0.21-0.14,0.41-0.31,0.57-0.52c0.8-1.02,0.62-2.49-0.39-3.29
				c-0.23-0.18-0.49-0.31-0.76-0.4l3.09-24.78c0.02,0,0.04,0,0.05,0l10.41,56.21c0,0,0,0-0.01,0L598.85-1.92z M614.58,26.38
				c-0.15-0.26-0.34-0.5-0.59-0.69c-0.15-0.12-0.32-0.22-0.49-0.29l13.97-46.41l47.52,21.61c-0.14,0.44-0.14,0.91-0.01,1.35
				L614.58,26.38z M678.82,3c0.09-0.08,0.17-0.17,0.25-0.27c0.27-0.35,0.43-0.75,0.48-1.16l30.47-0.76l-13.7,24.88
				c-0.67-0.28-1.43-0.22-2.05,0.13L678.82,3z M697.56,26.87c-0.15-0.33-0.38-0.63-0.68-0.86c-0.01-0.01-0.02-0.02-0.04-0.03
				l13.88-25.19l60.19-1.5c0.01,0.06,0.02,0.11,0.03,0.17L697.56,26.87z"/>
		</g>
	</g>
</g>
<g>
	<g>
		<path class="st4" d="M39.97,77.16h-3.45l-1.52,10.6h-4.51l1.55-10.6h-4.72v-4.43h5.36l1.08-7.3h-4.82v-4.49h5.47l1.57-10.72h4.49
			l-1.57,10.72h3.48l1.57-10.72h4.49l-1.57,10.72h4.61v4.49h-5.26l-1.08,7.3h4.69v4.43h-5.34l-1.55,10.6h-4.51L39.97,77.16z
			 M37.16,72.72h3.48l1.06-7.3h-3.46L37.16,72.72z"/>
		<path class="st4" d="M55.94,87.75V50.22h10.13c3.04,0,5.76,0.76,8.16,2.29c2.4,1.53,4.26,3.67,5.59,6.41s2.02,5.83,2.05,9.27v1.37
			c0,3.51-0.66,6.64-1.99,9.41c-1.32,2.77-3.18,4.92-5.58,6.46c-2.4,1.54-5.13,2.32-8.19,2.33H55.94z M63.52,56.53v24.93h2.04
			c2.8,0,4.95-1.01,6.46-3.03c1.5-2.02,2.26-5.03,2.26-9.04v-0.98c0-3.82-0.72-6.74-2.15-8.78c-1.44-2.04-3.54-3.07-6.3-3.11H63.52z
			"/>
		<path class="st4" d="M97.7,88.27c-3.75,0-6.67-1.12-8.77-3.35c-2.1-2.23-3.15-5.43-3.15-9.59v-2.22c0-4.4,0.96-7.79,2.89-10.18
			c1.92-2.39,4.68-3.58,8.28-3.58c3.51,0,6.14,1.12,7.91,3.36c1.77,2.24,2.67,5.56,2.71,9.95v3.58H93.06
			c0.1,2.07,0.56,3.59,1.37,4.54s2.05,1.44,3.74,1.44c2.44,0,4.48-0.83,6.11-2.5l2.86,4.41c-0.89,1.24-2.19,2.24-3.89,3
			S99.69,88.27,97.7,88.27z M93.11,71.15h7.3v-0.67c-0.03-1.67-0.31-2.93-0.83-3.79s-1.41-1.29-2.68-1.29s-2.2,0.46-2.77,1.37
			C93.55,67.68,93.22,69.14,93.11,71.15z"/>
		<path class="st4" d="M123.68,80.28c0-0.62-0.3-1.19-0.89-1.71c-0.59-0.52-1.91-1.23-3.96-2.13c-3.01-1.22-5.07-2.48-6.2-3.79
			c-1.13-1.31-1.69-2.93-1.69-4.87c0-2.44,0.88-4.46,2.64-6.05s4.1-2.38,7-2.38c3.06,0,5.51,0.79,7.35,2.37
			c1.84,1.58,2.76,3.7,2.76,6.37h-7.3c0-2.27-0.95-3.4-2.84-3.4c-0.77,0-1.41,0.24-1.91,0.72c-0.5,0.48-0.75,1.15-0.75,2.01
			c0,0.62,0.27,1.17,0.83,1.64c0.55,0.47,1.85,1.15,3.89,2.02c2.97,1.1,5.07,2.33,6.3,3.67c1.23,1.35,1.84,3.1,1.84,5.25
			c0,2.49-0.94,4.49-2.81,6.01s-4.33,2.27-7.37,2.27c-2.05,0-3.85-0.4-5.41-1.2c-1.56-0.8-2.79-1.91-3.67-3.34
			c-0.89-1.43-1.33-2.96-1.33-4.62h6.94c0.03,1.27,0.33,2.23,0.89,2.86c0.56,0.64,1.47,0.95,2.75,0.95
			C122.7,82.93,123.68,82.05,123.68,80.28z"/>
		<path class="st4" d="M154.69,71.51h-11.81v9.95h13.97v6.29H135.3V50.22h21.5v6.32h-13.92v8.87h11.81V71.51z"/>
		<path class="st4" d="M167.16,59.86l0.21,2.76c1.65-2.18,3.81-3.27,6.47-3.27c4.8,0,7.26,3.36,7.4,10.08v18.33h-7.32V69.97
			c0-1.58-0.24-2.73-0.71-3.44c-0.47-0.71-1.3-1.07-2.49-1.07c-1.32,0-2.35,0.68-3.09,2.04v20.26h-7.32v-27.9H167.16z"/>
		<path class="st4" d="M197.83,74.04h-3.76v13.72h-7.58V50.22h12.09c3.8,0,6.73,0.98,8.8,2.95c2.07,1.97,3.11,4.77,3.11,8.39
			c0,4.98-1.81,8.47-5.44,10.47l6.57,15.37v0.36h-8.15L197.83,74.04z M194.06,67.72h4.31c1.51,0,2.65-0.5,3.4-1.51
			c0.76-1.01,1.13-2.35,1.13-4.04c0-3.76-1.47-5.65-4.41-5.65h-4.43V67.72z"/>
		<path class="st4" d="M234.71,71.51H222.9v9.95h13.97v6.29h-21.55V50.22h21.5v6.32H222.9v8.87h11.81V71.51z"/>
		<path class="st4" d="M240.92,87.75V50.22h10.13c3.04,0,5.76,0.76,8.16,2.29c2.4,1.53,4.26,3.67,5.59,6.41s2.02,5.83,2.05,9.27
			v1.37c0,3.51-0.66,6.64-1.99,9.41c-1.32,2.77-3.18,4.92-5.58,6.46c-2.4,1.54-5.13,2.32-8.19,2.33H240.92z M248.5,56.53v24.93h2.04
			c2.8,0,4.95-1.01,6.46-3.03c1.5-2.02,2.26-5.03,2.26-9.04v-0.98c0-3.82-0.72-6.74-2.15-8.78c-1.44-2.04-3.54-3.07-6.3-3.11H248.5z
			"/>
		<path class="st4" d="M284.66,87.75c-0.21-0.43-0.41-1.15-0.62-2.17c-1.31,1.79-3.08,2.68-5.31,2.68c-2.34,0-4.28-0.77-5.81-2.32
			s-2.31-3.55-2.31-6.01c0-2.92,0.93-5.18,2.8-6.78c1.86-1.6,4.55-2.42,8.06-2.45h2.22v-2.24c0-1.25-0.21-2.14-0.64-2.66
			s-1.06-0.77-1.88-0.77c-1.82,0-2.73,1.07-2.73,3.2h-7.3c0-2.58,0.97-4.71,2.9-6.38s4.38-2.51,7.33-2.51c3.06,0,5.43,0.79,7.1,2.38
			s2.51,3.86,2.51,6.82v13.12c0.03,2.41,0.38,4.29,1.03,5.65v0.44H284.66z M280.35,82.55c0.81,0,1.5-0.16,2.06-0.49
			c0.57-0.33,0.99-0.71,1.26-1.16v-5.8h-1.75c-1.24,0-2.21,0.4-2.93,1.19c-0.71,0.79-1.07,1.85-1.07,3.17
			C277.93,81.52,278.74,82.55,280.35,82.55z"/>
		<path class="st4" d="M295.06,73.57c0-4.28,0.88-7.72,2.66-10.33c1.77-2.6,4.12-3.91,7.04-3.91c2.06,0,3.79,0.8,5.18,2.4V48.15h7.3
			v39.6h-6.32l-0.44-2.66c-1.5,2.11-3.42,3.17-5.78,3.17c-2.85,0-5.17-1.32-6.96-3.96C295.96,81.67,295.06,78.1,295.06,73.57z
			 M302.36,74.12c0,2.46,0.37,4.42,1.12,5.88s1.79,2.19,3.13,2.19c1.44,0,2.55-0.7,3.33-2.09v-12.5c-0.79-1.43-1.88-2.14-3.27-2.14
			c-1.36,0-2.41,0.73-3.17,2.19S302.36,71.26,302.36,74.12z"/>
		<path class="st4" d="M321.3,73.55c0-2.73,0.48-5.19,1.44-7.37c0.96-2.18,2.33-3.87,4.1-5.05c1.77-1.19,3.82-1.78,6.14-1.78
			c3.35,0,6.09,1.2,8.22,3.6c2.13,2.4,3.29,5.59,3.48,9.58l0.03,1.57c0,2.77-0.49,5.24-1.46,7.41c-0.97,2.17-2.34,3.85-4.11,5.01
			c-1.77,1.17-3.81,1.75-6.11,1.75c-3.54,0-6.38-1.31-8.52-3.92c-2.14-2.61-3.21-6.09-3.21-10.44V73.55z M328.57,74.09
			c0,2.58,0.39,4.58,1.16,5.99s1.87,2.13,3.3,2.13c1.39,0,2.48-0.72,3.25-2.15c0.77-1.44,1.16-3.61,1.16-6.51
			c0-2.48-0.39-4.45-1.17-5.93c-0.78-1.48-1.88-2.22-3.29-2.22c-1.39,0-2.47,0.74-3.25,2.2C328.96,69.08,328.57,71.24,328.57,74.09z
			"/>
		<path class="st4" d="M361.05,80.28c0-0.62-0.3-1.19-0.89-1.71c-0.59-0.52-1.91-1.23-3.96-2.13c-3.01-1.22-5.08-2.48-6.2-3.79
			c-1.12-1.31-1.69-2.93-1.69-4.87c0-2.44,0.88-4.46,2.64-6.05s4.09-2.38,7-2.38c3.06,0,5.51,0.79,7.35,2.37s2.76,3.7,2.76,6.37
			h-7.3c0-2.27-0.95-3.4-2.84-3.4c-0.77,0-1.41,0.24-1.91,0.72c-0.5,0.48-0.75,1.15-0.75,2.01c0,0.62,0.27,1.17,0.83,1.64
			c0.55,0.47,1.85,1.15,3.89,2.02c2.97,1.1,5.07,2.33,6.3,3.67c1.23,1.35,1.84,3.1,1.84,5.25c0,2.49-0.94,4.49-2.81,6.01
			s-4.33,2.27-7.37,2.27c-2.05,0-3.85-0.4-5.41-1.2c-1.56-0.8-2.79-1.91-3.67-3.34c-0.89-1.43-1.33-2.96-1.33-4.62h6.94
			c0.03,1.27,0.33,2.23,0.89,2.86c0.56,0.64,1.47,0.95,2.75,0.95C360.07,82.93,361.05,82.05,361.05,80.28z"/>
	</g>
	<g>
		<path class="st5" d="M97.58,102.7v10.63c-0.01,1.48-0.47,2.68-1.39,3.62c-0.92,0.94-2.17,1.46-3.74,1.58l-0.55,0.02
			c-1.71,0-3.08-0.46-4.09-1.39c-1.02-0.92-1.53-2.2-1.55-3.81V102.7h2.04v10.59c0,1.13,0.31,2.01,0.93,2.64
			c0.62,0.63,1.51,0.94,2.66,0.94c1.17,0,2.06-0.31,2.68-0.93c0.62-0.62,0.93-1.5,0.93-2.63v-10.6H97.58z"/>
		<path class="st5" d="M107.29,115.25c0-0.54-0.2-0.95-0.61-1.25c-0.4-0.3-1.11-0.55-2.12-0.77c-1.01-0.21-1.8-0.47-2.4-0.77
			s-1.03-0.66-1.31-1.07c-0.28-0.42-0.42-0.91-0.42-1.48c0-0.95,0.4-1.76,1.21-2.42s1.83-0.99,3.09-0.99c1.32,0,2.39,0.34,3.21,1.02
			c0.82,0.68,1.23,1.55,1.23,2.61h-2c0-0.54-0.23-1.01-0.69-1.41s-1.04-0.59-1.75-0.59c-0.72,0-1.29,0.16-1.7,0.47
			s-0.61,0.73-0.61,1.24c0,0.48,0.19,0.84,0.57,1.08c0.38,0.24,1.06,0.48,2.06,0.7c0.99,0.22,1.8,0.49,2.41,0.79
			c0.62,0.31,1.07,0.68,1.37,1.11c0.3,0.43,0.45,0.96,0.45,1.58c0,1.04-0.42,1.87-1.25,2.5c-0.83,0.63-1.91,0.94-3.23,0.94
			c-0.93,0-1.75-0.17-2.47-0.49c-0.72-0.33-1.28-0.79-1.68-1.38c-0.4-0.59-0.61-1.23-0.61-1.92h1.99c0.04,0.67,0.3,1.19,0.8,1.58
			c0.5,0.39,1.15,0.58,1.97,0.58c0.75,0,1.35-0.15,1.81-0.46C107.06,116.17,107.29,115.76,107.29,115.25z"/>
		<path class="st5" d="M111.34,112.42c0-1.14,0.22-2.16,0.67-3.07c0.45-0.91,1.07-1.61,1.87-2.11c0.8-0.49,1.71-0.74,2.73-0.74
			c1.58,0,2.86,0.55,3.84,1.64s1.47,2.55,1.47,4.37v0.14c0,1.13-0.22,2.15-0.65,3.05c-0.43,0.9-1.05,1.6-1.86,2.1
			s-1.73,0.75-2.78,0.75c-1.58,0-2.85-0.55-3.83-1.64s-1.47-2.55-1.47-4.35V112.42z M113.34,112.66c0,1.29,0.3,2.32,0.9,3.1
			c0.6,0.78,1.4,1.17,2.4,1.17c1.01,0,1.81-0.4,2.41-1.19c0.59-0.79,0.89-1.9,0.89-3.33c0-1.27-0.3-2.31-0.91-3.1
			c-0.61-0.79-1.41-1.19-2.41-1.19c-0.98,0-1.77,0.39-2.37,1.17S113.34,111.2,113.34,112.66z"/>
		<path class="st5" d="M131.18,115.25c0-0.54-0.2-0.95-0.61-1.25c-0.4-0.3-1.11-0.55-2.12-0.77c-1.01-0.21-1.8-0.47-2.4-0.77
			s-1.03-0.66-1.31-1.07c-0.28-0.42-0.42-0.91-0.42-1.48c0-0.95,0.4-1.76,1.21-2.42s1.83-0.99,3.09-0.99c1.32,0,2.39,0.34,3.21,1.02
			c0.82,0.68,1.23,1.55,1.23,2.61h-2c0-0.54-0.23-1.01-0.69-1.41s-1.04-0.59-1.75-0.59c-0.72,0-1.29,0.16-1.7,0.47
			s-0.61,0.73-0.61,1.24c0,0.48,0.19,0.84,0.57,1.08c0.38,0.24,1.06,0.48,2.06,0.7c0.99,0.22,1.8,0.49,2.41,0.79
			c0.62,0.31,1.07,0.68,1.37,1.11c0.3,0.43,0.45,0.96,0.45,1.58c0,1.04-0.42,1.87-1.25,2.5c-0.83,0.63-1.91,0.94-3.23,0.94
			c-0.93,0-1.75-0.17-2.47-0.49c-0.72-0.33-1.28-0.79-1.68-1.38c-0.4-0.59-0.61-1.23-0.61-1.92h1.99c0.04,0.67,0.3,1.19,0.8,1.58
			c0.5,0.39,1.15,0.58,1.97,0.58c0.75,0,1.35-0.15,1.81-0.46C130.95,116.17,131.18,115.76,131.18,115.25z"/>
		<path class="st5" d="M140.72,112.43c0-1.78,0.42-3.22,1.27-4.3c0.84-1.08,1.95-1.63,3.32-1.63c1.36,0,2.44,0.47,3.23,1.4v-6.06
			h1.99v16.5h-1.83l-0.1-1.25c-0.79,0.97-1.9,1.46-3.32,1.46c-1.35,0-2.44-0.55-3.29-1.65s-1.27-2.54-1.27-4.32V112.43z
			 M142.7,112.66c0,1.32,0.27,2.35,0.82,3.09c0.54,0.75,1.3,1.12,2.26,1.12c1.26,0,2.18-0.57,2.76-1.7v-5.34
			c-0.59-1.1-1.51-1.64-2.74-1.64c-0.97,0-1.73,0.38-2.28,1.13C142.98,110.07,142.7,111.18,142.7,112.66z"/>
		<path class="st5" d="M153.62,103.63c0-0.32,0.1-0.59,0.3-0.82c0.2-0.22,0.49-0.33,0.88-0.33s0.68,0.11,0.88,0.33
			c0.2,0.22,0.3,0.49,0.3,0.82s-0.1,0.59-0.3,0.81c-0.2,0.21-0.49,0.32-0.88,0.32s-0.68-0.11-0.88-0.32
			C153.72,104.22,153.62,103.95,153.62,103.63z M155.77,118.34h-1.99v-11.62h1.99V118.34z"/>
		<path class="st5" d="M158.46,112.43c0-1.78,0.42-3.22,1.27-4.3c0.84-1.08,1.95-1.63,3.32-1.63c1.36,0,2.44,0.47,3.23,1.4v-6.06
			h1.99v16.5h-1.83l-0.1-1.25c-0.79,0.97-1.9,1.46-3.32,1.46c-1.35,0-2.44-0.55-3.29-1.65s-1.27-2.54-1.27-4.32V112.43z
			 M160.45,112.66c0,1.32,0.27,2.35,0.82,3.09c0.54,0.75,1.3,1.12,2.26,1.12c1.26,0,2.18-0.57,2.76-1.7v-5.34
			c-0.59-1.1-1.51-1.64-2.74-1.64c-0.97,0-1.73,0.38-2.28,1.13C160.72,110.07,160.45,111.18,160.45,112.66z"/>
		<path class="st5" d="M178.53,118.34c-0.11-0.23-0.21-0.64-0.28-1.22c-0.92,0.96-2.03,1.44-3.31,1.44c-1.15,0-2.09-0.32-2.82-0.97
			c-0.73-0.65-1.1-1.47-1.1-2.46c0-1.21,0.46-2.15,1.38-2.82c0.92-0.67,2.21-1,3.88-1h1.93v-0.91c0-0.69-0.21-1.25-0.62-1.66
			c-0.42-0.41-1.03-0.62-1.84-0.62c-0.71,0-1.3,0.18-1.78,0.54c-0.48,0.36-0.72,0.79-0.72,1.3h-2c0-0.58,0.21-1.14,0.62-1.68
			c0.41-0.54,0.97-0.97,1.68-1.28c0.71-0.32,1.48-0.47,2.33-0.47c1.34,0,2.39,0.33,3.15,1c0.76,0.67,1.15,1.59,1.18,2.77v5.35
			c0,1.07,0.14,1.92,0.41,2.55v0.17H178.53z M175.23,116.82c0.62,0,1.21-0.16,1.77-0.48s0.96-0.74,1.21-1.26v-2.38h-1.56
			c-2.44,0-3.65,0.71-3.65,2.14c0,0.62,0.21,1.11,0.62,1.46C174.05,116.65,174.58,116.82,175.23,116.82z M177.07,101.84h2.41
			L176.6,105l-1.6-0.01L177.07,101.84z"/>
		<path class="st5" d="M187.98,116.93c0.71,0,1.33-0.21,1.86-0.64c0.53-0.43,0.82-0.97,0.88-1.61h1.88c-0.04,0.67-0.27,1.3-0.69,1.9
			c-0.42,0.6-0.99,1.08-1.69,1.44c-0.71,0.36-1.45,0.54-2.24,0.54c-1.58,0-2.84-0.53-3.78-1.58c-0.93-1.06-1.4-2.5-1.4-4.33v-0.33
			c0-1.13,0.21-2.14,0.62-3.02c0.42-0.88,1.01-1.56,1.79-2.05c0.78-0.49,1.7-0.73,2.76-0.73c1.3,0,2.39,0.39,3.25,1.17
			c0.86,0.78,1.32,1.79,1.38,3.04h-1.88c-0.06-0.75-0.34-1.37-0.85-1.85c-0.51-0.48-1.14-0.72-1.9-0.72c-1.01,0-1.79,0.36-2.35,1.09
			c-0.56,0.73-0.83,1.78-0.83,3.15v0.38c0,1.34,0.28,2.37,0.83,3.09C186.17,116.57,186.96,116.93,187.98,116.93z"/>
		<path class="st5" d="M197.53,103.9v2.81h2.17v1.54h-2.17v7.22c0,0.47,0.1,0.82,0.29,1.05c0.19,0.23,0.52,0.35,0.99,0.35
			c0.23,0,0.54-0.04,0.95-0.13v1.6c-0.52,0.14-1.03,0.21-1.53,0.21c-0.89,0-1.56-0.27-2.01-0.81s-0.68-1.3-0.68-2.29v-7.21h-2.12
			v-1.54h2.12v-2.81H197.53z"/>
		<path class="st5" d="M202.03,103.63c0-0.32,0.1-0.59,0.3-0.82c0.2-0.22,0.49-0.33,0.88-0.33s0.68,0.11,0.88,0.33
			c0.2,0.22,0.3,0.49,0.3,0.82s-0.1,0.59-0.3,0.81c-0.2,0.21-0.49,0.32-0.88,0.32s-0.68-0.11-0.88-0.32
			C202.13,104.22,202.03,103.95,202.03,103.63z M204.18,118.34h-1.99v-11.62h1.99V118.34z"/>
		<path class="st5" d="M212.02,116.93c0.71,0,1.33-0.21,1.86-0.64c0.53-0.43,0.82-0.97,0.88-1.61h1.88c-0.04,0.67-0.27,1.3-0.69,1.9
			c-0.42,0.6-0.99,1.08-1.69,1.44c-0.71,0.36-1.45,0.54-2.24,0.54c-1.58,0-2.84-0.53-3.78-1.58c-0.93-1.06-1.4-2.5-1.4-4.33v-0.33
			c0-1.13,0.21-2.14,0.62-3.02c0.42-0.88,1.01-1.56,1.79-2.05c0.78-0.49,1.7-0.73,2.76-0.73c1.3,0,2.39,0.39,3.25,1.17
			c0.86,0.78,1.32,1.79,1.38,3.04h-1.88c-0.06-0.75-0.34-1.37-0.85-1.85c-0.51-0.48-1.14-0.72-1.9-0.72c-1.01,0-1.79,0.36-2.35,1.09
			c-0.56,0.73-0.83,1.78-0.83,3.15v0.38c0,1.34,0.28,2.37,0.83,3.09C210.21,116.57,211,116.93,212.02,116.93z"/>
		<path class="st5" d="M218.35,112.42c0-1.14,0.22-2.16,0.67-3.07c0.45-0.91,1.07-1.61,1.87-2.11c0.8-0.49,1.71-0.74,2.73-0.74
			c1.58,0,2.86,0.55,3.84,1.64s1.47,2.55,1.47,4.37v0.14c0,1.13-0.22,2.15-0.65,3.05c-0.43,0.9-1.05,1.6-1.86,2.1
			s-1.73,0.75-2.78,0.75c-1.58,0-2.85-0.55-3.83-1.64s-1.47-2.55-1.47-4.35V112.42z M220.35,112.66c0,1.29,0.3,2.32,0.9,3.1
			c0.6,0.78,1.4,1.17,2.4,1.17c1.01,0,1.81-0.4,2.41-1.19c0.59-0.79,0.89-1.9,0.89-3.33c0-1.27-0.3-2.31-0.91-3.1
			c-0.61-0.79-1.41-1.19-2.41-1.19c-0.98,0-1.77,0.39-2.37,1.17S220.35,111.2,220.35,112.66z"/>
		<path class="st5" d="M238.19,115.25c0-0.54-0.2-0.95-0.61-1.25c-0.4-0.3-1.11-0.55-2.12-0.77c-1.01-0.21-1.8-0.47-2.4-0.77
			s-1.03-0.66-1.31-1.07c-0.28-0.42-0.42-0.91-0.42-1.48c0-0.95,0.4-1.76,1.21-2.42s1.83-0.99,3.09-0.99c1.32,0,2.39,0.34,3.21,1.02
			c0.82,0.68,1.23,1.55,1.23,2.61h-2c0-0.54-0.23-1.01-0.69-1.41s-1.04-0.59-1.75-0.59c-0.72,0-1.29,0.16-1.7,0.47
			s-0.61,0.73-0.61,1.24c0,0.48,0.19,0.84,0.57,1.08c0.38,0.24,1.06,0.48,2.06,0.7c0.99,0.22,1.8,0.49,2.41,0.79
			c0.62,0.31,1.07,0.68,1.37,1.11c0.3,0.43,0.45,0.96,0.45,1.58c0,1.04-0.42,1.87-1.25,2.5c-0.83,0.63-1.91,0.94-3.23,0.94
			c-0.93,0-1.75-0.17-2.47-0.49c-0.72-0.33-1.28-0.79-1.68-1.38c-0.4-0.59-0.61-1.23-0.61-1.92h1.99c0.04,0.67,0.3,1.19,0.8,1.58
			c0.5,0.39,1.15,0.58,1.97,0.58c0.75,0,1.35-0.15,1.81-0.46C237.96,116.17,238.19,115.76,238.19,115.25z"/>
		<path class="st5" d="M247.73,112.43c0-1.78,0.42-3.22,1.27-4.3c0.84-1.08,1.95-1.63,3.32-1.63c1.36,0,2.44,0.47,3.23,1.4v-6.06
			h1.99v16.5h-1.83l-0.1-1.25c-0.79,0.97-1.9,1.46-3.32,1.46c-1.35,0-2.44-0.55-3.29-1.65s-1.27-2.54-1.27-4.32V112.43z
			 M249.72,112.66c0,1.32,0.27,2.35,0.82,3.09c0.54,0.75,1.3,1.12,2.26,1.12c1.26,0,2.18-0.57,2.76-1.7v-5.34
			c-0.59-1.1-1.51-1.64-2.74-1.64c-0.97,0-1.73,0.38-2.28,1.13C249.99,110.07,249.72,111.18,249.72,112.66z"/>
		<path class="st5" d="M265.44,118.55c-1.58,0-2.86-0.52-3.85-1.55c-0.99-1.03-1.48-2.42-1.48-4.15v-0.37
			c0-1.15,0.22-2.18,0.66-3.09c0.44-0.91,1.06-1.61,1.85-2.13c0.79-0.51,1.65-0.77,2.57-0.77c1.51,0,2.69,0.5,3.52,1.49
			s1.26,2.42,1.26,4.28v0.83h-7.87c0.03,1.15,0.36,2.07,1,2.78c0.64,0.71,1.46,1.06,2.44,1.06c0.7,0,1.3-0.14,1.78-0.43
			c0.49-0.29,0.91-0.67,1.28-1.14l1.21,0.95C268.85,117.8,267.39,118.55,265.44,118.55z M265.2,108.13c-0.8,0-1.48,0.29-2.02,0.88
			c-0.54,0.58-0.88,1.4-1.01,2.46h5.82v-0.15c-0.06-1.01-0.33-1.79-0.82-2.35C266.69,108.41,266.03,108.13,265.2,108.13z"/>
		<path class="st5" d="M279.88,118.34h-1.99v-16.5h1.99V118.34z"/>
		<path class="st5" d="M290.24,118.34c-0.11-0.23-0.21-0.64-0.28-1.22c-0.92,0.96-2.03,1.44-3.31,1.44c-1.15,0-2.09-0.32-2.82-0.97
			c-0.73-0.65-1.1-1.47-1.1-2.46c0-1.21,0.46-2.15,1.38-2.82c0.92-0.67,2.21-1,3.88-1h1.93v-0.91c0-0.69-0.21-1.25-0.62-1.66
			c-0.42-0.41-1.03-0.62-1.84-0.62c-0.71,0-1.3,0.18-1.78,0.54c-0.48,0.36-0.72,0.79-0.72,1.3h-2c0-0.58,0.21-1.14,0.62-1.68
			c0.41-0.54,0.97-0.97,1.68-1.28c0.71-0.32,1.48-0.47,2.33-0.47c1.34,0,2.39,0.33,3.15,1c0.76,0.67,1.15,1.59,1.18,2.77v5.35
			c0,1.07,0.14,1.92,0.41,2.55v0.17H290.24z M286.94,116.82c0.62,0,1.21-0.16,1.77-0.48s0.96-0.74,1.21-1.26v-2.38h-1.56
			c-2.44,0-3.65,0.71-3.65,2.14c0,0.62,0.21,1.11,0.62,1.46C285.75,116.65,286.29,116.82,286.94,116.82z"/>
		<path class="st5" d="M301.8,115.25c0-0.54-0.2-0.95-0.61-1.25c-0.4-0.3-1.11-0.55-2.12-0.77c-1.01-0.21-1.8-0.47-2.4-0.77
			s-1.03-0.66-1.31-1.07c-0.28-0.42-0.42-0.91-0.42-1.48c0-0.95,0.4-1.76,1.21-2.42s1.83-0.99,3.09-0.99c1.32,0,2.39,0.34,3.21,1.02
			c0.82,0.68,1.23,1.55,1.23,2.61h-2c0-0.54-0.23-1.01-0.69-1.41s-1.04-0.59-1.75-0.59c-0.72,0-1.29,0.16-1.7,0.47
			s-0.61,0.73-0.61,1.24c0,0.48,0.19,0.84,0.57,1.08c0.38,0.24,1.06,0.48,2.06,0.7c0.99,0.22,1.79,0.49,2.41,0.79
			c0.62,0.31,1.07,0.68,1.37,1.11c0.3,0.43,0.45,0.96,0.45,1.58c0,1.04-0.42,1.87-1.25,2.5c-0.83,0.63-1.91,0.94-3.23,0.94
			c-0.93,0-1.75-0.17-2.47-0.49c-0.72-0.33-1.28-0.79-1.68-1.38c-0.4-0.59-0.61-1.23-0.61-1.92h1.99c0.04,0.67,0.3,1.19,0.8,1.58
			c0.5,0.39,1.15,0.58,1.97,0.58c0.75,0,1.35-0.15,1.81-0.46C301.57,116.17,301.8,115.76,301.8,115.25z"/>
		<path class="st5" d="M77.34,134.5c-0.3-0.05-0.63-0.08-0.98-0.08c-1.3,0-2.19,0.55-2.65,1.67v8.25h-1.99v-11.62h1.93l0.03,1.34
			c0.65-1.04,1.58-1.56,2.77-1.56c0.39,0,0.68,0.05,0.88,0.15V134.5z"/>
		<path class="st5" d="M83.78,144.55c-1.58,0-2.86-0.52-3.85-1.55c-0.99-1.03-1.48-2.42-1.48-4.15v-0.37c0-1.15,0.22-2.18,0.66-3.09
			c0.44-0.91,1.06-1.61,1.85-2.13c0.79-0.51,1.65-0.77,2.57-0.77c1.51,0,2.69,0.5,3.52,1.49s1.26,2.42,1.26,4.28v0.83h-7.87
			c0.03,1.15,0.36,2.07,1,2.78c0.64,0.71,1.46,1.06,2.44,1.06c0.7,0,1.3-0.14,1.78-0.43c0.49-0.29,0.91-0.67,1.28-1.14l1.21,0.95
			C87.19,143.8,85.73,144.55,83.78,144.55z M83.54,134.13c-0.8,0-1.48,0.29-2.02,0.88c-0.54,0.58-0.88,1.4-1.01,2.46h5.82v-0.15
			c-0.06-1.01-0.33-1.79-0.82-2.35C85.03,134.41,84.37,134.13,83.54,134.13z"/>
		<path class="st5" d="M90.13,138.43c0-1.78,0.42-3.22,1.27-4.3c0.84-1.08,1.95-1.63,3.32-1.63c1.36,0,2.44,0.47,3.23,1.4v-6.06
			h1.99v16.5h-1.83l-0.1-1.25c-0.79,0.97-1.9,1.46-3.32,1.46c-1.35,0-2.44-0.55-3.29-1.65s-1.27-2.54-1.27-4.32V138.43z
			 M92.12,138.66c0,1.32,0.27,2.35,0.82,3.09c0.54,0.75,1.3,1.12,2.26,1.12c1.26,0,2.18-0.57,2.76-1.7v-5.34
			c-0.59-1.1-1.51-1.64-2.74-1.64c-0.97,0-1.73,0.38-2.28,1.13C92.39,136.07,92.12,137.18,92.12,138.66z"/>
		<path class="st5" d="M107.85,144.55c-1.58,0-2.86-0.52-3.85-1.55c-0.99-1.03-1.48-2.42-1.48-4.15v-0.37
			c0-1.15,0.22-2.18,0.66-3.09c0.44-0.91,1.06-1.61,1.85-2.13c0.79-0.51,1.65-0.77,2.57-0.77c1.51,0,2.69,0.5,3.52,1.49
			s1.26,2.42,1.26,4.28v0.83h-7.87c0.03,1.15,0.36,2.07,1,2.78c0.64,0.71,1.46,1.06,2.44,1.06c0.7,0,1.3-0.14,1.78-0.43
			c0.49-0.29,0.91-0.67,1.28-1.14l1.21,0.95C111.25,143.8,109.79,144.55,107.85,144.55z M107.6,134.13c-0.8,0-1.48,0.29-2.02,0.88
			c-0.54,0.58-0.88,1.4-1.01,2.46h5.82v-0.15c-0.06-1.01-0.33-1.79-0.82-2.35C109.09,134.41,108.43,134.13,107.6,134.13z"/>
		<path class="st5" d="M121.45,141.25c0-0.54-0.2-0.95-0.61-1.25c-0.4-0.3-1.11-0.55-2.12-0.77c-1.01-0.21-1.8-0.47-2.4-0.77
			s-1.03-0.66-1.31-1.07c-0.28-0.42-0.42-0.91-0.42-1.48c0-0.95,0.4-1.76,1.21-2.42s1.83-0.99,3.09-0.99c1.32,0,2.39,0.34,3.21,1.02
			c0.82,0.68,1.23,1.55,1.23,2.61h-2c0-0.54-0.23-1.01-0.69-1.41s-1.04-0.59-1.75-0.59c-0.72,0-1.29,0.16-1.7,0.47
			s-0.61,0.73-0.61,1.24c0,0.48,0.19,0.84,0.57,1.08c0.38,0.24,1.06,0.48,2.06,0.7c0.99,0.22,1.8,0.49,2.41,0.79
			c0.62,0.31,1.07,0.68,1.37,1.11c0.3,0.43,0.45,0.96,0.45,1.58c0,1.04-0.42,1.87-1.25,2.5c-0.83,0.63-1.91,0.94-3.23,0.94
			c-0.93,0-1.75-0.17-2.47-0.49c-0.72-0.33-1.28-0.79-1.68-1.38c-0.4-0.59-0.61-1.23-0.61-1.92h1.99c0.04,0.67,0.3,1.19,0.8,1.58
			c0.5,0.39,1.15,0.58,1.97,0.58c0.75,0,1.35-0.15,1.81-0.46C121.22,142.17,121.45,141.76,121.45,141.25z"/>
		<path class="st5" d="M138.24,141.25c0-0.54-0.2-0.95-0.61-1.25c-0.4-0.3-1.11-0.55-2.12-0.77c-1.01-0.21-1.8-0.47-2.4-0.77
			s-1.03-0.66-1.31-1.07c-0.28-0.42-0.42-0.91-0.42-1.48c0-0.95,0.4-1.76,1.21-2.42s1.83-0.99,3.09-0.99c1.32,0,2.39,0.34,3.21,1.02
			c0.82,0.68,1.23,1.55,1.23,2.61h-2c0-0.54-0.23-1.01-0.69-1.41s-1.04-0.59-1.75-0.59c-0.72,0-1.29,0.16-1.7,0.47
			s-0.61,0.73-0.61,1.24c0,0.48,0.19,0.84,0.57,1.08c0.38,0.24,1.06,0.48,2.06,0.7c0.99,0.22,1.8,0.49,2.41,0.79
			c0.62,0.31,1.07,0.68,1.37,1.11c0.3,0.43,0.45,0.96,0.45,1.58c0,1.04-0.42,1.87-1.25,2.5c-0.83,0.63-1.91,0.94-3.23,0.94
			c-0.93,0-1.75-0.17-2.47-0.49c-0.72-0.33-1.28-0.79-1.68-1.38c-0.4-0.59-0.61-1.23-0.61-1.92h1.99c0.04,0.67,0.3,1.19,0.8,1.58
			c0.5,0.39,1.15,0.58,1.97,0.58c0.75,0,1.35-0.15,1.81-0.46C138.01,142.17,138.24,141.76,138.24,141.25z"/>
		<path class="st5" d="M142.29,138.42c0-1.14,0.22-2.16,0.67-3.07c0.45-0.91,1.07-1.61,1.87-2.11c0.8-0.49,1.71-0.74,2.73-0.74
			c1.58,0,2.86,0.55,3.84,1.64s1.47,2.55,1.47,4.37v0.14c0,1.13-0.22,2.15-0.65,3.05c-0.43,0.9-1.05,1.6-1.86,2.1
			s-1.73,0.75-2.78,0.75c-1.58,0-2.85-0.55-3.83-1.64s-1.47-2.55-1.47-4.35V138.42z M144.28,138.66c0,1.29,0.3,2.32,0.9,3.1
			c0.6,0.78,1.4,1.17,2.4,1.17c1.01,0,1.81-0.4,2.41-1.19c0.59-0.79,0.89-1.9,0.89-3.33c0-1.27-0.3-2.31-0.91-3.1
			c-0.61-0.79-1.41-1.19-2.41-1.19c-0.98,0-1.77,0.39-2.37,1.17S144.28,137.2,144.28,138.66z"/>
		<path class="st5" d="M160.02,142.93c0.71,0,1.33-0.21,1.86-0.64c0.53-0.43,0.82-0.97,0.88-1.61h1.88c-0.04,0.67-0.27,1.3-0.69,1.9
			c-0.42,0.6-0.99,1.08-1.69,1.44c-0.71,0.36-1.45,0.54-2.24,0.54c-1.58,0-2.84-0.53-3.78-1.58c-0.93-1.06-1.4-2.5-1.4-4.33v-0.33
			c0-1.13,0.21-2.14,0.62-3.02c0.42-0.88,1.01-1.56,1.79-2.05c0.78-0.49,1.7-0.73,2.76-0.73c1.3,0,2.39,0.39,3.25,1.17
			c0.86,0.78,1.32,1.79,1.38,3.04h-1.88c-0.06-0.75-0.34-1.37-0.85-1.85c-0.51-0.48-1.14-0.72-1.9-0.72c-1.01,0-1.79,0.36-2.35,1.09
			c-0.56,0.73-0.83,1.78-0.83,3.15v0.38c0,1.34,0.28,2.37,0.83,3.09C158.21,142.57,159,142.93,160.02,142.93z"/>
		<path class="st5" d="M166.89,129.63c0-0.32,0.1-0.59,0.3-0.82c0.2-0.22,0.49-0.33,0.88-0.33s0.68,0.11,0.88,0.33
			c0.2,0.22,0.3,0.49,0.3,0.82s-0.1,0.59-0.3,0.81c-0.2,0.21-0.49,0.32-0.88,0.32s-0.68-0.11-0.88-0.32
			C166.98,130.22,166.89,129.95,166.89,129.63z M169.03,144.34h-1.99v-11.62h1.99V144.34z"/>
		<path class="st5" d="M179.39,144.34c-0.11-0.23-0.21-0.64-0.28-1.22c-0.92,0.96-2.03,1.44-3.31,1.44c-1.15,0-2.09-0.32-2.82-0.97
			c-0.73-0.65-1.1-1.47-1.1-2.46c0-1.21,0.46-2.15,1.38-2.82c0.92-0.67,2.21-1,3.88-1h1.93v-0.91c0-0.69-0.21-1.25-0.62-1.66
			c-0.42-0.41-1.03-0.62-1.84-0.62c-0.71,0-1.3,0.18-1.78,0.54c-0.48,0.36-0.72,0.79-0.72,1.3h-2c0-0.58,0.21-1.14,0.62-1.68
			c0.41-0.54,0.97-0.97,1.68-1.28c0.71-0.32,1.48-0.47,2.33-0.47c1.34,0,2.39,0.33,3.15,1c0.76,0.67,1.15,1.59,1.18,2.77v5.35
			c0,1.07,0.14,1.92,0.41,2.55v0.17H179.39z M176.09,142.82c0.62,0,1.21-0.16,1.77-0.48s0.96-0.74,1.21-1.26v-2.38h-1.56
			c-2.44,0-3.65,0.71-3.65,2.14c0,0.62,0.21,1.11,0.62,1.46C174.91,142.65,175.44,142.82,176.09,142.82z"/>
		<path class="st5" d="M186.34,144.34h-1.99v-16.5h1.99V144.34z"/>
		<path class="st5" d="M194.34,144.55c-1.58,0-2.86-0.52-3.85-1.55c-0.99-1.03-1.48-2.42-1.48-4.15v-0.37
			c0-1.15,0.22-2.18,0.66-3.09c0.44-0.91,1.06-1.61,1.85-2.13c0.79-0.51,1.65-0.77,2.57-0.77c1.51,0,2.69,0.5,3.52,1.49
			s1.26,2.42,1.26,4.28v0.83H191c0.03,1.15,0.36,2.07,1,2.78c0.64,0.71,1.46,1.06,2.44,1.06c0.7,0,1.3-0.14,1.78-0.43
			c0.49-0.29,0.91-0.67,1.28-1.14l1.21,0.95C197.75,143.8,196.29,144.55,194.34,144.55z M194.1,134.13c-0.8,0-1.48,0.29-2.02,0.88
			c-0.54,0.58-0.88,1.4-1.01,2.46h5.82v-0.15c-0.06-1.01-0.33-1.79-0.82-2.35C195.58,134.41,194.93,134.13,194.1,134.13z"/>
		<path class="st5" d="M207.94,141.25c0-0.54-0.2-0.95-0.61-1.25c-0.4-0.3-1.11-0.55-2.12-0.77c-1.01-0.21-1.8-0.47-2.4-0.77
			s-1.03-0.66-1.31-1.07c-0.28-0.42-0.42-0.91-0.42-1.48c0-0.95,0.4-1.76,1.21-2.42s1.83-0.99,3.09-0.99c1.32,0,2.39,0.34,3.21,1.02
			c0.82,0.68,1.23,1.55,1.23,2.61h-2c0-0.54-0.23-1.01-0.69-1.41s-1.04-0.59-1.75-0.59c-0.72,0-1.29,0.16-1.7,0.47
			s-0.61,0.73-0.61,1.24c0,0.48,0.19,0.84,0.57,1.08c0.38,0.24,1.06,0.48,2.06,0.7c0.99,0.22,1.8,0.49,2.41,0.79
			c0.62,0.31,1.07,0.68,1.37,1.11c0.3,0.43,0.45,0.96,0.45,1.58c0,1.04-0.42,1.87-1.25,2.5c-0.83,0.63-1.91,0.94-3.23,0.94
			c-0.93,0-1.75-0.17-2.47-0.49c-0.72-0.33-1.28-0.79-1.68-1.38c-0.4-0.59-0.61-1.23-0.61-1.92h1.99c0.04,0.67,0.3,1.19,0.8,1.58
			c0.5,0.39,1.15,0.58,1.97,0.58c0.75,0,1.35-0.15,1.81-0.46C207.71,142.17,207.94,141.76,207.94,141.25z"/>
		<path class="st5" d="M222.79,144.55c-1.58,0-2.86-0.52-3.85-1.55c-0.99-1.03-1.48-2.42-1.48-4.15v-0.37
			c0-1.15,0.22-2.18,0.66-3.09c0.44-0.91,1.06-1.61,1.85-2.13c0.79-0.51,1.65-0.77,2.57-0.77c1.51,0,2.69,0.5,3.52,1.49
			s1.26,2.42,1.26,4.28v0.83h-7.87c0.03,1.15,0.36,2.07,1,2.78c0.64,0.71,1.46,1.06,2.44,1.06c0.7,0,1.3-0.14,1.78-0.43
			c0.49-0.29,0.91-0.67,1.28-1.14l1.21,0.95C226.2,143.8,224.74,144.55,222.79,144.55z M222.54,134.13c-0.8,0-1.48,0.29-2.02,0.88
			c-0.54,0.58-0.88,1.4-1.01,2.46h5.82v-0.15c-0.06-1.01-0.33-1.79-0.82-2.35C224.03,134.41,223.37,134.13,222.54,134.13z"/>
		<path class="st5" d="M231.5,132.71l0.06,1.46c0.89-1.12,2.05-1.68,3.48-1.68c2.46,0,3.7,1.39,3.72,4.16v7.68h-1.99v-7.69
			c-0.01-0.84-0.2-1.46-0.57-1.86s-0.96-0.6-1.76-0.6c-0.64,0-1.21,0.17-1.7,0.52c-0.49,0.34-0.87,0.79-1.14,1.35v8.28h-1.99v-11.62
			H231.5z"/>
		<path class="st5" d="M250.18,128.7l5.11,12.76l5.11-12.76h2.67v15.64h-2.06v-6.09l0.19-6.57l-5.13,12.67h-1.58l-5.12-12.63
			l0.2,6.54v6.09h-2.06V128.7H250.18z"/>
		<path class="st5" d="M265.89,138.42c0-1.14,0.22-2.16,0.67-3.07c0.45-0.91,1.07-1.61,1.87-2.11c0.8-0.49,1.71-0.74,2.73-0.74
			c1.58,0,2.86,0.55,3.84,1.64s1.47,2.55,1.47,4.37v0.14c0,1.13-0.22,2.15-0.65,3.05c-0.43,0.9-1.05,1.6-1.86,2.1
			s-1.73,0.75-2.78,0.75c-1.58,0-2.85-0.55-3.83-1.64s-1.47-2.55-1.47-4.35V138.42z M267.88,138.66c0,1.29,0.3,2.32,0.9,3.1
			c0.6,0.78,1.4,1.17,2.4,1.17c1.01,0,1.81-0.4,2.41-1.19c0.59-0.79,0.89-1.9,0.89-3.33c0-1.27-0.3-2.31-0.91-3.1
			c-0.61-0.79-1.41-1.19-2.41-1.19c-0.98,0-1.77,0.39-2.37,1.17S267.88,137.2,267.88,138.66z"/>
		<path class="st5" d="M278.43,138.42c0-1.14,0.22-2.16,0.67-3.07c0.45-0.91,1.07-1.61,1.87-2.11c0.8-0.49,1.71-0.74,2.73-0.74
			c1.58,0,2.86,0.55,3.84,1.64s1.47,2.55,1.47,4.37v0.14c0,1.13-0.22,2.15-0.65,3.05c-0.43,0.9-1.05,1.6-1.86,2.1
			s-1.73,0.75-2.78,0.75c-1.58,0-2.85-0.55-3.83-1.64s-1.47-2.55-1.47-4.35V138.42z M280.43,138.66c0,1.29,0.3,2.32,0.9,3.1
			c0.6,0.78,1.4,1.17,2.4,1.17c1.01,0,1.81-0.4,2.41-1.19c0.59-0.79,0.89-1.9,0.89-3.33c0-1.27-0.3-2.31-0.91-3.1
			c-0.61-0.79-1.41-1.19-2.41-1.19c-0.98,0-1.77,0.39-2.37,1.17S280.43,137.2,280.43,138.66z"/>
		<path class="st5" d="M291.02,138.43c0-1.78,0.42-3.22,1.27-4.3c0.84-1.08,1.95-1.63,3.32-1.63c1.36,0,2.44,0.47,3.23,1.4v-6.06
			h1.99v16.5H299l-0.1-1.25c-0.79,0.97-1.9,1.46-3.32,1.46c-1.35,0-2.44-0.55-3.29-1.65s-1.27-2.54-1.27-4.32V138.43z
			 M293.01,138.66c0,1.32,0.27,2.35,0.82,3.09c0.54,0.75,1.3,1.12,2.26,1.12c1.26,0,2.18-0.57,2.76-1.7v-5.34
			c-0.59-1.1-1.51-1.64-2.74-1.64c-0.97,0-1.73,0.38-2.28,1.13C293.28,136.07,293.01,137.18,293.01,138.66z"/>
		<path class="st5" d="M306.07,144.34h-1.99v-16.5h1.99V144.34z"/>
		<path class="st5" d="M314.07,144.55c-1.58,0-2.86-0.52-3.85-1.55c-0.99-1.03-1.48-2.42-1.48-4.15v-0.37
			c0-1.15,0.22-2.18,0.66-3.09c0.44-0.91,1.06-1.61,1.85-2.13c0.79-0.51,1.65-0.77,2.57-0.77c1.51,0,2.69,0.5,3.52,1.49
			s1.26,2.42,1.26,4.28v0.83h-7.87c0.03,1.15,0.36,2.07,1,2.78c0.64,0.71,1.46,1.06,2.44,1.06c0.7,0,1.3-0.14,1.78-0.43
			c0.49-0.29,0.91-0.67,1.28-1.14l1.21,0.95C317.48,143.8,316.02,144.55,314.07,144.55z M313.83,134.13c-0.8,0-1.48,0.29-2.02,0.88
			c-0.54,0.58-0.88,1.4-1.01,2.46h5.82v-0.15c-0.06-1.01-0.33-1.79-0.82-2.35C315.32,134.41,314.66,134.13,313.83,134.13z"/>
	</g>
</g>
</svg>
