<?xml version="1.0" encoding="utf-8"?>
<!-- Generator: Adobe Illustrator 25.4.1, SVG Export Plug-In . SVG Version: 6.00 Build 0)  -->
<svg version="1.1" id="Capa_1" xmlns="http://www.w3.org/2000/svg" xmlns:xlink="http://www.w3.org/1999/xlink" x="0px" y="0px"
	 viewBox="0 0 900 150" style="enable-background:new 0 0 900 150;" xml:space="preserve">
<style type="text/css">
	.st0{fill:#04724D;}
	.st1{clip-path:url(#SVGID_00000103264188606259884880000015041114668297735866_);}
	.st2{fill:#F98012;}
	.st3{clip-path:url(#SVGID_00000029021477054086691460000008828887681981879173_);}
	.st4{fill:#FFFFFF;}
</style>
<g>
	<path class="st0" d="M48.29,85.56h-4.25l-1.87,13.04h-5.55l1.9-13.04h-5.81V80.1h6.6l1.33-8.98h-5.94V65.6h6.73l1.94-13.2h5.52
		l-1.94,13.2h4.28l1.94-13.2h5.52l-1.94,13.2h5.68v5.52h-6.47l-1.33,8.98h5.78v5.46h-6.57l-1.9,13.04h-5.55L48.29,85.56z
		 M44.83,80.1h4.28l1.3-8.98h-4.25L44.83,80.1z"/>
	<path class="st0" d="M68.41,98.61V52.4h12.47c3.75,0,7.09,0.94,10.04,2.82c2.95,1.88,5.25,4.51,6.89,7.89
		c1.64,3.38,2.48,7.18,2.52,11.41v1.68c0,4.32-0.81,8.18-2.44,11.58c-1.63,3.41-3.92,6.06-6.87,7.95
		c-2.95,1.89-6.31,2.85-10.08,2.87H68.41z M77.74,60.17v30.69h2.51c3.45,0,6.1-1.24,7.95-3.73c1.85-2.49,2.78-6.19,2.78-11.12V74.8
		c0-4.7-0.88-8.3-2.65-10.81c-1.77-2.51-4.35-3.78-7.76-3.83H77.74z"/>
	<path class="st0" d="M120.27,99.24c-4.61,0-8.21-1.38-10.79-4.13c-2.58-2.75-3.87-6.69-3.87-11.81v-2.73
		c0-5.42,1.18-9.6,3.55-12.54c2.37-2.94,5.77-4.41,10.19-4.41c4.32,0,7.56,1.38,9.74,4.14c2.18,2.76,3.29,6.84,3.33,12.25v4.4
		h-17.87c0.13,2.55,0.69,4.42,1.68,5.59c0.99,1.18,2.53,1.77,4.6,1.77c3,0,5.51-1.03,7.52-3.08l3.52,5.43
		c-1.1,1.52-2.7,2.76-4.79,3.7S122.73,99.24,120.27,99.24z M114.62,78.17h8.98v-0.83c-0.04-2.05-0.38-3.61-1.02-4.67
		c-0.63-1.06-1.74-1.59-3.3-1.59c-1.57,0-2.7,0.56-3.41,1.68C115.17,73.9,114.75,75.69,114.62,78.17z"/>
	<path class="st0" d="M152.71,89.4c0-0.76-0.37-1.46-1.09-2.11c-0.73-0.65-2.35-1.52-4.87-2.62c-3.7-1.5-6.25-3.06-7.63-4.67
		c-1.39-1.61-2.08-3.61-2.08-6c0-3,1.08-5.48,3.25-7.44c2.17-1.96,5.04-2.94,8.62-2.94c3.77,0,6.78,0.97,9.05,2.92
		c2.26,1.95,3.4,4.56,3.4,7.84h-8.98c0-2.79-1.16-4.19-3.49-4.19c-0.95,0-1.74,0.3-2.35,0.89c-0.61,0.59-0.92,1.42-0.92,2.48
		c0,0.76,0.34,1.43,1.02,2.01c0.68,0.58,2.27,1.41,4.79,2.49c3.66,1.35,6.25,2.86,7.76,4.52c1.51,1.66,2.27,3.81,2.27,6.46
		c0,3.07-1.15,5.53-3.46,7.39c-2.31,1.86-5.33,2.79-9.08,2.79c-2.52,0-4.74-0.49-6.67-1.48c-1.93-0.98-3.43-2.35-4.52-4.11
		c-1.09-1.76-1.63-3.65-1.63-5.68h8.54c0.04,1.57,0.41,2.74,1.1,3.52c0.69,0.78,1.81,1.17,3.38,1.17
		C151.5,92.67,152.71,91.58,152.71,89.4z"/>
	<path class="st0" d="M191.33,78.61H176.8v12.25H194v7.74h-26.53V52.4h26.47v7.78H176.8v10.92h14.54V78.61z"/>
	<path class="st0" d="M207.14,64.27l0.25,3.4c2.03-2.69,4.69-4.03,7.97-4.03c5.9,0,8.94,4.14,9.11,12.41v22.57h-9.01v-21.9
		c0-1.95-0.29-3.36-0.87-4.24c-0.58-0.88-1.6-1.32-3.06-1.32c-1.63,0-2.9,0.84-3.81,2.51v24.95h-9.01V64.27H207.14z"/>
	<path class="st0" d="M245.35,81.72h-4.63v16.88h-9.33V52.4h14.89c4.68,0,8.29,1.21,10.84,3.63c2.55,2.42,3.82,5.87,3.82,10.33
		c0,6.14-2.23,10.43-6.7,12.89l8.09,18.92v0.44H252.3L245.35,81.72z M240.72,73.95h5.3c1.86,0,3.26-0.62,4.19-1.86
		c0.93-1.24,1.4-2.89,1.4-4.97c0-4.63-1.81-6.95-5.43-6.95h-5.46V73.95z"/>
	<path class="st0" d="M291.21,78.61h-14.54v12.25h17.2v7.74h-26.53V52.4h26.47v7.78h-17.14v10.92h14.54V78.61z"/>
	<path class="st0" d="M299.31,98.61V52.4h12.47c3.75,0,7.09,0.94,10.04,2.82c2.95,1.88,5.25,4.51,6.89,7.89
		c1.64,3.38,2.48,7.18,2.52,11.41v1.68c0,4.32-0.81,8.18-2.44,11.58c-1.63,3.41-3.92,6.06-6.87,7.95
		c-2.95,1.89-6.31,2.85-10.08,2.87H299.31z M308.64,60.17v30.69h2.51c3.45,0,6.1-1.24,7.95-3.73c1.85-2.49,2.78-6.19,2.78-11.12
		V74.8c0-4.7-0.88-8.3-2.65-10.81c-1.77-2.51-4.35-3.78-7.76-3.83H308.64z"/>
	<path class="st0" d="M353.61,98.61c-0.25-0.53-0.51-1.42-0.76-2.67c-1.61,2.2-3.79,3.3-6.54,3.3c-2.88,0-5.26-0.95-7.16-2.86
		c-1.89-1.9-2.84-4.37-2.84-7.4c0-3.6,1.15-6.38,3.44-8.35s5.6-2.97,9.92-3.01h2.73v-2.76c0-1.54-0.26-2.63-0.79-3.27
		c-0.53-0.63-1.3-0.95-2.32-0.95c-2.24,0-3.36,1.31-3.36,3.94h-8.98c0-3.17,1.19-5.79,3.57-7.86c2.38-2.06,5.39-3.09,9.03-3.09
		c3.77,0,6.68,0.98,8.74,2.94c2.06,1.96,3.09,4.76,3.09,8.4v16.15c0.04,2.96,0.47,5.28,1.27,6.95v0.54H353.61z M348.31,92.2
		c0.99,0,1.84-0.2,2.54-0.6c0.7-0.4,1.22-0.88,1.56-1.43v-7.14h-2.16c-1.52,0-2.72,0.49-3.6,1.46c-0.88,0.97-1.32,2.27-1.32,3.9
		C345.33,90.93,346.32,92.2,348.31,92.2z"/>
	<path class="st0" d="M366.88,81.15c0-5.27,1.09-9.51,3.27-12.71c2.18-3.21,5.07-4.81,8.66-4.81c2.54,0,4.67,0.98,6.38,2.95V49.86
		h8.98v48.75h-7.78l-0.54-3.27c-1.84,2.6-4.21,3.9-7.11,3.9c-3.51,0-6.37-1.62-8.57-4.87C367.98,91.12,366.88,86.72,366.88,81.15z
		 M375.86,81.82c0,3.03,0.46,5.44,1.38,7.24c0.92,1.8,2.21,2.7,3.86,2.7c1.78,0,3.14-0.86,4.09-2.57V73.79
		c-0.97-1.76-2.32-2.63-4.03-2.63c-1.67,0-2.97,0.9-3.9,2.7C376.33,75.65,375.86,78.31,375.86,81.82z"/>
	<path class="st0" d="M399.63,81.12c0-3.36,0.59-6.39,1.78-9.08c1.18-2.69,2.87-4.76,5.05-6.22c2.18-1.46,4.7-2.19,7.55-2.19
		c4.13,0,7.5,1.48,10.12,4.43c2.62,2.95,4.05,6.88,4.28,11.79l0.03,1.94c0,3.41-0.6,6.45-1.79,9.12c-1.2,2.68-2.88,4.73-5.06,6.17
		c-2.18,1.44-4.69,2.16-7.52,2.16c-4.36,0-7.85-1.61-10.49-4.82c-2.63-3.22-3.95-7.5-3.95-12.85V81.12z M408.58,81.79
		c0,3.17,0.48,5.63,1.43,7.38c0.95,1.75,2.31,2.62,4.06,2.62c1.71,0,3.05-0.88,4-2.65s1.43-4.44,1.43-8.01
		c0-3.05-0.48-5.48-1.44-7.3c-0.96-1.82-2.31-2.73-4.05-2.73c-1.71,0-3.05,0.91-4,2.71C409.06,75.61,408.58,78.28,408.58,81.79z"/>
	<path class="st0" d="M449.02,89.4c0-0.76-0.37-1.46-1.09-2.11c-0.73-0.65-2.35-1.52-4.87-2.62c-3.7-1.5-6.25-3.06-7.63-4.67
		c-1.39-1.61-2.08-3.61-2.08-6c0-3,1.08-5.48,3.25-7.44c2.17-1.96,5.04-2.94,8.62-2.94c3.77,0,6.78,0.97,9.05,2.92
		c2.26,1.95,3.4,4.56,3.4,7.84h-8.98c0-2.79-1.16-4.19-3.49-4.19c-0.95,0-1.74,0.3-2.35,0.89c-0.61,0.59-0.92,1.42-0.92,2.48
		c0,0.76,0.34,1.43,1.02,2.01c0.68,0.58,2.27,1.41,4.79,2.49c3.66,1.35,6.25,2.86,7.76,4.52s2.27,3.81,2.27,6.46
		c0,3.07-1.15,5.53-3.46,7.39c-2.31,1.86-5.33,2.79-9.08,2.79c-2.52,0-4.74-0.49-6.67-1.48c-1.93-0.98-3.43-2.35-4.52-4.11
		c-1.09-1.76-1.63-3.65-1.63-5.68h8.54c0.04,1.57,0.41,2.74,1.1,3.52c0.69,0.78,1.81,1.17,3.38,1.17
		C447.81,92.67,449.02,91.58,449.02,89.4z"/>
</g>
<g>
	<defs>
		<rect id="SVGID_1_" x="1" y="-0.93" width="669.16" height="151.87"/>
	</defs>
	<clipPath id="SVGID_00000067212271864342325760000000970490078320744621_">
		<use xlink:href="#SVGID_1_"  style="overflow:visible;"/>
	</clipPath>
	<g style="clip-path:url(#SVGID_00000067212271864342325760000000970490078320744621_);">
		<g>
			<path class="st2" d="M801.89-3.89c-0.61-0.48-1.44-0.5-2.06-0.1l-26.08-31.44c0.03-0.04,0.07-0.07,0.1-0.11
				c0.61-0.78,0.48-1.9-0.3-2.51c-0.52-0.41-1.19-0.48-1.76-0.26l-21.24-38.4c0.13-0.09,0.24-0.2,0.35-0.33
				c0.61-0.78,0.48-1.9-0.3-2.51c-0.78-0.61-1.9-0.48-2.51,0.3c-0.17,0.21-0.27,0.45-0.33,0.69l-31.06-3.23
				c-0.01-0.51-0.25-1.02-0.68-1.36c-0.78-0.61-1.9-0.48-2.51,0.3c-0.13,0.16-0.22,0.34-0.28,0.52l-20.98-4.31
				c0.04-0.57-0.19-1.15-0.68-1.54c-0.36-0.28-0.79-0.4-1.21-0.38l-5.59-29.55c0.32-0.11,0.62-0.31,0.85-0.59
				c0.61-0.78,0.48-1.9-0.3-2.51c-0.65-0.51-1.54-0.5-2.17-0.03l-15.65-16.21c0,0,0.01-0.01,0.01-0.01c0.61-0.78,0.48-1.9-0.3-2.51
				c-0.78-0.61-1.9-0.48-2.51,0.3c-0.33,0.42-0.44,0.93-0.35,1.42l-26.7,8.43c-0.11-0.25-0.29-0.47-0.51-0.65
				c-0.78-0.61-1.9-0.48-2.51,0.3c-0.61,0.78-0.48,1.9,0.3,2.51c0.03,0.02,0.06,0.04,0.09,0.06l-25.95,50.52l-0.17-0.04l0.05,0.28
				l-0.42,0.82l0.5-0.38l6.07,32.87c-0.33,0.11-0.63,0.31-0.86,0.6c-0.47,0.6-0.5,1.4-0.13,2.01l-20.9,16.33
				c-0.05-0.05-0.1-0.09-0.15-0.13c-0.78-0.61-1.9-0.48-2.51,0.3c-0.56,0.71-0.49,1.7,0.11,2.33L522.92,2.52
				c-0.11-0.22-0.27-0.42-0.48-0.58c-0.78-0.61-1.9-0.48-2.51,0.3c-0.61,0.78-0.48,1.9,0.3,2.51c0.3,0.23,0.64,0.36,0.99,0.38
				l3.98,59.52c-0.4,0.08-0.78,0.3-1.06,0.65c-0.25,0.32-0.38,0.7-0.38,1.08l-25.09,2.91c-0.09-0.37-0.3-0.72-0.63-0.97
				c-0.78-0.61-1.9-0.48-2.51,0.3c-0.43,0.54-0.49,1.25-0.22,1.84l-19.55,12.09c-0.08-0.1-0.17-0.19-0.28-0.28
				c-0.78-0.61-1.9-0.48-2.51,0.3c-0.61,0.78-0.48,1.9,0.3,2.51c0.06,0.05,0.12,0.09,0.18,0.12l-16.6,37.9
				c-0.68-0.2-1.44,0.02-1.9,0.61c-0.61,0.78-0.48,1.9,0.3,2.51c0.51,0.4,1.16,0.48,1.72,0.27l10.98,21.03
				c-0.17,0.11-0.32,0.24-0.45,0.41c-0.56,0.71-0.49,1.72,0.13,2.35l-17.01,18.14c-0.03-0.02-0.06-0.05-0.09-0.07
				c-0.78-0.61-1.9-0.48-2.51,0.3c-0.61,0.78-0.48,1.9,0.3,2.51c0.78,0.61,1.9,0.48,2.51-0.3c0.04-0.05,0.07-0.09,0.1-0.14
				l11.44,6.82c-0.32,0.73-0.12,1.6,0.53,2.11c0.78,0.61,1.9,0.48,2.51-0.3c0.39-0.5,0.47-1.13,0.28-1.69l27.07-13.54
				c0.1,0.15,0.23,0.29,0.38,0.41c0.78,0.61,1.9,0.48,2.51-0.3c0.45-0.57,0.49-1.33,0.18-1.94l3.9-3.31l21.61-18.36
				c0.77,0.58,1.87,0.44,2.47-0.33c0.61-0.78,0.48-1.9-0.3-2.51c-0.23-0.18-0.48-0.29-0.74-0.34l2.65-28.34
				c0.5-0.03,0.98-0.26,1.31-0.68c0,0,0,0,0,0l14.16,8.38l20.31-34.02c0.73,0.32,1.6,0.12,2.11-0.53c0.27-0.34,0.39-0.75,0.38-1.15
				l22.34-3.5c0.1,0.35,0.3,0.66,0.61,0.9c0.78,0.61,1.9,0.48,2.51-0.3c0.28-0.36,0.4-0.8,0.38-1.22l36.23-7.19
				c0.11,0.32,0.3,0.61,0.59,0.83c0.78,0.61,1.9,0.48,2.51-0.3c0.61-0.78,0.48-1.9-0.3-2.51c-0.3-0.24-0.66-0.36-1.02-0.38
				l-2.05-24.37c0.39-0.08,0.76-0.3,1.03-0.64c0.53-0.68,0.5-1.63-0.04-2.26l39.37-43.22l-0.17-0.15c0.49,0.38,1.11,0.47,1.66,0.29
				l9.89,20.77c-0.16,0.1-0.31,0.24-0.44,0.4c-0.61,0.78-0.48,1.9,0.3,2.51c0.78,0.61,1.9,0.48,2.51-0.3
				c0.36-0.46,0.46-1.03,0.32-1.55l46.1-18.65c0.11,0.18,0.25,0.34,0.42,0.48c0.57,0.45,1.34,0.49,1.94,0.17l11.79,17.42
				c-0.05,0.05-0.1,0.11-0.15,0.17c-0.61,0.78-0.48,1.9,0.3,2.51c0.78,0.61,1.9,0.48,2.51-0.3c0.33-0.41,0.44-0.93,0.35-1.41
				l56.01-20.92c0.11,0.21,0.27,0.41,0.47,0.57c0.78,0.61,1.9,0.48,2.51-0.3C802.8-2.16,802.66-3.28,801.89-3.89z M799.48-3.71
				c-0.03,0.04-0.07,0.07-0.1,0.11c-0.22,0.28-0.34,0.59-0.37,0.92l-45.65,1.14l18.43-33.46c0.53,0.21,1.13,0.15,1.61-0.15
				L799.48-3.71z M729.32-0.93c-0.03-0.22-0.1-0.43-0.21-0.63l42.09-33.81c0.04,0.04,0.09,0.08,0.13,0.12
				c0.02,0.01,0.03,0.02,0.05,0.03l-18.56,33.7L729.32-0.93z M678.1,17.55l-7.94-42.89c0.33-0.11,0.63-0.31,0.86-0.6
				c0.04-0.05,0.08-0.11,0.11-0.16l18.04,8.2l-10.68,35.46C678.36,17.55,678.23,17.54,678.1,17.55z M466.12,167.04l2.72-16.24
				c0.55,0.02,1.1-0.21,1.47-0.68c0,0,0-0.01,0.01-0.01l22.21,12.52c-0.05,0.17-0.07,0.34-0.06,0.51L466.12,167.04z M493.14,79.55
				l-14.49,40c-0.11-0.02-0.23-0.04-0.34-0.04l-3.52-34.12c0.38-0.09,0.73-0.3,0.99-0.63c0.3-0.38,0.42-0.84,0.37-1.28L493.14,79.55
				z M637.43-127.97c0.13-0.17,0.23-0.35,0.29-0.54l19.04,3.66l-14.55,22.01l-5.57-24.55C636.94-127.51,637.22-127.7,637.43-127.97z
				 M726.5-2.14l-30.68-31.28c0.11-0.13,0.19-0.28,0.25-0.43l35.68,9.44l-4.02,21.94C727.29-2.51,726.86-2.4,726.5-2.14z
				 M623.71,40.19c-0.06,0.07-0.11,0.15-0.15,0.23l-3.13-1.25l-5.73-23.66l9.55,24.22C624.05,39.85,623.86,40,623.71,40.19z
				 M626.58,67.65l-26.82-35.72c0.06-0.05,0.11-0.11,0.16-0.17c0.06-0.07,0.11-0.15,0.15-0.23l19.97,7.99l6.78,28.02
				C626.73,67.56,626.65,67.6,626.58,67.65z M586.83,75.55L568.56,52.7c0.04-0.04,0.08-0.09,0.12-0.14
				c0.09-0.12,0.17-0.25,0.23-0.38l22.82,6.73l-3.8,16.39C587.55,75.26,587.16,75.35,586.83,75.55z M525.72,78.79l0.05-10.62
				c0.45-0.06,0.88-0.28,1.18-0.67c0.06-0.07,0.1-0.15,0.15-0.22l33.06,13.51c-0.01,0.03-0.01,0.07-0.02,0.1L525.72,78.79z
				 M524.38,105.79L509.8,88l-7.59-9.26c0.04-0.04,0.07-0.08,0.1-0.12c0.18-0.23,0.3-0.5,0.35-0.77l22.58,1.38l-0.13,26.31
				C524.87,105.56,524.61,105.65,524.38,105.79z M520.65,139.53l-32.94,6l-8.61-22.65c0.21-0.11,0.4-0.27,0.56-0.47
				c0.05-0.07,0.1-0.14,0.14-0.22l40.82,16.81C520.61,139.17,520.62,139.35,520.65,139.53z M492.84,162.01
				c-0.05,0.06-0.09,0.13-0.13,0.2l-22.16-12.49c0.09-0.2,0.13-0.42,0.14-0.63l16.73-3.04l5.91,15.54
				C493.14,161.69,492.98,161.83,492.84,162.01z M478.67,123.03l8.58,22.57l-16.6,3.02c-0.09-0.39-0.3-0.75-0.64-1.01
				c-0.05-0.04-0.1-0.08-0.15-0.11l8.07-24.45C478.17,123.1,478.43,123.09,478.67,123.03z M479.36,119.89
				c-0.03-0.02-0.06-0.04-0.09-0.06l7.31-14.13l13.72-26.51c0.31,0.11,0.65,0.14,0.97,0.07l10.97,31.71l-32.36,9.59
				C479.78,120.32,479.6,120.08,479.36,119.89z M502.7,77.39c-0.01-0.13-0.03-0.27-0.07-0.4l21.4-9.66
				c0.11,0.17,0.24,0.33,0.41,0.47c0.26,0.2,0.56,0.32,0.87,0.36l-0.05,10.6L502.7,77.39z M591.93-21.54l3.89,34.85l-13.43,0.99
				c-0.08-0.41-0.3-0.79-0.65-1.07c-0.11-0.09-0.23-0.16-0.35-0.21l10.28-34.58C591.76-21.55,591.84-21.54,591.93-21.54z
				 M608.74,4.72l3.8,6.25c-0.09,0.08-0.17,0.16-0.25,0.26c-0.21,0.27-0.33,0.58-0.37,0.9l-15.65,1.15l-3.89-34.87
				c0.1-0.02,0.2-0.06,0.3-0.1L608.74,4.72z M683.1-118.41c0.3,0.24,0.66,0.36,1.02,0.38l2.41,29.88l-43.52-12.55
				c0.04-0.26,0.02-0.52-0.05-0.77l39.72-17.42C682.78-118.71,682.93-118.55,683.1-118.41z M713.8-80.35
				c0.19,0.15,0.41,0.26,0.63,0.32l-3.26,23.52c-0.29,0-0.57,0.06-0.83,0.2L700.31-71.9l13.24-8.69
				C713.62-80.51,713.71-80.43,713.8-80.35z M743.98-22.14c-0.11,0.13-0.19,0.28-0.25,0.43l-11.46-3.03l2.48-13.55
				c0.27,0.01,0.54-0.03,0.78-0.14l8.79,15.96C744.2-22.38,744.08-22.27,743.98-22.14z M668.7-28.58l-12.25-17.74
				c0.02-0.02,0.03-0.04,0.05-0.05c0.08-0.1,0.15-0.22,0.21-0.33l19.39,6.39l-5.89,11.59C669.71-28.9,669.16-28.84,668.7-28.58z
				 M560.51,80.02c-0.08,0.1-0.15,0.21-0.2,0.33l-33.03-13.49c0.07-0.28,0.08-0.56,0.02-0.84l27.33-9.79l6.5,23.3
				C560.89,79.64,560.68,79.81,560.51,80.02z M546.88,26.8c0.08-0.03,0.16-0.07,0.23-0.12l11.17,13.93l7.71,9.61
				c-0.04,0.04-0.08,0.09-0.12,0.13c-0.34,0.44-0.45,0.98-0.34,1.49l-10.59,3.79L546.88,26.8z M595.87,13.77l1.71,15.35
				c-0.18,0.11-0.34,0.25-0.48,0.42c-0.08,0.1-0.14,0.2-0.2,0.31l-14.83-14.17c0.21-0.28,0.32-0.6,0.34-0.93L595.87,13.77z
				 M581.76,16.02l14.99,14.32c-0.03,0.18-0.03,0.37-0.01,0.55l-20.84-2.46l4.38-12.04C580.8,16.49,581.34,16.36,581.76,16.02z
				 M596.87,31.37c0.05,0.1,0.1,0.2,0.17,0.3l-28.41,18.62c-0.07-0.09-0.16-0.17-0.25-0.24c-0.09-0.07-0.18-0.13-0.28-0.18l7.64-21
				L596.87,31.37z M567.66,49.71c-0.45-0.1-0.92-0.02-1.32,0.22l-7.86-9.8l-11.02-13.74c0.04-0.04,0.08-0.09,0.12-0.13
				c0.16-0.2,0.27-0.43,0.33-0.67l27.35,3.23L567.66,49.71z M599.49,29.16c-0.44-0.29-0.98-0.36-1.46-0.23l-1.7-15.19l15.6-1.15
				c0.04,0.31,0.17,0.6,0.37,0.85L599.49,29.16z M691.22-85.17l8.46,13.14l-9.65,6.34c-0.07-0.09-0.16-0.17-0.25-0.24
				c-0.22-0.18-0.47-0.29-0.73-0.34l1.5-18.72C690.77-85.01,691-85.07,691.22-85.17z M709.75-55.83c-0.06,0.08-0.12,0.16-0.16,0.25
				l-19.2-8.45c0.12-0.43,0.08-0.88-0.11-1.28l9.65-6.34l10.04,15.59C709.89-55.99,709.82-55.91,709.75-55.83z M709.42-55.15
				c-0.12,0.5-0.02,1.04,0.29,1.47l-15.23-8.04L709.42-55.15z M654.28-49.06l-14.49-20.63c0.07-0.06,0.14-0.13,0.2-0.21
				c0.16-0.2,0.26-0.42,0.32-0.65l8.86,1.14l5.26,20.27C654.38-49.1,654.33-49.08,654.28-49.06z M656.2-48.87
				c-0.39-0.31-0.87-0.43-1.33-0.37l-5.21-20.09l37.22,4.8c0,0.2,0.04,0.4,0.1,0.6l-30.42,15.46
				C656.47-48.62,656.35-48.76,656.2-48.87z M686.94-64.99l-37.41-4.83l-7.65-29.49c0.22-0.08,0.42-0.21,0.6-0.38l44.64,34.26
				C687.05-65.29,686.98-65.14,686.94-64.99z M641.3-99.19c0.05,0,0.09,0,0.14-0.01l7.61,29.32L640.36-71c0-0.53-0.23-1.05-0.68-1.4
				c-0.22-0.17-0.47-0.28-0.72-0.34l0.65-7.39L641.3-99.19z M639.41-69.42l14.48,20.63c-0.07,0.06-0.14,0.13-0.2,0.21
				c-0.28,0.36-0.41,0.8-0.38,1.23l-10.04,1.41l-4.16-23.36C639.22-69.33,639.31-69.37,639.41-69.42z M653.41-46.89
				c0.11,0.32,0.3,0.61,0.59,0.83c0.16,0.12,0.33,0.21,0.51,0.28l-6.01,27.88c-0.08-0.01-0.15-0.01-0.23,0l-4.91-27.57L653.41-46.89
				z M649.45-17.53c-0.16-0.12-0.32-0.21-0.5-0.28l6.1-27.88c0.1,0,0.2,0,0.3-0.02l6.25,22.65l-11.77,5.92
				C649.72-17.28,649.6-17.42,649.45-17.53z M656.85-47.13c0.06-0.31,0.03-0.63-0.07-0.93l30.42-15.46c0.1,0.15,0.22,0.28,0.37,0.4
				c0.03,0.02,0.06,0.05,0.1,0.07l-11.35,22.34L656.85-47.13z M688.07-62.85c0.23,0.08,0.47,0.11,0.7,0.1l5.07,26.54
				c-0.32,0.11-0.62,0.31-0.85,0.59c-0.08,0.1-0.15,0.22-0.21,0.33l-16.05-5.29L688.07-62.85z M696.2-34.53l36.91-5.13
				c0.09,0.38,0.3,0.73,0.63,0.99c0.17,0.14,0.37,0.23,0.57,0.3l-2.48,13.52l-35.64-9.43C696.19-34.37,696.2-34.45,696.2-34.53z
				 M733.06-40.12l-36.92,5.14c-0.1-0.36-0.3-0.69-0.62-0.93c-0.36-0.28-0.79-0.4-1.21-0.38l-5.07-26.54
				c0.32-0.11,0.62-0.31,0.85-0.59c0.02-0.02,0.04-0.05,0.05-0.07l43.06,22.74C733.11-40.56,733.06-40.34,733.06-40.12z
				 M711.11-52.94c0.51,0.01,1.03-0.2,1.39-0.61l16.02,9.8L711.11-52.94z M713.3-80.98l-13.24,8.69l-8.46-13.13
				c0.09-0.08,0.18-0.16,0.25-0.26c0.13-0.16,0.22-0.34,0.28-0.52l20.98,4.31C713.1-81.58,713.16-81.26,713.3-80.98z M689.35-85.38
				c0.22,0.18,0.47,0.29,0.73,0.34l-1.41,17.64l-1.63-20.13l1.64,0.47C688.59-86.44,688.82-85.79,689.35-85.38z M688.3-66.28
				c-0.33,0.07-0.64,0.23-0.89,0.49l-44.54-34.18l-0.04-0.16c0.02-0.04,0.04-0.08,0.06-0.12l43.69,12.6L688.3-66.28z M637.67-69.46
				c0.31,0.18,0.66,0.27,1,0.25l4.15,23.34l-25.45,3.57c-0.08-0.29-0.23-0.55-0.45-0.78L637.67-69.46z M617.44-41.85l25.46-3.57
				l4.91,27.59c-0.26,0.08-0.51,0.23-0.71,0.43l-29.91-23.52C617.36-41.21,617.44-41.53,617.44-41.85z M579.53,16.04
				c0.1,0.08,0.21,0.14,0.31,0.2l-4.42,12.14l-27.46-3.24c0-0.09-0.01-0.18-0.03-0.27l31.08-9.46
				C579.14,15.64,579.31,15.86,579.53,16.04z M546.44,26.92l8.06,28.87l-27.36,9.8c-0.11-0.22-0.28-0.43-0.49-0.59
				c-0.03-0.03-0.07-0.05-0.11-0.08l19.05-38.08C545.87,26.93,546.16,26.96,546.44,26.92z M561.56,79.38l-6.51-23.3l10.63-3.81
				c0.11,0.22,0.28,0.43,0.48,0.59c0.17,0.14,0.36,0.23,0.56,0.3l-4.78,26.19C561.82,79.34,561.69,79.35,561.56,79.38z
				 M569.03,51.74c0.06-0.36,0-0.73-0.16-1.06l18.9-12.39l9.58-6.28c0.02,0.01,0.03,0.03,0.05,0.04c0.15,0.12,0.31,0.21,0.48,0.27
				l-6.05,26.13L569.03,51.74z M600.24,31.1c0.15-0.57,0-1.19-0.4-1.64l12.8-15.69c0.38,0.28,0.83,0.39,1.26,0.34l6.01,24.86
				L600.24,31.1z M615.13,11.27l23.48-19.16l8.51-6.94c0.04,0.04,0.08,0.07,0.12,0.11c0.77,0.6,1.88,0.48,2.49-0.28l15.49,9.51
				c-0.19,0.34-0.26,0.73-0.21,1.1l-49.76,15.87C615.22,11.4,615.18,11.33,615.13,11.27z M665.5-5.87l-15.52-9.53
				c0.19-0.42,0.2-0.89,0.06-1.32l11.69-5.88l4.49,16.27C665.94-6.24,665.7-6.09,665.5-5.87z M655.79-45.82
				c0.11-0.05,0.22-0.1,0.32-0.17l12.23,17.71c-0.05,0.05-0.09,0.1-0.13,0.15c-0.43,0.55-0.49,1.28-0.21,1.87l-5.99,3.01
				L655.79-45.82z M670.71-28.44c-0.03-0.02-0.06-0.05-0.1-0.07l5.92-11.65l16.12,5.31c-0.04,0.21-0.04,0.42-0.01,0.63l-21.41,6.46
				C671.12-28.02,670.95-28.26,670.71-28.44z M732.19-24.29l11.42,3.02c-0.06,0.5,0.08,1.02,0.43,1.41L728.6-2.14
				c-0.14-0.1-0.28-0.18-0.43-0.23L732.19-24.29z M744.39-19.55c0.77,0.51,1.81,0.36,2.39-0.38c0.41-0.53,0.48-1.21,0.24-1.79
				l22.93-13.24L729.5-2.46L744.39-19.55z M770.79-35.97L746.8-22.12c-0.09-0.12-0.19-0.23-0.31-0.32
				c-0.23-0.18-0.48-0.29-0.75-0.34l1.15-15.96l23.77,2.16C770.66-36.38,770.71-36.17,770.79-35.97z M745.28-22.82
				c-0.19,0.01-0.37,0.05-0.55,0.12l-8.8-15.97c0.11-0.09,0.22-0.19,0.31-0.31c0.17-0.22,0.28-0.46,0.34-0.71l9.84,0.9L745.28-22.82
				z M736.62-40.15c-0.02-0.51-0.25-1-0.68-1.34c-0.08-0.06-0.17-0.12-0.25-0.17l13.37-34.78c0.02,0.01,0.04,0.01,0.06,0.01
				l-2.67,37.16L736.62-40.15z M748.38-76.75c0.08,0.06,0.17,0.12,0.25,0.17l-13.37,34.78c-0.32-0.08-0.66-0.07-0.98,0.04
				l-9.93-20.75l23.74-14.51C748.18-76.94,748.27-76.84,748.38-76.75z M733.87-41.58c-0.14,0.09-0.26,0.2-0.38,0.33l-20.74-12.68
				c0.24-0.48,0.25-1.05,0.03-1.53l11.17-6.83L733.87-41.58z M712.55-55.85c-0.08-0.1-0.18-0.2-0.29-0.28
				c-0.19-0.15-0.41-0.26-0.63-0.32l3.26-23.52c0.19,0,0.39-0.03,0.57-0.09l8.3,17.36L712.55-55.85z M689.05-87.89
				c-0.1,0.12-0.17,0.26-0.23,0.39L687-88.02l-2.22-27.51l5.11,27.04C689.57-88.38,689.27-88.18,689.05-87.89z M682.49-119.31
				l-39.72,17.42c-0.09-0.16-0.22-0.3-0.36-0.43l14.83-22.44l25.18,4.84C682.41-119.72,682.43-119.51,682.49-119.31z M640.84-99.23
				l-2.34,26.45c-0.5,0.02-1,0.25-1.33,0.68c-0.52,0.66-0.5,1.56-0.01,2.19l-8.21-2.1l11.79-27.25
				C640.78-99.25,640.81-99.24,640.84-99.23z M637.08-69.46l-20.51,26.09l12.21-28.21L637.08-69.46z M616.9-40.56l29.91,23.52
				c-0.09,0.15-0.15,0.3-0.19,0.46l-31.55-4.03l0.75-19.45C616.21-40.09,616.6-40.26,616.9-40.56z M646.56-16.13
				c0,0.33,0.09,0.65,0.27,0.94L629.25-0.85l-5.16,4.21l-9.28,7.58c0,0-0.01-0.01-0.01-0.01c-0.28-0.22-0.6-0.34-0.93-0.37
				l1.18-30.7L646.56-16.13z M613.41,10.57c-0.17,0.03-0.33,0.08-0.49,0.15l-3.63-5.97l-16.22-26.69c0.1-0.08,0.2-0.18,0.29-0.29
				c0.16-0.2,0.26-0.42,0.32-0.65l20.9,2.67L613.41,10.57z M591.23-21.69l-10.28,34.57c-0.63-0.11-1.3,0.11-1.72,0.65
				c-0.13,0.17-0.23,0.35-0.29,0.55l-18.58-3.54l30.68-32.33C591.11-21.75,591.17-21.72,591.23-21.69z M578.85,14.53
				c-0.01,0.14,0,0.29,0.03,0.43l-31.07,9.45c-0.06-0.14-0.14-0.27-0.24-0.39l12.42-13.09L578.85,14.53z M547.23,23.71
				c-0.68-0.5-1.61-0.44-2.23,0.1L522.82,4.34c0.09-0.14,0.16-0.29,0.21-0.44l36.42,6.93L547.23,23.71z M522.51,4.69l22.18,19.47
				c-0.52,0.77-0.36,1.82,0.38,2.4c0.03,0.03,0.07,0.05,0.11,0.08l-19.05,38.08c-0.15-0.05-0.31-0.09-0.48-0.1L521.68,5.1
				C521.99,5.04,522.27,4.9,522.51,4.69z M523.84,66.92l-21.4,9.66c-0.11-0.17-0.24-0.33-0.41-0.47c-0.5-0.39-1.14-0.48-1.7-0.28
				l-2.37-4.65c0.15-0.1,0.28-0.22,0.4-0.37c0.25-0.32,0.38-0.7,0.38-1.08l25.09-2.91C523.82,66.86,523.83,66.89,523.84,66.92z
				 M497.54,71.39l2.37,4.65c-0.15,0.1-0.28,0.22-0.4,0.37c-0.3,0.38-0.42,0.84-0.37,1.28l-5.29,1.22l2.7-7.46
				C496.89,71.52,497.23,71.5,497.54,71.39z M499.25,78.14c0.11,0.3,0.3,0.57,0.57,0.78c0.03,0.02,0.06,0.04,0.09,0.06l-20.22,39.07
				l13.99-38.63L499.25,78.14z M477.85,119.56c-0.38,0.09-0.73,0.3-0.99,0.63c-0.27,0.34-0.39,0.75-0.38,1.16l-4.98,0.8l2.91-35.98
				L477.85,119.56z M476.55,121.8c0.1,0.34,0.3,0.66,0.61,0.9c0.1,0.08,0.22,0.15,0.33,0.21l-8.03,24.34l2-24.63L476.55,121.8z
				 M495.56,161.9c-0.06-0.07-0.13-0.14-0.21-0.2c-0.47-0.37-1.07-0.46-1.6-0.31l-5.87-15.44l32.92-5.99
				c0.06,0.11,0.12,0.22,0.2,0.32l-5.98,5.08L495.56,161.9z M521,138.07c-0.11,0.14-0.2,0.3-0.26,0.47l-40.75-16.78
				c0.07-0.24,0.08-0.5,0.04-0.74l32.38-9.6l9.08,26.24C521.3,137.76,521.13,137.9,521,138.07z M501.71,79.11
				c0.05-0.03,0.1-0.05,0.15-0.08l7.67,9.36l14.49,17.69c-0.04,0.04-0.07,0.08-0.11,0.13c-0.33,0.42-0.44,0.93-0.35,1.42
				l-10.87,3.22L501.71,79.11z M526.42,105.91c-0.25-0.2-0.54-0.32-0.84-0.36l0.13-26.29l34.42,2.1c0.03,0.23,0.1,0.45,0.21,0.65
				l-33.7,24.12C526.58,106.04,526.51,105.97,526.42,105.91z M563.02,79.72c-0.19-0.15-0.4-0.25-0.61-0.31l4.78-26.17
				c0.35,0.02,0.71-0.07,1.02-0.26l18.27,22.85c-0.04,0.04-0.08,0.09-0.12,0.14c-0.27,0.34-0.39,0.75-0.38,1.15l-22.34,3.5
				C563.52,80.28,563.32,79.96,563.02,79.72z M588.86,75.67c-0.15-0.12-0.31-0.21-0.48-0.27l3.79-16.37l33.52,9.88
				c-0.02,0.13-0.03,0.27-0.02,0.4l-36.23,7.19C589.34,76.19,589.14,75.89,588.86,75.67z M592.27,58.59l6.06-26.16
				c0.36,0.04,0.73-0.04,1.06-0.22l26.82,35.72c-0.06,0.05-0.11,0.11-0.16,0.17c-0.09,0.12-0.17,0.25-0.23,0.38L592.27,58.59z
				 M620.56,39.72l2.82,1.13c-0.17,0.66,0.05,1.4,0.63,1.85c0.3,0.24,0.66,0.36,1.02,0.38l1.94,23.16L620.56,39.72z M624.68,39.57
				L614.56,13.9c0.2-0.11,0.39-0.27,0.54-0.46c0.36-0.45,0.46-1.03,0.32-1.55l49.71-15.85c0.09,0.21,0.21,0.4,0.38,0.57
				l-39.38,43.22C625.7,39.53,625.17,39.45,624.68,39.57z M666.66-6.42l-4.52-16.39l6.11-3.07c0.08,0.09,0.16,0.17,0.26,0.25
				c0.21,0.17,0.45,0.28,0.7,0.33l-2.35,18.88C666.79-6.42,666.72-6.42,666.66-6.42z M671.32-26.51c0.08-0.27,0.1-0.54,0.05-0.81
				l21.41-6.46c0.11,0.26,0.29,0.49,0.53,0.67c0.12,0.09,0.24,0.17,0.37,0.22l-4.38,14.55L671.32-26.51z M694.12-32.75
				c0.48,0.08,0.97-0.04,1.37-0.34l30.68,31.27c-0.01,0.01-0.01,0.01-0.02,0.02c-0.04,0.05-0.08,0.11-0.11,0.16l-36.31-16.51
				L694.12-32.75z M771.38-38.09c-0.13,0.09-0.24,0.2-0.35,0.33c-0.17,0.22-0.28,0.46-0.34,0.71l-23.78-2.16l2.67-37.17
				c0.19-0.01,0.38-0.05,0.55-0.12L771.38-38.09z M747.7-78.11c0.01,0.23,0.06,0.47,0.15,0.68l-23.7,14.49l-8.28-17.32
				c0.16-0.1,0.31-0.23,0.43-0.39c0.17-0.21,0.27-0.45,0.33-0.69L747.7-78.11z M682.81-120.93c0,0-0.01,0.01-0.01,0.01
				c-0.13,0.17-0.23,0.35-0.29,0.54l-24.99-4.8l7.79-11.79c0.6,0.29,1.32,0.22,1.85-0.17L682.81-120.93z M664.48-137.81
				c0.1,0.22,0.25,0.43,0.45,0.6l-7.9,11.95l-19.22-3.69c0.01-0.14,0-0.28-0.03-0.42L664.48-137.81z M635.42-127.39
				c0.25,0.09,0.51,0.12,0.77,0.1l5.59,24.62c-0.69-0.21-1.46,0-1.94,0.6c-0.46,0.59-0.5,1.37-0.15,1.99L609.85-77.6L635.42-127.39z
				 M639.97-99.72c0.05,0.05,0.11,0.11,0.17,0.16c0.06,0.05,0.12,0.09,0.19,0.13l-11.82,27.32l-18.8-4.8L639.97-99.72z
				 M628.32-71.69l-12.18,28.14c-0.19-0.06-0.39-0.08-0.59-0.07l-6.08-32.89L628.32-71.69z M614.4-40.56
				c0.05,0.05,0.1,0.09,0.15,0.13c0.24,0.19,0.52,0.31,0.81,0.36l-0.74,19.41l-20.86-2.66c0-0.32-0.09-0.63-0.25-0.9L614.4-40.56z
				 M590.02-21.37l-30.19,31.81l-36.71-6.99c0.01-0.17,0-0.33-0.04-0.49L590.02-21.37z M495.56,70.84c0.08,0.1,0.17,0.19,0.28,0.28
				c0.09,0.07,0.19,0.13,0.28,0.18l-2.8,7.74l-17.27,4c-0.01-0.04-0.03-0.08-0.05-0.11L495.56,70.84z M473.88,85.37
				c0.04,0.01,0.08,0.02,0.13,0.03l-2.98,36.82l-12.95,2.07c-0.1-0.34-0.3-0.66-0.61-0.9c-0.06-0.05-0.12-0.09-0.18-0.12
				L473.88,85.37z M457.38,126.26c0.14-0.1,0.27-0.22,0.38-0.36c0.27-0.34,0.39-0.75,0.38-1.16l12.84-2.05L469,147.23
				c-0.21-0.01-0.42,0.02-0.62,0.08L457.38,126.26z M467.8,150.42C467.8,150.42,467.8,150.42,467.8,150.42
				c0.18,0.14,0.38,0.24,0.59,0.3l-2.75,16.39l-14.49,2.15c-0.05-0.18-0.12-0.35-0.23-0.51l17.05-18.18L467.8,150.42z
				 M451.22,169.72l14.34-2.12l-1.48,8.86c-0.55-0.02-1.1,0.21-1.47,0.68l-11.48-6.84C451.19,170.1,451.22,169.91,451.22,169.72z
				 M465.49,177.23c-0.1-0.15-0.23-0.29-0.38-0.41c-0.18-0.14-0.38-0.24-0.58-0.3l1.51-9l26.49-3.92c0.01,0.03,0.02,0.07,0.03,0.1
				L465.49,177.23z M522.3,137.4c-0.14,0.01-0.27,0.03-0.4,0.07l-9.06-26.18l10.86-3.22c0.11,0.25,0.29,0.47,0.51,0.65
				c0.22,0.18,0.48,0.29,0.74,0.34L522.3,137.4z M540.73,116.16l-13.77-8.15c0.21-0.49,0.19-1.05-0.05-1.51l33.72-24.13
				c0.05,0.06,0.11,0.11,0.18,0.16L540.73,116.16z M667.75-3.14c0.16-0.1,0.31-0.24,0.44-0.4c0.61-0.78,0.48-1.9-0.3-2.51
				c-0.18-0.14-0.38-0.24-0.58-0.3l2.36-18.91c0.01,0,0.03,0,0.04,0l7.94,42.89c0,0,0,0-0.01,0L667.75-3.14z M679.75,18.45
				c-0.11-0.2-0.26-0.38-0.45-0.53c-0.12-0.09-0.24-0.17-0.37-0.22l10.66-35.41l36.26,16.48c-0.1,0.34-0.1,0.7-0.01,1.03
				L679.75,18.45z M728.76,0.62c0.07-0.06,0.13-0.13,0.19-0.2c0.21-0.27,0.33-0.57,0.37-0.89l23.25-0.58l-10.45,18.98
				c-0.51-0.21-1.09-0.17-1.57,0.1L728.76,0.62z M743.06,18.83c-0.11-0.25-0.29-0.48-0.52-0.66c-0.01-0.01-0.02-0.01-0.03-0.02
				L753.1-1.07l45.92-1.15c0.01,0.04,0.01,0.09,0.02,0.13L743.06,18.83z"/>
		</g>
	</g>
</g>
<g>
	<defs>
		<polygon id="SVGID_00000133504142198097484790000010692585525785241998_" points="647.17,0.38 482.27,150.38 901,150.38 901,0.38 
					"/>
	</defs>
	<use xlink:href="#SVGID_00000133504142198097484790000010692585525785241998_"  style="overflow:visible;fill:#F98012;"/>
	<clipPath id="SVGID_00000113354777851425375670000016355185571475979675_">
		<use xlink:href="#SVGID_00000133504142198097484790000010692585525785241998_"  style="overflow:visible;"/>
	</clipPath>
	<g style="clip-path:url(#SVGID_00000113354777851425375670000016355185571475979675_);">
		<g>
			<path class="st4" d="M801.89-3.89c-0.61-0.48-1.44-0.5-2.06-0.1l-26.08-31.44c0.03-0.04,0.07-0.07,0.1-0.11
				c0.61-0.78,0.48-1.9-0.3-2.51c-0.52-0.41-1.19-0.48-1.76-0.26l-21.24-38.4c0.13-0.09,0.24-0.2,0.35-0.33
				c0.61-0.78,0.48-1.9-0.3-2.51c-0.78-0.61-1.9-0.48-2.51,0.3c-0.17,0.21-0.27,0.45-0.33,0.69l-31.06-3.23
				c-0.01-0.51-0.25-1.02-0.68-1.36c-0.78-0.61-1.9-0.48-2.51,0.3c-0.13,0.16-0.22,0.34-0.28,0.52l-20.98-4.31
				c0.04-0.57-0.19-1.15-0.68-1.54c-0.36-0.28-0.79-0.4-1.21-0.38l-5.59-29.55c0.32-0.11,0.62-0.31,0.85-0.59
				c0.61-0.78,0.48-1.9-0.3-2.51c-0.65-0.51-1.54-0.5-2.17-0.03l-15.65-16.21c0,0,0.01-0.01,0.01-0.01c0.61-0.78,0.48-1.9-0.3-2.51
				c-0.78-0.61-1.9-0.48-2.51,0.3c-0.33,0.42-0.44,0.93-0.35,1.42l-26.7,8.43c-0.11-0.25-0.29-0.47-0.51-0.65
				c-0.78-0.61-1.9-0.48-2.51,0.3c-0.61,0.78-0.48,1.9,0.3,2.51c0.03,0.02,0.06,0.04,0.09,0.06l-25.95,50.52l-0.17-0.04l0.05,0.28
				l-0.42,0.82l0.5-0.38l6.07,32.87c-0.33,0.11-0.63,0.31-0.86,0.6c-0.47,0.6-0.5,1.4-0.13,2.01l-20.9,16.33
				c-0.05-0.05-0.1-0.09-0.15-0.13c-0.78-0.61-1.9-0.48-2.51,0.3c-0.56,0.71-0.49,1.7,0.11,2.33L522.92,2.52
				c-0.11-0.22-0.27-0.42-0.48-0.58c-0.78-0.61-1.9-0.48-2.51,0.3c-0.61,0.78-0.48,1.9,0.3,2.51c0.3,0.23,0.64,0.36,0.99,0.38
				l3.98,59.52c-0.4,0.08-0.78,0.3-1.06,0.65c-0.25,0.32-0.38,0.7-0.38,1.08l-25.09,2.91c-0.09-0.37-0.3-0.72-0.63-0.97
				c-0.78-0.61-1.9-0.48-2.51,0.3c-0.43,0.54-0.49,1.25-0.22,1.84l-19.55,12.09c-0.08-0.1-0.17-0.19-0.28-0.28
				c-0.78-0.61-1.9-0.48-2.51,0.3c-0.61,0.78-0.48,1.9,0.3,2.51c0.06,0.05,0.12,0.09,0.18,0.12l-16.6,37.9
				c-0.68-0.2-1.44,0.02-1.9,0.61c-0.61,0.78-0.48,1.9,0.3,2.51c0.51,0.4,1.16,0.48,1.72,0.27l10.98,21.03
				c-0.17,0.11-0.32,0.24-0.45,0.41c-0.56,0.71-0.49,1.72,0.13,2.35l-17.01,18.14c-0.03-0.02-0.06-0.05-0.09-0.07
				c-0.78-0.61-1.9-0.48-2.51,0.3c-0.61,0.78-0.48,1.9,0.3,2.51c0.78,0.61,1.9,0.48,2.51-0.3c0.04-0.05,0.07-0.09,0.1-0.14
				l11.44,6.82c-0.32,0.73-0.12,1.6,0.53,2.11c0.78,0.61,1.9,0.48,2.51-0.3c0.39-0.5,0.47-1.13,0.28-1.69l27.07-13.54
				c0.1,0.15,0.23,0.29,0.38,0.41c0.78,0.61,1.9,0.48,2.51-0.3c0.45-0.57,0.49-1.33,0.18-1.94l3.9-3.31l21.61-18.36
				c0.77,0.58,1.87,0.44,2.47-0.33c0.61-0.78,0.48-1.9-0.3-2.51c-0.23-0.18-0.48-0.29-0.74-0.34l2.65-28.34
				c0.5-0.03,0.98-0.26,1.31-0.68c0,0,0,0,0,0l14.16,8.38l20.31-34.02c0.73,0.32,1.6,0.12,2.11-0.53c0.27-0.34,0.39-0.75,0.38-1.15
				l22.34-3.5c0.1,0.35,0.3,0.66,0.61,0.9c0.78,0.61,1.9,0.48,2.51-0.3c0.28-0.36,0.4-0.8,0.38-1.22l36.23-7.19
				c0.11,0.32,0.3,0.61,0.59,0.83c0.78,0.61,1.9,0.48,2.51-0.3c0.61-0.78,0.48-1.9-0.3-2.51c-0.3-0.24-0.66-0.36-1.02-0.38
				l-2.05-24.37c0.39-0.08,0.76-0.3,1.03-0.64c0.53-0.68,0.5-1.63-0.04-2.26l39.37-43.22l-0.17-0.15c0.49,0.38,1.11,0.47,1.66,0.29
				l9.89,20.77c-0.16,0.1-0.31,0.24-0.44,0.4c-0.61,0.78-0.48,1.9,0.3,2.51c0.78,0.61,1.9,0.48,2.51-0.3
				c0.36-0.46,0.46-1.03,0.32-1.55l46.1-18.65c0.11,0.18,0.25,0.34,0.42,0.48c0.57,0.45,1.34,0.49,1.94,0.17l11.79,17.42
				c-0.05,0.05-0.1,0.11-0.15,0.17c-0.61,0.78-0.48,1.9,0.3,2.51c0.78,0.61,1.9,0.48,2.51-0.3c0.33-0.41,0.44-0.93,0.35-1.41
				l56.01-20.92c0.11,0.21,0.27,0.41,0.47,0.57c0.78,0.61,1.9,0.48,2.51-0.3C802.8-2.16,802.66-3.28,801.89-3.89z M799.48-3.71
				c-0.03,0.04-0.07,0.07-0.1,0.11c-0.22,0.28-0.34,0.59-0.37,0.92l-45.65,1.14l18.43-33.46c0.53,0.21,1.13,0.15,1.61-0.15
				L799.48-3.71z M729.32-0.93c-0.03-0.22-0.1-0.43-0.21-0.63l42.09-33.81c0.04,0.04,0.09,0.08,0.13,0.12
				c0.02,0.01,0.03,0.02,0.05,0.03l-18.56,33.7L729.32-0.93z M678.1,17.55l-7.94-42.89c0.33-0.11,0.63-0.31,0.86-0.6
				c0.04-0.05,0.08-0.11,0.11-0.16l18.04,8.2l-10.68,35.46C678.36,17.55,678.23,17.54,678.1,17.55z M466.12,167.04l2.72-16.24
				c0.55,0.02,1.1-0.21,1.47-0.68c0,0,0-0.01,0.01-0.01l22.21,12.52c-0.05,0.17-0.07,0.34-0.06,0.51L466.12,167.04z M493.14,79.55
				l-14.49,40c-0.11-0.02-0.23-0.04-0.34-0.04l-3.52-34.12c0.38-0.09,0.73-0.3,0.99-0.63c0.3-0.38,0.42-0.84,0.37-1.28L493.14,79.55
				z M637.43-127.97c0.13-0.17,0.23-0.35,0.29-0.54l19.04,3.66l-14.55,22.01l-5.57-24.55C636.94-127.51,637.22-127.7,637.43-127.97z
				 M726.5-2.14l-30.68-31.28c0.11-0.13,0.19-0.28,0.25-0.43l35.68,9.44l-4.02,21.94C727.29-2.51,726.86-2.4,726.5-2.14z
				 M623.71,40.19c-0.06,0.07-0.11,0.15-0.15,0.23l-3.13-1.25l-5.73-23.66l9.55,24.22C624.05,39.85,623.86,40,623.71,40.19z
				 M626.58,67.65l-26.82-35.72c0.06-0.05,0.11-0.11,0.16-0.17c0.06-0.07,0.11-0.15,0.15-0.23l19.97,7.99l6.78,28.02
				C626.73,67.56,626.65,67.6,626.58,67.65z M586.83,75.55L568.56,52.7c0.04-0.04,0.08-0.09,0.12-0.14
				c0.09-0.12,0.17-0.25,0.23-0.38l22.82,6.73l-3.8,16.39C587.55,75.26,587.16,75.35,586.83,75.55z M525.72,78.79l0.05-10.62
				c0.45-0.06,0.88-0.28,1.18-0.67c0.06-0.07,0.1-0.15,0.15-0.22l33.06,13.51c-0.01,0.03-0.01,0.07-0.02,0.1L525.72,78.79z
				 M524.38,105.79L509.8,88l-7.59-9.26c0.04-0.04,0.07-0.08,0.1-0.12c0.18-0.23,0.3-0.5,0.35-0.77l22.58,1.38l-0.13,26.31
				C524.87,105.56,524.61,105.65,524.38,105.79z M520.65,139.53l-32.94,6l-8.61-22.65c0.21-0.11,0.4-0.27,0.56-0.47
				c0.05-0.07,0.1-0.14,0.14-0.22l40.82,16.81C520.61,139.17,520.62,139.35,520.65,139.53z M492.84,162.01
				c-0.05,0.06-0.09,0.13-0.13,0.2l-22.16-12.49c0.09-0.2,0.13-0.42,0.14-0.63l16.73-3.04l5.91,15.54
				C493.14,161.69,492.98,161.83,492.84,162.01z M478.67,123.03l8.58,22.57l-16.6,3.02c-0.09-0.39-0.3-0.75-0.64-1.01
				c-0.05-0.04-0.1-0.08-0.15-0.11l8.07-24.45C478.17,123.1,478.43,123.09,478.67,123.03z M479.36,119.89
				c-0.03-0.02-0.06-0.04-0.09-0.06l7.31-14.13l13.72-26.51c0.31,0.11,0.65,0.14,0.97,0.07l10.97,31.71l-32.36,9.59
				C479.78,120.32,479.6,120.08,479.36,119.89z M502.7,77.39c-0.01-0.13-0.03-0.27-0.07-0.4l21.4-9.66
				c0.11,0.17,0.24,0.33,0.41,0.47c0.26,0.2,0.56,0.32,0.87,0.36l-0.05,10.6L502.7,77.39z M591.93-21.54l3.89,34.85l-13.43,0.99
				c-0.08-0.41-0.3-0.79-0.65-1.07c-0.11-0.09-0.23-0.16-0.35-0.21l10.28-34.58C591.76-21.55,591.84-21.54,591.93-21.54z
				 M608.74,4.72l3.8,6.25c-0.09,0.08-0.17,0.16-0.25,0.26c-0.21,0.27-0.33,0.58-0.37,0.9l-15.65,1.15l-3.89-34.87
				c0.1-0.02,0.2-0.06,0.3-0.1L608.74,4.72z M683.1-118.41c0.3,0.24,0.66,0.36,1.02,0.38l2.41,29.88l-43.52-12.55
				c0.04-0.26,0.02-0.52-0.05-0.77l39.72-17.42C682.78-118.71,682.93-118.55,683.1-118.41z M713.8-80.35
				c0.19,0.15,0.41,0.26,0.63,0.32l-3.26,23.52c-0.29,0-0.57,0.06-0.83,0.2L700.31-71.9l13.24-8.69
				C713.62-80.51,713.71-80.43,713.8-80.35z M743.98-22.14c-0.11,0.13-0.19,0.28-0.25,0.43l-11.46-3.03l2.48-13.55
				c0.27,0.01,0.54-0.03,0.78-0.14l8.79,15.96C744.2-22.38,744.08-22.27,743.98-22.14z M668.7-28.58l-12.25-17.74
				c0.02-0.02,0.03-0.04,0.05-0.05c0.08-0.1,0.15-0.22,0.21-0.33l19.39,6.39l-5.89,11.59C669.71-28.9,669.16-28.84,668.7-28.58z
				 M560.51,80.02c-0.08,0.1-0.15,0.21-0.2,0.33l-33.03-13.49c0.07-0.28,0.08-0.56,0.02-0.84l27.33-9.79l6.5,23.3
				C560.89,79.64,560.68,79.81,560.51,80.02z M546.88,26.8c0.08-0.03,0.16-0.07,0.23-0.12l11.17,13.93l7.71,9.61
				c-0.04,0.04-0.08,0.09-0.12,0.13c-0.34,0.44-0.45,0.98-0.34,1.49l-10.59,3.79L546.88,26.8z M595.87,13.77l1.71,15.35
				c-0.18,0.11-0.34,0.25-0.48,0.42c-0.08,0.1-0.14,0.2-0.2,0.31l-14.83-14.17c0.21-0.28,0.32-0.6,0.34-0.93L595.87,13.77z
				 M581.76,16.02l14.99,14.32c-0.03,0.18-0.03,0.37-0.01,0.55l-20.84-2.46l4.38-12.04C580.8,16.49,581.34,16.36,581.76,16.02z
				 M596.87,31.37c0.05,0.1,0.1,0.2,0.17,0.3l-28.41,18.62c-0.07-0.09-0.16-0.17-0.25-0.24c-0.09-0.07-0.18-0.13-0.28-0.18l7.64-21
				L596.87,31.37z M567.66,49.71c-0.45-0.1-0.92-0.02-1.32,0.22l-7.86-9.8l-11.02-13.74c0.04-0.04,0.08-0.09,0.12-0.13
				c0.16-0.2,0.27-0.43,0.33-0.67l27.35,3.23L567.66,49.71z M599.49,29.16c-0.44-0.29-0.98-0.36-1.46-0.23l-1.7-15.19l15.6-1.15
				c0.04,0.31,0.17,0.6,0.37,0.85L599.49,29.16z M691.22-85.17l8.46,13.14l-9.65,6.34c-0.07-0.09-0.16-0.17-0.25-0.24
				c-0.22-0.18-0.47-0.29-0.73-0.34l1.5-18.72C690.77-85.01,691-85.07,691.22-85.17z M709.75-55.83c-0.06,0.08-0.12,0.16-0.16,0.25
				l-19.2-8.45c0.12-0.43,0.08-0.88-0.11-1.28l9.65-6.34l10.04,15.59C709.89-55.99,709.82-55.91,709.75-55.83z M709.42-55.15
				c-0.12,0.5-0.02,1.04,0.29,1.47l-15.23-8.04L709.42-55.15z M654.28-49.06l-14.49-20.63c0.07-0.06,0.14-0.13,0.2-0.21
				c0.16-0.2,0.26-0.42,0.32-0.65l8.86,1.14l5.26,20.27C654.38-49.1,654.33-49.08,654.28-49.06z M656.2-48.87
				c-0.39-0.31-0.87-0.43-1.33-0.37l-5.21-20.09l37.22,4.8c0,0.2,0.04,0.4,0.1,0.6l-30.42,15.46
				C656.47-48.62,656.35-48.76,656.2-48.87z M686.94-64.99l-37.41-4.83l-7.65-29.49c0.22-0.08,0.42-0.21,0.6-0.38l44.64,34.26
				C687.05-65.29,686.98-65.14,686.94-64.99z M641.3-99.19c0.05,0,0.09,0,0.14-0.01l7.61,29.32L640.36-71c0-0.53-0.23-1.05-0.68-1.4
				c-0.22-0.17-0.47-0.28-0.72-0.34l0.65-7.39L641.3-99.19z M639.41-69.42l14.48,20.63c-0.07,0.06-0.14,0.13-0.2,0.21
				c-0.28,0.36-0.41,0.8-0.38,1.23l-10.04,1.41l-4.16-23.36C639.22-69.33,639.31-69.37,639.41-69.42z M653.41-46.89
				c0.11,0.32,0.3,0.61,0.59,0.83c0.16,0.12,0.33,0.21,0.51,0.28l-6.01,27.88c-0.08-0.01-0.15-0.01-0.23,0l-4.91-27.57L653.41-46.89
				z M649.45-17.53c-0.16-0.12-0.32-0.21-0.5-0.28l6.1-27.88c0.1,0,0.2,0,0.3-0.02l6.25,22.65l-11.77,5.92
				C649.72-17.28,649.6-17.42,649.45-17.53z M656.85-47.13c0.06-0.31,0.03-0.63-0.07-0.93l30.42-15.46c0.1,0.15,0.22,0.28,0.37,0.4
				c0.03,0.02,0.06,0.05,0.1,0.07l-11.35,22.34L656.85-47.13z M688.07-62.85c0.23,0.08,0.47,0.11,0.7,0.1l5.07,26.54
				c-0.32,0.11-0.62,0.31-0.85,0.59c-0.08,0.1-0.15,0.22-0.21,0.33l-16.05-5.29L688.07-62.85z M696.2-34.53l36.91-5.13
				c0.09,0.38,0.3,0.73,0.63,0.99c0.17,0.14,0.37,0.23,0.57,0.3l-2.48,13.52l-35.64-9.43C696.19-34.37,696.2-34.45,696.2-34.53z
				 M733.06-40.12l-36.92,5.14c-0.1-0.36-0.3-0.69-0.62-0.93c-0.36-0.28-0.79-0.4-1.21-0.38l-5.07-26.54
				c0.32-0.11,0.62-0.31,0.85-0.59c0.02-0.02,0.04-0.05,0.05-0.07l43.06,22.74C733.11-40.56,733.06-40.34,733.06-40.12z
				 M711.11-52.94c0.51,0.01,1.03-0.2,1.39-0.61l16.02,9.8L711.11-52.94z M713.3-80.98l-13.24,8.69l-8.46-13.13
				c0.09-0.08,0.18-0.16,0.25-0.26c0.13-0.16,0.22-0.34,0.28-0.52l20.98,4.31C713.1-81.58,713.16-81.26,713.3-80.98z M689.35-85.38
				c0.22,0.18,0.47,0.29,0.73,0.34l-1.41,17.64l-1.63-20.13l1.64,0.47C688.59-86.44,688.82-85.79,689.35-85.38z M688.3-66.28
				c-0.33,0.07-0.64,0.23-0.89,0.49l-44.54-34.18l-0.04-0.16c0.02-0.04,0.04-0.08,0.06-0.12l43.69,12.6L688.3-66.28z M637.67-69.46
				c0.31,0.18,0.66,0.27,1,0.25l4.15,23.34l-25.45,3.57c-0.08-0.29-0.23-0.55-0.45-0.78L637.67-69.46z M617.44-41.85l25.46-3.57
				l4.91,27.59c-0.26,0.08-0.51,0.23-0.71,0.43l-29.91-23.52C617.36-41.21,617.44-41.53,617.44-41.85z M579.53,16.04
				c0.1,0.08,0.21,0.14,0.31,0.2l-4.42,12.14l-27.46-3.24c0-0.09-0.01-0.18-0.03-0.27l31.08-9.46
				C579.14,15.64,579.31,15.86,579.53,16.04z M546.44,26.92l8.06,28.87l-27.36,9.8c-0.11-0.22-0.28-0.43-0.49-0.59
				c-0.03-0.03-0.07-0.05-0.11-0.08l19.05-38.08C545.87,26.93,546.16,26.96,546.44,26.92z M561.56,79.38l-6.51-23.3l10.63-3.81
				c0.11,0.22,0.28,0.43,0.48,0.59c0.17,0.14,0.36,0.23,0.56,0.3l-4.78,26.19C561.82,79.34,561.69,79.35,561.56,79.38z
				 M569.03,51.74c0.06-0.36,0-0.73-0.16-1.06l18.9-12.39l9.58-6.28c0.02,0.01,0.03,0.03,0.05,0.04c0.15,0.12,0.31,0.21,0.48,0.27
				l-6.05,26.13L569.03,51.74z M600.24,31.1c0.15-0.57,0-1.19-0.4-1.64l12.8-15.69c0.38,0.28,0.83,0.39,1.26,0.34l6.01,24.86
				L600.24,31.1z M615.13,11.27l23.48-19.16l8.51-6.94c0.04,0.04,0.08,0.07,0.12,0.11c0.77,0.6,1.88,0.48,2.49-0.28l15.49,9.51
				c-0.19,0.34-0.26,0.73-0.21,1.1l-49.76,15.87C615.22,11.4,615.18,11.33,615.13,11.27z M665.5-5.87l-15.52-9.53
				c0.19-0.42,0.2-0.89,0.06-1.32l11.69-5.88l4.49,16.27C665.94-6.24,665.7-6.09,665.5-5.87z M655.79-45.82
				c0.11-0.05,0.22-0.1,0.32-0.17l12.23,17.71c-0.05,0.05-0.09,0.1-0.13,0.15c-0.43,0.55-0.49,1.28-0.21,1.87l-5.99,3.01
				L655.79-45.82z M670.71-28.44c-0.03-0.02-0.06-0.05-0.1-0.07l5.92-11.65l16.12,5.31c-0.04,0.21-0.04,0.42-0.01,0.63l-21.41,6.46
				C671.12-28.02,670.95-28.26,670.71-28.44z M732.19-24.29l11.42,3.02c-0.06,0.5,0.08,1.02,0.43,1.41L728.6-2.14
				c-0.14-0.1-0.28-0.18-0.43-0.23L732.19-24.29z M744.39-19.55c0.77,0.51,1.81,0.36,2.39-0.38c0.41-0.53,0.48-1.21,0.24-1.79
				l22.93-13.24L729.5-2.46L744.39-19.55z M770.79-35.97L746.8-22.12c-0.09-0.12-0.19-0.23-0.31-0.32
				c-0.23-0.18-0.48-0.29-0.75-0.34l1.15-15.96l23.77,2.16C770.66-36.38,770.71-36.17,770.79-35.97z M745.28-22.82
				c-0.19,0.01-0.37,0.05-0.55,0.12l-8.8-15.97c0.11-0.09,0.22-0.19,0.31-0.31c0.17-0.22,0.28-0.46,0.34-0.71l9.84,0.9L745.28-22.82
				z M736.62-40.15c-0.02-0.51-0.25-1-0.68-1.34c-0.08-0.06-0.17-0.12-0.25-0.17l13.37-34.78c0.02,0.01,0.04,0.01,0.06,0.01
				l-2.67,37.16L736.62-40.15z M748.38-76.75c0.08,0.06,0.17,0.12,0.25,0.17l-13.37,34.78c-0.32-0.08-0.66-0.07-0.98,0.04
				l-9.93-20.75l23.74-14.51C748.18-76.94,748.27-76.84,748.38-76.75z M733.87-41.58c-0.14,0.09-0.26,0.2-0.38,0.33l-20.74-12.68
				c0.24-0.48,0.25-1.05,0.03-1.53l11.17-6.83L733.87-41.58z M712.55-55.85c-0.08-0.1-0.18-0.2-0.29-0.28
				c-0.19-0.15-0.41-0.26-0.63-0.32l3.26-23.52c0.19,0,0.39-0.03,0.57-0.09l8.3,17.36L712.55-55.85z M689.05-87.89
				c-0.1,0.12-0.17,0.26-0.23,0.39L687-88.02l-2.22-27.51l5.11,27.04C689.57-88.38,689.27-88.18,689.05-87.89z M682.49-119.31
				l-39.72,17.42c-0.09-0.16-0.22-0.3-0.36-0.43l14.83-22.44l25.18,4.84C682.41-119.72,682.43-119.51,682.49-119.31z M640.84-99.23
				l-2.34,26.45c-0.5,0.02-1,0.25-1.33,0.68c-0.52,0.66-0.5,1.56-0.01,2.19l-8.21-2.1l11.79-27.25
				C640.78-99.25,640.81-99.24,640.84-99.23z M637.08-69.46l-20.51,26.09l12.21-28.21L637.08-69.46z M616.9-40.56l29.91,23.52
				c-0.09,0.15-0.15,0.3-0.19,0.46l-31.55-4.03l0.75-19.45C616.21-40.09,616.6-40.26,616.9-40.56z M646.56-16.13
				c0,0.33,0.09,0.65,0.27,0.94L629.25-0.85l-5.16,4.21l-9.28,7.58c0,0-0.01-0.01-0.01-0.01c-0.28-0.22-0.6-0.34-0.93-0.37
				l1.18-30.7L646.56-16.13z M613.41,10.57c-0.17,0.03-0.33,0.08-0.49,0.15l-3.63-5.97l-16.22-26.69c0.1-0.08,0.2-0.18,0.29-0.29
				c0.16-0.2,0.26-0.42,0.32-0.65l20.9,2.67L613.41,10.57z M591.23-21.69l-10.28,34.57c-0.63-0.11-1.3,0.11-1.72,0.65
				c-0.13,0.17-0.23,0.35-0.29,0.55l-18.58-3.54l30.68-32.33C591.11-21.75,591.17-21.72,591.23-21.69z M578.85,14.53
				c-0.01,0.14,0,0.29,0.03,0.43l-31.07,9.45c-0.06-0.14-0.14-0.27-0.24-0.39l12.42-13.09L578.85,14.53z M547.23,23.71
				c-0.68-0.5-1.61-0.44-2.23,0.1L522.82,4.34c0.09-0.14,0.16-0.29,0.21-0.44l36.42,6.93L547.23,23.71z M522.51,4.69l22.18,19.47
				c-0.52,0.77-0.36,1.82,0.38,2.4c0.03,0.03,0.07,0.05,0.11,0.08l-19.05,38.08c-0.15-0.05-0.31-0.09-0.48-0.1L521.68,5.1
				C521.99,5.04,522.27,4.9,522.51,4.69z M523.84,66.92l-21.4,9.66c-0.11-0.17-0.24-0.33-0.41-0.47c-0.5-0.39-1.14-0.48-1.7-0.28
				l-2.37-4.65c0.15-0.1,0.28-0.22,0.4-0.37c0.25-0.32,0.38-0.7,0.38-1.08l25.09-2.91C523.82,66.86,523.83,66.89,523.84,66.92z
				 M497.54,71.39l2.37,4.65c-0.15,0.1-0.28,0.22-0.4,0.37c-0.3,0.38-0.42,0.84-0.37,1.28l-5.29,1.22l2.7-7.46
				C496.89,71.52,497.23,71.5,497.54,71.39z M499.25,78.14c0.11,0.3,0.3,0.57,0.57,0.78c0.03,0.02,0.06,0.04,0.09,0.06l-20.22,39.07
				l13.99-38.63L499.25,78.14z M477.85,119.56c-0.38,0.09-0.73,0.3-0.99,0.63c-0.27,0.34-0.39,0.75-0.38,1.16l-4.98,0.8l2.91-35.98
				L477.85,119.56z M476.55,121.8c0.1,0.34,0.3,0.66,0.61,0.9c0.1,0.08,0.22,0.15,0.33,0.21l-8.03,24.34l2-24.63L476.55,121.8z
				 M495.56,161.9c-0.06-0.07-0.13-0.14-0.21-0.2c-0.47-0.37-1.07-0.46-1.6-0.31l-5.87-15.44l32.92-5.99
				c0.06,0.11,0.12,0.22,0.2,0.32l-5.98,5.08L495.56,161.9z M521,138.07c-0.11,0.14-0.2,0.3-0.26,0.47l-40.75-16.78
				c0.07-0.24,0.08-0.5,0.04-0.74l32.38-9.6l9.08,26.24C521.3,137.76,521.13,137.9,521,138.07z M501.71,79.11
				c0.05-0.03,0.1-0.05,0.15-0.08l7.67,9.36l14.49,17.69c-0.04,0.04-0.07,0.08-0.11,0.13c-0.33,0.42-0.44,0.93-0.35,1.42
				l-10.87,3.22L501.71,79.11z M526.42,105.91c-0.25-0.2-0.54-0.32-0.84-0.36l0.13-26.29l34.42,2.1c0.03,0.23,0.1,0.45,0.21,0.65
				l-33.7,24.12C526.58,106.04,526.51,105.97,526.42,105.91z M563.02,79.72c-0.19-0.15-0.4-0.25-0.61-0.31l4.78-26.17
				c0.35,0.02,0.71-0.07,1.02-0.26l18.27,22.85c-0.04,0.04-0.08,0.09-0.12,0.14c-0.27,0.34-0.39,0.75-0.38,1.15l-22.34,3.5
				C563.52,80.28,563.32,79.96,563.02,79.72z M588.86,75.67c-0.15-0.12-0.31-0.21-0.48-0.27l3.79-16.37l33.52,9.88
				c-0.02,0.13-0.03,0.27-0.02,0.4l-36.23,7.19C589.34,76.19,589.14,75.89,588.86,75.67z M592.27,58.59l6.06-26.16
				c0.36,0.04,0.73-0.04,1.06-0.22l26.82,35.72c-0.06,0.05-0.11,0.11-0.16,0.17c-0.09,0.12-0.17,0.25-0.23,0.38L592.27,58.59z
				 M620.56,39.72l2.82,1.13c-0.17,0.66,0.05,1.4,0.63,1.85c0.3,0.24,0.66,0.36,1.02,0.38l1.94,23.16L620.56,39.72z M624.68,39.57
				L614.56,13.9c0.2-0.11,0.39-0.27,0.54-0.46c0.36-0.45,0.46-1.03,0.32-1.55l49.71-15.85c0.09,0.21,0.21,0.4,0.38,0.57
				l-39.38,43.22C625.7,39.53,625.17,39.45,624.68,39.57z M666.66-6.42l-4.52-16.39l6.11-3.07c0.08,0.09,0.16,0.17,0.26,0.25
				c0.21,0.17,0.45,0.28,0.7,0.33l-2.35,18.88C666.79-6.42,666.72-6.42,666.66-6.42z M671.32-26.51c0.08-0.27,0.1-0.54,0.05-0.81
				l21.41-6.46c0.11,0.26,0.29,0.49,0.53,0.67c0.12,0.09,0.24,0.17,0.37,0.22l-4.38,14.55L671.32-26.51z M694.12-32.75
				c0.48,0.08,0.97-0.04,1.37-0.34l30.68,31.27c-0.01,0.01-0.01,0.01-0.02,0.02c-0.04,0.05-0.08,0.11-0.11,0.16l-36.31-16.51
				L694.12-32.75z M771.38-38.09c-0.13,0.09-0.24,0.2-0.35,0.33c-0.17,0.22-0.28,0.46-0.34,0.71l-23.78-2.16l2.67-37.17
				c0.19-0.01,0.38-0.05,0.55-0.12L771.38-38.09z M747.7-78.11c0.01,0.23,0.06,0.47,0.15,0.68l-23.7,14.49l-8.28-17.32
				c0.16-0.1,0.31-0.23,0.43-0.39c0.17-0.21,0.27-0.45,0.33-0.69L747.7-78.11z M682.81-120.93c0,0-0.01,0.01-0.01,0.01
				c-0.13,0.17-0.23,0.35-0.29,0.54l-24.99-4.8l7.79-11.79c0.6,0.29,1.32,0.22,1.85-0.17L682.81-120.93z M664.48-137.81
				c0.1,0.22,0.25,0.43,0.45,0.6l-7.9,11.95l-19.22-3.69c0.01-0.14,0-0.28-0.03-0.42L664.48-137.81z M635.42-127.39
				c0.25,0.09,0.51,0.12,0.77,0.1l5.59,24.62c-0.69-0.21-1.46,0-1.94,0.6c-0.46,0.59-0.5,1.37-0.15,1.99L609.85-77.6L635.42-127.39z
				 M639.97-99.72c0.05,0.05,0.11,0.11,0.17,0.16c0.06,0.05,0.12,0.09,0.19,0.13l-11.82,27.32l-18.8-4.8L639.97-99.72z
				 M628.32-71.69l-12.18,28.14c-0.19-0.06-0.39-0.08-0.59-0.07l-6.08-32.89L628.32-71.69z M614.4-40.56
				c0.05,0.05,0.1,0.09,0.15,0.13c0.24,0.19,0.52,0.31,0.81,0.36l-0.74,19.41l-20.86-2.66c0-0.32-0.09-0.63-0.25-0.9L614.4-40.56z
				 M590.02-21.37l-30.19,31.81l-36.71-6.99c0.01-0.17,0-0.33-0.04-0.49L590.02-21.37z M495.56,70.84c0.08,0.1,0.17,0.19,0.28,0.28
				c0.09,0.07,0.19,0.13,0.28,0.18l-2.8,7.74l-17.27,4c-0.01-0.04-0.03-0.08-0.05-0.11L495.56,70.84z M473.88,85.37
				c0.04,0.01,0.08,0.02,0.13,0.03l-2.98,36.82l-12.95,2.07c-0.1-0.34-0.3-0.66-0.61-0.9c-0.06-0.05-0.12-0.09-0.18-0.12
				L473.88,85.37z M457.38,126.26c0.14-0.1,0.27-0.22,0.38-0.36c0.27-0.34,0.39-0.75,0.38-1.16l12.84-2.05L469,147.23
				c-0.21-0.01-0.42,0.02-0.62,0.08L457.38,126.26z M467.8,150.42C467.8,150.42,467.8,150.42,467.8,150.42
				c0.18,0.14,0.38,0.24,0.59,0.3l-2.75,16.39l-14.49,2.15c-0.05-0.18-0.12-0.35-0.23-0.51l17.05-18.18L467.8,150.42z
				 M451.22,169.72l14.34-2.12l-1.48,8.86c-0.55-0.02-1.1,0.21-1.47,0.68l-11.48-6.84C451.19,170.1,451.22,169.91,451.22,169.72z
				 M465.49,177.23c-0.1-0.15-0.23-0.29-0.38-0.41c-0.18-0.14-0.38-0.24-0.58-0.3l1.51-9l26.49-3.92c0.01,0.03,0.02,0.07,0.03,0.1
				L465.49,177.23z M522.3,137.4c-0.14,0.01-0.27,0.03-0.4,0.07l-9.06-26.18l10.86-3.22c0.11,0.25,0.29,0.47,0.51,0.65
				c0.22,0.18,0.48,0.29,0.74,0.34L522.3,137.4z M540.73,116.16l-13.77-8.15c0.21-0.49,0.19-1.05-0.05-1.51l33.72-24.13
				c0.05,0.06,0.11,0.11,0.18,0.16L540.73,116.16z M667.75-3.14c0.16-0.1,0.31-0.24,0.44-0.4c0.61-0.78,0.48-1.9-0.3-2.51
				c-0.18-0.14-0.38-0.24-0.58-0.3l2.36-18.91c0.01,0,0.03,0,0.04,0l7.94,42.89c0,0,0,0-0.01,0L667.75-3.14z M679.75,18.45
				c-0.11-0.2-0.26-0.38-0.45-0.53c-0.12-0.09-0.24-0.17-0.37-0.22l10.66-35.41l36.26,16.48c-0.1,0.34-0.1,0.7-0.01,1.03
				L679.75,18.45z M728.76,0.62c0.07-0.06,0.13-0.13,0.19-0.2c0.21-0.27,0.33-0.57,0.37-0.89l23.25-0.58l-10.45,18.98
				c-0.51-0.21-1.09-0.17-1.57,0.1L728.76,0.62z M743.06,18.83c-0.11-0.25-0.29-0.48-0.52-0.66c-0.01-0.01-0.02-0.01-0.03-0.02
				L753.1-1.07l45.92-1.15c0.01,0.04,0.01,0.09,0.02,0.13L743.06,18.83z"/>
		</g>
	</g>
</g>
<g>
	<path class="st4" d="M659.87,49.4V61c-0.01,1.61-0.51,2.93-1.52,3.95s-2.37,1.6-4.08,1.72l-0.6,0.02c-1.87,0-3.36-0.5-4.46-1.51
		s-1.67-2.39-1.69-4.16V49.4h2.23v11.55c0,1.23,0.34,2.19,1.02,2.88s1.65,1.03,2.91,1.03c1.27,0,2.25-0.34,2.92-1.02
		s1.01-1.64,1.01-2.87V49.4H659.87z"/>
	<path class="st4" d="M670.47,63.09c0-0.59-0.22-1.04-0.66-1.37s-1.21-0.6-2.31-0.84s-1.97-0.52-2.61-0.84s-1.12-0.72-1.43-1.17
		s-0.46-0.99-0.46-1.62c0-1.04,0.44-1.92,1.32-2.64s2-1.08,3.37-1.08c1.44,0,2.6,0.37,3.5,1.11s1.34,1.69,1.34,2.85h-2.18
		c0-0.59-0.25-1.11-0.76-1.54s-1.14-0.64-1.9-0.64c-0.79,0-1.41,0.17-1.85,0.52s-0.67,0.79-0.67,1.35c0,0.52,0.21,0.92,0.62,1.18
		s1.16,0.52,2.24,0.76s1.96,0.53,2.63,0.87s1.17,0.74,1.49,1.21s0.49,1.05,0.49,1.73c0,1.13-0.45,2.04-1.36,2.72
		s-2.08,1.03-3.53,1.03c-1.02,0-1.91-0.18-2.7-0.54s-1.39-0.86-1.83-1.51s-0.66-1.34-0.66-2.09h2.17c0.04,0.73,0.33,1.3,0.87,1.73
		s1.26,0.64,2.15,0.64c0.82,0,1.48-0.17,1.97-0.5S670.47,63.65,670.47,63.09z"/>
	<path class="st4" d="M674.88,60c0-1.24,0.24-2.36,0.73-3.35s1.17-1.76,2.04-2.3s1.87-0.81,2.98-0.81c1.73,0,3.12,0.6,4.19,1.79
		s1.6,2.79,1.6,4.77v0.15c0,1.23-0.24,2.34-0.71,3.32s-1.15,1.74-2.03,2.29s-1.89,0.82-3.03,0.82c-1.72,0-3.11-0.6-4.18-1.79
		s-1.6-2.78-1.6-4.75V60z M677.06,60.26c0,1.41,0.33,2.54,0.98,3.39s1.53,1.28,2.62,1.28c1.1,0,1.98-0.43,2.62-1.29
		s0.97-2.07,0.97-3.63c0-1.39-0.33-2.52-0.99-3.38s-1.54-1.29-2.63-1.29c-1.07,0-1.93,0.43-2.59,1.28S677.06,58.67,677.06,60.26z"/>
	<path class="st4" d="M696.53,63.09c0-0.59-0.22-1.04-0.66-1.37s-1.21-0.6-2.31-0.84s-1.97-0.52-2.61-0.84s-1.12-0.72-1.43-1.17
		s-0.46-0.99-0.46-1.62c0-1.04,0.44-1.92,1.32-2.64s2-1.08,3.37-1.08c1.44,0,2.6,0.37,3.5,1.11s1.34,1.69,1.34,2.85h-2.18
		c0-0.59-0.25-1.11-0.76-1.54s-1.14-0.64-1.9-0.64c-0.79,0-1.41,0.17-1.85,0.52s-0.67,0.79-0.67,1.35c0,0.52,0.21,0.92,0.62,1.18
		s1.16,0.52,2.24,0.76s1.96,0.53,2.63,0.87s1.17,0.74,1.49,1.21s0.49,1.05,0.49,1.73c0,1.13-0.45,2.04-1.36,2.72
		s-2.08,1.03-3.53,1.03c-1.02,0-1.91-0.18-2.7-0.54s-1.39-0.86-1.83-1.51s-0.66-1.34-0.66-2.09h2.17c0.04,0.73,0.33,1.3,0.87,1.73
		s1.26,0.64,2.15,0.64c0.82,0,1.48-0.17,1.97-0.5S696.53,63.65,696.53,63.09z"/>
	<path class="st4" d="M706.93,60.01c0-1.95,0.46-3.51,1.38-4.69s2.13-1.78,3.62-1.78c1.48,0,2.66,0.51,3.53,1.52v-6.61h2.17v18
		h-1.99l-0.11-1.36c-0.87,1.06-2.07,1.59-3.62,1.59c-1.47,0-2.67-0.6-3.59-1.8s-1.39-2.77-1.39-4.71V60.01z M709.1,60.26
		c0,1.44,0.3,2.56,0.89,3.38s1.41,1.22,2.46,1.22c1.38,0,2.38-0.62,3.01-1.85v-5.82c-0.65-1.2-1.64-1.79-2.99-1.79
		c-1.06,0-1.89,0.41-2.48,1.23S709.1,58.65,709.1,60.26z"/>
	<path class="st4" d="M721.01,50.42c0-0.35,0.11-0.65,0.32-0.89s0.53-0.36,0.96-0.36s0.74,0.12,0.96,0.36s0.33,0.54,0.33,0.89
		s-0.11,0.64-0.33,0.88s-0.54,0.35-0.96,0.35s-0.74-0.12-0.96-0.35S721.01,50.77,721.01,50.42z M723.35,66.46h-2.17V53.78h2.17
		V66.46z"/>
	<path class="st4" d="M726.29,60.01c0-1.95,0.46-3.51,1.38-4.69s2.13-1.78,3.62-1.78c1.48,0,2.66,0.51,3.53,1.52v-6.61h2.17v18H735
		l-0.11-1.36c-0.87,1.06-2.07,1.59-3.62,1.59c-1.47,0-2.67-0.6-3.59-1.8s-1.39-2.77-1.39-4.71V60.01z M728.46,60.26
		c0,1.44,0.3,2.56,0.89,3.38s1.41,1.22,2.46,1.22c1.38,0,2.38-0.62,3.01-1.85v-5.82c-0.65-1.2-1.64-1.79-2.99-1.79
		c-1.06,0-1.89,0.41-2.48,1.23S728.46,58.65,728.46,60.26z"/>
	<path class="st4" d="M748.18,66.46c-0.12-0.25-0.23-0.7-0.3-1.34c-1.01,1.05-2.21,1.57-3.61,1.57c-1.25,0-2.28-0.35-3.08-1.06
		s-1.2-1.6-1.2-2.69c0-1.32,0.5-2.35,1.51-3.08s2.42-1.1,4.24-1.1h2.11v-1c0-0.76-0.23-1.36-0.68-1.81s-1.12-0.67-2-0.67
		c-0.77,0-1.42,0.2-1.95,0.59s-0.79,0.86-0.79,1.42h-2.18c0-0.63,0.22-1.24,0.67-1.83s1.06-1.06,1.83-1.4s1.62-0.52,2.54-0.52
		c1.46,0,2.61,0.37,3.43,1.1s1.26,1.74,1.29,3.02v5.84c0,1.16,0.15,2.09,0.45,2.78v0.19H748.18z M744.59,64.81
		c0.68,0,1.32-0.18,1.93-0.53s1.05-0.81,1.32-1.37v-2.6h-1.7c-2.66,0-3.98,0.78-3.98,2.33c0,0.68,0.23,1.21,0.68,1.59
		S743.88,64.81,744.59,64.81z M746.59,48.46h2.62l-3.14,3.45l-1.75-0.01L746.59,48.46z"/>
	<path class="st4" d="M758.5,64.92c0.77,0,1.45-0.23,2.03-0.7s0.9-1.05,0.96-1.76h2.05c-0.04,0.73-0.29,1.42-0.75,2.07
		s-1.08,1.18-1.85,1.57s-1.58,0.59-2.44,0.59c-1.73,0-3.1-0.58-4.12-1.73s-1.53-2.73-1.53-4.73v-0.36c0-1.23,0.23-2.33,0.68-3.29
		s1.1-1.71,1.95-2.24s1.85-0.8,3.01-0.8c1.42,0,2.6,0.43,3.54,1.28s1.44,1.96,1.51,3.32h-2.05c-0.06-0.82-0.37-1.49-0.93-2.02
		s-1.25-0.79-2.07-0.79c-1.1,0-1.96,0.4-2.56,1.19s-0.91,1.94-0.91,3.44v0.41c0,1.46,0.3,2.59,0.9,3.38S757.38,64.92,758.5,64.92z"
		/>
	<path class="st4" d="M768.92,50.71v3.07h2.37v1.68h-2.37v7.87c0,0.51,0.11,0.89,0.32,1.14c0.21,0.25,0.57,0.38,1.08,0.38
		c0.25,0,0.59-0.05,1.03-0.14v1.75c-0.57,0.15-1.12,0.23-1.66,0.23c-0.97,0-1.7-0.29-2.19-0.88s-0.74-1.42-0.74-2.5v-7.86h-2.31
		v-1.68h2.31v-3.07H768.92z"/>
	<path class="st4" d="M773.83,50.42c0-0.35,0.11-0.65,0.32-0.89s0.53-0.36,0.96-0.36s0.74,0.12,0.96,0.36s0.33,0.54,0.33,0.89
		s-0.11,0.64-0.33,0.88s-0.54,0.35-0.96,0.35s-0.74-0.12-0.96-0.35S773.83,50.77,773.83,50.42z M776.17,66.46H774V53.78h2.17V66.46z
		"/>
	<path class="st4" d="M784.72,64.92c0.77,0,1.45-0.23,2.03-0.7s0.9-1.05,0.96-1.76h2.05c-0.04,0.73-0.29,1.42-0.75,2.07
		s-1.08,1.18-1.85,1.57s-1.58,0.59-2.44,0.59c-1.73,0-3.1-0.58-4.12-1.73s-1.53-2.73-1.53-4.73v-0.36c0-1.23,0.23-2.33,0.68-3.29
		s1.1-1.71,1.95-2.24s1.85-0.8,3.01-0.8c1.42,0,2.6,0.43,3.54,1.28s1.44,1.96,1.51,3.32h-2.05c-0.06-0.82-0.37-1.49-0.93-2.02
		s-1.25-0.79-2.07-0.79c-1.1,0-1.96,0.4-2.56,1.19s-0.91,1.94-0.91,3.44v0.41c0,1.46,0.3,2.59,0.9,3.38S783.61,64.92,784.72,64.92z"
		/>
	<path class="st4" d="M791.63,60c0-1.24,0.24-2.36,0.73-3.35s1.17-1.76,2.04-2.3s1.87-0.81,2.98-0.81c1.73,0,3.12,0.6,4.19,1.79
		s1.6,2.79,1.6,4.77v0.15c0,1.23-0.24,2.34-0.71,3.32s-1.15,1.74-2.03,2.29s-1.89,0.82-3.03,0.82c-1.72,0-3.11-0.6-4.18-1.79
		s-1.6-2.78-1.6-4.75V60z M793.81,60.26c0,1.41,0.33,2.54,0.98,3.39s1.53,1.28,2.62,1.28c1.1,0,1.98-0.43,2.62-1.29
		S801,61.56,801,60c0-1.39-0.33-2.52-0.99-3.38s-1.54-1.29-2.63-1.29c-1.07,0-1.93,0.43-2.59,1.28S793.81,58.67,793.81,60.26z"/>
	<path class="st4" d="M813.27,63.09c0-0.59-0.22-1.04-0.66-1.37s-1.21-0.6-2.31-0.84s-1.97-0.52-2.61-0.84s-1.12-0.72-1.43-1.17
		s-0.46-0.99-0.46-1.62c0-1.04,0.44-1.92,1.32-2.64s2-1.08,3.37-1.08c1.44,0,2.6,0.37,3.5,1.11s1.34,1.69,1.34,2.85h-2.18
		c0-0.59-0.25-1.11-0.76-1.54s-1.14-0.64-1.9-0.64c-0.79,0-1.41,0.17-1.85,0.52s-0.67,0.79-0.67,1.35c0,0.52,0.21,0.92,0.62,1.18
		s1.16,0.52,2.24,0.76s1.96,0.53,2.63,0.87s1.17,0.74,1.49,1.21s0.49,1.05,0.49,1.73c0,1.13-0.45,2.04-1.36,2.72
		s-2.08,1.03-3.53,1.03c-1.02,0-1.91-0.18-2.7-0.54s-1.39-0.86-1.83-1.51s-0.66-1.34-0.66-2.09h2.17c0.04,0.73,0.33,1.3,0.87,1.73
		s1.26,0.64,2.15,0.64c0.82,0,1.48-0.17,1.97-0.5S813.27,63.65,813.27,63.09z"/>
	<path class="st4" d="M646.99,86.01c0-1.95,0.46-3.51,1.38-4.69s2.13-1.78,3.62-1.78c1.48,0,2.66,0.51,3.53,1.52v-6.61h2.17v18
		h-1.99l-0.11-1.36c-0.87,1.06-2.07,1.59-3.62,1.59c-1.47,0-2.67-0.6-3.59-1.8s-1.39-2.77-1.39-4.71V86.01z M649.16,86.26
		c0,1.44,0.3,2.56,0.89,3.38s1.41,1.22,2.46,1.22c1.38,0,2.38-0.62,3.01-1.85v-5.82c-0.65-1.2-1.64-1.79-2.99-1.79
		c-1.06,0-1.89,0.41-2.48,1.23S649.16,84.65,649.16,86.26z"/>
	<path class="st4" d="M666.32,92.69c-1.72,0-3.12-0.56-4.2-1.69s-1.62-2.64-1.62-4.53v-0.4c0-1.26,0.24-2.38,0.72-3.37
		s1.15-1.76,2.02-2.32s1.8-0.84,2.81-0.84c1.65,0,2.93,0.54,3.84,1.63s1.37,2.64,1.37,4.66v0.9h-8.59c0.03,1.25,0.4,2.26,1.1,3.03
		s1.59,1.15,2.67,1.15c0.77,0,1.41-0.16,1.95-0.47s1-0.73,1.39-1.24l1.32,1.03C670.04,91.88,668.44,92.69,666.32,92.69z
		 M666.05,81.33c-0.88,0-1.61,0.32-2.2,0.96s-0.96,1.53-1.1,2.68h6.35v-0.16c-0.06-1.1-0.36-1.96-0.89-2.56
		S666.95,81.33,666.05,81.33z"/>
	<path class="st4" d="M682.07,92.46h-2.17v-18h2.17V92.46z"/>
	<path class="st4" d="M693.36,92.46c-0.12-0.25-0.23-0.7-0.3-1.34c-1.01,1.05-2.21,1.57-3.61,1.57c-1.25,0-2.28-0.35-3.08-1.06
		s-1.2-1.6-1.2-2.69c0-1.32,0.5-2.35,1.51-3.08s2.42-1.1,4.24-1.1h2.11v-1c0-0.76-0.23-1.36-0.68-1.81s-1.12-0.67-2-0.67
		c-0.77,0-1.42,0.2-1.95,0.59s-0.79,0.86-0.79,1.42h-2.18c0-0.63,0.22-1.24,0.67-1.83s1.06-1.06,1.83-1.4s1.62-0.52,2.54-0.52
		c1.46,0,2.61,0.37,3.43,1.1s1.26,1.74,1.29,3.02v5.84c0,1.16,0.15,2.09,0.45,2.78v0.19H693.36z M689.77,90.81
		c0.68,0,1.32-0.18,1.93-0.53s1.05-0.81,1.32-1.37v-2.6h-1.7c-2.66,0-3.98,0.78-3.98,2.33c0,0.68,0.23,1.21,0.68,1.59
		S689.06,90.81,689.77,90.81z"/>
	<path class="st4" d="M705.97,89.09c0-0.59-0.22-1.04-0.66-1.37s-1.21-0.6-2.31-0.84s-1.97-0.52-2.61-0.84s-1.12-0.72-1.43-1.17
		s-0.46-0.99-0.46-1.62c0-1.04,0.44-1.92,1.32-2.64s2-1.08,3.37-1.08c1.44,0,2.6,0.37,3.5,1.11s1.34,1.69,1.34,2.85h-2.18
		c0-0.59-0.25-1.11-0.76-1.54s-1.14-0.64-1.9-0.64c-0.79,0-1.41,0.17-1.85,0.52s-0.67,0.79-0.67,1.35c0,0.52,0.21,0.92,0.62,1.18
		s1.16,0.52,2.24,0.76s1.96,0.53,2.63,0.87s1.17,0.74,1.49,1.21s0.49,1.05,0.49,1.73c0,1.13-0.45,2.04-1.36,2.72
		s-2.08,1.03-3.53,1.03c-1.02,0-1.91-0.18-2.7-0.54s-1.39-0.86-1.83-1.51s-0.66-1.34-0.66-2.09h2.17c0.04,0.73,0.33,1.3,0.87,1.73
		s1.26,0.64,2.15,0.64c0.82,0,1.48-0.17,1.97-0.5S705.97,89.65,705.97,89.09z"/>
	<path class="st4" d="M723.04,81.72c-0.33-0.05-0.68-0.08-1.07-0.08c-1.42,0-2.39,0.61-2.89,1.82v9h-2.17V79.78h2.11l0.04,1.46
		c0.71-1.13,1.72-1.7,3.02-1.7c0.42,0,0.74,0.05,0.96,0.16V81.72z"/>
	<path class="st4" d="M730.07,92.69c-1.72,0-3.12-0.56-4.2-1.69s-1.62-2.64-1.62-4.53v-0.4c0-1.26,0.24-2.38,0.72-3.37
		s1.15-1.76,2.02-2.32s1.8-0.84,2.81-0.84c1.65,0,2.93,0.54,3.84,1.63s1.37,2.64,1.37,4.66v0.9h-8.59c0.03,1.25,0.4,2.26,1.1,3.03
		s1.59,1.15,2.67,1.15c0.77,0,1.41-0.16,1.95-0.47s1-0.73,1.39-1.24l1.32,1.03C733.79,91.88,732.19,92.69,730.07,92.69z
		 M729.8,81.33c-0.88,0-1.61,0.32-2.2,0.96s-0.96,1.53-1.1,2.68h6.35v-0.16c-0.06-1.1-0.36-1.96-0.89-2.56S730.7,81.33,729.8,81.33z
		"/>
	<path class="st4" d="M736.99,86.01c0-1.95,0.46-3.51,1.38-4.69s2.13-1.78,3.62-1.78c1.48,0,2.66,0.51,3.53,1.52v-6.61h2.17v18
		h-1.99l-0.11-1.36c-0.87,1.06-2.07,1.59-3.62,1.59c-1.47,0-2.67-0.6-3.59-1.8s-1.39-2.77-1.39-4.71V86.01z M739.16,86.26
		c0,1.44,0.3,2.56,0.89,3.38s1.41,1.22,2.46,1.22c1.38,0,2.38-0.62,3.01-1.85v-5.82c-0.65-1.2-1.64-1.79-2.99-1.79
		c-1.06,0-1.89,0.41-2.48,1.23S739.16,84.65,739.16,86.26z"/>
	<path class="st4" d="M756.32,92.69c-1.72,0-3.12-0.56-4.2-1.69s-1.62-2.64-1.62-4.53v-0.4c0-1.26,0.24-2.38,0.72-3.37
		s1.15-1.76,2.02-2.32s1.8-0.84,2.81-0.84c1.65,0,2.93,0.54,3.84,1.63s1.37,2.64,1.37,4.66v0.9h-8.59c0.03,1.25,0.4,2.26,1.1,3.03
		s1.59,1.15,2.67,1.15c0.77,0,1.41-0.16,1.95-0.47s1-0.73,1.39-1.24l1.32,1.03C760.04,91.88,758.44,92.69,756.32,92.69z
		 M756.05,81.33c-0.88,0-1.61,0.32-2.2,0.96s-0.96,1.53-1.1,2.68h6.35v-0.16c-0.06-1.1-0.36-1.96-0.89-2.56
		S756.95,81.33,756.05,81.33z"/>
	<path class="st4" d="M771.15,89.09c0-0.59-0.22-1.04-0.66-1.37s-1.21-0.6-2.31-0.84s-1.97-0.52-2.61-0.84s-1.12-0.72-1.43-1.17
		s-0.46-0.99-0.46-1.62c0-1.04,0.44-1.92,1.32-2.64s2-1.08,3.37-1.08c1.44,0,2.6,0.37,3.5,1.11s1.34,1.69,1.34,2.85h-2.18
		c0-0.59-0.25-1.11-0.76-1.54s-1.14-0.64-1.9-0.64c-0.79,0-1.41,0.17-1.85,0.52s-0.67,0.79-0.67,1.35c0,0.52,0.21,0.92,0.62,1.18
		s1.16,0.52,2.24,0.76s1.96,0.53,2.63,0.87s1.17,0.74,1.49,1.21s0.49,1.05,0.49,1.73c0,1.13-0.45,2.04-1.36,2.72
		s-2.08,1.03-3.53,1.03c-1.02,0-1.91-0.18-2.7-0.54s-1.39-0.86-1.83-1.51s-0.66-1.34-0.66-2.09h2.17c0.04,0.73,0.33,1.3,0.87,1.73
		s1.26,0.64,2.15,0.64c0.82,0,1.48-0.17,1.97-0.5S771.15,89.65,771.15,89.09z"/>
	<path class="st4" d="M789.47,89.09c0-0.59-0.22-1.04-0.66-1.37s-1.21-0.6-2.31-0.84s-1.97-0.52-2.61-0.84s-1.12-0.72-1.43-1.17
		s-0.46-0.99-0.46-1.62c0-1.04,0.44-1.92,1.32-2.64s2-1.08,3.37-1.08c1.44,0,2.6,0.37,3.5,1.11s1.34,1.69,1.34,2.85h-2.18
		c0-0.59-0.25-1.11-0.76-1.54s-1.14-0.64-1.9-0.64c-0.79,0-1.41,0.17-1.85,0.52s-0.67,0.79-0.67,1.35c0,0.52,0.21,0.92,0.62,1.18
		s1.16,0.52,2.24,0.76s1.96,0.53,2.63,0.87s1.17,0.74,1.49,1.21s0.49,1.05,0.49,1.73c0,1.13-0.45,2.04-1.36,2.72
		s-2.08,1.03-3.53,1.03c-1.02,0-1.91-0.18-2.7-0.54s-1.39-0.86-1.83-1.51s-0.66-1.34-0.66-2.09h2.17c0.04,0.73,0.33,1.3,0.87,1.73
		s1.26,0.64,2.15,0.64c0.82,0,1.48-0.17,1.97-0.5S789.47,89.65,789.47,89.09z"/>
	<path class="st4" d="M793.89,86c0-1.24,0.24-2.36,0.73-3.35s1.17-1.76,2.04-2.3s1.87-0.81,2.98-0.81c1.73,0,3.12,0.6,4.19,1.79
		s1.6,2.79,1.6,4.77v0.15c0,1.23-0.24,2.34-0.71,3.32s-1.15,1.74-2.03,2.29s-1.89,0.82-3.03,0.82c-1.72,0-3.11-0.6-4.18-1.79
		s-1.6-2.78-1.6-4.75V86z M796.07,86.26c0,1.41,0.33,2.54,0.98,3.39s1.53,1.28,2.62,1.28c1.1,0,1.98-0.43,2.62-1.29
		s0.97-2.07,0.97-3.63c0-1.39-0.33-2.52-0.99-3.38s-1.54-1.29-2.63-1.29c-1.07,0-1.93,0.43-2.59,1.28S796.07,84.67,796.07,86.26z"/>
	<path class="st4" d="M813.24,90.92c0.77,0,1.45-0.23,2.03-0.7s0.9-1.05,0.96-1.76h2.05c-0.04,0.73-0.29,1.42-0.75,2.07
		s-1.08,1.18-1.85,1.57s-1.58,0.59-2.44,0.59c-1.73,0-3.1-0.58-4.12-1.73s-1.53-2.73-1.53-4.73v-0.36c0-1.23,0.23-2.33,0.68-3.29
		s1.1-1.71,1.95-2.24s1.85-0.8,3.01-0.8c1.42,0,2.6,0.43,3.54,1.28s1.44,1.96,1.51,3.32h-2.05c-0.06-0.82-0.37-1.49-0.93-2.02
		s-1.25-0.79-2.07-0.79c-1.1,0-1.96,0.4-2.56,1.19s-0.91,1.94-0.91,3.44v0.41c0,1.46,0.3,2.59,0.9,3.38S812.12,90.92,813.24,90.92z"
		/>
	<path class="st4" d="M820.72,76.42c0-0.35,0.11-0.65,0.32-0.89s0.53-0.36,0.96-0.36s0.74,0.12,0.96,0.36s0.33,0.54,0.33,0.89
		s-0.11,0.64-0.33,0.88s-0.54,0.35-0.96,0.35s-0.74-0.12-0.96-0.35S820.72,76.77,820.72,76.42z M823.07,92.46h-2.17V79.78h2.17
		V92.46z"/>
	<path class="st4" d="M834.36,92.46c-0.12-0.25-0.23-0.7-0.3-1.34c-1.01,1.05-2.21,1.57-3.61,1.57c-1.25,0-2.28-0.35-3.08-1.06
		s-1.2-1.6-1.2-2.69c0-1.32,0.5-2.35,1.51-3.08s2.42-1.1,4.24-1.1h2.11v-1c0-0.76-0.23-1.36-0.68-1.81s-1.12-0.67-2-0.67
		c-0.77,0-1.42,0.2-1.95,0.59s-0.79,0.86-0.79,1.42h-2.18c0-0.63,0.22-1.24,0.67-1.83s1.06-1.06,1.83-1.4s1.62-0.52,2.54-0.52
		c1.46,0,2.61,0.37,3.43,1.1s1.26,1.74,1.29,3.02v5.84c0,1.16,0.15,2.09,0.45,2.78v0.19H834.36z M830.77,90.81
		c0.68,0,1.32-0.18,1.93-0.53s1.05-0.81,1.32-1.37v-2.6h-1.7c-2.66,0-3.98,0.78-3.98,2.33c0,0.68,0.23,1.21,0.68,1.59
		S830.06,90.81,830.77,90.81z"/>
	<path class="st4" d="M841.95,92.46h-2.17v-18h2.17V92.46z"/>
	<path class="st4" d="M850.68,92.69c-1.72,0-3.12-0.56-4.2-1.69s-1.62-2.64-1.62-4.53v-0.4c0-1.26,0.24-2.38,0.72-3.37
		s1.15-1.76,2.02-2.32s1.8-0.84,2.81-0.84c1.65,0,2.93,0.54,3.84,1.63s1.37,2.64,1.37,4.66v0.9h-8.59c0.03,1.25,0.4,2.26,1.1,3.03
		s1.59,1.15,2.67,1.15c0.77,0,1.41-0.16,1.95-0.47s1-0.73,1.39-1.24l1.32,1.03C854.4,91.88,852.8,92.69,850.68,92.69z M850.41,81.33
		c-0.88,0-1.61,0.32-2.2,0.96s-0.96,1.53-1.1,2.68h6.35v-0.16c-0.06-1.1-0.36-1.96-0.89-2.56S851.31,81.33,850.41,81.33z"/>
	<path class="st4" d="M865.51,89.09c0-0.59-0.22-1.04-0.66-1.37s-1.21-0.6-2.31-0.84s-1.97-0.52-2.61-0.84s-1.12-0.72-1.43-1.17
		s-0.46-0.99-0.46-1.62c0-1.04,0.44-1.92,1.32-2.64s2-1.08,3.37-1.08c1.44,0,2.6,0.37,3.5,1.11s1.34,1.69,1.34,2.85h-2.18
		c0-0.59-0.25-1.11-0.76-1.54s-1.14-0.64-1.9-0.64c-0.79,0-1.41,0.17-1.85,0.52s-0.67,0.79-0.67,1.35c0,0.52,0.21,0.92,0.62,1.18
		s1.16,0.52,2.24,0.76s1.96,0.53,2.63,0.87s1.17,0.74,1.49,1.21s0.49,1.05,0.49,1.73c0,1.13-0.45,2.04-1.36,2.72
		s-2.08,1.03-3.53,1.03c-1.02,0-1.91-0.18-2.7-0.54s-1.39-0.86-1.83-1.51s-0.66-1.34-0.66-2.09h2.17c0.04,0.73,0.33,1.3,0.87,1.73
		s1.26,0.64,2.15,0.64c0.82,0,1.48-0.17,1.97-0.5S865.51,89.65,865.51,89.09z"/>
	<path class="st4" d="M652.78,118.69c-1.72,0-3.12-0.56-4.2-1.69s-1.62-2.64-1.62-4.53v-0.4c0-1.26,0.24-2.38,0.72-3.37
		s1.15-1.76,2.02-2.32s1.8-0.84,2.81-0.84c1.65,0,2.93,0.54,3.84,1.63s1.37,2.64,1.37,4.66v0.9h-8.59c0.03,1.25,0.4,2.26,1.1,3.03
		s1.59,1.15,2.67,1.15c0.77,0,1.41-0.16,1.95-0.47s1-0.73,1.39-1.24l1.32,1.03C656.5,117.88,654.91,118.69,652.78,118.69z
		 M652.51,107.33c-0.88,0-1.61,0.32-2.2,0.96s-0.96,1.53-1.1,2.68h6.35v-0.16c-0.06-1.1-0.36-1.96-0.89-2.56
		S653.42,107.33,652.51,107.33z"/>
	<path class="st4" d="M662.29,105.78l0.07,1.59c0.97-1.22,2.23-1.83,3.8-1.83c2.68,0,4.03,1.51,4.05,4.54v8.38h-2.17v-8.39
		c-0.01-0.91-0.22-1.59-0.63-2.03s-1.05-0.66-1.92-0.66c-0.7,0-1.32,0.19-1.85,0.56s-0.95,0.87-1.24,1.48v9.04h-2.17v-12.68H662.29z
		"/>
	<path class="st4" d="M682.67,101.4l5.58,13.92l5.58-13.92h2.92v17.06h-2.25v-6.64l0.21-7.17l-5.6,13.82h-1.72l-5.59-13.78
		l0.22,7.14v6.64h-2.25V101.4H682.67z"/>
	<path class="st4" d="M699.8,112c0-1.24,0.24-2.36,0.73-3.35s1.17-1.76,2.04-2.3s1.87-0.81,2.98-0.81c1.73,0,3.12,0.6,4.19,1.79
		s1.6,2.79,1.6,4.77v0.15c0,1.23-0.24,2.34-0.71,3.32s-1.15,1.74-2.03,2.29s-1.89,0.82-3.03,0.82c-1.72,0-3.11-0.6-4.18-1.79
		s-1.6-2.78-1.6-4.75V112z M701.98,112.26c0,1.41,0.33,2.54,0.98,3.39s1.53,1.28,2.62,1.28c1.1,0,1.98-0.43,2.62-1.29
		s0.97-2.07,0.97-3.63c0-1.39-0.33-2.52-0.99-3.38s-1.54-1.29-2.63-1.29c-1.07,0-1.93,0.43-2.59,1.28S701.98,110.67,701.98,112.26z"
		/>
	<path class="st4" d="M713.49,112c0-1.24,0.24-2.36,0.73-3.35s1.17-1.76,2.04-2.3s1.87-0.81,2.98-0.81c1.73,0,3.12,0.6,4.19,1.79
		s1.6,2.79,1.6,4.77v0.15c0,1.23-0.24,2.34-0.71,3.32s-1.15,1.74-2.03,2.29s-1.89,0.82-3.03,0.82c-1.72,0-3.11-0.6-4.18-1.79
		s-1.6-2.78-1.6-4.75V112z M715.67,112.26c0,1.41,0.33,2.54,0.98,3.39s1.53,1.28,2.62,1.28c1.1,0,1.98-0.43,2.62-1.29
		s0.97-2.07,0.97-3.63c0-1.39-0.33-2.52-0.99-3.38s-1.54-1.29-2.63-1.29c-1.07,0-1.93,0.43-2.59,1.28S715.67,110.67,715.67,112.26z"
		/>
	<path class="st4" d="M727.22,112.01c0-1.95,0.46-3.51,1.38-4.69s2.13-1.78,3.62-1.78c1.48,0,2.66,0.51,3.53,1.52v-6.61h2.17v18
		h-1.99l-0.11-1.36c-0.87,1.06-2.07,1.59-3.62,1.59c-1.47,0-2.67-0.6-3.59-1.8s-1.39-2.77-1.39-4.71V112.01z M729.39,112.26
		c0,1.44,0.3,2.56,0.89,3.38s1.41,1.22,2.46,1.22c1.38,0,2.38-0.62,3.01-1.85v-5.82c-0.65-1.2-1.64-1.79-2.99-1.79
		c-1.06,0-1.89,0.41-2.48,1.23S729.39,110.65,729.39,112.26z"/>
	<path class="st4" d="M743.64,118.46h-2.17v-18h2.17V118.46z"/>
	<path class="st4" d="M752.37,118.69c-1.72,0-3.12-0.56-4.2-1.69s-1.62-2.64-1.62-4.53v-0.4c0-1.26,0.24-2.38,0.72-3.37
		s1.15-1.76,2.02-2.32s1.8-0.84,2.81-0.84c1.65,0,2.93,0.54,3.84,1.63s1.37,2.64,1.37,4.66v0.9h-8.59c0.03,1.25,0.4,2.26,1.1,3.03
		s1.59,1.15,2.67,1.15c0.77,0,1.41-0.16,1.95-0.47s1-0.73,1.39-1.24l1.32,1.03C756.09,117.88,754.49,118.69,752.37,118.69z
		 M752.1,107.33c-0.88,0-1.61,0.32-2.2,0.96s-0.96,1.53-1.1,2.68h6.35v-0.16c-0.06-1.1-0.36-1.96-0.89-2.56S753,107.33,752.1,107.33
		z"/>
</g>
</svg>
