<?xml version="1.0" encoding="utf-8"?>
<!-- Generator: Adobe Illustrator 25.0.0, SVG Export Plug-In . SVG Version: 6.00 Build 0)  -->
<svg version="1.1" id="Capa_1" xmlns="http://www.w3.org/2000/svg" xmlns:xlink="http://www.w3.org/1999/xlink" x="0px" y="0px"
	 viewBox="0 0 365.4 247.6" style="enable-background:new 0 0 365.4 247.6;" xml:space="preserve">
<style type="text/css">
	.st0{fill:#0F3F76;}
</style>
<polygon class="st0" points="253.7,119.4 254.8,119.4 254.8,131.4 253.6,131.4 253.6,120.7 251.6,122.4 251,121.7 "/>
<path class="st0" d="M268.1,123.3c0.2-1.4-0.8-2.8-2.2-3c-0.1,0-0.3,0-0.4,0c-1.5,0-2.7,1.1-2.7,2.6c0,0.1,0,0.2,0,0.3
	c0,1.7,0.9,2.8,2.5,2.8c1.4,0.1,2.6-0.9,2.7-2.3C268,123.5,268,123.4,268.1,123.3 M269.3,125c0,3.6-1.3,6.6-5.4,6.6
	c-0.7,0-1.3-0.1-1.9-0.3l0.1-1.1c0.6,0.3,1.3,0.4,2,0.4c3.1,0,4.1-2.6,4.1-5l0,0c-0.6,1-1.7,1.5-2.8,1.5c-1.9,0.2-3.6-1.3-3.7-3.2
	c0-0.2,0-0.4,0-0.6c-0.1-2,1.4-3.8,3.5-3.9c0.2,0,0.3,0,0.5,0C268.7,119.3,269.4,122.2,269.3,125"/>
<path class="st0" d="M281.4,120.4h-4.9l-0.1,3.9c0.6-0.2,1.2-0.3,1.8-0.3c1.9-0.2,3.5,1.1,3.8,3c0,0.2,0,0.4,0,0.6
	c0,2.6-1.8,3.9-4.4,3.9c-0.9,0-1.7-0.1-2.6-0.4v-1.2c0.8,0.4,1.7,0.6,2.6,0.6c1.6,0.2,3-0.9,3.2-2.5c0-0.1,0-0.1,0-0.2
	c0-1.9-1-2.7-3-2.7c-0.9,0-1.8,0.1-2.6,0.4l0.1-6h6.1L281.4,120.4z"/>
<polygon class="st0" points="294.3,120.4 288.2,120.4 288.2,119.4 295.5,119.4 295.5,120.4 290.8,131.4 289.5,131.4 "/>
<rect x="302.9" y="126.2" class="st0" width="4.3" height="1.2"/>
<path class="st0" d="M317.3,130.4l2.7-3c1.4-1.6,2.9-3.4,2.9-4.9c0.1-1.1-0.8-2.1-2-2.2c0,0-0.1,0-0.1,0c-1,0-2,0.3-2.9,0.9
	l-0.2-1.1c0.9-0.5,2-0.8,3-0.8c1.7-0.2,3.2,1,3.5,2.6c0,0.2,0,0.4,0,0.5c0,1.8-1.8,3.9-3.3,5.6l-2.2,2.4h5.8v1h-7.2L317.3,130.4z"/>
<path class="st0" d="M332.1,125.4c0,2,0.3,5.1,2.8,5.1c2.5,0,2.7-3.1,2.7-5.1s-0.3-5.1-2.7-5.1C332.4,120.3,332.1,123.4,332.1,125.4
	 M338.8,125.4c0,2.5-0.5,6.1-3.9,6.1s-3.9-3.6-3.9-6.1c0-2.8,0.7-6.1,3.9-6.1C338,119.3,338.8,122.6,338.8,125.4"/>
<path class="st0" d="M344.6,130.4l2.8-3c1.4-1.6,2.9-3.4,2.9-4.9c0-1.2-0.9-2.1-2-2.2c0,0-0.1,0-0.1,0c-1,0-2,0.3-2.9,0.9l-0.2-1.1
	c0.9-0.5,2-0.8,3-0.8c1.7-0.2,3.2,1,3.5,2.6c0,0.2,0,0.4,0,0.5c0,1.8-1.8,3.9-3.3,5.6l-2.1,2.4h5.7v1h-7.2L344.6,130.4z"/>
<path class="st0" d="M358.2,130.4l2.8-3c1.4-1.6,2.9-3.4,2.9-4.9c0-1.2-0.9-2.1-2-2.2c0,0-0.1,0-0.1,0c-1,0-2,0.3-2.9,0.9l-0.2-1.1
	c0.9-0.5,2-0.8,3-0.8c1.7-0.2,3.2,0.9,3.4,2.6c0,0.2,0,0.4,0,0.5c0,1.8-1.7,3.9-3.3,5.6l-2.2,2.4h5.7v1h-7.2L358.2,130.4z"/>
<path class="st0" d="M100.3,5.3c-3.8-0.4-7.6-0.7-11.6-0.8c-1.2,0-2.3-0.1-3.5-0.1h-4.4c-2.4,0-4.7,0-7.2,0.1
	c-2.6,0.1-5.3,0.2-7.9,0.4c-13.4,1-26.7,3.2-39.7,6.7c-0.4,0.2-0.9,0.2-1.4,0.4c0.3,0.6,0.8,0.6,1.4,0.8c0.1,0.1,0.2,0.1,0.3,0.2
	c0.7,0.3,0.9,0.7,1.7,0.9c1,0.2,2.1,0.2,3.1,0c2.1-0.5,2.2-0.7,3.7,0.5c0.6,0.3,1,0.9,1,1.6c0.2,0.9,0.1,1.2,0.8,1.8
	c0.7,0.6,1.3,0.7,1.7-0.2c0.8-1.8,3,0.5,3,1.4c0,1.7,0.3,0.7,0.8,1.3c0.3,0.2,0.2,2.5,1.7,3c0.6,0.2,1.1,0,1.2,0.7
	c0.1,0.3,0,0.7-0.2,0.9c-0.2,0.5-0.4,1-0.7,1.4c-0.7,1.6-0.7,3.5,0.2,5c0.2,0.4,0.5,0.9,0.7,1.4c0.7,1.8,0.8,2.2,2,2.9
	c0.8,0.3,1.6,0.5,2.4,0.5c0.7,0,0.7,0.1,1.3-0.3c0.6-0.4,0.9-0.4,1.3-0.1c1.2,0.7,0.9,0.1,1.4-0.7c0.8-1.3,1.2-0.2,1.2-2.2
	c0-0.4,0.3-0.8,1-1.1c1.4,0.1,1.6-0.7,3-0.5c0.6,0.1,1.7,0.1,1.2,1.4c-0.8,0.8-0.9,0.7-1,1.9c0.1,0.7-0.2,1.5-0.7,2
	c-0.9,1-0.3,0.7-0.7,1.7c-0.1,0.5-0.4,0.7-0.6,1.3c-0.2,0.6,0.2,1,1.2,0.8c0.6-0.2,1.2-0.2,1.8-0.1c0.7,0,1.3,0.1,2,0.1
	c0.9-0.2,1.9,0.1,2.6,0.7c0.8,0.9,0.7,1.2,0.3,2.8c-0.2,0.4,0.2,0.7,0.1,1.3c-0.1,0.7-0.6,1.6-0.6,2.2c0,0.4,0.1,0.8,0.2,1.2
	c0.3,0.5,0.6,0.9,1,1.3c0.5,0.5,1.1,1,1.7,1.3c2.2,1.3,2.4-0.1,4.1-0.4c0.7-0.1,1.5-0.1,2.2,0.2c0.6,0.3,1.2,0.8,1.7,1.3
	c0.6,0.6,1,0.8,1.3-0.3c0.1-0.5,0.3-0.9,0.7-1c0.6-0.1,0.3-0.2,0.6-0.7c0.1-0.1,0.1-0.2,0.2-0.2v-0.2c0.4-1.2,1.5-1.9,2.7-1.9h0.2
	c0.7,0,1.4-0.4,1.9-1c0.4-0.5,1.8-1.4,1.1,0.3c-0.2,0.4-0.4,0.4-0.3,0.9c0,0.2,0.1,0.2,0.1,0.4c0.2,0.7-0.2,0.8-0.4,1.3
	s0.3,0.3,0.5,0.4s0.2,0.6,0.4,0.8c0.2,0.2,0.7-0.1,0.9-0.6V50c-0.1-0.2-0.2-0.5-0.2-0.7c-0.1-0.5-0.1-0.7,0.2-1
	c0.1-0.1,0.3-0.2,0.4-0.2c1.3-0.7,2.2-1.2,3.1-0.5c0.2,0.1,0.2,0.2,0.4,0.3c1.1,1,0.6,1.1,2.1,1.2c1.2,0,1.5-0.2,2.5,0.3
	c0.7,0.3,2.5,0.9,3,0c0.3-0.6,1.1-0.9,1.8-0.6c0.2,0.1,0.4,0.2,0.5,0.4c0.2,0.5,0.7,0.8,1.2,0.7c0.1,0,0.1,0,0.1,0.1
	c0.4,0,0.8,0.2,1,0.5c0.6,0.7-0.1,0.5,0,1.3c0.1,0.8,0,0.3,0.8,0.3c1.4,0,3.2,0.6,3.6,2.1c0.3,0.7,1,0.3,1.6,0.9c0.9,1,0.5,1,2,1.3
	c0.3,0.1,0.6,0.1,0.9,0c1.2-0.3,1.7-0.3,2.4,0.1s0.8,1,1.6,0.8c1.2-0.2,1.5,0.8,2.3,1.5c0.8,0.7,1.6,0.7,1.6,2.5
	c0,1.2,0.1,0.8,0.8,1.7c0.9,1.2,1.2,1.3-0.2,2.6c-1,0.8-1,1.4,0.7,0.5c0.6-0.3,1,0.2,2,0.5c0.4,0.2,0.5,0.6,0.4,1
	c-0.1,0.1-0.2,0.2-0.3,0.3c-0.1,1.3-0.2,1.2,0.8,0.3c0.8-1,2.3-1.2,3.3-0.4c0.1,0.1,0.2,0.1,0.2,0.2c0.5,0.4,1,0.7,1.5,1.2
	c1.2,1.2,2.8,1.8,4.5,1.7c1.3,0,1.8,0.5,2.9,0.3c1.4-0.1,2.8,0.6,3.4,1.8c0.5,0.5,1,0.9,1.7,1.2c1.7,0.7,2.3-0.2,3.1,1.9
	c1.3,3.6-1.3,6.5-3.7,9c-0.9,1.1-0.7,1.7-1.3,2.4c-0.8,0.8-2.2,0.2-2,1.6c0.2,0.6-0.4,1-0.5,1.7c0,0.3,0,0.6,0,0.8
	c0,0.8,0.3,1.6-0.3,2.2c-0.1,0.7-0.2,1.5-0.3,2.2c-0.7,1.6-1.5,2.6-1.9,3.6c-0.4,0.5-0.8,0.9-1.2,1.2c-0.8,0.6-0.3,1.4-0.8,2
	c-0.2,0.2-0.5,0.4-0.8,0.6c-1.1,0.7-1.1,1-2.6,1c-3.3,0.2-6.4,1.8-8.4,4.4c-0.5,0.7-0.8,1.6-0.7,2.5c-0.2,1.3-0.7,1.1-1.4,1.9
	c-1.2,1.4-1.2,3.1-2.6,2.5c-0.4-0.1-0.5,0.3-1.1,1c-0.5,0.4-0.8,0.9-1,1.5c-0.1,0.6-0.2,0.7-0.9,1.4l-1.4,1.4
	c-0.9,2-2.5,1.7-4.4,1.5c-0.5-0.1-1.3-0.5-1.8-0.7c-1.3-0.5-1.1,0.3-0.2,0.8c0.3,0.2,0.4,0.2,0.5,0.4c0.2,0.9-0.7,1,0.4,1.9
	c0.2,0.7,0,1.2-0.7,1.9c-0.8,1.1-2.1,1.8-3.5,1.8c-0.7,0.1-1.6,0-2.4,0c-1.7-0.1-1.3-0.4-1.4,1c-0.1,0.4-0.3,0.7-0.5,1
	c0,1.3-0.9,1.6-1.8,1.2c-1.9-0.8-1.2-0.8-1.7,0.4c-0.1,0.3-0.2,0.6-0.1,0.9c0,0.2,0.1,0.7,0.2,0.7s0.3,0,0.3,0.1
	c0.7,0,0-0.4,0.9-0.5c0.3,0,0.3,0,0.2,0.3c-0.2,0.7-0.2,0.5-0.9,0.5s-0.7-0.1-0.7,0.7s-0.5,0.7-0.7,1.3c-0.1,0.3-0.2,0.5-0.3,0.8
	c-0.2,0.7-0.8,0.7-1.6,0.7c-0.4,0.2-0.8,0.5-1.2,0.8c-0.3,0.5-0.3,1.1,0,1.6c0.1,0.1,0.3,0.2,0.4,0.3c0.2,0.2,0.2,0.4,0.5,0.5
	c0.7,0.2,0.7-0.2,0.7,0.6c0,0.8-0.4,0.8-1.2,1.3c-0.2,0.1-0.3,0.2-0.5,0.3c-0.4,0.2-0.5,0.3-0.7,1c0,0.5-0.4,1-0.8,1.2
	c-1.4,0.5-1.4,0.7-1.1,2.1c0.2,1.1-0.2,0.9-0.8,1.1c-0.3,0.1-0.6,0.2-0.9,0.4c-0.3,0.3-0.6,0.8-0.7,1.2c-0.7,0.7,0.2,0.1-1.7,0.5
	c-0.7,0.2-0.7-0.3-0.7-1.2c0-0.3-0.1-0.5-0.2-0.7c-0.1-0.1-0.2-0.2-0.2-0.3c-0.4-1.1,0.1-0.7-0.9-1.6c-0.7-0.5,0.1-1.2-0.2-1.7
	c-0.5-0.8-0.3-0.4-0.4-1.3c-0.1-0.3-0.2-0.6-0.2-0.8c-0.2-0.3-0.1-0.6,0.1-0.8c0.1,0,0.1-0.1,0.2-0.1c0.7-0.3,0.6-0.2,0.8-0.8
	c0.5-1.7,0.2-0.5-0.7-1.2c-0.2-0.2-0.1-0.7,0.2-1.1c0.3-0.5,0.8-0.8,1.3-0.9c0.1,0,0.2,0,0.3-0.1c0.4-0.2,0.2-0.6,0.5-1.5
	c0-0.8,0.2-1.6,0.7-2.2c0.3-0.5,0.3-1.1,0.1-1.6c-0.5-1-1.6,0-1.4-1.6c0.1-0.8,0.4-1.5,0.7-2.2c0.1-0.5,0.1-1.1,0-1.7
	c-0.4-1.7-0.2-1.7,0.6-3.2c0.3-0.6,0.6-1.1,0.8-1.7c0.2-0.6,0.2-1,0.3-1.7c0.6-0.4,0.6-0.7,0.6-1.5s0.4-1,0.4-1.9
	c0-0.9-0.2-0.7-0.4-1.3c-0.1-0.3,0-0.6,0.1-0.9c0.4-1,0.8-0.7,0.5-1.9c-0.2-0.7,0.2-1.4,0.6-2.1c0.1-0.1,0.1-0.3,0.2-0.4
	c0.3-1.1,0.6-2.2,0.8-3.3c0.2-0.8,0.2-1.6,0.1-2.3c-0.1-0.4-0.1-0.9,0-1.3c0.2-0.8,0.6-0.7,0.4-1.6c-0.1-0.6-0.1-1.2,0-1.7
	c0.4-1-0.1-2.2-0.1-3.6s-0.4-1.7-1.3-2.4c-0.2-0.1-0.4-0.3-0.6-0.4c-1-0.9-2.1-1.6-3.3-2.2c-0.2-0.1-0.3-0.1-0.5-0.2
	c-1.2-0.3-1.3,0.1-2.5-1.3c-0.3-0.4-0.7-0.8-1.1-1.3c-0.4-0.7,0.5-0.8-0.1-1.7c-0.4-0.3-0.7-0.7-1-1.1c-1-1.4-1.8-3-2.5-4.6
	c-0.8-2.1-2.1-4.1-3.8-5.6c-0.7-0.1-0.9-0.4-0.7-1.1c0-0.5-0.2-0.9-0.4-1.3c-0.7-1.3,1.2-1.8,2-2.2c0.6-0.4,0.6-0.9,0-1.3
	c-0.2-0.1-0.5-0.1-0.7-0.2c-1.2-0.4-0.7-2-0.2-2.7c0.5-0.5,0.8-1.1,0.9-1.8c0.2-1.1,0.2-1.2,0.9-1.4c1.1-0.2,0.9-0.3,1.3-1.3
	c0-0.9,0.1-0.8,0.7-1.1c0.1,0,0.2-0.1,0.2-0.1c1.8-1.7,1.6-2.5,1.4-4.7c0-0.9-0.3-1.9-0.8-2.6c-0.3-0.6-0.7-0.7-0.8-0.9
	c-0.2-0.2-0.1-0.2-0.1-0.3c-0.1-1,0.2-0.8-0.6-1.8c-0.6-0.5-1.4-0.4-1.8,0.2c-0.1,0.1-0.1,0.1-0.1,0.2c-0.1,0.2-0.1,0.5-0.2,0.7
	c-0.7,0.5-0.6,0.1-0.3,1.3c0.1,0.3,0.1,0.4-0.1,0.5c-1,0.7-0.9-0.6-1.3-0.7c-0.7-0.2-0.4,0.2-1.3-0.6c-0.3-0.3-0.5-0.3-1.2-0.3h-0.8
	c-0.2-0.1-0.4-0.2-0.7-0.7c-0.3-0.5,0.1-0.9-0.8-1.1c-0.2,0-0.3,0-0.5-0.1c-0.9-0.7-0.2-0.7-1.2-0.4c-0.5,0.1-1-0.3-1.1-1.1
	c0.2-1.7-0.1-1.5-1.6-2.7c-0.5-0.5-0.8-1.1-1.1-1.7c-0.3-0.8-0.7-0.4-1.4-0.4c-0.8,0-1.6-0.2-2.2-0.7c-0.8-0.6-1.7-0.9-2.6-0.8
	c-1.2-0.2-2-1.5-2.5-2.2c-0.6-1-1.8-1.5-3-1.3c-1,0.2-1.2,1.2-2.4,1c-0.7-0.2-1.3-1-3-1.3c-1-0.3-2-0.7-3-1.3
	c-1.3-0.5-1.4-1.4-2.5-1.7c-2.4-0.6-1.2-0.3-2.3-1.5c-0.3-0.2-0.5-0.4-0.8-0.5c-0.7-0.4-1.7-1.3-1-2.1c0.6-0.5,0.8-1.3,0.5-2.1
	c-0.3-0.5-0.4-1-0.2-1.5c0.1-0.6-1-1.6-1.4-2.1c-0.7-0.9-1.3-1.8-1.9-2.6c-2.4-1.1,0.2-1.3-1-2.5c-0.4,0.1-0.9-0.3-0.9-0.7
	c0,0,0,0,0-0.1c-0.2-1,0.1-1-0.9-1.8c-0.3-0.2-0.6-0.6-0.7-1c-0.2-0.6-0.4-1.2-0.6-1.8c0-0.5-0.1-0.9-0.1-1.4
	c-0.1-1.3,0.2-1.2-1.1-1.7c-0.2-0.1-0.5-0.1-0.7-0.2c-0.1,0.1-0.2,0.1-0.3,0.1c-0.3,0.3-0.4,0.6-0.3,1c0.1,1.1-0.1,1.3,0.2,2.1
	c0.2,0.3,0.4,0.6,0.6,1c0.7,0.8,0.7,0.7,0.7,1.7c-0.1,0.6,0,1.3,0.4,1.8c1.3,1.7,0.9,2,1.3,3.4c-0.1,0.8,0,1.2-0.4,1.3
	c-0.5,0.1-1.1-0.1-1.5-0.4c-0.5-0.5-0.2-0.8,0.2-1.3c0.7-1.1-0.8-2-1.5-2.5c-1-0.9-1.6-1.3-0.6-2.4c0.7-0.7,0.2-1.3-0.2-2
	c-1.1-1-1.3-1.1-1.2-1.8c0.1-0.7,0.1-1.1-0.1-1.3C13.7,15.1,7,17.3,0.3,20v116.2c8.5,3.3,17.1,6.1,25.8,8.5
	c13,3.5,26.3,5.7,39.7,6.7c2.6,0.2,5.3,0.3,7.9,0.4c2.4,0.1,4.7,0.1,7.2,0.1h2.1l1.2-0.3c1.7,0.3,0.3-1.2,1.1-1.7
	c0.1,0,0.3-0.1,0.4-0.1c0.7-0.2,0.7-0.1,1,0.5c0.3,0.6,0.8,1.1,1.3,1.5h0.7c3.9-0.2,7.7-0.4,11.6-0.8c20.9-2,41.5-7,61-14.7V20
	C141.8,12.2,121.2,7.3,100.3,5.3 M66.4,29.3c-0.2,0.1-0.4,0.2-0.6,0.3c-0.2,0.2-0.2,0.4-0.6,0.6c-0.7,0.6-1.1-0.2-0.1-0.9
	c0.2-0.2,0.4-0.3,0.7-0.3C67,28.5,67.8,29.2,66.4,29.3 M78.2,33.7c-0.7,0.1-0.8,0-1.5,0.1c-1.2,0.2-1.4,0.1-1.2-0.8
	c0.2-0.9-1.5-0.4-1.8-0.8c-0.1-0.1-0.1-0.2,0-0.3v-0.1c-0.5-0.9-0.2-0.6-1.7-0.6c-0.4,0-0.7-0.1-1-0.4c-0.6-0.6-0.9-0.9-1.8-0.8
	c-0.9,0.2-1.5-1.4-0.8-1.6c1.4-0.2,0.8,0.5,2.1,0.5c0.6,0,1.2,0.2,1.6,0.7c0.4,0.3,0.8,0.4,1.3,0.4c0.2,0,0.3,0,0.3,0.1
	c0.4,0.1,0.8,0.3,1.2,0.5c0.2,0.2,0.5,0.3,0.7,0.5c0.4,0.5,0.9,0.8,1.5,0.9c0.9,0.2,0.8,0,1.5,0.6S80,33.6,78.2,33.7 M81.7,36.6
	c-0.3,0-0.5,0-0.8-0.1c-0.4,0-0.8-0.1-0.8-0.3c0-0.7,0.2-0.3,0.7-0.3h0.1c0.3,0,0.3-0.1,0.5,0.3c0.1,0.2,0.2,0.2,0.6,0.2
	S82.1,36.7,81.7,36.6 M86.8,35.9c-1.1,0-1.3-0.2-1.5,0.3c-0.1,0.2-0.2,0.3-0.3,0.6c-0.2,0.2-0.2,0.2-0.7,0c-0.7-0.2-1.2-0.7-1.2-1
	s-0.1-0.4-0.2-0.7c-1.2-2.5-0.4-0.7,2.1-1.1C85,34,85.2,34,85.3,34c0.7-0.2,0.9-0.2,1.6,0.5l0.6,0.6C89.4,35.7,87.2,36.3,86.8,35.9
	 M88.8,36.1c-0.2,0-0.3-0.2-0.3-0.3c0-0.2,0.1-0.4,0.3-0.4c0.2,0,0.3,0.2,0.3,0.4C89.1,35.9,89,36.1,88.8,36.1
	C88.8,36.1,88.8,36.1,88.8,36.1 M80.9,134.1L80.9,134.1c0.2-0.2,0.2-0.2,0.2-0.6c0.1-0.3,0.2-0.2,0.2,0.2c-0.1,0.3-0.1,1.5-0.4,1.6
	c-0.7,0-0.4-0.1-0.3-0.6C80.7,134.1,80.5,134.2,80.9,134.1 M26.6,26.9c-0.2,0.2-0.4,0.2-0.5,0.1c0,0-0.1-0.1-0.1-0.2
	c-0.2-0.8-0.8-0.3-0.7-1c0.2-0.7,0.5-0.7,0.7-0.6c0.2,0.2,0.4,0.4,0.6,0.7C26.9,26.3,27.1,26.7,26.6,26.9 M102.2,141.3
	c-0.4,0.8-0.7,0.6-1.6,0.4h-0.3c-0.5,0.1-0.5,0.7-1.3,0.3c-0.5-0.4-0.7-0.7-0.6-1.2s0.2-0.6,0.6-0.5c0.4,0.1,0.9,0.1,1.3,0
	c0.2-0.1,0.4-0.1,0.7-0.2C102.4,139.7,102.5,140.5,102.2,141.3"/>
<polygon class="st0" points="19.3,182.7 19.3,188.1 7.3,188.1 7.3,195.2 18.3,195.2 18.3,200.6 7.3,200.6 7.3,212 0.3,212 
	0.3,182.7 "/>
<polygon class="st0" points="25.4,182.7 32.5,182.7 32.5,206.5 42.7,206.5 42.7,212 25.4,212 "/>
<path class="st0" d="M56.8,182.7h7.5L74.9,212h-7.4l-2-6.3h-9.8l-2,6.3h-7.4L56.8,182.7z M57.1,200.5h6.7l-1.1-3.5
	c-0.4-1.1-0.7-2.4-1.1-3.7c-0.4-1.3-0.7-2.5-1-3.6h-0.1c-0.3,1.1-0.7,2.3-1.1,3.5c-0.4,1.3-0.8,2.5-1.2,3.7L57.1,200.5z"/>
<path class="st0" d="M92.6,207.1c1.2,0,2.4-0.1,3.5-0.4c0.8-0.2,1.7-0.5,2.4-1l1.4,5.1c-0.9,0.5-2,0.9-3,1.1
	c-1.7,0.4-3.4,0.6-5.1,0.6c-2.2,0-4.3-0.3-6.3-1.1c-1.8-0.7-3.5-1.7-4.9-3c-1.4-1.4-2.5-3-3.2-4.8c-0.8-2-1.2-4.1-1.1-6.3
	c0-2.1,0.3-4.2,1.1-6.2c0.7-1.8,1.7-3.4,3.1-4.8c1.4-1.4,3.1-2.4,4.9-3.1c2.1-0.8,4.3-1.1,6.6-1.1c1.7,0,3.4,0.2,5,0.6
	c1.1,0.3,2.1,0.7,3,1.2l-1.6,5.2c-0.8-0.4-1.6-0.8-2.5-1.1c-1-0.3-2.1-0.5-3.2-0.5c-1.2,0-2.4,0.2-3.5,0.5c-1.1,0.3-2,0.9-2.8,1.7
	c-0.8,0.8-1.5,1.9-1.9,3c-0.9,2.9-0.9,5.9,0,8.8c0.4,1.2,1,2.2,1.9,3.1c0.8,0.8,1.8,1.4,2.8,1.8C90.3,207,91.5,207.2,92.6,207.1"/>
<path class="st0" d="M116.1,182.1c1.8,0,3.5,0.2,5.3,0.6c1.3,0.4,2.6,0.9,3.9,1.5l-1.6,5.2c-1.2-0.6-2.4-1.1-3.7-1.5
	c-1.1-0.3-2.3-0.5-3.5-0.5c-1.1-0.1-2.3,0.2-3.3,0.8c-0.7,0.5-1.1,1.3-1.1,2.1c-0.1,0.9,0.3,1.7,1.1,2.2c1,0.6,2.2,1.1,3.3,1.4
	l2.7,0.9c1.1,0.3,2.1,0.8,3,1.3c0.9,0.5,1.7,1.1,2.4,1.9c0.7,0.7,1.2,1.5,1.6,2.4c0.4,0.9,0.6,1.9,0.6,2.9c0,1.2-0.2,2.4-0.7,3.5
	c-0.5,1.1-1.2,2.1-2.1,2.9c-1,0.9-2.3,1.6-3.6,2c-1.6,0.5-3.4,0.7-5.1,0.7c-1.8,0-3.5-0.2-5.3-0.6c-1.6-0.4-3.1-0.9-4.6-1.6l1.6-5.2
	c1.3,0.6,2.6,1.1,3.9,1.5c1.3,0.4,2.7,0.6,4,0.6c1.2,0.1,2.5-0.2,3.6-0.8c0.7-0.5,1.1-1.3,1.1-2.2c0-0.7-0.3-1.4-0.9-1.9
	c-0.5-0.4-1-0.7-1.5-0.9c-0.8-0.3-1.6-0.6-2.5-0.8l-2.3-0.8c-1-0.4-2-0.8-3-1.3c-0.9-0.5-1.7-1.1-2.4-1.8c-0.7-0.7-1.2-1.5-1.6-2.4
	c-0.4-1-0.6-2.1-0.6-3.2c0-1.2,0.2-2.4,0.7-3.5c0.5-1.1,1.2-2.1,2.1-2.8c1-0.8,2.2-1.5,3.5-1.9C112.8,182.4,114.5,182.1,116.1,182.1
	"/>
<path class="st0" d="M147,182.1c2,0,4,0.3,5.9,1c1.7,0.7,3.3,1.7,4.7,3c1.3,1.4,2.4,3,3,4.8c0.8,2.1,1.1,4.2,1.1,6.4
	c0,2.1-0.4,4.3-1.1,6.3c-0.7,1.8-1.8,3.4-3.1,4.8c-1.3,1.3-2.9,2.4-4.7,3c-3.8,1.4-8,1.4-11.8,0c-3.6-1.3-6.4-4.1-7.7-7.7
	c-0.8-2-1.1-4.2-1.1-6.4c0-2.2,0.3-4.3,1.1-6.3c0.7-1.8,1.8-3.4,3.1-4.8c1.3-1.3,2.9-2.4,4.7-3.1C142.9,182.5,144.9,182.1,147,182.1
	 M139.5,197.4c0,1.5,0.2,2.9,0.6,4.3c0.3,1.1,0.9,2.2,1.6,3.1c0.6,0.8,1.4,1.4,2.4,1.8c1.8,0.8,3.9,0.8,5.7,0c0.9-0.4,1.7-1,2.3-1.8
	c0.7-0.9,1.2-2,1.5-3.1c0.8-2.9,0.8-5.9,0-8.8c-0.3-1.1-0.9-2.2-1.6-3.1c-0.6-0.8-1.4-1.4-2.4-1.8c-0.9-0.4-1.9-0.6-2.9-0.6
	c-2,0-3.9,0.9-5.1,2.5c-0.7,0.9-1.2,2-1.5,3.1C139.7,194.5,139.6,195.9,139.5,197.4"/>
<path class="st0" d="M249.9,39.1c-1.7-0.1-3.6-0.1-5.5,0s-4.5,0.3-7,0.6c-27.5,3.2-40.6,20-43.9,38.1h0.6
	c6.4-7.3,16.3-12.6,29.5-12.6c5.9,0,11.7,1.1,17.1,3.5c5.3,2.3,10,5.9,13.6,10.4c0.4,0.4,0.7,0.9,1.1,1.3c0,0,0.1,0.1,0.1,0.1
	c0.3,0.4,0.6,0.8,0.9,1.3c0.1,0.1,0.1,0.2,0.2,0.2c0.3,0.4,0.5,0.8,0.8,1.2l0.2,0.3c0.3,0.5,0.6,1,0.9,1.5
	c23.8,0.5,34.5,9.6,35.4,23.2h25.6v-0.1c0-15.9-7.2-27.1-17.2-33.5c-8.8-5.8-20.4-8.4-31.9-8.5c-3.2,0-6.4,0.2-9.5,0.6l3.8-26.3H312
	L308.9,20h-59.1L249.9,39.1z"/>
<path class="st0" d="M215.6,83.2c-9.1,0.1-17.4,5.4-21.4,13.6c-1.1,2.4-1.7,5.1-1.6,7.8c0.4,17.3,8.6,31.4,24.6,31.4
	c12.8,0,21.2-11.1,21.2-26.9C238.4,94,230,83.2,215.6,83.2"/>
<path class="st0" d="M174.7,63.2c3.7-9,9.1-17.1,16.1-23.8c12-11.4,27.9-17.8,46.5-19.3l1.8-0.2h-70.7L174.7,63.2z"/>
<path class="st0" d="M6.3,228.6H8l6.2,16h-1.9l-1.7-4.6H3.7l-1.7,4.6H0L6.3,228.6z M4.2,238.5h5.8l-1.3-3.4c-0.2-0.6-0.5-1.3-0.7-2
	c-0.2-0.7-0.5-1.6-0.8-2.5l0,0l-0.4,1.2c-0.1,0.4-0.3,0.8-0.4,1.1c-0.1,0.4-0.3,0.7-0.4,1.1c-0.1,0.4-0.3,0.7-0.4,1.1L4.2,238.5z"/>
<path class="st0" d="M21.5,228.6h4.9c0.7,0,1.5,0.1,2.2,0.3c0.6,0.2,1.1,0.5,1.6,0.9c0.4,0.4,0.8,0.9,1,1.5c0.2,0.6,0.3,1.2,0.3,1.9
	c0,0.6-0.1,1.1-0.3,1.7c-0.2,0.5-0.4,0.9-0.7,1.3c-0.3,0.4-0.7,0.7-1.1,0.9c-0.4,0.3-0.9,0.5-1.3,0.6l4.3,6.8h-2l-3.9-6.6h-3.2v6.6
	h-1.7V228.6z M23.2,236.5h2.4c0.5,0,1-0.1,1.6-0.2c0.5-0.1,0.9-0.3,1.3-0.6c0.3-0.3,0.6-0.6,0.8-1.1c0.2-0.5,0.3-1,0.3-1.5
	c0.1-0.9-0.3-1.8-1-2.5c-0.8-0.6-1.8-0.9-2.8-0.8h-2.6L23.2,236.5z"/>
<path class="st0" d="M46.8,228.5c0.8,0,1.6,0.1,2.4,0.2c0.7,0.1,1.4,0.4,2,0.7l-0.4,1.4c-0.6-0.3-1.2-0.5-1.8-0.6
	c-0.6-0.2-1.3-0.2-1.9-0.2c-0.8,0-1.6,0.1-2.3,0.3c-0.7,0.2-1.4,0.6-1.9,1.1c-0.6,0.6-1,1.3-1.3,2c-0.4,1-0.5,2-0.5,3.1
	c0,0.9,0.1,1.9,0.4,2.8c0.3,0.8,0.7,1.5,1.2,2c0.5,0.6,1.2,1,1.9,1.3c0.8,0.3,1.6,0.4,2.4,0.4c0.6,0,1.1,0,1.7-0.1
	c0.4-0.1,0.8-0.2,1.2-0.3v-5.1h-3.3v-1.4h5v7.6c-0.7,0.3-1.3,0.5-2,0.6c-0.9,0.2-1.8,0.3-2.7,0.2c-1,0-2.1-0.2-3-0.5
	c-0.9-0.3-1.8-0.9-2.5-1.5c-0.7-0.7-1.3-1.6-1.7-2.5c-0.4-1.1-0.6-2.3-0.6-3.4c0-1.2,0.2-2.4,0.6-3.5c0.4-1,0.9-1.8,1.6-2.5
	c0.7-0.7,1.5-1.2,2.5-1.5C44.7,228.7,45.7,228.5,46.8,228.5z"/>
<path class="st0" d="M60.1,228.6h9.4v1.5H62v5.5h6.9v1.5H62v6h7.6v1.5h-9.5V228.6z"/>
<path class="st0" d="M77.7,228.6h1.6l7.1,10.3l0.9,1.4c0.3,0.5,0.6,1,0.9,1.4l0,0c0-0.6,0-1.3,0-1.9c0-0.6,0-1.2,0-1.9v-9.4H90v16
	h-1.6l-7-10c-0.4-0.5-0.7-1.1-1.1-1.6c-0.3-0.6-0.7-1.2-1-1.7l0,0c0,0.7,0,1.5,0.1,2.2c0.1,0.7,0,1.5,0,2.2v8.9h-1.8L77.7,228.6z"/>
<path class="st0" d="M109.6,228.6v1.5h-5.3v14.5h-1.8v-14.5h-5.2v-1.5H109.6z"/>
<path class="st0" d="M118.7,228.6v16h-1.8v-16H118.7z"/>
<path class="st0" d="M127.8,228.6h1.6l7.1,10.3c0.3,0.5,0.6,1,0.9,1.4c0.3,0.5,0.6,1,0.9,1.4l0,0c0-0.6,0-1.3-0.1-1.9v-11.3h1.8v16
	h-1.7l-7-10c-0.4-0.5-0.7-1.1-1.1-1.6c-0.4-0.6-0.7-1.2-1-1.7l0,0c0,0.7,0,1.5,0.1,2.2c0.1,0.7,0,1.5,0,2.2v8.9h-1.8L127.8,228.6z"
	/>
<path class="st0" d="M153.8,228.6h1.8l6.2,16h-2L158,240h-6.8l-1.8,4.6h-1.9L153.8,228.6z M151.6,238.5h5.8l-1.3-3.4
	c-0.2-0.6-0.5-1.3-0.7-2s-0.5-1.6-0.8-2.5l0,0c-0.1,0.4-0.3,0.9-0.4,1.2c-0.1,0.4-0.3,0.8-0.4,1.1c-0.1,0.4-0.2,0.7-0.4,1.1
	c-0.1,0.4-0.3,0.7-0.4,1.1L151.6,238.5z"/>
</svg>
