<?xml version="1.0" encoding="utf-8"?>
<!-- Generator: Adobe Illustrator 23.0.6, SVG Export Plug-In . SVG Version: 6.00 Build 0)  -->
<svg version="1.1" id="Capa_1" xmlns="http://www.w3.org/2000/svg" xmlns:xlink="http://www.w3.org/1999/xlink" x="0px" y="0px"
	 viewBox="0 0 586.7 180.1" style="enable-background:new 0 0 586.7 180.1;" xml:space="preserve">
<style type="text/css">
	.st0{fill:#DC522A;}
	.st1{fill:#FFFFFF;}
</style>
<g>
	<path class="st0" d="M536.7,180.1h-505C14.2,180.1,0,165.9,0,148.4V31.7C0,14.2,14.2,0,31.7,0h505c17.5,0,31.7,14.2,31.7,31.7
		v116.7C568.4,165.9,554.2,180.1,536.7,180.1z"/>
	<g>
		<path class="st1" d="M42,80.2V50.8h7.5c2.7,0,4.7,0.7,6,2s2.1,3.2,2.1,5.8c0,1.5-0.4,2.8-1.1,3.9c-0.7,1.1-1.7,1.9-2.9,2.4
			c1.4,0.4,2.6,1.2,3.5,2.5c0.9,1.3,1.3,2.8,1.3,4.6c0,2.6-0.7,4.6-2.1,6.1c-1.4,1.5-3.4,2.2-6,2.2H42z M44.3,64h5.4
			c1.8,0,3.1-0.5,4.1-1.4c1-0.9,1.5-2.3,1.5-4.2c0-1.9-0.5-3.3-1.4-4.1c-1-0.9-2.4-1.3-4.3-1.3h-5.2V64z M44.3,66.1v12h6.1
			c1.8,0,3.1-0.5,4.2-1.6c1-1.1,1.5-2.6,1.5-4.5c0-1.8-0.5-3.2-1.4-4.3s-2.2-1.6-3.9-1.6H44.3z"/>
		<path class="st1" d="M63.6,52c0-0.5,0.1-0.9,0.4-1.2c0.3-0.3,0.6-0.5,1.1-0.5c0.5,0,0.8,0.2,1.1,0.5c0.3,0.3,0.4,0.7,0.4,1.2
			s-0.1,0.8-0.4,1.2c-0.3,0.3-0.6,0.5-1.1,0.5c-0.5,0-0.8-0.2-1.1-0.5C63.8,52.9,63.6,52.5,63.6,52z M66.2,80.2H64V58.3h2.3V80.2z"
			/>
		<path class="st1" d="M79.7,80.6c-2.6,0-4.6-0.8-6.1-2.5c-1.5-1.7-2.2-4.1-2.2-7.2v-2.7c0-3.2,0.7-5.7,2.1-7.6s3.3-2.7,5.8-2.7
			c2.4,0,4.2,0.8,5.4,2.3c1.2,1.6,1.9,3.9,1.9,7.1v2.1h-13v1.2c0,2.5,0.5,4.4,1.6,5.8s2.6,2,4.5,2c2.2,0,3.9-0.8,5.2-2.4l1.2,1.5
			C84.8,79.7,82.6,80.6,79.7,80.6z M79.3,60c-1.8,0-3.1,0.6-4.1,1.9c-1,1.2-1.5,3.1-1.6,5.5h10.8v-0.6C84.3,62.3,82.6,60,79.3,60z"
			/>
		<path class="st1" d="M93.6,58.3l0.1,3.5c0.6-1.2,1.5-2.1,2.5-2.8c1-0.7,2.1-1.1,3.4-1.1c3.8,0,5.8,2.5,5.9,7.6v14.7h-2.2V65.8
			c0-2-0.4-3.4-1-4.3c-0.7-0.9-1.7-1.4-3.2-1.4c-1.2,0-2.2,0.4-3.2,1.3c-0.9,0.9-1.7,2.1-2.1,3.6v15.2h-2.2V58.3H93.6z"/>
		<path class="st1" d="M117.2,76.7l5.4-18.4h2.3l-6.8,21.9h-1.8l-6.9-21.9h2.3L117.2,76.7z"/>
		<path class="st1" d="M135.9,80.6c-2.6,0-4.6-0.8-6.1-2.5c-1.5-1.7-2.2-4.1-2.2-7.2v-2.7c0-3.2,0.7-5.7,2.1-7.6s3.3-2.7,5.8-2.7
			c2.4,0,4.2,0.8,5.4,2.3c1.2,1.6,1.9,3.9,1.9,7.1v2.1h-13v1.2c0,2.5,0.5,4.4,1.6,5.8s2.6,2,4.5,2c2.2,0,3.9-0.8,5.2-2.4l1.2,1.5
			C141,79.7,138.9,80.6,135.9,80.6z M135.6,60c-1.8,0-3.1,0.6-4.1,1.9c-1,1.2-1.5,3.1-1.6,5.5h10.8v-0.6
			C140.5,62.3,138.8,60,135.6,60z"/>
		<path class="st1" d="M149.8,58.3l0.1,3.5c0.6-1.2,1.5-2.1,2.5-2.8c1-0.7,2.1-1.1,3.4-1.1c3.8,0,5.8,2.5,5.9,7.6v14.7h-2.2V65.8
			c0-2-0.4-3.4-1-4.3c-0.7-0.9-1.7-1.4-3.2-1.4c-1.2,0-2.2,0.4-3.2,1.3c-0.9,0.9-1.7,2.1-2.1,3.6v15.2h-2.2V58.3H149.8z"/>
		<path class="st1" d="M167.6,52c0-0.5,0.1-0.9,0.4-1.2c0.3-0.3,0.6-0.5,1.1-0.5c0.5,0,0.8,0.2,1.1,0.5c0.3,0.3,0.4,0.7,0.4,1.2
			s-0.1,0.8-0.4,1.2c-0.3,0.3-0.6,0.5-1.1,0.5c-0.5,0-0.8-0.2-1.1-0.5C167.7,52.9,167.6,52.5,167.6,52z M170.2,80.2h-2.3V58.3h2.3
			V80.2z"/>
		<path class="st1" d="M175.6,68.3c0-3.4,0.6-6,1.8-7.7c1.2-1.7,3-2.6,5.3-2.6c2.5,0,4.3,1.1,5.6,3.3V49.1h2.2v31.1h-2.1l-0.1-2.8
			c-1.2,2.1-3.1,3.2-5.6,3.2c-2.3,0-4.1-0.9-5.3-2.6c-1.2-1.8-1.8-4.2-1.9-7.5V68.3z M177.8,70.3c0,2.8,0.4,4.9,1.3,6.2
			c0.8,1.3,2.2,2,4,2c2.4,0,4.1-1.1,5.1-3.4V63.7c-1-2.4-2.7-3.7-5.1-3.7c-1.8,0-3.2,0.7-4,2c-0.8,1.3-1.3,3.3-1.3,6.1V70.3z"/>
		<path class="st1" d="M202.5,67.2l4.8-8.8h2.7l-6.2,10.8l6.5,11.2h-2.6l-5-9.2l-5.1,9.2h-2.6l6.4-11.2L195,58.3h2.6L202.5,67.2z"/>
		<path class="st1" d="M225.4,74.8c0-0.9-0.4-1.8-1.2-2.5c-0.8-0.7-2.1-1.5-4-2.3c-1.9-0.8-3.2-1.5-3.9-2.1
			c-0.7-0.6-1.3-1.2-1.6-1.8c-0.4-0.7-0.5-1.4-0.5-2.3c0-1.7,0.6-3.1,1.8-4.2s2.8-1.7,4.7-1.7c2.1,0,3.7,0.6,5,1.8s1.9,2.7,1.9,4.7
			h-2.2c0-1.2-0.4-2.3-1.3-3.1c-0.9-0.8-2-1.2-3.3-1.2c-1.3,0-2.4,0.3-3.1,1c-0.8,0.7-1.2,1.6-1.2,2.6c0,0.9,0.3,1.6,0.9,2.1
			c0.6,0.6,1.9,1.3,3.8,2.2c2,0.9,3.4,1.6,4.2,2.2c0.8,0.6,1.3,1.2,1.7,1.9c0.4,0.7,0.6,1.5,0.6,2.5c0,1.8-0.6,3.2-1.9,4.3
			s-2.9,1.6-5,1.6c-2.2,0-3.9-0.6-5.3-1.8c-1.3-1.2-2-2.7-2-4.6h2.3c0.1,1.4,0.5,2.4,1.4,3.2c0.8,0.7,2.1,1.1,3.7,1.1
			c1.4,0,2.5-0.3,3.3-1C224.9,76.8,225.4,75.9,225.4,74.8z"/>
		<path class="st1" d="M253.8,80.2c-0.2-0.7-0.3-1.7-0.4-3c-0.7,1.1-1.5,1.9-2.6,2.5c-1.1,0.6-2.2,0.9-3.5,0.9
			c-1.9,0-3.4-0.5-4.4-1.6s-1.6-2.6-1.6-4.6c0-2.1,0.7-3.8,2.2-5.1c1.5-1.3,3.5-1.9,6.1-1.9h3.8v-3.1c0-1.6-0.4-2.7-1.2-3.4
			c-0.8-0.7-1.9-1-3.4-1c-1.4,0-2.5,0.4-3.4,1.2c-0.9,0.8-1.3,1.9-1.3,3.1l-2.2,0c0-1.8,0.7-3.3,2-4.6s3-1.9,5.1-1.9
			c2.2,0,3.9,0.6,5,1.7c1.1,1.1,1.7,2.7,1.7,4.8v10.8c0,2.1,0.2,3.8,0.6,4.8v0.2H253.8z M247.6,78.5c1.3,0,2.5-0.3,3.5-1
			c1-0.7,1.8-1.6,2.2-2.8v-5.3h-3.6c-2.1,0-3.6,0.5-4.6,1.4c-1,0.9-1.6,2.1-1.6,3.6C243.6,77.1,245,78.5,247.6,78.5z"/>
		<path class="st1" d="M285.6,68.2h-9.3v12h-6V50.8h16.3v5h-10.4v7.6h9.3V68.2z"/>
		<path class="st1" d="M296.1,75.3h10.4v4.9h-16.4V50.8h6V75.3z"/>
		<path class="st1" d="M324.5,74.2h-8.1l-1.6,6h-6.3l9.2-29.5h5.4l9.3,29.5H326L324.5,74.2z M317.6,69.2h5.5l-2.8-10.5L317.6,69.2z"
			/>
		<path class="st1" d="M354.7,70.4c-0.1,3.4-1.1,5.9-2.8,7.6c-1.7,1.7-4.2,2.6-7.4,2.6c-3.3,0-5.9-1.1-7.7-3.3
			c-1.8-2.2-2.7-5.3-2.7-9.4v-5c0-4,0.9-7.2,2.8-9.4c1.8-2.2,4.4-3.3,7.7-3.3c3.2,0,5.7,0.9,7.3,2.7c1.7,1.8,2.6,4.4,2.8,7.7h-6
			c-0.1-2.1-0.4-3.5-1-4.3c-0.6-0.8-1.7-1.2-3.2-1.2c-1.6,0-2.7,0.6-3.4,1.7c-0.7,1.1-1,2.9-1.1,5.5V68c0,2.9,0.3,4.9,1,6
			c0.7,1.1,1.8,1.6,3.4,1.6c1.6,0,2.6-0.4,3.2-1.1c0.6-0.8,0.9-2.1,1-4.1H354.7z"/>
		<path class="st1" d="M370.8,72.5c0-1.2-0.3-2.1-0.9-2.7s-1.7-1.3-3.4-1.9c-3-1.1-5.1-2.4-6.4-3.9c-1.3-1.5-1.9-3.3-1.9-5.3
			c0-2.5,0.9-4.5,2.6-6s4-2.3,6.7-2.3c1.8,0,3.4,0.4,4.8,1.1c1.4,0.8,2.5,1.8,3.3,3.2s1.1,3,1.1,4.7h-5.9c0-1.4-0.3-2.4-0.9-3.1
			s-1.4-1.1-2.5-1.1c-1,0-1.8,0.3-2.4,0.9c-0.6,0.6-0.9,1.4-0.9,2.5c0,0.8,0.3,1.5,1,2.2c0.6,0.7,1.8,1.3,3.4,2c2.9,1,5,2.3,6.3,3.8
			c1.3,1.5,2,3.4,2,5.8c0,2.6-0.8,4.6-2.4,6c-1.6,1.4-3.9,2.2-6.7,2.2c-1.9,0-3.6-0.4-5.2-1.2c-1.6-0.8-2.8-1.9-3.7-3.4
			c-0.9-1.5-1.3-3.2-1.3-5.2h6c0,1.7,0.3,2.9,1,3.7c0.7,0.8,1.7,1.2,3.2,1.2C369.8,75.8,370.8,74.7,370.8,72.5z"/>
		<path class="st1" d="M401.5,68.1c0,4-0.9,7-2.8,9.2s-4.5,3.3-7.8,3.3c-3.3,0-5.9-1.1-7.8-3.2c-1.9-2.2-2.8-5.2-2.9-9.1v-5
			c0-4,0.9-7.2,2.8-9.5c1.9-2.3,4.5-3.4,7.8-3.4c3.3,0,5.9,1.1,7.8,3.4s2.8,5.4,2.9,9.4V68.1z M395.5,63.2c0-2.7-0.4-4.6-1.1-5.9
			c-0.8-1.3-1.9-1.9-3.5-1.9c-1.6,0-2.7,0.6-3.5,1.9c-0.8,1.2-1.1,3.1-1.2,5.7v5.2c0,2.6,0.4,4.5,1.2,5.7c0.8,1.2,2,1.8,3.6,1.8
			c1.6,0,2.7-0.6,3.5-1.8c0.8-1.2,1.1-3,1.2-5.6V63.2z"/>
		<path class="st1" d="M424.9,72.1l5-21.4h6.6L428,80.2h-6.2l-8.4-29.5h6.6L424.9,72.1z"/>
		<path class="st1" d="M439,52.7c0-0.9,0.3-1.6,0.9-2.2c0.6-0.6,1.3-0.9,2.3-0.9c0.9,0,1.7,0.3,2.3,0.9c0.6,0.6,0.9,1.3,0.9,2.2
			c0,0.9-0.3,1.6-0.8,2.2c-0.6,0.6-1.3,0.9-2.3,0.9c-1,0-1.7-0.3-2.3-0.9C439.3,54.3,439,53.5,439,52.7z M445,80.2h-5.8V58.3h5.8
			V80.2z"/>
		<path class="st1" d="M460.3,63.9l-1.9-0.2c-1.6,0-2.6,0.7-3.2,2.1v14.5h-5.8V58.3h5.4l0.2,2.4c0.9-1.8,2.2-2.8,3.7-2.8
			c0.6,0,1.2,0.1,1.6,0.3L460.3,63.9z"/>
		<path class="st1" d="M470.9,52.9v5.4h2.9v4.3h-2.9v10.9c0,0.9,0.1,1.5,0.4,1.8c0.2,0.3,0.7,0.5,1.4,0.5c0.6,0,1,0,1.4-0.1l0,4.5
			c-1,0.4-2,0.5-3.2,0.5c-3.7,0-5.6-2.1-5.6-6.4V62.6h-2.5v-4.3h2.5v-5.4H470.9z"/>
		<path class="st1" d="M487.7,78.2c-1.2,1.6-2.8,2.4-4.8,2.4c-2,0-3.5-0.7-4.6-2.1c-1-1.4-1.6-3.4-1.6-6V58.3h5.7v14.3
			c0,2.1,0.7,3.2,2.1,3.2c1.3,0,2.3-0.6,2.8-1.7V58.3h5.8v21.9h-5.4L487.7,78.2z"/>
		<path class="st1" d="M507.8,80.2c-0.2-0.3-0.3-0.9-0.5-1.7c-1,1.4-2.4,2.1-4.2,2.1c-1.8,0-3.4-0.6-4.6-1.8
			c-1.2-1.2-1.8-2.8-1.8-4.7c0-2.3,0.7-4.1,2.2-5.3c1.5-1.3,3.6-1.9,6.3-1.9h1.7v-1.8c0-1-0.2-1.7-0.5-2.1c-0.3-0.4-0.8-0.6-1.5-0.6
			c-1.4,0-2.1,0.8-2.1,2.5h-5.7c0-2,0.8-3.7,2.3-5s3.4-2,5.8-2c2.4,0,4.3,0.6,5.6,1.9s2,3,2,5.4v10.3c0,1.9,0.3,3.4,0.8,4.4v0.3
			H507.8z M504.4,76.1c0.6,0,1.2-0.1,1.6-0.4c0.4-0.3,0.8-0.6,1-0.9v-4.6h-1.4c-1,0-1.7,0.3-2.3,0.9c-0.6,0.6-0.8,1.5-0.8,2.5
			C502.5,75.3,503.1,76.1,504.4,76.1z"/>
		<path class="st1" d="M522.9,80.2h-5.8V49.1h5.8V80.2z"/>
		<path class="st1" d="M60.9,120.2c-0.1,3.4-1.1,5.9-2.8,7.6c-1.7,1.7-4.2,2.6-7.4,2.6c-3.3,0-5.9-1.1-7.7-3.3
			c-1.8-2.2-2.7-5.3-2.7-9.4v-5c0-4,0.9-7.2,2.8-9.4c1.8-2.2,4.4-3.3,7.7-3.3c3.2,0,5.7,0.9,7.3,2.7c1.7,1.8,2.6,4.4,2.8,7.7h-6
			c-0.1-2.1-0.4-3.5-1-4.3c-0.6-0.8-1.7-1.2-3.2-1.2c-1.6,0-2.7,0.6-3.4,1.7c-0.7,1.1-1,2.9-1.1,5.5v5.6c0,2.9,0.3,4.9,1,6
			c0.7,1.1,1.8,1.6,3.4,1.6c1.6,0,2.6-0.4,3.2-1.1c0.6-0.8,0.9-2.1,1-4.1H60.9z"/>
		<path class="st1" d="M74.7,130c-0.2-0.3-0.3-0.9-0.5-1.7c-1,1.4-2.4,2.1-4.2,2.1c-1.8,0-3.4-0.6-4.6-1.8c-1.2-1.2-1.8-2.8-1.8-4.7
			c0-2.3,0.7-4.1,2.2-5.3c1.5-1.3,3.6-1.9,6.3-1.9h1.7v-1.8c0-1-0.2-1.7-0.5-2.1c-0.3-0.4-0.8-0.6-1.5-0.6c-1.4,0-2.1,0.8-2.1,2.5
			H64c0-2,0.8-3.7,2.3-5c1.5-1.3,3.4-2,5.8-2c2.4,0,4.3,0.6,5.6,1.9c1.3,1.2,2,3,2,5.4v10.3c0,1.9,0.3,3.4,0.8,4.4v0.3H74.7z
			 M71.3,125.9c0.6,0,1.2-0.1,1.6-0.4c0.4-0.3,0.8-0.6,1-0.9V120h-1.4c-1,0-1.7,0.3-2.3,0.9s-0.8,1.5-0.8,2.5
			C69.4,125.1,70,125.9,71.3,125.9z"/>
		<path class="st1" d="M89.1,108.1l0.2,2c1.3-1.6,3-2.4,5.1-2.4c2.2,0,3.7,1,4.6,3c1.3-2,3-3,5.4-3c3.8,0,5.8,2.7,5.9,8V130h-5.7
			v-14c0-1.3-0.2-2.2-0.5-2.7c-0.4-0.5-0.9-0.8-1.8-0.8c-1.1,0-1.9,0.7-2.4,2l0,0.7V130h-5.7v-14c0-1.3-0.2-2.2-0.5-2.7
			c-0.3-0.6-0.9-0.8-1.8-0.8c-1,0-1.8,0.5-2.3,1.6V130h-5.7v-21.9H89.1z"/>
		<path class="st1" d="M131.6,119.7c0,3.4-0.6,6.1-1.8,7.9c-1.2,1.8-2.9,2.8-5.3,2.8c-1.8,0-3.2-0.7-4.3-2.2v10.2h-5.7v-30.3h5.3
			l0.2,2c1.1-1.6,2.6-2.4,4.5-2.4c2.3,0,4.1,0.9,5.3,2.6c1.2,1.7,1.8,4.3,1.8,7.8V119.7z M125.9,118.3c0-2.1-0.2-3.6-0.7-4.5
			c-0.5-0.9-1.3-1.3-2.4-1.3c-1.2,0-2,0.5-2.6,1.5v10.3c0.5,0.9,1.4,1.4,2.6,1.4c1.1,0,1.9-0.5,2.4-1.4c0.4-1,0.7-2.4,0.7-4.5V118.3
			z"/>
		<path class="st1" d="M145.8,128c-1.2,1.6-2.8,2.4-4.8,2.4c-2,0-3.5-0.7-4.6-2.1c-1-1.4-1.6-3.4-1.6-6v-14.2h5.7v14.3
			c0,2.1,0.7,3.2,2.1,3.2c1.3,0,2.3-0.6,2.8-1.7v-15.8h5.8V130H146L145.8,128z"/>
		<path class="st1" d="M165.2,124.1c0-0.5-0.2-0.9-0.7-1.3c-0.5-0.4-1.5-1-3.1-1.7c-2.4-1-4-2-4.9-3c-0.9-1-1.3-2.3-1.3-3.8
			c0-1.9,0.7-3.5,2.1-4.7c1.4-1.2,3.2-1.9,5.5-1.9c2.4,0,4.3,0.6,5.8,1.9c1.4,1.2,2.2,2.9,2.2,5h-5.7c0-1.8-0.7-2.7-2.2-2.7
			c-0.6,0-1.1,0.2-1.5,0.6c-0.4,0.4-0.6,0.9-0.6,1.6c0,0.5,0.2,0.9,0.6,1.3c0.4,0.4,1.5,0.9,3.1,1.6c2.3,0.9,4,1.8,5,2.9
			c1,1.1,1.4,2.4,1.4,4.1c0,2-0.7,3.5-2.2,4.7c-1.5,1.2-3.4,1.8-5.8,1.8c-1.6,0-3-0.3-4.3-0.9c-1.2-0.6-2.2-1.5-2.9-2.6
			c-0.7-1.1-1-2.3-1-3.6h5.4c0,1,0.3,1.7,0.7,2.2s1.2,0.7,2.2,0.7C164.4,126.2,165.2,125.5,165.2,124.1z"/>
		<path class="st1" d="M199.1,122.7c0-1.6-0.5-2.9-1.4-3.9c-0.9-0.9-2.7-1.8-5.3-2.7c-2.6-0.9-4.4-1.8-5.6-2.9
			c-1.6-1.4-2.4-3.2-2.4-5.5c0-2.3,0.8-4.1,2.3-5.5c1.6-1.4,3.6-2.1,6-2.1c2.5,0,4.6,0.8,6.2,2.5c1.6,1.6,2.4,3.8,2.4,6.4H199
			c0-2-0.6-3.6-1.7-4.8c-1.1-1.2-2.6-1.8-4.5-1.8c-1.9,0-3.3,0.5-4.4,1.5c-1.1,1-1.6,2.3-1.6,3.9c0,1.5,0.5,2.7,1.5,3.6
			c1,0.9,2.6,1.8,4.8,2.5c2.2,0.7,3.9,1.5,5,2.3c1.1,0.8,2,1.7,2.5,2.8c0.5,1.1,0.8,2.3,0.8,3.8c0,2.3-0.8,4.2-2.3,5.6
			c-1.6,1.4-3.6,2.1-6.2,2.1c-1.7,0-3.3-0.4-4.7-1.1c-1.4-0.7-2.5-1.7-3.3-3.1c-0.8-1.3-1.2-2.9-1.2-4.7h2.3c0,2.1,0.6,3.7,1.9,4.9
			c1.3,1.2,2.9,1.8,5.1,1.8c1.9,0,3.4-0.5,4.5-1.5S199.1,124.4,199.1,122.7z"/>
		<path class="st1" d="M213.4,130.4c-2.6,0-4.6-0.8-6.1-2.5c-1.5-1.7-2.2-4.1-2.2-7.2V118c0-3.2,0.7-5.7,2.1-7.6s3.3-2.7,5.8-2.7
			c2.4,0,4.2,0.8,5.4,2.3c1.2,1.6,1.9,3.9,1.9,7.1v2.1h-13v1.2c0,2.5,0.5,4.4,1.6,5.8s2.6,2,4.5,2c2.2,0,3.9-0.8,5.2-2.4l1.2,1.5
			C218.5,129.4,216.3,130.4,213.4,130.4z M213,109.8c-1.8,0-3.1,0.6-4.1,1.9c-1,1.2-1.5,3.1-1.6,5.5h10.8v-0.6
			C218,112,216.3,109.8,213,109.8z"/>
		<path class="st1" d="M224.4,118c0-3.4,0.6-6,1.8-7.7s3-2.6,5.3-2.6c2.5,0,4.3,1.1,5.6,3.3V98.9h2.2V130h-2.1l-0.1-2.8
			c-1.2,2.1-3.1,3.2-5.6,3.2c-2.3,0-4.1-0.9-5.3-2.6c-1.2-1.8-1.8-4.2-1.9-7.5V118z M226.6,120.1c0,2.8,0.4,4.9,1.3,6.2
			c0.8,1.3,2.2,2,4,2c2.4,0,4.1-1.1,5.1-3.4v-11.4c-1-2.4-2.7-3.7-5.1-3.7c-1.8,0-3.2,0.7-4,2c-0.8,1.3-1.3,3.3-1.3,6.1V120.1z"/>
		<path class="st1" d="M252.6,130.4c-2.6,0-4.6-0.8-6.1-2.5c-1.5-1.7-2.2-4.1-2.2-7.2V118c0-3.2,0.7-5.7,2.1-7.6s3.3-2.7,5.8-2.7
			c2.4,0,4.2,0.8,5.4,2.3c1.2,1.6,1.9,3.9,1.9,7.1v2.1h-13v1.2c0,2.5,0.5,4.4,1.6,5.8s2.6,2,4.5,2c2.2,0,3.9-0.8,5.2-2.4l1.2,1.5
			C257.7,129.4,255.5,130.4,252.6,130.4z M252.2,109.8c-1.8,0-3.1,0.6-4.1,1.9c-1,1.2-1.5,3.1-1.6,5.5h10.8v-0.6
			C257.2,112,255.5,109.8,252.2,109.8z"/>
		<path class="st1" d="M287.6,121.7h-11.1L274,130h-2.4l9.4-29.5h2.1l9.4,29.5h-2.4L287.6,121.7z M277.2,119.6h9.7l-4.9-15.8
			L277.2,119.6z"/>
		<path class="st1" d="M305,110.2c-0.5-0.1-1-0.1-1.4-0.1c-1.2,0-2.3,0.4-3.1,1.3c-0.8,0.8-1.4,2-1.8,3.5V130h-2.2v-21.9h2.2l0,3.3
			c1.1-2.5,2.7-3.7,5-3.7c0.6,0,1,0.1,1.4,0.3L305,110.2z"/>
		<path class="st1" d="M307.8,118c0-3.5,0.6-6,1.8-7.8c1.2-1.7,3-2.6,5.3-2.6c2.5,0,4.4,1.2,5.6,3.5l0.1-3.1h2.1v22.5
			c0,2.6-0.6,4.7-1.9,6c-1.2,1.4-3.1,2.1-5.5,2.1c-1.2,0-2.4-0.3-3.6-0.9s-2.1-1.3-2.8-2.2l1.1-1.6c1.5,1.7,3.2,2.6,5.2,2.6
			c1.8,0,3.1-0.5,4-1.5s1.3-2.4,1.3-4.4v-3.5c-1.2,2.1-3.1,3.1-5.6,3.1c-2.3,0-4-0.9-5.2-2.6c-1.2-1.7-1.8-4.2-1.9-7.4V118z
			 M310,120.1c0,2.8,0.4,4.9,1.3,6.2c0.8,1.3,2.2,2,4,2c2.4,0,4.1-1.2,5.1-3.5v-11.2c-1-2.5-2.7-3.7-5.1-3.7c-1.8,0-3.2,0.7-4,2
			c-0.8,1.3-1.3,3.3-1.3,6.1V120.1z"/>
		<path class="st1" d="M336,130.4c-2.6,0-4.6-0.8-6.1-2.5c-1.5-1.7-2.2-4.1-2.2-7.2V118c0-3.2,0.7-5.7,2.1-7.6
			c1.4-1.8,3.3-2.7,5.8-2.7c2.4,0,4.2,0.8,5.4,2.3c1.2,1.6,1.9,3.9,1.9,7.1v2.1h-13v1.2c0,2.5,0.5,4.4,1.6,5.8s2.6,2,4.5,2
			c2.2,0,3.9-0.8,5.2-2.4l1.2,1.5C341,129.4,338.9,130.4,336,130.4z M335.6,109.8c-1.8,0-3.1,0.6-4.1,1.9c-1,1.2-1.5,3.1-1.6,5.5
			h10.8v-0.6C340.6,112,338.9,109.8,335.6,109.8z"/>
		<path class="st1" d="M349.8,108.1l0.1,3.5c0.6-1.2,1.5-2.1,2.5-2.8c1-0.7,2.1-1.1,3.4-1.1c3.8,0,5.8,2.5,5.9,7.6V130h-2.2v-14.4
			c0-2-0.4-3.4-1-4.3c-0.7-0.9-1.7-1.4-3.2-1.4c-1.2,0-2.2,0.4-3.2,1.3c-0.9,0.9-1.7,2.1-2.1,3.6V130h-2.2v-21.9H349.8z"/>
		<path class="st1" d="M371,102.5v5.6h3.7v2H371v14.6c0,1.2,0.2,2.1,0.5,2.7s1,0.9,1.8,0.9c0.4,0,0.9-0.1,1.6-0.2l0.1,2
			c-0.5,0.2-1.2,0.3-2.2,0.3c-2.6,0-4-1.8-4-5.4v-14.9h-3.4v-2h3.4v-5.6H371z"/>
		<path class="st1" d="M379.6,101.8c0-0.5,0.1-0.9,0.4-1.2c0.3-0.3,0.6-0.5,1.1-0.5c0.5,0,0.8,0.2,1.1,0.5c0.3,0.3,0.4,0.7,0.4,1.2
			s-0.1,0.8-0.4,1.2c-0.3,0.3-0.6,0.5-1.1,0.5c-0.5,0-0.8-0.2-1.1-0.5C379.7,102.6,379.6,102.2,379.6,101.8z M382.2,130h-2.3v-21.9
			h2.3V130z"/>
		<path class="st1" d="M390.6,108.1l0.1,3.5c0.6-1.2,1.5-2.1,2.5-2.8c1-0.7,2.1-1.1,3.4-1.1c3.8,0,5.8,2.5,5.9,7.6V130h-2.2v-14.4
			c0-2-0.4-3.4-1-4.3s-1.7-1.4-3.2-1.4c-1.2,0-2.2,0.4-3.2,1.3c-0.9,0.9-1.7,2.1-2.1,3.6V130h-2.2v-21.9H390.6z"/>
		<path class="st1" d="M420,130c-0.2-0.7-0.3-1.7-0.4-3c-0.7,1.1-1.5,1.9-2.6,2.5c-1.1,0.6-2.2,0.9-3.5,0.9c-1.9,0-3.4-0.5-4.4-1.6
			c-1.1-1.1-1.6-2.6-1.6-4.6c0-2.1,0.7-3.8,2.2-5.1c1.5-1.3,3.5-1.9,6.1-1.9h3.8v-3.1c0-1.6-0.4-2.7-1.2-3.4s-1.9-1-3.4-1
			c-1.4,0-2.5,0.4-3.4,1.2s-1.3,1.9-1.3,3.1l-2.2,0c0-1.8,0.7-3.3,2-4.6c1.3-1.2,3-1.9,5.1-1.9c2.2,0,3.9,0.6,5,1.7
			c1.1,1.1,1.7,2.7,1.7,4.8v10.8c0,2.1,0.2,3.8,0.6,4.8v0.2H420z M413.8,128.2c1.3,0,2.5-0.3,3.5-1s1.8-1.6,2.2-2.8v-5.3H416
			c-2.1,0-3.6,0.5-4.6,1.4c-1,0.9-1.6,2.1-1.6,3.6C409.8,126.8,411.1,128.2,413.8,128.2z"/>
	</g>
	
		<rect x="544.9" y="72.7" transform="matrix(0.7071 0.7071 -0.7071 0.7071 228.3309 -371.1892)" class="st0" width="34.7" height="34.7"/>
</g>
</svg>
