<?xml version="1.0" encoding="utf-8"?>
<!-- Generator: Adobe Illustrator 23.0.6, SVG Export Plug-In . SVG Version: 6.00 Build 0)  -->
<svg version="1.1" id="Capa_1" xmlns="http://www.w3.org/2000/svg" xmlns:xlink="http://www.w3.org/1999/xlink" x="0px" y="0px"
	 viewBox="0 0 300 300" style="enable-background:new 0 0 300 300;" xml:space="preserve">
<style type="text/css">
	.st0{fill:#FFFFFF;}
	.st1{fill:none;stroke:#00BDF2;stroke-width:2.3107;stroke-miterlimit:10;}
	.st2{fill:#00BDF2;}
</style>
<g>
	<circle class="st0" cx="150" cy="150" r="147.5"/>
	<circle class="st1" cx="150" cy="150" r="138.6"/>
</g>
<g>
	<g>
		<path class="st2" d="M151.6,86.5c32.2,0.5,61.9,11.7,87.1,34.4c2.1,1.9,2.5,5.1,0.2,7.2c-3,2.8-5.8,5.7-8.7,8.6
			c-2.5,2.4-4.7,2.6-7.3,0.3c-5.9-5.4-12.4-10-19.3-13.9c-11.6-6.6-24-11.1-37.3-12.8c-6.2-0.8-12.4-1.4-18.6-1.2
			c-21.8,0.4-41.7,6.8-59.6,19.2c-3.8,2.6-7.2,5.6-10.8,8.5c-2.9,2.4-5,2.4-7.7-0.3c-2.8-2.8-5.6-5.7-8.5-8.4
			c-2.3-2.1-2-5.5,0.3-7.5c8.7-7.7,18.1-14.3,28.4-19.7c11.9-6.2,24.6-10.4,37.8-12.6C135,87.3,142.5,86.6,151.6,86.5z"/>
		<path class="st2" d="M147.8,132c23.6,0.3,42.5,7.1,58.8,21c3.1,2.6,3.1,5,0.2,7.8c-2.9,2.8-5.8,5.6-8.7,8.5
			c-2.2,2.2-4.4,2.4-6.8,0.4c-4-3.4-8.4-6.2-13.2-8.5c-11.6-5.7-23.7-7.7-36.5-6c-12.2,1.6-23,6.4-32.5,14.1c-3.3,2.6-5,2.5-8-0.5
			c-2.7-2.6-5.4-5.2-8.1-7.9c-2.9-2.8-2.8-5.2,0.3-7.8c12.3-10.6,26.5-17.2,42.5-19.8C140.5,132.4,145.3,132.2,147.8,132z"/>
		<path class="st2" d="M150,177.5c10,0,18,8,18,18c0,9.8-8.3,18.1-18.1,18c-10-0.1-18-8.2-18-18.1C131.9,185.4,140,177.5,150,177.5z
			"/>
	</g>
</g>
</svg>
