<?xml version="1.0" encoding="utf-8"?>
<!-- Generator: Adobe Illustrator 23.0.6, SVG Export Plug-In . SVG Version: 6.00 Build 0)  -->
<svg version="1.1" id="Capa_1" xmlns="http://www.w3.org/2000/svg" xmlns:xlink="http://www.w3.org/1999/xlink" x="0px" y="0px"
	 viewBox="0 0 300 300" style="enable-background:new 0 0 300 300;" xml:space="preserve">
<style type="text/css">
	.st0{fill:#FFFFFF;}
	.st1{fill:none;stroke:#00BDF2;stroke-width:2.3107;stroke-miterlimit:10;}
	.st2{fill:#00BDF2;}
</style>
<g>
	<g>
		<circle class="st0" cx="150" cy="150" r="147.5"/>
		<circle class="st1" cx="150" cy="150" r="138.6"/>
	</g>
	<g>
		<g>
			<path class="st2" d="M92.2,152.7c0-20.9,0-41.7,0-62.6c0-8.6,7.2-14.5,14.4-14.4c20.5,0.2,41,0.1,61.5,0c3.9,0,7.2,1.3,10,4.1
				c8.4,8.4,16.8,16.8,25.2,25.2c3,3,4.4,6.6,4.4,10.8c0,33.2,0,66.3,0,99.5c0,8.2-6.3,14.5-14.5,14.5c-28.8,0-57.6,0-86.4,0
				c-8.3,0-14.6-6.3-14.6-14.6C92.2,194.3,92.2,173.5,92.2,152.7z M193.4,128.5c-0.9,0-1.6,0-2.3,0c-9.4,0-18.8,0-28.2,0
				c-4.4,0-8-3.1-7.9-7.9c0.2-9.5,0-19,0.1-28.6c0-1.7-0.3-2.3-2.2-2.3c-14.8,0.1-29.5,0.1-44.3,0c-1.7,0-2.1,0.5-2.1,2.2
				c0,40.6,0,81.1,0,121.7c0,0.6,0.1,1.2,0.1,1.9c29,0,57.9,0,86.8,0C193.4,186.5,193.4,157.6,193.4,128.5z M192.1,114.1
				c-7.7-7.6-15.3-15.1-22.8-22.5c0,7.3,0,14.8,0,22.5C176.9,114.1,184.5,114.1,192.1,114.1z"/>
			<path class="st2" d="M153.8,143.4c-0.7,3.7-1.3,7.3-2,10.9c-0.3,1.3-0.2,2.5,0.3,3.7c2.1,4.6,5,8.6,9.4,11.4
				c0.8,0.5,1.9,0.7,2.8,0.6c4.6-0.4,9.3-0.9,13.9,0.2c5.2,1.2,7.3,6.8,4.1,10.9c-1.3,1.6-3.1,2.4-5.1,2.3
				c-4.7-0.1-9.1-1.2-13.2-3.3c-2.8-1.5-5.4-1.7-8.4-0.8c-5.1,1.7-10.3,3.2-15.4,4.9c-0.7,0.2-1.3,1-1.7,1.6
				c-2.6,4.1-5.1,8.2-8.9,11.3c-1.6,1.3-3.5,2.4-5.4,3.2c-2.2,1-4.3,0.2-5.9-1.5c-1.6-1.7-2.1-3.8-1.3-6c1.2-3.1,3.3-5.4,6-7.2
				c2.3-1.6,4.7-2.8,7-4.4c1.1-0.8,2.3-1.7,2.9-2.9c3.1-6.3,6.2-12.7,9.1-19.1c0.5-1,0.5-2.4,0.3-3.5c-0.6-4-1.6-7.9-2.1-11.9
				c-0.2-1.9,0.1-4,0.4-5.9c0.4-2.5,2.7-4.2,5.3-4.4c3.1-0.2,5.8,1.1,6.7,3.8C153,139.3,153.3,141.3,153.8,143.4z M155.6,173.5
				c-2.9-3.4-5.9-7-8.7-10.4c-2.3,5.2-4.8,10.6-7.3,16.2C145.1,177.3,150.5,175.3,155.6,173.5z M168.3,174.8
				c-0.1,0.4-0.1,0.8-0.2,1.2c3.1,0.8,6.1,1.6,9.3,2.3c0.6,0.1,1.4-0.5,2.2-0.8c-0.5-0.5-1-1.4-1.6-1.5
				C174.7,175.4,171.5,175.2,168.3,174.8z M147.4,150c2-2.5,1.8-10.6-0.4-11.9C145.9,140,146.1,146.2,147.4,150z M131,185.6
				c-3.3,2.9-6.9,5.5-8.5,9.8C126.3,193,128.7,189.4,131,185.6z"/>
		</g>
	</g>
</g>
</svg>
