<?xml version="1.0" encoding="utf-8"?>
<!-- Generator: Adobe Illustrator 23.0.6, SVG Export Plug-In . SVG Version: 6.00 Build 0)  -->
<svg version="1.1" id="Capa_1" xmlns="http://www.w3.org/2000/svg" xmlns:xlink="http://www.w3.org/1999/xlink" x="0px" y="0px"
	 viewBox="0 0 300 300" style="enable-background:new 0 0 300 300;" xml:space="preserve">
<style type="text/css">
	.st0{fill:#FFFFFF;}
	.st1{fill:none;stroke:#EC1858;stroke-width:2.3107;stroke-miterlimit:10;}
	.st2{fill:#EC1858;}
</style>
<g>
	<circle class="st0" cx="150" cy="150" r="147.5"/>
	<circle class="st1" cx="150" cy="150" r="138.6"/>
</g>
<g>
	<g>
		<path class="st2" d="M83.7,150c0-14.7,0-29.5,0-44.2c0-7.1,0-14.2,0-21.2c0-1-0.1-2,0.1-2.9c0.4-1.2,1-2.4,1.6-3.6
			c0.8-1.4,2.2-2.3,3.6-3c1.4-0.7,3-0.8,4.6-0.8c11.6,0,23.2,0,34.9,0c26.1,0,52.1,0,78.2,0c2.4,0,4.6,0.6,6.5,2.2
			c1.4,1.2,2.3,2.7,2.8,4.4c0.3,0.9,0.4,1.9,0.4,2.8c0,5.9,0,11.8,0,17.7c0,6.6,0,13.2,0,19.8c0,6.2,0,12.4,0,18.7
			c0,6.5,0,13,0,19.4c0,6.4,0,12.7,0,19.1c0,5.7,0,11.4,0,17.1c0,6.8,0,13.7,0,20.5c0,2.5-0.6,4.7-2.2,6.7c-1,1.3-2.3,2-3.8,2.7
			c-1.5,0.7-3.2,0.6-4.8,0.6c-13.1,0-26.2,0-39.4,0c-17.3,0-34.6,0-52,0c-7.1,0-14.1,0-21.2,0c-2.8,0-5.1-1.1-7.1-3
			c-1.2-1.2-1.8-2.7-2.2-4.3c-0.2-0.7-0.1-1.5-0.1-2.2c0-21.6,0-43.3,0-64.9C83.7,150.9,83.7,150.4,83.7,150
			C83.7,150,83.7,150,83.7,150z M202.5,150c0-20.1,0-40.3,0-60.4c0-1.5,0-1.5-1.5-1.5c-11.1,0-22.3,0-33.4,0c-22.9,0-45.9,0-68.8,0
			c-1.2,0-1.2,0-1.2,1.2c0,17.4,0,34.8,0,52.2c0,18.1,0,36.1,0,54.2c0,5.2,0,10.5,0,15.7c0,0.4,0.1,0.6,0.5,0.6c4.9,0,9.7,0,14.6,0
			c25.2,0,50.4,0,75.6,0c4.5,0,9,0,13.6,0c0.6,0,0.7-0.1,0.7-0.7c0-1.7,0-3.5,0-5.2C202.5,187.4,202.5,168.7,202.5,150z"/>
		<path class="st2" d="M164.2,195c-5.6,0-11.2,0-16.8,0c-1.4,0-2.8,0-4.3,0c-1.6,0-2.5-0.9-2.5-2.5c0-3,0-5.9,0-8.9
			c0-1.7,0.8-2.6,2.6-2.6c2.1,0,4.2,0,6.3,0c11.9,0,23.7,0,35.6,0c1,0,2.1,0.1,2.5,1.2c0.1,0.3,0.2,0.7,0.2,1c0,3.1,0,6.3,0,9.4
			c0,1.5-0.9,2.3-2.5,2.3C178.3,195,171.2,195,164.2,195C164.2,195,164.2,195,164.2,195z"/>
		<path class="st2" d="M164.3,105.1c7,0,13.9,0,20.9,0c0.9,0,1.8,0.1,2.3,1c0.1,0.3,0.3,0.6,0.3,0.9c0,3.3,0,6.6,0,9.9
			c0,1.2-0.8,1.9-2,2c-2.7,0-5.3,0-8,0c-11.6,0-23.1,0-34.7,0c-1.7,0-2.5-0.7-2.5-2.5c0-3,0-5.9,0-8.9c0-0.9,0.2-1.7,1-2.2
			c0.2-0.1,0.5-0.3,0.8-0.3c2.4,0,4.7,0,7.1,0C154.5,105.1,159.4,105.1,164.3,105.1z"/>
		<path class="st2" d="M141.5,156.9c0.8-0.8,1.5-1.5,2.2-2.2c2.8-2.8,5.7-5.7,8.5-8.6c0.7-0.7,1.1-1.8,1.6-2.7
			c0.1-0.2,0.4-0.4,0.5-0.4c10.3,0,20.6,0,30.8,0c1,0,1.9,0.2,2.4,1.3c0.1,0.3,0.2,0.7,0.2,1.1c0,3,0,6,0,9c0,1.9-1.2,2.5-2.6,2.5
			c-2.3,0-4.6,0-6.9,0c-8.5,0-16.9,0-25.4,0c-3.7,0-7.4,0-11.1,0C141.8,156.9,141.7,156.9,141.5,156.9z"/>
		<path class="st2" d="M121.5,102.7c1.7,0,3.4,0,5.2,0c2.3,0.1,4.2,2,4.2,4.2c0,3.4,0,6.7,0,10.1c0,2.4-2,4.3-4.4,4.4
			c-3.3,0-6.7,0-10,0c-2.1,0-4-1.8-4.2-3.9c-0.1-1-0.1-2.1-0.1-3.1c0-2.6-0.1-5.2,0.1-7.7c0.1-2.1,1.9-3.8,4-3.9c0.9,0,1.8,0,2.6,0
			C119.7,102.7,120.6,102.7,121.5,102.7C121.5,102.7,121.5,102.7,121.5,102.7z"/>
		<path class="st2" d="M121.5,178.7c1.7,0,3.5,0,5.2,0c2.1,0,4,2,4.1,4.1c0,3.4,0,6.9,0,10.3c0,1.8-1.5,3.6-3.2,4
			c-0.8,0.2-1.6,0.3-2.4,0.3c-2.7,0-5.5,0-8.2,0c-2.8,0-4.9-2-4.8-4.8c0-3.4-0.1-6.7,0.1-10.1c0.1-2.1,1.9-3.8,4-3.8
			C118,178.7,119.8,178.7,121.5,178.7C121.5,178.7,121.5,178.7,121.5,178.7z"/>
		<path class="st2" d="M117.4,141.4c0.5,0.3,0.9,0.5,1.2,0.8c1.8,1.8,3.6,3.7,5.4,5.5c0.5,0.5,0.6,0.5,1.1,0
			c3.9-3.9,7.8-7.8,11.7-11.7c0.5-0.5,1.1-1.1,1.6-1.6c0.9-0.9,1.9-0.9,2.8,0c1,1.1,2.1,2.1,3.1,3.2c0.9,1,0.9,1.8,0,2.7
			c-4.1,4.1-8.2,8.1-12.3,12.1c-1.9,1.9-3.8,3.7-5.7,5.6c-0.2,0.2-0.4,0.4-0.6,0.6c-0.9,0.8-1.7,0.8-2.6-0.1c-2.5-2.5-5-5.1-7.5-7.7
			c-1-1-1.9-2-2.9-2.9c-0.9-0.9-0.9-1.7,0-2.6c1.1-1.1,2.1-2.2,3.3-3.2C116.4,141.9,116.9,141.7,117.4,141.4z"/>
	</g>
</g>
</svg>
