<?xml version="1.0" encoding="utf-8"?>
<!-- Generator: Adobe Illustrator 23.0.6, SVG Export Plug-In . SVG Version: 6.00 Build 0)  -->
<svg version="1.1" id="Capa_1" xmlns="http://www.w3.org/2000/svg" xmlns:xlink="http://www.w3.org/1999/xlink" x="0px" y="0px"
	 viewBox="0 0 300 300" style="enable-background:new 0 0 300 300;" xml:space="preserve">
<style type="text/css">
	.st0{fill:#FFFFFF;}
	.st1{fill:none;stroke:#003366;stroke-width:2.3107;stroke-miterlimit:10;}
	.st2{fill:#003366;}
</style>
<g>
	<g>
		<circle class="st0" cx="150" cy="150" r="147.5"/>
		<circle class="st1" cx="150" cy="150" r="138.6"/>
	</g>
	<g>
		<g>
			<path class="st2" d="M84.6,149.6c0.5,2.1,0.9,4.3,1.5,6.4c0.4,1.5,1.6,2.5,3.2,3c22.3,6.8,44.5,13.6,66.8,20.5
				c1.3,0.4,2,0.2,2.9-0.8c14.4-17.9,28.9-35.8,43.4-53.7c0.7-0.8,0.9-1.6,0.8-2.6c-0.5-3.5,0.1-6.9,1.1-10.3
				c1.1-3.5,4.1-5.1,7.6-4.1c2.9,0.8,4.5,4,3.8,7.3c-0.3,1.3-0.7,2.5-0.7,3.8c0,1.1,0.2,2.3,0.5,3.3c0.6,1.8,0.6,3.5-0.1,5.3
				c-2.6,6.7-3.3,13.6-1.6,20.6c0.3,1.4,0.8,2.8,1.4,4.1c1.2,2.8,0.8,5.2-1.1,7.6c-9.9,12.1-19.8,24.1-29.7,36.2
				c-6.3,7.7-12.6,15.4-19,23.1c-2.6,3.2-4.6,3.7-8.5,2.5c-23.4-7.5-46.8-14.9-70.2-22.5c-6.7-2.2-10.5-7.3-12.3-13.9
				c-2-7.1-1.5-13.9,2.4-20.4c0.2-0.4,0.2-1.2,0-1.6c-2.4-3.9-3.3-8.2-3.5-12.7c-0.2-6,0.1-11.9,3-17.3c0.9-1.7,1.9-3.3,3.2-4.8
				C96.5,109.4,113.8,90.2,131,71c2.1-2.3,4.3-3.1,7.4-2.4c22.8,5.2,45.7,10.4,68.5,15.6c1.3,0.3,2.7,0.6,4,0.9
				c4.9,1.2,6.4,5.5,3.2,9.4c-5.7,6.8-11.4,13.5-17.2,20.3c-12,14.2-24.1,28.4-36.1,42.7c-2.4,2.8-4,3.3-7.6,2.2
				c-19.8-6-39.7-12-59.5-17.9c-4.9-1.5-8,0.5-8.7,5.5c-0.1,0.7-0.1,1.5-0.2,2.3C84.7,149.5,84.6,149.5,84.6,149.6z M200.9,145.4
				c-0.4,0.5-0.8,0.9-1.2,1.4c-11.5,14.2-23,28.4-34.5,42.6c-2.5,3.1-4.6,3.7-8.4,2.6c-22.8-7-45.6-14-68.3-21c-1.3-0.4-1.8,0-2.3,1
				c-1.5,2.9-1.6,6-0.9,9.1c0.7,3.1,2,6,5.4,7.1c21.9,7,43.9,14,65.8,21c0.9,0.3,1.5,0.2,2.2-0.6c4.5-5.6,9.1-11.2,13.7-16.7
				c10-12.2,20-24.4,30-36.6c0.3-0.4,0.7-1.1,0.6-1.5C202.3,151.1,201.6,148.4,200.9,145.4z M167.6,108.2c1.1-0.5,2.7-0.9,3.8-1.8
				c1.6-1.4,3-3.3,4.4-5c0.8-1,0.6-2.1-0.6-2.8c-0.5-0.3-1.2-0.5-1.8-0.7c-6.9-1.7-13.9-3.4-20.8-5.1c-5.3-1.3-10.6-2.5-15.8-3.9
				c-3.3-0.8-6.1-0.2-8.1,2.7c-0.8,1.1-1.7,2-2.5,3c-1.4,1.7-1.1,3,1,3.8c0.4,0.2,0.9,0.3,1.3,0.4c9.9,2.4,19.8,4.8,29.7,7.2
				C161.2,106.7,164.2,107.4,167.6,108.2z"/>
		</g>
	</g>
</g>
</svg>
