<?xml version="1.0" encoding="utf-8"?>
<!-- Generator: Adobe Illustrator 23.0.6, SVG Export Plug-In . SVG Version: 6.00 Build 0)  -->
<svg version="1.1" id="Capa_1" xmlns="http://www.w3.org/2000/svg" xmlns:xlink="http://www.w3.org/1999/xlink" x="0px" y="0px"
	 viewBox="0 0 300 300" style="enable-background:new 0 0 300 300;" xml:space="preserve">
<style type="text/css">
	.st0{fill:#FFFFFF;}
	.st1{fill:none;stroke:#00BDF2;stroke-width:2.3107;stroke-miterlimit:10;}
	.st2{fill:#00BDF2;}
	.st3{fill:none;stroke:#DC522A;stroke-width:2.3107;stroke-miterlimit:10;}
	.st4{fill:#DC522A;}
</style>
<g>
	<g>
		<circle class="st0" cx="-309.1" cy="40.3" r="147.5"/>
		<circle class="st1" cx="-309.1" cy="40.3" r="138.6"/>
	</g>
	<g>
		<g>
			<path class="st2" d="M-366.9,43c0-20.9,0-41.7,0-62.6c0-8.6,7.2-14.5,14.4-14.4c20.5,0.2,41,0.1,61.5,0c3.9,0,7.2,1.3,10,4.1
				c8.4,8.4,16.8,16.8,25.2,25.2c3,3,4.4,6.6,4.4,10.8c0,33.2,0,66.3,0,99.5c0,8.2-6.3,14.5-14.5,14.5c-28.8,0-57.6,0-86.4,0
				c-8.3,0-14.6-6.3-14.6-14.6C-366.9,84.6-366.9,63.8-366.9,43z M-265.7,18.7c-0.9,0-1.6,0-2.3,0c-9.4,0-18.8,0-28.2,0
				c-4.4,0-8-3.1-7.9-7.9c0.2-9.5,0-19,0.1-28.6c0-1.7-0.3-2.3-2.2-2.3c-14.8,0.1-29.5,0.1-44.3,0c-1.7,0-2.1,0.5-2.1,2.2
				c0,40.6,0,81.1,0,121.7c0,0.6,0.1,1.2,0.1,1.9c29,0,57.9,0,86.8,0C-265.7,76.7-265.7,47.9-265.7,18.7z M-267.1,4.4
				c-7.7-7.6-15.3-15.1-22.8-22.5c0,7.3,0,14.8,0,22.5C-282.2,4.4-274.7,4.4-267.1,4.4z"/>
			<path class="st2" d="M-305.4,33.7c-0.7,3.7-1.3,7.3-2,10.9c-0.3,1.3-0.2,2.5,0.3,3.7c2.1,4.6,5,8.6,9.4,11.4
				c0.8,0.5,1.9,0.7,2.8,0.6c4.6-0.4,9.3-0.9,13.9,0.2c5.2,1.2,7.3,6.8,4.1,10.9c-1.3,1.6-3.1,2.4-5.1,2.3
				c-4.7-0.1-9.1-1.2-13.2-3.3c-2.8-1.5-5.4-1.7-8.4-0.8c-5.1,1.7-10.3,3.2-15.4,4.9c-0.7,0.2-1.3,1-1.7,1.6
				c-2.6,4.1-5.1,8.2-8.9,11.3c-1.6,1.3-3.5,2.4-5.4,3.2c-2.2,1-4.3,0.2-5.9-1.5c-1.6-1.7-2.1-3.8-1.3-6c1.2-3.1,3.3-5.4,6-7.2
				c2.3-1.6,4.7-2.8,7-4.4c1.1-0.8,2.3-1.7,2.9-2.9c3.1-6.3,6.2-12.7,9.1-19.1c0.5-1,0.5-2.4,0.3-3.5c-0.6-4-1.6-7.9-2.1-11.9
				c-0.2-1.9,0.1-4,0.4-5.9c0.4-2.5,2.7-4.2,5.3-4.4c3.1-0.2,5.8,1.1,6.7,3.8C-306.1,29.5-305.9,31.6-305.4,33.7z M-303.5,63.8
				c-2.9-3.4-5.9-7-8.7-10.4c-2.3,5.2-4.8,10.6-7.3,16.2C-314.1,67.5-308.7,65.6-303.5,63.8z M-290.8,65.1c-0.1,0.4-0.1,0.8-0.2,1.2
				c3.1,0.8,6.1,1.6,9.3,2.3c0.6,0.1,1.4-0.5,2.2-0.8c-0.5-0.5-1-1.4-1.6-1.5C-284.4,65.7-287.6,65.4-290.8,65.1z M-311.8,40.3
				c2-2.5,1.8-10.6-0.4-11.9C-313.3,30.3-313.1,36.5-311.8,40.3z M-328.2,75.8c-3.3,2.9-6.9,5.5-8.5,9.8
				C-332.8,83.2-330.4,79.6-328.2,75.8z"/>
		</g>
	</g>
</g>
<g>
	<g>
		<circle class="st0" cx="150" cy="150" r="147.5"/>
		<circle class="st3" cx="150" cy="150" r="138.6"/>
	</g>
	<g>
		<g>
			<path class="st4" d="M80.1,165c-11.2-3.4-15-11.2-14.8-22.1c0.3-16.2,0.1-32.4,0.1-48.6c0-13.3,7.3-20.5,20.6-20.5
				c28.9,0,57.7,0,86.6,0c13,0,20.3,7.3,20.3,20.3c0,17.1,0,34.1,0,51.2c0,12.5-7.3,20-19.8,20c-18.8,0.1-37.6,0.1-56.4,0
				c-3.2,0-5.4,0.9-7.6,3.2c-5.3,5.6-10.9,11-16.3,16.5c-2.3,2.4-4.9,3.8-8.2,2.5c-3.5-1.3-4.6-4.2-4.5-7.7
				C80.2,175,80.1,170.2,80.1,165z M117,107.1c2.8,0.5,5.3-0.1,7.2-3.7c0.8-1.5,4.4-2.5,6.4-2.1c1.8,0.3,4,2.6,4.5,4.5
				c1.6,4.9-0.9,8.6-4.7,11.7c-2.6,2.1-5.4,4.1-7.3,6.8c-1.2,1.7-1.6,4.4-1.3,6.5c0.1,0.7,3.5,1.1,5.4,1.3c1.4,0.2,3,0.3,4.3-0.1
				c1.1-0.3,2.6-1.2,2.7-2.1c0.8-3.9,3.5-5.8,6.5-7.8c6.8-4.5,9.2-10.8,7.5-18.5C146.8,97,141,92,133.5,91.3
				c-8.4-0.8-16.7-0.6-21.7,7.7C108.3,104.8,109.7,107,117,107.1z M127.9,137.6c-6.2,0-6.7,0.3-6.7,5.2c0,4.8,0.6,5.2,6.6,5.2
				c0.7,0,1.4,0,2.2,0c2.9,0.1,4.2-1.2,4.3-4.1C134.5,138.2,134,137.6,127.9,137.6z"/>
			<path class="st4" d="M119.5,178c0,2,0,4,0,6c0,6.9,1.7,8.6,8.4,8.6c20.4,0,40.8-0.1,61.2,0.1c2.2,0,4.7,1.2,6.4,2.6
				c3.7,3.3,6.9,7.1,11.4,10.3c0-4.2,0-8.4,0-13.1c3.4,0,6.2,0.1,8.9,0c3.7-0.2,6-2.1,6-6.1c0-18.1,0.1-36.2,0-54.2
				c0-4.2-2-6-6.2-6.1c-3.2-0.1-6.4,0-10,0c0-4.2,0-6.5,0-11.6c6.3-0.1,11.6-0.1,16.9,0.3c8.4,0.5,11.9,9.1,12,17.5
				c0.1,17.9,0.1,35.9,0,53.8c-0.1,8.6-4.2,14.6-12.2,18c-1.1,0.5-2.2,2.2-2.3,3.3c-0.3,4.2-0.1,8.4-0.1,12.7c0,3.2-1.2,5.7-4.2,7
				c-3.1,1.4-5.8,0.4-8-1.7c-5.9-5.8-11.7-11.9-17.7-17.5c-1.6-1.5-4.2-2.6-6.4-2.6c-19.4-0.2-38.8-0.1-58.2-0.1
				c-9,0-16.1-5.4-18-13.6c-0.4-1.6,0.3-4,1.4-5.3c2.8-3.2,6-6,9.1-9C118.6,177.5,119.1,177.7,119.5,178z"/>
		</g>
	</g>
</g>
</svg>
