<?xml version="1.0" encoding="utf-8"?>
<!-- Generator: Adobe Illustrator 23.0.6, SVG Export Plug-In . SVG Version: 6.00 Build 0)  -->
<svg version="1.1" id="Capa_1" xmlns="http://www.w3.org/2000/svg" xmlns:xlink="http://www.w3.org/1999/xlink" x="0px" y="0px"
	 viewBox="0 0 300 300" style="enable-background:new 0 0 300 300;" xml:space="preserve">
<style type="text/css">
	.st0{fill:#FFFFFF;}
	.st1{fill:none;stroke:#EC1858;stroke-width:2.3107;stroke-miterlimit:10;}
	.st2{fill:#EC1858;}
</style>
<g>
	<g>
		<circle class="st0" cx="150" cy="150" r="147.5"/>
		<circle class="st1" cx="150" cy="150" r="138.6"/>
	</g>
	<g>
		<g>
			<g>
				<path class="st2" d="M150.1,88.7c21.8,0,43.6,0.1,65.5,0c8.3,0,13.7,6.9,13.7,13.6c-0.1,32-0.1,63.9,0,95.9
					c0,7.1-5.6,13.8-13.9,13.8c-43.7-0.1-87.4,0-131.1,0c-7.5,0-13.3-5.7-13.3-13.2c0-32.3,0-64.5,0-96.8c0-7.6,5.7-13.2,13.3-13.2
					C106.1,88.7,128.1,88.7,150.1,88.7C150.1,88.7,150.1,88.7,150.1,88.7z M119.3,185.5c8,0,16,0,24,0c4.5,0,6.7-2.2,6.7-6.7
					c0-0.8,0-1.6,0-2.4c0.3-6.3-2.4-11-7.6-14.3c-4.5-2.8-9.4-4-14.7-2.3c-5.5,1.7-11,1.7-16.6,0.2c-1.1-0.3-2.2-0.8-3.4-0.9
					c-3.7-0.2-7.3,0.4-10.5,2.2c-4.4,2.4-7.7,5.8-8.5,10.8c-0.5,2.7-0.3,5.5-0.3,8.3c0,1.8,1,3.2,2.6,3.9c1.3,0.6,2.9,1,4.3,1
					C103.3,185.6,111.3,185.5,119.3,185.5z M119.2,150.2c9.9,0,17.6-7.8,17.6-17.8c0-9.5-8-17.3-17.6-17.3
					c-9.7,0-17.7,7.9-17.7,17.5C101.6,142.4,109.4,150.2,119.2,150.2z M189.7,123.7c-6.3,0-12.5,0-18.8,0c-2.6,0-3.3,0.7-3.3,3.3
					c0,0.6,0,1.3,0,1.9c0,3.1,0.5,3.6,3.6,3.6c12.2,0,24.4,0,36.7,0c0.4,0,0.8,0,1.1,0c1.8-0.1,2.5-0.8,2.6-2.6c0.1-1,0-2,0-3.1
					c0-2.5-0.8-3.2-3.3-3.2C202.1,123.7,195.9,123.7,189.7,123.7z M189.4,150.2c6.5,0,13,0,19.5,0c2,0,2.7-0.7,2.8-2.7
					c0-1,0-1.9,0-2.9c0-2.5-0.7-3.2-3.3-3.2c-12.2,0-24.4,0-36.7,0c-0.6,0-1.3,0-1.9,0c-1.3,0.1-2.1,0.8-2.1,2.1
					c-0.1,1.2,0,2.5,0,3.7c0,2.4,0.6,2.9,3,2.9C176.8,150.2,183.1,150.2,189.4,150.2z M189.5,167.8c6.4,0,12.8,0,19.1,0
					c2.2,0,2.9-0.7,3-2.9c0-0.9,0-1.7,0-2.6c0-2.7-0.6-3.3-3.3-3.3c-9.6,0-19.2,0-28.8,0c-3.2,0-6.3,0-9.5,0c-1.7,0-2.4,0.7-2.5,2.4
					c0,1.1,0,2.3,0,3.4c0,2.3,0.7,2.9,3,2.9C176.9,167.8,183.2,167.8,189.5,167.8z"/>
			</g>
		</g>
	</g>
</g>
</svg>
