<?xml version="1.0" encoding="utf-8"?>
<!-- Generator: Adobe Illustrator 23.0.6, SVG Export Plug-In . SVG Version: 6.00 Build 0)  -->
<svg version="1.1" id="Capa_1" xmlns="http://www.w3.org/2000/svg" xmlns:xlink="http://www.w3.org/1999/xlink" x="0px" y="0px"
	 viewBox="0 0 300 300" style="enable-background:new 0 0 300 300;" xml:space="preserve">
<style type="text/css">
	.st0{fill:#FFFFFF;}
	.st1{fill:none;stroke:#EC1858;stroke-width:2.3107;stroke-miterlimit:10;}
	.st2{fill:#EC1858;}
</style>
<g>
	<circle class="st0" cx="150" cy="150" r="147.5"/>
	<circle class="st1" cx="150" cy="150" r="138.6"/>
</g>
<g>
	<g>
		<path class="st2" d="M86.9,150c0-22.8,0-45.6,0-68.4c0-9.4,7.9-15.8,15.7-15.7c22.4,0.2,44.8,0.1,67.2,0c4.3,0,7.9,1.5,10.9,4.4
			c9.2,9.2,18.4,18.3,27.5,27.5c3.3,3.3,4.8,7.2,4.8,11.8c0,36.2,0,72.4,0,108.7c0,9-6.9,15.8-15.8,15.8c-31.5,0-62.9,0-94.4,0
			c-9.1,0-15.9-6.9-15.9-16C86.9,195.5,86.9,172.7,86.9,150z M197.4,123.5c-1,0-1.7,0-2.5,0c-10.3,0-20.6,0-30.8,0
			c-4.8,0-8.8-3.4-8.7-8.7c0.2-10.4,0-20.8,0.1-31.2c0-1.9-0.4-2.5-2.4-2.5c-16.1,0.1-32.2,0.1-48.4,0c-1.9,0-2.3,0.6-2.3,2.4
			c0,44.3,0,88.6,0,132.9c0,0.7,0.1,1.4,0.1,2.1c31.7,0,63.2,0,94.8,0C197.4,186.9,197.4,155.3,197.4,123.5z M195.9,107.8
			c-8.4-8.3-16.7-16.5-24.9-24.6c0,7.9,0,16.2,0,24.6C179.4,107.8,187.7,107.8,195.9,107.8z"/>
		<path class="st2" d="M154.1,139.8c-0.7,4-1.4,8-2.2,11.9c-0.3,1.4-0.2,2.7,0.4,4.1c2.3,5.1,5.5,9.4,10.2,12.5c0.8,0.5,2,0.8,3,0.7
			c5.1-0.4,10.1-1,15.1,0.2c5.7,1.3,8,7.5,4.5,11.9c-1.4,1.8-3.3,2.6-5.6,2.5c-5.1-0.1-10-1.3-14.4-3.6c-3.1-1.7-5.9-1.9-9.1-0.9
			c-5.6,1.8-11.3,3.5-16.9,5.3c-0.7,0.2-1.4,1.1-1.9,1.8c-2.8,4.4-5.5,9-9.7,12.3c-1.8,1.4-3.8,2.6-5.9,3.5
			c-2.4,1.1-4.7,0.2-6.5-1.6c-1.8-1.8-2.3-4.1-1.4-6.6c1.3-3.4,3.6-5.9,6.5-7.9c2.5-1.7,5.2-3.1,7.7-4.8c1.2-0.8,2.5-1.9,3.1-3.2
			c3.4-6.9,6.7-13.8,9.9-20.8c0.5-1.1,0.5-2.6,0.3-3.8c-0.7-4.4-1.7-8.7-2.3-13c-0.3-2.1,0.1-4.4,0.4-6.5c0.5-2.7,2.9-4.6,5.8-4.8
			c3.3-0.3,6.3,1.2,7.3,4.1C153.3,135.3,153.6,137.6,154.1,139.8z M156.1,172.7c-3.2-3.8-6.4-7.6-9.5-11.3
			c-2.6,5.7-5.2,11.6-7.9,17.6C144.6,176.9,150.5,174.7,156.1,172.7z M170,174.1c-0.1,0.4-0.1,0.9-0.2,1.3c3.4,0.9,6.7,1.8,10.1,2.5
			c0.7,0.1,1.6-0.6,2.4-0.9c-0.6-0.6-1.1-1.6-1.8-1.7C177,174.8,173.5,174.5,170,174.1z M147.1,147.1c2.2-2.7,1.9-11.6-0.4-13.1
			C145.5,136.2,145.7,142.9,147.1,147.1z M129.2,185.9c-3.6,3.1-7.5,6-9.3,10.7C124.1,194,126.8,190.1,129.2,185.9z"/>
	</g>
</g>
</svg>
