<?xml version="1.0" encoding="utf-8"?>
<!-- Generator: Adobe Illustrator 23.0.6, SVG Export Plug-In . SVG Version: 6.00 Build 0)  -->
<svg version="1.1" id="Capa_1" xmlns="http://www.w3.org/2000/svg" xmlns:xlink="http://www.w3.org/1999/xlink" x="0px" y="0px"
	 viewBox="0 0 300 300" style="enable-background:new 0 0 300 300;" xml:space="preserve">
<style type="text/css">
	.st0{fill:#FFFFFF;}
	.st1{fill:none;stroke:#75B443;stroke-width:2.3107;stroke-miterlimit:10;}
	.st2{fill:#75B443;}
</style>
<g>
	<circle class="st0" cx="150" cy="150" r="147.5"/>
	<circle class="st1" cx="150" cy="150" r="138.6"/>
</g>
<g>
	<g>
		<path class="st2" d="M180.8,81.4c21.4,0,42.8,0,64.2,0c2.2,0,4.4,0.1,6.4,0.9c2.2,0.9,4.2,2.3,5.1,4.6c0.6,1.7,1.2,3.5,1.2,5.2
			c0.1,19.1,0,38.2,0,57.3c0,12.3,0,24.6,0,36.9c0,4.4-1.8,7.8-5.7,9.9c-1.6,0.9-3.5,1.2-5.4,1.2c-9.9,0-19.8,0-29.6,0
			c-5.2,0-10.4,0-15.7,0.1c0,0-0.1,0-0.1,0c-0.7,0.2-1.7-0.6-2,0.5c-0.3,1.1,0.5,2.7,1.6,3.1c1.6,0.6,3.2,1.1,4.9,1.6
			c3.4,1,5.4,3.1,5.4,6.7c0,1.6,0,3.3-0.5,4.9c-0.8,2.6-3,3.9-5.6,4.1c-3.3,0.2-6.7,0.1-10,0.2c-11.6,0-23.1,0-34.7,0
			c-2.1,0-4.3,0-6.1-1.3c-1.8-1.3-3-2.9-2.9-5.3c0-1.1,0-2.2,0-3.3c0-2.2,1.2-3.8,3-4.7c2-1,4.1-1.8,6.2-2.6
			c0.7-0.3,1.2-0.7,1.3-1.5c0-0.4,0.2-0.8,0.3-1.2c0.3-0.8,0-1.2-0.8-1.2c-4.8,0-9.6,0.1-14.4,0.1c-0.8,0-1.1,0.3-1.1,1.1
			c0,4.2,0.1,8.3,0,12.5c0,3.7-2.9,7.5-7.4,7.5c-25.6-0.1-51.3-0.1-76.9-0.1c-4.2,0-8.5,0-12.7,0c-2.2,0-4-0.6-5.4-2.4
			c-1-1.3-1.3-2.9-1.3-4.6c0-7.3,0-14.6,0-21.9c0-12.7,0-25.4,0-38.1c0-2.7,0.7-5.1,3.4-6.4c0.9-0.4,1.9-0.6,2.9-0.6
			c5.3-0.1,10.7,0,16,0c1.2,0,1.4-0.1,1.4-1.4c0-7.6,0-15.1,0-22.7c0-2,0.4-3.9,1.6-5.5c1-1.3,2.3-2.4,4.1-2.4
			c2.5-0.1,5-0.2,7.6-0.2c7.7,0,15.3,0,23,0c1.4,0,1.6-0.2,1.6-1.7c0.1-6.8,0-13.5,0.3-20.3c0.1-3.3,1.9-5.8,4.7-7.5
			c2-1.3,4.3-1.6,6.6-1.6c15.6,0,31.2,0,46.8,0C168.4,81.4,174.6,81.4,180.8,81.4C180.8,81.4,180.8,81.4,180.8,81.4z M180.9,89.9
			C180.9,89.9,180.9,89.9,180.9,89.9c-9.5,0-19,0-28.5,0c-12.4,0-24.8,0-37.2,0c-2.5,0-3,0.5-3,3c0,6.1,0,12.1,0,18.2
			c0,1.1,0.2,1.4,1.4,1.4c3.7,0,7.4,0,11.1,0c5.2,0,10.4,0,15.7,0.1c0.5,0,1,0.2,1.5,0.4c1.8,0.8,3,2.1,3.6,3.9
			c0.3,0.9,0.4,1.9,0.5,2.9c0,0.3-0.5,0.8-0.8,0.8c-3.1,0.1-6.1,0.3-9.2,0.3c-19.7,0-39.5,0-59.2,0c-0.5,0-1.1,0-1.6,0
			c-0.6,0-0.9,0.3-0.8,0.9c0,1.6,0.1,3.2,0.1,4.8c0,5.5,0,11.1,0,16.6c0,1.1,0.2,1.4,1.3,1.4c1.8,0,3.6-0.1,5.4,0c1,0,2,0.2,2.8,0.6
			c2.4,1.3,3.2,3.3,3.2,6c-0.1,19.1,0,38.2,0,57.3c0,1.5,0,1.5,1.5,1.5c7.3,0,14.6,0,22,0c8.3,0,16.5,0,24.8,0
			c2.6,0,2.4,0.4,2.4-2.5c0-8,0-16,0-24c0-5.4,0-10.9-0.1-16.3c0-0.9,0.2-1.1,1.1-1.1c3.7,0.1,7.4,0,11.1,0c10.4,0,20.9,0,31.3,0
			c10.5,0,21,0,31.5,0c11.8,0,23.5,0,35.3,0c1.5,0,1.5,0,1.5-1.4c0-24.1,0-48.1,0-72.2c0-2-0.6-2.7-2.6-2.7
			C224.8,89.9,202.8,89.9,180.9,89.9z M197.6,174.6C197.6,174.6,197.6,174.7,197.6,174.6c-4,0-8,0-12,0c-12.9,0-25.7,0-38.6,0
			c-0.9,0-1.1,0.2-1.1,1.1c0,3.9,0,7.8,0,11.7c0,1.6,0,1.7,1.6,1.7c9.7,0,19.4,0,29.1,0c22.6,0,45.2,0,67.8,0c0.7,0,1.3,0,2,0
			c2,0,2.9-0.9,2.9-2.9c0-3.5,0-7,0-10.5c0-0.8-0.2-1.1-1.1-1.1c-6.8,0-13.7,0-20.5,0C217.7,174.6,207.7,174.6,197.6,174.6z
			 M78.6,181.7C78.6,181.7,78.6,181.7,78.6,181.7c0-8.8,0-17.6,0-26.4c0-2.3,0-2.3-2.2-2.3c-8.1,0-16.1,0-24.2,0
			c-1.3,0-1.5,0.2-1.5,1.4c0,18,0,36.1,0,54.1c0,1.4,0.1,1.5,1.5,1.5c8.4,0,16.9,0,25.3,0c0.8,0,1.1-0.2,1.1-1.1
			C78.6,199.9,78.6,190.8,78.6,181.7z M162.6,209.5c0,0.1,0,0.3,0,0.4c0.3,0.1,0.7,0.2,1,0.2c2.4,0,4.8,0,7.2,0
			c8.5,0,17.1-0.1,25.6-0.1c0.8,0,1.7,0.1,2.5,0c0.2,0,0.4-0.3,0.6-0.4c-0.2-0.2-0.4-0.4-0.6-0.5c-1.3-0.4-2.7-0.7-4-1.1
			c-1.5-0.4-2.4-1.5-2.8-2.9c-0.5-1.8-0.8-3.7-1.2-5.5c-0.4-1.9-0.7-2.2-2.7-2.2c-0.2,0-0.3,0-0.5,0c-5.2,0-10.4,0-15.6,0.1
			c-0.4,0-1.1,0.4-1.2,0.7c-0.6,2-1,4.1-1.4,6.1c-0.3,1.7-1.2,2.8-2.7,3.5c-0.7,0.3-1.4,0.5-2,0.8
			C164.1,209,163.3,209.3,162.6,209.5z"/>
		<path class="st2" d="M139.2,136.9c-0.3,0.1-0.6,0.1-0.9,0.2c-1.8,0.4-3.7,0.9-5.5,1c-2,0.2-3.4-1.2-3.9-3.5
			c-0.4-1.6,0.6-3.6,2.2-4.3c1.2-0.5,2.6-0.8,3.9-1.1c3.7-0.9,7.5-1.6,11.2-2.5c2-0.5,4.2-0.6,6.1-1.7c1.5-0.8,3.6-0.2,4.8,1.1
			c1.3,1.4,1.4,3.1,0.7,4.8c-0.6,1.4-1,2.9-1.3,4.4c-0.8,3.3-1.5,6.7-2.3,10c-0.5,2-0.8,4-1.4,5.9c-0.6,2.1-2.8,3.2-5,2.7
			c-1.9-0.5-3.3-2.6-3-4.7c0.3-1.9,0.7-3.7,1.1-5.9c-0.5,0.4-0.8,0.5-1.1,0.8c-5.3,5.3-10.6,10.6-15.9,15.9c-0.8,0.8-1.6,1.5-2.5,2
			c-1.7,0.8-4.3-0.3-5.1-2c-1-2.1-0.9-3.4,0.8-5.1c3.9-4,7.9-7.9,11.9-11.9c1.7-1.7,3.4-3.3,5.1-5c0.2-0.2,0.3-0.4,0.5-0.6
			C139.3,137.1,139.2,137,139.2,136.9z"/>
		<path class="st2" d="M105.9,205c-1.2,0-2.3,0-3.5,0c-1.8,0-3.3-1.2-3.8-2.8c-0.6-1.9,0.1-4,1.7-4.9c0.7-0.4,1.6-0.7,2.4-0.7
			c2.1-0.1,4.2,0,6.3,0c2.8,0,4.3,2.1,4.3,4.2c0.1,2.2-1.8,4.4-4.3,4.2C108.1,205,107,205,105.9,205z"/>
		<path class="st2" d="M64.5,198.3c1.1,0,2.2,0,3.3,0c1.9,0,3.6,1.3,4,3c0.5,1.8-0.2,3.9-1.9,4.8c-0.8,0.4-1.7,0.6-2.6,0.6
			c-2,0.1-4,0.1-6,0c-2.4,0-4.4-1.9-4.3-4.3c0.1-2.2,1.9-4.2,4.2-4.2C62.2,198.3,63.4,198.3,64.5,198.3
			C64.5,198.3,64.5,198.3,64.5,198.3z"/>
	</g>
</g>
</svg>
