<?xml version="1.0" encoding="utf-8"?>
<!-- Generator: Adobe Illustrator 23.0.6, SVG Export Plug-In . SVG Version: 6.00 Build 0)  -->
<svg version="1.1" id="Capa_1" xmlns="http://www.w3.org/2000/svg" xmlns:xlink="http://www.w3.org/1999/xlink" x="0px" y="0px"
	 viewBox="0 0 300 300" style="enable-background:new 0 0 300 300;" xml:space="preserve">
<style type="text/css">
	.st0{fill:#FFFFFF;}
	.st1{fill:none;stroke:#75B443;stroke-width:2.3107;stroke-miterlimit:10;}
	.st2{fill:#75B443;}
</style>
<g>
	<g>
		<circle class="st0" cx="150" cy="150" r="147.5"/>
		<circle class="st1" cx="150" cy="150" r="138.6"/>
	</g>
	<g>
		<g>
			<path class="st2" d="M141.6,203.3c0,1.8,0.1,3.6,0,5.4c-0.2,2.9-2.6,5.4-5.4,6.1c-4.3,1-8.6,1.8-12.9,2c-3.5,0.2-7.1,0-10.6-0.3
				c-2.5-0.2-5.1-0.5-7.6-1.1c-2.3-0.5-4.8-0.7-6.5-2.6c-1.4-1.4-2.2-3-2.2-5c0-3,0-5.9,0-8.9c0-0.6-0.2-0.9-0.7-1.2
				c-2.4-1.3-4.7-2.7-7.1-4.1c-0.2-0.1-0.7-0.1-0.9,0c-2.3,1.3-4.6,2.7-6.9,4c-3,1.8-6.5,1.7-9-0.5c-1.4-1.3-2.7-2.8-3.9-4.2
				c-2.6-3-5.1-6.2-7.1-9.7c-1.9-3.3-3.5-6.8-4.7-10.5c-0.6-1.8-1.2-3.5-1.8-5.3c-0.8-2.5-0.6-4.9,1-7c1-1.3,2.4-2,3.7-2.7
				c2-1.1,3.9-2.2,5.9-3.3c0.5-0.3,0.6-0.6,0.6-1.2c-0.1-2.6-0.1-5.2,0-7.7c0-0.7-0.2-1-0.7-1.3c-2.3-1.3-4.6-2.6-6.9-3.9
				c-3.6-1.9-4.9-5.3-3.5-9.3c1.4-4,2.8-7.9,4.5-11.7c2.1-4.9,5.3-9.2,8.8-13.2c1.2-1.3,2.4-2.7,3.6-4c2.3-2.5,5.9-3.2,8.9-1.5
				c2.5,1.4,5,2.9,7.5,4.4c0.4,0.3,0.7,0.2,1.2,0c2.3-1.4,4.7-2.7,7-4c0.4-0.3,0.7-0.5,0.7-1.1c0-2.8,0-5.6,0-8.4
				c0-3.3,2.2-6.2,5.5-7c4.6-1.1,9.3-1.9,14-2.3c3.5-0.3,7,0,10.4,0.4c3.2,0.4,6.3,1.1,9.4,1.7c2.7,0.6,4.8,2.1,5.7,4.8
				c0.2,0.7,0.4,1.5,0.4,2.3c0,2.9,0,5.7,0,8.6c0,0.3,0.3,0.7,0.5,0.8c2.4,1.4,4.8,2.8,7.2,4.2c0.3,0.2,0.8,0.1,1.2-0.1
				c2.3-1.3,4.5-2.5,6.7-3.9c3.5-2.1,7.2-1.6,9.9,1.5c2.4,2.8,4.9,5.6,7.1,8.6c3.9,5.1,6.8,10.7,8.5,16.8c0.5,1.7,0.9,3.3,1.1,5
				c0.4,2.7-0.7,4.9-2.9,6.5c-2.4,1.7-4.9,3.2-7.4,4.7c-0.7,0.4-1,0.8-1,1.8c0.1,2.5,0,5,0,7.5c0,0.5,0.1,0.8,0.5,1
				c2.4,1.5,4.9,3.1,7.3,4.6c2.3,1.4,3.5,3.5,3.6,6.1c0.1,1.3-0.3,2.6-0.7,3.8c-1.3,5.1-3.3,9.8-6,14.3c-2.2,3.6-4.6,6.9-7.4,10.1
				c-1.2,1.3-2.3,2.7-3.6,3.9c-2.4,2.3-5.9,2.4-9,0.6c-2.3-1.4-4.6-2.7-6.9-4c-0.5-0.3-0.7-0.2-1.1,0.1c-2.3,1.4-4.7,2.7-7,4.1
				c-0.3,0.2-0.5,0.6-0.5,0.9C141.6,200.3,141.7,201.8,141.6,203.3C141.6,203.3,141.6,203.3,141.6,203.3z M127.3,194.9
				C127.3,194.9,127.3,194.9,127.3,194.9c0-2,0-4,0-6.1c0-0.5,0.1-0.8,0.7-0.9c0.4,0,0.7-0.3,1-0.4c2.4-0.9,4.8-1.7,7.1-2.7
				c4.4-2,8.1-5.1,11.6-8.3c0.5-0.5,0.9-0.5,1.5-0.1c3.4,2,6.9,4,10.3,6c0.5,0.3,0.7,0.2,1.1-0.2c3-3.8,5.4-7.9,7.3-12.3
				c0.6-1.5,0.6-1.5-0.8-2.3c-0.4-0.2-0.7-0.4-1.1-0.7c-2.9-1.7-5.8-3.3-8.6-5c-0.2-0.1-0.5-0.5-0.5-0.8c0.3-2,0.8-3.9,1-5.8
				c0.3-2,0.7-4.1,0.5-6.1c-0.3-3.7-0.9-7.5-1.5-11.2c-0.1-0.7,0.1-1,0.6-1.3c3.4-1.9,6.8-3.9,10.2-5.9c0.5-0.3,0.7-0.6,0.4-1.2
				c-0.5-0.9-0.8-1.8-1.2-2.8c-1.8-3.7-3.9-7.2-6.5-10.5c-0.3-0.4-0.5-0.4-0.9-0.2c-3.4,2-6.9,4-10.3,6.1c-0.5,0.3-0.9,0.4-1.3-0.1
				c-0.4-0.5-1-0.9-1.5-1.3c-2.8-2.5-5.7-4.9-9.1-6.5c-3-1.4-6-2.5-9.1-3.7c-0.6-0.2-0.8-0.5-0.8-1.2c0.1-4,0-8,0.1-11.9
				c0-0.5-0.2-0.7-0.7-0.8c-0.6-0.1-1.3-0.1-1.9-0.2c-4.4-0.6-8.8-0.4-13.3,0.2c-0.7,0.1-0.9,0.3-0.9,1c0,3.9,0,7.9,0,11.8
				c0,0.5-0.1,0.9-0.7,1c-1.1,0.4-2.2,0.8-3.3,1.2c-3.4,1.2-6.7,2.7-9.7,4.8c-2.3,1.7-4.6,3.6-6.8,5.4c-0.5,0.4-0.8,0.5-1.3,0.1
				c-3.4-2-6.9-4-10.4-6c-0.3-0.2-0.6-0.4-0.9,0c-0.5,0.7-1,1.3-1.5,1.9c-2.5,3.5-4.6,7.3-6.3,11.3c-0.2,0.6-0.2,0.9,0.4,1.2
				c3.1,1.8,6.2,3.6,9.3,5.4c1.8,1.1,1.8,1,1.3,3.2c-0.7,3.2-1.2,6.4-1.2,9.7c0,4,0.7,7.8,1.5,11.7c0.1,0.6,0,0.9-0.5,1.2
				c-3.4,1.9-6.8,3.9-10.2,5.8c-0.6,0.4-0.8,0.7-0.5,1.4c1.3,2.5,2.4,5.1,3.8,7.6c1.1,1.9,2.5,3.7,3.8,5.5c0.2,0.3,0.5,0.5,0.9,0.3
				c3.5-2,7-4.1,10.5-6.1c0.5-0.3,0.8-0.3,1.2,0.1c2.1,1.8,4.2,3.6,6.4,5.2c4,3,8.7,4.7,13.4,6.2c0.5,0.2,0.7,0.4,0.7,1
				c0,3.9,0,7.8,0,11.8c0,0.7,0.2,1,0.9,1.1c3.1,0.5,6.3,0.7,9.5,0.5c1.8-0.1,3.7-0.4,5.5-0.5c0.7-0.1,0.9-0.4,0.9-1.1
				C127.3,198.7,127.3,196.8,127.3,194.9z"/>
			<path class="st2" d="M246.3,103.9c-0.1,1.9-0.2,3.7-0.4,5.4c-0.3,2-1.7,3.1-3.7,3.1c-1.3,0-2.5,0-3.8,0c-0.6,0-1,0.2-1.2,0.8
				c-0.9,2.5-2.2,4.8-4,6.8c-0.3,0.4-0.4,0.6-0.1,1.1c0.7,1.1,1.3,2.2,2,3.3c1.1,1.9,0.8,3.7-0.9,5.1c-2.7,2.2-5.7,4-9,5.2
				c-1.9,0.7-3.6,0.1-4.7-1.7c-0.7-1.1-1.3-2.2-1.9-3.4c-0.3-0.5-0.5-0.6-1.1-0.6c-2,0.1-3.9,0.2-5.9,0.3c-0.7,0-1.3-0.1-2-0.3
				c-0.5-0.1-0.8,0-1.1,0.5c-0.6,1.1-1.3,2.3-1.9,3.4c-1.2,1.9-2.7,2.5-4.8,1.7c-3.1-1.2-6-2.8-8.6-5c-1.9-1.6-2.3-3.2-1-5.4
				c0.6-1.1,1.3-2.1,1.8-3.2c0.1-0.3,0.1-0.7,0-1c-1.7-2.2-3.1-4.6-4.1-7.1c-0.1-0.3-0.6-0.5-0.9-0.5c-1.4-0.1-2.7,0-4.1,0
				c-2.1,0-3.6-1.5-3.7-3.5c-0.1-1.9-0.3-3.8-0.3-5.8c0-1.5,0.2-3,0.4-4.5c0.3-2.1,1.8-3.1,4.1-3.2c1.2,0,2.4,0,3.5,0
				c0.6,0,0.9-0.2,1.2-0.8c0.9-2.5,2.2-4.7,3.9-6.7c0.4-0.5,0.4-0.8,0-1.3c-0.8-1.3-1.6-2.6-2.2-4c-0.7-1.4-0.3-3,0.9-3.9
				c1.9-1.4,3.8-2.7,5.8-3.9c1-0.6,2.2-1,3.3-1.5c2.1-0.9,3.9-0.3,5.1,1.7c0.6,1.1,1.3,2.2,1.9,3.3c0.2,0.4,0.5,0.6,1,0.5
				c2.6-0.5,5.3-0.5,7.9,0c0.6,0.1,0.9-0.1,1.1-0.5c0.6-1.1,1.3-2.2,1.9-3.3c1.2-2,2.8-2.5,5-1.7c3,1.1,5.6,2.7,8.1,4.6
				c1.2,0.9,2.3,2,2,3.7c-0.1,0.5-0.2,1-0.4,1.4c-0.7,1.2-1.4,2.5-2.1,3.6c-0.3,0.4-0.3,0.7,0.1,1.1c1.6,2,3.1,4.2,3.9,6.7
				c0.2,0.6,0.6,0.9,1.3,0.9c1.5,0,3,0,4.5,0.1c1.6,0.1,2.8,1.2,3,2.9C246,100.3,246.2,102.2,246.3,103.9z M203.8,103.9
				c-0.1,5.5,4.4,9.6,9.3,9.8c5.7,0.2,10.2-4.3,10.1-9.8c-0.1-5.5-4.1-9.6-9.7-9.6C207.5,94.3,203.7,99.2,203.8,103.9z"/>
			<path class="st2" d="M246.3,196.1c-0.2,1.8-0.3,3.6-0.5,5.4c-0.2,1.7-1.7,2.9-3.4,2.9c-1.5,0-2.9,0-4.4,0c-0.4,0-0.6,0.1-0.8,0.6
				c-1,2.6-2.3,5-4.1,7.1c-0.2,0.2-0.2,0.8,0,1c0.6,1.1,1.2,2.2,1.8,3.2c1.2,2.1,1,3.8-0.9,5.3c-2.7,2.2-5.6,3.9-8.8,5.1
				c-1.9,0.7-3.6,0.2-4.7-1.6c-0.7-1.1-1.3-2.3-2-3.4c-0.3-0.5-0.5-0.7-1.2-0.6c-2.7,0.4-5.3,0.4-8,0c-0.3,0-0.7,0.2-0.9,0.5
				c-0.7,1.1-1.3,2.2-1.9,3.3c-1.2,2.1-2.9,2.7-5.1,1.8c-3.1-1.3-6.1-2.9-8.7-5.1c-1.6-1.3-2-3.1-0.9-4.9c0.7-1.2,1.3-2.4,2-3.5
				c0.3-0.4,0.2-0.7-0.1-1.1c-1.7-2.1-3.1-4.4-4-6.9c-0.2-0.5-0.5-0.8-1.1-0.8c-1.4,0-2.9,0-4.3,0c-1.7,0-3.2-1.4-3.4-3.1
				c-0.2-2.2-0.3-4.4-0.3-6.5c0-1.4,0.2-2.8,0.4-4.2c0.3-1.8,1.8-3,3.6-3c1.4,0,2.7,0,4.1,0c0.6,0,0.9-0.2,1.1-0.7
				c0.9-2.6,2.4-4.9,4.1-7.1c0.3-0.4,0.3-0.6,0-1c-0.9-1.4-1.7-2.9-2.4-4.4c-0.5-1.1,0.1-3,1.1-3.8c2.9-2.2,6-4.2,9.4-5.4
				c1.6-0.6,3.3-0.1,4.2,1.3c0.8,1.3,1.6,2.6,2.3,3.9c0.3,0.5,0.6,0.6,1.1,0.5c2.6-0.4,5.2-0.5,7.8,0c0.5,0.1,0.8,0,1.1-0.5
				c0.7-1.3,1.5-2.7,2.3-3.9c1-1.5,2.5-1.9,4.2-1.3c3.4,1.2,6.4,3.1,9.2,5.2c1.6,1.2,1.9,3.1,0.9,4.9c-0.6,1.2-1.4,2.3-2,3.4
				c-0.1,0.3-0.1,0.8,0,1c1.7,2.2,3.1,4.5,4.1,7.1c0.1,0.2,0.5,0.5,0.8,0.5c1.4,0.1,2.8,0,4.2,0c1.8,0,3.2,1.1,3.5,2.9
				C246,192.4,246.1,194.2,246.3,196.1z M213.4,205.6c5,0.3,9.8-4.1,9.7-9.6c0-5.5-4.5-9.6-9.6-9.7c-5.5-0.1-9.8,4.6-9.8,9.6
				C203.7,201,208.1,205.9,213.4,205.6z"/>
			<path class="st2" d="M118.9,176c-13.2,0-25.1-9.8-26.4-23.9c-1.5-15.6,9.8-27.4,23-28.9c8-0.9,15,1.2,21,6.5
				c5.3,4.7,8.2,10.6,8.7,17.6C146.4,162,135.5,175.6,118.9,176z M106.7,149.3c0,6.7,5.3,12.2,12.1,12.2c6.7,0,12.3-5.3,12.3-12.2
				c-0.1-6.5-5.1-12-12.1-12.1C112.1,137.2,106.8,142.6,106.7,149.3z"/>
		</g>
	</g>
</g>
</svg>
