<?xml version="1.0" encoding="utf-8"?>
<!-- Generator: Adobe Illustrator 23.0.6, SVG Export Plug-In . SVG Version: 6.00 Build 0)  -->
<svg version="1.1" id="Capa_1" xmlns="http://www.w3.org/2000/svg" xmlns:xlink="http://www.w3.org/1999/xlink" x="0px" y="0px"
	 viewBox="0 0 300 300" style="enable-background:new 0 0 300 300;" xml:space="preserve">
<style type="text/css">
	.st0{fill:#FFFFFF;}
	.st1{fill:none;stroke:#DC522A;stroke-width:2.3107;stroke-miterlimit:10;}
	.st2{fill:#DC522A;}
</style>
<g>
	<circle class="st0" cx="150" cy="150" r="147.5"/>
	<circle class="st1" cx="150" cy="150" r="138.6"/>
</g>
<g>
	<g>
		<path class="st2" d="M87.8,150c0-22.3,0-44.6,0-66.9c0-9.4,7.2-16,15.9-16c21.8,0.2,43.6,0.1,65.4,0c4.6,0,8.4,1.6,11.6,4.8
			c8.8,8.8,17.6,17.6,26.4,26.3c3.5,3.4,5.1,7.6,5.1,12.4c0,35.4,0,70.7,0,106.1c0,9.5-6.7,16.2-16.1,16.2c-30.7,0-61.5,0-92.2,0
			c-9.3,0-16.1-6.8-16.1-16.1C87.8,194.6,87.8,172.3,87.8,150z M197,123.8c-1.1,0-1.9,0-2.6,0c-9.9,0-19.9,0-29.8,0
			c-5.9,0-9.2-3.7-9.1-9c0.3-10.1,0-20.3,0.1-30.4c0-2-0.6-2.4-2.5-2.4c-15.8,0.1-31.7,0-47.5,0c-2.5,0-2.5,0-2.5,2.5
			c0,43.7,0,87.3,0,131c0,2.6,0,2.6,2.7,2.6c29.5,0,59.1,0,88.6,0c2.7,0,2.7,0,2.7-2.6c0-29.7,0-59.4,0-89.2
			C197,125.5,197,124.8,197,123.8z M170.6,83.8c0,0.1-0.2,0.4-0.2,0.7c0,7.5,0,15.1,0,22.6c0,1.5,0.9,1.5,2,1.5c7.2,0,14.3,0,21.5,0
			c0.5,0,1-0.1,1.4-0.2C187.1,100.1,178.9,92,170.6,83.8z"/>
		<path class="st2" d="M150,187.3c-8.8,0-17.6,0-26.4,0c-3,0-4.4-1.3-4.6-4.3c-0.1-2.5-0.1-4.9,0-7.4c0.1-3.2,1.5-4.7,4.8-4.7
			c17.5,0,35,0,52.5,0c2.9,0,4.3,1,4.6,3.5c0.3,3.2,0.2,6.5-0.1,9.6c-0.2,2.3-1.6,3.2-3.9,3.2C167.9,187.3,158.9,187.3,150,187.3z"
			/>
		<path class="st2" d="M149.8,160c-8.6,0-17.2,0-25.8,0c-3.7,0-4.9-1.3-5-5c0-2.2,0-4.3,0-6.5c0.1-3.3,1.3-4.6,4.6-4.6
			c17.6,0,35.2,0,52.8,0c3.2,0,4.5,1.3,4.6,4.5c0.1,2.4,0.1,4.8,0,7.2c-0.1,3.2-1.4,4.5-4.6,4.5C167.5,160,158.7,160,149.8,160z"/>
	</g>
</g>
</svg>
