<?xml version="1.0" encoding="utf-8"?>
<!-- Generator: Adobe Illustrator 25.4.1, SVG Export Plug-In . SVG Version: 6.00 Build 0)  -->
<svg version="1.1" id="Capa_1" xmlns="http://www.w3.org/2000/svg" xmlns:xlink="http://www.w3.org/1999/xlink" x="0px" y="0px"
	 viewBox="0 0 600 200" style="enable-background:new 0 0 600 200;" xml:space="preserve">
<style type="text/css">
	.st0{fill:#F4B1BD;}
	.st1{fill:#44505F;}
	.st2{display:none;clip-path:url(#SVGID_00000082369740265626530760000008919033032649855127_);}
	.st3{display:inline;}
	.st4{fill:#CBDBC1;}
	.st5{display:inline;opacity:0.5;}
	.st6{fill:#ACD8CF;}
</style>
<g>
	<g>
		<g>
			<path class="st0" d="M32.29,110.81h-7.98V61.4h7.98V110.81z"/>
			<path class="st0" d="M67.2,110.81h-7.98L47.54,78.4v32.41h-7.98V61.4h7.98l11.7,32.45V61.4h7.96V110.81z"/>
			<path class="st0" d="M94.55,90.65H82.15v20.16h-7.98V61.4h21.89v8.32h-13.9v12.66h12.41V90.65z"/>
			<path class="st0" d="M129,90.55c0,6.63-1.25,11.78-3.76,15.44c-2.51,3.67-5.99,5.5-10.44,5.5c-4.44,0-7.92-1.82-10.45-5.45
				s-3.82-8.72-3.86-15.26v-8.45c0-6.79,1.26-12.09,3.77-15.9c2.52-3.81,6.01-5.72,10.48-5.72c4.4,0,7.86,1.87,10.4,5.62
				c2.53,3.75,3.82,9,3.86,15.77V90.55z M120.99,82.27c0-4.46-0.51-7.77-1.52-9.95c-1.01-2.17-2.59-3.26-4.72-3.26
				c-2.12,0-3.68,1.05-4.7,3.14s-1.54,5.28-1.57,9.55v8.79c0,4.32,0.52,7.51,1.55,9.55s2.62,3.07,4.78,3.07c2.08,0,3.63-1,4.64-3
				c1.01-2,1.53-5.11,1.55-9.32V82.27z"/>
			<path class="st0" d="M162.16,105.21c-1.54,2.08-3.43,3.65-5.66,4.7s-4.68,1.58-7.34,1.58c-4.54,0-8.07-1.76-10.59-5.28
				c-2.52-3.52-3.81-8.64-3.88-15.36v-8.89c0-6.81,1.19-12.05,3.57-15.73s5.85-5.52,10.41-5.52c4.29,0,7.53,1.32,9.71,3.97
				s3.44,6.8,3.79,12.46h-7.77c-0.22-3.15-0.74-5.29-1.58-6.43c-0.83-1.14-2.14-1.71-3.91-1.71c-2.15,0-3.72,0.98-4.7,2.95
				c-0.98,1.97-1.48,5.1-1.52,9.4v8.96c0,4.5,0.54,7.78,1.62,9.83c1.08,2.05,2.85,3.07,5.31,3.07c1.57,0,2.85-0.4,3.83-1.19
				l0.71-0.61v-9.06h-5.59v-7.54h13.6V105.21z"/>
			<path class="st0" d="M180.34,92.76h-3.96v18.06h-7.98V61.4h12.73c4,0,7.09,1.3,9.27,3.89c2.18,2.59,3.27,6.27,3.27,11.05
				c0,6.56-1.91,11.16-5.73,13.78l6.92,20.23v0.48h-8.58L180.34,92.76z M176.38,84.44h4.53c1.59,0,2.79-0.66,3.58-1.99
				c0.8-1.32,1.19-3.09,1.19-5.31c0-4.96-1.55-7.43-4.64-7.43h-4.67V84.44z"/>
			<path class="st0" d="M218.59,100.7H207.7l-2.12,10.11h-8.44l12.35-49.42h7.3l12.44,49.42h-8.53L218.59,100.7z M209.44,92.38h7.39
				l-3.69-17.62L209.44,92.38z"/>
			<path class="st0" d="M253.87,90.65h-12.41v20.16h-7.98V61.4h21.89v8.32h-13.9v12.66h12.41V90.65z"/>
			<path class="st0" d="M268.82,110.81h-7.98V61.4h7.98V110.81z M266.32,48.06h8.63l-7.55,10.52H261L266.32,48.06z"/>
			<path class="st0" d="M295.44,100.7h-10.89l-2.12,10.11h-8.44l12.35-49.42h7.3l12.44,49.42h-8.53L295.44,100.7z M286.29,92.38
				h7.39l-3.69-17.62L286.29,92.38z"/>
			<path class="st0" d="M327.03,97.85c0-2.01-0.41-3.54-1.24-4.56c-0.82-1.03-2.32-2.1-4.49-3.21c-3.96-1.88-6.82-4.08-8.55-6.6
				c-1.74-2.52-2.61-5.5-2.61-8.94c0-4.16,1.18-7.51,3.54-10.03c2.36-2.52,5.36-3.78,9-3.78c2.43,0,4.59,0.64,6.49,1.92
				c1.9,1.28,3.36,3.08,4.38,5.41c1.02,2.33,1.53,4.98,1.53,7.94h-7.96c0-2.31-0.39-4.07-1.18-5.28c-0.79-1.21-1.92-1.82-3.41-1.82
				c-1.39,0-2.48,0.51-3.26,1.54c-0.78,1.03-1.17,2.42-1.17,4.16c0,1.36,0.43,2.58,1.3,3.68s2.41,2.23,4.62,3.41
				c3.86,1.74,6.66,3.88,8.4,6.42s2.62,5.76,2.62,9.67c0,4.3-1.1,7.66-3.29,10.08c-2.19,2.42-5.17,3.63-8.93,3.63
				c-2.55,0-4.88-0.66-6.98-1.97c-2.1-1.31-3.74-3.19-4.93-5.63c-1.19-2.44-1.78-5.33-1.78-8.66h8.01c0,2.85,0.44,4.92,1.33,6.21
				c0.89,1.29,2.34,1.94,4.34,1.94C325.64,103.38,327.03,101.54,327.03,97.85z"/>
		</g>
		<g>
			<path class="st1" d="M23.46,132.32c-0.01,0.88-0.1,1.59-0.27,2.12c-0.17,0.53-0.46,1.04-0.86,1.53c-0.4,0.49-0.98,1.14-1.75,1.94
				c-0.77,0.8-1.19,1.62-1.29,2.44l-0.02,0.46c0,0.91,0.24,1.6,0.72,2.08c0.48,0.48,1.18,0.72,2.08,0.72c0.83,0,1.51-0.24,2.03-0.71
				c0.52-0.47,0.78-1.08,0.78-1.84h2.31c-0.02,1.34-0.49,2.43-1.43,3.28c-0.94,0.85-2.17,1.27-3.69,1.27
				c-1.63,0-2.89-0.42-3.78-1.25c-0.89-0.84-1.34-2-1.34-3.49c0-1.44,0.67-2.89,2-4.34l1.36-1.41c0.55-0.65,0.82-1.58,0.82-2.8
				H23.46z M23.56,128.37c0,0.38-0.11,0.69-0.34,0.95c-0.23,0.26-0.57,0.39-1.02,0.39c-0.45,0-0.79-0.13-1.02-0.39
				c-0.23-0.26-0.35-0.58-0.35-0.95c0-0.37,0.12-0.68,0.35-0.93c0.23-0.25,0.57-0.38,1.02-0.38c0.45,0,0.79,0.13,1.02,0.38
				C23.44,127.69,23.56,128,23.56,128.37z"/>
			<path class="st1" d="M43.69,135.04c-0.22,1.92-0.93,3.41-2.13,4.45c-1.19,1.04-2.78,1.57-4.76,1.57c-2.15,0-3.87-0.77-5.16-2.31
				c-1.29-1.54-1.94-3.6-1.94-6.18v-1.75c0-1.69,0.3-3.17,0.9-4.46c0.6-1.28,1.46-2.27,2.57-2.95s2.39-1.03,3.85-1.03
				c1.93,0,3.48,0.54,4.64,1.62c1.17,1.08,1.84,2.57,2.03,4.48h-2.41c-0.21-1.45-0.66-2.5-1.35-3.16c-0.7-0.65-1.67-0.98-2.92-0.98
				c-1.53,0-2.73,0.57-3.6,1.7c-0.87,1.13-1.3,2.74-1.3,4.83v1.76c0,1.97,0.41,3.54,1.24,4.71c0.82,1.17,1.98,1.75,3.46,1.75
				c1.33,0,2.35-0.3,3.06-0.91s1.18-1.65,1.42-3.15H43.69z"/>
			<path class="st1" d="M45.99,133.93c0-1.32,0.26-2.51,0.78-3.57c0.52-1.06,1.24-1.87,2.17-2.45c0.93-0.58,1.99-0.86,3.18-0.86
				c1.84,0,3.33,0.64,4.46,1.91c1.14,1.27,1.7,2.97,1.7,5.08v0.16c0,1.32-0.25,2.5-0.75,3.54c-0.5,1.04-1.22,1.86-2.16,2.44
				c-0.94,0.58-2.01,0.87-3.23,0.87c-1.83,0-3.31-0.64-4.45-1.91c-1.14-1.27-1.7-2.96-1.7-5.06V133.93z M48.31,134.2
				c0,1.5,0.35,2.7,1.04,3.61s1.62,1.36,2.79,1.36c1.17,0,2.11-0.46,2.8-1.38s1.04-2.21,1.04-3.86c0-1.48-0.35-2.68-1.05-3.6
				c-0.7-0.92-1.64-1.38-2.8-1.38c-1.14,0-2.06,0.45-2.76,1.36S48.31,132.51,48.31,134.2z M53.17,121.63h2.8l-3.35,3.67l-1.86-0.01
				L53.17,121.63z"/>
			<path class="st1" d="M63.36,127.3l0.06,1.5c0.99-1.17,2.33-1.75,4.01-1.75c1.89,0,3.18,0.72,3.86,2.17
				c0.45-0.65,1.03-1.17,1.75-1.57c0.72-0.4,1.57-0.6,2.55-0.6c2.96,0,4.47,1.57,4.52,4.71v9.05H77.8v-8.91
				c0-0.96-0.22-1.69-0.66-2.17c-0.44-0.48-1.18-0.72-2.22-0.72c-0.86,0-1.57,0.26-2.13,0.77s-0.89,1.2-0.99,2.07v8.96h-2.32v-8.85
				c0-1.96-0.96-2.95-2.88-2.95c-1.51,0-2.55,0.65-3.11,1.94v9.86h-2.31V127.3H63.36z"/>
			<path class="st1" d="M82.98,133.93c0-1.32,0.26-2.51,0.78-3.57c0.52-1.06,1.24-1.87,2.17-2.45c0.93-0.58,1.99-0.86,3.18-0.86
				c1.84,0,3.33,0.64,4.46,1.91c1.14,1.27,1.7,2.97,1.7,5.08v0.16c0,1.32-0.25,2.5-0.75,3.54c-0.5,1.04-1.22,1.86-2.16,2.44
				c-0.94,0.58-2.01,0.87-3.23,0.87c-1.83,0-3.31-0.64-4.45-1.91c-1.14-1.27-1.7-2.96-1.7-5.06V133.93z M85.3,134.2
				c0,1.5,0.35,2.7,1.04,3.61s1.62,1.36,2.79,1.36c1.17,0,2.11-0.46,2.8-1.38s1.04-2.21,1.04-3.86c0-1.48-0.35-2.68-1.05-3.6
				c-0.7-0.92-1.64-1.38-2.8-1.38c-1.14,0-2.06,0.45-2.76,1.36S85.3,132.51,85.3,134.2z"/>
			<path class="st1" d="M106.69,127.3l0.07,1.7c1.03-1.3,2.38-1.95,4.04-1.95c2.85,0,4.29,1.61,4.32,4.83v8.93h-2.31v-8.94
				c-0.01-0.97-0.23-1.69-0.67-2.16c-0.44-0.47-1.12-0.7-2.04-0.7c-0.75,0-1.41,0.2-1.97,0.6s-1.01,0.92-1.32,1.57v9.62h-2.31V127.3
				H106.69z"/>
			<path class="st1" d="M126.95,140.81c-0.13-0.27-0.24-0.74-0.32-1.42c-1.07,1.12-2.36,1.67-3.85,1.67c-1.33,0-2.42-0.38-3.28-1.13
				s-1.28-1.71-1.28-2.87c0-1.41,0.53-2.5,1.6-3.28s2.57-1.17,4.51-1.17h2.25v-1.06c0-0.81-0.24-1.45-0.72-1.93
				c-0.48-0.48-1.19-0.72-2.13-0.72c-0.82,0-1.51,0.21-2.07,0.62c-0.56,0.42-0.84,0.92-0.84,1.51h-2.32c0-0.67,0.24-1.33,0.72-1.95
				c0.48-0.63,1.13-1.13,1.95-1.49s1.72-0.55,2.7-0.55c1.56,0,2.78,0.39,3.66,1.17c0.88,0.78,1.34,1.85,1.37,3.21v6.22
				c0,1.24,0.16,2.23,0.47,2.96v0.2H126.95z M123.12,139.05c0.72,0,1.41-0.19,2.06-0.56c0.65-0.37,1.12-0.86,1.41-1.46v-2.77h-1.81
				c-2.83,0-4.24,0.83-4.24,2.48c0,0.72,0.24,1.29,0.72,1.7C121.74,138.84,122.36,139.05,123.12,139.05z"/>
			<path class="st1" d="M139.05,129.37c-0.35-0.06-0.73-0.09-1.14-0.09c-1.51,0-2.54,0.64-3.08,1.93v9.59h-2.31V127.3h2.25
				l0.04,1.56c0.76-1.21,1.83-1.81,3.22-1.81c0.45,0,0.79,0.06,1.02,0.17V129.37z"/>
			<path class="st1" d="M147.7,129.37c-0.35-0.06-0.73-0.09-1.14-0.09c-1.51,0-2.54,0.64-3.08,1.93v9.59h-2.31V127.3h2.25l0.04,1.56
				c0.76-1.21,1.83-1.81,3.22-1.81c0.45,0,0.79,0.06,1.02,0.17V129.37z"/>
			<path class="st1" d="M157.66,140.81c-0.13-0.27-0.24-0.74-0.32-1.42c-1.07,1.12-2.36,1.67-3.85,1.67c-1.33,0-2.42-0.38-3.28-1.13
				s-1.28-1.71-1.28-2.87c0-1.41,0.53-2.5,1.6-3.28s2.57-1.17,4.51-1.17h2.25v-1.06c0-0.81-0.24-1.45-0.72-1.93
				c-0.48-0.48-1.19-0.72-2.13-0.72c-0.82,0-1.51,0.21-2.07,0.62c-0.56,0.42-0.84,0.92-0.84,1.51h-2.32c0-0.67,0.24-1.33,0.72-1.95
				c0.48-0.63,1.13-1.13,1.95-1.49s1.72-0.55,2.7-0.55c1.56,0,2.78,0.39,3.66,1.17c0.88,0.78,1.34,1.85,1.37,3.21v6.22
				c0,1.24,0.16,2.23,0.47,2.96v0.2H157.66z M153.83,139.05c0.72,0,1.41-0.19,2.06-0.56c0.65-0.37,1.12-0.86,1.41-1.46v-2.77h-1.81
				c-2.83,0-4.24,0.83-4.24,2.48c0,0.72,0.24,1.29,0.72,1.7C152.45,138.84,153.07,139.05,153.83,139.05z"/>
			<path class="st1" d="M169.76,129.37c-0.35-0.06-0.73-0.09-1.14-0.09c-1.51,0-2.54,0.64-3.08,1.93v9.59h-2.31V127.3h2.25
				l0.04,1.56c0.76-1.21,1.83-1.81,3.22-1.81c0.45,0,0.79,0.06,1.02,0.17V129.37z"/>
			<path class="st1" d="M182.67,137.67l3.35-10.37h2.36l-4.84,13.51h-1.76l-4.89-13.51h2.36L182.67,137.67z"/>
			<path class="st1" d="M190.61,123.71c0-0.37,0.11-0.69,0.34-0.95s0.57-0.39,1.02-0.39c0.45,0,0.79,0.13,1.02,0.39
				s0.35,0.57,0.35,0.95c0,0.38-0.12,0.69-0.35,0.94s-0.57,0.37-1.02,0.37c-0.45,0-0.79-0.12-1.02-0.37S190.61,124.09,190.61,123.71
				z M193.1,140.81h-2.31V127.3h2.31V140.81z"/>
			<path class="st1" d="M204.66,137.22c0-0.62-0.24-1.11-0.71-1.45s-1.29-0.64-2.46-0.89c-1.17-0.25-2.1-0.55-2.78-0.9
				s-1.19-0.77-1.52-1.25c-0.33-0.48-0.49-1.06-0.49-1.72c0-1.11,0.47-2.04,1.4-2.81c0.94-0.77,2.13-1.15,3.59-1.15
				c1.53,0,2.77,0.4,3.73,1.19c0.95,0.79,1.43,1.8,1.43,3.03h-2.32c0-0.63-0.27-1.18-0.81-1.63c-0.54-0.46-1.21-0.69-2.03-0.69
				c-0.84,0-1.5,0.18-1.97,0.55c-0.47,0.37-0.71,0.84-0.71,1.44c0,0.56,0.22,0.98,0.66,1.26c0.44,0.28,1.24,0.55,2.39,0.81
				s2.09,0.57,2.8,0.92c0.72,0.36,1.25,0.79,1.59,1.29c0.35,0.5,0.52,1.12,0.52,1.84c0,1.21-0.48,2.17-1.45,2.9
				c-0.97,0.73-2.22,1.09-3.76,1.09c-1.08,0-2.04-0.19-2.87-0.57c-0.83-0.38-1.48-0.92-1.95-1.6s-0.71-1.43-0.71-2.23h2.31
				c0.04,0.77,0.35,1.39,0.93,1.84c0.58,0.45,1.34,0.68,2.29,0.68c0.87,0,1.58-0.18,2.1-0.53S204.66,137.81,204.66,137.22z"/>
			<path class="st1" d="M218.32,139.47c-0.9,1.06-2.22,1.59-3.96,1.59c-1.44,0-2.54-0.42-3.29-1.25c-0.75-0.84-1.13-2.07-1.14-3.71
				v-8.79h2.31v8.73c0,2.05,0.83,3.07,2.5,3.07c1.76,0,2.94-0.66,3.52-1.97v-9.83h2.31v13.51h-2.2L218.32,139.47z"/>
			<path class="st1" d="M232.41,140.81c-0.13-0.27-0.24-0.74-0.32-1.42c-1.07,1.12-2.36,1.67-3.85,1.67c-1.33,0-2.42-0.38-3.28-1.13
				s-1.28-1.71-1.28-2.87c0-1.41,0.53-2.5,1.6-3.28s2.57-1.17,4.51-1.17h2.25v-1.06c0-0.81-0.24-1.45-0.72-1.93
				c-0.48-0.48-1.19-0.72-2.13-0.72c-0.82,0-1.51,0.21-2.07,0.62c-0.56,0.42-0.84,0.92-0.84,1.51h-2.32c0-0.67,0.24-1.33,0.72-1.95
				c0.48-0.63,1.13-1.13,1.95-1.49s1.72-0.55,2.7-0.55c1.56,0,2.78,0.39,3.66,1.17c0.88,0.78,1.34,1.85,1.37,3.21v6.22
				c0,1.24,0.16,2.23,0.47,2.96v0.2H232.41z M228.58,139.05c0.72,0,1.41-0.19,2.06-0.56c0.65-0.37,1.12-0.86,1.41-1.46v-2.77h-1.81
				c-2.83,0-4.24,0.83-4.24,2.48c0,0.72,0.24,1.29,0.72,1.7C227.2,138.84,227.82,139.05,228.58,139.05z"/>
			<path class="st1" d="M240.49,140.81h-2.31v-19.18h2.31V140.81z"/>
			<path class="st1" d="M246.36,127.3l0.06,1.5c0.99-1.17,2.33-1.75,4.01-1.75c1.89,0,3.18,0.72,3.86,2.17
				c0.45-0.65,1.03-1.17,1.75-1.57c0.72-0.4,1.57-0.6,2.55-0.6c2.96,0,4.47,1.57,4.52,4.71v9.05h-2.31v-8.91
				c0-0.96-0.22-1.69-0.66-2.17c-0.44-0.48-1.18-0.72-2.22-0.72c-0.86,0-1.57,0.26-2.13,0.77s-0.89,1.2-0.99,2.07v8.96h-2.32v-8.85
				c0-1.96-0.96-2.95-2.88-2.95c-1.51,0-2.55,0.65-3.11,1.94v9.86h-2.31V127.3H246.36z"/>
			<path class="st1" d="M272.2,141.06c-1.83,0-3.32-0.6-4.47-1.8c-1.15-1.2-1.72-2.81-1.72-4.82V134c0-1.34,0.26-2.54,0.77-3.59
				s1.23-1.88,2.15-2.47c0.92-0.59,1.92-0.89,2.99-0.89c1.76,0,3.12,0.58,4.09,1.74c0.97,1.16,1.46,2.81,1.46,4.97v0.96h-9.15
				c0.03,1.33,0.42,2.41,1.17,3.23c0.74,0.82,1.69,1.23,2.84,1.23c0.82,0,1.51-0.17,2.07-0.5s1.06-0.77,1.49-1.32l1.41,1.1
				C276.16,140.19,274.46,141.06,272.2,141.06z M271.91,128.95c-0.93,0-1.71,0.34-2.35,1.02c-0.63,0.68-1.02,1.63-1.17,2.85h6.77
				v-0.17c-0.07-1.17-0.38-2.08-0.95-2.73C273.64,129.27,272.88,128.95,271.91,128.95z"/>
			<path class="st1" d="M282.33,127.3l0.07,1.7c1.03-1.3,2.38-1.95,4.04-1.95c2.85,0,4.29,1.61,4.32,4.83v8.93h-2.31v-8.94
				c-0.01-0.97-0.23-1.69-0.67-2.16c-0.44-0.47-1.12-0.7-2.04-0.7c-0.75,0-1.41,0.2-1.97,0.6s-1.01,0.92-1.32,1.57v9.62h-2.31V127.3
				H282.33z"/>
			<path class="st1" d="M297.38,124.03v3.27h2.52v1.79h-2.52v8.39c0,0.54,0.11,0.95,0.34,1.22s0.61,0.41,1.15,0.41
				c0.27,0,0.63-0.05,1.1-0.15v1.86c-0.61,0.17-1.2,0.25-1.77,0.25c-1.03,0-1.81-0.31-2.33-0.94c-0.52-0.62-0.79-1.51-0.79-2.66
				v-8.38h-2.46v-1.79h2.46v-3.27H297.38z"/>
			<path class="st1" d="M308.2,141.06c-1.83,0-3.32-0.6-4.47-1.8c-1.15-1.2-1.72-2.81-1.72-4.82V134c0-1.34,0.26-2.54,0.77-3.59
				s1.23-1.88,2.15-2.47c0.92-0.59,1.92-0.89,2.99-0.89c1.76,0,3.12,0.58,4.09,1.74c0.97,1.16,1.46,2.81,1.46,4.97v0.96h-9.15
				c0.03,1.33,0.42,2.41,1.17,3.23c0.75,0.82,1.69,1.23,2.84,1.23c0.82,0,1.51-0.17,2.07-0.5c0.57-0.33,1.06-0.77,1.49-1.32
				l1.41,1.1C312.17,140.19,310.47,141.06,308.2,141.06z M307.92,128.95c-0.93,0-1.71,0.34-2.35,1.02
				c-0.63,0.68-1.02,1.63-1.17,2.85h6.77v-0.17c-0.07-1.17-0.38-2.08-0.95-2.73C309.65,129.27,308.88,128.95,307.92,128.95z"/>
			<path class="st1" d="M318.85,135.67c0.02-0.99,0.13-1.77,0.34-2.34s0.63-1.21,1.27-1.91l1.64-1.68c0.7-0.79,1.05-1.64,1.05-2.54
				c0-0.87-0.23-1.56-0.69-2.05c-0.46-0.49-1.12-0.74-2-0.74c-0.85,0-1.53,0.22-2.05,0.67c-0.52,0.45-0.77,1.05-0.77,1.81h-2.31
				c0.02-1.35,0.5-2.44,1.44-3.26c0.94-0.83,2.17-1.24,3.69-1.24c1.57,0,2.8,0.42,3.68,1.27s1.32,2,1.32,3.47
				c0,1.45-0.67,2.89-2.02,4.3l-1.36,1.35c-0.61,0.67-0.91,1.64-0.91,2.9H318.85z M318.75,139.63c0-0.38,0.11-0.7,0.34-0.95
				c0.23-0.26,0.57-0.38,1.02-0.38s0.79,0.13,1.02,0.38c0.23,0.26,0.35,0.57,0.35,0.95c0,0.38-0.12,0.69-0.35,0.94
				c-0.23,0.25-0.57,0.37-1.02,0.37s-0.79-0.12-1.02-0.37C318.87,140.32,318.75,140.01,318.75,139.63z"/>
		</g>
	</g>
	<g>
		<g>
			<defs>
				<path id="SVGID_1_" d="M600,200.12H462.04c0,0-2.74-10.52,12.83-38.88c10.85-19.76-13.47-42.63-13.47-56.01
					c0-31.46,21.51-38.62,14.19-49.39c-27.36-40.25-7-56-7-56H600V200.12z"/>
			</defs>
			<use xlink:href="#SVGID_1_"  style="overflow:visible;fill:#ACD8CF;"/>
			<clipPath id="SVGID_00000058549041941926311650000008065791885814102453_">
				<use xlink:href="#SVGID_1_"  style="overflow:visible;"/>
			</clipPath>
			<g style="display:none;clip-path:url(#SVGID_00000058549041941926311650000008065791885814102453_);">
				<g class="st3">
					<path class="st4" d="M1337.01,77.54c2.06-0.04,2.92,1.38,1.94,3.17l-4.12,7.48c-0.99,1.79-3.45,3.27-5.51,3.32
						c-2.06,0.04-2.93-1.38-1.94-3.17l4.12-7.48C1332.49,79.06,1334.95,77.58,1337.01,77.54z"/>
				</g>
				<g class="st3">
					<path class="st4" d="M1321.96,77.84c2.06-0.04,2.92,1.38,1.94,3.17l-4.12,7.48c-0.99,1.79-3.45,3.27-5.51,3.32
						c-2.06,0.04-2.92-1.38-1.94-3.17l4.12-7.48C1317.44,79.36,1319.91,77.88,1321.96,77.84z"/>
				</g>
				<g class="st3">
					<path class="st4" d="M1315.59,62.38c2.06-0.04,2.93,1.38,1.94,3.17l-21.49,38.99c-0.99,1.79-3.45,3.27-5.51,3.32
						c-2.06,0.04-2.92-1.38-1.94-3.17l21.49-38.99C1311.07,63.91,1313.53,62.43,1315.59,62.38z"/>
				</g>
				<g class="st3">
					<path class="st4" d="M1300.66,62.48c2.06-0.04,2.92,1.38,1.94,3.17l-21.7,39.39c-0.99,1.79-3.45,3.27-5.51,3.32
						c-2.06,0.04-2.92-1.38-1.94-3.17l21.71-39.39C1296.13,64.01,1298.6,62.52,1300.66,62.48z"/>
				</g>
				<g class="st3">
					<path class="st4" d="M1294.71,46.26c2.06-0.04,2.92,1.37,1.94,3.17l-39.91,72.43c-0.99,1.79-3.45,3.27-5.51,3.32
						c-2.06,0.04-2.92-1.38-1.94-3.17l39.91-72.43C1290.19,47.78,1292.65,46.3,1294.71,46.26z"/>
				</g>
				<g class="st3">
					<path class="st4" d="M1270.7,62.8c2.06-0.04,2.93,1.38,1.94,3.17l-22.01,39.95c-0.99,1.79-3.45,3.28-5.51,3.32
						c-2.06,0.04-2.92-1.37-1.94-3.17l22.01-39.95C1266.18,64.33,1268.64,62.84,1270.7,62.8z"/>
				</g>
				<g class="st3">
					<path class="st4" d="M1269.99,37.07c2.06-0.04,2.92,1.38,1.94,3.17l-50.71,92.01c-0.99,1.79-3.45,3.28-5.51,3.32
						c-2.06,0.04-2.93-1.38-1.94-3.17l50.71-92.01C1265.47,38.59,1267.94,37.11,1269.99,37.07z"/>
				</g>
				<g class="st3">
					<path class="st4" d="M1264.09,20.78c2.06-0.04,2.92,1.37,1.94,3.17l-68.99,125.2c-0.99,1.79-3.45,3.27-5.51,3.32
						c-2.06,0.04-2.92-1.37-1.94-3.17l68.99-125.2C1259.57,22.3,1262.03,20.82,1264.09,20.78z"/>
				</g>
				<g class="st3">
					<path class="st4" d="M1258.47,3.96c2.06-0.04,2.92,1.38,1.94,3.17l-87.86,159.43c-0.99,1.79-3.45,3.27-5.51,3.32
						c-2.06,0.04,2.35-10.94,3.34-12.74l82.58-149.86C1253.95,5.49,1256.42,4,1258.47,3.96z"/>
				</g>
				<g class="st3">
					<path class="st4" d="M1236.7,16.46c2.06-0.04,2.92,1.37,1.94,3.17l-74.41,135.03c-0.99,1.79-3.45,3.27-5.51,3.32
						c-2.06,0.04-2.92-1.38-1.94-3.17l74.41-135.03C1232.18,17.99,1234.64,16.5,1236.7,16.46z"/>
				</g>
				<g class="st3">
					<path class="st4" d="M1224.73,11.17c2.06-0.04,2.92,1.38,1.94,3.17l-80.58,146.23c-0.99,1.79-3.45,3.27-5.51,3.32
						c-2.06,0.04-2.92-1.37-1.94-3.17l80.58-146.23C1220.2,12.69,1222.67,11.21,1224.73,11.17z"/>
				</g>
				<g class="st3">
					<path class="st4" d="M1217.04-1.9c2.06-0.04,2.93,1.38,1.94,3.17l-95.31,172.96c-0.99,1.79-3.45,3.27-5.51,3.32
						c-2.06,0.04-2.92-1.38-1.94-3.17l95.31-172.96C1212.52-0.38,1214.98-1.86,1217.04-1.9z"/>
				</g>
				<g class="st3">
					<path class="st4" d="M1213.73-22.89c2.06-0.04,2.92,1.37,1.94,3.17l-118.78,215.55c-0.99,1.79-3.45,3.27-5.51,3.32
						c-2.06,0.04-2.92-1.38-1.94-3.17l118.78-215.55C1209.2-21.37,1211.67-22.85,1213.73-22.89z"/>
				</g>
				<g class="st3">
					<path class="st4" d="M1188.37-3.89c2.06-0.04,2.92,1.38,1.94,3.17l-98.16,178.14c-0.99,1.79-3.45,3.27-5.51,3.32
						c-2.06,0.04-2.92-1.38-1.94-3.17l98.16-178.14C1183.84-2.36,1186.31-3.85,1188.37-3.89z"/>
				</g>
				<g class="st3">
					<path class="st4" d="M1167.46,7.04c2.06-0.04,2.92,1.38,1.94,3.17l-86.45,156.89c-0.99,1.79-3.45,3.27-5.51,3.32
						c-2.06,0.04-2.92-1.38-1.94-3.17l86.45-156.89C1162.94,8.56,1165.4,7.08,1167.46,7.04z"/>
				</g>
				<g class="st3">
					<path class="st4" d="M1161.12-8.46c2.06-0.04,2.92,1.38,1.94,3.17L1059.18,183.2c-0.99,1.79-3.45,3.27-5.51,3.32
						c-2.06,0.04-2.92-1.37-1.94-3.17L1155.61-5.15C1156.59-6.94,1159.06-8.42,1161.12-8.46z"/>
				</g>
				<g class="st3">
					<path class="st4" d="M1137.07,8.16c2.06-0.04,2.92,1.38,1.94,3.17l-85.88,155.84c-0.99,1.79-3.45,3.27-5.51,3.32
						c-2.06,0.04-2.92-1.38-1.94-3.17l85.88-155.84C1132.54,9.68,1135.01,8.2,1137.07,8.16z"/>
				</g>
				<g class="st3">
					<path class="st4" d="M1117.25,17.1c2.06-0.04,2.93,1.38,1.94,3.17l-76.35,138.56c-0.99,1.79-3.45,3.27-5.51,3.32
						c-2.06,0.04-2.92-1.38-1.94-3.17l76.35-138.56C1112.73,18.63,1115.19,17.14,1117.25,17.1z"/>
				</g>
				<g class="st3">
					<path class="st4" d="M1098.34,24.42c2.06-0.04,2.92,1.37,1.94,3.17l-68.62,124.53c-0.99,1.79-3.45,3.27-5.51,3.32
						s-2.92-1.38-1.94-3.17l68.62-124.53C1093.82,25.94,1096.28,24.46,1098.34,24.42z"/>
				</g>
				<g class="st3">
					<path class="st4" d="M1080.63,29.54c2.06-0.04,2.92,1.38,1.94,3.17l-63.3,114.88c-0.99,1.79-3.45,3.27-5.51,3.32
						c-2.06,0.04-2.93-1.38-1.94-3.17l63.3-114.88C1076.11,31.07,1078.57,29.58,1080.63,29.54z"/>
				</g>
				<g class="st3">
					<path class="st4" d="M1069.04,23.55c2.06-0.04,2.92,1.38,1.94,3.17l-70.24,127.46c-0.99,1.79-3.45,3.27-5.51,3.32
						c-2.06,0.04-2.92-1.38-1.94-3.17l70.24-127.46C1064.52,25.08,1066.99,23.59,1069.04,23.55z"/>
				</g>
				<g class="st3">
					<path class="st4" d="M1047.51,35.62c2.06-0.04,2.92,1.37,1.94,3.17l-57.27,103.93c-0.99,1.79-3.45,3.27-5.51,3.32
						c-2.06,0.04-2.92-1.38-1.94-3.17L1042,38.93C1042.98,37.14,1045.45,35.66,1047.51,35.62z"/>
				</g>
				<g class="st3">
					<path class="st4" d="M1026.39,46.91c2.06-0.04,2.92,1.38,1.94,3.17l-45.15,81.94c-0.99,1.79-3.45,3.27-5.51,3.32
						c-2.06,0.04-2.92-1.38-1.94-3.17l45.15-81.94C1021.87,48.44,1024.34,46.95,1026.39,46.91z"/>
				</g>
				<g class="st3">
					<path class="st4" d="M1016.15,38.49c2.06-0.04,2.92,1.37,1.94,3.17l-54.76,99.38c-0.99,1.79-3.45,3.27-5.51,3.32
						c-2.06,0.04-2.92-1.38-1.94-3.17l54.76-99.38C1011.63,40.02,1014.09,38.53,1016.15,38.49z"/>
				</g>
				<g class="st3">
					<path class="st4" d="M984.33,69.22c2.06-0.04,2.92,1.37,1.94,3.17l-21.23,38.52c-0.99,1.79-3.45,3.27-5.51,3.32
						c-2.06,0.04-2.92-1.38-1.94-3.17l21.23-38.52C979.81,70.75,982.27,69.26,984.33,69.22z"/>
				</g>
				<g class="st3">
					<path class="st4" d="M964.24,78.67c2.06-0.04,2.92,1.37,1.94,3.17l-11.15,20.23c-0.99,1.79-3.45,3.27-5.51,3.32
						c-2.06,0.04-2.93-1.38-1.94-3.17l11.15-20.23C959.72,80.19,962.18,78.71,964.24,78.67z"/>
				</g>
				<g class="st3">
					<path class="st4" d="M973.43,34.98c2.06-0.04,2.92,1.37,1.94,3.17l-59.63,108.21c-0.99,1.79-3.45,3.27-5.51,3.32
						c-2.06,0.04-2.93-1.38-1.94-3.17L967.92,38.3C968.91,36.5,971.37,35.02,973.43,34.98z"/>
				</g>
				<g class="st3">
					<path class="st4" d="M953.83,43.53c2.06-0.04,2.92,1.38,1.94,3.17l-50.53,91.7c-0.99,1.79-3.45,3.27-5.51,3.32
						c-2.06,0.04-2.92-1.38-1.94-3.17l50.53-91.7C949.31,45.05,951.77,43.57,953.83,43.53z"/>
				</g>
				<g class="st3">
					<path class="st4" d="M957.89,9.14c2.06-0.04,2.92,1.38,1.94,3.17l-88.77,161.1c-0.99,1.79-3.45,3.27-5.51,3.32
						c-2.06,0.04-2.92-1.38-1.94-3.17l88.77-161.1C953.37,10.66,955.83,9.18,957.89,9.14z"/>
				</g>
				<g class="st3">
					<path class="st4" d="M946.39,3.01c2.06-0.04,2.92,1.38,1.94,3.17l-95.86,173.96c-0.99,1.79-3.45,3.27-5.51,3.32
						s-2.93-1.38-1.94-3.17L940.88,6.32C941.87,4.53,944.33,3.05,946.39,3.01z"/>
				</g>
				<g class="st3">
					<path class="st4" d="M941.09-14.39c2.06-0.04,2.93,1.38,1.94,3.17L827.67,198.12c-0.99,1.79-3.45,3.27-5.51,3.31
						c-2.06,0.04-2.92-1.37-1.94-3.17L935.58-11.07C936.57-12.86,939.03-14.34,941.09-14.39z"/>
				</g>
				<g class="st3">
					<path class="st4" d="M933.56-27.74c2.06-0.04,2.92,1.38,1.94,3.17L805.09,212.08c-0.99,1.79-3.45,3.28-5.51,3.32
						c-2.06,0.04-2.93-1.38-1.94-3.17L928.05-24.43C929.04-26.22,931.51-27.7,933.56-27.74z"/>
				</g>
				<g class="st5">
					<path class="st4" d="M914.25-19.71c2.06-0.04,2.92,1.38,1.94,3.17L794.3,204.65c-0.99,1.79-3.45,3.27-5.51,3.32
						c-2.06,0.04-2.93-1.38-1.94-3.17L908.74-16.4C909.73-18.19,912.19-19.67,914.25-19.71z"/>
				</g>
				<g class="st5">
					<path class="st4" d="M894.12-10.2c2.06-0.04,2.92,1.38,1.94,3.17L784.32,195.74c-0.99,1.79-3.45,3.27-5.51,3.32
						c-2.06,0.04-2.92-1.38-1.94-3.17L888.61-6.89C889.6-8.68,892.06-10.16,894.12-10.2z"/>
				</g>
				<g class="st5">
					<path class="st4" d="M883.39-17.74c2.06-0.04,2.93,1.38,1.94,3.17L764.95,203.88c-0.99,1.79-3.45,3.27-5.51,3.32
						c-2.06,0.04-2.92-1.38-1.94-3.17L877.88-14.43C878.87-16.22,881.34-17.7,883.39-17.74z"/>
				</g>
				<g class="st5">
					<path class="st4" d="M876.53-32.3c2.06-0.04,2.92,1.38,1.94,3.17L741.71,219.04c-0.99,1.79-3.45,3.27-5.51,3.32
						c-2.06,0.04-2.93-1.38-1.94-3.17L871.02-28.99C872-30.78,874.47-32.26,876.53-32.3z"/>
				</g>
				<g class="st5">
					<path class="st4" d="M841.79,3.72c2.06-0.04,2.93,1.38,1.94,3.17l-97.39,176.73c-0.99,1.79-3.45,3.27-5.51,3.32
						c-2.06,0.04-2.92-1.38-1.94-3.17L836.29,7.04C837.27,5.25,839.74,3.76,841.79,3.72z"/>
				</g>
				<g class="st5">
					<path class="st4" d="M826.54,4.39c2.06-0.04,2.93,1.38,1.94,3.17L731.5,183.54c-0.99,1.79-3.45,3.28-5.51,3.32
						c-2.06,0.04-2.92-1.37-1.94-3.17L821.03,7.71C822.01,5.92,824.48,4.43,826.54,4.39z"/>
				</g>
				<g class="st5">
					<path class="st4" d="M804.69,17.01c2.06-0.04,2.92,1.38,1.94,3.17l-83.4,151.34c-0.99,1.79-3.45,3.27-5.51,3.32
						c-2.06,0.04-2.93-1.38-1.94-3.17l83.4-151.34C800.17,18.54,802.64,17.05,804.69,17.01z"/>
				</g>
				<g class="st5">
					<path class="st4" d="M778.34,37.81c2.06-0.04,2.92,1.38,1.94,3.17L714.2,160.9c-0.99,1.79-3.45,3.27-5.51,3.32
						c-2.06,0.04-2.92-1.37-1.94-3.17l66.08-119.92C773.82,39.33,776.29,37.85,778.34,37.81z"/>
				</g>
				<g class="st5">
					<path class="st4" d="M766.88,31.6c2.06-0.04,2.93,1.38,1.94,3.17l-67.98,123.36c-0.99,1.79-3.45,3.27-5.51,3.32
						s-2.92-1.38-1.94-3.17l67.98-123.36C762.36,33.13,764.82,31.65,766.88,31.6z"/>
				</g>
				<g class="st5">
					<path class="st4" d="M738.49,56.12c2.06-0.04,2.92,1.37,1.94,3.17l-41.29,74.92c-0.99,1.79-3.45,3.28-5.51,3.32
						c-2.06,0.04-2.92-1.37-1.94-3.17l41.29-74.92C733.97,57.65,736.43,56.17,738.49,56.12z"/>
				</g>
				<g class="st5">
					<path class="st4" d="M740.65,25.18c2.06-0.04,2.92,1.37,1.94,3.17l-75.72,137.41c-0.99,1.79-3.45,3.27-5.51,3.32
						c-2.06,0.04-2.92-1.38-1.94-3.17l75.72-137.41C736.13,26.7,738.6,25.22,740.65,25.18z"/>
				</g>
				<g class="st5">
					<path class="st4" d="M728.04,21.05c2.06-0.04,2.93,1.38,1.94,3.17l-80.61,146.28c-0.99,1.79-3.45,3.28-5.51,3.32
						c-2.06,0.04-2.92-1.37-1.94-3.17l80.61-146.28C723.52,22.57,725.98,21.09,728.04,21.05z"/>
				</g>
				<g class="st5">
					<path class="st4" d="M719.46,9.6c2.06-0.04,2.92,1.38,1.94,3.17l-93.55,169.77c-0.99,1.79-3.45,3.27-5.51,3.32
						c-2.06,0.04-2.93-1.38-1.94-3.17l93.55-169.77C714.94,11.12,717.4,9.64,719.46,9.6z"/>
				</g>
				<g class="st5">
					<path class="st4" d="M698.2,21.17c2.06-0.04,2.92,1.38,1.94,3.17l-81.13,147.23c-0.99,1.79-3.45,3.27-5.51,3.32
						s-2.92-1.38-1.94-3.17l81.13-147.23C693.68,22.7,696.14,21.21,698.2,21.17z"/>
				</g>
				<g class="st5">
					<path class="st4" d="M680.19,26.85c2.06-0.04,2.93,1.38,1.94,3.17l-75.21,136.48c-0.99,1.79-3.45,3.27-5.51,3.32
						c-2.06,0.04-2.92-1.38-1.94-3.17l75.21-136.48C675.66,28.37,678.13,26.89,680.19,26.85z"/>
				</g>
				<g class="st5">
					<path class="st4" d="M655.59,44.47c2.06-0.04,2.92,1.38,1.94,3.17l-56.12,101.83c-0.99,1.79-3.45,3.27-5.51,3.32
						c-2.06,0.04-2.92-1.37-1.94-3.17l56.12-101.83C651.07,46,653.53,44.51,655.59,44.47z"/>
				</g>
				<g class="st5">
					<path class="st4" d="M641.5,43.03c2.06-0.04,2.92,1.37,1.94,3.17L585.4,151.51c-0.99,1.79-3.45,3.27-5.51,3.32
						c-2.06,0.04-2.92-1.38-1.94-3.17l58.03-105.31C636.97,44.56,639.44,43.07,641.5,43.03z"/>
				</g>
				<g class="st5">
					<path class="st4" d="M607.79,77.18c2.06-0.04,2.93,1.38,1.94,3.17L589,117.96c-0.99,1.79-3.45,3.27-5.51,3.32
						c-2.06,0.04-2.92-1.38-1.94-3.17l20.72-37.61C603.27,78.71,605.73,77.22,607.79,77.18z"/>
				</g>
				<g class="st5">
					<path class="st4" d="M602.7,59.39c2.06-0.04,2.92,1.38,1.94,3.17l-40.66,73.79c-0.99,1.79-3.45,3.27-5.51,3.32
						c-2.06,0.04-2.93-1.38-1.94-3.17l40.66-73.79C598.18,60.92,600.65,59.43,602.7,59.39z"/>
				</g>
				<g class="st5">
					<path class="st4" d="M592.75,50.44c2.06-0.04,2.92,1.38,1.94,3.17l-50.86,92.29c-0.99,1.79-3.45,3.27-5.51,3.32
						c-2.06,0.04-2.92-1.38-1.94-3.17l50.86-92.29C588.23,51.97,590.7,50.48,592.75,50.44z"/>
				</g>
				<g class="st5">
					<path class="st4" d="M583.88,39.55c2.06-0.04,2.92,1.38,1.94,3.17l-63.2,114.69c-0.99,1.79-3.45,3.27-5.51,3.32
						s-2.92-1.38-1.94-3.17l63.2-114.69C579.35,41.07,581.82,39.59,583.88,39.55z"/>
				</g>
				<g class="st5">
					<path class="st4" d="M559.9,56.04c2.06-0.04,2.92,1.38,1.94,3.17l-45.35,82.3c-0.99,1.79-3.45,3.27-5.51,3.32
						s-2.92-1.37-1.94-3.17l45.35-82.3C555.38,57.57,557.84,56.08,559.9,56.04z"/>
				</g>
				<g class="st5">
					<path class="st4" d="M552.77,41.97c2.06-0.04,2.92,1.37,1.94,3.17l-61.19,111.05c-0.99,1.79-3.45,3.27-5.51,3.32
						c-2.06,0.04-2.92-1.38-1.94-3.17l61.19-111.05C548.24,43.49,550.71,42.01,552.77,41.97z"/>
				</g>
				<g class="st5">
					<path class="st4" d="M536.33,44.77c2.06-0.04,2.93,1.38,1.94,3.17l-58.44,106.04c-0.99,1.79-3.45,3.27-5.51,3.32
						s-2.92-1.38-1.94-3.17l58.44-106.04C531.81,46.29,534.28,44.81,536.33,44.77z"/>
				</g>
				<g class="st5">
					<path class="st4" d="M530.94,27.56c2.06-0.04,2.92,1.38,1.94,3.17l-77.74,141.07c-0.99,1.79-3.45,3.27-5.51,3.32
						c-2.06,0.04-2.92-1.37-1.94-3.17l77.74-141.07C526.41,29.08,528.88,27.6,530.94,27.56z"/>
				</g>
				<g class="st5">
					<path class="st4" d="M514.11,31.08c2.06-0.04,2.92,1.37,1.94,3.17l-74.19,134.63c-0.99,1.79-3.45,3.27-5.51,3.32
						c-2.06,0.04-2.92-1.38-1.94-3.17L508.6,34.39C509.59,32.6,512.05,31.12,514.11,31.08z"/>
				</g>
				<g class="st5">
					<path class="st4" d="M506.69,17.53c2.06-0.04,2.92,1.37,1.94,3.17l-89.44,162.31c-0.99,1.79-3.45,3.27-5.51,3.32
						c-2.06,0.04-2.92-1.38-1.94-3.17l89.44-162.31C502.17,19.06,504.63,17.58,506.69,17.53z"/>
				</g>
				<g class="st5">
					<path class="st4" d="M503.68-4.02c2.06-0.04,2.92,1.37,1.94,3.17L392.08,205.17c-0.99,1.79-3.45,3.27-5.51,3.32
						c-2.06,0.04-2.92-1.38-1.94-3.17L498.17-0.7C499.16-2.5,501.62-3.98,503.68-4.02z"/>
				</g>
				<g class="st5">
					<path class="st4" d="M478.97,13.79c2.06-0.04,2.92,1.38,1.94,3.17l-94.23,170.99c-0.99,1.79-3.45,3.27-5.51,3.32
						c-2.06,0.04-2.92-1.38-1.94-3.17l94.23-170.99C474.45,15.32,476.92,13.83,478.97,13.79z"/>
				</g>
				<g class="st5">
					<path class="st4" d="M469.67,3.66c2.06-0.04,2.92,1.38,1.94,3.17L365.88,198.68c-0.99,1.79-3.45,3.27-5.51,3.32
						c-2.06,0.04-2.92-1.38-1.94-3.17L464.16,6.98C465.14,5.19,467.61,3.7,469.67,3.66z"/>
				</g>
				<g class="st5">
					<path class="st4" d="M449.51,13.23c2.06-0.04,2.92,1.38,1.94,3.17l-95.52,173.33c-0.99,1.79-3.45,3.27-5.51,3.32
						c-2.06,0.04-2.92-1.38-1.94-3.17l95.52-173.33C444.99,14.75,447.46,13.27,449.51,13.23z"/>
				</g>
				<g class="st5">
					<path class="st4" d="M423.11,34.13c2.06-0.04,2.92,1.38,1.94,3.17l-72.8,132.11c-0.99,1.79-3.45,3.28-5.51,3.32
						c-2.06,0.04-2.93-1.38-1.94-3.17l72.8-132.11C418.59,35.66,421.05,34.18,423.11,34.13z"/>
				</g>
				<g class="st5">
					<path class="st4" d="M414.39,22.94c2.06-0.04,2.92,1.38,1.94,3.17L330.86,181.2c-0.99,1.79-3.45,3.27-5.51,3.32
						c-2.06,0.04-2.92-1.37-1.94-3.17l85.46-155.09C409.87,24.47,412.33,22.99,414.39,22.94z"/>
				</g>
				<g class="st5">
					<path class="st4" d="M391.94,36.67c2.06-0.04,2.92,1.38,1.94,3.17l-70.67,128.25c-0.99,1.79-3.45,3.27-5.51,3.32
						c-2.06,0.04-2.92-1.38-1.94-3.17l70.67-128.25C387.42,38.19,389.88,36.71,391.94,36.67z"/>
				</g>
				<g class="st5">
					<path class="st4" d="M371.34,47.03c2.06-0.04,2.92,1.38,1.94,3.17l-59.59,108.13c-0.99,1.79-3.45,3.27-5.51,3.32
						c-2.06,0.04-2.92-1.38-1.94-3.17l59.59-108.13C366.82,48.55,369.28,47.07,371.34,47.03z"/>
				</g>
				<g class="st5">
					<path class="st4" d="M353,53.3c2.06-0.04,2.92,1.38,1.94,3.17l-53,96.18c-0.99,1.79-3.45,3.27-5.51,3.32
						c-2.06,0.04-2.93-1.38-1.94-3.17l53-96.18C348.48,54.83,350.94,53.34,353,53.3z"/>
				</g>
			</g>
		</g>
		<g>
			<g>
				<path class="st6" d="M386.06-1.33l-5.85-4.44c-10.23,14.53-9.92,32.89,0.93,47.19c9.26,12.21,9.26,27.38,0,39.58
					c-11.17,14.72-11.17,33.74,0,48.46c9.26,12.21,9.26,27.38,0,39.58c-10.85,14.3-11.16,32.66-0.93,47.19l5.85-4.44
					c-4.01-5.78-6.02-12.15-6.02-18.52c0-6.85,2.32-13.69,6.95-19.79c5.49-7.23,8.39-15.61,8.39-24.23c0-8.62-2.9-17-8.39-24.23
					c-9.26-12.21-9.26-27.37,0-39.58c11.17-14.72,11.17-33.74,0-48.46C378.04,25.18,377.73,10.64,386.06-1.33z"/>
			</g>
			<g>
				<path class="st6" d="M417.72,211.79c-8.32-11.98-8.01-26.52,0.92-38.31c11.17-14.72,11.17-33.74,0-48.46
					c-4.63-6.1-6.94-12.95-6.94-19.79c0-6.84,2.31-13.69,6.94-19.79c5.49-7.23,8.39-15.61,8.39-24.23c0-8.62-2.9-17-8.39-24.23
					c-8.94-11.79-9.25-26.33-0.92-38.31l-5.85-4.44c-10.23,14.53-9.92,32.89,0.93,47.19c9.26,12.2,9.26,27.38,0,39.58
					c-11.17,14.72-11.17,33.74,0,48.46c9.26,12.2,9.26,27.37,0,39.58c-10.85,14.3-11.16,32.65-0.93,47.19L417.72,211.79z"/>
			</g>
			<g>
				<path class="st6" d="M445.71,85.44c5.49-7.23,8.39-15.61,8.39-24.23s-2.9-17-8.39-24.23c-8.94-11.79-9.25-26.33-0.92-38.31
					l-5.85-4.44c-10.23,14.53-9.92,32.89,0.93,47.19c9.26,12.21,9.25,27.38,0,39.58c-11.17,14.72-11.17,33.74,0,48.46
					c9.26,12.21,9.25,27.38,0,39.58c-10.85,14.29-11.17,32.65-0.93,47.19l5.85-4.44c-8.33-11.98-8.01-26.53,0.93-38.31
					c11.17-14.72,11.17-33.74,0-48.46c-4.63-6.11-6.94-12.95-6.94-19.79C438.77,98.38,441.08,91.54,445.71,85.44z"/>
			</g>
			<g>
				<path class="st6" d="M472.63,85.44c5.49-7.23,8.39-15.61,8.39-24.23s-2.9-17-8.39-24.23c-8.94-11.79-9.25-26.33-0.92-38.31
					l-5.85-4.44c-10.23,14.53-9.92,32.89,0.93,47.19c9.26,12.21,9.25,27.38,0,39.58c-11.17,14.72-11.17,33.74,0,48.46
					c9.26,12.21,9.25,27.38,0,39.58c-10.85,14.29-11.17,32.65-0.93,47.19l5.85-4.44c-8.33-11.98-8.01-26.53,0.93-38.31
					c11.17-14.72,11.17-33.74,0-48.46c-4.63-6.11-6.94-12.95-6.94-19.79C465.69,98.38,468,91.54,472.63,85.44z"/>
			</g>
		</g>
	</g>
</g>
</svg>
