<?xml version="1.0" encoding="utf-8"?>
<!-- Generator: Adobe Illustrator 25.4.1, SVG Export Plug-In . SVG Version: 6.00 Build 0)  -->
<svg version="1.1" id="Capa_1" xmlns="http://www.w3.org/2000/svg" xmlns:xlink="http://www.w3.org/1999/xlink" x="0px" y="0px"
	 viewBox="0 0 900 150" style="enable-background:new 0 0 900 150;" xml:space="preserve">
<style type="text/css">
	.st0{fill:#3CB5A1;}
	.st1{clip-path:url(#SVGID_00000061429897188766788870000008163477713077821313_);}
	.st2{fill:#FFFFFF;}
</style>
<g>
	<g>
		<g>
			<path class="st0" d="M640.83,137.63c-4.4,2.93-12.67,0.12-8.34-2.77C636.89,131.93,645.16,134.74,640.83,137.63z"/>
		</g>
		<g>
			<path class="st0" d="M480.13,139.63c0.12,1.83-3.33,3.36-6.3,3.55c-4.64,0.3-9.1-2.22-5.23-4.8
				C472.79,135.59,479.97,137.13,480.13,139.63z"/>
		</g>
		<g>
			<g>
				<path class="st0" d="M613.53,80.22c0.1,1.52-2.76,2.79-5.23,2.95c-3.85,0.25-7.56-1.85-4.34-3.99
					C607.43,76.86,613.4,78.14,613.53,80.22z"/>
			</g>
			<g>
				<path class="st0" d="M487.05,20.07c-4.4,2.93-12.68,0.12-8.35-2.77C483.11,14.37,491.38,17.18,487.05,20.07z"/>
			</g>
			<g>
				<path class="st0" d="M566.95,113.6c-4.4,2.93-12.67,0.12-8.34-2.77C563.01,107.9,571.28,110.71,566.95,113.6z"/>
			</g>
			<g>
				<g>
					<path class="st0" d="M562.49,113.05c0.13-0.01,0.25-0.05,0.37-0.12l46.86-31.22c0.22-0.15,0.35-0.4,0.33-0.67
						c-0.02-0.27-0.18-0.5-0.42-0.62L483.75,18.13c-0.37-0.18-0.82-0.03-1,0.34c-0.18,0.37-0.03,0.82,0.34,1L607.8,81.18
						l-45.78,30.5c-0.34,0.23-0.44,0.69-0.21,1.04C561.97,112.95,562.23,113.07,562.49,113.05z"/>
				</g>
			</g>
			<g>
				<g>
					<path class="st0" d="M636.73,136.99c0.26-0.02,0.5-0.17,0.62-0.42c0.18-0.37,0.03-0.82-0.34-1l-63.22-31.28
						c-0.37-0.18-0.82-0.03-1,0.34c-0.18,0.37-0.03,0.82,0.34,1l63.22,31.28C636.48,136.97,636.61,137,636.73,136.99z"/>
				</g>
			</g>
			<g>
				<path class="st0" d="M474.77,71.52c0.12,1.83-3.33,3.36-6.3,3.55c-4.64,0.3-9.1-2.22-5.23-4.8
					C467.42,67.48,474.61,69.02,474.77,71.52z"/>
			</g>
			<g>
				<path class="st0" d="M536.51,102.07c0.12,1.83-3.33,3.36-6.3,3.55c-4.64,0.3-9.1-2.22-5.23-4.8
					C529.17,98.03,536.35,99.57,536.51,102.07z"/>
			</g>
			<g>
				<g>
					<path class="st0" d="M473.75,141c0.15-0.01,0.3-0.06,0.44-0.15l56.4-37.58c0.27-0.18,0.42-0.49,0.4-0.81
						c-0.02-0.32-0.21-0.61-0.5-0.75l-60.43-29.9l50.4-33.58c0.41-0.28,0.53-0.84,0.25-1.25c-0.28-0.41-0.84-0.53-1.25-0.25
						l-51.7,34.45c-0.27,0.18-0.42,0.49-0.4,0.81c0.02,0.32,0.21,0.61,0.5,0.75l60.43,29.9l-55.1,36.71
						c-0.41,0.28-0.53,0.84-0.25,1.25C473.13,140.88,473.44,141.02,473.75,141z"/>
				</g>
			</g>
			<g>
				<path class="st0" d="M532.76,69.78c-5.31,3.53-15.27,0.14-10.05-3.34C528.01,62.91,537.98,66.3,532.76,69.78z"/>
			</g>
			<g>
				<g>
					<path class="st0" d="M527.62,68.77c0.31-0.02,0.6-0.2,0.75-0.5c0.22-0.45,0.04-0.99-0.41-1.21l-30.34-15.01
						c-0.45-0.22-0.99-0.04-1.21,0.41c-0.22,0.45-0.04,0.99,0.41,1.21l30.34,15.01C527.31,68.75,527.47,68.78,527.62,68.77z"/>
				</g>
			</g>
		</g>
	</g>
	<g>
		<defs>
			<polygon id="SVGID_1_" points="900,1 445.74,1 531,43.18 607.8,81.18 573.8,104.29 667.69,151 900,151 			"/>
		</defs>
		<use xlink:href="#SVGID_1_"  style="overflow:visible;fill:#3CB5A1;"/>
		<clipPath id="SVGID_00000181086238831641298340000015156643894713526182_">
			<use xlink:href="#SVGID_1_"  style="overflow:visible;"/>
		</clipPath>
		<g style="clip-path:url(#SVGID_00000181086238831641298340000015156643894713526182_);">
			<g>
				<path class="st2" d="M640.83,137.63c-4.4,2.93-12.67,0.12-8.34-2.77C636.89,131.93,645.16,134.74,640.83,137.63z"/>
			</g>
			<g>
				<path class="st2" d="M480.13,139.63c0.12,1.83-3.33,3.36-6.3,3.55c-4.64,0.3-9.1-2.22-5.23-4.8
					C472.79,135.59,479.97,137.13,480.13,139.63z"/>
			</g>
			<g>
				<g>
					<path class="st2" d="M613.53,80.22c0.1,1.52-2.76,2.79-5.23,2.95c-3.85,0.25-7.56-1.85-4.34-3.99
						C607.43,76.86,613.4,78.14,613.53,80.22z"/>
				</g>
				<g>
					<path class="st2" d="M487.05,20.07c-4.4,2.93-12.68,0.12-8.35-2.77C483.11,14.37,491.38,17.18,487.05,20.07z"/>
				</g>
				<g>
					<path class="st2" d="M566.95,113.6c-4.4,2.93-12.67,0.12-8.34-2.77C563.01,107.9,571.28,110.71,566.95,113.6z"/>
				</g>
				<g>
					<g>
						<path class="st2" d="M562.49,113.05c0.13-0.01,0.25-0.05,0.37-0.12l46.86-31.22c0.22-0.15,0.35-0.4,0.33-0.67
							c-0.02-0.27-0.18-0.5-0.42-0.62L483.75,18.13c-0.37-0.18-0.82-0.03-1,0.34c-0.18,0.37-0.03,0.82,0.34,1L607.8,81.18
							l-45.78,30.5c-0.34,0.23-0.44,0.69-0.21,1.04C561.97,112.95,562.23,113.07,562.49,113.05z"/>
					</g>
				</g>
				<g>
					<g>
						<path class="st2" d="M636.73,136.99c0.26-0.02,0.5-0.17,0.62-0.42c0.18-0.37,0.03-0.82-0.34-1l-63.22-31.28
							c-0.37-0.18-0.82-0.03-1,0.34c-0.18,0.37-0.03,0.82,0.34,1l63.22,31.28C636.48,136.97,636.61,137,636.73,136.99z"/>
					</g>
				</g>
				<g>
					<path class="st2" d="M474.77,71.52c0.12,1.83-3.33,3.36-6.3,3.55c-4.64,0.3-9.1-2.22-5.23-4.8
						C467.42,67.48,474.61,69.02,474.77,71.52z"/>
				</g>
				<g>
					<path class="st2" d="M536.51,102.07c0.12,1.83-3.33,3.36-6.3,3.55c-4.64,0.3-9.1-2.22-5.23-4.8
						C529.17,98.03,536.35,99.57,536.51,102.07z"/>
				</g>
				<g>
					<g>
						<path class="st2" d="M473.75,141c0.15-0.01,0.3-0.06,0.44-0.15l56.4-37.58c0.27-0.18,0.42-0.49,0.4-0.81
							c-0.02-0.32-0.21-0.61-0.5-0.75l-60.43-29.9l50.4-33.58c0.41-0.28,0.53-0.84,0.25-1.25c-0.28-0.41-0.84-0.53-1.25-0.25
							l-51.7,34.45c-0.27,0.18-0.42,0.49-0.4,0.81c0.02,0.32,0.21,0.61,0.5,0.75l60.43,29.9l-55.1,36.71
							c-0.41,0.28-0.53,0.84-0.25,1.25C473.13,140.88,473.44,141.02,473.75,141z"/>
					</g>
				</g>
				<g>
					<path class="st2" d="M532.76,69.78c-5.31,3.53-15.27,0.14-10.05-3.34C528.01,62.91,537.98,66.3,532.76,69.78z"/>
				</g>
				<g>
					<g>
						<path class="st2" d="M527.62,68.77c0.31-0.02,0.6-0.2,0.75-0.5c0.22-0.45,0.04-0.99-0.41-1.21l-30.34-15.01
							c-0.45-0.22-0.99-0.04-1.21,0.41c-0.22,0.45-0.04,0.99,0.41,1.21l30.34,15.01C527.31,68.75,527.47,68.78,527.62,68.77z"/>
					</g>
				</g>
			</g>
		</g>
	</g>
</g>
<g>
	<path class="st0" d="M88.25,106.76H76.23V81.21h-17.8v25.55H46.37V47.04h12.06V71.2h17.8V47.04h12.02V106.76z"/>
	<path class="st0" d="M98.21,77.39l2.95-30.35h28.92v9.93h-19.4l-1.07,12.8c2.24-1.5,4.55-2.26,6.93-2.26
		c4.92,0,8.72,1.75,11.38,5.25c2.67,3.5,4,8.45,4,14.85c0,5.99-1.59,10.81-4.76,14.48s-7.41,5.5-12.71,5.5
		c-3.14,0-6.06-0.74-8.74-2.23s-4.79-3.56-6.34-6.21s-2.33-5.66-2.36-9.02h11.48c0.19,2.49,0.81,4.42,1.85,5.78s2.38,2.05,4.02,2.05
		c1.91,0,3.39-0.92,4.43-2.77s1.56-4.6,1.56-8.27c0-3.45-0.62-6.04-1.87-7.79s-2.99-2.62-5.23-2.62c-2.19,0-3.88,0.75-5.09,2.26
		l-0.74,1.03L98.21,77.39z"/>
	<path class="st0" d="M152.48,85.76v21h-12.06V47.04h20.34c5.91,0,10.62,1.83,14.13,5.5s5.27,8.42,5.27,14.27
		s-1.74,10.47-5.21,13.86s-8.29,5.09-14.44,5.09H152.48z M152.48,75.71h8.29c2.3,0,4.07-0.75,5.33-2.26s1.89-3.69,1.89-6.56
		c0-2.98-0.64-5.35-1.93-7.12s-3.01-2.66-5.17-2.69h-8.41V75.71z"/>
</g>
<g>
	<path d="M211.03,60.8c-0.18,2.49-1.1,4.44-2.75,5.87c-1.66,1.43-3.84,2.14-6.55,2.14c-2.96,0-5.29-1-6.99-2.99
		c-1.7-1.99-2.55-4.73-2.55-8.21V56.2c0-2.22,0.39-4.18,1.17-5.87s1.9-2.99,3.36-3.9c1.45-0.9,3.14-1.36,5.07-1.36
		c2.67,0,4.81,0.71,6.44,2.14c1.63,1.43,2.57,3.43,2.83,6.01h-4.76c-0.12-1.49-0.53-2.57-1.25-3.25c-0.71-0.67-1.8-1.01-3.26-1.01
		c-1.59,0-2.77,0.57-3.56,1.71c-0.79,1.14-1.19,2.9-1.21,5.29v1.75c0,2.5,0.38,4.32,1.13,5.47c0.76,1.15,1.95,1.73,3.58,1.73
		c1.47,0,2.57-0.34,3.29-1.01c0.72-0.67,1.14-1.71,1.25-3.12H211.03z"/>
	<path d="M218.92,64.67h10.11v3.82h-14.87V45.39h4.76V64.67z"/>
	<path d="M245.1,63.74h-8.35l-1.59,4.76h-5.06l8.6-23.11h4.41l8.65,23.11h-5.06L245.1,63.74z M238.04,59.88h5.78l-2.9-8.65
		L238.04,59.88z"/>
	<path d="M265.91,62.43c0-0.9-0.32-1.59-0.95-2.07s-1.78-0.99-3.43-1.52s-2.96-1.06-3.92-1.58c-2.62-1.42-3.94-3.33-3.94-5.73
		c0-1.25,0.35-2.36,1.06-3.34s1.71-1.74,3.03-2.29s2.79-0.83,4.44-0.83c1.65,0,3.12,0.3,4.41,0.9s2.29,1.44,3.01,2.53
		c0.71,1.09,1.07,2.33,1.07,3.71h-4.76c0-1.06-0.33-1.88-1-2.47c-0.67-0.59-1.6-0.88-2.81-0.88c-1.16,0-2.07,0.25-2.71,0.74
		c-0.65,0.49-0.97,1.14-0.97,1.94c0,0.75,0.38,1.38,1.13,1.89c0.76,0.51,1.87,0.98,3.34,1.43c2.71,0.82,4.68,1.83,5.92,3.03
		c1.24,1.21,1.86,2.71,1.86,4.51c0,2-0.76,3.57-2.27,4.71c-1.51,1.14-3.55,1.71-6.11,1.71c-1.78,0-3.4-0.33-4.86-0.98
		c-1.46-0.65-2.57-1.54-3.34-2.67c-0.77-1.13-1.15-2.44-1.15-3.94h4.78c0,2.55,1.52,3.82,4.57,3.82c1.13,0,2.02-0.23,2.65-0.69
		S265.91,63.26,265.91,62.43z"/>
	<path d="M287.81,58.48h-9.14v6.19h10.73v3.82H273.9V45.39h15.46v3.86h-10.7v5.51h9.14V58.48z"/>
	<path d="M304.17,62.43c0-0.9-0.32-1.59-0.95-2.07s-1.78-0.99-3.43-1.52s-2.96-1.06-3.92-1.58c-2.62-1.42-3.94-3.33-3.94-5.73
		c0-1.25,0.35-2.36,1.06-3.34s1.71-1.74,3.03-2.29s2.79-0.83,4.44-0.83c1.65,0,3.12,0.3,4.41,0.9s2.29,1.44,3.01,2.53
		c0.71,1.09,1.07,2.33,1.07,3.71h-4.76c0-1.06-0.33-1.88-1-2.47c-0.67-0.59-1.6-0.88-2.81-0.88c-1.16,0-2.07,0.25-2.71,0.74
		c-0.65,0.49-0.97,1.14-0.97,1.94c0,0.75,0.38,1.38,1.13,1.89c0.76,0.51,1.87,0.98,3.34,1.43c2.71,0.82,4.68,1.83,5.92,3.03
		c1.24,1.21,1.86,2.71,1.86,4.51c0,2-0.76,3.57-2.27,4.71c-1.51,1.14-3.55,1.71-6.11,1.71c-1.78,0-3.4-0.33-4.86-0.98
		c-1.46-0.65-2.57-1.54-3.34-2.67c-0.77-1.13-1.15-2.44-1.15-3.94h4.78c0,2.55,1.52,3.82,4.57,3.82c1.13,0,2.02-0.23,2.65-0.69
		S304.17,63.26,304.17,62.43z"/>
	<path d="M197.95,106.5h-4.76V83.39h4.76V106.5z"/>
	<path d="M221.15,106.5h-4.76l-9.27-15.2v15.2h-4.76V83.39h4.76l9.28,15.23V83.39h4.74V106.5z"/>
	<path d="M242.25,87.25h-7.08v19.25h-4.76V87.25h-6.98v-3.86h18.82V87.25z"/>
	<path d="M258.86,96.48h-9.14v6.19h10.73v3.82h-15.49V83.39h15.46v3.86h-10.7v5.51h9.14V96.48z"/>
	<path d="M271.79,98.04H268v8.46h-4.76V83.39h8.59c2.73,0,4.83,0.61,6.32,1.83s2.22,2.94,2.22,5.16c0,1.58-0.34,2.89-1.02,3.94
		s-1.72,1.89-3.1,2.52l5,9.44v0.22h-5.11L271.79,98.04z M268,94.18h3.84c1.2,0,2.12-0.3,2.78-0.91c0.66-0.61,0.98-1.45,0.98-2.52
		c0-1.09-0.31-1.95-0.93-2.57c-0.62-0.62-1.57-0.94-2.85-0.94H268V94.18z"/>
	<path d="M297.03,101.74h-8.35l-1.59,4.76h-5.06l8.6-23.11h4.41l8.65,23.11h-5.06L297.03,101.74z M289.96,97.88h5.78l-2.9-8.65
		L289.96,97.88z"/>
	<path d="M323.65,98.8c-0.18,2.49-1.1,4.44-2.75,5.87c-1.66,1.43-3.84,2.14-6.55,2.14c-2.96,0-5.29-1-6.99-2.99
		c-1.7-1.99-2.55-4.73-2.55-8.21V94.2c0-2.22,0.39-4.18,1.17-5.87s1.9-2.99,3.36-3.9c1.45-0.9,3.14-1.36,5.07-1.36
		c2.67,0,4.81,0.71,6.44,2.14c1.63,1.43,2.57,3.43,2.83,6.01h-4.76c-0.12-1.49-0.53-2.57-1.25-3.25c-0.71-0.67-1.8-1.01-3.26-1.01
		c-1.59,0-2.77,0.57-3.56,1.71c-0.79,1.14-1.19,2.9-1.21,5.29v1.75c0,2.5,0.38,4.32,1.13,5.47c0.76,1.15,1.95,1.73,3.58,1.73
		c1.47,0,2.57-0.34,3.29-1.01c0.72-0.67,1.14-1.71,1.25-3.12H323.65z"/>
	<path d="M343.71,87.25h-7.08v19.25h-4.76V87.25h-6.98v-3.86h18.82V87.25z"/>
	<path d="M351.49,106.5h-4.76V83.39h4.76V106.5z"/>
	<path d="M364.44,100.77l5.24-17.38h5.3l-8.05,23.11h-4.97l-8.01-23.11h5.28L364.44,100.77z"/>
	<path d="M389,101.74h-8.35l-1.59,4.76h-5.06l8.6-23.11h4.41l8.65,23.11h-5.06L389,101.74z M381.94,97.88h5.78l-2.9-8.65
		L381.94,97.88z"/>
	<path d="M409.81,100.43c0-0.9-0.32-1.59-0.95-2.07s-1.78-0.99-3.43-1.52s-2.96-1.06-3.92-1.58c-2.62-1.42-3.94-3.33-3.94-5.73
		c0-1.25,0.35-2.36,1.06-3.34s1.71-1.74,3.03-2.29s2.79-0.83,4.44-0.83c1.65,0,3.12,0.3,4.41,0.9s2.29,1.44,3.01,2.53
		c0.71,1.09,1.07,2.33,1.07,3.71h-4.76c0-1.06-0.33-1.88-1-2.47c-0.67-0.59-1.6-0.88-2.81-0.88c-1.16,0-2.07,0.25-2.71,0.74
		c-0.65,0.49-0.97,1.14-0.97,1.94c0,0.75,0.38,1.38,1.13,1.89c0.76,0.51,1.87,0.98,3.34,1.43c2.71,0.82,4.68,1.83,5.92,3.03
		c1.24,1.21,1.86,2.71,1.86,4.51c0,2-0.76,3.57-2.27,4.71c-1.51,1.14-3.55,1.71-6.11,1.71c-1.78,0-3.4-0.33-4.86-0.98
		c-1.46-0.65-2.57-1.54-3.34-2.67c-0.77-1.13-1.15-2.44-1.15-3.94h4.78c0,2.55,1.52,3.82,4.57,3.82c1.13,0,2.02-0.23,2.65-0.69
		S409.81,101.26,409.81,100.43z"/>
</g>
<g>
	<path d="M651.07,41.24c0,2.25-0.51,4.07-1.54,5.44s-2.42,2.06-4.18,2.06c-1.8,0-3.21-0.57-4.24-1.71v7.12h-2.53V33.68h2.31
		l0.12,1.64c1.03-1.28,2.46-1.91,4.29-1.91c1.78,0,3.18,0.67,4.22,2.01s1.55,3.2,1.55,5.59V41.24z M648.54,40.95
		c0-1.67-0.36-2.99-1.07-3.95s-1.69-1.45-2.93-1.45c-1.53,0-2.68,0.68-3.45,2.04v7.07c0.76,1.35,1.91,2.02,3.47,2.02
		c1.21,0,2.18-0.48,2.89-1.44S648.54,42.85,648.54,40.95z"/>
	<path d="M663.42,48.47c-0.15-0.29-0.26-0.81-0.36-1.56c-1.18,1.22-2.58,1.83-4.21,1.83c-1.46,0-2.65-0.41-3.59-1.24
		s-1.4-1.87-1.4-3.14c0-1.54,0.59-2.74,1.76-3.59s2.82-1.28,4.94-1.28h2.46v-1.16c0-0.88-0.26-1.59-0.79-2.11s-1.31-0.79-2.34-0.79
		c-0.9,0-1.66,0.23-2.27,0.68s-0.92,1.01-0.92,1.65h-2.54c0-0.74,0.26-1.45,0.79-2.14s1.24-1.23,2.13-1.63s1.88-0.6,2.96-0.6
		c1.7,0,3.04,0.43,4.01,1.28s1.47,2.03,1.5,3.52v6.81c0,1.36,0.17,2.44,0.52,3.24v0.22H663.42z M659.22,46.54
		c0.79,0,1.54-0.21,2.26-0.62s1.23-0.94,1.54-1.6v-3.04h-1.98c-3.1,0-4.65,0.91-4.65,2.72c0,0.79,0.26,1.41,0.79,1.86
		S658.39,46.54,659.22,46.54z"/>
	<path d="M676.66,35.95c-0.38-0.06-0.8-0.1-1.24-0.1c-1.66,0-2.78,0.71-3.38,2.12v10.5h-2.53V33.68h2.46l0.04,1.71
		c0.83-1.32,2-1.98,3.53-1.98c0.49,0,0.87,0.06,1.12,0.19V35.95z"/>
	<path d="M687.57,48.47c-0.15-0.29-0.26-0.81-0.36-1.56c-1.18,1.22-2.58,1.83-4.21,1.83c-1.46,0-2.65-0.41-3.59-1.24
		s-1.4-1.87-1.4-3.14c0-1.54,0.59-2.74,1.76-3.59s2.82-1.28,4.94-1.28h2.46v-1.16c0-0.88-0.26-1.59-0.79-2.11s-1.31-0.79-2.34-0.79
		c-0.9,0-1.66,0.23-2.27,0.68s-0.92,1.01-0.92,1.65h-2.54c0-0.74,0.26-1.45,0.79-2.14s1.24-1.23,2.13-1.63s1.88-0.6,2.96-0.6
		c1.7,0,3.04,0.43,4.01,1.28s1.47,2.03,1.5,3.52v6.81c0,1.36,0.17,2.44,0.52,3.24v0.22H687.57z M683.38,46.54
		c0.79,0,1.54-0.21,2.26-0.62s1.23-0.94,1.54-1.6v-3.04h-1.98c-3.1,0-4.65,0.91-4.65,2.72c0,0.79,0.26,1.41,0.79,1.86
		S682.55,46.54,683.38,46.54z"/>
	<path d="M643.46,75.04l3.66-11.36h2.58l-5.3,14.79h-1.93l-5.36-14.79h2.58L643.46,75.04z"/>
	<path d="M658.1,78.75c-2,0-3.64-0.66-4.89-1.98s-1.89-3.08-1.89-5.28v-0.46c0-1.47,0.28-2.78,0.84-3.93s1.34-2.06,2.35-2.71
		s2.1-0.98,3.27-0.98c1.92,0,3.42,0.63,4.48,1.9s1.6,3.08,1.6,5.44v1.05h-10.02c0.04,1.46,0.46,2.64,1.28,3.53s1.85,1.35,3.11,1.35
		c0.89,0,1.65-0.18,2.27-0.55s1.16-0.85,1.63-1.45l1.54,1.2C662.44,77.79,660.58,78.75,658.1,78.75z M657.78,65.48
		c-1.02,0-1.88,0.37-2.57,1.11s-1.12,1.78-1.29,3.12h7.41v-0.19c-0.07-1.29-0.42-2.28-1.04-2.99S658.84,65.48,657.78,65.48z"/>
	<path d="M669.19,63.68l0.08,1.86c1.13-1.42,2.61-2.13,4.43-2.13c3.13,0,4.7,1.76,4.73,5.29v9.78h-2.53v-9.79
		c-0.01-1.07-0.25-1.85-0.73-2.37s-1.22-0.77-2.24-0.77c-0.82,0-1.54,0.22-2.16,0.66s-1.1,1.01-1.45,1.72v10.54h-2.53V63.68H669.19z
		"/>
	<path d="M685.67,60.1v3.58h2.76v1.96h-2.76v9.19c0,0.59,0.12,1.04,0.37,1.33c0.25,0.3,0.67,0.44,1.26,0.44
		c0.29,0,0.69-0.05,1.2-0.16v2.04c-0.67,0.18-1.31,0.27-1.94,0.27c-1.13,0-1.98-0.34-2.56-1.03s-0.86-1.65-0.86-2.91v-9.17h-2.69
		v-1.96h2.69V60.1H685.67z"/>
	<path d="M691.4,59.76c0-0.41,0.12-0.76,0.38-1.04s0.62-0.42,1.11-0.42s0.87,0.14,1.12,0.42s0.38,0.63,0.38,1.04
		s-0.13,0.75-0.38,1.03s-0.63,0.41-1.12,0.41s-0.86-0.14-1.11-0.41S691.4,60.17,691.4,59.76z M694.14,78.47h-2.53V63.68h2.53V78.47z
		"/>
	<path d="M700.93,78.47h-2.53v-21h2.53V78.47z"/>
	<path d="M714.11,78.47c-0.15-0.29-0.26-0.81-0.36-1.56c-1.18,1.22-2.58,1.83-4.21,1.83c-1.46,0-2.65-0.41-3.59-1.24
		s-1.4-1.87-1.4-3.14c0-1.54,0.59-2.74,1.76-3.59s2.82-1.28,4.94-1.28h2.46v-1.16c0-0.88-0.26-1.59-0.79-2.11s-1.31-0.79-2.34-0.79
		c-0.9,0-1.66,0.23-2.27,0.68s-0.92,1.01-0.92,1.65h-2.54c0-0.74,0.26-1.45,0.79-2.14s1.24-1.23,2.13-1.63s1.88-0.6,2.96-0.6
		c1.7,0,3.04,0.43,4.01,1.28s1.47,2.03,1.5,3.52v6.81c0,1.36,0.17,2.44,0.52,3.24v0.22H714.11z M709.91,76.54
		c0.79,0,1.54-0.21,2.26-0.62s1.23-0.94,1.54-1.6v-3.04h-1.98c-3.1,0-4.65,0.91-4.65,2.72c0,0.79,0.26,1.41,0.79,1.86
		S709.08,76.54,709.91,76.54z"/>
	<path d="M727.36,65.95c-0.38-0.06-0.8-0.1-1.24-0.1c-1.66,0-2.78,0.71-3.38,2.12v10.5h-2.53V63.68h2.46l0.04,1.71
		c0.83-1.32,2-1.98,3.53-1.98c0.49,0,0.87,0.06,1.12,0.19V65.95z"/>
	<path d="M641.32,108.47h-2.53v-21h2.53V108.47z"/>
	<path d="M654.5,108.47c-0.15-0.29-0.26-0.81-0.36-1.56c-1.18,1.22-2.58,1.83-4.21,1.83c-1.46,0-2.65-0.41-3.59-1.24
		s-1.4-1.87-1.4-3.14c0-1.54,0.59-2.74,1.76-3.59s2.82-1.28,4.94-1.28h2.46v-1.16c0-0.88-0.26-1.59-0.79-2.11s-1.31-0.79-2.34-0.79
		c-0.9,0-1.66,0.23-2.27,0.68s-0.92,1.01-0.92,1.65h-2.54c0-0.74,0.26-1.45,0.79-2.14s1.24-1.23,2.13-1.63s1.88-0.6,2.96-0.6
		c1.7,0,3.04,0.43,4.01,1.28s1.47,2.03,1.5,3.52v6.81c0,1.36,0.17,2.44,0.52,3.24v0.22H654.5z M650.3,106.54
		c0.79,0,1.54-0.21,2.26-0.62s1.23-0.94,1.54-1.6v-3.04h-1.98c-3.1,0-4.65,0.91-4.65,2.72c0,0.79,0.26,1.41,0.79,1.86
		S649.48,106.54,650.3,106.54z"/>
	<path d="M669.21,104.55c0-0.68-0.26-1.21-0.77-1.59s-1.41-0.7-2.69-0.98s-2.3-0.6-3.05-0.98s-1.31-0.84-1.67-1.37
		s-0.54-1.16-0.54-1.89c0-1.21,0.51-2.24,1.54-3.08s2.34-1.26,3.93-1.26c1.68,0,3.04,0.43,4.08,1.3s1.57,1.97,1.57,3.32h-2.54
		c0-0.69-0.29-1.29-0.88-1.79s-1.33-0.75-2.22-0.75c-0.92,0-1.64,0.2-2.16,0.6s-0.78,0.92-0.78,1.57c0,0.61,0.24,1.07,0.72,1.38
		s1.36,0.61,2.62,0.89s2.29,0.62,3.07,1.01s1.37,0.86,1.74,1.42s0.57,1.22,0.57,2.02c0,1.32-0.53,2.38-1.59,3.18s-2.43,1.2-4.12,1.2
		c-1.18,0-2.23-0.21-3.14-0.63s-1.62-1-2.14-1.76s-0.77-1.57-0.77-2.44h2.53c0.05,0.85,0.38,1.52,1.02,2.02s1.47,0.75,2.51,0.75
		c0.96,0,1.72-0.19,2.3-0.58S669.21,105.2,669.21,104.55z"/>
	<path d="M694.46,101.24c0,2.25-0.51,4.07-1.54,5.44s-2.42,2.06-4.18,2.06c-1.8,0-3.21-0.57-4.24-1.71v7.12h-2.53V93.68h2.31
		l0.12,1.64c1.03-1.28,2.46-1.91,4.29-1.91c1.78,0,3.18,0.67,4.22,2.01s1.55,3.2,1.55,5.59V101.24z M691.94,100.95
		c0-1.67-0.36-2.99-1.07-3.95s-1.69-1.45-2.93-1.45c-1.53,0-2.68,0.68-3.45,2.04v7.07c0.76,1.35,1.91,2.02,3.47,2.02
		c1.21,0,2.18-0.48,2.89-1.44S691.94,102.85,691.94,100.95z"/>
	<path d="M704.83,95.95c-0.38-0.06-0.8-0.1-1.24-0.1c-1.66,0-2.78,0.71-3.38,2.12v10.5h-2.53V93.68h2.46l0.04,1.71
		c0.83-1.32,2-1.98,3.53-1.98c0.49,0,0.87,0.06,1.12,0.19V95.95z"/>
	<path d="M715.74,108.47c-0.15-0.29-0.26-0.81-0.36-1.56c-1.18,1.22-2.58,1.83-4.21,1.83c-1.46,0-2.65-0.41-3.59-1.24
		s-1.4-1.87-1.4-3.14c0-1.54,0.59-2.74,1.76-3.59s2.82-1.28,4.94-1.28h2.46v-1.16c0-0.88-0.26-1.59-0.79-2.11s-1.31-0.79-2.34-0.79
		c-0.9,0-1.66,0.23-2.27,0.68s-0.92,1.01-0.92,1.65h-2.54c0-0.74,0.26-1.45,0.79-2.14s1.24-1.23,2.13-1.63s1.88-0.6,2.96-0.6
		c1.7,0,3.04,0.43,4.01,1.28s1.47,2.03,1.5,3.52v6.81c0,1.36,0.17,2.44,0.52,3.24v0.22H715.74z M711.54,106.54
		c0.79,0,1.54-0.21,2.26-0.62s1.23-0.94,1.54-1.6v-3.04h-1.98c-3.1,0-4.65,0.91-4.65,2.72c0,0.79,0.26,1.41,0.79,1.86
		S710.71,106.54,711.54,106.54z M713.88,87.47h3.06l-3.66,4.02l-2.04-0.01L713.88,87.47z"/>
	<path d="M727.77,106.68c0.9,0,1.69-0.27,2.37-0.82s1.05-1.23,1.12-2.05h2.39c-0.05,0.85-0.34,1.65-0.88,2.42s-1.26,1.38-2.15,1.83
		s-1.85,0.68-2.85,0.68c-2.01,0-3.62-0.67-4.81-2.02s-1.78-3.18-1.78-5.52v-0.42c0-1.44,0.26-2.72,0.79-3.84s1.29-1.99,2.28-2.61
		s2.16-0.93,3.51-0.93c1.66,0,3.04,0.5,4.14,1.49s1.68,2.28,1.76,3.87h-2.39c-0.07-0.96-0.44-1.74-1.09-2.36s-1.46-0.92-2.41-0.92
		c-1.29,0-2.28,0.46-2.99,1.39s-1.06,2.26-1.06,4.01v0.48c0,1.7,0.35,3.02,1.05,3.94S726.47,106.68,727.77,106.68z"/>
	<path d="M739.92,90.1v3.58h2.76v1.96h-2.76v9.19c0,0.59,0.12,1.04,0.37,1.33c0.25,0.3,0.67,0.44,1.26,0.44
		c0.29,0,0.69-0.05,1.2-0.16v2.04c-0.67,0.18-1.31,0.27-1.94,0.27c-1.13,0-1.98-0.34-2.56-1.03s-0.86-1.65-0.86-2.91v-9.17h-2.69
		v-1.96h2.69V90.1H739.92z"/>
	<path d="M745.65,89.76c0-0.41,0.12-0.76,0.38-1.04s0.62-0.42,1.11-0.42s0.87,0.14,1.12,0.42s0.38,0.63,0.38,1.04
		s-0.13,0.75-0.38,1.03s-0.63,0.41-1.12,0.41s-0.86-0.14-1.11-0.41S745.65,90.17,745.65,89.76z M748.39,108.47h-2.53V93.68h2.53
		V108.47z"/>
	<path d="M758.37,106.68c0.9,0,1.69-0.27,2.37-0.82s1.05-1.23,1.12-2.05h2.39c-0.05,0.85-0.34,1.65-0.88,2.42s-1.26,1.38-2.15,1.83
		s-1.85,0.68-2.85,0.68c-2.01,0-3.62-0.67-4.81-2.02s-1.78-3.18-1.78-5.52v-0.42c0-1.44,0.26-2.72,0.79-3.84s1.29-1.99,2.28-2.61
		s2.16-0.93,3.51-0.93c1.66,0,3.04,0.5,4.14,1.49s1.68,2.28,1.76,3.87h-2.39c-0.07-0.96-0.44-1.74-1.09-2.36s-1.46-0.92-2.41-0.92
		c-1.29,0-2.28,0.46-2.99,1.39s-1.06,2.26-1.06,4.01v0.48c0,1.7,0.35,3.02,1.05,3.94S757.06,106.68,758.37,106.68z"/>
	<path d="M776.22,108.47c-0.15-0.29-0.26-0.81-0.36-1.56c-1.18,1.22-2.58,1.83-4.21,1.83c-1.46,0-2.65-0.41-3.59-1.24
		s-1.4-1.87-1.4-3.14c0-1.54,0.59-2.74,1.76-3.59s2.82-1.28,4.94-1.28h2.46v-1.16c0-0.88-0.26-1.59-0.79-2.11s-1.31-0.79-2.34-0.79
		c-0.9,0-1.66,0.23-2.27,0.68s-0.92,1.01-0.92,1.65h-2.54c0-0.74,0.26-1.45,0.79-2.14s1.24-1.23,2.13-1.63s1.88-0.6,2.96-0.6
		c1.7,0,3.04,0.43,4.01,1.28s1.47,2.03,1.5,3.52v6.81c0,1.36,0.17,2.44,0.52,3.24v0.22H776.22z M772.03,106.54
		c0.79,0,1.54-0.21,2.26-0.62s1.23-0.94,1.54-1.6v-3.04h-1.98c-3.1,0-4.65,0.91-4.65,2.72c0,0.79,0.26,1.41,0.79,1.86
		S771.2,106.54,772.03,106.54z"/>
	<path d="M790.93,104.55c0-0.68-0.26-1.21-0.77-1.59s-1.41-0.7-2.69-0.98s-2.3-0.6-3.05-0.98s-1.31-0.84-1.67-1.37
		s-0.54-1.16-0.54-1.89c0-1.21,0.51-2.24,1.54-3.08s2.34-1.26,3.93-1.26c1.68,0,3.04,0.43,4.08,1.3s1.57,1.97,1.57,3.32h-2.54
		c0-0.69-0.29-1.29-0.88-1.79s-1.33-0.75-2.22-0.75c-0.92,0-1.64,0.2-2.16,0.6s-0.78,0.92-0.78,1.57c0,0.61,0.24,1.07,0.72,1.38
		s1.36,0.61,2.62,0.89s2.29,0.62,3.07,1.01s1.37,0.86,1.74,1.42s0.57,1.22,0.57,2.02c0,1.32-0.53,2.38-1.59,3.18s-2.43,1.2-4.12,1.2
		c-1.18,0-2.23-0.21-3.14-0.63s-1.62-1-2.14-1.76s-0.77-1.57-0.77-2.44h2.53c0.05,0.85,0.38,1.52,1.02,2.02s1.47,0.75,2.51,0.75
		c0.96,0,1.72-0.19,2.3-0.58S790.93,105.2,790.93,104.55z"/>
</g>
</svg>
