<?xml version="1.0" encoding="utf-8"?>
<!-- Generator: Adobe Illustrator 25.4.1, SVG Export Plug-In . SVG Version: 6.00 Build 0)  -->
<svg version="1.1" id="Capa_1" xmlns="http://www.w3.org/2000/svg" xmlns:xlink="http://www.w3.org/1999/xlink" x="0px" y="0px"
	 viewBox="0 0 600 200" style="enable-background:new 0 0 600 200;" xml:space="preserve">
<style type="text/css">
	.st0{fill:#3CB5A1;}
	.st1{fill:#44505F;}
	.st2{clip-path:url(#SVGID_00000168076019498778440570000007775655247966724534_);}
	.st3{fill:#FFFFFF;}
</style>
<g>
	<g>
		<path class="st0" d="M71.85,102.21h-9.61V81.77H47.99v20.44h-9.65V54.44h9.65v19.33h14.24V54.44h9.61V102.21z"/>
		<path class="st0" d="M79.82,78.72l2.36-24.28h23.13v7.94H89.8l-0.85,10.24c1.79-1.2,3.64-1.8,5.55-1.8c3.94,0,6.97,1.4,9.11,4.2
			s3.2,6.76,3.2,11.88c0,4.79-1.27,8.65-3.81,11.58c-2.54,2.93-5.93,4.4-10.17,4.4c-2.52,0-4.85-0.6-6.99-1.79
			c-2.14-1.19-3.83-2.85-5.07-4.97c-1.24-2.12-1.87-4.53-1.89-7.22h9.19c0.15,1.99,0.64,3.53,1.48,4.63
			c0.83,1.09,1.9,1.64,3.22,1.64c1.53,0,2.71-0.74,3.54-2.21c0.83-1.48,1.25-3.68,1.25-6.61c0-2.76-0.5-4.83-1.49-6.23
			c-1-1.4-2.39-2.1-4.18-2.1c-1.75,0-3.11,0.6-4.07,1.8l-0.59,0.82L79.82,78.72z"/>
		<path class="st0" d="M123.23,85.41v16.8h-9.65V54.44h16.28c4.72,0,8.49,1.47,11.3,4.4c2.81,2.93,4.22,6.74,4.22,11.42
			c0,4.68-1.39,8.38-4.17,11.09c-2.78,2.71-6.63,4.07-11.55,4.07H123.23z M123.23,77.38h6.63c1.84,0,3.26-0.6,4.27-1.8
			c1.01-1.2,1.51-2.95,1.51-5.25c0-2.38-0.51-4.28-1.54-5.69s-2.41-2.13-4.13-2.15h-6.73V77.38z"/>
	</g>
	<g>
		<path class="st1" d="M48.09,123.6c0,2.12-0.49,3.83-1.46,5.13c-0.97,1.3-2.29,1.95-3.94,1.95c-1.69,0-3.03-0.54-4-1.61v6.72h-2.38
			v-19.31h2.18l0.12,1.55c0.97-1.2,2.32-1.8,4.05-1.8c1.68,0,3,0.63,3.98,1.89c0.97,1.26,1.46,3.02,1.46,5.27V123.6z M45.71,123.33
			c0-1.57-0.33-2.81-1.01-3.73c-0.67-0.91-1.59-1.37-2.76-1.37c-1.44,0-2.53,0.64-3.25,1.92v6.66c0.71,1.27,1.8,1.91,3.27,1.91
			c1.14,0,2.05-0.45,2.73-1.36C45.37,126.47,45.71,125.12,45.71,123.33z"/>
		<path class="st1" d="M59.73,130.42c-0.14-0.28-0.25-0.76-0.34-1.47c-1.11,1.15-2.43,1.73-3.97,1.73c-1.38,0-2.5-0.39-3.38-1.17
			c-0.88-0.78-1.32-1.76-1.32-2.96c0-1.45,0.55-2.58,1.66-3.38s2.66-1.21,4.66-1.21h2.32v-1.1c0-0.83-0.25-1.5-0.75-1.99
			c-0.5-0.49-1.23-0.74-2.2-0.74c-0.85,0-1.56,0.21-2.14,0.64c-0.58,0.43-0.86,0.95-0.86,1.56h-2.4c0-0.7,0.25-1.37,0.74-2.02
			c0.49-0.65,1.17-1.16,2.01-1.54c0.85-0.38,1.78-0.57,2.79-0.57c1.61,0,2.87,0.4,3.78,1.21c0.91,0.8,1.38,1.91,1.42,3.32v6.42
			c0,1.28,0.16,2.3,0.49,3.06v0.21H59.73z M55.78,128.6c0.75,0,1.46-0.19,2.13-0.58c0.67-0.39,1.16-0.89,1.46-1.51v-2.86h-1.87
			c-2.92,0-4.38,0.86-4.38,2.57c0,0.75,0.25,1.33,0.75,1.75C54.35,128.39,54.99,128.6,55.78,128.6z"/>
		<path class="st1" d="M72.23,118.61c-0.36-0.06-0.75-0.09-1.17-0.09c-1.56,0-2.62,0.67-3.18,2v9.9h-2.38v-13.95h2.32l0.04,1.61
			c0.78-1.25,1.89-1.87,3.33-1.87c0.46,0,0.82,0.06,1.06,0.18V118.61z"/>
		<path class="st1" d="M82.51,130.42c-0.14-0.28-0.25-0.76-0.34-1.47c-1.11,1.15-2.43,1.73-3.97,1.73c-1.38,0-2.5-0.39-3.38-1.17
			c-0.88-0.78-1.32-1.76-1.32-2.96c0-1.45,0.55-2.58,1.66-3.38s2.66-1.21,4.66-1.21h2.32v-1.1c0-0.83-0.25-1.5-0.75-1.99
			c-0.5-0.49-1.23-0.74-2.2-0.74c-0.85,0-1.56,0.21-2.14,0.64c-0.58,0.43-0.86,0.95-0.86,1.56h-2.4c0-0.7,0.25-1.37,0.74-2.02
			c0.49-0.65,1.17-1.16,2.01-1.54c0.85-0.38,1.78-0.57,2.79-0.57c1.61,0,2.87,0.4,3.78,1.21c0.91,0.8,1.38,1.91,1.42,3.32v6.42
			c0,1.28,0.16,2.3,0.49,3.06v0.21H82.51z M78.55,128.6c0.75,0,1.46-0.19,2.13-0.58c0.67-0.39,1.16-0.89,1.46-1.51v-2.86h-1.87
			c-2.92,0-4.38,0.86-4.38,2.57c0,0.75,0.25,1.33,0.75,1.75C77.13,128.39,77.77,128.6,78.55,128.6z"/>
		<path class="st1" d="M99.4,127.19l3.46-10.71h2.44l-5,13.95h-1.82l-5.05-13.95h2.44L99.4,127.19z"/>
		<path class="st1" d="M113.2,130.68c-1.89,0-3.43-0.62-4.62-1.86c-1.19-1.24-1.78-2.9-1.78-4.98v-0.44c0-1.38,0.26-2.62,0.79-3.71
			c0.53-1.09,1.27-1.94,2.22-2.55c0.95-0.61,1.98-0.92,3.09-0.92c1.81,0,3.22,0.6,4.23,1.79c1,1.2,1.51,2.91,1.51,5.13v0.99h-9.45
			c0.03,1.38,0.44,2.49,1.21,3.33c0.77,0.85,1.75,1.27,2.93,1.27c0.84,0,1.55-0.17,2.14-0.52c0.58-0.34,1.1-0.8,1.53-1.37l1.46,1.13
			C117.29,129.78,115.54,130.68,113.2,130.68z M112.91,118.18c-0.96,0-1.77,0.35-2.42,1.05c-0.65,0.7-1.06,1.68-1.21,2.95h6.99
			v-0.18c-0.07-1.21-0.4-2.15-0.98-2.82C114.69,118.51,113.9,118.18,112.91,118.18z"/>
		<path class="st1" d="M123.66,116.47l0.08,1.75c1.07-1.34,2.46-2.01,4.18-2.01c2.95,0,4.43,1.66,4.46,4.99v9.22h-2.38v-9.23
			c-0.01-1.01-0.24-1.75-0.69-2.23s-1.15-0.72-2.11-0.72c-0.77,0-1.45,0.21-2.04,0.62c-0.58,0.41-1.04,0.95-1.37,1.62v9.94h-2.38
			v-13.95H123.66z"/>
		<path class="st1" d="M139.2,113.1v3.38h2.6v1.84h-2.6v8.66c0,0.56,0.12,0.98,0.35,1.26c0.23,0.28,0.63,0.42,1.19,0.42
			c0.28,0,0.65-0.05,1.13-0.16v1.92c-0.63,0.17-1.24,0.26-1.83,0.26c-1.07,0-1.87-0.32-2.41-0.97c-0.54-0.64-0.81-1.56-0.81-2.75
			v-8.65h-2.54v-1.84h2.54v-3.38H139.2z"/>
		<path class="st1" d="M144.6,112.77c0-0.39,0.12-0.71,0.35-0.98s0.59-0.4,1.05-0.4s0.82,0.13,1.06,0.4
			c0.24,0.27,0.36,0.59,0.36,0.98s-0.12,0.71-0.36,0.97c-0.24,0.26-0.59,0.39-1.06,0.39s-0.81-0.13-1.05-0.39
			S144.6,113.16,144.6,112.77z M147.18,130.42h-2.38v-13.95h2.38V130.42z"/>
		<path class="st1" d="M153.59,130.42h-2.38v-19.8h2.38V130.42z"/>
		<path class="st1" d="M166.02,130.42c-0.14-0.28-0.25-0.76-0.34-1.47c-1.11,1.15-2.43,1.73-3.97,1.73c-1.38,0-2.5-0.39-3.38-1.17
			c-0.88-0.78-1.32-1.76-1.32-2.96c0-1.45,0.55-2.58,1.66-3.38s2.66-1.21,4.66-1.21h2.32v-1.1c0-0.83-0.25-1.5-0.75-1.99
			c-0.5-0.49-1.23-0.74-2.2-0.74c-0.85,0-1.56,0.21-2.14,0.64c-0.58,0.43-0.86,0.95-0.86,1.56h-2.4c0-0.7,0.25-1.37,0.74-2.02
			c0.49-0.65,1.17-1.16,2.01-1.54c0.85-0.38,1.78-0.57,2.79-0.57c1.61,0,2.87,0.4,3.78,1.21c0.91,0.8,1.38,1.91,1.42,3.32v6.42
			c0,1.28,0.16,2.3,0.49,3.06v0.21H166.02z M162.06,128.6c0.75,0,1.46-0.19,2.13-0.58c0.67-0.39,1.16-0.89,1.46-1.51v-2.86h-1.87
			c-2.92,0-4.38,0.86-4.38,2.57c0,0.75,0.25,1.33,0.75,1.75C160.64,128.39,161.28,128.6,162.06,128.6z"/>
		<path class="st1" d="M178.51,118.61c-0.36-0.06-0.75-0.09-1.17-0.09c-1.56,0-2.62,0.67-3.18,2v9.9h-2.38v-13.95h2.32l0.04,1.61
			c0.78-1.25,1.89-1.87,3.33-1.87c0.46,0,0.82,0.06,1.06,0.18V118.61z"/>
		<path class="st1" d="M189.83,130.42h-2.38v-19.8h2.38V130.42z"/>
		<path class="st1" d="M202.25,130.42c-0.14-0.28-0.25-0.76-0.34-1.47c-1.11,1.15-2.43,1.73-3.97,1.73c-1.38,0-2.5-0.39-3.38-1.17
			c-0.88-0.78-1.32-1.76-1.32-2.96c0-1.45,0.55-2.58,1.66-3.38s2.66-1.21,4.66-1.21h2.32v-1.1c0-0.83-0.25-1.5-0.75-1.99
			c-0.5-0.49-1.23-0.74-2.2-0.74c-0.85,0-1.56,0.21-2.14,0.64c-0.58,0.43-0.86,0.95-0.86,1.56h-2.4c0-0.7,0.25-1.37,0.74-2.02
			c0.49-0.65,1.17-1.16,2.01-1.54c0.85-0.38,1.78-0.57,2.79-0.57c1.61,0,2.87,0.4,3.78,1.21c0.91,0.8,1.38,1.91,1.42,3.32v6.42
			c0,1.28,0.16,2.3,0.49,3.06v0.21H202.25z M198.29,128.6c0.75,0,1.46-0.19,2.13-0.58c0.67-0.39,1.16-0.89,1.46-1.51v-2.86h-1.87
			c-2.92,0-4.38,0.86-4.38,2.57c0,0.75,0.25,1.33,0.75,1.75C196.87,128.39,197.51,128.6,198.29,128.6z"/>
		<path class="st1" d="M216.12,126.72c0-0.64-0.24-1.15-0.73-1.5s-1.33-0.66-2.54-0.92c-1.21-0.26-2.17-0.57-2.88-0.93
			c-0.71-0.36-1.23-0.79-1.57-1.29c-0.34-0.5-0.51-1.09-0.51-1.78c0-1.14,0.48-2.11,1.45-2.9s2.2-1.19,3.71-1.19
			c1.58,0,2.86,0.41,3.85,1.22c0.98,0.82,1.48,1.86,1.48,3.13h-2.4c0-0.65-0.28-1.22-0.83-1.69c-0.55-0.47-1.25-0.71-2.09-0.71
			c-0.87,0-1.55,0.19-2.04,0.57c-0.49,0.38-0.74,0.87-0.74,1.48c0,0.58,0.23,1.01,0.68,1.3c0.46,0.29,1.28,0.57,2.47,0.84
			s2.15,0.58,2.89,0.95s1.29,0.81,1.64,1.33c0.36,0.52,0.54,1.15,0.54,1.9c0,1.25-0.5,2.25-1.5,3s-2.29,1.13-3.88,1.13
			c-1.12,0-2.11-0.2-2.96-0.59c-0.86-0.4-1.53-0.95-2.02-1.66s-0.73-1.48-0.73-2.3h2.38c0.04,0.8,0.36,1.43,0.96,1.9
			c0.6,0.47,1.39,0.7,2.37,0.7c0.9,0,1.63-0.18,2.17-0.55S216.12,127.33,216.12,126.72z"/>
		<path class="st1" d="M239.93,123.6c0,2.12-0.49,3.83-1.46,5.13c-0.97,1.3-2.29,1.95-3.94,1.95c-1.69,0-3.03-0.54-4-1.61v6.72
			h-2.38v-19.31h2.18l0.12,1.55c0.97-1.2,2.32-1.8,4.05-1.8c1.68,0,3,0.63,3.98,1.89c0.97,1.26,1.46,3.02,1.46,5.27V123.6z
			 M237.55,123.33c0-1.57-0.33-2.81-1.01-3.73c-0.67-0.91-1.59-1.37-2.76-1.37c-1.44,0-2.53,0.64-3.25,1.92v6.66
			c0.71,1.27,1.8,1.91,3.27,1.91c1.14,0,2.05-0.45,2.73-1.36C237.21,126.47,237.55,125.12,237.55,123.33z"/>
		<path class="st1" d="M249.7,118.61c-0.36-0.06-0.75-0.09-1.17-0.09c-1.56,0-2.62,0.67-3.18,2v9.9h-2.38v-13.95h2.32l0.04,1.61
			c0.78-1.25,1.89-1.87,3.33-1.87c0.46,0,0.82,0.06,1.06,0.18V118.61z"/>
		<path class="st1" d="M259.99,130.42c-0.14-0.28-0.25-0.76-0.34-1.47c-1.11,1.15-2.43,1.73-3.97,1.73c-1.38,0-2.5-0.39-3.38-1.17
			c-0.88-0.78-1.32-1.76-1.32-2.96c0-1.45,0.55-2.58,1.66-3.38s2.66-1.21,4.66-1.21h2.32v-1.1c0-0.83-0.25-1.5-0.75-1.99
			c-0.5-0.49-1.23-0.74-2.2-0.74c-0.85,0-1.56,0.21-2.14,0.64c-0.58,0.43-0.86,0.95-0.86,1.56h-2.4c0-0.7,0.25-1.37,0.74-2.02
			c0.49-0.65,1.17-1.16,2.01-1.54c0.85-0.38,1.78-0.57,2.79-0.57c1.61,0,2.87,0.4,3.78,1.21c0.91,0.8,1.38,1.91,1.42,3.32v6.42
			c0,1.28,0.16,2.3,0.49,3.06v0.21H259.99z M256.03,128.6c0.75,0,1.46-0.19,2.13-0.58c0.67-0.39,1.16-0.89,1.46-1.51v-2.86h-1.87
			c-2.92,0-4.38,0.86-4.38,2.57c0,0.75,0.25,1.33,0.75,1.75C254.61,128.39,255.25,128.6,256.03,128.6z M258.24,110.62h2.89
			l-3.45,3.79l-1.92-0.01L258.24,110.62z"/>
		<path class="st1" d="M271.33,128.73c0.85,0,1.59-0.26,2.23-0.77c0.64-0.52,0.99-1.16,1.06-1.93h2.26
			c-0.04,0.8-0.32,1.56-0.83,2.28s-1.18,1.3-2.03,1.73s-1.74,0.64-2.69,0.64c-1.9,0-3.41-0.63-4.53-1.9s-1.68-3-1.68-5.2v-0.4
			c0-1.36,0.25-2.57,0.75-3.62c0.5-1.06,1.21-1.88,2.15-2.46c0.93-0.58,2.03-0.88,3.31-0.88c1.56,0,2.86,0.47,3.9,1.4
			c1.04,0.94,1.59,2.15,1.66,3.65h-2.26c-0.07-0.9-0.41-1.64-1.03-2.22s-1.37-0.87-2.27-0.87c-1.21,0-2.15,0.44-2.82,1.31
			s-1,2.13-1,3.78v0.45c0,1.61,0.33,2.84,0.99,3.71C269.16,128.3,270.1,128.73,271.33,128.73z"/>
		<path class="st1" d="M282.79,113.1v3.38h2.6v1.84h-2.6v8.66c0,0.56,0.12,0.98,0.35,1.26c0.23,0.28,0.63,0.42,1.19,0.42
			c0.28,0,0.65-0.05,1.13-0.16v1.92c-0.63,0.17-1.24,0.26-1.83,0.26c-1.07,0-1.87-0.32-2.41-0.97c-0.54-0.64-0.81-1.56-0.81-2.75
			v-8.65h-2.54v-1.84h2.54v-3.38H282.79z"/>
		<path class="st1" d="M288.19,112.77c0-0.39,0.12-0.71,0.35-0.98s0.59-0.4,1.05-0.4s0.82,0.13,1.06,0.4
			c0.24,0.27,0.36,0.59,0.36,0.98s-0.12,0.71-0.36,0.97c-0.24,0.26-0.59,0.39-1.06,0.39s-0.81-0.13-1.05-0.39
			S288.19,113.16,288.19,112.77z M290.77,130.42h-2.38v-13.95h2.38V130.42z"/>
		<path class="st1" d="M300.18,128.73c0.85,0,1.59-0.26,2.23-0.77s0.99-1.16,1.06-1.93h2.26c-0.04,0.8-0.32,1.56-0.82,2.28
			c-0.51,0.72-1.18,1.3-2.03,1.73c-0.85,0.43-1.74,0.64-2.69,0.64c-1.9,0-3.41-0.63-4.53-1.9s-1.68-3-1.68-5.2v-0.4
			c0-1.36,0.25-2.57,0.75-3.62c0.5-1.06,1.21-1.88,2.15-2.46c0.93-0.58,2.03-0.88,3.31-0.88c1.56,0,2.86,0.47,3.9,1.4
			c1.04,0.94,1.59,2.15,1.66,3.65h-2.26c-0.07-0.9-0.41-1.64-1.03-2.22c-0.61-0.58-1.37-0.87-2.27-0.87c-1.21,0-2.15,0.44-2.82,1.31
			s-1,2.13-1,3.78v0.45c0,1.61,0.33,2.84,0.99,3.71C298.01,128.3,298.95,128.73,300.18,128.73z"/>
		<path class="st1" d="M317.02,130.42c-0.14-0.28-0.25-0.76-0.34-1.47c-1.11,1.15-2.43,1.73-3.97,1.73c-1.38,0-2.5-0.39-3.38-1.17
			c-0.88-0.78-1.32-1.76-1.32-2.96c0-1.45,0.55-2.58,1.66-3.38c1.11-0.8,2.66-1.21,4.66-1.21h2.32v-1.1c0-0.83-0.25-1.5-0.75-1.99
			c-0.5-0.49-1.23-0.74-2.2-0.74c-0.85,0-1.56,0.21-2.14,0.64c-0.58,0.43-0.86,0.95-0.86,1.56h-2.4c0-0.7,0.25-1.37,0.74-2.02
			c0.49-0.65,1.16-1.16,2.01-1.54c0.85-0.38,1.78-0.57,2.79-0.57c1.61,0,2.87,0.4,3.78,1.21s1.38,1.91,1.42,3.32v6.42
			c0,1.28,0.16,2.3,0.49,3.06v0.21H317.02z M313.06,128.6c0.75,0,1.46-0.19,2.13-0.58c0.67-0.39,1.16-0.89,1.46-1.51v-2.86h-1.87
			c-2.92,0-4.38,0.86-4.38,2.57c0,0.75,0.25,1.33,0.75,1.75S312.28,128.6,313.06,128.6z"/>
		<path class="st1" d="M330.89,126.72c0-0.64-0.24-1.15-0.73-1.5c-0.48-0.36-1.33-0.66-2.54-0.92s-2.17-0.57-2.88-0.93
			c-0.71-0.36-1.23-0.79-1.57-1.29c-0.34-0.5-0.51-1.09-0.51-1.78c0-1.14,0.48-2.11,1.45-2.9s2.2-1.19,3.71-1.19
			c1.58,0,2.87,0.41,3.85,1.22c0.98,0.82,1.47,1.86,1.47,3.13h-2.4c0-0.65-0.28-1.22-0.83-1.69s-1.25-0.71-2.1-0.71
			c-0.87,0-1.55,0.19-2.04,0.57c-0.49,0.38-0.74,0.87-0.74,1.48c0,0.58,0.23,1.01,0.68,1.3s1.28,0.57,2.47,0.84
			c1.19,0.27,2.15,0.58,2.89,0.95c0.74,0.37,1.29,0.81,1.64,1.33c0.36,0.52,0.54,1.15,0.54,1.9c0,1.25-0.5,2.25-1.49,3
			c-1,0.75-2.29,1.13-3.88,1.13c-1.12,0-2.11-0.2-2.96-0.59c-0.86-0.4-1.53-0.95-2.02-1.66c-0.48-0.71-0.73-1.48-0.73-2.3h2.38
			c0.04,0.8,0.36,1.43,0.96,1.9c0.6,0.47,1.38,0.7,2.37,0.7c0.9,0,1.63-0.18,2.17-0.55C330.62,127.82,330.89,127.33,330.89,126.72z"
			/>
	</g>
	<g>
		<path d="M170.07,64.35c-0.14,1.99-0.88,3.55-2.2,4.7c-1.33,1.14-3.07,1.71-5.24,1.71c-2.37,0-4.23-0.8-5.59-2.39
			c-1.36-1.6-2.04-3.79-2.04-6.57v-1.13c0-1.78,0.31-3.34,0.94-4.7s1.52-2.39,2.69-3.12c1.16-0.72,2.52-1.09,4.06-1.09
			c2.13,0,3.85,0.57,5.15,1.71s2.06,2.75,2.26,4.81h-3.81c-0.09-1.19-0.42-2.06-1-2.6c-0.57-0.54-1.44-0.81-2.61-0.81
			c-1.27,0-2.22,0.46-2.85,1.37c-0.63,0.91-0.95,2.32-0.97,4.23v1.4c0,2,0.3,3.46,0.91,4.38c0.6,0.92,1.56,1.38,2.86,1.38
			c1.18,0,2.05-0.27,2.63-0.81c0.58-0.54,0.91-1.37,1-2.5H170.07z"/>
		<path d="M176.38,67.45h8.09v3.06h-11.9V52.02h3.81V67.45z"/>
		<path d="M197.33,66.7h-6.68l-1.27,3.81h-4.05l6.88-18.48h3.53l6.92,18.48h-4.05L197.33,66.7z M191.68,63.61h4.62l-2.32-6.92
			L191.68,63.61z"/>
		<path d="M213.97,65.66c0-0.72-0.25-1.27-0.76-1.66c-0.51-0.39-1.42-0.79-2.74-1.22c-1.32-0.43-2.37-0.85-3.14-1.26
			c-2.1-1.13-3.15-2.66-3.15-4.58c0-1,0.28-1.89,0.84-2.67c0.56-0.78,1.37-1.39,2.43-1.83c1.05-0.44,2.24-0.66,3.55-0.66
			c1.32,0,2.5,0.24,3.53,0.72c1.03,0.48,1.83,1.15,2.41,2.03c0.57,0.87,0.86,1.86,0.86,2.97h-3.81c0-0.85-0.27-1.5-0.8-1.97
			c-0.53-0.47-1.28-0.7-2.25-0.7c-0.93,0-1.65,0.2-2.17,0.59c-0.52,0.39-0.77,0.91-0.77,1.55c0,0.6,0.3,1.1,0.91,1.51
			c0.6,0.41,1.5,0.79,2.67,1.14c2.17,0.65,3.75,1.46,4.74,2.42s1.49,2.17,1.49,3.61c0,1.6-0.61,2.85-1.82,3.76
			c-1.21,0.91-2.84,1.37-4.89,1.37c-1.42,0-2.72-0.26-3.88-0.78c-1.17-0.52-2.06-1.23-2.67-2.14c-0.61-0.91-0.92-1.96-0.92-3.15
			h3.82c0,2.04,1.22,3.06,3.66,3.06c0.91,0,1.61-0.18,2.12-0.55C213.72,66.83,213.97,66.32,213.97,65.66z"/>
		<path d="M231.49,62.5h-7.31v4.95h8.58v3.06h-12.39V52.02h12.37v3.08h-8.56v4.41h7.31V62.5z"/>
		<path d="M244.58,65.66c0-0.72-0.25-1.27-0.76-1.66c-0.51-0.39-1.42-0.79-2.74-1.22c-1.32-0.43-2.37-0.85-3.14-1.26
			c-2.1-1.13-3.15-2.66-3.15-4.58c0-1,0.28-1.89,0.84-2.67c0.56-0.78,1.37-1.39,2.43-1.83c1.05-0.44,2.24-0.66,3.55-0.66
			c1.32,0,2.5,0.24,3.53,0.72c1.03,0.48,1.83,1.15,2.41,2.03c0.57,0.87,0.86,1.86,0.86,2.97h-3.81c0-0.85-0.27-1.5-0.8-1.97
			c-0.53-0.47-1.28-0.7-2.25-0.7c-0.93,0-1.65,0.2-2.17,0.59c-0.52,0.39-0.77,0.91-0.77,1.55c0,0.6,0.3,1.1,0.91,1.51
			c0.6,0.41,1.5,0.79,2.67,1.14c2.17,0.65,3.75,1.46,4.74,2.42s1.49,2.17,1.49,3.61c0,1.6-0.61,2.85-1.82,3.76
			c-1.21,0.91-2.84,1.37-4.89,1.37c-1.42,0-2.72-0.26-3.88-0.78c-1.17-0.52-2.06-1.23-2.67-2.14c-0.61-0.91-0.92-1.96-0.92-3.15
			h3.82c0,2.04,1.22,3.06,3.66,3.06c0.91,0,1.61-0.18,2.12-0.55C244.33,66.83,244.58,66.32,244.58,65.66z"/>
		<path d="M159.61,100.91h-3.81V82.42h3.81V100.91z"/>
		<path d="M178.17,100.91h-3.81l-7.41-12.16v12.16h-3.81V82.42h3.81l7.43,12.19V82.42h3.8V100.91z"/>
		<path d="M195.05,85.51h-5.66v15.4h-3.81v-15.4h-5.59v-3.08h15.06V85.51z"/>
		<path d="M208.34,92.9h-7.31v4.95h8.58v3.06h-12.39V82.42h12.37v3.08h-8.56v4.41h7.31V92.9z"/>
		<path d="M218.68,94.14h-3.03v6.77h-3.81V82.42h6.87c2.18,0,3.87,0.49,5.05,1.46s1.78,2.35,1.78,4.13c0,1.26-0.27,2.31-0.82,3.15
			c-0.54,0.84-1.37,1.51-2.48,2.01l4,7.55v0.18h-4.09L218.68,94.14z M215.65,91.05h3.07c0.96,0,1.7-0.24,2.22-0.73
			c0.52-0.49,0.79-1.16,0.79-2.01c0-0.87-0.25-1.56-0.74-2.06c-0.49-0.5-1.25-0.75-2.28-0.75h-3.06V91.05z"/>
		<path d="M238.87,97.1h-6.68l-1.27,3.81h-4.05l6.88-18.48h3.53l6.92,18.48h-4.05L238.87,97.1z M233.22,94.01h4.62l-2.32-6.92
			L233.22,94.01z"/>
		<path d="M260.17,94.75c-0.14,1.99-0.88,3.55-2.2,4.7c-1.33,1.14-3.07,1.71-5.24,1.71c-2.37,0-4.23-0.8-5.59-2.39
			c-1.36-1.6-2.04-3.79-2.04-6.57v-1.13c0-1.78,0.31-3.34,0.94-4.7s1.52-2.39,2.69-3.12c1.16-0.72,2.52-1.09,4.06-1.09
			c2.13,0,3.85,0.57,5.15,1.71s2.06,2.75,2.26,4.81h-3.81c-0.09-1.19-0.42-2.06-1-2.6c-0.57-0.54-1.44-0.81-2.61-0.81
			c-1.27,0-2.22,0.46-2.85,1.37c-0.63,0.91-0.95,2.32-0.97,4.23v1.4c0,2,0.3,3.46,0.91,4.38c0.6,0.92,1.56,1.38,2.86,1.38
			c1.18,0,2.05-0.27,2.63-0.81c0.58-0.54,0.91-1.37,1-2.5H260.17z"/>
		<path d="M276.22,85.51h-5.66v15.4h-3.81v-15.4h-5.59v-3.08h15.06V85.51z"/>
		<path d="M282.44,100.91h-3.81V82.42h3.81V100.91z"/>
		<path d="M292.8,96.32l4.19-13.9h4.24l-6.44,18.48h-3.97l-6.41-18.48h4.23L292.8,96.32z"/>
		<path d="M312.45,97.1h-6.68l-1.27,3.81h-4.05l6.88-18.48h3.53l6.92,18.48h-4.05L312.45,97.1z M306.8,94.01h4.62l-2.32-6.92
			L306.8,94.01z"/>
		<path d="M329.1,96.06c0-0.72-0.25-1.27-0.76-1.66c-0.51-0.39-1.42-0.79-2.74-1.22c-1.32-0.43-2.37-0.85-3.14-1.26
			c-2.1-1.13-3.15-2.66-3.15-4.58c0-1,0.28-1.89,0.84-2.67c0.56-0.78,1.37-1.39,2.43-1.83c1.05-0.44,2.24-0.66,3.55-0.66
			c1.32,0,2.5,0.24,3.53,0.72c1.03,0.48,1.83,1.15,2.4,2.03c0.57,0.87,0.86,1.86,0.86,2.97h-3.81c0-0.85-0.27-1.5-0.8-1.97
			c-0.53-0.47-1.28-0.7-2.25-0.7c-0.93,0-1.65,0.2-2.17,0.59c-0.52,0.39-0.78,0.91-0.78,1.55c0,0.6,0.3,1.1,0.91,1.51
			s1.5,0.79,2.67,1.14c2.17,0.65,3.75,1.46,4.74,2.42s1.48,2.17,1.48,3.61c0,1.6-0.61,2.85-1.81,3.76
			c-1.21,0.91-2.84,1.37-4.89,1.37c-1.42,0-2.72-0.26-3.88-0.78c-1.17-0.52-2.06-1.23-2.67-2.14s-0.92-1.96-0.92-3.15h3.82
			c0,2.04,1.22,3.06,3.66,3.06c0.91,0,1.61-0.18,2.12-0.55C328.84,97.23,329.1,96.72,329.1,96.06z"/>
	</g>
</g>
<g>
	<g>
		<g>
			<path class="st0" d="M592.61,174.9c-5.63,3.75-16.21,0.15-10.67-3.54C587.58,167.61,598.15,171.2,592.61,174.9z"/>
		</g>
		<g>
			<path class="st0" d="M387.1,177.46c0.15,2.34-4.25,4.3-8.05,4.54c-5.93,0.38-11.64-2.84-6.68-6.14
				C377.71,172.29,386.9,174.26,387.1,177.46z"/>
		</g>
		<g>
			<g>
				<path class="st0" d="M557.7,101.48c0.12,1.94-3.53,3.57-6.69,3.77c-4.92,0.32-9.66-2.36-5.55-5.1
					C549.9,97.19,557.53,98.82,557.7,101.48z"/>
			</g>
			<g>
				<path class="st0" d="M395.95,24.55c-5.63,3.74-16.21,0.16-10.67-3.54C390.91,17.26,401.48,20.85,395.95,24.55z"/>
			</g>
			<g>
				<path class="st0" d="M498.12,144.17c-5.63,3.75-16.21,0.15-10.67-3.54C493.09,136.88,503.66,140.48,498.12,144.17z"/>
			</g>
			<g>
				<g>
					<path class="st0" d="M492.43,143.47c0.16-0.01,0.32-0.06,0.47-0.16l59.92-39.92c0.28-0.19,0.45-0.52,0.43-0.86
						s-0.23-0.65-0.53-0.8L391.73,22.07c-0.48-0.24-1.05-0.04-1.28,0.43c-0.23,0.47-0.04,1.05,0.43,1.28l159.5,78.92l-58.54,39
						c-0.44,0.29-0.56,0.89-0.27,1.33C491.76,143.33,492.09,143.49,492.43,143.47z"/>
				</g>
			</g>
			<g>
				<g>
					<path class="st0" d="M587.37,174.08c0.33-0.02,0.64-0.21,0.8-0.53c0.24-0.47,0.04-1.05-0.43-1.28l-80.85-40.01
						c-0.48-0.23-1.05-0.04-1.28,0.43c-0.24,0.47-0.04,1.05,0.43,1.28l80.85,40.01C587.04,174.06,587.21,174.09,587.37,174.08z"/>
				</g>
			</g>
			<g>
				<path class="st0" d="M380.23,90.35c0.15,2.34-4.25,4.3-8.05,4.54c-5.93,0.38-11.64-2.84-6.68-6.14
					C370.84,85.18,380.03,87.15,380.23,90.35z"/>
			</g>
			<g>
				<path class="st0" d="M459.2,129.42c0.15,2.34-4.25,4.3-8.05,4.54c-5.93,0.38-11.64-2.84-6.68-6.14
					C449.81,124.26,458.99,126.22,459.2,129.42z"/>
			</g>
			<g>
				<g>
					<path class="st0" d="M378.94,179.21c0.2-0.01,0.39-0.08,0.56-0.19l72.13-48.06c0.34-0.23,0.54-0.62,0.51-1.03
						s-0.27-0.78-0.64-0.96l-77.28-38.24l64.46-42.95c0.53-0.35,0.67-1.07,0.32-1.6c-0.36-0.53-1.07-0.67-1.6-0.32l-66.12,44.05
						c-0.34,0.23-0.54,0.62-0.51,1.03c0.03,0.41,0.27,0.78,0.64,0.96l77.28,38.24l-70.47,46.95c-0.53,0.35-0.67,1.07-0.32,1.6
						C378.14,179.06,378.54,179.24,378.94,179.21z"/>
				</g>
			</g>
			<g>
				<path class="st0" d="M454.4,88.13c-6.79,4.51-19.53,0.18-12.85-4.27C448.33,79.35,461.07,83.67,454.4,88.13z"/>
			</g>
			<g>
				<g>
					<path class="st0" d="M447.83,86.83c0.4-0.03,0.77-0.26,0.96-0.64c0.28-0.57,0.05-1.26-0.52-1.55l-38.8-19.2
						c-0.57-0.28-1.26-0.05-1.55,0.52c-0.28,0.57-0.05,1.26,0.52,1.55l38.8,19.2C447.43,86.81,447.63,86.85,447.83,86.83z"/>
				</g>
			</g>
		</g>
	</g>
	<g>
		<defs>
			<polygon id="SVGID_1_" points="600,0.17 343.11,0.17 452.15,54.1 550.38,102.71 506.89,132.26 600,177.99 			"/>
		</defs>
		<use xlink:href="#SVGID_1_"  style="overflow:visible;fill:#3CB5A1;"/>
		<clipPath id="SVGID_00000145773501348836850630000016796516790845371055_">
			<use xlink:href="#SVGID_1_"  style="overflow:visible;"/>
		</clipPath>
		<g style="clip-path:url(#SVGID_00000145773501348836850630000016796516790845371055_);">
			<g>
				<path class="st3" d="M592.61,174.9c-5.63,3.75-16.21,0.15-10.67-3.54C587.58,167.61,598.15,171.2,592.61,174.9z"/>
			</g>
			<g>
				<path class="st3" d="M387.1,177.46c0.15,2.34-4.25,4.3-8.05,4.54c-5.93,0.38-11.64-2.84-6.68-6.14
					C377.71,172.29,386.9,174.26,387.1,177.46z"/>
			</g>
			<g>
				<g>
					<path class="st3" d="M557.7,101.48c0.12,1.94-3.53,3.57-6.69,3.77c-4.92,0.32-9.66-2.36-5.55-5.1
						C549.9,97.19,557.53,98.82,557.7,101.48z"/>
				</g>
				<g>
					<path class="st3" d="M395.95,24.55c-5.63,3.74-16.21,0.16-10.67-3.54C390.91,17.26,401.48,20.85,395.95,24.55z"/>
				</g>
				<g>
					<path class="st3" d="M498.12,144.17c-5.63,3.75-16.21,0.15-10.67-3.54C493.09,136.88,503.66,140.48,498.12,144.17z"/>
				</g>
				<g>
					<g>
						<path class="st3" d="M492.43,143.47c0.16-0.01,0.32-0.06,0.47-0.16l59.92-39.92c0.28-0.19,0.45-0.52,0.43-0.86
							s-0.23-0.65-0.53-0.8L391.73,22.07c-0.48-0.24-1.05-0.04-1.28,0.43c-0.23,0.47-0.04,1.05,0.43,1.28l159.5,78.92l-58.54,39
							c-0.44,0.29-0.56,0.89-0.27,1.33C491.76,143.33,492.09,143.49,492.43,143.47z"/>
					</g>
				</g>
				<g>
					<g>
						<path class="st3" d="M587.37,174.08c0.33-0.02,0.64-0.21,0.8-0.53c0.24-0.47,0.04-1.05-0.43-1.28l-80.85-40.01
							c-0.48-0.23-1.05-0.04-1.28,0.43c-0.24,0.47-0.04,1.05,0.43,1.28l80.85,40.01C587.04,174.06,587.21,174.09,587.37,174.08z"/>
					</g>
				</g>
				<g>
					<path class="st3" d="M380.23,90.35c0.15,2.34-4.25,4.3-8.05,4.54c-5.93,0.38-11.64-2.84-6.68-6.14
						C370.84,85.18,380.03,87.15,380.23,90.35z"/>
				</g>
				<g>
					<path class="st3" d="M459.2,129.42c0.15,2.34-4.25,4.3-8.05,4.54c-5.93,0.38-11.64-2.84-6.68-6.14
						C449.81,124.26,458.99,126.22,459.2,129.42z"/>
				</g>
				<g>
					<g>
						<path class="st3" d="M378.94,179.21c0.2-0.01,0.39-0.08,0.56-0.19l72.13-48.06c0.34-0.23,0.54-0.62,0.51-1.03
							s-0.27-0.78-0.64-0.96l-77.28-38.24l64.46-42.95c0.53-0.35,0.67-1.07,0.32-1.6c-0.36-0.53-1.07-0.67-1.6-0.32l-66.12,44.05
							c-0.34,0.23-0.54,0.62-0.51,1.03c0.03,0.41,0.27,0.78,0.64,0.96l77.28,38.24l-70.47,46.95c-0.53,0.35-0.67,1.07-0.32,1.6
							C378.14,179.06,378.54,179.24,378.94,179.21z"/>
					</g>
				</g>
				<g>
					<path class="st3" d="M454.4,88.13c-6.79,4.51-19.53,0.18-12.85-4.27C448.33,79.35,461.07,83.67,454.4,88.13z"/>
				</g>
				<g>
					<g>
						<path class="st3" d="M447.83,86.83c0.4-0.03,0.77-0.26,0.96-0.64c0.28-0.57,0.05-1.26-0.52-1.55l-38.8-19.2
							c-0.57-0.28-1.26-0.05-1.55,0.52c-0.28,0.57-0.05,1.26,0.52,1.55l38.8,19.2C447.43,86.81,447.63,86.85,447.83,86.83z"/>
					</g>
				</g>
			</g>
		</g>
	</g>
</g>
</svg>
