<?xml version="1.0" encoding="utf-8"?>
<!-- Generator: Adobe Illustrator 24.3.0, SVG Export Plug-In . SVG Version: 6.00 Build 0)  -->
<svg version="1.1" id="Capa_1" xmlns="http://www.w3.org/2000/svg" xmlns:xlink="http://www.w3.org/1999/xlink" x="0px" y="0px"
	 viewBox="0 0 1076.5 223.4" style="enable-background:new 0 0 1076.5 223.4;" xml:space="preserve">
<style type="text/css">
	.st0{fill:#FFFFFF;}
</style>
<g>
	<text transform="matrix(1 0 0 1 354.4472 393.1224)" style="font-family:'Roboto-Bold'; font-size:43.7065px;">Te esperamos</text>
	<text transform="matrix(1 0 0 1 318.6472 438.3224)" style="font-family:'Roboto-Bold'; font-size:43.7065px;">en nuestras redes</text>
</g>
<g>
	<g>
		<path d="M368.5,86.5c0,2.2-0.2,4.1-0.8,5.4c-0.6,1.4-1.4,2.7-2.8,4s-2.2,2.2-2.7,2.8s-0.9,1.2-1.1,1.8c-0.2,0.6-0.4,1.3-0.4,2.1
			c0,2.6,1.3,4,3.9,4c1.3,0,2.3-0.4,3.1-1.1c0.8-0.8,1.2-1.8,1.2-3.2h7.4c0,3.3-1,5.8-3.1,7.6c-2.1,1.8-4.9,2.7-8.4,2.7
			c-3.6,0-6.4-0.9-8.4-2.6c-2-1.8-3-4.2-3-7.4c0-2.7,1.3-5.4,3.9-7.9l2.5-2.4c0.9-0.8,1.4-1.6,1.8-2.4c0.3-0.8,0.5-2,0.6-3.5
			C362,86.5,368.5,86.5,368.5,86.5z M369.4,78.7c0,1.1-0.4,2.1-1.2,2.8s-1.8,1.1-3,1.1c-1.2,0-2.2-0.4-3-1.1
			c-0.8-0.7-1.2-1.7-1.2-2.8s0.4-2.1,1.1-2.8s1.8-1.1,3-1.1c1.2,0,2.2,0.4,3,1.1C369.1,76.6,369.4,77.6,369.4,78.7z"/>
		<path d="M380.8,102.9v-37h13c4.5,0,7.9,0.9,10.2,2.6c2.3,1.7,3.5,4.2,3.5,7.6c0,1.8-0.5,3.4-1.4,4.8c-1,1.4-2.2,2.4-3.9,3
			c1.9,0.5,3.4,1.4,4.5,2.9c1.1,1.4,1.7,3.2,1.7,5.3c0,3.6-1.1,6.2-3.4,8.1c-2.2,1.8-5.5,2.8-9.8,2.8
			C395.2,102.9,380.8,102.9,380.8,102.9z M388.4,81.3h5.7c3.8-0.1,5.8-1.6,5.8-4.6c0-1.7-0.5-2.9-1.4-3.6c-1-0.7-2.5-1.1-4.6-1.1
			h-5.4V81.3z M388.4,86.7v10h6.6c1.8,0,3.2-0.4,4.2-1.3c1-0.9,1.5-2.1,1.5-3.5c0-3.4-1.8-5.1-5.3-5.2H388.4z"/>
		<path d="M430,100.1c-1.8,2.2-4.3,3.3-7.5,3.3c-3,0-5.2-0.9-6.7-2.6c-1.5-1.7-2.3-4.2-2.4-7.4v-18h7.4v17.8c0,2.9,1.3,4.3,3.9,4.3
			c2.5,0,4.2-0.9,5.1-2.6V75.3h7.4v27.5h-7L430,100.1z"/>
		<path d="M457.6,95.3c0-0.9-0.5-1.6-1.4-2.2c-0.9-0.5-2.3-1-4.3-1.4c-6.6-1.4-9.8-4.2-9.8-8.3c0-2.5,1-4.5,3-6.2s4.6-2.5,7.9-2.5
			c3.5,0,6.3,0.8,8.4,2.5c2.1,1.7,3.1,3.8,3.1,6.4h-7.4c0-1-0.3-1.9-1-2.6c-0.6-0.7-1.8-1-3.2-1c-1.2,0-2.2,0.3-2.9,0.9
			c-0.6,0.6-1,1.3-1,2.2c0,0.8,0.4,1.4,1.1,2c0.8,0.5,2.1,1,3.9,1.3c1.8,0.4,3.4,0.8,4.6,1.2c3.9,1.4,5.8,3.9,5.8,7.4
			c0,2.5-1,4.6-3.2,6.1c-2.2,1.5-5,2.3-8.3,2.3c-2.3,0-4.3-0.4-6.2-1.2c-1.8-0.8-3.2-1.9-4.2-3.4c-1-1.4-1.5-3-1.5-4.6h7
			c0.1,1.3,0.6,2.3,1.4,3c0.9,0.7,2.1,1,3.6,1c1.4,0,2.5-0.2,3.2-0.8C457.3,96.8,457.6,96.2,457.6,95.3z"/>
		<path d="M481,97.4c1.4,0,2.5-0.4,3.3-1.1c0.9-0.7,1.3-1.8,1.4-3h6.9c0,1.8-0.6,3.6-1.5,5.1c-1,1.5-2.4,2.7-4.1,3.6
			c-1.8,0.9-3.7,1.3-5.8,1.3c-3.9,0-7-1.3-9.3-3.8c-2.2-2.5-3.4-5.9-3.4-10.4v-0.5c0-4.2,1.1-7.6,3.4-10.2c2.2-2.6,5.4-3.8,9.3-3.8
			c3.4,0,6.2,1,8.3,3c2.1,1.9,3.1,4.6,3.2,7.8h-6.9c0-1.4-0.5-2.6-1.4-3.5c-0.9-0.9-2-1.4-3.4-1.4c-1.7,0-3,0.6-3.9,1.8
			c-0.9,1.3-1.3,3.3-1.3,6.1v0.8c0,2.8,0.4,4.9,1.3,6.1C478,96.7,479.2,97.4,481,97.4z"/>
		<path d="M512.7,102.9c-0.3-0.6-0.6-1.5-0.7-2.5c-1.8,2-4.1,3-7,3c-2.7,0-5-0.8-6.7-2.3c-1.8-1.6-2.6-3.5-2.6-5.9
			c0-2.9,1.1-5.1,3.3-6.7s5.3-2.3,9.4-2.4h3.4v-1.6c0-1.3-0.3-2.3-1-3c-0.6-0.8-1.7-1.1-3.1-1.1c-1.2,0-2.2,0.3-2.9,0.9
			c-0.7,0.6-1,1.4-1,2.5h-7.4c0-1.6,0.5-3,1.4-4.4c1-1.4,2.4-2.4,4.2-3.2c1.8-0.8,3.8-1.1,6.1-1.1c3.4,0,6.1,0.9,8.1,2.6
			c2,1.7,3,4.1,3,7.2v11.9c0,2.6,0.4,4.6,1.1,5.9v0.4L512.7,102.9L512.7,102.9z M506.6,97.8c1.1,0,2.1-0.2,3-0.7
			c0.9-0.5,1.6-1.1,2-1.9v-4.8h-2.7c-3.7,0-5.7,1.3-5.9,3.8v0.4c0,0.9,0.3,1.7,1,2.2C504.6,97.4,505.5,97.8,506.6,97.8z"/>
		<path d="M539.6,95.3c0-0.9-0.5-1.6-1.4-2.2c-0.9-0.5-2.3-1-4.3-1.4c-6.6-1.4-9.8-4.2-9.8-8.3c0-2.5,1-4.5,3-6.2
			c2-1.6,4.6-2.5,7.9-2.5c3.5,0,6.3,0.8,8.4,2.5c2.1,1.7,3.1,3.8,3.1,6.4h-7.4c0-1-0.3-1.9-1-2.6c-0.6-0.7-1.8-1-3.2-1
			c-1.2,0-2.2,0.3-2.9,0.9c-0.6,0.6-1,1.3-1,2.2c0,0.8,0.4,1.4,1.1,2c0.8,0.5,2.1,1,3.9,1.3c1.8,0.4,3.4,0.8,4.6,1.2
			c3.9,1.4,5.8,3.9,5.8,7.4c0,2.5-1,4.6-3.2,6.1c-2.2,1.5-5,2.3-8.3,2.3c-2.3,0-4.3-0.4-6.2-1.2c-1.8-0.8-3.2-1.9-4.2-3.4
			c-1-1.4-1.5-3-1.5-4.6h7c0.1,1.3,0.6,2.3,1.4,3s2.1,1,3.6,1c1.4,0,2.5-0.2,3.2-0.8C539.2,96.8,539.6,96.2,539.6,95.3z"/>
		<path d="M580.4,102.9c-0.3-0.6-0.6-1.5-0.7-2.5c-1.8,2-4.1,3-7,3c-2.7,0-5-0.8-6.7-2.3c-1.8-1.6-2.6-3.5-2.6-5.9
			c0-2.9,1.1-5.1,3.3-6.7c2.2-1.6,5.3-2.3,9.4-2.4h3.4v-1.6c0-1.3-0.3-2.3-1-3c-0.6-0.8-1.7-1.1-3.1-1.1c-1.2,0-2.2,0.3-2.9,0.9
			c-0.7,0.6-1,1.4-1,2.5H564c0-1.6,0.5-3,1.4-4.4c1-1.4,2.4-2.4,4.2-3.2c1.8-0.8,3.8-1.1,6.1-1.1c3.4,0,6.1,0.9,8.1,2.6
			c2,1.7,3,4.1,3,7.2v11.9c0,2.6,0.4,4.6,1.1,5.9v0.4L580.4,102.9L580.4,102.9z M574.4,97.8c1.1,0,2.1-0.2,3-0.7
			c0.9-0.5,1.6-1.1,2-1.9v-4.8h-2.7c-3.7,0-5.7,1.3-5.9,3.8v0.4c0,0.9,0.3,1.7,1,2.2C572.4,97.4,573.2,97.8,574.4,97.8z"/>
		<path d="M600.2,102.9h-7.4V63.8h7.4V102.9z"/>
		<path d="M605.2,88.9c0-4.2,1-7.6,3-10.2c2-2.6,4.7-3.8,8.2-3.8c3,0,5.4,1,7,3.1l0.3-2.6h6.6V102c0,2.4-0.6,4.5-1.7,6.3
			c-1.1,1.8-2.6,3.1-4.6,4.1s-4.3,1.4-7,1.4c-2,0-4-0.4-5.9-1.2c-1.9-0.8-3.4-1.8-4.3-3.1l3.3-4.5c1.8,2.1,4.1,3.1,6.6,3.1
			c1.9,0,3.4-0.6,4.6-1.6c1.1-1,1.6-2.6,1.6-4.5v-1.4c-1.7,1.9-3.9,2.9-6.7,2.9c-3.3,0-6-1.3-8-3.9c-2.1-2.6-3-6-3-10.3L605.2,88.9
			L605.2,88.9z M612.5,89.4c0,2.5,0.5,4.5,1.5,5.8c1,1.4,2.4,2.2,4.2,2.2c2.2,0,3.8-0.9,4.8-2.6V83.3c-1-1.7-2.6-2.6-4.7-2.6
			c-1.8,0-3.1,0.7-4.2,2.2C613,84.4,612.5,86.6,612.5,89.4z"/>
		<path d="M652.4,100.1c-1.8,2.2-4.3,3.3-7.5,3.3c-3,0-5.2-0.9-6.7-2.6c-1.5-1.7-2.3-4.2-2.4-7.4v-18h7.4v17.8
			c0,2.9,1.3,4.3,3.9,4.3c2.5,0,4.2-0.9,5.1-2.6V75.3h7.4v27.5h-7L652.4,100.1z"/>
		<path d="M671.9,75.3l0.2,3.2c2-2.5,4.6-3.7,7.9-3.7c2.9,0,5.1,0.9,6.5,2.6c1.4,1.7,2.2,4.2,2.2,7.7v17.8h-7.4V85.3
			c0-1.6-0.3-2.7-1-3.4c-0.6-0.7-1.8-1-3.4-1c-2.1,0-3.6,0.9-4.6,2.6V103h-7.4V75.3H671.9z"/>
		<path d="M710.3,102.9c-0.3-0.6-0.6-1.5-0.7-2.5c-1.8,2-4.1,3-7,3c-2.7,0-5-0.8-6.7-2.3c-1.8-1.6-2.6-3.5-2.6-5.9
			c0-2.9,1.1-5.1,3.3-6.7s5.3-2.3,9.4-2.4h3.4v-1.6c0-1.3-0.3-2.3-1-3c-0.6-0.8-1.7-1.1-3.1-1.1c-1.2,0-2.2,0.3-2.9,0.9
			c-0.7,0.6-1,1.4-1,2.5h-7.4c0-1.6,0.5-3,1.4-4.4c1-1.4,2.4-2.4,4.2-3.2c1.8-0.8,3.8-1.1,6.1-1.1c3.4,0,6.1,0.9,8.1,2.6
			c2,1.7,3,4.1,3,7.2v11.9c0,2.6,0.4,4.6,1.1,5.9v0.4L710.3,102.9L710.3,102.9z M704.2,97.8c1.1,0,2.1-0.2,3-0.7
			c0.9-0.5,1.6-1.1,2-1.9v-4.8h-2.7c-3.7,0-5.7,1.3-5.9,3.8v0.4c0,0.9,0.3,1.7,1,2.2C702.2,97.4,703.1,97.8,704.2,97.8z"/>
		<path d="M760,89.3c0,4.2-1,7.6-2.9,10.2c-1.9,2.6-4.6,3.8-7.8,3.8c-2.8,0-5-1-6.7-2.9v13h-7.4V75.3h6.8l0.2,2.7
			c1.8-2.2,4.1-3.2,7-3.2c3.4,0,6,1.3,7.9,3.8c1.9,2.5,2.8,6,2.8,10.4L760,89.3L760,89.3z M752.7,88.8c0-2.6-0.5-4.6-1.4-5.9
			c-0.9-1.4-2.2-2.1-3.9-2.1c-2.3,0-3.9,0.9-4.7,2.6v11.3c0.9,1.8,2.5,2.7,4.8,2.7C750.9,97.4,752.7,94.6,752.7,88.8z"/>
		<path d="M780.5,102.9c-0.3-0.6-0.6-1.5-0.7-2.5c-1.8,2-4.1,3-7,3c-2.7,0-5-0.8-6.7-2.3c-1.8-1.6-2.6-3.5-2.6-5.9
			c0-2.9,1.1-5.1,3.3-6.7s5.3-2.3,9.4-2.4h3.4v-1.6c0-1.3-0.3-2.3-1-3c-0.6-0.8-1.7-1.1-3.1-1.1c-1.2,0-2.2,0.3-2.9,0.9
			c-0.7,0.6-1,1.4-1,2.5h-7.4c0-1.6,0.5-3,1.4-4.4c1-1.4,2.4-2.4,4.2-3.2c1.8-0.8,3.8-1.1,6.1-1.1c3.4,0,6.1,0.9,8.1,2.6
			c2,1.7,3,4.1,3,7.2v11.9c0,2.6,0.4,4.6,1.1,5.9v0.4L780.5,102.9L780.5,102.9z M774.4,97.8c1.1,0,2.1-0.2,3-0.7
			c0.9-0.5,1.6-1.1,2-1.9v-4.8h-2.7c-3.7,0-5.7,1.3-5.9,3.8v0.4c0,0.9,0.3,1.7,1,2.2C772.4,97.4,773.3,97.8,774.4,97.8z"/>
		<path d="M800.3,102.9h-7.4V63.8h7.4V102.9z"/>
		<path d="M822.4,102.9c-0.3-0.6-0.6-1.5-0.7-2.5c-1.8,2-4.1,3-7,3c-2.7,0-5-0.8-6.7-2.3c-1.8-1.6-2.6-3.5-2.6-5.9
			c0-2.9,1.1-5.1,3.3-6.7s5.3-2.3,9.4-2.4h3.4v-1.6c0-1.3-0.3-2.3-1-3c-0.6-0.8-1.7-1.1-3.1-1.1c-1.2,0-2.2,0.3-2.9,0.9
			c-0.7,0.6-1,1.4-1,2.5H806c0-1.6,0.5-3,1.4-4.4c1-1.4,2.4-2.4,4.2-3.2c1.8-0.8,3.8-1.1,6.1-1.1c3.4,0,6.1,0.9,8.1,2.6
			c2,1.7,3,4.1,3,7.2v11.9c0,2.6,0.4,4.6,1.1,5.9v0.4L822.4,102.9L822.4,102.9z M816.2,97.8c1.1,0,2.1-0.2,3-0.7
			c0.9-0.5,1.6-1.1,2-1.9v-4.8h-2.7c-3.7,0-5.7,1.3-5.9,3.8v0.4c0,0.9,0.3,1.7,1,2.2C814.2,97.4,815.1,97.8,816.2,97.8z"/>
		<path d="M859.2,89.3c0,4.4-1,7.8-2.8,10.3c-1.9,2.5-4.5,3.7-7.9,3.7c-3,0-5.4-1.1-7.1-3.4l-0.3,3h-6.6V63.8h7.4v14
			c1.7-2,3.9-3,6.7-3c3.4,0,6,1.2,7.9,3.7c1.9,2.5,2.9,5.9,2.9,10.4L859.2,89.3L859.2,89.3z M851.8,88.8c0-2.8-0.5-4.8-1.4-6.1
			s-2.2-1.9-3.9-1.9c-2.3,0-3.9,1-4.8,2.9v10.9c0.9,1.9,2.6,2.9,4.9,2.9c2.4,0,3.9-1.2,4.7-3.5C851.6,92.8,851.8,91.1,851.8,88.8z"
			/>
		<path d="M879.2,82.2c-1-0.2-1.9-0.2-2.6-0.2c-2.8,0-4.6,1-5.4,2.8v18h-7.4V75.3h7l0.2,3.3c1.4-2.6,3.5-3.8,6.2-3.8
			c0.8,0,1.6,0.1,2.3,0.3L879.2,82.2z"/>
		<path d="M897.9,102.9c-0.3-0.6-0.6-1.5-0.7-2.5c-1.8,2-4.1,3-7,3c-2.7,0-5-0.8-6.7-2.3c-1.8-1.6-2.6-3.5-2.6-5.9
			c0-2.9,1.1-5.1,3.3-6.7c2.2-1.6,5.3-2.3,9.4-2.4h3.4v-1.6c0-1.3-0.3-2.3-1-3c-0.6-0.8-1.7-1.1-3.1-1.1c-1.2,0-2.2,0.3-2.9,0.9
			c-0.7,0.6-1,1.4-1,2.5h-7.4c0-1.6,0.5-3,1.4-4.4c1-1.4,2.4-2.4,4.2-3.2c1.8-0.8,3.8-1.1,6.1-1.1c3.4,0,6.1,0.9,8.1,2.6
			c2,1.7,3,4.1,3,7.2v11.9c0,2.6,0.4,4.6,1.1,5.9v0.4L897.9,102.9L897.9,102.9z M891.8,97.8c1.1,0,2.1-0.2,3-0.7
			c0.9-0.5,1.6-1.1,2-1.9v-4.8H894c-3.7,0-5.7,1.3-5.9,3.8v0.4c0,0.9,0.3,1.7,1,2.2C889.8,97.4,890.7,97.8,891.8,97.8z"/>
		<path d="M915.9,91.5c0-2.4,0.3-4.2,0.9-5.7c0.6-1.4,1.6-2.8,3.2-4.2c1.5-1.4,2.6-2.5,3-3.4s0.8-1.8,0.8-2.7c0-2.9-1.4-4.3-4-4.3
			c-1.3,0-2.2,0.4-3,1.2c-0.7,0.8-1.1,1.8-1.2,3.2h-7.4c0-3.3,1.1-5.8,3.1-7.6c2.1-1.8,4.9-2.7,8.4-2.7c3.6,0,6.4,0.9,8.4,2.6
			c2,1.8,3,4.2,3,7.4c0,1.4-0.3,2.8-1,4.1c-0.6,1.3-1.8,2.7-3.4,4.2l-2.1,2c-1.3,1.2-2,2.7-2.2,4.3l-0.1,1.5
			C922.4,91.5,915.9,91.5,915.9,91.5z M915.1,99.3c0-1.1,0.4-2.1,1.1-2.8c0.8-0.7,1.8-1.1,3-1.1s2.2,0.4,3,1.1
			c0.8,0.7,1.1,1.7,1.1,2.8s-0.4,2-1.1,2.8c-0.7,0.7-1.8,1.1-3,1.1s-2.2-0.4-3-1.1S915.1,100.4,915.1,99.3z"/>
		<path d="M497.3,156.7h-7.6v-15.9h-14.9v15.9h-7.6v-37h7.6v15h14.9v-15h7.6V156.7z"/>
		<path d="M519.5,156.7c-0.3-0.6-0.6-1.5-0.7-2.5c-1.8,2-4.1,3-7,3c-2.7,0-5-0.8-6.7-2.3c-1.8-1.6-2.6-3.5-2.6-5.9
			c0-2.9,1.1-5.1,3.3-6.7c2.2-1.6,5.3-2.3,9.4-2.4h3.4v-1.6c0-1.3-0.3-2.3-1-3c-0.6-0.8-1.7-1.1-3.1-1.1c-1.2,0-2.2,0.3-2.9,0.9
			c-0.7,0.6-1,1.4-1,2.5h-7.4c0-1.6,0.5-3,1.4-4.4s2.4-2.4,4.2-3.2s3.8-1.1,6.1-1.1c3.4,0,6.1,0.9,8.1,2.6c2,1.7,3,4.1,3,7.2v11.9
			c0,2.6,0.4,4.6,1.1,5.9v0.4L519.5,156.7L519.5,156.7z M513.4,151.6c1.1,0,2.1-0.2,3-0.7c0.9-0.5,1.6-1.1,2-1.9v-4.7h-2.7
			c-3.7,0-5.7,1.3-5.9,3.8v0.4c0,0.9,0.3,1.7,1,2.2C511.4,151.3,512.3,151.6,513.4,151.6z"/>
		<path d="M542.9,151.3c1.4,0,2.5-0.4,3.3-1.1c0.9-0.7,1.3-1.8,1.4-3h6.9c0,1.8-0.6,3.6-1.5,5.1c-1,1.5-2.4,2.7-4.1,3.6
			c-1.8,0.9-3.7,1.3-5.8,1.3c-3.9,0-7-1.3-9.3-3.8c-2.2-2.5-3.4-5.9-3.4-10.4v-0.5c0-4.2,1.1-7.6,3.4-10.2c2.2-2.6,5.4-3.8,9.3-3.8
			c3.4,0,6.2,1,8.3,3c2.1,1.9,3.1,4.6,3.2,7.8h-6.9c0-1.4-0.5-2.6-1.4-3.5c-0.9-0.9-2-1.4-3.4-1.4c-1.7,0-3,0.6-3.9,1.8
			c-0.9,1.3-1.3,3.3-1.3,6.1v0.8c0,2.8,0.4,4.9,1.3,6.1C539.9,150.7,541.2,151.3,542.9,151.3z"/>
		<path d="M571.3,157.2c-4,0-7.4-1.2-9.8-3.7c-2.6-2.5-3.8-5.8-3.8-9.9v-0.7c0-2.8,0.6-5.2,1.6-7.4c1-2.2,2.6-3.8,4.6-5
			s4.2-1.8,6.7-1.8c3.8,0,6.7,1.2,8.9,3.6c2.2,2.4,3.3,5.8,3.3,10.1v3h-17.5c0.2,1.8,1,3.2,2.2,4.3c1.2,1.1,2.7,1.6,4.6,1.6
			c2.8,0,5-1,6.6-3l3.6,4.1c-1.1,1.6-2.6,2.8-4.5,3.7C575.7,156.8,573.6,157.2,571.3,157.2z M570.5,134.6c-1.4,0-2.6,0.5-3.5,1.5
			c-0.9,1-1.5,2.4-1.8,4.2h10.2v-0.6c0-1.6-0.5-2.9-1.4-3.8C573.2,135,572,134.6,570.5,134.6z M571.2,117.6h8l-7,7.9h-6L571.2,117.6
			z"/>
		<path d="M611.2,151.3c1.4,0,2.5-0.4,3.3-1.1c0.9-0.7,1.3-1.8,1.4-3h6.9c0,1.8-0.6,3.6-1.5,5.1c-1,1.5-2.4,2.7-4.1,3.6
			c-1.8,0.9-3.7,1.3-5.8,1.3c-3.9,0-7-1.3-9.3-3.8c-2.2-2.5-3.4-5.9-3.4-10.4v-0.5c0-4.2,1.1-7.6,3.4-10.2s5.4-3.8,9.3-3.8
			c3.4,0,6.2,1,8.3,3c2.1,1.9,3.1,4.6,3.2,7.8H616c0-1.4-0.5-2.6-1.4-3.5c-0.9-0.9-2-1.4-3.4-1.4c-1.7,0-3,0.6-3.9,1.8
			c-0.9,1.3-1.3,3.3-1.3,6.1v0.8c0,2.8,0.4,4.9,1.3,6.1C608.2,150.7,609.5,151.3,611.2,151.3z"/>
		<path d="M634.8,156.7h-7.4v-39.1h7.4V156.7z"/>
		<path d="M640.8,122.1c0-1.1,0.4-2,1.1-2.7c0.7-0.7,1.8-1,3-1s2.2,0.3,3,1c0.7,0.7,1.1,1.6,1.1,2.7c0,1.1-0.4,2-1.1,2.7s-1.8,1-3,1
			s-2.2-0.3-3-1C641.2,124.1,640.8,123.2,640.8,122.1z M648.6,156.7h-7.4v-27.5h7.4V156.7z"/>
		<path d="M666.1,151.3c1.4,0,2.5-0.4,3.3-1.1c0.9-0.7,1.3-1.8,1.4-3h6.9c0,1.8-0.6,3.6-1.5,5.1c-1,1.5-2.4,2.7-4.1,3.6
			c-1.8,0.9-3.7,1.3-5.8,1.3c-3.9,0-7-1.3-9.3-3.8c-2.2-2.5-3.4-5.9-3.4-10.4v-0.5c0-4.2,1.1-7.6,3.4-10.2s5.4-3.8,9.3-3.8
			c3.4,0,6.2,1,8.3,3c2.1,1.9,3.1,4.6,3.2,7.8h-6.9c0-1.4-0.5-2.6-1.4-3.5c-0.9-0.9-2-1.4-3.4-1.4c-1.7,0-3,0.6-3.9,1.8
			c-0.9,1.3-1.3,3.3-1.3,6.1v0.8c0,2.8,0.4,4.9,1.3,6.1C663,150.7,664.3,151.3,666.1,151.3z"/>
		<path d="M691.8,145.7l-2.6,2.6v8.4h-7.4v-39.1h7.4v21.7l1.4-1.8l7-8.2h8.8l-9.9,11.4l10.8,16.1h-8.5L691.8,145.7z"/>
		<path d="M738.6,156.7c-0.3-0.6-0.6-1.5-0.7-2.5c-1.8,2-4.1,3-7,3c-2.7,0-5-0.8-6.7-2.3c-1.8-1.6-2.6-3.5-2.6-5.9
			c0-2.9,1.1-5.1,3.3-6.7c2.2-1.6,5.3-2.3,9.4-2.4h3.4v-1.6c0-1.3-0.3-2.3-1-3c-0.6-0.8-1.7-1.1-3.1-1.1c-1.2,0-2.2,0.3-2.9,0.9
			c-0.7,0.6-1,1.4-1,2.5h-7.4c0-1.6,0.5-3,1.4-4.4s2.4-2.4,4.2-3.2s3.8-1.1,6.1-1.1c3.4,0,6.1,0.9,8.1,2.6c2,1.7,3,4.1,3,7.2v11.9
			c0,2.6,0.4,4.6,1.1,5.9v0.4L738.6,156.7L738.6,156.7z M732.5,151.6c1.1,0,2.1-0.2,3-0.7c0.9-0.5,1.6-1.1,2-1.9v-4.7h-2.7
			c-3.7,0-5.7,1.3-5.9,3.8v0.4c0,0.9,0.3,1.7,1,2.2C730.5,151.3,731.4,151.6,732.5,151.6z"/>
		<path d="M749.4,142.7c0-4.3,1-7.8,2.9-10.2c1.9-2.5,4.6-3.8,7.9-3.8c3,0,5.3,1.1,7,3.4l0.5-2.9h6.5v38.2h-7.4v-13
			c-1.7,1.9-3.9,2.9-6.6,2.9c-3.3,0-5.9-1.3-7.8-3.8C750.4,150.9,749.4,147.3,749.4,142.7z M756.8,143.2c0,2.6,0.5,4.6,1.4,6
			c1,1.4,2.2,2.1,3.9,2.1c2.2,0,3.8-0.9,4.8-2.7v-11.4c-0.9-1.8-2.5-2.6-4.7-2.6c-1.7,0-3,0.7-3.9,2.1
			C757.2,138.1,756.8,140.2,756.8,143.2z"/>
		<path d="M796.5,153.9c-1.8,2.2-4.3,3.3-7.5,3.3c-3,0-5.2-0.9-6.7-2.6c-1.5-1.7-2.3-4.2-2.4-7.4v-18.1h7.4v17.8
			c0,2.9,1.3,4.3,3.9,4.3c2.5,0,4.2-0.9,5.1-2.6v-19.5h7.4v27.5h-7L796.5,153.9z"/>
		<path d="M817.2,156.7h-7.4v-27.5h7.4V156.7z M815,118h8l-7,7.9h-6L815,118z"/>
	</g>
</g>
<g>
	<path d="M303.1,151.3l-28-28c-4.2,6.5-9.7,12-16.2,16.2l28,28c4.5,4.5,11.7,4.5,16.2,0C307.6,163.1,307.6,155.8,303.1,151.3z"/>
	<path d="M275.9,94.5c0-25.3-20.5-45.8-45.8-45.8s-45.8,20.5-45.8,45.8s20.5,45.8,45.8,45.8S275.9,119.8,275.9,94.5z M230.1,128.9
		c-18.9,0-34.4-15.4-34.4-34.4s15.4-34.4,34.4-34.4s34.4,15.4,34.4,34.4C264.4,113.5,249,128.9,230.1,128.9z"/>
	<path d="M203.3,94.5h7.6c0-10.5,8.6-19.1,19.1-19.1v-7.6C215.3,67.8,203.3,79.8,203.3,94.5z"/>
</g>
<g>
	<path class="st0" d="M1005.5,26.7c25.4,0,46,20.6,46,46v81c0,25.4-20.6,46-46,46h-934c-25.4,0-46-20.6-46-46v-81
		c0-25.4,20.6-46,46-46L1005.5,26.7 M1005.5,22.7h-934c-27.6,0-50,22.4-50,50v81c0,27.6,22.4,50,50,50h934c27.6,0,50-22.4,50-50v-81
		C1055.5,45.1,1033.2,22.7,1005.5,22.7L1005.5,22.7z"/>
</g>
</svg>
