<?xml version="1.0" encoding="utf-8"?>
<!-- Generator: Adobe Illustrator 25.4.1, SVG Export Plug-In . SVG Version: 6.00 Build 0)  -->
<svg version="1.1" id="Capa_1" xmlns="http://www.w3.org/2000/svg" xmlns:xlink="http://www.w3.org/1999/xlink" x="0px" y="0px"
	 viewBox="0 0 900 150" style="enable-background:new 0 0 900 150;" xml:space="preserve">
<style type="text/css">
	.st0{fill:#E88C73;}
	.st1{clip-path:url(#SVGID_00000013158603822265225730000010858120698219189932_);}
	.st2{fill:#D94F27;}
	.st3{filter:url(#Adobe_OpacityMaskFilter);}
	
		.st4{clip-path:url(#SVGID_00000057131907702478871320000009617407327422872965_);fill:url(#SVGID_00000007391878385586632570000013140083822392068739_);}
	
		.st5{clip-path:url(#SVGID_00000057131907702478871320000009617407327422872965_);mask:url(#SVGID_00000106125724090839437110000008216768134881118125_);}
	.st6{fill:#2AB0E1;}
	.st7{enable-background:new    ;}
	.st8{fill:#614290;}
	.st9{fill:#254190;}
	.st10{fill:#FFDE0B;}
	.st11{fill:#D22429;}
	.st12{fill:#47AA4B;}
	.st13{fill:#F29424;}
	.st14{fill:#CB0D1C;}
	.st15{fill:#E21319;}
	.st16{fill:#E64041;}
	.st17{fill:#F4ABAE;}
	.st18{fill:#A7121C;}
</style>
<g>
	<g>
		<g>
			<path class="st0" d="M45.79,65.91c-0.19,4.3-1.4,7.56-3.63,9.77C39.93,77.9,36.79,79,32.73,79c-4.27,0-7.54-1.4-9.81-4.21
				s-3.41-6.81-3.41-12.02v-6.35c0-5.19,1.18-9.18,3.53-11.99s5.62-4.21,9.8-4.21c4.11,0,7.24,1.15,9.37,3.45
				c2.13,2.3,3.35,5.6,3.64,9.9h-7.65c-0.07-2.66-0.48-4.5-1.23-5.51c-0.75-1.01-2.13-1.52-4.13-1.52c-2.04,0-3.48,0.71-4.33,2.14
				s-1.3,3.77-1.35,7.04v7.13c0,3.75,0.42,6.33,1.26,7.73c0.84,1.4,2.28,2.1,4.32,2.1c2,0,3.39-0.49,4.15-1.46
				c0.76-0.98,1.19-2.74,1.3-5.3H45.79z"/>
			<path class="st0" d="M61.92,64.69h-3.79v13.79h-7.62V40.74h12.16c3.82,0,6.77,0.99,8.85,2.97c2.08,1.98,3.12,4.79,3.12,8.44
				c0,5.01-1.82,8.52-5.47,10.53l6.61,15.45v0.36H67.6L61.92,64.69z M58.13,58.34h4.33c1.52,0,2.66-0.5,3.42-1.52
				c0.76-1.01,1.14-2.36,1.14-4.06c0-3.79-1.48-5.68-4.43-5.68h-4.46V58.34z"/>
			<path class="st0" d="M104.44,40.74v26.13c-0.04,3.92-1.12,6.93-3.24,9.01S96.02,79,92.04,79c-4.04,0-7.13-1.05-9.27-3.16
				c-2.13-2.11-3.2-5.16-3.2-9.15V40.74h7.67v25.98c0,2.14,0.34,3.67,1.04,4.59c0.69,0.92,1.94,1.37,3.76,1.37s3.06-0.45,3.73-1.36
				c0.67-0.91,1.02-2.4,1.04-4.47V40.74H104.44z"/>
			<path class="st0" d="M135.81,65.91c-0.19,4.3-1.4,7.56-3.63,9.77c-2.23,2.21-5.37,3.32-9.44,3.32c-4.27,0-7.54-1.4-9.81-4.21
				s-3.41-6.81-3.41-12.02v-6.35c0-5.19,1.18-9.18,3.53-11.99s5.62-4.21,9.8-4.21c4.11,0,7.24,1.15,9.37,3.45
				c2.13,2.3,3.35,5.6,3.64,9.9h-7.65c-0.07-2.66-0.48-4.5-1.23-5.51c-0.75-1.01-2.13-1.52-4.13-1.52c-2.04,0-3.48,0.71-4.33,2.14
				s-1.3,3.77-1.35,7.04v7.13c0,3.75,0.42,6.33,1.26,7.73c0.84,1.4,2.28,2.1,4.32,2.1c2,0,3.39-0.49,4.15-1.46
				c0.76-0.98,1.19-2.74,1.3-5.3H135.81z"/>
			<path class="st0" d="M159.99,62.15h-11.87v10.01h14.05v6.33H140.5V40.74h21.62v6.35h-14v8.92h11.87V62.15z"/>
			<path class="st0" d="M182.5,68.58c0-1.54-0.39-2.7-1.18-3.49c-0.79-0.79-2.22-1.6-4.29-2.45c-3.79-1.43-6.51-3.12-8.17-5.04
				s-2.49-4.2-2.49-6.83c0-3.18,1.13-5.73,3.38-7.66c2.25-1.93,5.12-2.89,8.59-2.89c2.32,0,4.38,0.49,6.2,1.46
				c1.82,0.98,3.21,2.36,4.19,4.14c0.98,1.78,1.46,3.8,1.46,6.07h-7.6c0-1.76-0.38-3.11-1.13-4.03s-1.84-1.39-3.25-1.39
				c-1.33,0-2.37,0.39-3.11,1.18c-0.74,0.79-1.12,1.85-1.12,3.18c0,1.04,0.42,1.97,1.25,2.81c0.83,0.84,2.3,1.71,4.41,2.61
				c3.68,1.33,6.36,2.96,8.02,4.9s2.5,4.4,2.5,7.39c0,3.28-1.05,5.85-3.14,7.7c-2.09,1.85-4.93,2.77-8.53,2.77
				c-2.44,0-4.66-0.5-6.66-1.5s-3.57-2.44-4.71-4.3c-1.13-1.87-1.7-4.07-1.7-6.61h7.65c0,2.18,0.42,3.76,1.27,4.74
				s2.23,1.48,4.15,1.48C181.17,72.81,182.5,71.4,182.5,68.58z"/>
			<path class="st0" d="M233.05,65.91c-0.19,4.3-1.4,7.56-3.63,9.77c-2.23,2.21-5.38,3.32-9.44,3.32c-4.27,0-7.54-1.4-9.81-4.21
				s-3.41-6.81-3.41-12.02v-6.35c0-5.19,1.18-9.18,3.53-11.99s5.62-4.21,9.8-4.21c4.11,0,7.24,1.15,9.37,3.45
				c2.13,2.3,3.35,5.6,3.64,9.9h-7.65c-0.07-2.66-0.48-4.5-1.23-5.51c-0.75-1.01-2.13-1.52-4.13-1.52c-2.04,0-3.48,0.71-4.33,2.14
				s-1.3,3.77-1.35,7.04v7.13c0,3.75,0.42,6.33,1.26,7.73c0.84,1.4,2.28,2.1,4.32,2.1c2,0,3.39-0.49,4.15-1.46
				c0.76-0.98,1.19-2.74,1.3-5.3H233.05z"/>
			<path class="st0" d="M249.18,64.69h-3.79v13.79h-7.62V40.74h12.16c3.82,0,6.77,0.99,8.85,2.97c2.08,1.98,3.12,4.79,3.12,8.44
				c0,5.01-1.82,8.52-5.47,10.53l6.61,15.45v0.36h-8.19L249.18,64.69z M245.39,58.34h4.33c1.52,0,2.66-0.5,3.42-1.52
				c0.76-1.01,1.14-2.36,1.14-4.06c0-3.79-1.48-5.68-4.43-5.68h-4.46V58.34z"/>
			<path class="st0" d="M286.64,62.15h-11.87v10.01h14.05v6.33h-21.67V40.74h21.62v6.35h-14v8.92h11.87V62.15z"/>
			<path class="st0" d="M311.22,70.76h-10.4l-2.02,7.73h-8.06l11.8-37.75h6.97l11.87,37.75h-8.14L311.22,70.76z M302.48,64.41h7.05
				l-3.53-13.46L302.48,64.41z"/>
			<path class="st0" d="M346.24,47.09h-9.33v31.4h-7.65v-31.4h-9.18v-6.35h26.16V47.09z"/>
			<path class="st0" d="M358.58,78.48h-7.62V40.74h7.62V78.48z"/>
			<path class="st0" d="M377.27,68.11l6.35-27.38h8.5l-10.89,37.75h-7.93L362.5,40.74h8.45L377.27,68.11z"/>
			<path class="st0" d="M421.92,63.01c0,5.06-1.2,9-3.59,11.8c-2.39,2.8-5.72,4.2-9.97,4.2c-4.23,0-7.56-1.39-9.98-4.16
				s-3.65-6.66-3.68-11.65v-6.46c0-5.18,1.2-9.23,3.6-12.15c2.4-2.91,5.74-4.37,10.01-4.37c4.2,0,7.51,1.43,9.93,4.29
				c2.42,2.86,3.65,6.88,3.68,12.04V63.01z M414.27,56.68c0-3.4-0.48-5.94-1.45-7.6s-2.47-2.49-4.51-2.49c-2.02,0-3.52,0.8-4.49,2.4
				s-1.47,4.03-1.5,7.3v6.71c0,3.3,0.49,5.73,1.48,7.3c0.98,1.56,2.51,2.35,4.56,2.35c1.99,0,3.46-0.76,4.43-2.29
				c0.97-1.53,1.46-3.9,1.48-7.12V56.68z"/>
			<path class="st0" d="M443.33,68.58c0-1.54-0.39-2.7-1.18-3.49c-0.79-0.79-2.22-1.6-4.29-2.45c-3.79-1.43-6.51-3.12-8.17-5.04
				s-2.49-4.2-2.49-6.83c0-3.18,1.13-5.73,3.38-7.66c2.25-1.93,5.12-2.89,8.59-2.89c2.32,0,4.38,0.49,6.2,1.46
				c1.82,0.98,3.21,2.36,4.19,4.14c0.98,1.78,1.46,3.8,1.46,6.07h-7.6c0-1.76-0.38-3.11-1.13-4.03s-1.84-1.39-3.25-1.39
				c-1.33,0-2.37,0.39-3.11,1.18c-0.74,0.79-1.12,1.85-1.12,3.18c0,1.04,0.42,1.97,1.25,2.81c0.83,0.84,2.3,1.71,4.41,2.61
				c3.68,1.33,6.36,2.96,8.02,4.9s2.5,4.4,2.5,7.39c0,3.28-1.05,5.85-3.14,7.7c-2.09,1.85-4.93,2.77-8.53,2.77
				c-2.44,0-4.66-0.5-6.66-1.5s-3.57-2.44-4.71-4.3c-1.13-1.87-1.7-4.07-1.7-6.61h7.65c0,2.18,0.42,3.76,1.27,4.74
				s2.23,1.48,4.15,1.48C442,72.81,443.33,71.4,443.33,68.58z"/>
		</g>
		<g>
			<path d="M33.31,98.93h-6.23v4.22h7.31v2.61H23.83V90h10.54v2.63h-7.29v3.75h6.23V98.93z"/>
			<path d="M49.55,105.76H46.3l-6.32-10.37v10.37h-3.25V90h3.25l6.33,10.39V90h3.24V105.76z"/>
			<path d="M64.38,92.63h-4.83v13.13H56.3V92.63h-4.76V90h12.83V92.63z"/>
			<path d="M72.5,99.99h-2.59v5.77h-3.25V90h5.85c1.86,0,3.3,0.42,4.31,1.25c1.01,0.83,1.52,2,1.52,3.52c0,1.08-0.23,1.97-0.7,2.69
				c-0.46,0.72-1.17,1.29-2.12,1.72l3.41,6.44v0.15h-3.48L72.5,99.99z M69.92,97.36h2.62c0.82,0,1.45-0.21,1.89-0.62
				s0.67-0.99,0.67-1.71c0-0.74-0.21-1.33-0.63-1.75s-1.07-0.64-1.94-0.64h-2.61V97.36z"/>
			<path d="M90.73,98.93H84.5v4.22h7.31v2.61H81.26V90h10.54v2.63H84.5v3.75h6.23V98.93z"/>
			<path d="M108.3,101.62c0-0.61-0.22-1.08-0.65-1.41c-0.43-0.33-1.21-0.67-2.34-1.04c-1.12-0.36-2.02-0.72-2.67-1.08
				c-1.79-0.97-2.68-2.27-2.68-3.91c0-0.85,0.24-1.61,0.72-2.28s1.17-1.19,2.07-1.56c0.9-0.38,1.91-0.56,3.02-0.56
				c1.12,0,2.13,0.2,3.01,0.61s1.56,0.98,2.05,1.73s0.73,1.59,0.73,2.53h-3.25c0-0.72-0.23-1.28-0.68-1.68
				c-0.45-0.4-1.09-0.6-1.92-0.6c-0.79,0-1.41,0.17-1.85,0.5c-0.44,0.34-0.66,0.78-0.66,1.33c0,0.51,0.26,0.94,0.77,1.29
				c0.52,0.35,1.27,0.67,2.28,0.97c1.85,0.56,3.19,1.24,4.04,2.07c0.84,0.82,1.27,1.85,1.27,3.07c0,1.36-0.52,2.43-1.55,3.21
				c-1.03,0.78-2.42,1.16-4.17,1.16c-1.21,0-2.32-0.22-3.31-0.67c-1-0.44-1.75-1.05-2.28-1.82c-0.52-0.77-0.78-1.67-0.78-2.68h3.26
				c0,1.74,1.04,2.61,3.12,2.61c0.77,0,1.37-0.16,1.81-0.47C108.08,102.62,108.3,102.18,108.3,101.62z"/>
			<path d="M126.05,92.63h-4.83v13.13h-3.25V92.63h-4.76V90h12.83V92.63z"/>
			<path d="M140.98,98.24c0,1.55-0.27,2.91-0.82,4.08c-0.55,1.17-1.33,2.07-2.35,2.71s-2.19,0.95-3.51,0.95
				c-1.31,0-2.47-0.31-3.5-0.94c-1.02-0.63-1.82-1.52-2.38-2.69c-0.56-1.17-0.85-2.5-0.85-4.02v-0.78c0-1.55,0.28-2.92,0.84-4.1
				c0.56-1.18,1.35-2.08,2.37-2.72c1.02-0.63,2.19-0.95,3.5-0.95c1.31,0,2.48,0.32,3.5,0.95c1.02,0.63,1.81,1.54,2.37,2.72
				c0.56,1.18,0.84,2.54,0.84,4.08V98.24z M137.7,97.52c0-1.65-0.3-2.91-0.89-3.77c-0.59-0.86-1.44-1.29-2.53-1.29
				c-1.09,0-1.93,0.42-2.52,1.27s-0.89,2.09-0.9,3.73v0.77c0,1.61,0.29,2.86,0.89,3.74c0.59,0.89,1.44,1.33,2.55,1.33
				c1.09,0,1.93-0.43,2.51-1.28c0.58-0.86,0.88-2.1,0.89-3.74V97.52z"/>
			<path d="M149.62,99.99h-2.59v5.77h-3.25V90h5.85c1.86,0,3.3,0.42,4.31,1.25c1.01,0.83,1.52,2,1.52,3.52
				c0,1.08-0.23,1.97-0.7,2.69c-0.46,0.72-1.17,1.29-2.12,1.72l3.41,6.44v0.15h-3.48L149.62,99.99z M147.03,97.36h2.62
				c0.82,0,1.45-0.21,1.89-0.62s0.67-0.99,0.67-1.71c0-0.74-0.21-1.33-0.63-1.75s-1.07-0.64-1.94-0.64h-2.61V97.36z"/>
			<path d="M163.29,97.1l3.28-7.1h3.55l-5.17,10.04v5.71h-3.3v-5.71L156.47,90h3.56L163.29,97.1z"/>
			<path d="M184.04,92.63h-4.83v13.13h-3.25V92.63h-4.76V90h12.83V92.63z"/>
			<path d="M195.81,98.93h-6.23v4.22h7.31v2.61h-10.56V90h10.54v2.63h-7.29v3.75h6.23V98.93z"/>
			<path d="M202.49,103.15h6.89v2.61h-10.14V90h3.25V103.15z"/>
			<path d="M214.93,103.15h6.89v2.61h-10.14V90h3.25V103.15z"/>
			<path d="M227.58,105.76h-3.25V90h3.25V105.76z"/>
			<path d="M243.85,105.76h-3.25l-6.32-10.37v10.37h-3.25V90h3.25l6.33,10.39V90h3.24V105.76z"/>
			<path d="M259.59,103.76c-0.58,0.7-1.41,1.24-2.48,1.63s-2.25,0.58-3.55,0.58c-1.36,0-2.56-0.3-3.59-0.89
				c-1.03-0.59-1.82-1.46-2.38-2.59c-0.56-1.13-0.85-2.46-0.86-3.99v-1.07c0-1.57,0.26-2.93,0.79-4.08s1.29-2.03,2.29-2.64
				s2.17-0.91,3.51-0.91c1.87,0,3.33,0.45,4.38,1.34c1.05,0.89,1.68,2.19,1.87,3.89h-3.16c-0.14-0.9-0.46-1.56-0.96-1.98
				s-1.17-0.63-2.04-0.63c-1.1,0-1.94,0.42-2.52,1.25c-0.58,0.83-0.87,2.06-0.88,3.7v1.01c0,1.65,0.31,2.9,0.94,3.74
				c0.63,0.84,1.55,1.27,2.76,1.27c1.22,0,2.09-0.26,2.61-0.78v-2.72h-2.95v-2.39h6.2V103.76z"/>
			<path d="M274.06,97.1l3.28-7.1h3.55l-5.17,10.04v5.71h-3.3v-5.71L267.24,90h3.56L274.06,97.1z"/>
			<path d="M301.2,103.76c-0.58,0.7-1.41,1.24-2.48,1.63s-2.25,0.58-3.55,0.58c-1.36,0-2.56-0.3-3.59-0.89
				c-1.03-0.59-1.82-1.46-2.38-2.59c-0.56-1.13-0.85-2.46-0.86-3.99v-1.07c0-1.57,0.26-2.93,0.79-4.08s1.29-2.03,2.29-2.64
				s2.17-0.91,3.51-0.91c1.87,0,3.33,0.45,4.38,1.34c1.05,0.89,1.68,2.19,1.87,3.89h-3.16c-0.14-0.9-0.46-1.56-0.96-1.98
				s-1.17-0.63-2.04-0.63c-1.1,0-1.94,0.42-2.52,1.25c-0.58,0.83-0.87,2.06-0.88,3.7v1.01c0,1.65,0.31,2.9,0.94,3.74
				c0.63,0.84,1.55,1.27,2.76,1.27c1.22,0,2.09-0.26,2.61-0.78v-2.72H295v-2.39h6.2V103.76z"/>
			<path d="M313.16,102.51h-5.69l-1.08,3.25h-3.45L308.8,90h3.01l5.9,15.76h-3.45L313.16,102.51z M308.35,99.88h3.94l-1.98-5.9
				L308.35,99.88z"/>
			<path d="M323.87,90l4.05,11.43L331.94,90h4.26v15.76h-3.26v-4.31l0.32-7.43l-4.25,11.74h-2.23l-4.24-11.73l0.33,7.42v4.31h-3.25
				V90H323.87z"/>
			<path d="M342.93,105.76h-3.25V90h3.25V105.76z"/>
			<path d="M355.86,99.32h-6.23v6.44h-3.25V90h10.26v2.63h-7.01v4.07h6.23V99.32z"/>
			<path d="M362.42,105.76h-3.25V90h3.25V105.76z"/>
			<path d="M378.24,100.51c-0.12,1.7-0.75,3.03-1.88,4c-1.13,0.97-2.62,1.46-4.46,1.46c-2.02,0-3.61-0.68-4.77-2.04
				c-1.16-1.36-1.74-3.23-1.74-5.6v-0.96c0-1.51,0.27-2.85,0.8-4c0.53-1.15,1.3-2.04,2.29-2.66c0.99-0.62,2.14-0.92,3.46-0.92
				c1.82,0,3.28,0.49,4.39,1.46c1.11,0.97,1.75,2.34,1.93,4.1h-3.25c-0.08-1.02-0.36-1.75-0.85-2.21s-1.23-0.69-2.22-0.69
				c-1.08,0-1.89,0.39-2.43,1.16s-0.81,1.98-0.83,3.61v1.19c0,1.7,0.26,2.95,0.77,3.73s1.33,1.18,2.44,1.18c1,0,1.75-0.23,2.25-0.69
				s0.78-1.17,0.85-2.13H378.24z"/>
			<path d="M389.71,102.51h-5.69l-1.08,3.25h-3.45L385.35,90h3.01l5.9,15.76h-3.45L389.71,102.51z M384.89,99.88h3.94l-1.98-5.9
				L384.89,99.88z"/>
			<path d="M408.31,100.51c-0.12,1.7-0.75,3.03-1.88,4c-1.13,0.97-2.62,1.46-4.46,1.46c-2.02,0-3.61-0.68-4.77-2.04
				c-1.16-1.36-1.74-3.23-1.74-5.6v-0.96c0-1.51,0.27-2.85,0.8-4c0.53-1.15,1.3-2.04,2.29-2.66c0.99-0.62,2.14-0.92,3.46-0.92
				c1.82,0,3.28,0.49,4.39,1.46c1.11,0.97,1.75,2.34,1.93,4.1h-3.25c-0.08-1.02-0.36-1.75-0.85-2.21s-1.23-0.69-2.22-0.69
				c-1.08,0-1.89,0.39-2.43,1.16s-0.81,1.98-0.83,3.61v1.19c0,1.7,0.26,2.95,0.77,3.73s1.33,1.18,2.44,1.18c1,0,1.75-0.23,2.25-0.69
				s0.78-1.17,0.85-2.13H408.31z"/>
			<path d="M414.34,105.76h-3.25V90h3.25V105.76z"/>
			<path d="M430.73,98.24c0,1.55-0.27,2.91-0.82,4.08c-0.55,1.17-1.33,2.07-2.35,2.71s-2.19,0.95-3.51,0.95
				c-1.31,0-2.47-0.31-3.5-0.94c-1.02-0.63-1.82-1.52-2.38-2.69c-0.56-1.17-0.85-2.5-0.85-4.02v-0.78c0-1.55,0.28-2.92,0.84-4.1
				c0.56-1.18,1.35-2.08,2.37-2.72c1.02-0.63,2.19-0.95,3.5-0.95c1.31,0,2.48,0.32,3.5,0.95c1.02,0.63,1.81,1.54,2.37,2.72
				c0.56,1.18,0.84,2.54,0.84,4.08V98.24z M427.44,97.52c0-1.65-0.3-2.91-0.89-3.77c-0.59-0.86-1.44-1.29-2.53-1.29
				c-1.09,0-1.93,0.42-2.52,1.27s-0.89,2.09-0.9,3.73v0.77c0,1.61,0.29,2.86,0.89,3.74c0.59,0.89,1.44,1.33,2.55,1.33
				c1.09,0,1.93-0.43,2.51-1.28c0.58-0.86,0.88-2.1,0.89-3.74V97.52z M424.65,85.78h3.41l-3,3.35h-2.54L424.65,85.78z"/>
			<path d="M446.34,105.76h-3.25l-6.32-10.37v10.37h-3.25V90h3.25l6.33,10.39V90h3.24V105.76z"/>
		</g>
	</g>
	<g>
		<defs>
			<path id="SVGID_1_" d="M900.25,150.54l-257.44,0.92H490.08c0,0,15.43-33.74,45.69-72.98c41.81-54.22,79.76-77.95,79.76-77.95
				h284.71V150.54z"/>
		</defs>
		<use xlink:href="#SVGID_1_"  style="overflow:visible;fill:#92B57E;"/>
		<clipPath id="SVGID_00000107558196460697466480000015852041307099484324_">
			<use xlink:href="#SVGID_1_"  style="overflow:visible;"/>
		</clipPath>
		<g style="clip-path:url(#SVGID_00000107558196460697466480000015852041307099484324_);">
			<path d="M605.91,48.21c0,1.93-0.44,3.48-1.32,4.66s-2.08,1.77-3.59,1.77c-1.54,0-2.75-0.49-3.63-1.46v6.11h-2.17V41.73h1.98
				l0.11,1.41c0.88-1.09,2.11-1.64,3.68-1.64c1.52,0,2.73,0.57,3.62,1.72s1.33,2.75,1.33,4.79V48.21z M603.75,47.97
				c0-1.43-0.3-2.56-0.91-3.39s-1.45-1.24-2.51-1.24c-1.31,0-2.3,0.58-2.95,1.75v6.06c0.65,1.16,1.64,1.73,2.98,1.73
				c1.04,0,1.87-0.41,2.48-1.24S603.75,49.59,603.75,47.97z"/>
			<path d="M617.46,54.41c-0.12-0.25-0.23-0.7-0.3-1.34c-1.01,1.05-2.21,1.57-3.61,1.57c-1.25,0-2.28-0.35-3.08-1.06
				s-1.2-1.6-1.2-2.69c0-1.32,0.5-2.35,1.51-3.08s2.42-1.1,4.24-1.1h2.11v-1c0-0.76-0.23-1.36-0.68-1.81s-1.12-0.67-2-0.67
				c-0.77,0-1.42,0.2-1.95,0.59s-0.79,0.86-0.79,1.42h-2.18c0-0.63,0.22-1.24,0.67-1.83s1.06-1.06,1.83-1.4s1.62-0.52,2.54-0.52
				c1.46,0,2.61,0.37,3.43,1.1s1.26,1.74,1.29,3.02v5.84c0,1.16,0.15,2.09,0.45,2.78v0.19H617.46z M613.86,52.76
				c0.68,0,1.32-0.18,1.93-0.53s1.05-0.81,1.32-1.37v-2.6h-1.7c-2.66,0-3.98,0.78-3.98,2.33c0,0.68,0.23,1.21,0.68,1.59
				S613.15,52.76,613.86,52.76z"/>
			<path d="M629.77,43.68c-0.33-0.05-0.68-0.08-1.07-0.08c-1.42,0-2.39,0.61-2.89,1.82v9h-2.17V41.73h2.11l0.04,1.46
				c0.71-1.13,1.72-1.7,3.02-1.7c0.42,0,0.74,0.05,0.96,0.16V43.68z"/>
			<path d="M640.08,54.41c-0.12-0.25-0.23-0.7-0.3-1.34c-1.01,1.05-2.21,1.57-3.61,1.57c-1.25,0-2.28-0.35-3.08-1.06
				s-1.2-1.6-1.2-2.69c0-1.32,0.5-2.35,1.51-3.08s2.42-1.1,4.24-1.1h2.11v-1c0-0.76-0.23-1.36-0.68-1.81s-1.12-0.67-2-0.67
				c-0.77,0-1.42,0.2-1.95,0.59s-0.79,0.86-0.79,1.42h-2.18c0-0.63,0.22-1.24,0.67-1.83s1.06-1.06,1.83-1.4s1.62-0.52,2.54-0.52
				c1.46,0,2.61,0.37,3.43,1.1s1.26,1.74,1.29,3.02v5.84c0,1.16,0.15,2.09,0.45,2.78v0.19H640.08z M636.48,52.76
				c0.68,0,1.32-0.18,1.93-0.53s1.05-0.81,1.32-1.37v-2.6h-1.7c-2.66,0-3.98,0.78-3.98,2.33c0,0.68,0.23,1.21,0.68,1.59
				S635.77,52.76,636.48,52.76z"/>
			<path d="M605.91,73.81c0,1.93-0.44,3.48-1.32,4.66s-2.08,1.77-3.59,1.77c-1.54,0-2.75-0.49-3.63-1.46v6.11h-2.17V67.33h1.98
				l0.11,1.41c0.88-1.09,2.11-1.64,3.68-1.64c1.52,0,2.73,0.57,3.62,1.72s1.33,2.75,1.33,4.79V73.81z M603.75,73.57
				c0-1.43-0.3-2.56-0.91-3.39s-1.45-1.24-2.51-1.24c-1.31,0-2.3,0.58-2.95,1.75v6.06c0.65,1.16,1.64,1.73,2.98,1.73
				c1.04,0,1.87-0.41,2.48-1.24S603.75,75.19,603.75,73.57z"/>
			<path d="M615.76,69.28c-0.33-0.05-0.68-0.08-1.07-0.08c-1.42,0-2.39,0.61-2.89,1.82v9h-2.17V67.33h2.11l0.04,1.46
				c0.71-1.13,1.72-1.7,3.02-1.7c0.42,0,0.74,0.05,0.96,0.16V69.28z"/>
			<path d="M617.9,73.55c0-1.24,0.24-2.36,0.73-3.35s1.17-1.76,2.04-2.3s1.87-0.81,2.98-0.81c1.73,0,3.12,0.6,4.19,1.79
				s1.6,2.79,1.6,4.77v0.15c0,1.23-0.24,2.34-0.71,3.32s-1.15,1.74-2.03,2.29s-1.89,0.82-3.03,0.82c-1.72,0-3.11-0.6-4.18-1.79
				s-1.6-2.78-1.6-4.75V73.55z M620.08,73.81c0,1.41,0.33,2.54,0.98,3.39s1.53,1.28,2.62,1.28c1.1,0,1.98-0.43,2.62-1.29
				s0.97-2.07,0.97-3.63c0-1.39-0.33-2.52-0.99-3.38s-1.54-1.29-2.63-1.29c-1.07,0-1.93,0.43-2.59,1.28S620.08,72.23,620.08,73.81z"
				/>
			<path d="M637.09,76.83l2.95-9.5h2.32l-5.1,14.64c-0.79,2.11-2.04,3.16-3.76,3.16l-0.41-0.04l-0.81-0.15v-1.76l0.59,0.05
				c0.73,0,1.31-0.15,1.72-0.45s0.75-0.84,1.01-1.63l0.48-1.29l-4.52-12.54h2.37L637.09,76.83z"/>
			<path d="M650.37,80.24c-1.72,0-3.12-0.56-4.2-1.69s-1.62-2.64-1.62-4.53v-0.4c0-1.26,0.24-2.38,0.72-3.37s1.15-1.76,2.02-2.32
				s1.8-0.84,2.81-0.84c1.65,0,2.93,0.54,3.84,1.63s1.37,2.64,1.37,4.66v0.9h-8.59c0.03,1.25,0.4,2.26,1.1,3.03s1.59,1.15,2.67,1.15
				c0.77,0,1.41-0.16,1.95-0.47s1-0.73,1.39-1.24l1.32,1.03C654.09,79.43,652.5,80.24,650.37,80.24z M650.1,68.88
				c-0.88,0-1.61,0.32-2.2,0.96s-0.96,1.53-1.1,2.68h6.35v-0.16c-0.06-1.1-0.36-1.96-0.89-2.56S651.01,68.88,650.1,68.88z"/>
			<path d="M663.87,78.48c0.77,0,1.45-0.23,2.03-0.7s0.9-1.05,0.96-1.76h2.05c-0.04,0.73-0.29,1.42-0.75,2.07s-1.08,1.18-1.85,1.57
				s-1.58,0.59-2.44,0.59c-1.73,0-3.1-0.58-4.12-1.73s-1.53-2.73-1.53-4.73v-0.36c0-1.23,0.23-2.33,0.68-3.29s1.1-1.71,1.95-2.24
				s1.85-0.8,3.01-0.8c1.42,0,2.6,0.43,3.54,1.28s1.44,1.96,1.51,3.32h-2.05c-0.06-0.82-0.37-1.49-0.93-2.02s-1.25-0.79-2.07-0.79
				c-1.1,0-1.96,0.4-2.56,1.19s-0.91,1.94-0.91,3.44v0.41c0,1.46,0.3,2.59,0.9,3.38S662.75,78.48,663.87,78.48z"/>
			<path d="M675.25,64.26v3.07h2.37v1.68h-2.37v7.87c0,0.51,0.11,0.89,0.32,1.14c0.21,0.25,0.57,0.38,1.08,0.38
				c0.25,0,0.59-0.05,1.03-0.14v1.75c-0.57,0.15-1.12,0.23-1.66,0.23c-0.97,0-1.7-0.29-2.19-0.88s-0.74-1.42-0.74-2.5v-7.86h-2.31
				v-1.68h2.31v-3.07H675.25z"/>
			<path d="M680.3,73.55c0-1.24,0.24-2.36,0.73-3.35s1.17-1.76,2.04-2.3s1.87-0.81,2.98-0.81c1.73,0,3.12,0.6,4.19,1.79
				s1.6,2.79,1.6,4.77v0.15c0,1.23-0.24,2.34-0.71,3.32s-1.15,1.74-2.03,2.29s-1.89,0.82-3.03,0.82c-1.72,0-3.11-0.6-4.18-1.79
				s-1.6-2.78-1.6-4.75V73.55z M682.48,73.81c0,1.41,0.33,2.54,0.98,3.39s1.53,1.28,2.62,1.28c1.1,0,1.98-0.43,2.62-1.29
				s0.97-2.07,0.97-3.63c0-1.39-0.33-2.52-0.99-3.38s-1.54-1.29-2.63-1.29c-1.07,0-1.93,0.43-2.59,1.28S682.48,72.23,682.48,73.81z"
				/>
			<path d="M702.9,76.65c0-0.59-0.22-1.04-0.66-1.37s-1.21-0.6-2.31-0.84s-1.97-0.52-2.61-0.84s-1.12-0.72-1.43-1.17
				s-0.46-0.99-0.46-1.62c0-1.04,0.44-1.92,1.32-2.64s2-1.08,3.37-1.08c1.44,0,2.6,0.37,3.5,1.11s1.34,1.69,1.34,2.85h-2.18
				c0-0.59-0.25-1.11-0.76-1.54s-1.14-0.64-1.9-0.64c-0.79,0-1.41,0.17-1.85,0.52s-0.67,0.79-0.67,1.35c0,0.52,0.21,0.92,0.62,1.18
				s1.16,0.52,2.24,0.76s1.96,0.53,2.63,0.87s1.17,0.74,1.49,1.21s0.49,1.05,0.49,1.73c0,1.13-0.45,2.04-1.36,2.72
				s-2.08,1.03-3.53,1.03c-1.02,0-1.91-0.18-2.7-0.54s-1.39-0.86-1.83-1.51s-0.66-1.34-0.66-2.09h2.17c0.04,0.73,0.33,1.3,0.87,1.73
				s1.26,0.64,2.15,0.64c0.82,0,1.48-0.17,1.97-0.5S702.9,77.2,702.9,76.65z"/>
			<path d="M603.03,105.61c-0.12-0.25-0.23-0.7-0.3-1.34c-1.01,1.05-2.21,1.57-3.61,1.57c-1.25,0-2.28-0.35-3.08-1.06
				s-1.2-1.6-1.2-2.69c0-1.32,0.5-2.35,1.51-3.08s2.42-1.1,4.24-1.1h2.11v-1c0-0.76-0.23-1.36-0.68-1.81s-1.12-0.67-2-0.67
				c-0.77,0-1.42,0.2-1.95,0.59s-0.79,0.86-0.79,1.42h-2.18c0-0.63,0.22-1.24,0.67-1.83s1.06-1.06,1.83-1.4s1.62-0.52,2.54-0.52
				c1.46,0,2.61,0.37,3.43,1.1s1.26,1.74,1.29,3.02v5.84c0,1.16,0.15,2.09,0.45,2.78v0.19H603.03z M599.43,103.96
				c0.68,0,1.32-0.18,1.93-0.53s1.05-0.81,1.32-1.37v-2.6h-1.7c-2.66,0-3.98,0.78-3.98,2.33c0,0.68,0.23,1.21,0.68,1.59
				S598.72,103.96,599.43,103.96z"/>
			<path d="M615.59,99.17c0-1.95,0.46-3.51,1.38-4.69s2.13-1.78,3.62-1.78c1.48,0,2.66,0.51,3.53,1.52v-6.61h2.17v18h-1.99
				l-0.11-1.36c-0.87,1.06-2.07,1.59-3.62,1.59c-1.47,0-2.67-0.6-3.59-1.8s-1.39-2.77-1.39-4.71V99.17z M617.76,99.41
				c0,1.44,0.3,2.56,0.89,3.38s1.41,1.22,2.46,1.22c1.38,0,2.38-0.62,3.01-1.85v-5.82c-0.65-1.2-1.64-1.79-2.99-1.79
				c-1.06,0-1.89,0.41-2.48,1.23S617.76,97.8,617.76,99.41z"/>
			<path d="M630.63,89.57c0-0.35,0.11-0.65,0.32-0.89s0.53-0.36,0.96-0.36s0.74,0.12,0.96,0.36s0.33,0.54,0.33,0.89
				s-0.11,0.64-0.33,0.88s-0.54,0.35-0.96,0.35s-0.74-0.12-0.96-0.35S630.63,89.92,630.63,89.57z M632.97,105.61h-2.17V92.93h2.17
				V105.61z"/>
			<path d="M644.78,102.25c0-0.59-0.22-1.04-0.66-1.37s-1.21-0.6-2.31-0.84s-1.97-0.52-2.61-0.84s-1.12-0.72-1.43-1.17
				s-0.46-0.99-0.46-1.62c0-1.04,0.44-1.92,1.32-2.64s2-1.08,3.37-1.08c1.44,0,2.6,0.37,3.5,1.11s1.34,1.69,1.34,2.85h-2.18
				c0-0.59-0.25-1.11-0.76-1.54s-1.14-0.64-1.9-0.64c-0.79,0-1.41,0.17-1.85,0.52s-0.67,0.79-0.67,1.35c0,0.52,0.21,0.92,0.62,1.18
				s1.16,0.52,2.24,0.76s1.96,0.53,2.63,0.87s1.17,0.74,1.49,1.21s0.49,1.05,0.49,1.73c0,1.13-0.45,2.04-1.36,2.72
				s-2.08,1.03-3.53,1.03c-1.02,0-1.91-0.18-2.7-0.54s-1.39-0.86-1.83-1.51s-0.66-1.34-0.66-2.09h2.17c0.04,0.73,0.33,1.3,0.87,1.73
				s1.26,0.64,2.15,0.64c0.82,0,1.48-0.17,1.97-0.5S644.78,102.8,644.78,102.25z"/>
			<path d="M653.67,89.86v3.07h2.37v1.68h-2.37v7.87c0,0.51,0.11,0.89,0.32,1.14c0.21,0.25,0.57,0.38,1.08,0.38
				c0.25,0,0.59-0.05,1.03-0.14v1.75c-0.57,0.15-1.12,0.23-1.66,0.23c-0.97,0-1.7-0.29-2.19-0.88s-0.74-1.42-0.74-2.5v-7.86h-2.31
				v-1.68h2.31v-3.07H653.67z"/>
			<path d="M667.36,105.61c-0.12-0.25-0.23-0.7-0.3-1.34c-1.01,1.05-2.21,1.57-3.61,1.57c-1.25,0-2.28-0.35-3.08-1.06
				s-1.2-1.6-1.2-2.69c0-1.32,0.5-2.35,1.51-3.08s2.42-1.1,4.24-1.1h2.11v-1c0-0.76-0.23-1.36-0.68-1.81s-1.12-0.67-2-0.67
				c-0.77,0-1.42,0.2-1.95,0.59s-0.79,0.86-0.79,1.42h-2.18c0-0.63,0.22-1.24,0.67-1.83s1.06-1.06,1.83-1.4s1.62-0.52,2.54-0.52
				c1.46,0,2.61,0.37,3.43,1.1s1.26,1.74,1.29,3.02v5.84c0,1.16,0.15,2.09,0.45,2.78v0.19H667.36z M663.76,103.96
				c0.68,0,1.32-0.18,1.93-0.53s1.05-0.81,1.32-1.37v-2.6h-1.7c-2.66,0-3.98,0.78-3.98,2.33c0,0.68,0.23,1.21,0.68,1.59
				S663.05,103.96,663.76,103.96z"/>
			<path d="M675.6,92.93l0.07,1.59c0.97-1.22,2.23-1.83,3.8-1.83c2.68,0,4.03,1.51,4.05,4.54v8.38h-2.17v-8.39
				c-0.01-0.91-0.22-1.59-0.63-2.03s-1.05-0.66-1.92-0.66c-0.7,0-1.32,0.19-1.85,0.56s-0.95,0.87-1.24,1.48v9.04h-2.17V92.93H675.6z
				"/>
			<path d="M692.84,104.08c0.77,0,1.45-0.23,2.03-0.7s0.9-1.05,0.96-1.76h2.05c-0.04,0.73-0.29,1.42-0.75,2.07s-1.08,1.18-1.85,1.57
				s-1.58,0.59-2.44,0.59c-1.73,0-3.1-0.58-4.12-1.73s-1.53-2.73-1.53-4.73v-0.36c0-1.23,0.23-2.33,0.68-3.29s1.1-1.71,1.95-2.24
				s1.85-0.8,3.01-0.8c1.42,0,2.6,0.43,3.54,1.28s1.44,1.96,1.51,3.32h-2.05c-0.06-0.82-0.37-1.49-0.93-2.02s-1.25-0.79-2.07-0.79
				c-1.1,0-1.96,0.4-2.56,1.19s-0.91,1.94-0.91,3.44v0.41c0,1.46,0.3,2.59,0.9,3.38S691.72,104.08,692.84,104.08z"/>
			<path d="M701.28,89.57c0-0.35,0.11-0.65,0.32-0.89s0.53-0.36,0.96-0.36s0.74,0.12,0.96,0.36s0.33,0.54,0.33,0.89
				s-0.11,0.64-0.33,0.88s-0.54,0.35-0.96,0.35s-0.74-0.12-0.96-0.35S701.28,89.92,701.28,89.57z M703.63,105.61h-2.17V92.93h2.17
				V105.61z"/>
			<path d="M715.88,105.61c-0.12-0.25-0.23-0.7-0.3-1.34c-1.01,1.05-2.21,1.57-3.61,1.57c-1.25,0-2.28-0.35-3.08-1.06
				s-1.2-1.6-1.2-2.69c0-1.32,0.5-2.35,1.51-3.08s2.42-1.1,4.24-1.1h2.11v-1c0-0.76-0.23-1.36-0.68-1.81s-1.12-0.67-2-0.67
				c-0.77,0-1.42,0.2-1.95,0.59s-0.79,0.86-0.79,1.42h-2.18c0-0.63,0.22-1.24,0.67-1.83s1.06-1.06,1.83-1.4s1.62-0.52,2.54-0.52
				c1.46,0,2.61,0.37,3.43,1.1s1.26,1.74,1.29,3.02v5.84c0,1.16,0.15,2.09,0.45,2.78v0.19H715.88z M712.29,103.96
				c0.68,0,1.32-0.18,1.93-0.53s1.05-0.81,1.32-1.37v-2.6h-1.7c-2.66,0-3.98,0.78-3.98,2.33c0,0.68,0.23,1.21,0.68,1.59
				S711.58,103.96,712.29,103.96z"/>
		</g>
		<g style="clip-path:url(#SVGID_00000107558196460697466480000015852041307099484324_);">
			<path class="st2" d="M828.04-99.3c0,1.89-0.43,3.41-1.3,4.57c-0.87,1.16-2.04,1.73-3.51,1.73c-1.51,0-2.69-0.48-3.56-1.43v5.98
				h-2.12v-17.2h1.94l0.1,1.38c0.87-1.07,2.07-1.61,3.61-1.61c1.49,0,2.67,0.56,3.54,1.69c0.87,1.12,1.3,2.69,1.3,4.7V-99.3z
				 M825.92-99.55c0-1.4-0.3-2.51-0.9-3.32c-0.6-0.81-1.42-1.22-2.46-1.22c-1.29,0-2.25,0.57-2.89,1.71v5.94
				c0.63,1.13,1.61,1.7,2.92,1.7c1.02,0,1.83-0.4,2.43-1.21S825.92-97.95,825.92-99.55z"/>
			<path class="st2" d="M839.35-93.23c-0.12-0.25-0.22-0.68-0.3-1.31c-0.99,1.03-2.17,1.54-3.54,1.54c-1.22,0-2.23-0.35-3.01-1.04
				c-0.78-0.69-1.18-1.57-1.18-2.63c0-1.29,0.49-2.3,1.48-3.01s2.37-1.07,4.15-1.07h2.07v-0.98c0-0.74-0.22-1.33-0.67-1.77
				c-0.44-0.44-1.1-0.66-1.96-0.66c-0.76,0-1.39,0.19-1.91,0.57s-0.77,0.85-0.77,1.39h-2.14c0-0.62,0.22-1.22,0.66-1.8
				s1.04-1.04,1.79-1.37s1.58-0.5,2.49-0.5c1.43,0,2.55,0.36,3.36,1.07c0.81,0.72,1.23,1.7,1.26,2.96v5.72
				c0,1.14,0.15,2.05,0.44,2.72v0.18H839.35z M835.82-94.85c0.67,0,1.3-0.17,1.89-0.52c0.6-0.34,1.03-0.79,1.3-1.34v-2.55h-1.67
				c-2.6,0-3.9,0.76-3.9,2.28c0,0.67,0.22,1.19,0.67,1.56C834.56-95.04,835.13-94.85,835.82-94.85z"/>
			<path class="st2" d="M851.41-103.75c-0.32-0.05-0.67-0.08-1.04-0.08c-1.39,0-2.34,0.59-2.84,1.78v8.82h-2.12v-12.42h2.07
				l0.03,1.43c0.7-1.11,1.68-1.66,2.96-1.66c0.41,0,0.73,0.05,0.94,0.16V-103.75z"/>
			<path class="st2" d="M861.52-93.23c-0.12-0.25-0.22-0.68-0.3-1.31c-0.99,1.03-2.17,1.54-3.54,1.54c-1.22,0-2.23-0.35-3.01-1.04
				c-0.78-0.69-1.18-1.57-1.18-2.63c0-1.29,0.49-2.3,1.48-3.01s2.37-1.07,4.15-1.07h2.07v-0.98c0-0.74-0.22-1.33-0.67-1.77
				c-0.44-0.44-1.1-0.66-1.96-0.66c-0.76,0-1.39,0.19-1.91,0.57s-0.77,0.85-0.77,1.39h-2.14c0-0.62,0.22-1.22,0.66-1.8
				s1.04-1.04,1.79-1.37s1.58-0.5,2.49-0.5c1.43,0,2.55,0.36,3.36,1.07c0.81,0.72,1.23,1.7,1.26,2.96v5.72
				c0,1.14,0.15,2.05,0.44,2.72v0.18H861.52z M857.99-94.85c0.67,0,1.3-0.17,1.89-0.52c0.6-0.34,1.03-0.79,1.3-1.34v-2.55h-1.67
				c-2.6,0-3.9,0.76-3.9,2.28c0,0.67,0.22,1.19,0.67,1.56C856.73-95.04,857.3-94.85,857.99-94.85z"/>
			<path class="st2" d="M884.83-99.3c0,1.89-0.43,3.41-1.3,4.57c-0.87,1.16-2.04,1.73-3.51,1.73c-1.51,0-2.69-0.48-3.56-1.43v5.98
				h-2.12v-17.2h1.94l0.1,1.38c0.87-1.07,2.07-1.61,3.61-1.61c1.49,0,2.67,0.56,3.54,1.69c0.87,1.12,1.3,2.69,1.3,4.7V-99.3z
				 M882.71-99.55c0-1.4-0.3-2.51-0.9-3.32c-0.6-0.81-1.42-1.22-2.46-1.22c-1.29,0-2.25,0.57-2.89,1.71v5.94
				c0.63,1.13,1.61,1.7,2.92,1.7c1.02,0,1.83-0.4,2.43-1.21S882.71-97.95,882.71-99.55z"/>
			<path class="st2" d="M894.47-103.75c-0.32-0.05-0.67-0.08-1.04-0.08c-1.39,0-2.34,0.59-2.84,1.78v8.82h-2.12v-12.42h2.07
				l0.03,1.43c0.7-1.11,1.68-1.66,2.96-1.66c0.41,0,0.73,0.05,0.94,0.16V-103.75z"/>
			<path class="st2" d="M896.57-99.56c0-1.22,0.24-2.31,0.72-3.28c0.48-0.97,1.14-1.72,2-2.25s1.83-0.79,2.92-0.79
				c1.69,0,3.06,0.58,4.1,1.76s1.57,2.73,1.57,4.67v0.15c0,1.21-0.23,2.29-0.7,3.25c-0.46,0.96-1.12,1.71-1.99,2.24
				c-0.86,0.54-1.85,0.8-2.97,0.8c-1.68,0-3.05-0.58-4.09-1.76c-1.04-1.17-1.57-2.72-1.57-4.65V-99.56z M898.71-99.3
				c0,1.38,0.32,2.48,0.96,3.32c0.64,0.83,1.49,1.25,2.57,1.25c1.08,0,1.94-0.42,2.57-1.27s0.95-2.03,0.95-3.55
				c0-1.36-0.32-2.47-0.97-3.31c-0.65-0.85-1.51-1.27-2.58-1.27c-1.05,0-1.89,0.42-2.54,1.25S898.71-100.86,898.71-99.3z"/>
			<path class="st2" d="M915.38-96.34l2.89-9.31h2.27l-4.99,14.34c-0.77,2.07-2,3.1-3.69,3.1l-0.4-0.03l-0.79-0.15v-1.72l0.57,0.05
				c0.72,0,1.28-0.15,1.68-0.44c0.4-0.29,0.73-0.82,0.99-1.6l0.47-1.26l-4.43-12.28h2.32L915.38-96.34z"/>
			<path class="st2" d="M928.38-93c-1.68,0-3.05-0.55-4.11-1.66c-1.06-1.11-1.58-2.58-1.58-4.44v-0.39c0-1.23,0.24-2.33,0.71-3.3
				s1.13-1.73,1.97-2.27c0.85-0.55,1.76-0.82,2.75-0.82c1.62,0,2.87,0.53,3.77,1.6c0.9,1.06,1.34,2.59,1.34,4.57v0.88h-8.42
				c0.03,1.22,0.39,2.21,1.07,2.97c0.69,0.75,1.56,1.13,2.61,1.13c0.75,0,1.38-0.15,1.91-0.46c0.52-0.31,0.98-0.71,1.37-1.22
				l1.3,1.01C932.03-93.8,930.47-93,928.38-93z M928.12-104.14c-0.86,0-1.58,0.31-2.16,0.94c-0.58,0.62-0.94,1.5-1.08,2.62h6.22
				v-0.16c-0.06-1.08-0.35-1.92-0.87-2.51C929.71-103.84,929.01-104.14,928.12-104.14z"/>
			<path class="st2" d="M941.61-94.73c0.76,0,1.42-0.23,1.99-0.69c0.57-0.46,0.88-1.03,0.94-1.72h2.01
				c-0.04,0.71-0.28,1.39-0.73,2.03c-0.45,0.64-1.05,1.16-1.81,1.54S942.45-93,941.61-93c-1.69,0-3.04-0.56-4.04-1.69
				s-1.5-2.67-1.5-4.63v-0.36c0-1.21,0.22-2.29,0.67-3.23c0.44-0.94,1.08-1.67,1.91-2.19c0.83-0.52,1.81-0.78,2.94-0.78
				c1.39,0,2.55,0.42,3.47,1.25c0.92,0.83,1.41,1.92,1.47,3.25h-2.01c-0.06-0.8-0.37-1.46-0.91-1.98c-0.55-0.52-1.22-0.77-2.03-0.77
				c-1.08,0-1.92,0.39-2.51,1.17c-0.59,0.78-0.89,1.9-0.89,3.37v0.4c0,1.43,0.29,2.53,0.88,3.31
				C939.67-95.12,940.52-94.73,941.61-94.73z"/>
			<path class="st2" d="M952.76-108.66v3.01h2.32v1.64h-2.32v7.71c0,0.5,0.1,0.87,0.31,1.12s0.56,0.37,1.06,0.37
				c0.24,0,0.58-0.05,1.01-0.14v1.71c-0.56,0.15-1.1,0.23-1.63,0.23c-0.95,0-1.67-0.29-2.15-0.86c-0.48-0.57-0.72-1.39-0.72-2.45
				v-7.7h-2.26v-1.64h2.26v-3.01H952.76z"/>
			<path class="st2" d="M957.7-99.56c0-1.22,0.24-2.31,0.72-3.28c0.48-0.97,1.14-1.72,2-2.25s1.83-0.79,2.92-0.79
				c1.69,0,3.06,0.58,4.1,1.76s1.57,2.73,1.57,4.67v0.15c0,1.21-0.23,2.29-0.7,3.25c-0.46,0.96-1.12,1.71-1.99,2.24
				c-0.86,0.54-1.85,0.8-2.97,0.8c-1.68,0-3.05-0.58-4.09-1.76c-1.04-1.17-1.57-2.72-1.57-4.65V-99.56z M959.84-99.3
				c0,1.38,0.32,2.48,0.96,3.32c0.64,0.83,1.49,1.25,2.57,1.25c1.08,0,1.94-0.42,2.57-1.27s0.95-2.03,0.95-3.55
				c0-1.36-0.32-2.47-0.97-3.31c-0.65-0.85-1.51-1.27-2.58-1.27c-1.05,0-1.89,0.42-2.54,1.25S959.84-100.86,959.84-99.3z"/>
			<path class="st2" d="M979.85-96.53c0-0.57-0.22-1.02-0.65-1.34c-0.43-0.32-1.19-0.59-2.26-0.82s-1.93-0.5-2.56-0.83
				c-0.63-0.32-1.1-0.7-1.4-1.15c-0.3-0.44-0.45-0.97-0.45-1.58c0-1.02,0.43-1.88,1.29-2.58c0.86-0.7,1.96-1.06,3.3-1.06
				c1.41,0,2.55,0.36,3.43,1.09c0.88,0.73,1.31,1.66,1.31,2.79h-2.14c0-0.58-0.25-1.08-0.74-1.5c-0.49-0.42-1.12-0.63-1.87-0.63
				c-0.77,0-1.38,0.17-1.81,0.5s-0.65,0.78-0.65,1.32c0,0.51,0.2,0.9,0.61,1.16c0.41,0.26,1.14,0.51,2.2,0.75
				c1.06,0.24,1.92,0.52,2.58,0.85s1.15,0.73,1.46,1.19s0.48,1.03,0.48,1.69c0,1.11-0.44,2-1.33,2.67c-0.89,0.67-2.04,1-3.46,1
				c-1,0-1.88-0.18-2.64-0.53c-0.77-0.35-1.36-0.84-1.8-1.47c-0.43-0.63-0.65-1.31-0.65-2.05h2.12c0.04,0.71,0.32,1.28,0.86,1.69
				c0.53,0.42,1.23,0.63,2.11,0.63c0.8,0,1.45-0.16,1.93-0.49C979.61-95.55,979.85-95.98,979.85-96.53z"/>
			<path class="st2" d="M1000.11-93.23c-0.12-0.25-0.22-0.68-0.3-1.31c-0.99,1.03-2.17,1.54-3.54,1.54c-1.22,0-2.23-0.35-3.01-1.04
				c-0.78-0.69-1.18-1.57-1.18-2.63c0-1.29,0.49-2.3,1.48-3.01s2.37-1.07,4.15-1.07h2.07v-0.98c0-0.74-0.22-1.33-0.67-1.77
				c-0.44-0.44-1.1-0.66-1.96-0.66c-0.76,0-1.39,0.19-1.91,0.57s-0.77,0.85-0.77,1.39h-2.14c0-0.62,0.22-1.22,0.66-1.8
				s1.04-1.04,1.79-1.37s1.58-0.5,2.49-0.5c1.43,0,2.55,0.36,3.36,1.07c0.81,0.72,1.23,1.7,1.26,2.96v5.72
				c0,1.14,0.15,2.05,0.44,2.72v0.18H1000.11z M996.59-94.85c0.67,0,1.3-0.17,1.89-0.52c0.6-0.34,1.03-0.79,1.3-1.34v-2.55h-1.67
				c-2.6,0-3.9,0.76-3.9,2.28c0,0.67,0.22,1.19,0.67,1.56C995.32-95.04,995.89-94.85,996.59-94.85z"/>
			<path class="st2" d="M1012.42-99.55c0-1.91,0.45-3.44,1.35-4.6c0.9-1.16,2.09-1.74,3.55-1.74c1.45,0,2.61,0.5,3.46,1.49v-6.48
				h2.12v17.63h-1.95l-0.1-1.33c-0.85,1.04-2.03,1.56-3.55,1.56c-1.44,0-2.61-0.59-3.52-1.77s-1.36-2.72-1.36-4.62V-99.55z
				 M1014.54-99.3c0,1.41,0.29,2.51,0.87,3.31c0.58,0.8,1.39,1.19,2.41,1.19c1.35,0,2.33-0.6,2.95-1.81v-5.71
				c-0.63-1.17-1.61-1.76-2.93-1.76c-1.04,0-1.85,0.4-2.43,1.21C1014.83-102.07,1014.54-100.88,1014.54-99.3z"/>
			<path class="st2" d="M1027.14-108.95c0-0.34,0.1-0.64,0.32-0.87c0.21-0.24,0.52-0.36,0.94-0.36s0.73,0.12,0.94,0.36
				s0.32,0.53,0.32,0.87c0,0.34-0.11,0.63-0.32,0.86c-0.21,0.23-0.53,0.34-0.94,0.34s-0.73-0.11-0.94-0.34
				C1027.25-108.32,1027.14-108.6,1027.14-108.95z M1029.44-93.23h-2.12v-12.42h2.12V-93.23z"/>
			<path class="st2" d="M1041.01-96.53c0-0.57-0.22-1.02-0.65-1.34c-0.43-0.32-1.19-0.59-2.26-0.82s-1.93-0.5-2.56-0.83
				c-0.63-0.32-1.1-0.7-1.4-1.15c-0.3-0.44-0.45-0.97-0.45-1.58c0-1.02,0.43-1.88,1.29-2.58c0.86-0.7,1.96-1.06,3.3-1.06
				c1.41,0,2.55,0.36,3.43,1.09c0.88,0.73,1.31,1.66,1.31,2.79h-2.14c0-0.58-0.25-1.08-0.74-1.5c-0.49-0.42-1.12-0.63-1.87-0.63
				c-0.77,0-1.38,0.17-1.81,0.5s-0.65,0.78-0.65,1.32c0,0.51,0.2,0.9,0.61,1.16c0.41,0.26,1.14,0.51,2.2,0.75
				c1.06,0.24,1.92,0.52,2.58,0.85s1.15,0.73,1.46,1.19s0.48,1.03,0.48,1.69c0,1.11-0.44,2-1.33,2.67c-0.89,0.67-2.04,1-3.46,1
				c-1,0-1.88-0.18-2.64-0.53c-0.77-0.35-1.36-0.84-1.8-1.47c-0.43-0.63-0.65-1.31-0.65-2.05h2.12c0.04,0.71,0.32,1.28,0.86,1.69
				c0.53,0.42,1.23,0.63,2.11,0.63c0.8,0,1.45-0.16,1.93-0.49C1040.77-95.55,1041.01-95.98,1041.01-96.53z"/>
			<path class="st2" d="M1049.73-108.66v3.01h2.32v1.64h-2.32v7.71c0,0.5,0.1,0.87,0.31,1.12s0.56,0.37,1.06,0.37
				c0.24,0,0.58-0.05,1.01-0.14v1.71c-0.56,0.15-1.1,0.23-1.63,0.23c-0.95,0-1.67-0.29-2.15-0.86c-0.48-0.57-0.72-1.39-0.72-2.45
				v-7.7h-2.26v-1.64h2.26v-3.01H1049.73z"/>
			<path class="st2" d="M1063.13-93.23c-0.12-0.25-0.22-0.68-0.3-1.31c-0.99,1.03-2.17,1.54-3.54,1.54c-1.22,0-2.23-0.35-3.01-1.04
				c-0.78-0.69-1.18-1.57-1.18-2.63c0-1.29,0.49-2.3,1.48-3.01s2.37-1.07,4.15-1.07h2.07v-0.98c0-0.74-0.22-1.33-0.67-1.77
				c-0.44-0.44-1.1-0.66-1.96-0.66c-0.76,0-1.39,0.19-1.91,0.57s-0.77,0.85-0.77,1.39h-2.14c0-0.62,0.22-1.22,0.66-1.8
				s1.04-1.04,1.79-1.37s1.58-0.5,2.49-0.5c1.43,0,2.55,0.36,3.36,1.07c0.81,0.72,1.23,1.7,1.26,2.96v5.72
				c0,1.14,0.15,2.05,0.44,2.72v0.18H1063.13z M1059.61-94.85c0.67,0,1.3-0.17,1.89-0.52c0.6-0.34,1.03-0.79,1.3-1.34v-2.55h-1.67
				c-2.6,0-3.9,0.76-3.9,2.28c0,0.67,0.22,1.19,0.67,1.56C1058.34-95.04,1058.91-94.85,1059.61-94.85z"/>
			<path class="st2" d="M1071.2-105.65l0.07,1.56c0.95-1.19,2.19-1.79,3.72-1.79c2.62,0,3.95,1.48,3.97,4.44v8.21h-2.12v-8.22
				c-0.01-0.9-0.21-1.56-0.61-1.99c-0.4-0.43-1.03-0.64-1.88-0.64c-0.69,0-1.29,0.18-1.81,0.55c-0.52,0.37-0.93,0.85-1.22,1.45v8.85
				h-2.12v-12.42H1071.2z"/>
			<path class="st2" d="M1088.09-94.73c0.76,0,1.42-0.23,1.99-0.69c0.57-0.46,0.88-1.03,0.94-1.72h2.01
				c-0.04,0.71-0.28,1.39-0.73,2.03c-0.45,0.64-1.05,1.16-1.81,1.54s-1.55,0.57-2.39,0.57c-1.69,0-3.04-0.56-4.04-1.69
				s-1.5-2.67-1.5-4.63v-0.36c0-1.21,0.22-2.29,0.67-3.23c0.44-0.94,1.08-1.67,1.91-2.19c0.83-0.52,1.81-0.78,2.94-0.78
				c1.39,0,2.55,0.42,3.47,1.25c0.92,0.83,1.41,1.92,1.47,3.25h-2.01c-0.06-0.8-0.37-1.46-0.91-1.98c-0.55-0.52-1.22-0.77-2.03-0.77
				c-1.08,0-1.92,0.39-2.51,1.17c-0.59,0.78-0.89,1.9-0.89,3.37v0.4c0,1.43,0.29,2.53,0.88,3.31
				C1086.15-95.12,1087-94.73,1088.09-94.73z"/>
			<path class="st2" d="M1096.37-108.95c0-0.34,0.1-0.64,0.32-0.87c0.21-0.24,0.52-0.36,0.94-0.36s0.73,0.12,0.94,0.36
				s0.32,0.53,0.32,0.87c0,0.34-0.11,0.63-0.32,0.86c-0.21,0.23-0.53,0.34-0.94,0.34s-0.73-0.11-0.94-0.34
				C1096.47-108.32,1096.37-108.6,1096.37-108.95z M1098.66-93.23h-2.12v-12.42h2.12V-93.23z"/>
			<path class="st2" d="M1110.67-93.23c-0.12-0.25-0.22-0.68-0.3-1.31c-0.99,1.03-2.17,1.54-3.54,1.54c-1.22,0-2.23-0.35-3.01-1.04
				c-0.78-0.69-1.18-1.57-1.18-2.63c0-1.29,0.49-2.3,1.48-3.01s2.37-1.07,4.15-1.07h2.07v-0.98c0-0.74-0.22-1.33-0.67-1.77
				c-0.44-0.44-1.1-0.66-1.96-0.66c-0.76,0-1.39,0.19-1.91,0.57s-0.77,0.85-0.77,1.39h-2.14c0-0.62,0.22-1.22,0.66-1.8
				s1.04-1.04,1.79-1.37s1.58-0.5,2.49-0.5c1.43,0,2.55,0.36,3.36,1.07c0.81,0.72,1.23,1.7,1.26,2.96v5.72
				c0,1.14,0.15,2.05,0.44,2.72v0.18H1110.67z M1107.15-94.85c0.67,0,1.3-0.17,1.89-0.52c0.6-0.34,1.03-0.79,1.3-1.34v-2.55h-1.67
				c-2.6,0-3.9,0.76-3.9,2.28c0,0.67,0.22,1.19,0.67,1.56C1105.88-95.04,1106.45-94.85,1107.15-94.85z"/>
		</g>
	</g>
	<g>
		<defs>
			<rect id="SVGID_00000119810468429683514740000005217675997721381036_" x="354.16" y="0.54" width="329.81" height="150"/>
		</defs>
		<clipPath id="SVGID_00000012433482141031669510000001776606464904433815_">
			<use xlink:href="#SVGID_00000119810468429683514740000005217675997721381036_"  style="overflow:visible;"/>
		</clipPath>
		<defs>
			<filter id="Adobe_OpacityMaskFilter" filterUnits="userSpaceOnUse" x="412.67" y="-89.31" width="452.2" height="390.12">
				<feColorMatrix  type="matrix" values="1 0 0 0 0  0 1 0 0 0  0 0 1 0 0  0 0 0 1 0"/>
			</filter>
		</defs>
		
			<mask maskUnits="userSpaceOnUse" x="412.67" y="-89.31" width="452.2" height="390.12" id="SVGID_00000180338705424798391950000009285857583743516327_">
			<g id="XMLID_00000005948655942063523590000002748545452688924801_" class="st3">
				
					<linearGradient id="SVGID_00000080929179020586700520000001986127842843953080_" gradientUnits="userSpaceOnUse" x1="451.8799" y1="-56.9301" x2="451.8799" y2="174.4127" gradientTransform="matrix(1.0217 -0.5381 -0.0389 0.9992 181.9391 242.1321)">
					<stop  offset="0" style="stop-color:#FFFFFF"/>
					<stop  offset="0.2104" style="stop-color:#A09998"/>
					<stop  offset="0.4214" style="stop-color:#5B5251"/>
					<stop  offset="0.6138" style="stop-color:#2F2828"/>
					<stop  offset="0.7803" style="stop-color:#141111"/>
					<stop  offset="0.9147" style="stop-color:#040303"/>
					<stop  offset="1" style="stop-color:#000000"/>
				</linearGradient>
				
					<polygon style="clip-path:url(#SVGID_00000012433482141031669510000001776606464904433815_);fill:url(#SVGID_00000080929179020586700520000001986127842843953080_);" points="
					887.94,53.7 384.74,318.67 396.53,15.81 899.73,-249.16 				"/>
			</g>
		</mask>
		
			<g style="clip-path:url(#SVGID_00000012433482141031669510000001776606464904433815_);mask:url(#SVGID_00000180338705424798391950000009285857583743516327_);">
			<g>
				<g>
					<path class="st6" d="M646.66-37.09c109.25-57.53,196.62-8.08,196.81,111.05l-8.83,4.65c-0.79-115.42-81.5-163.85-187.66-107.95
						c-106.16,55.9-197,194.68-205.84,315.16l-6.1,3.21C444.52,164.81,537.41,20.44,646.66-37.09z"/>
				</g>
			</g>
			<g class="st7">
				<g>
					<g>
						<path class="st8" d="M646.62-25.8c103.07-54.28,186.6-7.26,187.03,104.94l-8.47,4.46c-0.56-108.74-79.2-154.47-179.19-101.82
							c-100,52.66-185.05,184.59-193.63,298.14l-6.08,3.2C455.46,165.86,543.54,28.47,646.62-25.8z"/>
					</g>
				</g>
				<g>
					<g>
						<path class="st9" d="M646.44-30.8C752.6-86.7,836.07-37.97,836.38,77.7l-5.13,2.7C830.34-31.55,749.28-78.79,646.21-24.51
							S455.46,165.86,446.76,282.87l-6.08,3.2C449.99,165.34,540.27,25.1,646.44-30.8z"/>
					</g>
				</g>
				<g>
					<g>
						<path class="st10" d="M647.14-50.21c115.69-60.92,206.59-7.55,206.53,118.81l-6.06,3.19c0.39-123.13-88.1-175-200.7-115.71
							c-112.6,59.29-206.78,207.35-215.88,335.07l-8.67,4.57C431.12,164.77,531.45,10.71,647.14-50.21z"/>
					</g>
				</g>
				<g>
					<g>
						<path class="st11" d="M647.59-62.8c121.86-64.17,217.58-7.81,217.28,125.49l-6.08,3.2c0.65-130.09-92.65-184.95-211.43-122.4
							C528.6,6.04,429.66,162.13,420.29,296.8l-7.62,4.01C422.16,162.67,525.74,1.37,647.59-62.8z"/>
					</g>
				</g>
			</g>
			<g>
				<g>
					<path class="st12" d="M646.91-43.92C759.51-103.22,848-51.35,848.06,71.55l-5.57,2.94c-0.7-118.87-86.57-169.11-195.82-111.58
						s-202.15,201.9-211.11,325.86l-5.63,2.97C438.57,164.25,534.31,15.37,646.91-43.92z"/>
				</g>
			</g>
			<g>
				<g>
					<path class="st13" d="M647.37-56.5c118.78-62.55,212.08-7.68,211.9,122.15l-6.08,3.2c0.54-126.62-90.36-179.98-206.05-119.06
						S433.1,163.72,423.87,294.92l-5.12,2.69C427.63,163.2,528.6,6.04,647.37-56.5z"/>
				</g>
			</g>
		</g>
	</g>
</g>
<g>
	<g class="st7">
		<g>
			<polygon class="st14" points="515.46,70.22 526.94,63.55 526.93,67.98 515.45,74.65 			"/>
		</g>
		<g>
			<polygon class="st14" points="511.6,68 523.08,61.32 526.94,63.55 515.46,70.22 			"/>
		</g>
		<g>
			<polygon class="st14" points="515.46,70.22 515.45,74.65 511.61,72.44 511.59,72.42 511.6,68 			"/>
		</g>
	</g>
	<g class="st7">
		<g>
			<polygon class="st14" points="515.47,65.8 526.96,59.12 526.94,63.55 515.46,70.22 			"/>
		</g>
		<g>
			<polygon class="st14" points="511.61,63.57 523.1,56.89 526.96,59.12 515.47,65.8 			"/>
		</g>
		<g>
			<polygon class="st14" points="515.47,65.8 515.46,70.22 511.6,68 511.61,63.57 			"/>
		</g>
	</g>
	<g class="st7">
		<g>
			<polygon class="st14" points="534.69,103.52 546.18,96.85 546.16,101.27 534.68,107.95 			"/>
		</g>
		<g>
			<polygon class="st14" points="530.84,101.3 542.32,94.62 546.18,96.85 534.69,103.52 			"/>
		</g>
		<g>
			<polygon class="st14" points="534.69,103.52 534.68,107.95 530.82,105.72 530.84,101.3 			"/>
		</g>
		<g>
			<polygon class="st14" points="530.85,96.86 542.33,90.19 542.32,94.62 530.84,101.3 			"/>
		</g>
		<g>
			<polygon class="st14" points="526.99,94.63 538.47,87.96 542.33,90.19 530.85,96.86 			"/>
		</g>
		<g>
			<polygon class="st14" points="530.85,96.86 530.84,101.3 526.98,99.07 526.99,94.63 			"/>
		</g>
		<g>
			<polygon class="st14" points="523.15,87.98 534.63,81.3 538.49,83.53 527,90.2 			"/>
		</g>
		<g>
			<polygon class="st14" points="527,90.2 538.49,83.53 538.47,87.96 526.99,94.63 			"/>
		</g>
		<g>
			<polygon class="st14" points="527,90.2 526.99,94.63 523.13,92.41 523.15,87.98 			"/>
		</g>
		<g>
			<polygon class="st14" points="523.16,83.55 523.15,87.98 519.29,85.75 519.31,81.32 			"/>
		</g>
		<g>
			<polygon class="st14" points="519.31,81.32 530.79,74.65 534.65,76.87 523.16,83.55 			"/>
		</g>
		<g>
			<polygon class="st14" points="523.16,83.55 534.65,76.87 534.63,81.3 523.15,87.98 			"/>
		</g>
		<g>
			<polygon class="st14" points="515.46,74.66 526.95,67.99 530.79,70.2 519.3,76.88 			"/>
		</g>
		<g>
			<polygon class="st14" points="519.3,76.88 530.79,70.2 530.8,70.21 519.32,76.89 			"/>
		</g>
		<g>
			<polygon class="st14" points="519.32,76.89 530.8,70.21 530.79,74.65 519.31,81.32 			"/>
		</g>
		<g>
			<polygon class="st14" points="519.32,76.89 519.31,81.32 515.45,79.1 515.46,74.66 519.3,76.88 			"/>
		</g>
		<g>
			<polygon class="st15" points="530.85,96.86 542.33,90.19 546.19,92.41 534.7,99.09 			"/>
		</g>
		<g>
			<polygon class="st15" points="534.7,99.09 534.69,103.52 530.84,101.3 530.85,96.86 			"/>
		</g>
		<g>
			<polygon class="st15" points="534.7,99.09 546.19,92.41 546.18,96.85 534.69,103.52 			"/>
		</g>
		<g>
			<polygon class="st15" points="527,90.2 538.49,83.53 542.35,85.76 530.86,92.43 			"/>
		</g>
		<g>
			<polygon class="st15" points="530.86,92.43 530.85,96.86 526.99,94.63 527,90.2 			"/>
		</g>
		<g>
			<polygon class="st15" points="530.86,92.43 542.35,85.76 542.33,90.19 530.85,96.86 			"/>
		</g>
		<g>
			<polygon class="st15" points="527.01,85.77 538.5,79.1 538.49,83.53 527,90.2 			"/>
		</g>
		<g>
			<polygon class="st15" points="527.01,85.77 527,90.2 523.15,87.98 523.16,83.55 			"/>
		</g>
		<g>
			<polygon class="st15" points="523.16,83.55 534.65,76.87 538.5,79.1 527.01,85.77 			"/>
		</g>
		<g>
			<polygon class="st16" points="519.32,76.89 530.8,70.21 534.64,72.43 523.15,79.1 			"/>
		</g>
		<g>
			<polygon class="st16" points="523.17,79.11 534.66,72.44 534.65,76.87 523.16,83.55 			"/>
		</g>
		<g>
			<polygon class="st16" points="523.17,79.11 523.16,83.55 519.31,81.32 519.32,76.89 523.15,79.1 			"/>
		</g>
		<g>
			<polygon class="st16" points="523.15,79.1 534.64,72.43 534.66,72.44 523.17,79.11 			"/>
		</g>
		<g>
			<polygon class="st16" points="519.31,72.45 519.3,76.88 515.46,74.66 515.45,74.65 515.46,70.22 			"/>
		</g>
		<g>
			<polygon class="st16" points="519.31,72.45 530.8,65.77 530.79,70.2 519.3,76.88 			"/>
		</g>
		<g>
			<polygon class="st16" points="515.46,70.22 526.94,63.55 530.8,65.77 519.31,72.45 			"/>
		</g>
		<g>
			<polygon class="st16" points="523.17,79.11 534.66,72.44 538.49,74.65 527.01,81.33 			"/>
		</g>
		<g>
			<polygon class="st16" points="527.03,81.34 527.01,85.77 523.16,83.55 523.17,79.11 527.01,81.33 			"/>
		</g>
		<g>
			<polygon class="st16" points="527.03,81.34 538.51,74.66 538.5,79.1 527.01,85.77 			"/>
		</g>
		<g>
			<polygon class="st16" points="527.01,81.33 538.49,74.65 538.51,74.66 527.03,81.34 			"/>
		</g>
		<g>
			<polygon class="st16" points="519.31,72.45 530.8,65.77 534.65,68 523.17,74.67 			"/>
		</g>
		<g>
			<polygon class="st16" points="523.17,74.67 523.15,79.1 519.32,76.89 519.3,76.88 519.31,72.45 			"/>
		</g>
		<g>
			<polygon class="st16" points="523.17,74.67 534.65,68 534.64,72.43 523.15,79.1 			"/>
		</g>
		<g>
			<polygon class="st16" points="519.32,68.02 530.81,61.35 530.8,65.77 519.31,72.45 			"/>
		</g>
		<g>
			<polygon class="st16" points="519.32,68.02 519.31,72.45 515.46,70.22 515.47,65.8 			"/>
		</g>
		<g>
			<polygon class="st16" points="515.47,65.8 526.96,59.12 530.81,61.35 519.32,68.02 			"/>
		</g>
		<g>
			<polygon class="st14" points="515.48,61.37 515.47,65.8 511.61,63.57 511.62,59.14 			"/>
		</g>
		<g>
			<polygon class="st14" points="511.62,59.14 523.11,52.46 526.97,54.69 515.48,61.37 			"/>
		</g>
		<g>
			<polygon class="st14" points="515.48,61.37 526.97,54.69 526.96,59.12 515.47,65.8 			"/>
		</g>
		<g>
			<polygon class="st16" points="527.02,76.9 538.51,70.22 538.49,74.65 527.01,81.33 			"/>
		</g>
		<g>
			<polygon class="st16" points="527.02,76.9 527.01,81.33 523.17,79.11 523.15,79.1 523.17,74.67 			"/>
		</g>
		<g>
			<polygon class="st16" points="523.17,74.67 534.65,68 538.51,70.22 527.02,76.9 			"/>
		</g>
		<g>
			<polygon class="st17" points="523.18,70.25 534.66,63.57 534.65,68 523.17,74.67 			"/>
		</g>
		<g>
			<polygon class="st17" points="523.18,70.25 523.17,74.67 519.31,72.45 519.32,68.02 			"/>
		</g>
		<g>
			<polygon class="st17" points="519.32,68.02 530.81,61.35 534.66,63.57 523.18,70.25 			"/>
		</g>
		<g>
			<polygon class="st16" points="515.48,61.37 526.97,54.69 530.82,56.92 519.34,63.59 			"/>
		</g>
		<g>
			<polygon class="st16" points="519.34,63.59 530.82,56.92 530.81,61.35 519.32,68.02 			"/>
		</g>
		<g>
			<polygon class="st16" points="519.34,63.59 519.32,68.02 515.47,65.8 515.48,61.37 			"/>
		</g>
		<g>
			<polygon class="st14" points="515.5,56.93 526.98,50.26 526.97,54.69 515.48,61.37 			"/>
		</g>
		<g>
			<polygon class="st14" points="515.5,56.93 515.48,61.37 511.62,59.14 511.64,54.7 			"/>
		</g>
		<g>
			<polygon class="st16" points="511.64,54.7 523.12,48.03 526.98,50.26 515.5,56.93 			"/>
		</g>
		<g>
			<polygon class="st16" points="519.35,59.16 519.34,63.59 515.48,61.37 515.5,56.93 			"/>
		</g>
		<g>
			<polygon class="st16" points="519.35,59.16 530.84,52.48 530.82,56.92 519.34,63.59 			"/>
		</g>
		<g>
			<polygon class="st16" points="515.5,56.93 526.98,50.26 530.84,52.48 519.35,59.16 			"/>
		</g>
	</g>
	<g class="st7">
		<g>
			<polygon class="st18" points="538.53,110.17 550.02,103.5 550.01,107.93 538.52,114.61 			"/>
		</g>
		<g>
			<polygon class="st14" points="534.68,107.95 546.16,101.27 550.02,103.5 538.53,110.17 			"/>
		</g>
		<g>
			<polygon class="st14" points="538.53,110.17 538.52,114.61 534.66,112.39 534.68,107.95 			"/>
		</g>
	</g>
	<g class="st7">
		<g>
			<polygon class="st15" points="538.54,105.75 550.03,99.07 550.02,103.5 538.53,110.17 			"/>
		</g>
		<g>
			<polygon class="st15" points="534.69,103.52 546.18,96.85 550.03,99.07 538.54,105.75 			"/>
		</g>
		<g>
			<polygon class="st15" points="538.54,105.75 538.53,110.17 534.68,107.95 534.69,103.52 			"/>
		</g>
	</g>
	<g class="st7">
		<g>
			<polygon class="st17" points="523.19,65.82 534.68,59.14 534.66,63.57 523.18,70.25 			"/>
		</g>
		<g>
			<polygon class="st17" points="519.34,63.59 530.82,56.92 534.68,59.14 523.19,65.82 			"/>
		</g>
		<g>
			<polygon class="st17" points="523.19,65.82 523.18,70.25 519.32,68.02 519.34,63.59 			"/>
		</g>
	</g>
	<g class="st7">
		<g>
			<polygon class="st16" points="523.2,61.38 534.69,54.71 534.68,59.14 523.19,65.82 			"/>
		</g>
		<g>
			<polygon class="st16" points="519.35,59.16 530.84,52.48 534.69,54.71 523.2,61.38 			"/>
		</g>
		<g>
			<polygon class="st16" points="523.2,61.38 523.19,65.82 519.34,63.59 519.35,59.16 			"/>
		</g>
	</g>
	<g class="st7">
		<g>
			<polygon class="st17" points="527.03,72.47 538.52,65.8 538.51,70.22 527.02,76.9 			"/>
		</g>
		<g>
			<polygon class="st17" points="523.18,70.25 534.66,63.57 538.52,65.8 527.03,72.47 			"/>
		</g>
		<g>
			<polygon class="st17" points="527.03,72.47 527.02,76.9 523.17,74.67 523.18,70.25 			"/>
		</g>
	</g>
	<g class="st7">
		<g>
			<polygon class="st16" points="534.72,94.66 546.2,87.98 546.19,92.41 534.7,99.09 			"/>
		</g>
		<g>
			<polygon class="st16" points="530.86,92.43 542.35,85.76 546.2,87.98 534.72,94.66 			"/>
		</g>
		<g>
			<polygon class="st16" points="534.72,94.66 534.7,99.09 530.85,96.86 530.86,92.43 			"/>
		</g>
		<g>
			<polygon class="st16" points="530.87,88 530.86,92.43 527,90.2 527.01,85.77 			"/>
		</g>
		<g>
			<polygon class="st16" points="530.87,88 542.36,81.33 542.35,85.76 530.86,92.43 			"/>
		</g>
		<g>
			<polygon class="st16" points="527.01,85.77 538.5,79.1 542.36,81.33 530.87,88 			"/>
		</g>
		<g>
			<polygon class="st16" points="527.03,81.34 538.51,74.66 542.35,76.88 530.86,83.55 			"/>
		</g>
		<g>
			<polygon class="st16" points="530.89,83.57 542.37,76.89 542.36,81.33 530.87,88 			"/>
		</g>
		<g>
			<polygon class="st16" points="530.86,83.55 542.35,76.88 542.37,76.89 530.89,83.57 			"/>
		</g>
		<g>
			<polygon class="st16" points="530.89,83.57 530.87,88 527.01,85.77 527.03,81.34 530.86,83.55 			"/>
		</g>
	</g>
	<g class="st7">
		<g>
			<polygon class="st14" points="519.36,54.73 530.85,48.05 530.84,52.48 519.35,59.16 			"/>
		</g>
		<g>
			<polygon class="st16" points="515.51,52.5 526.99,45.83 530.85,48.05 519.36,54.73 			"/>
		</g>
		<g>
			<polygon class="st14" points="519.36,54.73 519.35,59.16 515.5,56.93 515.51,52.5 			"/>
		</g>
	</g>
	<g class="st7">
		<g>
			<polygon class="st17" points="527.05,68.04 538.53,61.37 538.52,65.8 527.03,72.47 			"/>
		</g>
		<g>
			<polygon class="st17" points="523.19,65.82 534.68,59.14 538.53,61.37 527.05,68.04 			"/>
		</g>
		<g>
			<polygon class="st17" points="527.05,68.04 527.03,72.47 523.18,70.25 523.19,65.82 			"/>
		</g>
	</g>
	<g class="st7">
		<g>
			<polygon class="st16" points="530.87,79.12 542.36,72.45 542.35,76.88 530.86,83.55 			"/>
		</g>
		<g>
			<polygon class="st16" points="527.02,76.9 538.51,70.22 542.36,72.45 530.87,79.12 			"/>
		</g>
		<g>
			<polygon class="st16" points="530.87,79.12 530.86,83.55 527.03,81.34 527.01,81.33 527.02,76.9 			"/>
		</g>
	</g>
	<g class="st7">
		<g>
			<polygon class="st16" points="534.73,90.23 546.21,83.55 546.2,87.98 534.72,94.66 			"/>
		</g>
		<g>
			<polygon class="st16" points="530.87,88 542.36,81.33 546.21,83.55 534.73,90.23 			"/>
		</g>
		<g>
			<polygon class="st16" points="534.73,90.23 534.72,94.66 530.86,92.43 530.87,88 			"/>
		</g>
	</g>
	<g class="st7">
		<g>
			<polygon class="st15" points="538.56,101.31 550.04,94.64 550.03,99.07 538.54,105.75 			"/>
		</g>
		<g>
			<polygon class="st15" points="534.7,99.09 546.19,92.41 550.04,94.64 538.56,101.31 			"/>
		</g>
		<g>
			<polygon class="st15" points="538.56,101.31 538.54,105.75 534.69,103.52 534.7,99.09 			"/>
		</g>
	</g>
	<g class="st7">
		<g>
			<polygon class="st16" points="530.89,74.7 542.37,68.02 542.36,72.45 530.87,79.12 			"/>
		</g>
		<g>
			<polygon class="st16" points="527.03,72.47 538.52,65.8 542.37,68.02 530.89,74.7 			"/>
		</g>
		<g>
			<polygon class="st16" points="530.89,74.7 530.87,79.12 527.02,76.9 527.03,72.47 			"/>
		</g>
		<g>
			<polygon class="st16" points="530.9,70.27 542.39,63.59 542.37,68.02 530.89,74.7 			"/>
		</g>
		<g>
			<polygon class="st16" points="527.05,68.04 538.53,61.37 542.39,63.59 530.9,70.27 			"/>
		</g>
		<g>
			<polygon class="st16" points="530.9,70.27 530.89,74.7 527.03,72.47 527.05,68.04 			"/>
		</g>
		<g>
			<polygon class="st16" points="523.2,61.38 534.69,54.71 538.54,56.93 527.06,63.61 			"/>
		</g>
		<g>
			<polygon class="st16" points="527.06,63.61 538.54,56.93 538.53,61.37 527.05,68.04 			"/>
		</g>
		<g>
			<polygon class="st16" points="527.06,63.61 527.05,68.04 523.19,65.82 523.2,61.38 			"/>
		</g>
		<g>
			<polygon class="st16" points="523.22,56.95 534.7,50.28 534.69,54.71 523.2,61.38 			"/>
		</g>
		<g>
			<polygon class="st16" points="519.36,54.73 530.85,48.05 534.7,50.28 523.22,56.95 			"/>
		</g>
		<g>
			<polygon class="st16" points="523.22,56.95 523.2,61.38 519.35,59.16 519.36,54.73 			"/>
		</g>
		<g>
			<polygon class="st15" points="530.91,65.83 530.9,70.27 527.05,68.04 527.06,63.61 			"/>
		</g>
		<g>
			<polygon class="st15" points="530.91,65.83 542.4,59.16 542.39,63.59 530.9,70.27 			"/>
		</g>
		<g>
			<polygon class="st15" points="527.06,63.61 538.54,56.93 542.4,59.16 530.91,65.83 			"/>
		</g>
		<g>
			<polygon class="st16" points="527.07,59.18 538.56,52.5 538.54,56.93 527.06,63.61 			"/>
		</g>
		<g>
			<polygon class="st16" points="527.07,59.18 527.06,63.61 523.2,61.38 523.22,56.95 			"/>
		</g>
		<g>
			<polygon class="st16" points="523.22,56.95 534.7,50.28 538.56,52.5 527.07,59.18 			"/>
		</g>
		<g>
			<polygon class="st14" points="523.23,52.52 534.72,45.85 534.7,50.28 523.22,56.95 			"/>
		</g>
		<g>
			<polygon class="st16" points="519.38,50.3 530.86,43.62 534.72,45.85 523.23,52.52 			"/>
		</g>
		<g>
			<polygon class="st14" points="523.23,52.52 523.22,56.95 519.36,54.73 519.38,50.3 			"/>
		</g>
	</g>
	<g class="st7">
		<g>
			<polygon class="st16" points="530.89,83.57 542.37,76.89 546.21,79.11 534.72,85.78 			"/>
		</g>
		<g>
			<polygon class="st16" points="534.74,85.79 546.23,79.12 546.21,83.55 534.73,90.23 			"/>
		</g>
		<g>
			<polygon class="st16" points="534.72,85.78 546.21,79.11 546.23,79.12 534.74,85.79 			"/>
		</g>
		<g>
			<polygon class="st16" points="534.74,85.79 534.73,90.23 530.87,88 530.89,83.57 534.72,85.78 			"/>
		</g>
	</g>
	<g class="st7">
		<g>
			<polygon class="st16" points="538.57,96.88 550.06,90.21 550.04,94.64 538.56,101.31 			"/>
		</g>
		<g>
			<polygon class="st16" points="534.72,94.66 546.2,87.98 550.06,90.21 538.57,96.88 			"/>
		</g>
		<g>
			<polygon class="st16" points="538.57,96.88 538.56,101.31 534.7,99.09 534.72,94.66 			"/>
		</g>
	</g>
	<g class="st7">
		<g>
			<polygon class="st18" points="542.41,107.98 553.9,101.3 553.88,105.73 542.4,112.41 			"/>
		</g>
		<g>
			<polygon class="st14" points="538.56,105.75 550.04,99.08 553.9,101.3 542.41,107.98 			"/>
		</g>
		<g>
			<polygon class="st14" points="542.41,107.98 542.4,112.41 538.54,110.18 538.56,105.75 			"/>
		</g>
	</g>
	<g class="st7">
		<g>
			<polygon class="st16" points="534.73,81.35 546.22,74.68 546.21,79.11 534.72,85.78 			"/>
		</g>
		<g>
			<polygon class="st16" points="530.87,79.12 542.36,72.45 546.22,74.68 534.73,81.35 			"/>
		</g>
		<g>
			<polygon class="st16" points="534.73,81.35 534.72,85.78 530.89,83.57 530.86,83.55 530.87,79.12 			"/>
		</g>
	</g>
	<g class="st7">
		<g>
			<polygon class="st16" points="538.58,92.45 550.07,85.78 550.06,90.21 538.57,96.88 			"/>
		</g>
		<g>
			<polygon class="st16" points="534.73,90.23 546.21,83.55 550.07,85.78 538.58,92.45 			"/>
		</g>
		<g>
			<polygon class="st16" points="538.58,92.45 538.57,96.88 534.72,94.66 534.73,90.23 			"/>
		</g>
	</g>
	<g class="st7">
		<g>
			<polygon class="st15" points="542.42,103.54 553.91,96.87 553.9,101.3 542.41,107.98 			"/>
		</g>
		<g>
			<polygon class="st15" points="542.42,103.54 542.41,107.98 538.56,105.75 538.57,101.32 			"/>
		</g>
		<g>
			<polygon class="st15" points="538.57,101.32 550.06,94.64 553.91,96.87 542.42,103.54 			"/>
		</g>
		<g>
			<polygon class="st14" points="542.42,103.54 553.91,96.87 557.77,99.1 546.28,105.77 			"/>
		</g>
		<g>
			<polygon class="st18" points="546.28,105.77 557.77,99.1 557.76,103.53 546.27,110.21 			"/>
		</g>
		<g>
			<polygon class="st14" points="546.28,105.77 546.27,110.21 542.41,107.98 542.42,103.54 			"/>
		</g>
	</g>
	<g class="st7">
		<g>
			<polygon class="st18" points="527.08,54.75 538.57,48.07 538.56,52.5 527.07,59.18 			"/>
		</g>
		<g>
			<polygon class="st16" points="523.23,52.52 534.72,45.85 538.57,48.07 527.08,54.75 			"/>
		</g>
		<g>
			<polygon class="st14" points="527.08,54.75 527.07,59.18 523.22,56.95 523.23,52.52 			"/>
		</g>
	</g>
	<g class="st7">
		<g>
			<polygon class="st16" points="534.74,85.79 546.23,79.12 550.06,81.33 538.58,88.01 			"/>
		</g>
		<g>
			<polygon class="st16" points="538.59,88.01 550.08,81.34 550.07,85.78 538.58,92.45 			"/>
		</g>
		<g>
			<polygon class="st16" points="538.58,88.01 550.06,81.33 550.08,81.34 538.59,88.01 			"/>
		</g>
		<g>
			<polygon class="st16" points="538.59,88.01 538.58,92.45 534.73,90.23 534.74,85.79 538.58,88.01 			"/>
		</g>
		<g>
			<polygon class="st16" points="538.59,83.58 538.58,88.01 534.74,85.79 534.72,85.78 534.73,81.35 			"/>
		</g>
		<g>
			<polygon class="st16" points="538.59,83.58 550.07,76.9 550.06,81.33 538.58,88.01 			"/>
		</g>
		<g>
			<polygon class="st16" points="534.73,81.35 546.22,74.68 550.07,76.9 538.59,83.58 			"/>
		</g>
		<g>
			<polygon class="st16" points="534.75,76.93 546.23,70.25 546.22,74.68 534.73,81.35 			"/>
		</g>
		<g>
			<polygon class="st16" points="530.89,74.7 542.37,68.02 546.23,70.25 534.75,76.93 			"/>
		</g>
		<g>
			<polygon class="st16" points="534.75,76.93 534.73,81.35 530.87,79.12 530.89,74.7 			"/>
		</g>
		<g>
			<polygon class="st16" points="534.75,76.93 546.23,70.25 550.09,72.47 538.6,79.15 			"/>
		</g>
		<g>
			<polygon class="st16" points="538.6,79.15 550.09,72.47 550.07,76.9 538.59,83.58 			"/>
		</g>
		<g>
			<polygon class="st16" points="538.6,79.15 538.59,83.58 534.73,81.35 534.75,76.93 			"/>
		</g>
		<g>
			<polygon class="st15" points="534.76,72.5 546.25,65.82 546.23,70.25 534.75,76.93 			"/>
		</g>
		<g>
			<polygon class="st15" points="534.76,72.5 534.75,76.93 530.89,74.7 530.9,70.27 			"/>
		</g>
		<g>
			<polygon class="st15" points="530.9,70.27 542.39,63.59 546.25,65.82 534.76,72.5 			"/>
		</g>
		<g>
			<polygon class="st14" points="538.61,74.72 538.6,79.15 534.75,76.93 534.76,72.5 			"/>
		</g>
		<g>
			<polygon class="st14" points="538.61,74.72 550.1,68.05 550.09,72.47 538.6,79.15 			"/>
		</g>
		<g>
			<polygon class="st16" points="534.76,72.5 546.25,65.82 550.1,68.05 538.61,74.72 			"/>
		</g>
		<g>
			<polygon class="st18" points="534.77,68.06 546.26,61.39 546.25,65.82 534.76,72.5 			"/>
		</g>
		<g>
			<polygon class="st16" points="530.91,65.83 542.4,59.16 546.26,61.39 534.77,68.06 			"/>
		</g>
		<g>
			<polygon class="st14" points="534.77,68.06 534.76,72.5 530.9,70.27 530.91,65.83 			"/>
		</g>
		<g>
			<polygon class="st18" points="530.92,61.4 542.41,54.73 542.4,59.16 530.91,65.83 			"/>
		</g>
		<g>
			<polygon class="st16" points="527.07,59.18 538.56,52.5 542.41,54.73 530.92,61.4 			"/>
		</g>
		<g>
			<polygon class="st14" points="530.92,61.4 530.91,65.83 527.06,63.61 527.07,59.18 			"/>
		</g>
	</g>
	<g class="st7">
		<g>
			<polygon class="st15" points="542.44,99.11 553.92,92.44 553.91,96.87 542.42,103.54 			"/>
		</g>
		<g>
			<polygon class="st15" points="538.58,96.89 550.07,90.21 553.92,92.44 542.44,99.11 			"/>
		</g>
		<g>
			<polygon class="st15" points="542.44,99.11 542.42,103.54 538.57,101.32 538.58,96.89 			"/>
		</g>
	</g>
	<g class="st7">
		<g>
			<polygon class="st15" points="546.3,101.34 557.78,94.67 557.77,99.1 546.28,105.77 			"/>
		</g>
		<g>
			<polygon class="st15" points="542.44,99.11 553.92,92.44 557.78,94.67 546.3,101.34 			"/>
		</g>
		<g>
			<polygon class="st15" points="546.3,101.34 546.28,105.77 542.42,103.54 542.44,99.11 			"/>
		</g>
	</g>
	<g class="st7">
		<g>
			<polygon class="st16" points="542.45,94.69 553.93,88.01 553.92,92.44 542.44,99.11 			"/>
		</g>
		<g>
			<polygon class="st16" points="538.59,92.46 550.08,85.79 553.93,88.01 542.45,94.69 			"/>
		</g>
		<g>
			<polygon class="st16" points="542.45,94.69 542.44,99.11 538.58,96.89 538.59,92.46 			"/>
		</g>
	</g>
	<g class="st7">
		<g>
			<polygon class="st16" points="538.61,88.03 550.09,81.35 553.93,83.56 542.44,90.24 			"/>
		</g>
		<g>
			<polygon class="st16" points="542.46,90.25 553.95,83.57 553.93,88.01 542.45,94.69 			"/>
		</g>
		<g>
			<polygon class="st16" points="542.44,90.24 553.93,83.56 553.95,83.57 542.46,90.25 			"/>
		</g>
		<g>
			<polygon class="st16" points="542.46,90.25 542.45,94.69 538.59,92.46 538.61,88.03 542.44,90.24 			"/>
		</g>
	</g>
	<g class="st7">
		<g>
			<polygon class="st18" points="550.15,103.57 561.64,96.89 561.62,101.32 550.14,108 			"/>
		</g>
		<g>
			<polygon class="st14" points="546.3,101.34 557.78,94.67 561.64,96.89 550.15,103.57 			"/>
		</g>
		<g>
			<polygon class="st14" points="550.15,103.57 550.14,108 546.28,105.77 546.3,101.34 			"/>
		</g>
	</g>
	<g class="st7">
		<g>
			<polygon class="st16" points="542.45,85.81 553.94,79.14 553.93,83.56 542.44,90.24 			"/>
		</g>
		<g>
			<polygon class="st16" points="538.6,83.59 550.09,76.91 553.94,79.14 542.45,85.81 			"/>
		</g>
		<g>
			<polygon class="st16" points="542.45,85.81 542.44,90.24 538.61,88.03 538.59,88.02 538.6,83.59 			"/>
		</g>
	</g>
	<g class="st7">
		<g>
			<polygon class="st15" points="546.31,96.91 557.79,90.24 557.78,94.67 546.3,101.34 			"/>
		</g>
		<g>
			<polygon class="st15" points="542.45,94.69 553.93,88.01 557.79,90.24 546.31,96.91 			"/>
		</g>
		<g>
			<polygon class="st15" points="546.31,96.91 546.3,101.34 542.44,99.11 542.45,94.69 			"/>
		</g>
	</g>
	<g class="st7">
		<g>
			<polygon class="st16" points="542.47,81.38 553.95,74.71 553.94,79.14 542.45,85.81 			"/>
		</g>
		<g>
			<polygon class="st16" points="538.61,79.16 550.1,72.48 553.95,74.71 542.47,81.38 			"/>
		</g>
		<g>
			<polygon class="st16" points="542.47,81.38 542.45,85.81 538.6,83.59 538.61,79.16 			"/>
		</g>
	</g>
	<g class="st7">
		<g>
			<polygon class="st16" points="542.46,90.25 553.95,83.57 557.79,85.79 546.3,92.47 			"/>
		</g>
		<g>
			<polygon class="st16" points="546.32,92.48 557.81,85.8 557.79,90.24 546.31,96.91 			"/>
		</g>
		<g>
			<polygon class="st16" points="546.3,92.47 557.79,85.79 557.81,85.8 546.32,92.48 			"/>
		</g>
		<g>
			<polygon class="st16" points="546.32,92.48 546.31,96.91 542.45,94.69 542.46,90.25 546.3,92.47 			"/>
		</g>
	</g>
	<g class="st7">
		<g>
			<polygon class="st16" points="542.48,76.95 553.97,70.28 553.95,74.71 542.47,81.38 			"/>
		</g>
		<g>
			<polygon class="st16" points="538.63,74.73 550.11,68.05 553.97,70.28 542.48,76.95 			"/>
		</g>
		<g>
			<polygon class="st16" points="542.48,76.95 542.47,81.38 538.61,79.16 538.63,74.73 			"/>
		</g>
	</g>
	<g class="st7">
		<g>
			<polygon class="st16" points="546.32,88.04 557.8,81.36 557.79,85.79 546.3,92.47 			"/>
		</g>
		<g>
			<polygon class="st16" points="542.45,85.81 553.94,79.14 557.8,81.36 546.32,88.04 			"/>
		</g>
		<g>
			<polygon class="st16" points="546.32,88.04 546.3,92.47 542.46,90.25 542.44,90.24 542.45,85.81 			"/>
		</g>
	</g>
	<g class="st7">
		<g>
			<polygon class="st15" points="550.16,99.14 561.65,92.47 561.64,96.89 550.15,103.57 			"/>
		</g>
		<g>
			<polygon class="st15" points="546.31,96.91 557.79,90.24 561.65,92.47 550.16,99.14 			"/>
		</g>
		<g>
			<polygon class="st15" points="550.16,99.14 550.15,103.57 546.3,101.34 546.31,96.91 			"/>
		</g>
	</g>
	<g class="st7">
		<g>
			<polygon class="st14" points="542.49,72.52 553.98,65.84 553.97,70.28 542.48,76.95 			"/>
		</g>
		<g>
			<polygon class="st16" points="538.64,70.29 550.12,63.62 553.98,65.84 542.49,72.52 			"/>
		</g>
		<g>
			<polygon class="st14" points="542.49,72.52 542.48,76.95 538.63,74.73 538.64,70.29 			"/>
		</g>
	</g>
	<g class="st7">
		<g>
			<polygon class="st16" points="546.33,83.61 557.81,76.93 557.8,81.36 546.32,88.04 			"/>
		</g>
		<g>
			<polygon class="st16" points="542.47,81.38 553.95,74.71 557.81,76.93 546.33,83.61 			"/>
		</g>
		<g>
			<polygon class="st16" points="546.33,83.61 546.32,88.04 542.45,85.81 542.47,81.38 			"/>
		</g>
	</g>
	<g class="st7">
		<g>
			<polygon class="st15" points="546.32,92.48 557.81,85.8 561.64,88.02 550.16,94.69 			"/>
		</g>
		<g>
			<polygon class="st15" points="550.18,94.7 561.66,88.03 561.65,92.47 550.16,99.14 			"/>
		</g>
		<g>
			<polygon class="st15" points="550.16,94.69 561.64,88.02 561.66,88.03 550.18,94.7 			"/>
		</g>
		<g>
			<polygon class="st15" points="550.18,94.7 550.16,99.14 546.31,96.91 546.32,92.48 550.16,94.69 			"/>
		</g>
	</g>
	<g class="st7">
		<g>
			<polygon class="st16" points="550.17,90.27 561.66,83.59 561.64,88.02 550.16,94.69 			"/>
		</g>
		<g>
			<polygon class="st16" points="546.32,88.04 557.8,81.36 561.66,83.59 550.17,90.27 			"/>
		</g>
		<g>
			<polygon class="st16" points="550.17,90.27 550.16,94.69 546.32,92.48 546.3,92.47 546.32,88.04 			"/>
		</g>
	</g>
	<g class="st7">
		<g>
			<polygon class="st18" points="554.02,101.36 565.5,94.69 565.49,99.12 554,105.79 			"/>
		</g>
		<g>
			<polygon class="st14" points="550.16,99.14 561.65,92.47 565.5,94.69 554.02,101.36 			"/>
		</g>
		<g>
			<polygon class="st14" points="554.02,101.36 554,105.79 550.15,103.57 550.16,99.14 			"/>
		</g>
	</g>
	<g class="st7">
		<g>
			<polygon class="st16" points="546.34,79.18 557.83,72.51 557.81,76.93 546.33,83.61 			"/>
		</g>
		<g>
			<polygon class="st16" points="542.48,76.95 553.97,70.28 557.83,72.51 546.34,79.18 			"/>
		</g>
		<g>
			<polygon class="st16" points="546.34,79.18 546.33,83.61 542.47,81.38 542.48,76.95 			"/>
		</g>
	</g>
	<g class="st7">
		<g>
			<polygon class="st16" points="546.35,74.75 557.84,68.07 557.83,72.51 546.34,79.18 			"/>
		</g>
		<g>
			<polygon class="st16" points="542.49,72.52 553.98,65.84 557.84,68.07 546.35,74.75 			"/>
		</g>
		<g>
			<polygon class="st16" points="546.35,74.75 546.34,79.18 542.48,76.95 542.49,72.52 			"/>
		</g>
	</g>
	<g class="st7">
		<g>
			<polygon class="st16" points="550.18,85.84 561.67,79.16 561.66,83.59 550.17,90.27 			"/>
		</g>
		<g>
			<polygon class="st16" points="546.33,83.61 557.81,76.93 561.67,79.16 550.18,85.84 			"/>
		</g>
		<g>
			<polygon class="st16" points="550.18,85.84 550.17,90.27 546.32,88.04 546.33,83.61 			"/>
		</g>
	</g>
	<g class="st7">
		<g>
			<polygon class="st15" points="550.18,94.7 561.66,88.03 565.5,90.24 554.01,96.92 			"/>
		</g>
		<g>
			<polygon class="st15" points="554.03,96.93 565.52,90.25 565.5,94.69 554.02,101.36 			"/>
		</g>
		<g>
			<polygon class="st15" points="554.01,96.92 565.5,90.24 565.52,90.25 554.03,96.93 			"/>
		</g>
		<g>
			<polygon class="st15" points="554.03,96.93 554.02,101.36 550.16,99.14 550.18,94.7 554.01,96.92 			"/>
		</g>
	</g>
	<g class="st7">
		<g>
			<polygon class="st15" points="554.02,92.49 565.51,85.81 565.5,90.24 554.01,96.92 			"/>
		</g>
		<g>
			<polygon class="st15" points="550.17,90.27 561.66,83.59 565.51,85.81 554.02,92.49 			"/>
		</g>
		<g>
			<polygon class="st15" points="554.02,92.49 554.01,96.92 550.18,94.7 550.16,94.69 550.17,90.27 			"/>
		</g>
	</g>
	<g class="st7">
		<g>
			<polygon class="st14" points="546.36,70.32 557.85,63.64 557.84,68.07 546.35,74.75 			"/>
		</g>
		<g>
			<polygon class="st16" points="542.51,68.09 553.99,61.41 557.85,63.64 546.36,70.32 			"/>
		</g>
		<g>
			<polygon class="st14" points="546.36,70.32 546.35,74.75 542.49,72.52 542.51,68.09 			"/>
		</g>
	</g>
	<g class="st7">
		<g>
			<polygon class="st16" points="550.19,81.41 561.68,74.73 561.67,79.16 550.18,85.84 			"/>
		</g>
		<g>
			<polygon class="st16" points="546.34,79.18 557.83,72.51 561.68,74.73 550.19,81.41 			"/>
		</g>
		<g>
			<polygon class="st16" points="550.19,81.41 550.18,85.84 546.33,83.61 546.34,79.18 			"/>
		</g>
	</g>
	<g class="st7">
		<g>
			<polygon class="st14" points="554.03,96.93 565.52,90.25 569.35,92.47 557.86,99.14 			"/>
		</g>
		<g>
			<polygon class="st18" points="557.88,99.15 569.37,92.48 569.36,96.91 557.87,103.59 			"/>
		</g>
		<g>
			<polygon class="st14" points="557.86,99.14 569.35,92.47 569.37,92.48 557.88,99.15 			"/>
		</g>
		<g>
			<polygon class="st14" points="557.88,99.15 557.87,103.59 554.02,101.36 554.03,96.93 557.86,99.14 			"/>
		</g>
		<g>
			<polygon class="st15" points="557.88,94.71 569.36,88.04 569.35,92.47 557.86,99.14 			"/>
		</g>
		<g>
			<polygon class="st15" points="554.02,92.49 565.51,85.81 569.36,88.04 557.88,94.71 			"/>
		</g>
		<g>
			<polygon class="st15" points="557.88,94.71 557.86,99.14 554.03,96.93 554.01,96.92 554.02,92.49 			"/>
		</g>
		<g>
			<polygon class="st15" points="554.04,88.06 554.02,92.49 550.17,90.27 550.18,85.84 			"/>
		</g>
		<g>
			<polygon class="st15" points="554.04,88.06 565.52,81.39 565.51,85.81 554.02,92.49 			"/>
		</g>
		<g>
			<polygon class="st15" points="550.18,85.84 561.67,79.16 565.52,81.39 554.04,88.06 			"/>
		</g>
		<g>
			<polygon class="st15" points="554.05,83.63 565.53,76.96 565.52,81.39 554.04,88.06 			"/>
		</g>
		<g>
			<polygon class="st15" points="550.19,81.41 561.68,74.73 565.53,76.96 554.05,83.63 			"/>
		</g>
		<g>
			<polygon class="st15" points="554.05,83.63 554.04,88.06 550.18,85.84 550.19,81.41 			"/>
		</g>
		<g>
			<polygon class="st16" points="550.21,76.97 550.19,81.41 546.34,79.18 546.35,74.75 			"/>
		</g>
		<g>
			<polygon class="st16" points="550.21,76.97 561.69,70.3 561.68,74.73 550.19,81.41 			"/>
		</g>
		<g>
			<polygon class="st16" points="546.35,74.75 557.84,68.07 561.69,70.3 550.21,76.97 			"/>
		</g>
		<g>
			<polygon class="st15" points="550.22,72.54 561.71,65.87 561.69,70.3 550.21,76.97 			"/>
		</g>
		<g>
			<polygon class="st15" points="546.36,70.32 557.85,63.64 561.71,65.87 550.22,72.54 			"/>
		</g>
		<g>
			<polygon class="st15" points="550.22,72.54 550.21,76.97 546.35,74.75 546.36,70.32 			"/>
		</g>
	</g>
	<g class="st7">
		<g>
			<polygon class="st14" points="550.23,68.11 561.72,61.44 561.71,65.87 550.22,72.54 			"/>
		</g>
		<g>
			<polygon class="st16" points="546.38,65.89 557.86,59.21 561.72,61.44 550.23,68.11 			"/>
		</g>
		<g>
			<polygon class="st14" points="550.23,68.11 550.22,72.54 546.36,70.32 546.38,65.89 			"/>
		</g>
	</g>
	<g class="st7">
		<g>
			<polygon class="st18" points="561.73,96.94 573.22,90.27 573.21,94.69 561.72,101.37 			"/>
		</g>
		<g>
			<polygon class="st14" points="557.88,94.71 569.36,88.04 573.22,90.27 561.73,96.94 			"/>
		</g>
		<g>
			<polygon class="st14" points="561.73,96.94 561.72,101.37 557.88,99.15 557.86,99.14 557.88,94.71 			"/>
		</g>
		<g>
			<polygon class="st15" points="554.04,88.06 565.52,81.39 569.38,83.61 557.89,90.29 			"/>
		</g>
		<g>
			<polygon class="st15" points="557.89,90.29 569.38,83.61 569.36,88.04 557.88,94.71 			"/>
		</g>
		<g>
			<polygon class="st15" points="557.89,90.29 557.88,94.71 554.02,92.49 554.04,88.06 			"/>
		</g>
		<g>
			<polygon class="st14" points="557.89,90.29 569.38,83.61 573.23,85.84 561.74,92.51 			"/>
		</g>
		<g>
			<polygon class="st14" points="561.74,92.51 561.73,96.94 557.88,94.71 557.89,90.29 			"/>
		</g>
		<g>
			<polygon class="st18" points="561.74,92.51 573.23,85.84 573.22,90.27 561.73,96.94 			"/>
		</g>
		<g>
			<polygon class="st15" points="557.9,85.86 557.89,90.29 554.04,88.06 554.05,83.63 			"/>
		</g>
		<g>
			<polygon class="st15" points="557.9,85.86 569.39,79.18 569.38,83.61 557.89,90.29 			"/>
		</g>
		<g>
			<polygon class="st15" points="554.05,83.63 565.53,76.96 569.39,79.18 557.9,85.86 			"/>
		</g>
		<g>
			<polygon class="st15" points="554.06,79.2 554.05,83.63 550.19,81.41 550.21,76.97 			"/>
		</g>
		<g>
			<polygon class="st15" points="554.06,79.2 565.55,72.52 565.53,76.96 554.05,83.63 			"/>
		</g>
		<g>
			<polygon class="st15" points="550.21,76.97 561.69,70.3 565.55,72.52 554.06,79.2 			"/>
		</g>
		<g>
			<polygon class="st18" points="561.76,88.08 573.24,81.41 573.23,85.84 561.74,92.51 			"/>
		</g>
		<g>
			<polygon class="st14" points="557.9,85.86 569.39,79.18 573.24,81.41 561.76,88.08 			"/>
		</g>
		<g>
			<polygon class="st14" points="561.76,88.08 561.74,92.51 557.89,90.29 557.9,85.86 			"/>
		</g>
		<g>
			<polygon class="st15" points="554.06,79.2 565.55,72.52 569.4,74.75 557.91,81.42 			"/>
		</g>
		<g>
			<polygon class="st15" points="557.91,81.42 569.4,74.75 569.39,79.18 557.9,85.86 			"/>
		</g>
		<g>
			<polygon class="st15" points="557.91,81.42 557.9,85.86 554.05,83.63 554.06,79.2 			"/>
		</g>
		<g>
			<polygon class="st15" points="550.22,72.54 561.71,65.87 565.56,68.09 554.07,74.77 			"/>
		</g>
		<g>
			<polygon class="st15" points="554.07,74.77 554.06,79.2 550.21,76.97 550.22,72.54 			"/>
		</g>
		<g>
			<polygon class="st15" points="554.07,74.77 565.56,68.09 565.55,72.52 554.06,79.2 			"/>
		</g>
		<g>
			<polygon class="st16" points="554.07,74.77 565.56,68.09 569.41,70.32 557.93,76.99 			"/>
		</g>
		<g>
			<polygon class="st14" points="557.93,76.99 557.91,81.42 554.06,79.2 554.07,74.77 			"/>
		</g>
		<g>
			<polygon class="st18" points="557.93,76.99 569.41,70.32 569.4,74.75 557.91,81.42 			"/>
		</g>
		<g>
			<polygon class="st18" points="554.09,70.34 565.57,63.66 565.56,68.09 554.07,74.77 			"/>
		</g>
		<g>
			<polygon class="st16" points="550.23,68.11 561.72,61.44 565.57,63.66 554.09,70.34 			"/>
		</g>
		<g>
			<polygon class="st14" points="554.09,70.34 554.07,74.77 550.22,72.54 550.23,68.11 			"/>
		</g>
	</g>
	<g class="st7">
		<g>
			<polygon class="st18" points="561.77,83.65 573.25,76.97 573.24,81.41 561.76,88.08 			"/>
		</g>
		<g>
			<polygon class="st16" points="557.91,81.42 569.4,74.75 573.25,76.97 561.77,83.65 			"/>
		</g>
		<g>
			<polygon class="st14" points="561.77,83.65 561.76,88.08 557.9,85.86 557.91,81.42 			"/>
		</g>
	</g>
</g>
</svg>
