<?xml version="1.0" encoding="utf-8"?>
<!-- Generator: Adobe Illustrator 25.4.1, SVG Export Plug-In . SVG Version: 6.00 Build 0)  -->
<svg version="1.1" id="Capa_1" xmlns="http://www.w3.org/2000/svg" xmlns:xlink="http://www.w3.org/1999/xlink" x="0px" y="0px"
	 viewBox="0 0 600 200" style="enable-background:new 0 0 600 200;" xml:space="preserve">
<style type="text/css">
	.st0{fill:#E88C73;}
	.st1{fill:#D94F27;}
	.st2{filter:url(#Adobe_OpacityMaskFilter);}
	
		.st3{clip-path:url(#SVGID_00000085936043220688967880000013678928997400931473_);fill:url(#SVGID_00000132085265768798146540000016247214427920510374_);}
	
		.st4{clip-path:url(#SVGID_00000085936043220688967880000013678928997400931473_);mask:url(#SVGID_00000111191411368597223130000002639744342507473053_);}
	.st5{fill:#2AB0E1;}
	.st6{enable-background:new    ;}
	.st7{fill:#614290;}
	.st8{fill:#254190;}
	.st9{fill:#FFDE0B;}
	.st10{fill:#D22429;}
	.st11{fill:#47AA4B;}
	.st12{fill:#F29424;}
	.st13{clip-path:url(#SVGID_00000021101195836867554570000017369949680528066446_);}
	.st14{fill:#CB0D1C;}
	.st15{fill:#E21319;}
	.st16{fill:#E64041;}
	.st17{fill:#F4ABAE;}
	.st18{fill:#A7121C;}
</style>
<g>
	<g>
		<path class="st0" d="M44.23,77.78c-0.18,3.99-1.3,7-3.36,9.05c-2.06,2.05-4.98,3.07-8.74,3.07c-3.95,0-6.98-1.3-9.09-3.9
			c-2.1-2.6-3.16-6.31-3.16-11.13V69c0-4.8,1.09-8.5,3.26-11.1c2.18-2.6,5.2-3.9,9.07-3.9c3.81,0,6.7,1.06,8.68,3.19
			c1.98,2.13,3.1,5.19,3.37,9.17H37.2c-0.06-2.46-0.44-4.16-1.14-5.1s-1.97-1.4-3.83-1.4c-1.89,0-3.22,0.66-4.01,1.98
			s-1.2,3.49-1.25,6.52v6.6c0,3.47,0.39,5.86,1.16,7.15c0.78,1.3,2.11,1.94,4,1.94c1.86,0,3.14-0.45,3.84-1.36
			c0.7-0.9,1.1-2.54,1.2-4.91H44.23z"/>
		<path class="st0" d="M59.16,76.65h-3.5v12.77H48.6V54.47h11.26c3.54,0,6.27,0.92,8.2,2.75c1.93,1.83,2.89,4.44,2.89,7.81
			c0,4.64-1.69,7.89-5.07,9.75l6.12,14.31v0.34h-7.58L59.16,76.65z M55.66,70.77h4.01c1.41,0,2.46-0.47,3.17-1.4
			c0.7-0.94,1.06-2.19,1.06-3.76c0-3.5-1.37-5.26-4.11-5.26h-4.13V70.77z"/>
		<path class="st0" d="M98.53,54.47v24.2c-0.03,3.63-1.03,6.41-3,8.34c-1.97,1.93-4.79,2.89-8.47,2.89c-3.75,0-6.61-0.98-8.58-2.93
			s-2.96-4.78-2.96-8.47V54.47h7.11v24.05c0,1.98,0.32,3.4,0.96,4.25c0.64,0.85,1.8,1.27,3.48,1.27c1.68,0,2.83-0.42,3.46-1.26
			c0.62-0.84,0.94-2.22,0.96-4.14V54.47H98.53z"/>
		<path class="st0" d="M127.58,77.78c-0.18,3.99-1.3,7-3.36,9.05c-2.06,2.05-4.98,3.07-8.74,3.07c-3.95,0-6.98-1.3-9.09-3.9
			c-2.1-2.6-3.16-6.31-3.16-11.13V69c0-4.8,1.09-8.5,3.26-11.1c2.18-2.6,5.2-3.9,9.07-3.9c3.81,0,6.7,1.06,8.68,3.19
			c1.98,2.13,3.1,5.19,3.37,9.17h-7.08c-0.06-2.46-0.44-4.16-1.14-5.1s-1.97-1.4-3.83-1.4c-1.89,0-3.22,0.66-4.01,1.98
			s-1.2,3.49-1.25,6.52v6.6c0,3.47,0.39,5.86,1.16,7.15c0.78,1.3,2.11,1.94,4,1.94c1.86,0,3.14-0.45,3.84-1.36
			c0.7-0.9,1.1-2.54,1.2-4.91H127.58z"/>
		<path class="st0" d="M149.97,74.3h-10.99v9.27h13.01v5.86h-20.07V54.47h20.02v5.88h-12.96v8.26h10.99V74.3z"/>
		<path class="st0" d="M170.81,80.25c0-1.42-0.36-2.5-1.09-3.23s-2.05-1.48-3.97-2.27c-3.5-1.33-6.03-2.88-7.56-4.67
			s-2.3-3.89-2.3-6.33c0-2.94,1.04-5.31,3.13-7.09c2.09-1.78,4.74-2.68,7.96-2.68c2.14,0,4.06,0.45,5.74,1.36
			c1.68,0.9,2.97,2.18,3.88,3.83s1.36,3.52,1.36,5.62h-7.03c0-1.63-0.35-2.88-1.04-3.73c-0.7-0.86-1.7-1.28-3.01-1.28
			c-1.23,0-2.19,0.36-2.88,1.09c-0.69,0.73-1.03,1.71-1.03,2.94c0,0.96,0.38,1.83,1.15,2.6c0.77,0.78,2.13,1.58,4.08,2.41
			c3.41,1.23,5.88,2.75,7.43,4.54c1.54,1.79,2.32,4.07,2.32,6.84c0,3.04-0.97,5.42-2.91,7.13c-1.94,1.71-4.57,2.57-7.9,2.57
			c-2.26,0-4.31-0.46-6.17-1.39c-1.86-0.93-3.31-2.26-4.36-3.99c-1.05-1.73-1.57-3.77-1.57-6.12h7.08c0,2.02,0.39,3.48,1.18,4.39
			c0.78,0.91,2.06,1.37,3.84,1.37C169.58,84.17,170.81,82.86,170.81,80.25z"/>
		<path class="st0" d="M217.62,77.78c-0.18,3.99-1.3,7-3.36,9.05c-2.06,2.05-4.98,3.07-8.74,3.07c-3.95,0-6.98-1.3-9.09-3.9
			c-2.1-2.6-3.16-6.31-3.16-11.13V69c0-4.8,1.09-8.5,3.26-11.1c2.18-2.6,5.2-3.9,9.07-3.9c3.81,0,6.7,1.06,8.68,3.19
			c1.98,2.13,3.1,5.19,3.37,9.17h-7.08c-0.06-2.46-0.44-4.16-1.14-5.1s-1.97-1.4-3.83-1.4c-1.89,0-3.22,0.66-4.01,1.98
			s-1.2,3.49-1.25,6.52v6.6c0,3.47,0.39,5.86,1.16,7.15c0.78,1.3,2.11,1.94,4,1.94c1.86,0,3.14-0.45,3.84-1.36
			c0.7-0.9,1.1-2.54,1.2-4.91H217.62z"/>
		<path class="st0" d="M232.55,76.65h-3.5v12.77h-7.06V54.47h11.26c3.54,0,6.27,0.92,8.2,2.75c1.93,1.83,2.89,4.44,2.89,7.81
			c0,4.64-1.69,7.89-5.07,9.75l6.12,14.31v0.34h-7.58L232.55,76.65z M229.05,70.77h4.01c1.41,0,2.46-0.47,3.17-1.4
			c0.7-0.94,1.06-2.19,1.06-3.76c0-3.5-1.37-5.26-4.11-5.26h-4.13V70.77z"/>
		<path class="st0" d="M267.24,74.3h-10.99v9.27h13.01v5.86h-20.07V54.47h20.02v5.88h-12.96v8.26h10.99V74.3z"/>
		<path class="st0" d="M290,82.27h-9.63l-1.87,7.15h-7.47l10.92-34.95h6.46l10.99,34.95h-7.54L290,82.27z M281.91,76.39h6.53
			l-3.26-12.46L281.91,76.39z"/>
		<path class="st0" d="M322.43,60.35h-8.64v29.07h-7.08V60.35h-8.5v-5.88h24.22V60.35z"/>
		<path class="st0" d="M333.85,89.42h-7.06V54.47h7.06V89.42z"/>
		<path class="st0" d="M351.16,79.82l5.88-25.35h7.87l-10.08,34.95h-7.34l-10.01-34.95h7.83L351.16,79.82z"/>
		<path class="st0" d="M392.5,75.09c0,4.69-1.11,8.33-3.33,10.92c-2.22,2.59-5.29,3.89-9.23,3.89c-3.92,0-7-1.28-9.24-3.85
			c-2.24-2.57-3.38-6.17-3.41-10.79v-5.98c0-4.8,1.11-8.55,3.34-11.25c2.22-2.7,5.31-4.04,9.27-4.04c3.89,0,6.95,1.32,9.19,3.97
			c2.24,2.65,3.38,6.37,3.41,11.15V75.09z M385.42,69.24c0-3.15-0.45-5.5-1.34-7.03c-0.9-1.54-2.29-2.3-4.18-2.3
			c-1.87,0-3.26,0.74-4.15,2.22s-1.36,3.73-1.39,6.76v6.22c0,3.06,0.46,5.31,1.37,6.76c0.91,1.45,2.32,2.17,4.23,2.17
			c1.84,0,3.21-0.71,4.1-2.12c0.9-1.42,1.35-3.61,1.37-6.59V69.24z"/>
		<path class="st0" d="M412.33,80.25c0-1.42-0.36-2.5-1.09-3.23s-2.05-1.48-3.97-2.27c-3.5-1.33-6.03-2.88-7.56-4.67
			s-2.3-3.89-2.3-6.33c0-2.94,1.04-5.31,3.13-7.09c2.09-1.78,4.74-2.68,7.96-2.68c2.14,0,4.06,0.45,5.74,1.36
			c1.68,0.9,2.97,2.18,3.88,3.83s1.36,3.52,1.36,5.62h-7.03c0-1.63-0.35-2.88-1.04-3.73c-0.7-0.86-1.7-1.28-3.01-1.28
			c-1.23,0-2.19,0.36-2.88,1.09c-0.69,0.73-1.03,1.71-1.03,2.94c0,0.96,0.38,1.83,1.15,2.6c0.77,0.78,2.13,1.58,4.08,2.41
			c3.41,1.23,5.88,2.75,7.43,4.54c1.54,1.79,2.32,4.07,2.32,6.84c0,3.04-0.97,5.42-2.91,7.13c-1.94,1.71-4.57,2.57-7.9,2.57
			c-2.26,0-4.31-0.46-6.17-1.39c-1.86-0.93-3.31-2.26-4.36-3.99c-1.05-1.73-1.57-3.77-1.57-6.12h7.08c0,2.02,0.39,3.48,1.18,4.39
			c0.78,0.91,2.06,1.37,3.84,1.37C411.09,84.17,412.33,82.86,412.33,80.25z"/>
	</g>
	<g>
		<path d="M32.68,108.35H26.9v3.91h6.77v2.42H23.9v-14.59h9.76v2.44H26.9V106h5.77V108.35z"/>
		<path d="M47.71,114.68h-3.01l-5.85-9.6v9.6h-3.01v-14.59h3.01l5.86,9.62v-9.62h3V114.68z"/>
		<path d="M61.44,102.52h-4.47v12.15h-3.01v-12.15h-4.41v-2.44h11.88V102.52z"/>
		<path d="M68.96,109.33h-2.39v5.34h-3.01v-14.59h5.42c1.72,0,3.05,0.38,3.99,1.15c0.93,0.77,1.4,1.85,1.4,3.26
			c0,1-0.21,1.83-0.65,2.49c-0.43,0.67-1.08,1.19-1.96,1.59l3.16,5.96v0.14H71.7L68.96,109.33z M66.57,106.9h2.42
			c0.75,0,1.34-0.19,1.75-0.58c0.41-0.38,0.62-0.91,0.62-1.59c0-0.69-0.2-1.23-0.59-1.62s-0.99-0.59-1.8-0.59h-2.41V106.9z"/>
		<path d="M85.85,108.35h-5.77v3.91h6.77v2.42h-9.78v-14.59h9.76v2.44h-6.75V106h5.77V108.35z"/>
		<path d="M102.11,110.85c0-0.57-0.2-1-0.6-1.31c-0.4-0.3-1.12-0.62-2.16-0.96c-1.04-0.34-1.87-0.67-2.47-1
			c-1.66-0.9-2.48-2.1-2.48-3.62c0-0.79,0.22-1.49,0.67-2.11c0.44-0.62,1.08-1.1,1.91-1.45c0.83-0.35,1.76-0.52,2.8-0.52
			c1.04,0,1.97,0.19,2.79,0.57c0.81,0.38,1.45,0.91,1.9,1.6c0.45,0.69,0.68,1.47,0.68,2.34h-3.01c0-0.67-0.21-1.19-0.63-1.56
			c-0.42-0.37-1.01-0.56-1.77-0.56c-0.74,0-1.31,0.16-1.71,0.47c-0.41,0.31-0.61,0.72-0.61,1.23c0,0.47,0.24,0.87,0.72,1.19
			c0.48,0.32,1.18,0.62,2.11,0.9c1.71,0.51,2.96,1.15,3.74,1.91c0.78,0.76,1.17,1.71,1.17,2.85c0,1.26-0.48,2.25-1.43,2.97
			c-0.96,0.72-2.24,1.08-3.86,1.08c-1.12,0-2.14-0.21-3.07-0.62c-0.92-0.41-1.62-0.97-2.11-1.69c-0.48-0.71-0.73-1.54-0.73-2.48
			h3.02c0,1.61,0.96,2.42,2.89,2.42c0.71,0,1.27-0.15,1.67-0.44C101.91,111.78,102.11,111.37,102.11,110.85z"/>
		<path d="M118.55,102.52h-4.47v12.15h-3.01v-12.15h-4.41v-2.44h11.88V102.52z"/>
		<path d="M132.38,107.71c0,1.44-0.25,2.7-0.76,3.78s-1.23,1.92-2.18,2.5c-0.95,0.59-2.03,0.88-3.25,0.88
			c-1.21,0-2.29-0.29-3.24-0.87s-1.68-1.41-2.2-2.49c-0.52-1.08-0.79-2.32-0.79-3.72v-0.72c0-1.44,0.26-2.7,0.78-3.79
			c0.52-1.09,1.25-1.93,2.19-2.51c0.95-0.58,2.03-0.88,3.24-0.88c1.21,0,2.3,0.29,3.24,0.88c0.94,0.58,1.68,1.42,2.19,2.51
			c0.52,1.09,0.78,2.35,0.78,3.78V107.71z M129.33,107.05c0-1.53-0.27-2.69-0.82-3.49c-0.55-0.79-1.33-1.19-2.34-1.19
			c-1.01,0-1.79,0.39-2.33,1.18c-0.55,0.79-0.83,1.94-0.83,3.45v0.71c0,1.49,0.27,2.65,0.82,3.47c0.55,0.82,1.34,1.23,2.36,1.23
			c1.01,0,1.78-0.4,2.32-1.19c0.54-0.79,0.82-1.95,0.82-3.46V107.05z"/>
		<path d="M140.37,109.33h-2.39v5.34h-3.01v-14.59h5.42c1.72,0,3.05,0.38,3.99,1.15c0.93,0.77,1.4,1.85,1.4,3.26
			c0,1-0.21,1.83-0.65,2.49c-0.43,0.67-1.08,1.19-1.96,1.59l3.16,5.96v0.14h-3.23L140.37,109.33z M137.98,106.9h2.42
			c0.75,0,1.34-0.19,1.75-0.58c0.41-0.38,0.62-0.91,0.62-1.59c0-0.69-0.2-1.23-0.59-1.62s-0.99-0.59-1.8-0.59h-2.41V106.9z"/>
		<path d="M153.03,106.66l3.04-6.57h3.29l-4.79,9.3v5.29h-3.06v-5.29l-4.79-9.3h3.3L153.03,106.66z"/>
		<path d="M172.24,102.52h-4.47v12.15h-3.01v-12.15h-4.41v-2.44h11.88V102.52z"/>
		<path d="M183.14,108.35h-5.77v3.91h6.77v2.42h-9.78v-14.59h9.76v2.44h-6.75V106h5.77V108.35z"/>
		<path d="M189.33,112.26h6.38v2.42h-9.39v-14.59h3.01V112.26z"/>
		<path d="M200.85,112.26h6.38v2.42h-9.39v-14.59h3.01V112.26z"/>
		<path d="M212.56,114.68h-3.01v-14.59h3.01V114.68z"/>
		<path d="M227.62,114.68h-3.01l-5.85-9.6v9.6h-3.01v-14.59h3.01l5.86,9.62v-9.62h3V114.68z"/>
		<path d="M242.2,112.83c-0.54,0.65-1.31,1.15-2.29,1.51c-0.99,0.36-2.08,0.54-3.29,0.54c-1.26,0-2.37-0.28-3.32-0.83
			c-0.95-0.55-1.69-1.35-2.2-2.4c-0.52-1.05-0.78-2.28-0.8-3.7v-0.99c0-1.46,0.25-2.72,0.74-3.78c0.49-1.07,1.2-1.88,2.12-2.45
			c0.92-0.56,2.01-0.85,3.25-0.85c1.73,0,3.08,0.41,4.06,1.24c0.98,0.83,1.55,2.03,1.73,3.6h-2.93c-0.13-0.83-0.43-1.45-0.89-1.83
			c-0.46-0.39-1.09-0.58-1.89-0.58c-1.02,0-1.8,0.38-2.33,1.15c-0.54,0.77-0.81,1.91-0.81,3.43v0.93c0,1.53,0.29,2.69,0.87,3.47
			s1.43,1.17,2.56,1.17c1.13,0,1.93-0.24,2.41-0.72v-2.51h-2.74v-2.21h5.74V112.83z"/>
		<path d="M255.59,106.66l3.04-6.57h3.29l-4.79,9.3v5.29h-3.06v-5.29l-4.79-9.3h3.3L255.59,106.66z"/>
		<path d="M280.72,112.83c-0.54,0.65-1.31,1.15-2.29,1.51c-0.99,0.36-2.08,0.54-3.29,0.54c-1.26,0-2.37-0.28-3.32-0.83
			c-0.95-0.55-1.69-1.35-2.2-2.4c-0.52-1.05-0.78-2.28-0.8-3.7v-0.99c0-1.46,0.25-2.72,0.74-3.78c0.49-1.07,1.2-1.88,2.12-2.45
			c0.92-0.56,2.01-0.85,3.25-0.85c1.73,0,3.08,0.41,4.06,1.24c0.98,0.83,1.55,2.03,1.73,3.6h-2.93c-0.13-0.83-0.43-1.45-0.89-1.83
			c-0.46-0.39-1.09-0.58-1.89-0.58c-1.02,0-1.8,0.38-2.33,1.15c-0.54,0.77-0.81,1.91-0.81,3.43v0.93c0,1.53,0.29,2.69,0.87,3.47
			s1.43,1.17,2.56,1.17c1.13,0,1.93-0.24,2.41-0.72v-2.51h-2.74v-2.21h5.74V112.83z"/>
		<path d="M291.8,111.67h-5.27l-1,3.01h-3.2l5.43-14.59h2.79l5.46,14.59h-3.2L291.8,111.67z M287.34,109.24h3.65l-1.83-5.46
			L287.34,109.24z"/>
		<path d="M301.71,100.09l3.75,10.58l3.73-10.58h3.95v14.59h-3.02v-3.99l0.3-6.88l-3.94,10.87h-2.06l-3.93-10.86l0.3,6.87v3.99
			h-3.01v-14.59H301.71z"/>
		<path d="M319.36,114.68h-3.01v-14.59h3.01V114.68z"/>
		<path d="M331.34,108.71h-5.77v5.96h-3.01v-14.59h9.5v2.44h-6.49v3.77h5.77V108.71z"/>
		<path d="M337.41,114.68h-3.01v-14.59h3.01V114.68z"/>
		<path d="M352.06,109.82c-0.11,1.57-0.69,2.81-1.74,3.71c-1.05,0.9-2.42,1.35-4.13,1.35c-1.87,0-3.34-0.63-4.41-1.89
			c-1.07-1.26-1.61-2.99-1.61-5.18v-0.89c0-1.4,0.25-2.64,0.74-3.71c0.49-1.07,1.2-1.89,2.12-2.46c0.92-0.57,1.99-0.86,3.2-0.86
			c1.68,0,3.04,0.45,4.07,1.35c1.03,0.9,1.62,2.17,1.78,3.8h-3.01c-0.07-0.94-0.33-1.62-0.79-2.05c-0.45-0.42-1.14-0.64-2.06-0.64
			c-1,0-1.75,0.36-2.25,1.08c-0.5,0.72-0.75,1.83-0.77,3.34v1.1c0,1.58,0.24,2.73,0.72,3.46c0.48,0.73,1.23,1.09,2.26,1.09
			c0.93,0,1.62-0.21,2.08-0.64c0.46-0.42,0.72-1.08,0.79-1.97H352.06z"/>
		<path d="M362.68,111.67h-5.27l-1,3.01h-3.2l5.43-14.59h2.79l5.46,14.59h-3.2L362.68,111.67z M358.22,109.24h3.65l-1.83-5.46
			L358.22,109.24z"/>
		<path d="M379.9,109.82c-0.11,1.57-0.69,2.81-1.74,3.71c-1.05,0.9-2.42,1.35-4.13,1.35c-1.87,0-3.34-0.63-4.41-1.89
			c-1.07-1.26-1.61-2.99-1.61-5.18v-0.89c0-1.4,0.25-2.64,0.74-3.71c0.49-1.07,1.2-1.89,2.12-2.46c0.92-0.57,1.99-0.86,3.2-0.86
			c1.68,0,3.04,0.45,4.07,1.35c1.03,0.9,1.62,2.17,1.78,3.8h-3.01c-0.07-0.94-0.33-1.62-0.79-2.05c-0.45-0.42-1.14-0.64-2.06-0.64
			c-1,0-1.75,0.36-2.25,1.08c-0.5,0.72-0.75,1.83-0.77,3.34v1.1c0,1.58,0.24,2.73,0.72,3.46c0.48,0.73,1.23,1.09,2.26,1.09
			c0.93,0,1.62-0.21,2.08-0.64c0.46-0.42,0.72-1.08,0.79-1.97H379.9z"/>
		<path d="M385.48,114.68h-3.01v-14.59h3.01V114.68z"/>
		<path d="M400.66,107.71c0,1.44-0.25,2.7-0.76,3.78s-1.23,1.92-2.18,2.5c-0.95,0.59-2.03,0.88-3.25,0.88
			c-1.21,0-2.29-0.29-3.24-0.87s-1.68-1.41-2.2-2.49c-0.52-1.08-0.79-2.32-0.79-3.72v-0.72c0-1.44,0.26-2.7,0.78-3.79
			c0.52-1.09,1.25-1.93,2.19-2.51c0.95-0.58,2.03-0.88,3.24-0.88c1.21,0,2.3,0.29,3.24,0.88c0.94,0.58,1.68,1.42,2.19,2.51
			c0.52,1.09,0.78,2.35,0.78,3.78V107.71z M397.61,107.05c0-1.53-0.27-2.69-0.82-3.49s-1.33-1.19-2.34-1.19
			c-1.01,0-1.79,0.39-2.33,1.18c-0.55,0.79-0.83,1.94-0.83,3.45v0.71c0,1.49,0.27,2.65,0.82,3.47c0.55,0.82,1.34,1.23,2.36,1.23
			c1.01,0,1.78-0.4,2.32-1.19c0.54-0.79,0.82-1.95,0.82-3.46V107.05z M395.03,96.18h3.16l-2.78,3.11h-2.36L395.03,96.18z"/>
		<path d="M415.12,114.68h-3.01l-5.85-9.6v9.6h-3.01v-14.59h3.01l5.86,9.62v-9.62h3V114.68z"/>
	</g>
	<g>
		<path class="st1" d="M82.5,133.52c0,1.89-0.43,3.41-1.3,4.57c-0.87,1.16-2.04,1.73-3.51,1.73c-1.51,0-2.69-0.48-3.56-1.43v5.98H72
			v-17.2h1.94l0.1,1.38c0.87-1.07,2.07-1.61,3.61-1.61c1.49,0,2.67,0.56,3.54,1.69c0.87,1.12,1.3,2.69,1.3,4.7V133.52z
			 M80.37,133.28c0-1.4-0.3-2.51-0.9-3.32c-0.6-0.81-1.42-1.22-2.46-1.22c-1.29,0-2.25,0.57-2.89,1.71v5.94
			c0.63,1.13,1.61,1.7,2.92,1.7c1.02,0,1.83-0.4,2.43-1.21S80.37,134.87,80.37,133.28z"/>
		<path class="st1" d="M93.8,139.59c-0.12-0.25-0.22-0.68-0.3-1.31c-0.99,1.03-2.17,1.54-3.54,1.54c-1.22,0-2.23-0.35-3.01-1.04
			c-0.78-0.69-1.18-1.57-1.18-2.63c0-1.29,0.49-2.3,1.48-3.01s2.37-1.07,4.15-1.07h2.07v-0.98c0-0.74-0.22-1.33-0.67-1.77
			c-0.44-0.44-1.1-0.66-1.96-0.66c-0.76,0-1.39,0.19-1.91,0.57s-0.77,0.85-0.77,1.39h-2.14c0-0.62,0.22-1.22,0.66-1.8
			s1.04-1.04,1.79-1.37s1.58-0.5,2.49-0.5c1.43,0,2.55,0.36,3.36,1.07c0.81,0.72,1.23,1.7,1.26,2.96v5.72
			c0,1.14,0.15,2.05,0.44,2.72v0.18H93.8z M90.28,137.97c0.67,0,1.3-0.17,1.89-0.52c0.6-0.34,1.03-0.79,1.3-1.34v-2.55H91.8
			c-2.6,0-3.9,0.76-3.9,2.28c0,0.67,0.22,1.19,0.67,1.56C89.01,137.78,89.58,137.97,90.28,137.97z"/>
		<path class="st1" d="M105.87,129.07c-0.32-0.05-0.67-0.08-1.04-0.08c-1.39,0-2.34,0.59-2.84,1.78v8.82h-2.12v-12.42h2.07
			l0.03,1.43c0.7-1.11,1.68-1.66,2.96-1.66c0.41,0,0.73,0.05,0.94,0.16V129.07z"/>
		<path class="st1" d="M115.97,139.59c-0.12-0.25-0.22-0.68-0.3-1.31c-0.99,1.03-2.17,1.54-3.54,1.54c-1.22,0-2.23-0.35-3.01-1.04
			c-0.78-0.69-1.18-1.57-1.18-2.63c0-1.29,0.49-2.3,1.48-3.01s2.37-1.07,4.15-1.07h2.07v-0.98c0-0.74-0.22-1.33-0.67-1.77
			c-0.44-0.44-1.1-0.66-1.96-0.66c-0.76,0-1.39,0.19-1.91,0.57s-0.77,0.85-0.77,1.39h-2.14c0-0.62,0.22-1.22,0.66-1.8
			s1.04-1.04,1.79-1.37s1.58-0.5,2.49-0.5c1.43,0,2.55,0.36,3.36,1.07c0.81,0.72,1.23,1.7,1.26,2.96v5.72
			c0,1.14,0.15,2.05,0.44,2.72v0.18H115.97z M112.45,137.97c0.67,0,1.3-0.17,1.89-0.52c0.6-0.34,1.03-0.79,1.3-1.34v-2.55h-1.67
			c-2.6,0-3.9,0.76-3.9,2.28c0,0.67,0.22,1.19,0.67,1.56C111.18,137.78,111.75,137.97,112.45,137.97z"/>
		<path class="st1" d="M139.28,133.52c0,1.89-0.43,3.41-1.3,4.57c-0.87,1.16-2.04,1.73-3.51,1.73c-1.51,0-2.69-0.48-3.56-1.43v5.98
			h-2.12v-17.2h1.94l0.1,1.38c0.87-1.07,2.07-1.61,3.61-1.61c1.49,0,2.67,0.56,3.54,1.69c0.87,1.12,1.3,2.69,1.3,4.7V133.52z
			 M137.16,133.28c0-1.4-0.3-2.51-0.9-3.32c-0.6-0.81-1.42-1.22-2.46-1.22c-1.29,0-2.25,0.57-2.89,1.71v5.94
			c0.63,1.13,1.61,1.7,2.92,1.7c1.02,0,1.83-0.4,2.43-1.21S137.16,134.87,137.16,133.28z"/>
		<path class="st1" d="M148.93,129.07c-0.32-0.05-0.67-0.08-1.04-0.08c-1.39,0-2.34,0.59-2.84,1.78v8.82h-2.12v-12.42h2.07
			l0.03,1.43c0.7-1.11,1.68-1.66,2.96-1.66c0.41,0,0.73,0.05,0.94,0.16V129.07z"/>
		<path class="st1" d="M151.03,133.27c0-1.22,0.24-2.31,0.72-3.28c0.48-0.97,1.14-1.72,2-2.25s1.83-0.79,2.92-0.79
			c1.69,0,3.06,0.58,4.1,1.76s1.57,2.73,1.57,4.67v0.15c0,1.21-0.23,2.29-0.7,3.25c-0.46,0.96-1.12,1.71-1.99,2.24
			c-0.86,0.54-1.85,0.8-2.97,0.8c-1.68,0-3.05-0.58-4.09-1.76c-1.04-1.17-1.57-2.72-1.57-4.65V133.27z M153.16,133.52
			c0,1.38,0.32,2.48,0.96,3.32c0.64,0.83,1.49,1.25,2.57,1.25c1.08,0,1.94-0.42,2.57-1.27s0.95-2.03,0.95-3.55
			c0-1.36-0.32-2.47-0.97-3.31c-0.65-0.85-1.51-1.27-2.58-1.27c-1.05,0-1.89,0.42-2.54,1.25S153.16,131.96,153.16,133.52z"/>
		<path class="st1" d="M169.83,136.48l2.89-9.31H175L170,141.51c-0.77,2.07-2,3.1-3.69,3.1l-0.4-0.03l-0.79-0.15v-1.72l0.57,0.05
			c0.72,0,1.28-0.15,1.68-0.44c0.4-0.29,0.73-0.82,0.99-1.6l0.47-1.26l-4.43-12.28h2.32L169.83,136.48z"/>
		<path class="st1" d="M182.84,139.82c-1.68,0-3.05-0.55-4.11-1.66c-1.06-1.11-1.58-2.58-1.58-4.44v-0.39c0-1.23,0.24-2.33,0.71-3.3
			s1.13-1.73,1.97-2.27c0.85-0.55,1.76-0.82,2.75-0.82c1.62,0,2.87,0.53,3.77,1.6c0.9,1.06,1.34,2.59,1.34,4.57v0.88h-8.42
			c0.03,1.22,0.39,2.21,1.07,2.97c0.69,0.75,1.56,1.13,2.61,1.13c0.75,0,1.38-0.15,1.91-0.46c0.52-0.31,0.98-0.71,1.37-1.22
			l1.3,1.01C186.48,139.02,184.92,139.82,182.84,139.82z M182.57,128.69c-0.86,0-1.58,0.31-2.16,0.94c-0.58,0.62-0.94,1.5-1.08,2.62
			h6.22v-0.16c-0.06-1.08-0.35-1.92-0.87-2.51C184.17,128.98,183.46,128.69,182.57,128.69z"/>
		<path class="st1" d="M196.06,138.09c0.76,0,1.42-0.23,1.99-0.69c0.57-0.46,0.88-1.03,0.94-1.72H201
			c-0.04,0.71-0.28,1.39-0.73,2.03c-0.45,0.64-1.05,1.16-1.81,1.54s-1.55,0.57-2.39,0.57c-1.69,0-3.04-0.56-4.04-1.69
			s-1.5-2.67-1.5-4.63v-0.36c0-1.21,0.22-2.29,0.67-3.23c0.44-0.94,1.08-1.67,1.91-2.19c0.83-0.52,1.81-0.78,2.94-0.78
			c1.39,0,2.55,0.42,3.47,1.25c0.92,0.83,1.41,1.92,1.47,3.25h-2.01c-0.06-0.8-0.37-1.46-0.91-1.98c-0.55-0.52-1.22-0.77-2.03-0.77
			c-1.08,0-1.92,0.39-2.51,1.17c-0.59,0.78-0.89,1.9-0.89,3.37v0.4c0,1.43,0.29,2.53,0.88,3.31
			C194.13,137.7,194.97,138.09,196.06,138.09z"/>
		<path class="st1" d="M207.21,124.16v3.01h2.32v1.64h-2.32v7.71c0,0.5,0.1,0.87,0.31,1.12s0.56,0.37,1.06,0.37
			c0.24,0,0.58-0.05,1.01-0.14v1.71c-0.56,0.15-1.1,0.23-1.63,0.23c-0.95,0-1.67-0.29-2.15-0.86c-0.48-0.57-0.72-1.39-0.72-2.45
			v-7.7h-2.26v-1.64h2.26v-3.01H207.21z"/>
		<path class="st1" d="M212.16,133.27c0-1.22,0.24-2.31,0.72-3.28c0.48-0.97,1.14-1.72,2-2.25s1.83-0.79,2.92-0.79
			c1.69,0,3.06,0.58,4.1,1.76s1.57,2.73,1.57,4.67v0.15c0,1.21-0.23,2.29-0.7,3.25c-0.46,0.96-1.12,1.71-1.99,2.24
			c-0.86,0.54-1.85,0.8-2.97,0.8c-1.68,0-3.05-0.58-4.09-1.76c-1.04-1.17-1.57-2.72-1.57-4.65V133.27z M214.29,133.52
			c0,1.38,0.32,2.48,0.96,3.32c0.64,0.83,1.49,1.25,2.57,1.25c1.08,0,1.94-0.42,2.57-1.27s0.95-2.03,0.95-3.55
			c0-1.36-0.32-2.47-0.97-3.31c-0.65-0.85-1.51-1.27-2.58-1.27c-1.05,0-1.89,0.42-2.54,1.25S214.29,131.96,214.29,133.52z"/>
		<path class="st1" d="M234.3,136.3c0-0.57-0.22-1.02-0.65-1.34c-0.43-0.32-1.19-0.59-2.26-0.82s-1.93-0.5-2.56-0.83
			c-0.63-0.32-1.1-0.7-1.4-1.15c-0.3-0.44-0.45-0.97-0.45-1.58c0-1.02,0.43-1.88,1.29-2.58c0.86-0.7,1.96-1.06,3.3-1.06
			c1.41,0,2.55,0.36,3.43,1.09c0.88,0.73,1.31,1.66,1.31,2.79h-2.14c0-0.58-0.25-1.08-0.74-1.5c-0.49-0.42-1.12-0.63-1.87-0.63
			c-0.77,0-1.38,0.17-1.81,0.5s-0.65,0.78-0.65,1.32c0,0.51,0.2,0.9,0.61,1.16c0.41,0.26,1.14,0.51,2.2,0.75
			c1.06,0.24,1.92,0.52,2.58,0.85s1.15,0.73,1.46,1.19s0.48,1.03,0.48,1.69c0,1.11-0.44,2-1.33,2.67c-0.89,0.67-2.04,1-3.46,1
			c-1,0-1.88-0.18-2.64-0.53c-0.77-0.35-1.36-0.84-1.8-1.47c-0.43-0.63-0.65-1.31-0.65-2.05h2.12c0.04,0.71,0.32,1.28,0.86,1.69
			c0.53,0.42,1.23,0.63,2.11,0.63c0.8,0,1.45-0.16,1.93-0.49C234.06,137.27,234.3,136.84,234.3,136.3z"/>
		<path class="st1" d="M254.56,139.59c-0.12-0.25-0.22-0.68-0.3-1.31c-0.99,1.03-2.17,1.54-3.54,1.54c-1.22,0-2.23-0.35-3.01-1.04
			c-0.78-0.69-1.18-1.57-1.18-2.63c0-1.29,0.49-2.3,1.48-3.01s2.37-1.07,4.15-1.07h2.07v-0.98c0-0.74-0.22-1.33-0.67-1.77
			c-0.44-0.44-1.1-0.66-1.96-0.66c-0.76,0-1.39,0.19-1.91,0.57s-0.77,0.85-0.77,1.39h-2.14c0-0.62,0.22-1.22,0.66-1.8
			s1.04-1.04,1.79-1.37s1.58-0.5,2.49-0.5c1.43,0,2.55,0.36,3.36,1.07c0.81,0.72,1.23,1.7,1.26,2.96v5.72
			c0,1.14,0.15,2.05,0.44,2.72v0.18H254.56z M251.04,137.97c0.67,0,1.3-0.17,1.89-0.52c0.6-0.34,1.03-0.79,1.3-1.34v-2.55h-1.67
			c-2.6,0-3.9,0.76-3.9,2.28c0,0.67,0.22,1.19,0.67,1.56C249.77,137.78,250.34,137.97,251.04,137.97z"/>
		<path class="st1" d="M266.87,133.28c0-1.91,0.45-3.44,1.35-4.6c0.9-1.16,2.09-1.74,3.55-1.74c1.45,0,2.61,0.5,3.46,1.49v-6.48
			h2.12v17.63h-1.95l-0.1-1.33c-0.85,1.04-2.03,1.56-3.55,1.56c-1.44,0-2.61-0.59-3.52-1.77s-1.36-2.72-1.36-4.62V133.28z
			 M268.99,133.52c0,1.41,0.29,2.51,0.87,3.31c0.58,0.8,1.39,1.19,2.41,1.19c1.35,0,2.33-0.6,2.95-1.81v-5.71
			c-0.63-1.17-1.61-1.76-2.93-1.76c-1.04,0-1.85,0.4-2.43,1.21C269.28,130.75,268.99,131.94,268.99,133.52z"/>
		<path class="st1" d="M281.6,123.87c0-0.34,0.1-0.64,0.32-0.87c0.21-0.24,0.52-0.36,0.94-0.36s0.73,0.12,0.94,0.36
			s0.32,0.53,0.32,0.87c0,0.34-0.11,0.63-0.32,0.86c-0.21,0.23-0.53,0.34-0.94,0.34s-0.73-0.11-0.94-0.34
			C281.7,124.51,281.6,124.22,281.6,123.87z M283.89,139.59h-2.12v-12.42h2.12V139.59z"/>
		<path class="st1" d="M295.47,136.3c0-0.57-0.22-1.02-0.65-1.34c-0.43-0.32-1.19-0.59-2.26-0.82s-1.93-0.5-2.56-0.83
			c-0.63-0.32-1.1-0.7-1.4-1.15c-0.3-0.44-0.45-0.97-0.45-1.58c0-1.02,0.43-1.88,1.29-2.58c0.86-0.7,1.96-1.06,3.3-1.06
			c1.41,0,2.55,0.36,3.43,1.09c0.88,0.73,1.31,1.66,1.31,2.79h-2.14c0-0.58-0.25-1.08-0.74-1.5c-0.49-0.42-1.12-0.63-1.87-0.63
			c-0.77,0-1.38,0.17-1.81,0.5s-0.65,0.78-0.65,1.32c0,0.51,0.2,0.9,0.61,1.16c0.41,0.26,1.14,0.51,2.2,0.75
			c1.06,0.24,1.92,0.52,2.58,0.85s1.15,0.73,1.46,1.19s0.48,1.03,0.48,1.69c0,1.11-0.44,2-1.33,2.67c-0.89,0.67-2.04,1-3.46,1
			c-1,0-1.88-0.18-2.64-0.53c-0.77-0.35-1.36-0.84-1.8-1.47c-0.43-0.63-0.65-1.31-0.65-2.05h2.12c0.04,0.71,0.32,1.28,0.86,1.69
			c0.53,0.42,1.23,0.63,2.11,0.63c0.8,0,1.45-0.16,1.93-0.49C295.22,137.27,295.47,136.84,295.47,136.3z"/>
		<path class="st1" d="M304.18,124.16v3.01h2.32v1.64h-2.32v7.71c0,0.5,0.1,0.87,0.31,1.12s0.56,0.37,1.06,0.37
			c0.24,0,0.58-0.05,1.01-0.14v1.71c-0.56,0.15-1.1,0.23-1.63,0.23c-0.95,0-1.67-0.29-2.15-0.86c-0.48-0.57-0.72-1.39-0.72-2.45
			v-7.7h-2.26v-1.64h2.26v-3.01H304.18z"/>
		<path class="st1" d="M317.59,139.59c-0.12-0.25-0.22-0.68-0.3-1.31c-0.99,1.03-2.17,1.54-3.54,1.54c-1.22,0-2.23-0.35-3.01-1.04
			c-0.78-0.69-1.18-1.57-1.18-2.63c0-1.29,0.49-2.3,1.48-3.01s2.37-1.07,4.15-1.07h2.07v-0.98c0-0.74-0.22-1.33-0.67-1.77
			c-0.44-0.44-1.1-0.66-1.96-0.66c-0.76,0-1.39,0.19-1.91,0.57s-0.77,0.85-0.77,1.39h-2.14c0-0.62,0.22-1.22,0.66-1.8
			s1.04-1.04,1.79-1.37s1.58-0.5,2.49-0.5c1.43,0,2.55,0.36,3.36,1.07c0.81,0.72,1.23,1.7,1.26,2.96v5.72
			c0,1.14,0.15,2.05,0.44,2.72v0.18H317.59z M314.06,137.97c0.67,0,1.3-0.17,1.89-0.52c0.6-0.34,1.03-0.79,1.3-1.34v-2.55h-1.67
			c-2.6,0-3.9,0.76-3.9,2.28c0,0.67,0.22,1.19,0.67,1.56C312.8,137.78,313.37,137.97,314.06,137.97z"/>
		<path class="st1" d="M325.66,127.17l0.07,1.56c0.95-1.19,2.19-1.79,3.72-1.79c2.62,0,3.95,1.48,3.97,4.44v8.21h-2.12v-8.22
			c-0.01-0.9-0.21-1.56-0.61-1.99c-0.4-0.43-1.03-0.64-1.88-0.64c-0.69,0-1.29,0.18-1.81,0.55c-0.52,0.37-0.93,0.85-1.22,1.45v8.85
			h-2.12v-12.42H325.66z"/>
		<path class="st1" d="M342.55,138.09c0.76,0,1.42-0.23,1.99-0.69c0.57-0.46,0.88-1.03,0.94-1.72h2.01
			c-0.04,0.71-0.28,1.39-0.73,2.03c-0.45,0.64-1.05,1.16-1.81,1.54s-1.55,0.57-2.39,0.57c-1.69,0-3.04-0.56-4.04-1.69
			s-1.5-2.67-1.5-4.63v-0.36c0-1.21,0.22-2.29,0.67-3.23c0.44-0.94,1.08-1.67,1.91-2.19c0.83-0.52,1.81-0.78,2.94-0.78
			c1.39,0,2.55,0.42,3.47,1.25c0.92,0.83,1.41,1.92,1.47,3.25h-2.01c-0.06-0.8-0.37-1.46-0.91-1.98c-0.55-0.52-1.22-0.77-2.03-0.77
			c-1.08,0-1.92,0.39-2.51,1.17c-0.59,0.78-0.89,1.9-0.89,3.37v0.4c0,1.43,0.29,2.53,0.88,3.31
			C340.61,137.7,341.45,138.09,342.55,138.09z"/>
		<path class="st1" d="M350.82,123.87c0-0.34,0.1-0.64,0.32-0.87c0.21-0.24,0.52-0.36,0.94-0.36s0.73,0.12,0.94,0.36
			s0.32,0.53,0.32,0.87c0,0.34-0.11,0.63-0.32,0.86c-0.21,0.23-0.53,0.34-0.94,0.34s-0.73-0.11-0.94-0.34
			C350.93,124.51,350.82,124.22,350.82,123.87z M353.12,139.59h-2.12v-12.42h2.12V139.59z"/>
		<path class="st1" d="M365.13,139.59c-0.12-0.25-0.22-0.68-0.3-1.31c-0.99,1.03-2.17,1.54-3.54,1.54c-1.22,0-2.23-0.35-3.01-1.04
			c-0.78-0.69-1.18-1.57-1.18-2.63c0-1.29,0.49-2.3,1.48-3.01s2.37-1.07,4.15-1.07h2.07v-0.98c0-0.74-0.22-1.33-0.67-1.77
			c-0.44-0.44-1.1-0.66-1.96-0.66c-0.76,0-1.39,0.19-1.91,0.57s-0.77,0.85-0.77,1.39h-2.14c0-0.62,0.22-1.22,0.66-1.8
			s1.04-1.04,1.79-1.37s1.58-0.5,2.49-0.5c1.43,0,2.55,0.36,3.36,1.07c0.81,0.72,1.23,1.7,1.26,2.96v5.72
			c0,1.14,0.15,2.05,0.44,2.72v0.18H365.13z M361.6,137.97c0.67,0,1.3-0.17,1.89-0.52c0.6-0.34,1.03-0.79,1.3-1.34v-2.55h-1.67
			c-2.6,0-3.9,0.76-3.9,2.28c0,0.67,0.22,1.19,0.67,1.56C360.34,137.78,360.91,137.97,361.6,137.97z"/>
	</g>
</g>
<g>
	<defs>
		<polygon id="SVGID_1_" points="601.47,200.71 253.16,200.71 252.15,0.43 600.47,0.43 		"/>
	</defs>
	<clipPath id="SVGID_00000140726825896883402970000001522370634637679758_">
		<use xlink:href="#SVGID_1_"  style="overflow:visible;"/>
	</clipPath>
	<defs>
		<filter id="Adobe_OpacityMaskFilter" filterUnits="userSpaceOnUse" x="330.28" y="-119.52" width="603.77" height="520.88">
			<feColorMatrix  type="matrix" values="1 0 0 0 0  0 1 0 0 0  0 0 1 0 0  0 0 0 1 0"/>
		</filter>
	</defs>
	
		<mask maskUnits="userSpaceOnUse" x="330.28" y="-119.52" width="603.77" height="520.88" id="SVGID_00000101081964846143390780000016437953411467731588_">
		<g id="XMLID_00000178905843639639817630000006436528411524043698_" class="st2">
			
				<linearGradient id="SVGID_00000133507622488295331940000010625808520484307359_" gradientUnits="userSpaceOnUse" x1="445.7914" y1="0.8394" x2="445.7914" y2="309.7218" gradientTransform="matrix(1.0217 -0.5381 -0.0389 0.9992 186.1673 161.4417)">
				<stop  offset="0" style="stop-color:#FFFFFF"/>
				<stop  offset="0.2104" style="stop-color:#A09998"/>
				<stop  offset="0.4214" style="stop-color:#5B5251"/>
				<stop  offset="0.6138" style="stop-color:#2F2828"/>
				<stop  offset="0.7803" style="stop-color:#141111"/>
				<stop  offset="0.9147" style="stop-color:#040303"/>
				<stop  offset="1" style="stop-color:#000000"/>
			</linearGradient>
			
				<polygon style="clip-path:url(#SVGID_00000140726825896883402970000001522370634637679758_);fill:url(#SVGID_00000133507622488295331940000010625808520484307359_);" points="
				964.84,71.41 292.99,425.19 308.73,20.82 980.58,-332.96 			"/>
		</g>
	</mask>
	
		<g style="clip-path:url(#SVGID_00000140726825896883402970000001522370634637679758_);mask:url(#SVGID_00000101081964846143390780000016437953411467731588_);">
		<g>
			<g>
				<path class="st5" d="M642.7-49.81C788.57-126.62,905.22-60.6,905.48,98.47l-11.79,6.21C892.64-49.43,784.88-114.1,643.13-39.46
					C501.39,35.18,380.1,220.47,368.3,381.34l-8.15,4.29C372.8,219.77,496.83,27.01,642.7-49.81z"/>
			</g>
		</g>
		<g class="st6">
			<g>
				<g>
					<path class="st7" d="M642.64-34.73c137.62-72.47,249.14-9.69,249.72,140.12l-11.3,5.95C880.3-33.85,775.3-94.92,641.79-24.61
						c-133.51,70.3-247.08,246.46-258.53,398.07l-8.12,4.27C387.41,221.17,505.02,37.73,642.64-34.73z"/>
				</g>
			</g>
			<g>
				<g>
					<path class="st8" d="M642.4-41.41c141.75-74.64,253.19-9.57,253.61,144.86l-6.85,3.6C887.94-42.4,779.72-105.48,642.09-33.01
						s-254.68,254.18-266.31,410.4l-8.12,4.27C380.1,220.47,500.65,33.23,642.4-41.41z"/>
				</g>
			</g>
			<g>
				<g>
					<path class="st9" d="M643.33-67.33C797.8-148.67,919.16-77.42,919.08,91.3L911,95.56C911.52-68.84,793.37-138.1,643.03-58.93
						C492.69,20.24,366.94,217.92,354.79,388.45l-11.58,6.1C354.91,219.71,488.87,14.01,643.33-67.33z"/>
				</g>
			</g>
			<g>
				<g>
					<path class="st10" d="M643.94-84.13c162.7-85.68,290.5-10.43,290.11,167.55l-8.12,4.27c0.87-173.69-123.7-246.94-282.29-163.43
						C485.06,7.78,352.96,216.19,340.46,396l-10.18,5.36C342.95,216.91,481.24,1.55,643.94-84.13z"/>
				</g>
			</g>
		</g>
		<g>
			<g>
				<path class="st11" d="M643.03-58.93C793.37-138.1,911.52-68.84,911.6,95.25l-7.44,3.92C903.22-59.55,788.57-126.62,642.7-49.81
					S372.8,219.77,360.83,385.27l-7.52,3.96C364.86,219.02,492.69,20.24,643.03-58.93z"/>
			</g>
		</g>
		<g>
			<g>
				<path class="st12" d="M643.64-75.73c158.59-83.51,283.17-10.26,282.92,163.1l-8.12,4.27C919.16-77.42,797.8-148.67,643.33-67.33
					S357.56,218.32,345.23,393.49l-6.83,3.6C350.25,217.61,485.06,7.78,643.64-75.73z"/>
			</g>
		</g>
	</g>
</g>
<g>
	<defs>
		<path id="SVGID_00000124854718682214110750000011519757073193879717_" d="M600.47,200.71H433.63c0,0,20.42-43.51,61.01-96.2
			C548.33,34.8,601.13,0.43,601.13,0.43h-0.67V200.71z"/>
	</defs>
	<use xlink:href="#SVGID_00000124854718682214110750000011519757073193879717_"  style="overflow:visible;fill:#92B57E;"/>
	<clipPath id="SVGID_00000085214780020017747940000001732265462883675030_">
		<use xlink:href="#SVGID_00000124854718682214110750000011519757073193879717_"  style="overflow:visible;"/>
	</clipPath>
	<g style="clip-path:url(#SVGID_00000085214780020017747940000001732265462883675030_);">
		<path class="st1" d="M884.87-131.87c0,2.52-0.58,4.56-1.73,6.1c-1.16,1.54-2.72,2.31-4.69,2.31c-2.01,0-3.6-0.64-4.75-1.92v7.99
			h-2.83v-22.96h2.59l0.14,1.84c1.15-1.43,2.76-2.15,4.81-2.15c1.99,0,3.57,0.75,4.73,2.25c1.16,1.5,1.74,3.59,1.74,6.27V-131.87z
			 M882.03-132.19c0-1.87-0.4-3.35-1.2-4.43c-0.8-1.08-1.89-1.62-3.28-1.62c-1.72,0-3,0.76-3.86,2.28v7.93
			c0.85,1.51,2.15,2.27,3.89,2.27c1.36,0,2.44-0.54,3.24-1.62C881.63-128.47,882.03-130.07,882.03-132.19z"/>
		<path class="st1" d="M899.97-123.76c-0.16-0.33-0.3-0.91-0.4-1.75c-1.32,1.37-2.89,2.05-4.72,2.05c-1.63,0-2.98-0.46-4.02-1.39
			c-1.05-0.92-1.57-2.1-1.57-3.52c0-1.73,0.66-3.07,1.97-4.02c1.31-0.96,3.16-1.43,5.54-1.43h2.76v-1.3c0-0.99-0.3-1.78-0.89-2.37
			s-1.47-0.88-2.62-0.88c-1.01,0-1.86,0.26-2.54,0.77c-0.69,0.51-1.03,1.13-1.03,1.85h-2.85c0-0.83,0.29-1.63,0.88-2.4
			c0.59-0.77,1.38-1.38,2.39-1.83c1.01-0.45,2.11-0.67,3.32-0.67c1.91,0,3.41,0.48,4.49,1.43c1.08,0.96,1.65,2.27,1.69,3.95v7.63
			c0,1.52,0.19,2.73,0.58,3.63v0.25H899.97z M895.26-125.93c0.89,0,1.73-0.23,2.53-0.69c0.8-0.46,1.37-1.06,1.73-1.79v-3.4h-2.22
			c-3.47,0-5.21,1.02-5.21,3.05c0,0.89,0.3,1.58,0.89,2.08C893.57-126.18,894.33-125.93,895.26-125.93z"/>
		<path class="st1" d="M916.08-137.81c-0.43-0.07-0.89-0.11-1.4-0.11c-1.86,0-3.12,0.79-3.79,2.38v11.77h-2.83v-16.59h2.76
			l0.05,1.92c0.93-1.48,2.25-2.22,3.96-2.22c0.55,0,0.97,0.07,1.26,0.21V-137.81z"/>
		<path class="st1" d="M929.57-123.76c-0.16-0.33-0.3-0.91-0.4-1.75c-1.32,1.37-2.89,2.05-4.72,2.05c-1.63,0-2.98-0.46-4.02-1.39
			c-1.05-0.92-1.57-2.1-1.57-3.52c0-1.73,0.66-3.07,1.97-4.02c1.31-0.96,3.16-1.43,5.54-1.43h2.76v-1.3c0-0.99-0.3-1.78-0.89-2.37
			s-1.47-0.88-2.62-0.88c-1.01,0-1.86,0.26-2.54,0.77c-0.69,0.51-1.03,1.13-1.03,1.85h-2.85c0-0.83,0.29-1.63,0.88-2.4
			c0.59-0.77,1.38-1.38,2.39-1.83c1.01-0.45,2.11-0.67,3.32-0.67c1.91,0,3.41,0.48,4.49,1.43c1.08,0.96,1.65,2.27,1.69,3.95v7.63
			c0,1.52,0.19,2.73,0.58,3.63v0.25H929.57z M924.86-125.93c0.89,0,1.73-0.23,2.53-0.69c0.8-0.46,1.37-1.06,1.73-1.79v-3.4h-2.22
			c-3.47,0-5.21,1.02-5.21,3.05c0,0.89,0.3,1.58,0.89,2.08C923.17-126.18,923.93-125.93,924.86-125.93z"/>
		<path class="st1" d="M960.69-131.87c0,2.52-0.58,4.56-1.73,6.1c-1.16,1.54-2.72,2.31-4.69,2.31c-2.01,0-3.6-0.64-4.75-1.92v7.99
			h-2.83v-22.96h2.59l0.14,1.84c1.15-1.43,2.76-2.15,4.81-2.15c1.99,0,3.57,0.75,4.73,2.25c1.16,1.5,1.74,3.59,1.74,6.27V-131.87z
			 M957.86-132.19c0-1.87-0.4-3.35-1.2-4.43c-0.8-1.08-1.89-1.62-3.28-1.62c-1.72,0-3,0.76-3.86,2.28v7.93
			c0.85,1.51,2.15,2.27,3.89,2.27c1.36,0,2.44-0.54,3.24-1.62C957.46-128.47,957.86-130.07,957.86-132.19z"/>
		<path class="st1" d="M973.57-137.81c-0.43-0.07-0.89-0.11-1.4-0.11c-1.86,0-3.12,0.79-3.79,2.38v11.77h-2.83v-16.59h2.76
			l0.05,1.92c0.93-1.48,2.25-2.22,3.96-2.22c0.55,0,0.97,0.07,1.26,0.21V-137.81z"/>
		<path class="st1" d="M976.37-132.21c0-1.62,0.32-3.09,0.96-4.38s1.53-2.3,2.67-3c1.14-0.71,2.44-1.06,3.9-1.06
			c2.26,0,4.09,0.78,5.48,2.35s2.09,3.64,2.09,6.24v0.2c0,1.62-0.31,3.06-0.93,4.35c-0.62,1.28-1.5,2.28-2.65,3
			c-1.15,0.72-2.47,1.07-3.96,1.07c-2.25,0-4.07-0.78-5.46-2.35s-2.09-3.63-2.09-6.21V-132.21z M979.22-131.87
			c0,1.84,0.43,3.32,1.28,4.43c0.85,1.11,2,1.67,3.43,1.67c1.44,0,2.58-0.56,3.43-1.69c0.85-1.13,1.27-2.71,1.27-4.74
			c0-1.82-0.43-3.29-1.3-4.42s-2.01-1.69-3.44-1.69c-1.4,0-2.53,0.56-3.39,1.67C979.65-135.54,979.22-133.95,979.22-131.87z"/>
		<path class="st1" d="M1001.48-127.92l3.86-12.43h3.04l-6.67,19.15c-1.03,2.76-2.67,4.14-4.92,4.14l-0.54-0.05l-1.06-0.2v-2.3
			l0.77,0.06c0.96,0,1.71-0.19,2.25-0.58s0.98-1.1,1.33-2.13l0.63-1.69l-5.92-16.4h3.1L1001.48-127.92z"/>
		<path class="st1" d="M1018.85-123.46c-2.25,0-4.08-0.74-5.49-2.21s-2.12-3.45-2.12-5.92v-0.52c0-1.64,0.31-3.11,0.94-4.41
			c0.63-1.29,1.51-2.3,2.64-3.04s2.35-1.1,3.67-1.1c2.16,0,3.83,0.71,5.03,2.13c1.2,1.42,1.79,3.45,1.79,6.1v1.18h-11.24
			c0.04,1.63,0.52,2.96,1.43,3.96c0.92,1.01,2.08,1.51,3.49,1.51c1,0,1.85-0.2,2.54-0.61c0.69-0.41,1.3-0.95,1.82-1.62l1.73,1.35
			C1023.71-124.52,1021.63-123.46,1018.85-123.46z M1018.5-138.33c-1.14,0-2.11,0.42-2.88,1.25c-0.78,0.83-1.26,2-1.44,3.5h8.31
			v-0.21c-0.08-1.44-0.47-2.56-1.17-3.35C1020.62-137.93,1019.68-138.33,1018.5-138.33z"/>
		<path class="st1" d="M1036.51-125.77c1.01,0,1.9-0.31,2.65-0.92c0.76-0.61,1.18-1.38,1.26-2.3h2.68
			c-0.05,0.95-0.38,1.86-0.98,2.71c-0.6,0.86-1.41,1.54-2.41,2.05c-1.01,0.51-2.07,0.77-3.2,0.77c-2.26,0-4.05-0.75-5.39-2.26
			c-1.33-1.51-2-3.57-2-6.19v-0.47c0-1.62,0.3-3.05,0.89-4.31s1.44-2.23,2.55-2.93c1.11-0.7,2.42-1.04,3.93-1.04
			c1.86,0,3.41,0.56,4.64,1.67c1.23,1.11,1.89,2.56,1.97,4.34h-2.68c-0.08-1.07-0.49-1.95-1.22-2.64c-0.73-0.69-1.63-1.04-2.71-1.04
			c-1.44,0-2.56,0.52-3.35,1.56c-0.79,1.04-1.19,2.54-1.19,4.5v0.54c0,1.91,0.39,3.38,1.18,4.41
			C1033.92-126.29,1035.04-125.77,1036.51-125.77z"/>
		<path class="st1" d="M1051.39-144.37v4.02h3.1v2.19h-3.1v10.3c0,0.67,0.14,1.16,0.41,1.5c0.28,0.33,0.75,0.5,1.41,0.5
			c0.33,0,0.78-0.06,1.35-0.18v2.29c-0.75,0.2-1.47,0.3-2.18,0.3c-1.27,0-2.22-0.38-2.87-1.15c-0.64-0.77-0.96-1.86-0.96-3.27
			v-10.29h-3.02v-2.19h3.02v-4.02H1051.39z"/>
		<path class="st1" d="M1057.99-132.21c0-1.62,0.32-3.09,0.96-4.38s1.53-2.3,2.67-3c1.14-0.71,2.44-1.06,3.9-1.06
			c2.26,0,4.09,0.78,5.48,2.35s2.09,3.64,2.09,6.24v0.2c0,1.62-0.31,3.06-0.93,4.35c-0.62,1.28-1.5,2.28-2.65,3
			c-1.15,0.72-2.47,1.07-3.96,1.07c-2.25,0-4.07-0.78-5.46-2.35s-2.09-3.63-2.09-6.21V-132.21z M1060.84-131.87
			c0,1.84,0.43,3.32,1.28,4.43c0.85,1.11,2,1.67,3.43,1.67c1.44,0,2.58-0.56,3.43-1.69c0.85-1.13,1.27-2.71,1.27-4.74
			c0-1.82-0.43-3.29-1.3-4.42s-2.01-1.69-3.44-1.69c-1.4,0-2.53,0.56-3.39,1.67C1061.27-135.54,1060.84-133.95,1060.84-131.87z"/>
		<path class="st1" d="M1087.56-128.16c0-0.77-0.29-1.36-0.87-1.79c-0.58-0.42-1.58-0.79-3.02-1.1s-2.58-0.67-3.42-1.1
			c-0.84-0.43-1.47-0.94-1.87-1.53c-0.4-0.59-0.61-1.3-0.61-2.12c0-1.36,0.58-2.51,1.72-3.45c1.15-0.94,2.62-1.41,4.41-1.41
			c1.88,0,3.41,0.49,4.58,1.46c1.17,0.97,1.75,2.21,1.75,3.72h-2.85c0-0.78-0.33-1.45-0.99-2.01c-0.66-0.56-1.49-0.84-2.49-0.84
			c-1.03,0-1.84,0.23-2.42,0.67c-0.58,0.45-0.87,1.04-0.87,1.76c0,0.68,0.27,1.2,0.81,1.55c0.54,0.35,1.52,0.68,2.94,1
			c1.42,0.32,2.56,0.69,3.44,1.13c0.88,0.44,1.53,0.97,1.95,1.59s0.64,1.37,0.64,2.26c0,1.48-0.59,2.67-1.78,3.56
			c-1.19,0.89-2.72,1.34-4.61,1.34c-1.33,0-2.5-0.24-3.53-0.71c-1.02-0.47-1.82-1.13-2.4-1.97s-0.87-1.75-0.87-2.74h2.84
			c0.05,0.95,0.43,1.7,1.14,2.26c0.71,0.56,1.65,0.84,2.81,0.84c1.07,0,1.93-0.22,2.58-0.65
			C1087.24-126.86,1087.56-127.44,1087.56-128.16z"/>
		<path class="st1" d="M1114.62-123.76c-0.16-0.33-0.3-0.91-0.4-1.75c-1.32,1.37-2.89,2.05-4.72,2.05c-1.63,0-2.98-0.46-4.02-1.39
			c-1.05-0.92-1.57-2.1-1.57-3.52c0-1.73,0.66-3.07,1.97-4.02c1.31-0.96,3.16-1.43,5.54-1.43h2.76v-1.3c0-0.99-0.3-1.78-0.89-2.37
			s-1.47-0.88-2.62-0.88c-1.01,0-1.86,0.26-2.54,0.77c-0.69,0.51-1.03,1.13-1.03,1.85h-2.85c0-0.83,0.29-1.63,0.88-2.4
			c0.59-0.77,1.38-1.38,2.39-1.83c1.01-0.45,2.11-0.67,3.32-0.67c1.91,0,3.41,0.48,4.49,1.43c1.08,0.96,1.65,2.27,1.69,3.95v7.63
			c0,1.52,0.19,2.73,0.58,3.63v0.25H1114.62z M1109.91-125.93c0.89,0,1.73-0.23,2.53-0.69c0.8-0.46,1.37-1.06,1.73-1.79v-3.4h-2.22
			c-3.47,0-5.21,1.02-5.21,3.05c0,0.89,0.3,1.58,0.89,2.08C1108.22-126.18,1108.98-125.93,1109.91-125.93z"/>
		<path class="st1" d="M1131.05-132.19c0-2.54,0.6-4.59,1.81-6.14c1.21-1.55,2.79-2.32,4.74-2.32c1.94,0,3.48,0.67,4.61,1.99v-8.65
			h2.84v23.54h-2.61l-0.14-1.78c-1.13,1.39-2.71,2.08-4.74,2.08c-1.92,0-3.49-0.79-4.7-2.36c-1.21-1.57-1.82-3.63-1.82-6.16V-132.19
			z M1133.88-131.87c0,1.88,0.39,3.35,1.17,4.42c0.78,1.06,1.85,1.59,3.22,1.59c1.8,0,3.11-0.81,3.94-2.42v-7.62
			c-0.85-1.56-2.15-2.34-3.91-2.34c-1.39,0-2.47,0.54-3.25,1.61S1133.88-133.98,1133.88-131.87z"/>
		<path class="st1" d="M1150.71-144.75c0-0.46,0.14-0.85,0.42-1.17c0.28-0.32,0.7-0.47,1.25-0.47s0.97,0.16,1.26,0.47
			c0.29,0.32,0.43,0.71,0.43,1.17s-0.14,0.84-0.43,1.15s-0.71,0.46-1.26,0.46s-0.97-0.15-1.25-0.46S1150.71-144.29,1150.71-144.75z
			 M1153.78-123.76h-2.84v-16.59h2.84V-123.76z"/>
		<path class="st1" d="M1169.23-128.16c0-0.77-0.29-1.36-0.87-1.79c-0.58-0.42-1.58-0.79-3.02-1.1s-2.58-0.67-3.42-1.1
			c-0.84-0.43-1.47-0.94-1.87-1.53c-0.4-0.59-0.61-1.3-0.61-2.12c0-1.36,0.58-2.51,1.72-3.45c1.15-0.94,2.62-1.41,4.41-1.41
			c1.88,0,3.41,0.49,4.58,1.46c1.17,0.97,1.75,2.21,1.75,3.72h-2.85c0-0.78-0.33-1.45-0.99-2.01c-0.66-0.56-1.49-0.84-2.49-0.84
			c-1.03,0-1.84,0.23-2.42,0.67c-0.58,0.45-0.87,1.04-0.87,1.76c0,0.68,0.27,1.2,0.81,1.55c0.54,0.35,1.52,0.68,2.94,1
			c1.42,0.32,2.56,0.69,3.44,1.13c0.88,0.44,1.53,0.97,1.95,1.59s0.64,1.37,0.64,2.26c0,1.48-0.59,2.67-1.78,3.56
			c-1.19,0.89-2.72,1.34-4.61,1.34c-1.33,0-2.5-0.24-3.53-0.71c-1.02-0.47-1.82-1.13-2.4-1.97s-0.87-1.75-0.87-2.74h2.84
			c0.05,0.95,0.43,1.7,1.14,2.26c0.71,0.56,1.65,0.84,2.81,0.84c1.07,0,1.93-0.22,2.58-0.65
			C1168.9-126.86,1169.23-127.44,1169.23-128.16z"/>
		<path class="st1" d="M1180.86-144.37v4.02h3.1v2.19h-3.1v10.3c0,0.67,0.14,1.16,0.41,1.5c0.28,0.33,0.75,0.5,1.41,0.5
			c0.33,0,0.78-0.06,1.35-0.18v2.29c-0.75,0.2-1.47,0.3-2.18,0.3c-1.27,0-2.22-0.38-2.87-1.15c-0.64-0.77-0.96-1.86-0.96-3.27
			v-10.29H1175v-2.19h3.02v-4.02H1180.86z"/>
		<path class="st1" d="M1198.76-123.76c-0.16-0.33-0.3-0.91-0.4-1.75c-1.32,1.37-2.89,2.05-4.72,2.05c-1.63,0-2.98-0.46-4.02-1.39
			c-1.05-0.92-1.57-2.1-1.57-3.52c0-1.73,0.66-3.07,1.97-4.02c1.31-0.96,3.16-1.43,5.54-1.43h2.76v-1.3c0-0.99-0.3-1.78-0.89-2.37
			s-1.47-0.88-2.62-0.88c-1.01,0-1.86,0.26-2.54,0.77c-0.69,0.51-1.03,1.13-1.03,1.85h-2.85c0-0.83,0.29-1.63,0.88-2.4
			c0.59-0.77,1.38-1.38,2.39-1.83c1.01-0.45,2.11-0.67,3.32-0.67c1.91,0,3.41,0.48,4.49,1.43c1.08,0.96,1.65,2.27,1.69,3.95v7.63
			c0,1.52,0.19,2.73,0.58,3.63v0.25H1198.76z M1194.06-125.93c0.89,0,1.73-0.23,2.53-0.69c0.8-0.46,1.37-1.06,1.73-1.79v-3.4h-2.22
			c-3.47,0-5.21,1.02-5.21,3.05c0,0.89,0.3,1.58,0.89,2.08C1192.37-126.18,1193.13-125.93,1194.06-125.93z"/>
		<path class="st1" d="M1209.54-140.35l0.09,2.08c1.27-1.59,2.92-2.39,4.97-2.39c3.5,0,5.27,1.98,5.3,5.93v10.96h-2.84v-10.98
			c-0.01-1.2-0.28-2.08-0.82-2.65c-0.54-0.57-1.37-0.86-2.51-0.86c-0.92,0-1.73,0.25-2.42,0.74s-1.24,1.13-1.62,1.93v11.82h-2.83
			v-16.59H1209.54z"/>
		<path class="st1" d="M1232.09-125.77c1.01,0,1.9-0.31,2.65-0.92c0.76-0.61,1.18-1.38,1.26-2.3h2.68
			c-0.05,0.95-0.38,1.86-0.98,2.71c-0.6,0.86-1.41,1.54-2.41,2.05c-1.01,0.51-2.07,0.77-3.2,0.77c-2.26,0-4.05-0.75-5.39-2.26
			c-1.33-1.51-2-3.57-2-6.19v-0.47c0-1.62,0.3-3.05,0.89-4.31s1.44-2.23,2.55-2.93c1.11-0.7,2.42-1.04,3.93-1.04
			c1.86,0,3.41,0.56,4.64,1.67c1.23,1.11,1.89,2.56,1.97,4.34h-2.68c-0.08-1.07-0.49-1.95-1.22-2.64c-0.73-0.69-1.63-1.04-2.71-1.04
			c-1.44,0-2.56,0.52-3.35,1.56c-0.79,1.04-1.19,2.54-1.19,4.5v0.54c0,1.91,0.39,3.38,1.18,4.41
			C1229.5-126.29,1230.62-125.77,1232.09-125.77z"/>
		<path class="st1" d="M1243.14-144.75c0-0.46,0.14-0.85,0.42-1.17c0.28-0.32,0.7-0.47,1.25-0.47s0.97,0.16,1.26,0.47
			c0.29,0.32,0.43,0.71,0.43,1.17s-0.14,0.84-0.43,1.15s-0.71,0.46-1.26,0.46s-0.97-0.15-1.25-0.46S1243.14-144.29,1243.14-144.75z
			 M1246.2-123.76h-2.84v-16.59h2.84V-123.76z"/>
		<path class="st1" d="M1262.23-123.76c-0.16-0.33-0.3-0.91-0.4-1.75c-1.32,1.37-2.89,2.05-4.72,2.05c-1.63,0-2.98-0.46-4.02-1.39
			c-1.05-0.92-1.57-2.1-1.57-3.52c0-1.73,0.66-3.07,1.97-4.02c1.31-0.96,3.16-1.43,5.54-1.43h2.76v-1.3c0-0.99-0.3-1.78-0.89-2.37
			s-1.47-0.88-2.62-0.88c-1.01,0-1.86,0.26-2.54,0.77c-0.69,0.51-1.03,1.13-1.03,1.85h-2.85c0-0.83,0.29-1.63,0.88-2.4
			c0.59-0.77,1.38-1.38,2.39-1.83c1.01-0.45,2.11-0.67,3.32-0.67c1.91,0,3.41,0.48,4.49,1.43c1.08,0.96,1.65,2.27,1.69,3.95v7.63
			c0,1.52,0.19,2.73,0.58,3.63v0.25H1262.23z M1257.53-125.93c0.89,0,1.73-0.23,2.53-0.69c0.8-0.46,1.37-1.06,1.73-1.79v-3.4h-2.22
			c-3.47,0-5.21,1.02-5.21,3.05c0,0.89,0.3,1.58,0.89,2.08C1255.84-126.18,1256.6-125.93,1257.53-125.93z"/>
	</g>
</g>
<g>
	<g class="st6">
		<g>
			<polygon class="st14" points="490.42,93.48 501.91,86.8 501.89,91.23 490.41,97.91 			"/>
		</g>
		<g>
			<polygon class="st14" points="486.56,91.25 498.05,84.57 501.91,86.8 490.42,93.48 			"/>
		</g>
		<g>
			<polygon class="st14" points="490.42,93.48 490.41,97.91 486.57,95.69 486.55,95.68 486.56,91.25 			"/>
		</g>
	</g>
	<g class="st6">
		<g>
			<polygon class="st14" points="490.43,89.05 501.92,82.37 501.91,86.8 490.42,93.48 			"/>
		</g>
		<g>
			<polygon class="st14" points="486.57,86.82 498.06,80.15 501.92,82.37 490.43,89.05 			"/>
		</g>
		<g>
			<polygon class="st14" points="490.43,89.05 490.42,93.48 486.56,91.25 486.57,86.82 			"/>
		</g>
	</g>
	<g class="st6">
		<g>
			<polygon class="st14" points="509.65,126.78 521.14,120.1 521.13,124.53 509.64,131.2 			"/>
		</g>
		<g>
			<polygon class="st14" points="505.8,124.55 517.29,117.88 521.14,120.1 509.65,126.78 			"/>
		</g>
		<g>
			<polygon class="st14" points="509.65,126.78 509.64,131.2 505.79,128.98 505.8,124.55 			"/>
		</g>
		<g>
			<polygon class="st14" points="505.81,120.11 517.3,113.44 517.29,117.88 505.8,124.55 			"/>
		</g>
		<g>
			<polygon class="st14" points="501.95,117.89 513.44,111.21 517.3,113.44 505.81,120.11 			"/>
		</g>
		<g>
			<polygon class="st14" points="505.81,120.11 505.8,124.55 501.94,122.32 501.95,117.89 			"/>
		</g>
		<g>
			<polygon class="st14" points="498.11,111.23 509.6,104.56 513.45,106.78 501.96,113.46 			"/>
		</g>
		<g>
			<polygon class="st14" points="501.96,113.46 513.45,106.78 513.44,111.21 501.95,117.89 			"/>
		</g>
		<g>
			<polygon class="st14" points="501.96,113.46 501.95,117.89 498.1,115.66 498.11,111.23 			"/>
		</g>
		<g>
			<polygon class="st14" points="498.12,106.8 498.11,111.23 494.26,109.01 494.27,104.58 			"/>
		</g>
		<g>
			<polygon class="st14" points="494.27,104.58 505.75,97.9 509.61,100.13 498.12,106.8 			"/>
		</g>
		<g>
			<polygon class="st14" points="498.12,106.8 509.61,100.13 509.6,104.56 498.11,111.23 			"/>
		</g>
		<g>
			<polygon class="st14" points="490.43,97.92 501.91,91.24 505.75,93.46 494.26,100.13 			"/>
		</g>
		<g>
			<polygon class="st14" points="494.26,100.13 505.75,93.46 505.77,93.47 494.28,100.14 			"/>
		</g>
		<g>
			<polygon class="st14" points="494.28,100.14 505.77,93.47 505.75,97.9 494.27,104.58 			"/>
		</g>
		<g>
			<polygon class="st14" points="494.28,100.14 494.27,104.58 490.41,102.35 490.43,97.92 494.26,100.13 			"/>
		</g>
		<g>
			<polygon class="st15" points="505.81,120.11 517.3,113.44 521.15,115.66 509.67,122.34 			"/>
		</g>
		<g>
			<polygon class="st15" points="509.67,122.34 509.65,126.78 505.8,124.55 505.81,120.11 			"/>
		</g>
		<g>
			<polygon class="st15" points="509.67,122.34 521.15,115.66 521.14,120.1 509.65,126.78 			"/>
		</g>
		<g>
			<polygon class="st15" points="501.96,113.46 513.45,106.78 517.31,109.01 505.82,115.69 			"/>
		</g>
		<g>
			<polygon class="st15" points="505.82,115.69 505.81,120.11 501.95,117.89 501.96,113.46 			"/>
		</g>
		<g>
			<polygon class="st15" points="505.82,115.69 517.31,109.01 517.3,113.44 505.81,120.11 			"/>
		</g>
		<g>
			<polygon class="st15" points="501.98,109.03 513.46,102.35 513.45,106.78 501.96,113.46 			"/>
		</g>
		<g>
			<polygon class="st15" points="501.98,109.03 501.96,113.46 498.11,111.23 498.12,106.8 			"/>
		</g>
		<g>
			<polygon class="st15" points="498.12,106.8 509.61,100.13 513.46,102.35 501.98,109.03 			"/>
		</g>
		<g>
			<polygon class="st16" points="494.28,100.14 505.77,93.47 509.6,95.68 498.12,102.36 			"/>
		</g>
		<g>
			<polygon class="st16" points="498.14,102.37 509.62,95.69 509.61,100.13 498.12,106.8 			"/>
		</g>
		<g>
			<polygon class="st16" points="498.14,102.37 498.12,106.8 494.27,104.58 494.28,100.14 498.12,102.36 			"/>
		</g>
		<g>
			<polygon class="st16" points="498.12,102.36 509.6,95.68 509.62,95.69 498.14,102.37 			"/>
		</g>
		<g>
			<polygon class="st16" points="494.28,95.7 494.26,100.13 490.43,97.92 490.41,97.91 490.42,93.48 			"/>
		</g>
		<g>
			<polygon class="st16" points="494.28,95.7 505.76,89.03 505.75,93.46 494.26,100.13 			"/>
		</g>
		<g>
			<polygon class="st16" points="490.42,93.48 501.91,86.8 505.76,89.03 494.28,95.7 			"/>
		</g>
		<g>
			<polygon class="st16" points="498.14,102.37 509.62,95.69 513.46,97.91 501.97,104.58 			"/>
		</g>
		<g>
			<polygon class="st16" points="501.99,104.59 501.98,109.03 498.12,106.8 498.14,102.37 501.97,104.58 			"/>
		</g>
		<g>
			<polygon class="st16" points="501.99,104.59 513.48,97.92 513.46,102.35 501.98,109.03 			"/>
		</g>
		<g>
			<polygon class="st16" points="501.97,104.58 513.46,97.91 513.48,97.92 501.99,104.59 			"/>
		</g>
		<g>
			<polygon class="st16" points="494.28,95.7 505.76,89.03 509.62,91.25 498.13,97.93 			"/>
		</g>
		<g>
			<polygon class="st16" points="498.13,97.93 498.12,102.36 494.28,100.14 494.26,100.13 494.28,95.7 			"/>
		</g>
		<g>
			<polygon class="st16" points="498.13,97.93 509.62,91.25 509.6,95.68 498.12,102.36 			"/>
		</g>
		<g>
			<polygon class="st16" points="494.29,91.28 505.77,84.6 505.76,89.03 494.28,95.7 			"/>
		</g>
		<g>
			<polygon class="st16" points="494.29,91.28 494.28,95.7 490.42,93.48 490.43,89.05 			"/>
		</g>
		<g>
			<polygon class="st16" points="490.43,89.05 501.92,82.37 505.77,84.6 494.29,91.28 			"/>
		</g>
		<g>
			<polygon class="st14" points="490.45,84.62 490.43,89.05 486.57,86.82 486.59,82.39 			"/>
		</g>
		<g>
			<polygon class="st14" points="486.59,82.39 498.07,75.72 501.93,77.95 490.45,84.62 			"/>
		</g>
		<g>
			<polygon class="st14" points="490.45,84.62 501.93,77.95 501.92,82.37 490.43,89.05 			"/>
		</g>
		<g>
			<polygon class="st16" points="501.98,100.15 513.47,93.48 513.46,97.91 501.97,104.58 			"/>
		</g>
		<g>
			<polygon class="st16" points="501.98,100.15 501.97,104.58 498.14,102.37 498.12,102.36 498.13,97.93 			"/>
		</g>
		<g>
			<polygon class="st16" points="498.13,97.93 509.62,91.25 513.47,93.48 501.98,100.15 			"/>
		</g>
		<g>
			<polygon class="st17" points="498.14,93.5 509.63,86.82 509.62,91.25 498.13,97.93 			"/>
		</g>
		<g>
			<polygon class="st17" points="498.14,93.5 498.13,97.93 494.28,95.7 494.29,91.28 			"/>
		</g>
		<g>
			<polygon class="st17" points="494.29,91.28 505.77,84.6 509.63,86.82 498.14,93.5 			"/>
		</g>
		<g>
			<polygon class="st16" points="490.45,84.62 501.93,77.95 505.79,80.17 494.3,86.85 			"/>
		</g>
		<g>
			<polygon class="st16" points="494.3,86.85 505.79,80.17 505.77,84.6 494.29,91.28 			"/>
		</g>
		<g>
			<polygon class="st16" points="494.3,86.85 494.29,91.28 490.43,89.05 490.45,84.62 			"/>
		</g>
		<g>
			<polygon class="st14" points="490.46,80.19 501.95,73.51 501.93,77.95 490.45,84.62 			"/>
		</g>
		<g>
			<polygon class="st14" points="490.46,80.19 490.45,84.62 486.59,82.39 486.6,77.96 			"/>
		</g>
		<g>
			<polygon class="st16" points="486.6,77.96 498.08,71.28 501.95,73.51 490.46,80.19 			"/>
		</g>
		<g>
			<polygon class="st16" points="494.31,82.41 494.3,86.85 490.45,84.62 490.46,80.19 			"/>
		</g>
		<g>
			<polygon class="st16" points="494.31,82.41 505.8,75.74 505.79,80.17 494.3,86.85 			"/>
		</g>
		<g>
			<polygon class="st16" points="490.46,80.19 501.95,73.51 505.8,75.74 494.31,82.41 			"/>
		</g>
	</g>
	<g class="st6">
		<g>
			<polygon class="st18" points="513.5,133.43 524.98,126.75 524.97,131.19 513.48,137.86 			"/>
		</g>
		<g>
			<polygon class="st14" points="509.64,131.2 521.13,124.53 524.98,126.75 513.5,133.43 			"/>
		</g>
		<g>
			<polygon class="st14" points="513.5,133.43 513.48,137.86 509.63,135.64 509.64,131.2 			"/>
		</g>
	</g>
	<g class="st6">
		<g>
			<polygon class="st15" points="513.51,129 524.99,122.32 524.98,126.75 513.5,133.43 			"/>
		</g>
		<g>
			<polygon class="st15" points="509.65,126.78 521.14,120.1 524.99,122.32 513.51,129 			"/>
		</g>
		<g>
			<polygon class="st15" points="513.51,129 513.5,133.43 509.64,131.2 509.65,126.78 			"/>
		</g>
	</g>
	<g class="st6">
		<g>
			<polygon class="st17" points="498.15,89.07 509.64,82.4 509.63,86.82 498.14,93.5 			"/>
		</g>
		<g>
			<polygon class="st17" points="494.3,86.85 505.79,80.17 509.64,82.4 498.15,89.07 			"/>
		</g>
		<g>
			<polygon class="st17" points="498.15,89.07 498.14,93.5 494.29,91.28 494.3,86.85 			"/>
		</g>
	</g>
	<g class="st6">
		<g>
			<polygon class="st16" points="498.17,84.64 509.65,77.96 509.64,82.4 498.15,89.07 			"/>
		</g>
		<g>
			<polygon class="st16" points="494.31,82.41 505.8,75.74 509.65,77.96 498.17,84.64 			"/>
		</g>
		<g>
			<polygon class="st16" points="498.17,84.64 498.15,89.07 494.3,86.85 494.31,82.41 			"/>
		</g>
	</g>
	<g class="st6">
		<g>
			<polygon class="st17" points="502,95.72 513.48,89.05 513.47,93.48 501.98,100.15 			"/>
		</g>
		<g>
			<polygon class="st17" points="498.14,93.5 509.63,86.82 513.48,89.05 502,95.72 			"/>
		</g>
		<g>
			<polygon class="st17" points="502,95.72 501.98,100.15 498.13,97.93 498.14,93.5 			"/>
		</g>
	</g>
	<g class="st6">
		<g>
			<polygon class="st16" points="509.68,117.91 521.16,111.24 521.15,115.66 509.67,122.34 			"/>
		</g>
		<g>
			<polygon class="st16" points="505.82,115.69 517.31,109.01 521.16,111.24 509.68,117.91 			"/>
		</g>
		<g>
			<polygon class="st16" points="509.68,117.91 509.67,122.34 505.81,120.11 505.82,115.69 			"/>
		</g>
		<g>
			<polygon class="st16" points="505.84,111.26 505.82,115.69 501.96,113.46 501.98,109.03 			"/>
		</g>
		<g>
			<polygon class="st16" points="505.84,111.26 517.32,104.58 517.31,109.01 505.82,115.69 			"/>
		</g>
		<g>
			<polygon class="st16" points="501.98,109.03 513.46,102.35 517.32,104.58 505.84,111.26 			"/>
		</g>
		<g>
			<polygon class="st16" points="501.99,104.59 513.48,97.92 517.31,100.13 505.83,106.81 			"/>
		</g>
		<g>
			<polygon class="st16" points="505.85,106.82 517.34,100.15 517.32,104.58 505.84,111.26 			"/>
		</g>
		<g>
			<polygon class="st16" points="505.83,106.81 517.31,100.13 517.34,100.15 505.85,106.82 			"/>
		</g>
		<g>
			<polygon class="st16" points="505.85,106.82 505.84,111.26 501.98,109.03 501.99,104.59 505.83,106.81 			"/>
		</g>
	</g>
	<g class="st6">
		<g>
			<polygon class="st14" points="494.32,77.98 505.81,71.31 505.8,75.74 494.31,82.41 			"/>
		</g>
		<g>
			<polygon class="st16" points="490.47,75.76 501.96,69.08 505.81,71.31 494.32,77.98 			"/>
		</g>
		<g>
			<polygon class="st14" points="494.32,77.98 494.31,82.41 490.46,80.19 490.47,75.76 			"/>
		</g>
	</g>
	<g class="st6">
		<g>
			<polygon class="st17" points="502.01,91.3 513.5,84.62 513.48,89.05 502,95.72 			"/>
		</g>
		<g>
			<polygon class="st17" points="498.15,89.07 509.64,82.4 513.5,84.62 502.01,91.3 			"/>
		</g>
		<g>
			<polygon class="st17" points="502.01,91.3 502,95.72 498.14,93.5 498.15,89.07 			"/>
		</g>
	</g>
	<g class="st6">
		<g>
			<polygon class="st16" points="505.84,102.38 517.32,95.7 517.31,100.13 505.83,106.81 			"/>
		</g>
		<g>
			<polygon class="st16" points="501.98,100.15 513.47,93.48 517.32,95.7 505.84,102.38 			"/>
		</g>
		<g>
			<polygon class="st16" points="505.84,102.38 505.83,106.81 501.99,104.59 501.97,104.58 501.98,100.15 			"/>
		</g>
	</g>
	<g class="st6">
		<g>
			<polygon class="st16" points="509.69,113.48 521.18,106.81 521.16,111.24 509.68,117.91 			"/>
		</g>
		<g>
			<polygon class="st16" points="505.84,111.26 517.32,104.58 521.18,106.81 509.69,113.48 			"/>
		</g>
		<g>
			<polygon class="st16" points="509.69,113.48 509.68,117.91 505.82,115.69 505.84,111.26 			"/>
		</g>
	</g>
	<g class="st6">
		<g>
			<polygon class="st15" points="513.52,124.56 525.01,117.89 524.99,122.32 513.51,129 			"/>
		</g>
		<g>
			<polygon class="st15" points="509.67,122.34 521.15,115.66 525.01,117.89 513.52,124.56 			"/>
		</g>
		<g>
			<polygon class="st15" points="513.52,124.56 513.51,129 509.65,126.78 509.67,122.34 			"/>
		</g>
	</g>
	<g class="st6">
		<g>
			<polygon class="st16" points="505.85,97.95 517.34,91.28 517.32,95.7 505.84,102.38 			"/>
		</g>
		<g>
			<polygon class="st16" points="502,95.72 513.48,89.05 517.34,91.28 505.85,97.95 			"/>
		</g>
		<g>
			<polygon class="st16" points="505.85,97.95 505.84,102.38 501.98,100.15 502,95.72 			"/>
		</g>
		<g>
			<polygon class="st16" points="505.86,93.52 517.35,86.85 517.34,91.28 505.85,97.95 			"/>
		</g>
		<g>
			<polygon class="st16" points="502.01,91.3 513.5,84.62 517.35,86.85 505.86,93.52 			"/>
		</g>
		<g>
			<polygon class="st16" points="505.86,93.52 505.85,97.95 502,95.72 502.01,91.3 			"/>
		</g>
		<g>
			<polygon class="st16" points="498.17,84.64 509.65,77.96 513.51,80.19 502.02,86.86 			"/>
		</g>
		<g>
			<polygon class="st16" points="502.02,86.86 513.51,80.19 513.5,84.62 502.01,91.3 			"/>
		</g>
		<g>
			<polygon class="st16" points="502.02,86.86 502.01,91.3 498.15,89.07 498.17,84.64 			"/>
		</g>
		<g>
			<polygon class="st16" points="498.18,80.21 509.67,73.53 509.65,77.96 498.17,84.64 			"/>
		</g>
		<g>
			<polygon class="st16" points="494.32,77.98 505.81,71.31 509.67,73.53 498.18,80.21 			"/>
		</g>
		<g>
			<polygon class="st16" points="498.18,80.21 498.17,84.64 494.31,82.41 494.32,77.98 			"/>
		</g>
		<g>
			<polygon class="st15" points="505.88,89.09 505.86,93.52 502.01,91.3 502.02,86.86 			"/>
		</g>
		<g>
			<polygon class="st15" points="505.88,89.09 517.36,82.41 517.35,86.85 505.86,93.52 			"/>
		</g>
		<g>
			<polygon class="st15" points="502.02,86.86 513.51,80.19 517.36,82.41 505.88,89.09 			"/>
		</g>
		<g>
			<polygon class="st16" points="502.03,82.43 513.52,75.76 513.51,80.19 502.02,86.86 			"/>
		</g>
		<g>
			<polygon class="st16" points="502.03,82.43 502.02,86.86 498.17,84.64 498.18,80.21 			"/>
		</g>
		<g>
			<polygon class="st16" points="498.18,80.21 509.67,73.53 513.52,75.76 502.03,82.43 			"/>
		</g>
		<g>
			<polygon class="st14" points="498.19,75.78 509.68,69.1 509.67,73.53 498.18,80.21 			"/>
		</g>
		<g>
			<polygon class="st16" points="494.34,73.55 505.82,66.88 509.68,69.1 498.19,75.78 			"/>
		</g>
		<g>
			<polygon class="st14" points="498.19,75.78 498.18,80.21 494.32,77.98 494.34,73.55 			"/>
		</g>
	</g>
	<g class="st6">
		<g>
			<polygon class="st16" points="505.85,106.82 517.34,100.15 521.17,102.36 509.68,109.04 			"/>
		</g>
		<g>
			<polygon class="st16" points="509.7,109.05 521.19,102.37 521.18,106.81 509.69,113.48 			"/>
		</g>
		<g>
			<polygon class="st16" points="509.68,109.04 521.17,102.36 521.19,102.37 509.7,109.05 			"/>
		</g>
		<g>
			<polygon class="st16" points="509.7,109.05 509.69,113.48 505.84,111.26 505.85,106.82 509.68,109.04 			"/>
		</g>
	</g>
	<g class="st6">
		<g>
			<polygon class="st16" points="513.53,120.14 525.02,113.46 525.01,117.89 513.52,124.56 			"/>
		</g>
		<g>
			<polygon class="st16" points="509.68,117.91 521.16,111.24 525.02,113.46 513.53,120.14 			"/>
		</g>
		<g>
			<polygon class="st16" points="513.53,120.14 513.52,124.56 509.67,122.34 509.68,117.91 			"/>
		</g>
	</g>
	<g class="st6">
		<g>
			<polygon class="st18" points="517.37,131.23 528.86,124.56 528.85,128.99 517.36,135.66 			"/>
		</g>
		<g>
			<polygon class="st14" points="513.52,129.01 525.01,122.33 528.86,124.56 517.37,131.23 			"/>
		</g>
		<g>
			<polygon class="st14" points="517.37,131.23 517.36,135.66 513.51,133.44 513.52,129.01 			"/>
		</g>
	</g>
	<g class="st6">
		<g>
			<polygon class="st16" points="509.7,104.61 521.18,97.93 521.17,102.36 509.68,109.04 			"/>
		</g>
		<g>
			<polygon class="st16" points="505.84,102.38 517.32,95.7 521.18,97.93 509.7,104.61 			"/>
		</g>
		<g>
			<polygon class="st16" points="509.7,104.61 509.68,109.04 505.85,106.82 505.83,106.81 505.84,102.38 			"/>
		</g>
	</g>
	<g class="st6">
		<g>
			<polygon class="st16" points="513.55,115.71 525.03,109.03 525.02,113.46 513.53,120.14 			"/>
		</g>
		<g>
			<polygon class="st16" points="509.69,113.48 521.18,106.81 525.03,109.03 513.55,115.71 			"/>
		</g>
		<g>
			<polygon class="st16" points="513.55,115.71 513.53,120.14 509.68,117.91 509.69,113.48 			"/>
		</g>
	</g>
	<g class="st6">
		<g>
			<polygon class="st15" points="517.39,126.8 528.87,120.12 528.86,124.56 517.37,131.23 			"/>
		</g>
		<g>
			<polygon class="st15" points="517.39,126.8 517.37,131.23 513.52,129.01 513.53,124.57 			"/>
		</g>
		<g>
			<polygon class="st15" points="513.53,124.57 525.02,117.9 528.87,120.12 517.39,126.8 			"/>
		</g>
		<g>
			<polygon class="st14" points="517.39,126.8 528.87,120.12 532.73,122.35 521.25,129.03 			"/>
		</g>
		<g>
			<polygon class="st18" points="521.25,129.03 532.73,122.35 532.72,126.79 521.23,133.46 			"/>
		</g>
		<g>
			<polygon class="st14" points="521.25,129.03 521.23,133.46 517.37,131.23 517.39,126.8 			"/>
		</g>
	</g>
	<g class="st6">
		<g>
			<polygon class="st18" points="502.05,78 513.53,71.33 513.52,75.76 502.03,82.43 			"/>
		</g>
		<g>
			<polygon class="st16" points="498.19,75.78 509.68,69.1 513.53,71.33 502.05,78 			"/>
		</g>
		<g>
			<polygon class="st14" points="502.05,78 502.03,82.43 498.18,80.21 498.19,75.78 			"/>
		</g>
	</g>
	<g class="st6">
		<g>
			<polygon class="st16" points="509.7,109.05 521.19,102.37 525.02,104.59 513.54,111.26 			"/>
		</g>
		<g>
			<polygon class="st16" points="513.55,111.27 525.04,104.59 525.03,109.03 513.55,115.71 			"/>
		</g>
		<g>
			<polygon class="st16" points="513.54,111.26 525.02,104.59 525.04,104.59 513.55,111.27 			"/>
		</g>
		<g>
			<polygon class="st16" points="513.55,111.27 513.55,115.71 509.69,113.48 509.7,109.05 513.54,111.26 			"/>
		</g>
		<g>
			<polygon class="st16" points="513.55,106.83 513.54,111.26 509.7,109.05 509.68,109.04 509.7,104.61 			"/>
		</g>
		<g>
			<polygon class="st16" points="513.55,106.83 525.04,100.16 525.02,104.59 513.54,111.26 			"/>
		</g>
		<g>
			<polygon class="st16" points="509.7,104.61 521.18,97.93 525.04,100.16 513.55,106.83 			"/>
		</g>
		<g>
			<polygon class="st16" points="509.71,100.18 521.2,93.5 521.18,97.93 509.7,104.61 			"/>
		</g>
		<g>
			<polygon class="st16" points="505.85,97.95 517.34,91.28 521.2,93.5 509.71,100.18 			"/>
		</g>
		<g>
			<polygon class="st16" points="509.71,100.18 509.7,104.61 505.84,102.38 505.85,97.95 			"/>
		</g>
		<g>
			<polygon class="st16" points="509.71,100.18 521.2,93.5 525.05,95.73 513.56,102.4 			"/>
		</g>
		<g>
			<polygon class="st16" points="513.56,102.4 525.05,95.73 525.04,100.16 513.55,106.83 			"/>
		</g>
		<g>
			<polygon class="st16" points="513.56,102.4 513.55,106.83 509.7,104.61 509.71,100.18 			"/>
		</g>
		<g>
			<polygon class="st15" points="509.72,95.75 521.21,89.08 521.2,93.5 509.71,100.18 			"/>
		</g>
		<g>
			<polygon class="st15" points="509.72,95.75 509.71,100.18 505.85,97.95 505.86,93.52 			"/>
		</g>
		<g>
			<polygon class="st15" points="505.86,93.52 517.35,86.85 521.21,89.08 509.72,95.75 			"/>
		</g>
		<g>
			<polygon class="st14" points="513.58,97.98 513.56,102.4 509.71,100.18 509.72,95.75 			"/>
		</g>
		<g>
			<polygon class="st14" points="513.58,97.98 525.06,91.3 525.05,95.73 513.56,102.4 			"/>
		</g>
		<g>
			<polygon class="st16" points="509.72,95.75 521.21,89.08 525.06,91.3 513.58,97.98 			"/>
		</g>
		<g>
			<polygon class="st18" points="509.74,91.32 521.22,84.64 521.21,89.08 509.72,95.75 			"/>
		</g>
		<g>
			<polygon class="st16" points="505.88,89.09 517.36,82.41 521.22,84.64 509.74,91.32 			"/>
		</g>
		<g>
			<polygon class="st14" points="509.74,91.32 509.72,95.75 505.86,93.52 505.88,89.09 			"/>
		</g>
		<g>
			<polygon class="st18" points="505.89,84.66 517.37,77.98 517.36,82.41 505.88,89.09 			"/>
		</g>
		<g>
			<polygon class="st16" points="502.03,82.43 513.52,75.76 517.37,77.98 505.89,84.66 			"/>
		</g>
		<g>
			<polygon class="st14" points="505.89,84.66 505.88,89.09 502.02,86.86 502.03,82.43 			"/>
		</g>
	</g>
	<g class="st6">
		<g>
			<polygon class="st15" points="517.4,122.37 528.89,115.69 528.87,120.12 517.39,126.8 			"/>
		</g>
		<g>
			<polygon class="st15" points="513.54,120.14 525.03,113.47 528.89,115.69 517.4,122.37 			"/>
		</g>
		<g>
			<polygon class="st15" points="517.4,122.37 517.39,126.8 513.53,124.57 513.54,120.14 			"/>
		</g>
	</g>
	<g class="st6">
		<g>
			<polygon class="st15" points="521.26,124.6 532.75,117.92 532.73,122.35 521.25,129.03 			"/>
		</g>
		<g>
			<polygon class="st15" points="517.4,122.37 528.89,115.69 532.75,117.92 521.26,124.6 			"/>
		</g>
		<g>
			<polygon class="st15" points="521.26,124.6 521.25,129.03 517.39,126.8 517.4,122.37 			"/>
		</g>
	</g>
	<g class="st6">
		<g>
			<polygon class="st16" points="517.41,117.94 528.9,111.26 528.89,115.69 517.4,122.37 			"/>
		</g>
		<g>
			<polygon class="st16" points="513.56,115.72 525.04,109.04 528.9,111.26 517.41,117.94 			"/>
		</g>
		<g>
			<polygon class="st16" points="517.41,117.94 517.4,122.37 513.54,120.14 513.56,115.72 			"/>
		</g>
	</g>
	<g class="st6">
		<g>
			<polygon class="st16" points="513.57,111.28 525.06,104.6 528.89,106.82 517.41,113.49 			"/>
		</g>
		<g>
			<polygon class="st16" points="517.42,113.5 528.91,106.83 528.9,111.26 517.41,117.94 			"/>
		</g>
		<g>
			<polygon class="st16" points="517.41,113.49 528.89,106.82 528.91,106.83 517.42,113.5 			"/>
		</g>
		<g>
			<polygon class="st16" points="517.42,113.5 517.41,117.94 513.56,115.72 513.57,111.28 517.41,113.49 			"/>
		</g>
	</g>
	<g class="st6">
		<g>
			<polygon class="st18" points="525.11,126.82 536.6,120.15 536.59,124.58 525.1,131.25 			"/>
		</g>
		<g>
			<polygon class="st14" points="521.26,124.6 532.75,117.92 536.6,120.15 525.11,126.82 			"/>
		</g>
		<g>
			<polygon class="st14" points="525.11,126.82 525.1,131.25 521.25,129.03 521.26,124.6 			"/>
		</g>
	</g>
	<g class="st6">
		<g>
			<polygon class="st16" points="517.42,109.06 528.9,102.39 528.89,106.82 517.41,113.49 			"/>
		</g>
		<g>
			<polygon class="st16" points="513.56,106.84 525.05,100.16 528.9,102.39 517.42,109.06 			"/>
		</g>
		<g>
			<polygon class="st16" points="517.42,109.06 517.41,113.49 513.57,111.28 513.56,111.27 513.56,106.84 			"/>
		</g>
	</g>
	<g class="st6">
		<g>
			<polygon class="st15" points="521.27,120.17 532.76,113.49 532.75,117.92 521.26,124.6 			"/>
		</g>
		<g>
			<polygon class="st15" points="517.41,117.94 528.9,111.26 532.76,113.49 521.27,120.17 			"/>
		</g>
		<g>
			<polygon class="st15" points="521.27,120.17 521.26,124.6 517.4,122.37 517.41,117.94 			"/>
		</g>
	</g>
	<g class="st6">
		<g>
			<polygon class="st16" points="517.43,104.64 528.92,97.96 528.9,102.39 517.42,109.06 			"/>
		</g>
		<g>
			<polygon class="st16" points="513.58,102.41 525.06,95.74 528.92,97.96 517.43,104.64 			"/>
		</g>
		<g>
			<polygon class="st16" points="517.43,104.64 517.42,109.06 513.56,106.84 513.58,102.41 			"/>
		</g>
	</g>
	<g class="st6">
		<g>
			<polygon class="st16" points="517.42,113.5 528.91,106.83 532.75,109.05 521.27,115.72 			"/>
		</g>
		<g>
			<polygon class="st16" points="521.28,115.73 532.77,109.06 532.76,113.49 521.27,120.17 			"/>
		</g>
		<g>
			<polygon class="st16" points="521.27,115.72 532.75,109.05 532.77,109.06 521.28,115.73 			"/>
		</g>
		<g>
			<polygon class="st16" points="521.28,115.73 521.27,120.17 517.41,117.94 517.42,113.5 521.27,115.72 			"/>
		</g>
	</g>
	<g class="st6">
		<g>
			<polygon class="st16" points="517.44,100.21 528.93,93.53 528.92,97.96 517.43,104.64 			"/>
		</g>
		<g>
			<polygon class="st16" points="513.59,97.98 525.08,91.31 528.93,93.53 517.44,100.21 			"/>
		</g>
		<g>
			<polygon class="st16" points="517.44,100.21 517.43,104.64 513.58,102.41 513.59,97.98 			"/>
		</g>
	</g>
	<g class="st6">
		<g>
			<polygon class="st16" points="521.28,111.29 532.76,104.62 532.75,109.05 521.27,115.72 			"/>
		</g>
		<g>
			<polygon class="st16" points="517.42,109.06 528.9,102.39 532.76,104.62 521.28,111.29 			"/>
		</g>
		<g>
			<polygon class="st16" points="521.28,111.29 521.27,115.72 517.42,113.5 517.41,113.49 517.42,109.06 			"/>
		</g>
	</g>
	<g class="st6">
		<g>
			<polygon class="st15" points="525.13,122.39 536.61,115.72 536.6,120.15 525.11,126.82 			"/>
		</g>
		<g>
			<polygon class="st15" points="521.27,120.17 532.76,113.49 536.61,115.72 525.13,122.39 			"/>
		</g>
		<g>
			<polygon class="st15" points="525.13,122.39 525.11,126.82 521.26,124.6 521.27,120.17 			"/>
		</g>
	</g>
	<g class="st6">
		<g>
			<polygon class="st14" points="517.46,95.77 528.94,89.1 528.93,93.53 517.44,100.21 			"/>
		</g>
		<g>
			<polygon class="st16" points="513.6,93.55 525.09,86.87 528.94,89.1 517.46,95.77 			"/>
		</g>
		<g>
			<polygon class="st14" points="517.46,95.77 517.44,100.21 513.59,97.98 513.6,93.55 			"/>
		</g>
	</g>
	<g class="st6">
		<g>
			<polygon class="st16" points="521.29,106.86 532.78,100.19 532.76,104.62 521.28,111.29 			"/>
		</g>
		<g>
			<polygon class="st16" points="517.43,104.64 528.92,97.96 532.78,100.19 521.29,106.86 			"/>
		</g>
		<g>
			<polygon class="st16" points="521.29,106.86 521.28,111.29 517.42,109.06 517.43,104.64 			"/>
		</g>
	</g>
	<g class="st6">
		<g>
			<polygon class="st15" points="521.28,115.73 532.77,109.06 536.61,111.27 525.12,117.95 			"/>
		</g>
		<g>
			<polygon class="st15" points="525.14,117.96 536.63,111.28 536.61,115.72 525.13,122.39 			"/>
		</g>
		<g>
			<polygon class="st15" points="525.12,117.95 536.61,111.27 536.63,111.28 525.14,117.96 			"/>
		</g>
		<g>
			<polygon class="st15" points="525.14,117.96 525.13,122.39 521.27,120.17 521.28,115.73 525.12,117.95 			"/>
		</g>
	</g>
	<g class="st6">
		<g>
			<polygon class="st16" points="525.13,113.52 536.62,106.84 536.61,111.27 525.12,117.95 			"/>
		</g>
		<g>
			<polygon class="st16" points="521.28,111.29 532.76,104.62 536.62,106.84 525.13,113.52 			"/>
		</g>
		<g>
			<polygon class="st16" points="525.13,113.52 525.12,117.95 521.28,115.73 521.27,115.72 521.28,111.29 			"/>
		</g>
	</g>
	<g class="st6">
		<g>
			<polygon class="st18" points="528.98,124.62 540.47,117.94 540.45,122.37 528.97,129.05 			"/>
		</g>
		<g>
			<polygon class="st14" points="525.13,122.39 536.61,115.72 540.47,117.94 528.98,124.62 			"/>
		</g>
		<g>
			<polygon class="st14" points="528.98,124.62 528.97,129.05 525.11,126.82 525.13,122.39 			"/>
		</g>
	</g>
	<g class="st6">
		<g>
			<polygon class="st16" points="521.3,102.44 532.79,95.76 532.78,100.19 521.29,106.86 			"/>
		</g>
		<g>
			<polygon class="st16" points="517.44,100.21 528.93,93.53 532.79,95.76 521.3,102.44 			"/>
		</g>
		<g>
			<polygon class="st16" points="521.3,102.44 521.29,106.86 517.43,104.64 517.44,100.21 			"/>
		</g>
	</g>
	<g class="st6">
		<g>
			<polygon class="st16" points="521.32,98 532.8,91.32 532.79,95.76 521.3,102.44 			"/>
		</g>
		<g>
			<polygon class="st16" points="517.46,95.77 528.94,89.1 532.8,91.32 521.32,98 			"/>
		</g>
		<g>
			<polygon class="st16" points="521.32,98 521.3,102.44 517.44,100.21 517.46,95.77 			"/>
		</g>
	</g>
	<g class="st6">
		<g>
			<polygon class="st16" points="525.14,109.09 536.63,102.42 536.62,106.84 525.13,113.52 			"/>
		</g>
		<g>
			<polygon class="st16" points="521.29,106.86 532.78,100.19 536.63,102.42 525.14,109.09 			"/>
		</g>
		<g>
			<polygon class="st16" points="525.14,109.09 525.13,113.52 521.28,111.29 521.29,106.86 			"/>
		</g>
	</g>
	<g class="st6">
		<g>
			<polygon class="st15" points="525.14,117.96 536.63,111.28 540.46,113.5 528.97,120.17 			"/>
		</g>
		<g>
			<polygon class="st15" points="528.99,120.18 540.48,113.51 540.47,117.94 528.98,124.62 			"/>
		</g>
		<g>
			<polygon class="st15" points="528.97,120.17 540.46,113.5 540.48,113.51 528.99,120.18 			"/>
		</g>
		<g>
			<polygon class="st15" points="528.99,120.18 528.98,124.62 525.13,122.39 525.14,117.96 528.97,120.17 			"/>
		</g>
	</g>
	<g class="st6">
		<g>
			<polygon class="st15" points="528.99,115.74 540.47,109.07 540.46,113.5 528.97,120.17 			"/>
		</g>
		<g>
			<polygon class="st15" points="525.13,113.52 536.62,106.84 540.47,109.07 528.99,115.74 			"/>
		</g>
		<g>
			<polygon class="st15" points="528.99,115.74 528.97,120.17 525.14,117.96 525.12,117.95 525.13,113.52 			"/>
		</g>
	</g>
	<g class="st6">
		<g>
			<polygon class="st14" points="521.33,93.57 532.81,86.9 532.8,91.32 521.32,98 			"/>
		</g>
		<g>
			<polygon class="st16" points="517.47,91.34 528.95,84.67 532.81,86.9 521.33,93.57 			"/>
		</g>
		<g>
			<polygon class="st14" points="521.33,93.57 521.32,98 517.46,95.77 517.47,91.34 			"/>
		</g>
	</g>
	<g class="st6">
		<g>
			<polygon class="st16" points="525.16,104.66 536.64,97.99 536.63,102.42 525.14,109.09 			"/>
		</g>
		<g>
			<polygon class="st16" points="521.3,102.44 532.79,95.76 536.64,97.99 525.16,104.66 			"/>
		</g>
		<g>
			<polygon class="st16" points="525.16,104.66 525.14,109.09 521.29,106.86 521.3,102.44 			"/>
		</g>
	</g>
	<g class="st6">
		<g>
			<polygon class="st14" points="528.99,120.18 540.48,113.51 544.31,115.72 532.83,122.4 			"/>
		</g>
		<g>
			<polygon class="st18" points="532.85,122.41 544.33,115.73 544.32,120.17 532.83,126.84 			"/>
		</g>
		<g>
			<polygon class="st14" points="532.83,122.4 544.31,115.72 544.33,115.73 532.85,122.41 			"/>
		</g>
		<g>
			<polygon class="st14" points="532.85,122.41 532.83,126.84 528.98,124.62 528.99,120.18 532.83,122.4 			"/>
		</g>
		<g>
			<polygon class="st15" points="532.84,117.97 544.33,111.29 544.31,115.72 532.83,122.4 			"/>
		</g>
		<g>
			<polygon class="st15" points="528.99,115.74 540.47,109.07 544.33,111.29 532.84,117.97 			"/>
		</g>
		<g>
			<polygon class="st15" points="532.84,117.97 532.83,122.4 528.99,120.18 528.97,120.17 528.99,115.74 			"/>
		</g>
		<g>
			<polygon class="st15" points="529,111.32 528.99,115.74 525.13,113.52 525.14,109.09 			"/>
		</g>
		<g>
			<polygon class="st15" points="529,111.32 540.48,104.64 540.47,109.07 528.99,115.74 			"/>
		</g>
		<g>
			<polygon class="st15" points="525.14,109.09 536.63,102.42 540.48,104.64 529,111.32 			"/>
		</g>
		<g>
			<polygon class="st15" points="529.01,106.89 540.5,100.21 540.48,104.64 529,111.32 			"/>
		</g>
		<g>
			<polygon class="st15" points="525.16,104.66 536.64,97.99 540.5,100.21 529.01,106.89 			"/>
		</g>
		<g>
			<polygon class="st15" points="529.01,106.89 529,111.32 525.14,109.09 525.16,104.66 			"/>
		</g>
		<g>
			<polygon class="st16" points="525.17,100.23 525.16,104.66 521.3,102.44 521.32,98 			"/>
		</g>
		<g>
			<polygon class="st16" points="525.17,100.23 536.66,93.55 536.64,97.99 525.16,104.66 			"/>
		</g>
		<g>
			<polygon class="st16" points="521.32,98 532.8,91.32 536.66,93.55 525.17,100.23 			"/>
		</g>
		<g>
			<polygon class="st15" points="525.18,95.8 536.67,89.12 536.66,93.55 525.17,100.23 			"/>
		</g>
		<g>
			<polygon class="st15" points="521.33,93.57 532.81,86.9 536.67,89.12 525.18,95.8 			"/>
		</g>
		<g>
			<polygon class="st15" points="525.18,95.8 525.17,100.23 521.32,98 521.33,93.57 			"/>
		</g>
	</g>
	<g class="st6">
		<g>
			<polygon class="st14" points="525.2,91.37 536.68,84.69 536.67,89.12 525.18,95.8 			"/>
		</g>
		<g>
			<polygon class="st16" points="521.34,89.14 532.83,82.47 536.68,84.69 525.2,91.37 			"/>
		</g>
		<g>
			<polygon class="st14" points="525.2,91.37 525.18,95.8 521.33,93.57 521.34,89.14 			"/>
		</g>
	</g>
	<g class="st6">
		<g>
			<polygon class="st18" points="536.69,120.19 548.18,113.52 548.17,117.95 536.68,124.62 			"/>
		</g>
		<g>
			<polygon class="st14" points="532.84,117.97 544.33,111.29 548.18,113.52 536.69,120.19 			"/>
		</g>
		<g>
			<polygon class="st14" points="536.69,120.19 536.68,124.62 532.85,122.41 532.83,122.4 532.84,117.97 			"/>
		</g>
		<g>
			<polygon class="st15" points="529,111.32 540.48,104.64 544.34,106.86 532.85,113.54 			"/>
		</g>
		<g>
			<polygon class="st15" points="532.85,113.54 544.34,106.86 544.33,111.29 532.84,117.97 			"/>
		</g>
		<g>
			<polygon class="st15" points="532.85,113.54 532.84,117.97 528.99,115.74 529,111.32 			"/>
		</g>
		<g>
			<polygon class="st14" points="532.85,113.54 544.34,106.86 548.19,109.09 536.71,115.77 			"/>
		</g>
		<g>
			<polygon class="st14" points="536.71,115.77 536.69,120.19 532.84,117.97 532.85,113.54 			"/>
		</g>
		<g>
			<polygon class="st18" points="536.71,115.77 548.19,109.09 548.18,113.52 536.69,120.19 			"/>
		</g>
		<g>
			<polygon class="st15" points="532.87,109.11 532.85,113.54 529,111.32 529.01,106.89 			"/>
		</g>
		<g>
			<polygon class="st15" points="532.87,109.11 544.35,102.44 544.34,106.86 532.85,113.54 			"/>
		</g>
		<g>
			<polygon class="st15" points="529.01,106.89 540.5,100.21 544.35,102.44 532.87,109.11 			"/>
		</g>
		<g>
			<polygon class="st15" points="529.02,102.45 529.01,106.89 525.16,104.66 525.17,100.23 			"/>
		</g>
		<g>
			<polygon class="st15" points="529.02,102.45 540.51,95.78 540.5,100.21 529.01,106.89 			"/>
		</g>
		<g>
			<polygon class="st15" points="525.17,100.23 536.66,93.55 540.51,95.78 529.02,102.45 			"/>
		</g>
		<g>
			<polygon class="st18" points="536.72,111.34 548.21,104.66 548.19,109.09 536.71,115.77 			"/>
		</g>
		<g>
			<polygon class="st14" points="532.87,109.11 544.35,102.44 548.21,104.66 536.72,111.34 			"/>
		</g>
		<g>
			<polygon class="st14" points="536.72,111.34 536.71,115.77 532.85,113.54 532.87,109.11 			"/>
		</g>
		<g>
			<polygon class="st15" points="529.02,102.45 540.51,95.78 544.36,98 532.88,104.68 			"/>
		</g>
		<g>
			<polygon class="st15" points="532.88,104.68 544.36,98 544.35,102.44 532.87,109.11 			"/>
		</g>
		<g>
			<polygon class="st15" points="532.88,104.68 532.87,109.11 529.01,106.89 529.02,102.45 			"/>
		</g>
		<g>
			<polygon class="st15" points="525.18,95.8 536.67,89.12 540.52,91.35 529.04,98.02 			"/>
		</g>
		<g>
			<polygon class="st15" points="529.04,98.02 529.02,102.45 525.17,100.23 525.18,95.8 			"/>
		</g>
		<g>
			<polygon class="st15" points="529.04,98.02 540.52,91.35 540.51,95.78 529.02,102.45 			"/>
		</g>
		<g>
			<polygon class="st16" points="529.04,98.02 540.52,91.35 544.38,93.57 532.89,100.25 			"/>
		</g>
		<g>
			<polygon class="st14" points="532.89,100.25 532.88,104.68 529.02,102.45 529.04,98.02 			"/>
		</g>
		<g>
			<polygon class="st18" points="532.89,100.25 544.38,93.57 544.36,98 532.88,104.68 			"/>
		</g>
		<g>
			<polygon class="st18" points="529.05,93.59 540.54,86.92 540.52,91.35 529.04,98.02 			"/>
		</g>
		<g>
			<polygon class="st16" points="525.2,91.37 536.68,84.69 540.54,86.92 529.05,93.59 			"/>
		</g>
		<g>
			<polygon class="st14" points="529.05,93.59 529.04,98.02 525.18,95.8 525.2,91.37 			"/>
		</g>
	</g>
	<g class="st6">
		<g>
			<polygon class="st18" points="536.73,106.9 548.22,100.23 548.21,104.66 536.72,111.34 			"/>
		</g>
		<g>
			<polygon class="st16" points="532.88,104.68 544.36,98 548.22,100.23 536.73,106.9 			"/>
		</g>
		<g>
			<polygon class="st14" points="536.73,106.9 536.72,111.34 532.87,109.11 532.88,104.68 			"/>
		</g>
	</g>
</g>
</svg>
