<?xml version="1.0" encoding="utf-8"?>
<!-- Generator: Adobe Illustrator 25.4.1, SVG Export Plug-In . SVG Version: 6.00 Build 0)  -->
<svg version="1.1" id="Capa_1" xmlns="http://www.w3.org/2000/svg" xmlns:xlink="http://www.w3.org/1999/xlink" x="0px" y="0px"
	 viewBox="0 0 407.9 201.7" style="enable-background:new 0 0 407.9 201.7;" xml:space="preserve">
<style type="text/css">
	.st0{fill:#DA522A;}
	.st1{fill:#FFFFFF;}
	.st2{fill:#142F4E;}
</style>
<g>
	<g>
		<g>
			<rect x="206.2" y="0" class="st0" width="201.7" height="201.6"/>
			<g>
				<path class="st1" d="M238.6,47.6h-4.2V53h-1.6V40.7h6.4V42h-4.9v4.2h4.2L238.6,47.6L238.6,47.6z"/>
				<path class="st1" d="M245.5,53c-0.1-0.2-0.2-0.5-0.2-1c-0.5,0.8-1.2,1.2-2,1.2s-1.5-0.2-1.9-0.7s-0.7-1.1-0.7-2s0.3-1.7,0.9-2.2
					c0.6-0.5,1.5-0.8,2.6-0.8h1.1v-1c0-0.5-0.1-0.9-0.4-1.2s-0.6-0.3-1.1-0.3c-0.4,0-0.8,0.1-1.1,0.4s-0.4,0.6-0.4,1h-1.5
					c0-0.5,0.1-0.9,0.4-1.3c0.3-0.4,0.6-0.8,1.1-1s1-0.4,1.6-0.4c0.9,0,1.6,0.2,2.1,0.7s0.7,1.2,0.8,2V51c0,0.7,0.1,1.3,0.3,1.8V53
					C247.1,53,245.5,53,245.5,53z M243.5,51.8c0.4,0,0.7-0.1,1.1-0.3c0.3-0.2,0.6-0.5,0.7-0.8v-2.2h-0.9c-0.7,0-1.3,0.2-1.7,0.5
					s-0.6,0.7-0.6,1.3c0,0.5,0.1,0.9,0.3,1.1S243,51.8,243.5,51.8z"/>
				<path class="st1" d="M252.3,51.9c0.5,0,0.9-0.2,1.2-0.5s0.5-0.8,0.5-1.3h1.4c0,0.9-0.4,1.6-0.9,2.2c-0.6,0.6-1.3,0.9-2.2,0.9
					c-1.1,0-2-0.4-2.6-1.1c-0.6-0.7-0.9-1.8-0.9-3.2v-1c0-1.4,0.3-2.4,0.9-3.2s1.5-1.1,2.6-1.1c0.9,0,1.7,0.3,2.2,0.9
					c0.6,0.6,0.8,1.4,0.9,2.4H254c0-0.7-0.2-1.2-0.5-1.5s-0.7-0.5-1.2-0.5c-0.7,0-1.2,0.2-1.5,0.7c-0.3,0.4-0.5,1.2-0.5,2.2V49
					c0,1.1,0.2,1.8,0.5,2.3S251.6,51.9,252.3,51.9z"/>
				<path class="st1" d="M261.8,52.2c-0.5,0.7-1.2,1-2.2,1c-0.8,0-1.5-0.3-1.9-0.9s-0.6-1.4-0.6-2.5v-6h1.5v5.9
					c0,1.4,0.4,2.2,1.3,2.2s1.5-0.4,1.9-1.2v-6.8h1.5V53h-1.4L261.8,52.2z"/>
				<path class="st1" d="M267.1,53h-1.5V40h1.5V53z"/>
				<path class="st1" d="M271.5,41.6v2.2h1.4V45h-1.4v5.7c0,0.4,0.1,0.6,0.2,0.8s0.3,0.3,0.6,0.3c0.2,0,0.4,0,0.6-0.1V53
					c-0.3,0.1-0.7,0.2-1,0.2c-0.6,0-1-0.2-1.4-0.6c-0.3-0.4-0.5-1-0.5-1.8v-5.7h-1.4v-1.2h1.4v-2.2h1.5V41.6z"/>
				<path class="st1" d="M279.4,53c-0.1-0.2-0.2-0.5-0.2-1c-0.5,0.8-1.2,1.2-2,1.2s-1.5-0.2-2-0.7s-0.7-1.1-0.7-2s0.3-1.7,1-2.2
					c0.6-0.5,1.5-0.8,2.6-0.8h1.1v-1c0-0.5-0.1-0.9-0.4-1.2s-0.6-0.3-1.1-0.3s-0.8,0.1-1.1,0.4s-0.4,0.6-0.4,1h-1.5
					c0-0.5,0.1-0.9,0.4-1.3c0.3-0.4,0.6-0.8,1.1-1s1-0.4,1.6-0.4c0.9,0,1.6,0.2,2.1,0.7s0.7,1.2,0.8,2V51c0,0.7,0.1,1.3,0.3,1.8V53
					C280.9,53,279.4,53,279.4,53z M277.3,51.8c0.4,0,0.7-0.1,1-0.3s0.6-0.5,0.7-0.8v-2.2h-0.9c-0.7,0-1.3,0.2-1.7,0.5
					s-0.6,0.7-0.6,1.3c0,0.5,0.1,0.9,0.3,1.1C276.5,51.7,276.9,51.8,277.3,51.8z"/>
				<path class="st1" d="M282.6,48c0-1.4,0.3-2.5,0.8-3.2s1.3-1.1,2.3-1.1c0.9,0,1.6,0.4,2,1.1V40h1.5v13h-1.4l-0.1-1
					c-0.5,0.8-1.2,1.2-2.1,1.2c-1,0-1.7-0.4-2.2-1.1c-0.5-0.7-0.8-1.8-0.8-3.1L282.6,48L282.6,48z M284.1,48.9c0,1,0.1,1.8,0.5,2.3
					c0.3,0.5,0.8,0.7,1.5,0.7c0.8,0,1.3-0.4,1.7-1.1v-4.6c-0.4-0.7-0.9-1.1-1.7-1.1c-0.7,0-1.2,0.2-1.5,0.7s-0.5,1.2-0.5,2.2V48.9z"
					/>
			</g>
			<g>
				<path class="st1" d="M234.5,69.4h4.8v1.3h-6.4V58.4h1.6L234.5,69.4L234.5,69.4z"/>
				<path class="st1" d="M245.7,70.7c-0.1-0.2-0.2-0.5-0.2-1c-0.5,0.8-1.2,1.2-2,1.2s-1.5-0.2-1.9-0.7c-0.5-0.5-0.7-1.1-0.7-2
					s0.3-1.7,0.9-2.2s1.5-0.8,2.6-0.8h1.1v-1c0-0.5-0.1-0.9-0.4-1.2s-0.6-0.3-1.1-0.3c-0.4,0-0.8,0.1-1.1,0.4s-0.4,0.6-0.4,1H241
					c0-0.5,0.1-0.9,0.4-1.3c0.3-0.4,0.6-0.8,1.1-1s1-0.4,1.6-0.4c0.9,0,1.6,0.2,2.1,0.7s0.7,1.2,0.8,2v4.6c0,0.7,0.1,1.3,0.3,1.8
					v0.1C247.2,70.7,245.7,70.7,245.7,70.7z M243.7,69.5c0.4,0,0.7-0.1,1.1-0.3s0.6-0.5,0.7-0.8v-2.2h-0.9c-0.7,0-1.3,0.2-1.7,0.5
					s-0.6,0.7-0.6,1.3c0,0.5,0.1,0.9,0.3,1.1S243.2,69.5,243.7,69.5z"/>
				<path class="st1" d="M251.2,59.3v2.2h1.4v1.2h-1.4v5.7c0,0.4,0.1,0.6,0.2,0.8c0.1,0.2,0.3,0.3,0.6,0.3c0.2,0,0.4,0,0.6-0.1v1.3
					c-0.3,0.1-0.7,0.2-1,0.2c-0.6,0-1.1-0.2-1.4-0.6c-0.3-0.4-0.5-1-0.5-1.8v-5.7h-1.4v-1.2h1.4v-2.2L251.2,59.3L251.2,59.3z"/>
				<path class="st1" d="M256.1,59.1c0,0.2-0.1,0.5-0.2,0.6s-0.4,0.2-0.6,0.2s-0.5-0.1-0.6-0.2s-0.2-0.4-0.2-0.6s0.1-0.5,0.2-0.6
					s0.4-0.3,0.6-0.3c0.3,0,0.5,0.1,0.6,0.3C256.1,58.6,256.1,58.9,256.1,59.1z M256,70.7h-1.5v-9.2h1.5V70.7z"/>
				<path class="st1" d="M259.8,61.5v1c0.6-0.8,1.3-1.2,2.2-1.2c1.6,0,2.5,1.1,2.5,3.2v6.1H263v-6c0-0.7-0.1-1.2-0.4-1.5
					s-0.6-0.5-1.1-0.5c-0.4,0-0.7,0.1-1,0.4s-0.5,0.6-0.7,1v6.7h-1.5v-9.2L259.8,61.5L259.8,61.5z"/>
				<path class="st1" d="M266.5,65.7c0-1.3,0.3-2.4,1-3.2s1.5-1.2,2.6-1.2s1.9,0.4,2.6,1.1s1,1.8,1,3.1v1c0,1.3-0.3,2.4-1,3.2
					c-0.6,0.8-1.5,1.2-2.6,1.2s-1.9-0.4-2.6-1.1c-0.6-0.8-1-1.8-1-3.1V65.7L266.5,65.7z M268,66.6c0,0.9,0.2,1.7,0.5,2.2
					s0.9,0.8,1.5,0.8c1.3,0,2-1,2-2.9v-1c0-0.9-0.2-1.7-0.6-2.2s-0.9-0.8-1.5-0.8s-1.1,0.3-1.5,0.8s-0.5,1.3-0.5,2.2v0.9H268z"/>
				<path class="st1" d="M280.2,70.7c-0.1-0.2-0.2-0.5-0.2-1c-0.5,0.8-1.2,1.2-2,1.2s-1.5-0.2-2-0.7s-0.7-1.1-0.7-2s0.3-1.7,1-2.2
					s1.5-0.8,2.6-0.8h1.1v-1c0-0.5-0.1-0.9-0.4-1.2s-0.6-0.3-1.1-0.3s-0.8,0.1-1.1,0.4s-0.4,0.6-0.4,1h-1.5c0-0.5,0.1-0.9,0.4-1.3
					c0.3-0.4,0.6-0.8,1.1-1s1-0.4,1.6-0.4c0.9,0,1.6,0.2,2.1,0.7s0.7,1.2,0.8,2v4.6c0,0.7,0.1,1.3,0.3,1.8v0.1
					C281.8,70.7,280.2,70.7,280.2,70.7z M278.2,69.5c0.4,0,0.7-0.1,1-0.3s0.6-0.5,0.7-0.8v-2.2H279c-0.7,0-1.3,0.2-1.7,0.5
					c-0.4,0.3-0.6,0.7-0.6,1.3c0,0.5,0.1,0.9,0.3,1.1S277.7,69.5,278.2,69.5z"/>
				<path class="st1" d="M285.2,61.5v0.8c0.6-0.7,1.3-1,2.2-1c1,0,1.7,0.4,2.1,1.3c0.6-0.9,1.4-1.3,2.4-1.3c1.7,0,2.6,1.1,2.6,3.2
					v6.2H293v-6c0-0.7-0.1-1.2-0.4-1.5s-0.6-0.5-1.2-0.5c-0.5,0-0.8,0.2-1.1,0.5S290,64,290,64.6v6.2h-1.5v-6.1
					c0-1.3-0.5-1.9-1.5-1.9c-0.8,0-1.3,0.4-1.6,1.1v6.9h-1.5v-9.2C283.9,61.5,285.2,61.5,285.2,61.5z"/>
				<path class="st1" d="M300.2,70.9c-1.1,0-2-0.3-2.6-1s-0.9-1.7-0.9-3v-1.1c0-1.4,0.3-2.4,0.9-3.2s1.4-1.2,2.5-1.2s1.9,0.3,2.4,1
					s0.8,1.8,0.8,3.2v1h-5.1v0.2c0,1,0.2,1.7,0.6,2.2c0.4,0.4,0.9,0.7,1.6,0.7c0.4,0,0.8-0.1,1.2-0.2c0.3-0.2,0.6-0.4,1-0.8l0.8,0.9
					C302.5,70.4,301.5,70.9,300.2,70.9z M300,62.7c-0.6,0-1.1,0.2-1.4,0.6c-0.3,0.4-0.5,1.1-0.5,2h3.6v-0.2c0-0.9-0.2-1.5-0.5-1.9
					C301,62.8,300.6,62.7,300,62.7z"/>
				<path class="st1" d="M308.8,63c-0.2,0-0.4-0.1-0.7-0.1c-0.8,0-1.3,0.4-1.6,1.3v6.6H305v-9.2h1.5v0.9c0.4-0.7,1-1.1,1.7-1.1
					c0.2,0,0.4,0,0.6,0.1V63z"/>
				<path class="st1" d="M312.1,59.1c0,0.2-0.1,0.5-0.2,0.6c-0.1,0.2-0.4,0.2-0.6,0.2c-0.3,0-0.5-0.1-0.6-0.2s-0.2-0.4-0.2-0.6
					s0.1-0.5,0.2-0.6c0.1-0.2,0.4-0.3,0.6-0.3s0.5,0.1,0.6,0.3S312.1,58.9,312.1,59.1z M312,70.7h-1.5v-9.2h1.5V70.7z"/>
				<path class="st1" d="M317.5,69.6c0.5,0,0.9-0.2,1.2-0.5c0.3-0.3,0.5-0.8,0.5-1.3h1.4c0,0.9-0.4,1.6-0.9,2.2s-1.3,0.9-2.2,0.9
					c-1.1,0-2-0.4-2.6-1.1S314,68,314,66.6v-1c0-1.4,0.3-2.4,0.9-3.2s1.5-1.1,2.6-1.1c0.9,0,1.7,0.3,2.2,0.9
					c0.5,0.6,0.8,1.4,0.9,2.4h-1.4c0-0.7-0.2-1.2-0.5-1.5s-0.7-0.5-1.2-0.5c-0.7,0-1.2,0.2-1.5,0.7s-0.5,1.2-0.5,2.2v1.2
					c0,1.1,0.2,1.8,0.5,2.3C316.3,69.4,316.8,69.6,317.5,69.6z"/>
				<path class="st1" d="M327.1,70.7c-0.1-0.2-0.2-0.5-0.2-1c-0.5,0.8-1.2,1.2-2,1.2s-1.5-0.2-2-0.7s-0.7-1.1-0.7-2s0.3-1.7,1-2.2
					s1.5-0.8,2.6-0.8h1.1v-1c0-0.5-0.1-0.9-0.4-1.2s-0.6-0.3-1.1-0.3s-0.8,0.1-1.1,0.4s-0.4,0.6-0.4,1h-1.5c0-0.5,0.1-0.9,0.4-1.3
					c0.3-0.4,0.6-0.8,1.1-1s1-0.4,1.6-0.4c0.9,0,1.6,0.2,2.1,0.7s0.7,1.2,0.8,2v4.6c0,0.7,0.1,1.3,0.3,1.8v0.1
					C328.6,70.7,327.1,70.7,327.1,70.7z M325.1,69.5c0.4,0,0.7-0.1,1-0.3c0.3-0.2,0.6-0.5,0.7-0.8v-2.2H326c-0.7,0-1.3,0.2-1.7,0.5
					c-0.4,0.3-0.6,0.7-0.6,1.3c0,0.5,0.1,0.9,0.3,1.1S324.6,69.5,325.1,69.5z"/>
				<path class="st1" d="M332.1,61.5v1c0.6-0.8,1.3-1.2,2.2-1.2c1.6,0,2.5,1.1,2.5,3.2v6.1h-1.5v-6c0-0.7-0.1-1.2-0.4-1.5
					s-0.6-0.5-1.1-0.5c-0.4,0-0.7,0.1-1,0.4s-0.5,0.6-0.7,1v6.7h-1.5v-9.2L332.1,61.5L332.1,61.5z"/>
				<path class="st1" d="M343.8,70.7c-0.1-0.2-0.2-0.5-0.2-1c-0.5,0.8-1.2,1.2-2,1.2s-1.5-0.2-2-0.7s-0.7-1.1-0.7-2s0.3-1.7,1-2.2
					s1.5-0.8,2.6-0.8h1.1v-1c0-0.5-0.1-0.9-0.4-1.2s-0.6-0.3-1.1-0.3s-0.8,0.1-1.1,0.4s-0.4,0.6-0.4,1h-1.5c0-0.5,0.1-0.9,0.4-1.3
					c0.3-0.4,0.6-0.8,1.1-1s1-0.4,1.6-0.4c0.9,0,1.6,0.2,2.1,0.7s0.7,1.2,0.8,2v4.6c0,0.7,0.1,1.3,0.3,1.8v0.1
					C345.4,70.7,343.8,70.7,343.8,70.7z M341.8,69.5c0.4,0,0.7-0.1,1-0.3s0.6-0.5,0.7-0.8v-2.2h-0.9c-0.7,0-1.3,0.2-1.7,0.5
					c-0.4,0.3-0.6,0.7-0.6,1.3c0,0.5,0.1,0.9,0.3,1.1C340.9,69.4,341.3,69.5,341.8,69.5z"/>
				<path class="st1" d="M351,65.7c0-1.4,0.3-2.5,0.8-3.2s1.3-1.1,2.3-1.1c0.9,0,1.6,0.4,2,1.1v-4.8h1.5v13h-1.4l-0.1-1
					c-0.5,0.8-1.2,1.2-2.1,1.2c-1,0-1.7-0.4-2.2-1.1S351,68,351,66.7L351,65.7L351,65.7z M352.5,66.6c0,1,0.1,1.8,0.5,2.3
					c0.3,0.5,0.8,0.7,1.5,0.7c0.8,0,1.3-0.4,1.7-1.1v-4.6c-0.4-0.7-0.9-1.1-1.7-1.1c-0.7,0-1.2,0.2-1.5,0.7
					c-0.3,0.5-0.5,1.2-0.5,2.2V66.6z"/>
				<path class="st1" d="M363.3,70.9c-1.1,0-2-0.3-2.6-1s-0.9-1.7-0.9-3v-1.1c0-1.4,0.3-2.4,0.9-3.2s1.4-1.2,2.5-1.2s1.9,0.3,2.4,1
					s0.8,1.8,0.8,3.2v1h-5.1v0.2c0,1,0.2,1.7,0.5,2.2c0.4,0.4,0.9,0.7,1.6,0.7c0.4,0,0.8-0.1,1.2-0.2c0.3-0.2,0.6-0.4,1-0.8l0.8,0.9
					C365.6,70.4,364.6,70.9,363.3,70.9z M363.1,62.7c-0.6,0-1.1,0.2-1.4,0.6c-0.3,0.4-0.5,1.1-0.5,2h3.6v-0.2c0-0.9-0.2-1.5-0.5-1.9
					C364.1,62.8,363.7,62.7,363.1,62.7z"/>
			</g>
			<g>
				<path class="st1" d="M240.6,84.5c-0.1,1.3-0.4,2.3-1.1,3s-1.6,1.1-2.9,1.1c-1.2,0-2.2-0.5-2.9-1.4s-1.1-2.2-1.1-3.8v-2.2
					c0-1.6,0.4-2.9,1.1-3.8s1.8-1.4,3.1-1.4c1.2,0,2.1,0.4,2.8,1.1c0.6,0.7,1,1.7,1.1,3.1h-1.6c-0.1-1-0.3-1.7-0.6-2.2
					s-0.9-0.6-1.6-0.6c-0.8,0-1.5,0.3-1.9,1s-0.7,1.6-0.7,2.9v2.3c0,1.2,0.2,2.2,0.6,2.9s1,1,1.9,1s1.4-0.2,1.8-0.6s0.6-1.1,0.7-2.2
					L240.6,84.5L240.6,84.5z"/>
				<path class="st1" d="M244.3,76.8c0,0.2-0.1,0.5-0.2,0.6s-0.4,0.2-0.6,0.2s-0.5-0.1-0.6-0.2s-0.2-0.4-0.2-0.6s0.1-0.5,0.2-0.6
					c0.1-0.2,0.4-0.3,0.6-0.3c0.3,0,0.5,0.1,0.6,0.3C244.2,76.3,244.3,76.5,244.3,76.8z M244.2,88.4h-1.5v-9.2h1.5V88.4z"/>
				<path class="st1" d="M249.8,88.6c-1.1,0-2-0.3-2.6-1s-0.9-1.7-0.9-3v-1.1c0-1.4,0.3-2.4,0.9-3.2c0.6-0.8,1.4-1.2,2.5-1.2
					s1.9,0.3,2.4,1s0.8,1.8,0.8,3.2v1h-5.1v0.2c0,1,0.2,1.7,0.6,2.2c0.4,0.4,0.9,0.7,1.6,0.7c0.4,0,0.8-0.1,1.2-0.2s0.6-0.4,0.9-0.8
					l0.8,0.9C252.1,88.1,251.1,88.6,249.8,88.6z M249.6,80.3c-0.6,0-1.1,0.2-1.4,0.6s-0.5,1.1-0.5,2h3.6v-0.2c0-0.9-0.2-1.5-0.5-1.9
					C250.6,80.5,250.2,80.3,249.6,80.3z"/>
				<path class="st1" d="M256.1,79.2v1c0.6-0.8,1.3-1.2,2.2-1.2c1.6,0,2.5,1.1,2.5,3.2v6.1h-1.5v-6c0-0.7-0.1-1.2-0.4-1.5
					c-0.2-0.3-0.6-0.4-1.1-0.4c-0.4,0-0.7,0.1-1,0.4s-0.5,0.6-0.7,1v6.7h-1.5v-9.2L256.1,79.2L256.1,79.2z"/>
				<path class="st1" d="M266.2,87.3c0.5,0,0.9-0.2,1.2-0.5s0.5-0.8,0.5-1.3h1.4c0,0.9-0.4,1.6-0.9,2.2s-1.3,0.9-2.2,0.9
					c-1.1,0-2-0.4-2.6-1.1s-0.9-1.8-0.9-3.2v-1c0-1.4,0.3-2.4,0.9-3.2c0.6-0.7,1.5-1.1,2.6-1.1c0.9,0,1.7,0.3,2.2,0.9
					s0.8,1.4,0.9,2.4h-1.4c0-0.7-0.2-1.2-0.5-1.5s-0.7-0.5-1.2-0.5c-0.7,0-1.2,0.2-1.5,0.7s-0.5,1.2-0.5,2.2v1.2
					c0,1.1,0.2,1.8,0.5,2.3S265.6,87.3,266.2,87.3z"/>
				<path class="st1" d="M272.8,76.8c0,0.2-0.1,0.5-0.2,0.6c-0.1,0.2-0.4,0.2-0.6,0.2c-0.3,0-0.5-0.1-0.6-0.2s-0.2-0.4-0.2-0.6
					s0.1-0.5,0.2-0.6c0.1-0.2,0.4-0.3,0.6-0.3c0.3,0,0.5,0.1,0.6,0.3C272.8,76.3,272.8,76.5,272.8,76.8z M272.7,88.4h-1.5v-9.2h1.5
					V88.4z"/>
				<path class="st1" d="M279.8,88.4c-0.1-0.2-0.2-0.5-0.2-1c-0.5,0.8-1.2,1.2-2,1.2s-1.5-0.2-2-0.7s-0.7-1.1-0.7-2s0.3-1.7,1-2.2
					s1.5-0.8,2.6-0.8h1.1v-1c0-0.6-0.1-0.9-0.4-1.2s-0.6-0.3-1.1-0.3s-0.8,0.1-1.1,0.4s-0.4,0.6-0.4,1h-1.5c0-0.5,0.1-0.9,0.4-1.3
					s0.6-0.8,1.1-1s1-0.4,1.6-0.4c0.9,0,1.6,0.2,2.1,0.7s0.7,1.2,0.8,2v4.6c0,0.7,0.1,1.3,0.3,1.8v0.1
					C281.4,88.4,279.8,88.4,279.8,88.4z M277.8,87.2c0.4,0,0.7-0.1,1-0.3s0.6-0.5,0.7-0.8v-2.2h-0.9c-0.7,0-1.3,0.2-1.7,0.5
					c-0.4,0.3-0.6,0.7-0.6,1.3c0,0.5,0.1,0.9,0.3,1.1S277.3,87.2,277.8,87.2z"/>
				<path class="st1" d="M287.9,86.1c0-0.3-0.1-0.6-0.4-0.8s-0.7-0.5-1.4-0.8c-0.8-0.3-1.4-0.6-1.7-0.9s-0.6-0.5-0.7-0.8
					s-0.2-0.7-0.2-1.1c0-0.8,0.3-1.4,0.8-1.9s1.2-0.7,2.1-0.7s1.6,0.3,2.1,0.8s0.8,1.2,0.8,2h-1.5c0-0.4-0.1-0.8-0.4-1.1
					c-0.3-0.3-0.6-0.4-1.1-0.4c-0.4,0-0.8,0.1-1,0.3s-0.4,0.5-0.4,0.9c0,0.3,0.1,0.6,0.3,0.7c0.2,0.2,0.6,0.4,1.3,0.7
					c1.1,0.4,1.9,0.9,2.3,1.3s0.6,0.9,0.6,1.6c0,0.8-0.3,1.4-0.8,1.9s-1.3,0.7-2.2,0.7c-1,0-1.7-0.3-2.3-0.8s-0.9-1.2-0.9-2.1h1.5
					c0,0.5,0.2,0.9,0.5,1.2c0.3,0.3,0.7,0.4,1.2,0.4s0.9-0.1,1.1-0.3S287.9,86.4,287.9,86.1z"/>
				<path class="st1" d="M300.9,85.3c0-0.6-0.2-1.1-0.5-1.4s-0.9-0.7-1.8-1s-1.5-0.6-2-1c-0.5-0.3-0.8-0.7-1-1.2
					c-0.2-0.4-0.3-0.9-0.3-1.5c0-1,0.3-1.8,1-2.4c0.6-0.6,1.5-0.9,2.6-0.9c0.7,0,1.4,0.2,1.9,0.5c0.6,0.3,1,0.8,1.3,1.3
					c0.3,0.6,0.5,1.2,0.5,1.9H301c0-0.8-0.2-1.3-0.5-1.8s-0.9-0.6-1.6-0.6c-0.6,0-1.1,0.2-1.5,0.5c-0.3,0.3-0.5,0.8-0.5,1.5
					c0,0.5,0.2,1,0.6,1.3s1,0.7,1.7,0.9c1.2,0.4,2.1,0.9,2.6,1.5s0.8,1.4,0.8,2.3c0,1-0.3,1.8-1,2.4s-1.5,0.9-2.7,0.9
					c-0.7,0-1.4-0.2-2-0.5s-1.1-0.8-1.4-1.3c-0.4-0.6-0.5-1.2-0.5-2h1.6c0,0.8,0.2,1.4,0.6,1.8s1,0.6,1.7,0.6s1.2-0.2,1.5-0.5
					C300.7,86.4,300.9,85.9,300.9,85.3z"/>
				<path class="st1" d="M304,83.4c0-1.3,0.3-2.4,1-3.2s1.5-1.2,2.6-1.2s1.9,0.4,2.6,1.1s1,1.8,1,3.1v1c0,1.3-0.3,2.4-1,3.2
					c-0.6,0.8-1.5,1.2-2.6,1.2s-1.9-0.4-2.6-1.1c-0.6-0.8-1-1.8-1-3.1V83.4L304,83.4z M305.5,84.3c0,0.9,0.2,1.7,0.6,2.2
					s0.9,0.8,1.5,0.8c1.3,0,2-1,2-2.9v-1c0-0.9-0.2-1.7-0.6-2.2s-0.9-0.8-1.5-0.8s-1.1,0.3-1.5,0.8s-0.6,1.3-0.6,2.2v0.9H305.5z"/>
				<path class="st1" d="M316.2,87.3c0.5,0,0.9-0.2,1.2-0.5c0.3-0.3,0.5-0.8,0.5-1.3h1.4c0,0.9-0.4,1.6-0.9,2.2s-1.3,0.9-2.2,0.9
					c-1.1,0-2-0.4-2.6-1.1s-0.9-1.8-0.9-3.2v-1c0-1.4,0.3-2.4,0.9-3.2c0.6-0.7,1.5-1.1,2.6-1.1c0.9,0,1.7,0.3,2.2,0.9
					s0.8,1.4,0.9,2.4h-1.4c0-0.7-0.2-1.2-0.5-1.5s-0.7-0.5-1.2-0.5c-0.7,0-1.2,0.2-1.5,0.7s-0.5,1.2-0.5,2.2v1.2
					c0,1.1,0.2,1.8,0.5,2.3C315,87.1,315.5,87.3,316.2,87.3z"/>
				<path class="st1" d="M322.8,76.8c0,0.2-0.1,0.5-0.2,0.6c-0.1,0.2-0.4,0.2-0.6,0.2c-0.3,0-0.5-0.1-0.6-0.2s-0.2-0.4-0.2-0.6
					s0.1-0.5,0.2-0.6c0.1-0.2,0.4-0.3,0.6-0.3s0.5,0.1,0.6,0.3S322.8,76.5,322.8,76.8z M322.7,88.4h-1.5v-9.2h1.5V88.4z"/>
				<path class="st1" d="M329.7,88.4c-0.1-0.2-0.2-0.5-0.2-1c-0.5,0.8-1.2,1.2-2,1.2s-1.5-0.2-2-0.7s-0.7-1.1-0.7-2s0.3-1.7,1-2.2
					s1.5-0.8,2.6-0.8h1.1v-1c0-0.6-0.1-0.9-0.4-1.2c-0.2-0.2-0.6-0.3-1.1-0.3s-0.8,0.1-1.1,0.4c-0.3,0.3-0.4,0.6-0.4,1H325
					c0-0.5,0.1-0.9,0.4-1.3s0.6-0.8,1.1-1s1-0.4,1.6-0.4c0.9,0,1.6,0.2,2.1,0.7s0.7,1.2,0.8,2v4.6c0,0.7,0.1,1.3,0.3,1.8v0.1
					C331.3,88.4,329.7,88.4,329.7,88.4z M327.7,87.2c0.4,0,0.7-0.1,1-0.3c0.3-0.2,0.6-0.5,0.7-0.8v-2.2h-0.9c-0.7,0-1.3,0.2-1.7,0.5
					c-0.4,0.3-0.6,0.7-0.6,1.3c0,0.5,0.1,0.9,0.3,1.1C326.9,87.1,327.2,87.2,327.7,87.2z"/>
				<path class="st1" d="M335,88.4h-1.5v-13h1.5V88.4z"/>
				<path class="st1" d="M340.6,88.6c-1.1,0-2-0.3-2.6-1s-0.9-1.7-0.9-3v-1.1c0-1.4,0.3-2.4,0.9-3.2s1.4-1.2,2.5-1.2s1.9,0.3,2.4,1
					s0.8,1.8,0.8,3.2v1h-5.1v0.2c0,1,0.2,1.7,0.6,2.2s0.9,0.7,1.6,0.7c0.4,0,0.8-0.1,1.2-0.2c0.3-0.2,0.6-0.4,1-0.8l0.8,0.9
					C342.9,88.1,341.9,88.6,340.6,88.6z M340.4,80.3c-0.6,0-1.1,0.2-1.4,0.6s-0.5,1.1-0.5,2h3.6v-0.2c0-0.9-0.2-1.5-0.5-1.9
					C341.4,80.5,341,80.3,340.4,80.3z"/>
				<path class="st1" d="M349.9,86.1c0-0.3-0.1-0.6-0.4-0.8s-0.7-0.5-1.4-0.8c-0.8-0.3-1.4-0.6-1.7-0.9s-0.6-0.5-0.7-0.8
					s-0.2-0.7-0.2-1.1c0-0.8,0.3-1.4,0.8-1.9s1.2-0.7,2.1-0.7s1.6,0.3,2.2,0.8s0.8,1.2,0.8,2h-1.5c0-0.4-0.1-0.8-0.4-1.1
					c-0.3-0.3-0.6-0.4-1.1-0.4c-0.4,0-0.8,0.1-1,0.3s-0.4,0.5-0.4,0.9c0,0.3,0.1,0.6,0.3,0.7c0.2,0.2,0.6,0.4,1.3,0.7
					c1.1,0.4,1.9,0.9,2.3,1.3s0.6,0.9,0.6,1.6c0,0.8-0.3,1.4-0.8,1.9s-1.3,0.7-2.2,0.7c-1,0-1.7-0.3-2.3-0.8s-0.9-1.2-0.9-2.1h1.5
					c0,0.5,0.2,0.9,0.5,1.2c0.3,0.3,0.7,0.4,1.2,0.4s0.9-0.1,1.1-0.3C349.8,86.7,349.9,86.4,349.9,86.1z"/>
				<path class="st1" d="M353.5,87.6c0-0.3,0.1-0.5,0.2-0.7s0.4-0.3,0.7-0.3s0.6,0.1,0.7,0.3c0.2,0.2,0.2,0.4,0.2,0.7
					c0,0.3-0.1,0.5-0.2,0.7c-0.2,0.2-0.4,0.3-0.7,0.3s-0.6-0.1-0.7-0.3C353.5,88.1,353.5,87.8,353.5,87.6z"/>
			</g>
			<g>
				<path class="st1" d="M238.3,103c0-0.6-0.2-1.1-0.5-1.4s-0.9-0.7-1.8-1s-1.5-0.6-2-1c-0.5-0.3-0.8-0.7-1-1.2
					c-0.2-0.4-0.3-0.9-0.3-1.5c0-1,0.3-1.8,1-2.4c0.6-0.6,1.5-0.9,2.6-0.9c0.7,0,1.4,0.2,1.9,0.5c0.6,0.3,1,0.8,1.3,1.3
					c0.3,0.6,0.5,1.2,0.5,1.9h-1.6c0-0.8-0.2-1.3-0.6-1.8s-0.9-0.6-1.6-0.6c-0.6,0-1.1,0.2-1.5,0.5c-0.3,0.3-0.5,0.8-0.5,1.5
					c0,0.5,0.2,1,0.6,1.3s0.9,0.7,1.7,0.9c1.2,0.4,2.1,0.9,2.6,1.5s0.8,1.4,0.8,2.3c0,1-0.3,1.8-1,2.4s-1.5,0.9-2.7,0.9
					c-0.7,0-1.4-0.2-2-0.5s-1.1-0.8-1.4-1.3c-0.4-0.6-0.5-1.2-0.5-2h1.6c0,0.8,0.2,1.4,0.6,1.8s1,0.6,1.7,0.6s1.2-0.2,1.5-0.5
					C238.1,104.1,238.3,103.6,238.3,103z"/>
				<path class="st1" d="M245,106.3c-1.1,0-2-0.3-2.6-1s-0.9-1.7-0.9-3v-1.1c0-1.4,0.3-2.4,0.9-3.2c0.6-0.8,1.4-1.2,2.5-1.2
					s1.9,0.3,2.4,1s0.8,1.8,0.8,3.2v1H243v0.2c0,1,0.2,1.7,0.6,2.2c0.4,0.4,0.9,0.7,1.6,0.7c0.4,0,0.8-0.1,1.2-0.2s0.6-0.4,0.9-0.8
					l0.8,0.9C247.3,105.8,246.3,106.3,245,106.3z M244.8,98c-0.6,0-1.1,0.2-1.4,0.6s-0.5,1.1-0.5,2h3.6v-0.2c0-0.9-0.2-1.5-0.5-1.9
					C245.8,98.2,245.4,98,244.8,98z"/>
				<path class="st1" d="M249.5,101.1c0-1.4,0.3-2.5,0.8-3.2s1.3-1.1,2.3-1.1c0.9,0,1.6,0.4,2.1,1.1v-4.8h1.5v13h-1.4l-0.1-1
					c-0.5,0.8-1.2,1.2-2.1,1.2c-0.9,0-1.7-0.4-2.2-1.1s-0.8-1.8-0.8-3.1L249.5,101.1L249.5,101.1z M251,101.9c0,1,0.1,1.8,0.5,2.3
					c0.3,0.5,0.8,0.7,1.5,0.7c0.8,0,1.3-0.4,1.7-1.1v-4.6c-0.4-0.7-0.9-1.1-1.7-1.1c-0.7,0-1.2,0.2-1.5,0.7S251,100,251,101V101.9z"
					/>
				<path class="st1" d="M261.7,106.3c-1.1,0-2-0.3-2.6-1s-0.9-1.7-0.9-3v-1.1c0-1.4,0.3-2.4,0.9-3.2s1.4-1.2,2.5-1.2s1.9,0.3,2.4,1
					s0.8,1.8,0.8,3.2v1h-5.1v0.2c0,1,0.2,1.7,0.5,2.2c0.4,0.4,0.9,0.7,1.6,0.7c0.4,0,0.8-0.1,1.2-0.2c0.3-0.2,0.6-0.4,1-0.8l0.8,0.9
					C264.1,105.8,263.1,106.3,261.7,106.3z M261.6,98c-0.6,0-1.1,0.2-1.4,0.6s-0.5,1.1-0.5,2h3.6v-0.2c0-0.9-0.2-1.5-0.5-1.9
					C262.5,98.2,262.1,98,261.6,98z"/>
				<path class="st1" d="M276.5,102.9h-4.2l-1,3.2h-1.6l4-12.3h1.3l4,12.3h-1.6L276.5,102.9z M272.8,101.5h3.4l-1.7-5.6L272.8,101.5
					z"/>
				<path class="st1" d="M284.4,98.3c-0.2,0-0.4-0.1-0.7-0.1c-0.8,0-1.3,0.4-1.6,1.3v6.6h-1.5v-9.2h1.5v0.9c0.4-0.7,1-1.1,1.7-1.1
					c0.2,0,0.4,0,0.6,0.1V98.3z"/>
				<path class="st1" d="M285.4,101.1c0-1.4,0.3-2.5,0.8-3.2s1.3-1.1,2.3-1.1c0.9,0,1.6,0.4,2.1,1.2l0.1-1h1.4v9.3
					c0,1.1-0.3,2-0.9,2.6s-1.4,0.9-2.4,0.9c-0.5,0-1-0.1-1.5-0.3s-1-0.5-1.3-0.8l0.6-1c0.6,0.6,1.3,0.9,2.1,0.9c1.2,0,1.9-0.7,1.9-2
					v-1.2c-0.5,0.7-1.2,1.1-2.1,1.1c-1,0-1.7-0.4-2.2-1.1s-0.8-1.7-0.8-3.1L285.4,101.1L285.4,101.1z M286.9,101.9
					c0,1,0.1,1.8,0.5,2.3c0.3,0.5,0.8,0.7,1.5,0.7c0.8,0,1.3-0.4,1.7-1.1v-4.6c-0.4-0.8-0.9-1.1-1.7-1.1c-0.7,0-1.2,0.2-1.5,0.7
					s-0.5,1.2-0.5,2.2V101.9z"/>
				<path class="st1" d="M297.5,106.3c-1.1,0-2-0.3-2.6-1s-0.9-1.7-0.9-3v-1.1c0-1.4,0.3-2.4,0.9-3.2c0.6-0.8,1.4-1.2,2.5-1.2
					s1.9,0.3,2.4,1s0.8,1.8,0.8,3.2v1h-5.1v0.2c0,1,0.2,1.7,0.6,2.2c0.4,0.4,0.9,0.7,1.6,0.7c0.4,0,0.8-0.1,1.2-0.2
					c0.3-0.2,0.6-0.4,1-0.8l0.8,0.9C299.9,105.8,298.9,106.3,297.5,106.3z M297.4,98c-0.6,0-1.1,0.2-1.4,0.6s-0.5,1.1-0.5,2h3.6
					v-0.2c0-0.9-0.2-1.5-0.5-1.9C298.4,98.2,297.9,98,297.4,98z"/>
				<path class="st1" d="M303.8,96.9v1c0.6-0.8,1.3-1.2,2.2-1.2c1.6,0,2.5,1.1,2.5,3.2v6.1H307v-6c0-0.7-0.1-1.2-0.4-1.5
					c-0.2-0.3-0.6-0.4-1.1-0.4c-0.4,0-0.7,0.1-1,0.4s-0.5,0.6-0.7,1v6.7h-1.5V97L303.8,96.9L303.8,96.9z"/>
				<path class="st1" d="M312.8,94.7v2.2h1.4v1.2h-1.4v5.7c0,0.4,0.1,0.6,0.2,0.8c0.1,0.2,0.3,0.3,0.6,0.3c0.2,0,0.4,0,0.6-0.1v1.3
					c-0.3,0.1-0.7,0.2-1,0.2c-0.6,0-1-0.2-1.4-0.6s-0.5-1-0.5-1.8v-5.7h-1.4V97h1.4v-2.2C311.3,94.7,312.8,94.7,312.8,94.7z"/>
				<path class="st1" d="M317.7,94.5c0,0.2-0.1,0.5-0.2,0.6c-0.1,0.2-0.4,0.2-0.6,0.2c-0.3,0-0.5-0.1-0.6-0.2s-0.2-0.4-0.2-0.6
					s0.1-0.5,0.2-0.6c0.1-0.2,0.4-0.3,0.6-0.3c0.3,0,0.5,0.1,0.6,0.3C317.6,94,317.7,94.2,317.7,94.5z M317.6,106.1h-1.5v-9.2h1.5
					V106.1z"/>
				<path class="st1" d="M321.3,96.9v1c0.6-0.8,1.3-1.2,2.2-1.2c1.6,0,2.5,1.1,2.5,3.2v6.1h-1.5v-6c0-0.7-0.1-1.2-0.4-1.5
					c-0.2-0.3-0.6-0.4-1.1-0.4c-0.4,0-0.7,0.1-1,0.4s-0.5,0.6-0.7,1v6.7h-1.5V97L321.3,96.9L321.3,96.9z"/>
				<path class="st1" d="M333,106.1c-0.1-0.2-0.2-0.5-0.2-1c-0.5,0.8-1.2,1.2-2,1.2s-1.5-0.2-2-0.7s-0.7-1.1-0.7-2s0.3-1.7,1-2.2
					s1.5-0.8,2.6-0.8h1.1v-1c0-0.6-0.1-0.9-0.4-1.2c-0.2-0.2-0.6-0.3-1.1-0.3s-0.8,0.1-1.1,0.4s-0.4,0.6-0.4,1h-1.5
					c0-0.5,0.1-0.9,0.4-1.3s0.6-0.8,1.1-1s1-0.4,1.6-0.4c0.9,0,1.6,0.2,2.1,0.7s0.7,1.2,0.8,2v4.6c0,0.7,0.1,1.3,0.3,1.8v0.1
					C334.6,106.1,333,106.1,333,106.1z M331,104.9c0.4,0,0.7-0.1,1-0.3c0.3-0.2,0.6-0.5,0.7-0.8v-2.2H332c-0.7,0-1.3,0.2-1.7,0.5
					c-0.4,0.3-0.6,0.7-0.6,1.3c0,0.5,0.1,0.9,0.3,1.1C330.2,104.8,330.5,104.9,331,104.9z"/>
				<path class="st1" d="M336.8,105.3c0-0.3,0.1-0.5,0.2-0.7s0.4-0.3,0.7-0.3s0.6,0.1,0.7,0.3s0.2,0.4,0.2,0.7
					c0,0.3-0.1,0.5-0.2,0.7s-0.4,0.3-0.7,0.3s-0.6-0.1-0.7-0.3C336.8,105.8,336.8,105.5,336.8,105.3z"/>
			</g>
			<g>
				<path class="st1" d="M235.1,138.1v4.4h-2.5V130h4.3c1.2,0,2.2,0.4,3,1.1s1.1,1.8,1.1,3s-0.4,2.2-1.1,2.9c-0.7,0.7-1.7,1.1-3,1.1
					H235.1L235.1,138.1z M235.1,136h1.7c0.5,0,0.9-0.2,1.1-0.5s0.4-0.8,0.4-1.4c0-0.6-0.1-1.1-0.4-1.5s-0.6-0.6-1.1-0.6H235v4H235.1
					z"/>
				<path class="st1" d="M247,135.6l-0.8-0.1c-0.7,0-1.1,0.3-1.4,0.9v6.1h-2.4v-9.3h2.3l0.1,1c0.4-0.8,0.9-1.2,1.6-1.2
					c0.3,0,0.5,0,0.7,0.1L247,135.6z"/>
				<path class="st1" d="M248,137.6c0-1.4,0.3-2.5,1-3.3s1.6-1.2,2.8-1.2s2.1,0.4,2.8,1.2s1,1.9,1,3.3v0.6c0,1.4-0.3,2.5-1,3.3
					s-1.6,1.2-2.8,1.2s-2.1-0.4-2.8-1.2s-1-1.9-1-3.3V137.6z M250.4,138.2c0,1.7,0.4,2.5,1.3,2.5c0.8,0,1.3-0.7,1.3-2.1v-1
					c0-0.9-0.1-1.5-0.4-1.9s-0.6-0.6-1-0.6s-0.7,0.2-1,0.6c-0.2,0.4-0.4,1-0.4,1.9L250.4,138.2L250.4,138.2z"/>
				<path class="st1" d="M256.7,137.6c0-1.5,0.3-2.7,0.8-3.4c0.5-0.8,1.3-1.1,2.3-1.1c0.8,0,1.5,0.3,2,1l0.1-0.8h2.2v9.3
					c0,1.2-0.3,2.1-1,2.7c-0.7,0.6-1.6,0.9-2.9,0.9c-0.5,0-1-0.1-1.6-0.3s-1-0.5-1.2-0.8l0.8-1.7c0.2,0.2,0.5,0.4,0.9,0.6
					c0.4,0.1,0.7,0.2,1,0.2c0.5,0,0.9-0.1,1.2-0.4c0.2-0.3,0.4-0.7,0.4-1.3v-0.8c-0.5,0.6-1.1,0.9-1.8,0.9c-1,0-1.8-0.4-2.3-1.1
					s-0.8-1.9-0.8-3.3L256.7,137.6L256.7,137.6z M259.2,138.2c0,0.9,0.1,1.5,0.3,1.9c0.2,0.4,0.6,0.6,1.1,0.6s0.9-0.2,1.1-0.5v-4.4
					c-0.2-0.4-0.6-0.6-1.1-0.6s-0.8,0.2-1.1,0.6s-0.4,1-0.4,1.9L259.2,138.2L259.2,138.2z"/>
				<path class="st1" d="M270.5,135.6l-0.8-0.1c-0.7,0-1.1,0.3-1.4,0.9v6.1h-2.4v-9.3h2.3l0.1,1c0.4-0.8,0.9-1.2,1.6-1.2
					c0.3,0,0.5,0,0.7,0.1L270.5,135.6z"/>
				<path class="st1" d="M276.1,142.5c-0.1-0.1-0.1-0.4-0.2-0.7c-0.4,0.6-1,0.9-1.8,0.9s-1.4-0.3-1.9-0.8s-0.8-1.2-0.8-2
					c0-1,0.3-1.7,0.9-2.3c0.6-0.5,1.5-0.8,2.7-0.8h0.7V136c0-0.4-0.1-0.7-0.2-0.9s-0.4-0.3-0.6-0.3c-0.6,0-0.9,0.4-0.9,1.1h-2.4
					c0-0.9,0.3-1.6,1-2.1c0.6-0.6,1.5-0.8,2.4-0.8c1,0,1.8,0.3,2.4,0.8s0.8,1.3,0.8,2.3v4.4c0,0.8,0.1,1.4,0.3,1.9v0.1L276.1,142.5
					L276.1,142.5z M274.7,140.8c0.3,0,0.5-0.1,0.7-0.2s0.3-0.2,0.4-0.4v-1.9h-0.6c-0.4,0-0.7,0.1-1,0.4c-0.2,0.3-0.4,0.6-0.4,1.1
					C273.9,140.5,274.1,140.8,274.7,140.8z"/>
				<path class="st1" d="M282.2,133.2l0.1,0.9c0.5-0.7,1.3-1,2.1-1c0.9,0,1.6,0.4,2,1.2c0.5-0.8,1.3-1.2,2.3-1.2
					c1.6,0,2.5,1.1,2.5,3.4v6.1h-2.4v-5.9c0-0.5-0.1-0.9-0.2-1.1c-0.1-0.2-0.4-0.3-0.8-0.3c-0.5,0-0.8,0.3-1,0.8v0.3v6.3h-2.4v-5.9
					c0-0.5-0.1-0.9-0.2-1.1s-0.4-0.4-0.8-0.4s-0.8,0.2-1,0.7v6.8H280v-9.3L282.2,133.2L282.2,133.2z"/>
				<path class="st1" d="M297.4,142.5c-0.1-0.1-0.1-0.4-0.2-0.7c-0.4,0.6-1,0.9-1.8,0.9s-1.4-0.3-1.9-0.8s-0.8-1.2-0.8-2
					c0-1,0.3-1.7,0.9-2.3c0.6-0.5,1.5-0.8,2.7-0.8h0.7V136c0-0.4-0.1-0.7-0.2-0.9s-0.4-0.3-0.6-0.3c-0.6,0-0.9,0.4-0.9,1.1h-2.4
					c0-0.9,0.3-1.6,1-2.1c0.6-0.6,1.5-0.8,2.4-0.8c1,0,1.8,0.3,2.4,0.8s0.8,1.3,0.8,2.3v4.4c0,0.8,0.1,1.4,0.3,1.9v0.1L297.4,142.5
					L297.4,142.5z M296,140.8c0.3,0,0.5-0.1,0.7-0.2s0.3-0.2,0.4-0.4v-1.9h-0.6c-0.4,0-0.7,0.1-1,0.4c-0.2,0.3-0.4,0.6-0.4,1.1
					C295.2,140.5,295.4,140.8,296,140.8z"/>
				<path class="st1" d="M239,158.2h-3.9v3.3h4.6v2.1h-7.2v-12.5h7.2v2.1h-4.6v2.9h3.9V158.2z"/>
				<path class="st1" d="M240.8,158.7c0-1.5,0.3-2.7,0.8-3.4c0.5-0.8,1.3-1.1,2.2-1.1c0.7,0,1.3,0.3,1.8,0.9v-4.6h2.4v13.2h-2.2
					l-0.1-0.9c-0.5,0.7-1.1,1.1-1.9,1.1c-1,0-1.7-0.4-2.2-1.1c-0.5-0.7-0.8-1.8-0.8-3.3V158.7z M243.2,159.3c0,0.9,0.1,1.6,0.3,1.9
					c0.2,0.4,0.5,0.5,1,0.5s0.8-0.2,1.1-0.6v-4.2c-0.2-0.5-0.6-0.7-1.1-0.7c-0.4,0-0.8,0.2-1,0.5s-0.3,1-0.3,1.9V159.3z"/>
				<path class="st1" d="M254.4,162.8c-0.5,0.7-1.2,1-2,1s-1.5-0.3-1.9-0.9c-0.4-0.6-0.7-1.4-0.7-2.6v-6h2.4v6.1
					c0,0.9,0.3,1.4,0.9,1.4c0.6,0,1-0.2,1.2-0.7v-6.7h2.5v9.3h-2.3L254.4,162.8z"/>
				<path class="st1" d="M261.8,161.8c0.7,0,1.1-0.5,1.1-1.4h2.3c0,1-0.3,1.8-0.9,2.5c-0.6,0.6-1.4,0.9-2.4,0.9
					c-1.2,0-2.1-0.4-2.7-1.1c-0.6-0.7-1-1.8-1-3.3v-0.7c0-1.5,0.3-2.6,0.9-3.3s1.5-1.1,2.8-1.1c1,0,1.8,0.3,2.4,0.9
					c0.6,0.6,0.9,1.5,0.9,2.7h-2.3c0-0.5-0.1-0.9-0.3-1.2s-0.4-0.4-0.8-0.4s-0.7,0.1-0.9,0.4s-0.3,0.9-0.3,1.8v0.9
					c0,0.8,0,1.3,0.1,1.6s0.2,0.5,0.4,0.7C261.2,161.7,261.5,161.8,261.8,161.8z"/>
				<path class="st1" d="M270.9,163.6c-0.1-0.1-0.1-0.4-0.2-0.7c-0.4,0.6-1,0.9-1.8,0.9s-1.4-0.3-1.9-0.8s-0.8-1.2-0.8-2
					c0-1,0.3-1.7,0.9-2.3c0.6-0.5,1.5-0.8,2.7-0.8h0.7v-0.8c0-0.4-0.1-0.7-0.2-0.9s-0.4-0.3-0.6-0.3c-0.6,0-0.9,0.4-0.9,1.1h-2.4
					c0-0.9,0.3-1.6,1-2.1c0.6-0.6,1.5-0.8,2.4-0.8c1,0,1.8,0.3,2.4,0.8s0.8,1.3,0.8,2.3v4.4c0,0.8,0.1,1.4,0.3,1.9v0.1L270.9,163.6
					L270.9,163.6z M269.5,161.9c0.3,0,0.5-0.1,0.7-0.2s0.3-0.2,0.4-0.4v-1.9H270c-0.4,0-0.7,0.1-1,0.4c-0.2,0.3-0.4,0.6-0.4,1.1
					C268.7,161.6,269,161.9,269.5,161.9z"/>
				<path class="st1" d="M278.1,161.8c0.7,0,1.1-0.5,1.1-1.4h2.3c0,1-0.3,1.8-0.9,2.5c-0.6,0.6-1.4,0.9-2.4,0.9
					c-1.2,0-2.1-0.4-2.7-1.1c-0.6-0.7-1-1.8-1-3.3v-0.7c0-1.5,0.3-2.6,0.9-3.3s1.5-1.1,2.8-1.1c1,0,1.8,0.3,2.4,0.9
					c0.6,0.6,0.9,1.5,0.9,2.7h-2.3c0-0.5-0.1-0.9-0.3-1.2s-0.4-0.4-0.8-0.4s-0.7,0.1-0.9,0.4s-0.3,0.9-0.3,1.8v0.9
					c0,0.8,0,1.3,0.1,1.6s0.2,0.5,0.4,0.7C277.6,161.7,277.8,161.8,278.1,161.8z"/>
				<path class="st1" d="M282.9,151.9c0-0.4,0.1-0.7,0.4-0.9c0.2-0.2,0.6-0.4,1-0.4s0.7,0.1,1,0.4s0.4,0.6,0.4,0.9
					c0,0.4-0.1,0.7-0.4,0.9s-0.6,0.4-1,0.4s-0.7-0.1-1-0.4S282.9,152.3,282.9,151.9z M285.4,163.6H283v-9.3h2.4V163.6z"/>
				<path class="st1" d="M287,158.7c0-1.4,0.3-2.5,1-3.3s1.6-1.2,2.8-1.2c1.2,0,2.1,0.4,2.8,1.2s1,1.9,1,3.3v0.6
					c0,1.4-0.3,2.5-1,3.3s-1.6,1.2-2.8,1.2c-1.2,0-2.1-0.4-2.8-1.2s-1-1.9-1-3.3V158.7z M289.5,159.3c0,1.7,0.4,2.5,1.3,2.5
					c0.8,0,1.3-0.7,1.3-2.1v-1c0-0.9-0.1-1.5-0.4-1.9c-0.2-0.4-0.6-0.6-1-0.6s-0.7,0.2-1,0.6c-0.2,0.4-0.4,1-0.4,1.9v0.6H289.5z
					 M291.2,150.4h2.7l-2.4,2.7h-2L291.2,150.4z"/>
				<path class="st1" d="M298.3,154.4l0.1,0.9c0.5-0.7,1.3-1.1,2.1-1.1c1.6,0,2.4,1.1,2.5,3.4v6.1h-2.4v-5.9c0-0.5-0.1-0.9-0.2-1.1
					c-0.2-0.2-0.4-0.4-0.8-0.4s-0.8,0.2-1,0.7v6.8H296v-9.3L298.3,154.4L298.3,154.4z"/>
				<path class="st1" d="M313.2,163.6c-0.1-0.1-0.1-0.4-0.2-0.7c-0.4,0.6-1,0.9-1.8,0.9s-1.4-0.3-1.9-0.8s-0.8-1.2-0.8-2
					c0-1,0.3-1.7,0.9-2.3s1.5-0.8,2.7-0.8h0.7v-0.8c0-0.4-0.1-0.7-0.2-0.9s-0.4-0.3-0.6-0.3c-0.6,0-0.9,0.4-0.9,1.1h-2.4
					c0-0.9,0.3-1.6,1-2.1c0.6-0.6,1.5-0.8,2.4-0.8c1,0,1.8,0.3,2.4,0.8s0.8,1.3,0.8,2.3v4.4c0,0.8,0.1,1.4,0.3,1.9v0.1L313.2,163.6
					L313.2,163.6z M311.7,161.9c0.3,0,0.5-0.1,0.7-0.2s0.3-0.2,0.4-0.4v-1.9h-0.6c-0.4,0-0.7,0.1-1,0.4c-0.2,0.3-0.4,0.6-0.4,1.1
					C310.9,161.6,311.2,161.9,311.7,161.9z"/>
				<path class="st1" d="M321.2,163.6v-12.5h3.3c1.5,0,2.6,0.5,3.5,1.4s1.3,2.2,1.3,3.8v2c0,1.6-0.4,2.9-1.3,3.9s-2.1,1.4-3.6,1.4
					L321.2,163.6L321.2,163.6z M323.7,153.2v8.3h0.8c0.8,0,1.4-0.2,1.8-0.7c0.3-0.4,0.5-1.2,0.5-2.3v-2.2c0-1.2-0.2-2-0.5-2.4
					s-0.9-0.7-1.7-0.7L323.7,153.2L323.7,153.2z"/>
				<path class="st1" d="M331,151.9c0-0.4,0.1-0.7,0.4-0.9c0.2-0.2,0.6-0.4,1-0.4s0.7,0.1,1,0.4s0.4,0.6,0.4,0.9
					c0,0.4-0.1,0.7-0.4,0.9s-0.6,0.4-1,0.4s-0.7-0.1-1-0.4C331.1,152.6,331,152.3,331,151.9z M333.6,163.6h-2.4v-9.3h2.4V163.6z"/>
				<path class="st1" d="M339.5,161.1c0-0.2-0.1-0.4-0.3-0.6s-0.6-0.4-1.3-0.7c-1-0.4-1.7-0.8-2.1-1.3s-0.6-1-0.6-1.6
					c0-0.8,0.3-1.5,0.9-2s1.4-0.8,2.3-0.8c1,0,1.8,0.3,2.5,0.8s0.9,1.2,0.9,2.1h-2.4c0-0.8-0.3-1.1-1-1.1c-0.3,0-0.5,0.1-0.6,0.2
					s-0.2,0.4-0.2,0.7c0,0.2,0.1,0.4,0.3,0.5c0.2,0.2,0.6,0.4,1.3,0.7c1,0.4,1.7,0.8,2.1,1.2s0.6,1,0.6,1.8s-0.3,1.5-0.9,2
					s-1.4,0.8-2.5,0.8c-0.7,0-1.3-0.1-1.8-0.4c-0.5-0.3-0.9-0.6-1.2-1.1s-0.4-1-0.4-1.5h2.3c0,0.4,0.1,0.7,0.3,0.9
					c0.2,0.2,0.5,0.3,0.9,0.3C339.2,162,339.5,161.7,339.5,161.1z"/>
				<path class="st1" d="M346.2,152.1v2.3h1.2v1.8h-1.2v4.6c0,0.4,0,0.6,0.1,0.8s0.3,0.2,0.6,0.2c0.2,0,0.4,0,0.6-0.1v1.9
					c-0.4,0.1-0.9,0.2-1.3,0.2c-1.6,0-2.4-0.9-2.4-2.7v-4.9h-1.1v-1.8h1.1v-2.3H346.2L346.2,152.1z"/>
				<path class="st1" d="M353.2,163.6c-0.1-0.1-0.1-0.4-0.2-0.7c-0.4,0.6-1,0.9-1.8,0.9s-1.4-0.3-1.9-0.8s-0.8-1.2-0.8-2
					c0-1,0.3-1.7,0.9-2.3s1.5-0.8,2.7-0.8h0.7v-0.8c0-0.4-0.1-0.7-0.2-0.9s-0.4-0.3-0.6-0.3c-0.6,0-0.9,0.4-0.9,1.1h-2.4
					c0-0.9,0.3-1.6,1-2.1c0.6-0.6,1.5-0.8,2.4-0.8c1,0,1.8,0.3,2.4,0.8s0.8,1.3,0.8,2.3v4.4c0,0.8,0.1,1.4,0.3,1.9v0.1L353.2,163.6
					L353.2,163.6z M351.8,161.9c0.3,0,0.5-0.1,0.7-0.2s0.3-0.2,0.4-0.4v-1.9h-0.6c-0.4,0-0.7,0.1-1,0.4c-0.2,0.3-0.4,0.6-0.4,1.1
					C351,161.6,351.3,161.9,351.8,161.9z"/>
				<path class="st1" d="M359.3,154.4l0.1,0.9c0.5-0.7,1.3-1.1,2.1-1.1c1.6,0,2.4,1.1,2.5,3.4v6.1h-2.4v-5.9c0-0.5-0.1-0.9-0.2-1.1
					s-0.4-0.4-0.8-0.4s-0.8,0.2-1,0.7v6.8H357v-9.3L359.3,154.4L359.3,154.4z"/>
				<path class="st1" d="M369.1,161.8c0.7,0,1.1-0.5,1.1-1.4h2.3c0,1-0.3,1.8-0.9,2.5c-0.6,0.6-1.4,0.9-2.4,0.9
					c-1.2,0-2.1-0.4-2.7-1.1c-0.6-0.7-1-1.8-1-3.3v-0.7c0-1.5,0.3-2.6,0.9-3.3c0.6-0.8,1.5-1.1,2.8-1.1c1,0,1.8,0.3,2.4,0.9
					c0.6,0.6,0.9,1.5,0.9,2.7h-2.3c0-0.5-0.1-0.9-0.3-1.2s-0.4-0.4-0.8-0.4s-0.7,0.1-0.9,0.4s-0.3,0.9-0.3,1.8v0.9
					c0,0.8,0,1.3,0.1,1.6s0.2,0.5,0.4,0.7C368.5,161.7,368.8,161.8,369.1,161.8z"/>
				<path class="st1" d="M373.8,151.9c0-0.4,0.1-0.7,0.4-0.9c0.2-0.2,0.6-0.4,1-0.4s0.7,0.1,1,0.4s0.4,0.6,0.4,0.9
					c0,0.4-0.1,0.7-0.4,0.9s-0.6,0.4-1,0.4s-0.7-0.1-1-0.4C373.9,152.6,373.8,152.3,373.8,151.9z M376.4,163.6H374v-9.3h2.4V163.6z"
					/>
				<path class="st1" d="M382.7,163.6c-0.1-0.1-0.1-0.4-0.2-0.7c-0.4,0.6-1,0.9-1.8,0.9s-1.4-0.3-1.9-0.8s-0.8-1.2-0.8-2
					c0-1,0.3-1.7,0.9-2.3s1.5-0.8,2.7-0.8h0.7v-0.8c0-0.4-0.1-0.7-0.2-0.9s-0.4-0.3-0.6-0.3c-0.6,0-0.9,0.4-0.9,1.1h-2.4
					c0-0.9,0.3-1.6,1-2.1c0.6-0.6,1.5-0.8,2.4-0.8c1,0,1.8,0.3,2.4,0.8s0.8,1.3,0.8,2.3v4.4c0,0.8,0.1,1.4,0.3,1.9v0.1L382.7,163.6
					L382.7,163.6z M381.2,161.9c0.3,0,0.5-0.1,0.7-0.2s0.3-0.2,0.4-0.4v-1.9h-0.6c-0.4,0-0.7,0.1-1,0.4c-0.2,0.3-0.4,0.6-0.4,1.1
					C380.4,161.6,380.7,161.9,381.2,161.9z"/>
				<path class="st1" d="M386.7,162.4c0-0.4,0.1-0.7,0.4-1s0.6-0.4,1-0.4s0.7,0.1,1,0.4s0.4,0.6,0.4,1s-0.1,0.7-0.4,1
					c-0.3,0.2-0.6,0.4-1,0.4s-0.7-0.1-1-0.4C386.9,163.1,386.7,162.8,386.7,162.4z"/>
			</g>
		</g>
	</g>
	<g>
		<rect y="0" class="st2" width="201.7" height="201.7"/>
		<g>
			<path class="st1" d="M111.8,34.1c-2.1-0.2-4.3-0.4-6.5-0.5c-0.7,0-1.3,0-2,0h-2.5c-1.3,0-2.7,0-4,0c-1.5,0-2.9,0.1-4.4,0.2
				c-7.5,0.6-14.9,1.8-22.3,3.7c-0.2,0.1-0.5,0.1-0.8,0.2c0.2,0.3,0.5,0.3,0.8,0.5c0.1,0,0.1,0,0.1,0.1c0.4,0.2,0.5,0.4,1,0.5
				c0.6,0,1.2,0.1,1.7,0c1.2-0.3,1.2-0.4,2.1,0.3c0.4,0.3,0.5,0.4,0.6,0.9s0.1,0.7,0.5,1s0.7,0.4,0.9-0.1c0.5-1,1.7,0.3,1.7,0.8
				c0,0.9,0.2,0.4,0.5,0.7c0.2,0.1,0.1,1.4,1,1.7c0.3,0.1,0.6,0,0.7,0.4c0.1,0.1,0,0.3-0.1,0.5c-0.1,0.3-0.2,0.6-0.4,0.8
				c-0.4,1-0.4,1.8,0.1,2.8c0.1,0.2,0.3,0.5,0.4,0.8c0.4,1,0.4,1.2,1.1,1.6c0.4,0.2,0.9,0.2,1.3,0.3c0.4,0,0.4,0,0.8-0.2
				s0.5-0.2,0.8,0c0.7,0.4,0.5,0,0.8-0.4c0.5-0.7,0.7-0.1,0.7-1.3c0-0.2,0.2-0.5,0.6-0.6c0.8,0,0.9-0.4,1.7-0.3c0.3,0,0.9,0,0.7,0.8
				c-0.5,0.5-0.5,0.4-0.6,1.1c0,0.6-0.1,0.7-0.4,1.1c-0.5,0.5-0.2,0.4-0.4,1c-0.1,0.3-0.2,0.4-0.3,0.7c-0.1,0.3,0.1,0.5,0.7,0.5
				c0.4-0.1,0.7-0.1,1,0c0.4,0,0.7,0,1.1,0c0.6,0,1.1,0,1.5,0.4c0.5,0.5,0.4,0.7,0.2,1.6c-0.1,0.2,0.1,0.4,0.1,0.7
				c-0.1,0.4-0.3,0.9-0.3,1.2c0,0.2,0.1,0.5,0.1,0.7c0.2,0.3,0.4,0.5,0.6,0.7c0.2,0.3,0.5,0.5,0.9,0.8c1.2,0.7,1.3,0,2.3-0.2
				c0.5,0,0.9,0,1.2,0.1s0.6,0.4,0.9,0.7s0.6,0.5,0.7-0.2c0.1-0.3,0.2-0.5,0.4-0.5c0.3,0,0.2-0.1,0.3-0.4c0,0,0-0.1,0.1-0.1l0,0
				v-0.1c0.1-0.7,0.9-1,1.5-1.1h0.1c0.4,0,0.9-0.3,1.1-0.5c0.2-0.3,1-0.8,0.6,0.2c-0.1,0.2-0.2,0.2-0.2,0.5c0,0.1,0.1,0.1,0.1,0.2
				c0.1,0.4-0.1,0.5-0.2,0.8c-0.1,0.2,0.2,0.2,0.3,0.2c0.1,0.1,0.1,0.3,0.2,0.5c0.2,0.1,0.4,0,0.5-0.3l0,0v-0.2
				c-0.1-0.1-0.1-0.3-0.1-0.4c-0.1-0.3-0.1-0.4,0.1-0.6c0.1,0,0.1-0.1,0.2-0.1c0.8-0.4,1.2-0.7,1.7-0.3c0.1,0,0.1,0.1,0.2,0.2
				c0.6,0.6,0.3,0.6,1.2,0.7c0.7,0,0.8-0.1,1.4,0.2c0.4,0.2,1.4,0.5,1.7,0c0.3-0.5,1.1-0.5,1.2-0.1c0.2,0.3,0.4,0.4,0.7,0.4
				c0.1,0,0.1,0,0.1,0c0.3,0,0.3,0,0.6,0.3c0.3,0.4-0.1,0.3,0,0.7c0,0.3,0,0.2,0.5,0.2c0.8,0,1.8,0.3,2,1.2c0.1,0.4,0.6,0.2,0.9,0.5
				c0.5,0.6,0.3,0.6,1.1,0.7c0.2,0,0.3,0,0.5,0c0.7-0.2,1-0.2,1.3,0c0.4,0.2,0.5,0.6,0.9,0.5c0.7-0.1,0.8,0.5,1.3,0.8
				c0.6,0.5,0.9,0.4,0.9,1.4c0,0.7,0.1,0.5,0.4,0.9c0.5,0.6,0.7,0.7-0.1,1.4c-0.6,0.5-0.6,0.8,0.4,0.3c0.3-0.2,0.6,0.1,1.1,0.3
				c0.3,0.2,0.3,0.5,0.1,0.7c-0.1,0.7-0.1,0.7,0.5,0.2c0.6-0.6,1.1-0.7,2-0.1c0.3,0.2,0.6,0.4,0.8,0.6c0.8,0.7,1.5,1,2.5,1
				c0.7,0,1,0.3,1.6,0.2c0.8-0.1,1.4,0.3,1.9,1c0.2,0.3,0.6,0.7,1,0.8c0.9,0.4,1.3-0.1,1.7,1.1c0.8,2-0.7,3.6-2.1,5
				c-0.5,0.6-0.4,1-0.7,1.3c-0.5,0.5-1.3,0.1-1.1,0.9c0.1,0.3-0.2,0.6-0.3,0.9c0,0.2-0.1,0.3,0,0.5c0,0.5,0.2,0.9-0.2,1.2
				c-0.1,0.4-0.1,0.8-0.2,1.3c-0.4,0.9-0.8,1.5-1.1,2c-0.3,0.3-0.4,0.5-0.7,0.7c-0.5,0.3-0.2,0.8-0.5,1.1c-0.1,0.1-0.2,0.2-0.4,0.3
				c-0.7,0.4-0.6,0.6-1.4,0.6c-1.6,0-3.8,1-4.7,2.5c-0.4,0.6-0.4,0.9-0.4,1.4c-0.1,0.7-0.4,0.6-0.8,1.1c-0.7,0.8-0.7,1.7-1.4,1.4
				c-0.2-0.1-0.3,0.2-0.6,0.6c-0.2,0.2-0.5,0.4-0.6,0.8c0,0.3-0.1,0.4-0.5,0.8c-0.3,0.3-0.5,0.5-0.8,0.8c-0.5,1.1-1.4,1-2.5,0.8
				c-0.3-0.1-0.7-0.3-1-0.4c-0.7-0.3-0.6,0.2-0.1,0.5c0.2,0.1,0.2,0.1,0.3,0.2c0.1,0.5-0.4,0.6,0.2,1.1c0.1,0.4,0,0.7-0.4,1.1
				c-0.5,0.7-1.2,1-1.9,1c-0.4,0.1-0.9,0-1.3,0c-0.9-0.1-0.7-0.2-0.8,0.6c0,0.2-0.1,0.3-0.3,0.6c0,0.7-0.5,0.9-1,0.7
				c-1.1-0.4-0.7-0.5-0.9,0.2c-0.1,0.2-0.1,0.4,0,0.5c0,0.1,0,0.4,0.1,0.4s0.1,0,0.2,0.1c0.4,0,0-0.2,0.5-0.3c0.2,0,0.2,0,0.1,0.2
				c-0.1,0.4-0.1,0.3-0.5,0.3s-0.4-0.1-0.4,0.4s-0.3,0.4-0.4,0.8c0,0.1-0.1,0.3-0.1,0.5c-0.1,0.4-0.5,0.4-0.9,0.4
				c-0.3,0.1-0.5,0.3-0.7,0.5c-0.2,0.3-0.2,0.6,0,0.9c0.1,0.1,0.1,0.1,0.2,0.2s0.1,0.2,0.3,0.3c0.4,0.1,0.4-0.1,0.4,0.3
				c0,0.5-0.2,0.5-0.7,0.7c-0.1,0.1-0.2,0.1-0.3,0.2c-0.2,0.1-0.3,0.2-0.4,0.6c0,0.3-0.2,0.6-0.5,0.7c-0.8,0.3-0.8,0.4-0.6,1.2
				c0.1,0.6-0.1,0.5-0.5,0.6c-0.2,0.1-0.3,0.1-0.5,0.2c-0.2,0.2-0.3,0.4-0.4,0.7c-0.4,0.4,0.1,0-1,0.3c-0.4,0.1-0.4-0.2-0.4-0.7
				c0-0.2-0.1-0.3-0.1-0.4c-0.1-0.1-0.1-0.1-0.1-0.2c-0.2-0.6,0.1-0.4-0.5-0.9c-0.4-0.3,0.1-0.7-0.1-0.9c-0.3-0.5-0.2-0.2-0.2-0.8
				c0-0.1-0.1-0.3-0.1-0.5c-0.1-0.2-0.1-0.4,0.2-0.5c0.4-0.2,0.3-0.1,0.5-0.5c0.3-0.9,0.1-0.3-0.4-0.7c-0.1-0.1,0-0.4,0.1-0.6
				c0.3-0.4,0.4-0.4,0.7-0.5c0,0,0.1,0,0.2,0c0.2-0.1,0.1-0.3,0.3-0.8c0-0.6,0.2-0.9,0.4-1.3c0.2-0.3,0.2-0.6,0.1-0.9
				c-0.3-0.6-0.9,0-0.8-0.9c0.1-0.7,0.2-0.7,0.4-1.2c0.1-0.3,0.1-0.6,0-0.9c-0.2-1-0.1-0.9,0.3-1.8c0.1-0.3,0.3-0.6,0.5-0.9
				c0.1-0.3,0.1-0.6,0.2-0.9c0.3-0.2,0.3-0.4,0.3-0.8c0-0.6,0.2-0.6,0.2-1.1s-0.1-0.4-0.2-0.8c-0.1-0.2,0-0.4,0.1-0.5
				c0.2-0.6,0.5-0.4,0.3-1.1c-0.1-0.4,0.1-0.8,0.3-1.2c0.1-0.1,0.1-0.2,0.1-0.2c0.2-0.7,0.3-1.2,0.4-1.9c0.1-0.5,0.1-0.9,0.1-1.3
				c-0.1-0.3-0.1-0.6,0-0.8c0.1-0.5,0.3-0.4,0.2-0.9c-0.1-0.3-0.1-0.8,0-1c0.2-0.6-0.1-1.3-0.1-2c0.1-0.7-0.2-0.9-0.7-1.3
				c-0.1,0-0.2-0.1-0.3-0.2c-0.6-0.4-1.2-1-1.9-1.3c-0.1-0.1-0.2-0.1-0.3-0.1c-0.7-0.2-0.8,0.1-1.4-0.7c-0.2-0.2-0.4-0.5-0.6-0.7
				c-0.2-0.4,0.3-0.5,0-1c-0.1-0.2-0.5-0.4-0.6-0.6c-0.6-0.8-1-1.7-1.4-2.6c-0.6-1.2-1.2-2.4-2.1-3.2c-0.4-0.1-0.5-0.2-0.4-0.6
				c0-0.3-0.1-0.6-0.2-0.7c-0.4-0.7,0.7-1,1.1-1.2c0.3-0.2,0.3-0.5,0-0.7C95.5,71,95.3,71,95.2,71c-0.7-0.2-0.4-1.1-0.1-1.5
				c0.3-0.3,0.4-0.7,0.5-1c0.1-0.6,0.1-0.7,0.5-0.8c0.6-0.1,0.5-0.2,0.7-0.7c0-0.5,0.1-0.5,0.4-0.6c0.1,0,0.1,0,0.1,0
				c1-0.9,0.9-1.4,0.8-2.7c0-0.7-0.1-0.8-0.5-1.5c-0.2-0.3-0.4-0.4-0.5-0.5c0,0,0-0.1,0-0.2c-0.1-0.5,0.1-0.5-0.3-1
				c-0.4-0.3-0.8-0.2-1.1,0.2c-0.1,0.1-0.1,0.3-0.1,0.4c-0.4,0.3-0.3,0-0.2,0.7c0.1,0.1,0.1,0.2,0,0.3c-0.6,0.4-0.5-0.3-0.7-0.4
				c-0.4-0.1-0.2,0.1-0.7-0.3c-0.2-0.2-0.3-0.2-0.7-0.2h-0.5c-0.1,0-0.2-0.1-0.4-0.4c-0.2-0.3,0.1-0.5-0.5-0.6c-0.1,0-0.2,0-0.3,0
				c-0.5-0.4-0.1-0.4-0.7-0.2c-0.3,0-0.6-0.2-0.6-0.6c0.1-1,0-0.8-0.9-1.5c-0.3-0.3-0.5-0.7-0.6-1c-0.2-0.5-0.4-0.2-0.8-0.2
				c-0.3,0-0.9-0.1-1.3-0.4c-0.7-0.5-0.9-0.4-1.4-0.5c-0.7-0.1-1.1-0.8-1.4-1.2c-0.4-0.6-1-0.9-1.7-0.8c-0.6,0.2-0.7,0.7-1.3,0.6
				C80.3,53.6,80,53.1,79,53c-0.7-0.1-1.2-0.5-1.8-0.8c-0.8-0.3-0.8-0.8-1.4-0.9c-1.3-0.3-0.7-0.2-1.3-0.8c-0.1-0.1-0.3-0.2-0.5-0.3
				c-0.4-0.2-0.9-0.8-0.6-1.2c0.4-0.5,0.4-0.8,0.3-1.2c-0.2-0.3-0.2-0.6-0.1-0.8c0-0.3-0.6-0.9-0.8-1.2c-0.4-0.5-0.7-1-1.1-1.5
				c-1.4-0.6,0.1-0.7-0.6-1.4c-0.4,0-0.5-0.2-0.5-0.4c-0.1-0.5,0.1-0.5-0.5-1c-0.1-0.1-0.3-0.2-0.4-0.5s-0.2-0.7-0.3-1
				c0-0.3-0.1-0.5-0.1-0.8c0-0.7,0.1-0.7-0.6-0.9c-0.2,0-0.3-0.1-0.4-0.1s-0.1,0-0.1,0c-0.1,0.1-0.2,0.3-0.2,0.5
				c0.1,0.6-0.1,0.7,0.1,1.2c0.1,0.1,0.2,0.4,0.3,0.5c0.4,0.5,0.4,0.4,0.4,1c0,0.5-0.1,0.6,0.2,1c0.8,1,0.5,1.1,0.8,1.9
				c-0.1,0.5,0,0.7-0.2,0.8c-0.3,0.1-0.6,0-0.8-0.2c-0.3-0.3-0.1-0.5,0.1-0.7c0.4-0.6-0.5-1.1-0.8-1.4c-0.6-0.5-0.9-0.8-0.3-1.3
				c0.4-0.4,0.1-0.8-0.1-1.1c-0.6-0.5-0.7-0.6-0.7-1c0-0.5,0-0.6-0.1-0.7c-3.8,1.1-7.5,2.4-11.3,3.9v65.1c4.8,1.9,9.6,3.4,14.5,4.8
				c7.4,2,14.8,3.2,22.2,3.7c1.5,0.1,2.9,0.2,4.4,0.2c1.3,0.1,2.7,0.1,4,0.1h1.2c0.2-0.1,0.5-0.1,0.7-0.1c1,0.1,0.2-0.7,0.6-1
				c0.1,0,0.1,0,0.2,0c0.4-0.1,0.4-0.1,0.6,0.3s0.4,0.6,0.7,0.8h0.4c2.2-0.1,4.3-0.2,6.5-0.5c11.4-1.1,22.9-3.8,34.2-8.2v-65
				C134.7,37.9,123.2,35.2,111.8,34.1 M92.8,47.6c-0.1,0-0.2,0.1-0.3,0.2c-0.1,0.1-0.1,0.2-0.3,0.3c-0.4,0.3-0.6-0.1-0.1-0.5
				c0.1-0.1,0.3-0.2,0.4-0.2C93.1,47.1,93.6,47.5,92.8,47.6 M99.4,50.1c-0.4,0-0.5,0-0.8,0c-0.7,0.1-0.8,0-0.7-0.5
				c0.1-0.5-0.8-0.2-1-0.5c0,0,0-0.1,0-0.2l0,0c-0.3-0.5-0.1-0.3-0.9-0.3c-0.2,0-0.4,0-0.6-0.2c-0.3-0.3-0.5-0.5-1-0.4
				c-0.5,0-0.8-0.8-0.5-0.9c0.8-0.1,0.5,0.3,1.2,0.3c0.4,0,0.6,0.1,0.9,0.4c0.2,0.1,0.4,0.2,0.7,0.2c0.1,0,0.1,0,0.2,0
				c0.2,0,0.4,0.1,0.7,0.3c0.1,0.1,0.3,0.2,0.4,0.3c0.3,0.3,0.5,0.5,0.8,0.5c0.5,0.1,0.5,0,0.8,0.3C99.9,49.8,100.4,50,99.4,50.1
				 M101.3,51.7c-0.1,0-0.3,0-0.5,0s-0.4,0-0.4-0.2c0-0.4,0.1-0.2,0.4-0.2h0.1c0.2,0,0.2,0,0.3,0.2c0.1,0.1,0.1,0.1,0.3,0.1
				C101.7,51.6,101.6,51.7,101.3,51.7 M104.2,51.3c-0.6,0-0.7-0.1-0.8,0.2c-0.1,0.1-0.1,0.2-0.2,0.3c0,0.1-0.1,0.1-0.4,0
				c-0.4-0.1-0.7-0.4-0.7-0.5s0-0.2-0.1-0.4c-0.7-1.4-0.2-0.4,1.2-0.6c0,0,0.1,0,0.2,0c0.4-0.1,0.5-0.1,0.9,0.3
				c0.1,0.1,0.2,0.2,0.3,0.3C105.6,51.2,104.4,51.5,104.2,51.3 M105.3,51.4c-0.1,0-0.2-0.1-0.2-0.2c0-0.1,0.1-0.2,0.2-0.2
				s0.2,0.1,0.2,0.2C105.5,51.3,105.4,51.4,105.3,51.4 M100.9,106.2L100.9,106.2c0.1-0.1,0.1-0.1,0.1-0.3c0-0.2,0.1-0.1,0.1,0.1
				c0,0.3,0,0.8-0.2,0.9c-0.4,0-0.2-0.1-0.2-0.3C100.7,106.3,100.6,106.3,100.9,106.2 M70.5,46.3c-0.1,0.1-0.2,0.1-0.3,0
				c0,0-0.1,0-0.1-0.1c-0.1-0.5-0.5-0.2-0.4-0.5s0.3-0.4,0.4-0.3c0.1,0.1,0.2,0.2,0.3,0.4C70.7,45.9,70.8,46.1,70.5,46.3
				 M112.8,110.3c-0.2,0.5-0.4,0.3-0.9,0.2h-0.1c-0.3,0.1-0.3,0.4-0.8,0.2c-0.3-0.2-0.4-0.4-0.3-0.7s0.1-0.3,0.3-0.3
				c0.3,0.1,0.5,0.1,0.8,0c0.1-0.1,0.3-0.1,0.4-0.1C112.9,109.4,113,109.9,112.8,110.3"/>
			<polygon class="st1" points="66.4,133.5 66.4,136.5 59.7,136.5 59.7,140.5 65.8,140.5 65.8,143.5 59.7,143.5 59.7,149.9 
				55.7,149.9 55.7,133.5 			"/>
			<polygon class="st1" points="69.8,133.5 73.8,133.5 73.8,146.8 79.5,146.8 79.5,149.9 69.8,149.9 			"/>
			<path class="st1" d="M87.4,133.5h4.2l5.9,16.4h-4.2l-1.1-3.5h-5.5l-1.1,3.5h-4.1L87.4,133.5z M87.6,143.5h3.8l-0.6-2
				c-0.2-0.6-0.4-1.3-0.6-2.1s-0.4-1.4-0.6-2h-0.1c-0.2,0.6-0.4,1.3-0.6,2s-0.4,1.4-0.7,2.1L87.6,143.5z"/>
			<path class="st1" d="M107.4,147.1c0.8,0,1.4-0.1,2-0.2s1-0.3,1.3-0.6l0.8,2.8c-0.3,0.2-0.9,0.4-1.7,0.6c-0.8,0.2-1.7,0.3-2.8,0.3
				c-1.3,0-2.5-0.2-3.5-0.6c-1.1-0.4-2-1-2.8-1.7s-1.4-1.6-1.8-2.7c-0.4-1.1-0.6-2.2-0.6-3.5s0.2-2.4,0.6-3.5s1-1.9,1.7-2.7
				c0.8-0.7,1.7-1.3,2.8-1.7c1.1-0.4,2.3-0.6,3.7-0.6c1.2,0,2.1,0.1,2.8,0.3c0.7,0.2,1.3,0.4,1.7,0.7l-0.9,2.9
				c-0.4-0.2-0.9-0.4-1.4-0.6c-0.5-0.2-1.2-0.3-1.8-0.3c-0.7,0-1.3,0.1-1.9,0.3s-1.1,0.5-1.6,0.9c-0.4,0.4-0.8,1-1.1,1.7
				c-0.3,0.7-0.4,1.5-0.4,2.5c0,0.9,0.1,1.7,0.4,2.4s0.6,1.3,1.1,1.7c0.4,0.5,1,0.8,1.6,1C106.1,147,106.7,147.1,107.4,147.1"/>
			<path class="st1" d="M120.6,133.2c1.2,0,2.1,0.1,3,0.4c0.8,0.2,1.6,0.5,2.2,0.9l-0.9,2.9c-0.7-0.4-1.4-0.6-2-0.8
				c-0.7-0.2-1.3-0.3-2-0.3c-0.8,0-1.4,0.1-1.8,0.4c-0.4,0.3-0.6,0.7-0.6,1.2c0,0.6,0.2,1,0.6,1.2s1,0.5,1.8,0.8l1.5,0.5
				c0.6,0.2,1.2,0.5,1.7,0.8s1,0.6,1.3,1.1c0.4,0.4,0.7,0.9,0.9,1.4s0.3,1.1,0.3,1.6c0,0.7-0.1,1.4-0.4,2s-0.7,1.2-1.2,1.6
				c-0.5,0.5-1.2,0.8-2,1.1s-1.8,0.4-2.8,0.4s-2-0.1-2.9-0.3s-1.8-0.5-2.6-0.9l0.9-2.9c0.7,0.4,1.5,0.6,2.2,0.9s1.5,0.3,2.2,0.3
				c0.9,0,1.6-0.1,2-0.5c0.4-0.3,0.6-0.7,0.6-1.2c0-0.2,0-0.4-0.1-0.5c-0.1-0.2-0.2-0.4-0.4-0.5c-0.2-0.2-0.5-0.3-0.8-0.5
				c-0.4-0.2-0.8-0.3-1.4-0.5l-1.3-0.4c-0.6-0.2-1.2-0.5-1.7-0.8s-1-0.6-1.3-1c-0.4-0.4-0.7-0.8-0.9-1.3c-0.2-0.5-0.3-1.1-0.3-1.8
				s0.1-1.4,0.4-2s0.7-1.1,1.2-1.6c0.5-0.4,1.2-0.8,1.9-1.1C118.7,133.3,119.6,133.2,120.6,133.2"/>
			<path class="st1" d="M137.9,133.2c1.2,0,2.3,0.2,3.3,0.6c1,0.4,1.9,0.9,2.6,1.7c0.7,0.7,1.3,1.6,1.7,2.7s0.6,2.3,0.6,3.6
				s-0.2,2.5-0.6,3.5c-0.4,1-1,1.9-1.7,2.7c-0.7,0.7-1.6,1.3-2.6,1.7s-2.1,0.6-3.3,0.6s-2.3-0.2-3.3-0.6c-1-0.4-1.9-0.9-2.6-1.6
				c-0.7-0.7-1.3-1.6-1.7-2.7c-0.4-1.1-0.6-2.2-0.6-3.6c0-1.3,0.2-2.5,0.6-3.5s1-1.9,1.8-2.7s1.6-1.3,2.6-1.7
				C135.6,133.4,136.7,133.2,137.9,133.2 M133.8,141.7c0,0.9,0.1,1.7,0.3,2.4s0.5,1.3,0.9,1.7s0.8,0.8,1.3,1s1,0.3,1.6,0.3
				s1.1-0.1,1.6-0.3s0.9-0.6,1.3-1s0.6-1,0.9-1.7s0.3-1.5,0.3-2.4c0-1-0.1-1.8-0.3-2.5s-0.5-1.3-0.9-1.7c-0.4-0.5-0.8-0.8-1.3-1
				s-1-0.3-1.6-0.3s-1.1,0.1-1.6,0.4c-0.5,0.2-0.9,0.6-1.3,1.1c-0.4,0.5-0.6,1.1-0.9,1.8C133.9,140,133.8,140.8,133.8,141.7"/>
			<path class="st1" d="M59.1,159.1h1l3.5,8.9h-1.1l-1-2.6h-3.8l-1,2.6h-1.1L59.1,159.1z M57.9,164.7h3.2l-0.7-1.9
				c-0.1-0.3-0.3-0.7-0.4-1.1s-0.3-0.9-0.5-1.4l0,0c-0.1,0.2-0.2,0.5-0.2,0.7c-0.1,0.2-0.2,0.4-0.2,0.6s-0.1,0.4-0.2,0.6
				c-0.1,0.2-0.2,0.4-0.2,0.6L57.9,164.7z"/>
			<path class="st1" d="M67.7,159.1h2.7c0.5,0,0.9,0.1,1.2,0.2s0.7,0.3,0.9,0.5c0.2,0.2,0.4,0.5,0.5,0.8s0.2,0.7,0.2,1
				s-0.1,0.6-0.2,0.9c-0.1,0.3-0.2,0.5-0.4,0.7c-0.2,0.2-0.4,0.4-0.6,0.5s-0.5,0.2-0.7,0.3l2.4,3.8h-1.2l-2.2-3.6h-1.8v3.6h-0.9
				L67.7,159.1L67.7,159.1z M68.6,163.6H70c0.3,0,0.6,0,0.9-0.1s0.5-0.2,0.7-0.3s0.4-0.3,0.5-0.6c0.1-0.2,0.2-0.5,0.2-0.8
				c0-0.6-0.2-1.1-0.5-1.4c-0.3-0.3-0.9-0.4-1.6-0.4h-1.5L68.6,163.6L68.6,163.6z"/>
			<path class="st1" d="M81.8,159.1c0.5,0,1,0,1.4,0.1s0.8,0.2,1.1,0.4l-0.3,0.8c-0.3-0.1-0.7-0.3-1-0.4c-0.3-0.1-0.7-0.1-1.1-0.1
				s-0.9,0.1-1.3,0.2c-0.4,0.1-0.8,0.3-1.1,0.6c-0.3,0.3-0.6,0.7-0.8,1.1c-0.2,0.5-0.3,1-0.3,1.7c0,0.6,0.1,1.1,0.2,1.6
				c0.2,0.4,0.4,0.8,0.7,1.1s0.7,0.5,1.1,0.7s0.9,0.2,1.4,0.2c0.4,0,0.7,0,0.9-0.1c0.3-0.1,0.5-0.1,0.7-0.2V164h-1.8v-0.8h2.8v4.2
				c-0.3,0.1-0.7,0.3-1.1,0.3c-0.4,0.1-0.9,0.1-1.5,0.1s-1.2-0.1-1.7-0.3s-1-0.5-1.4-0.9s-0.7-0.8-0.9-1.4c-0.2-0.6-0.3-1.2-0.3-1.9
				s0.1-1.4,0.3-1.9c0.2-0.6,0.5-1,0.9-1.4s0.8-0.7,1.4-0.9C80.6,159.2,81.2,159.1,81.8,159.1"/>
			<polygon class="st1" points="89.3,159.1 94.5,159.1 94.5,160 90.3,160 90.3,163 94.1,163 94.1,163.9 90.3,163.9 90.3,167.2 
				94.6,167.2 94.6,168.1 89.3,168.1 			"/>
			<path class="st1" d="M99.1,159.1h0.9l4,5.8c0.2,0.3,0.3,0.5,0.5,0.8s0.3,0.5,0.5,0.8l0,0c0-0.4,0-0.7,0-1c0-0.4,0-0.7,0-1v-5.3h1
				v8.9h-0.9l-3.9-5.6c-0.2-0.3-0.4-0.6-0.6-0.9c-0.2-0.3-0.4-0.6-0.5-1l0,0c0,0.4,0,0.8,0.1,1.2c0,0.4,0,0.8,0,1.2v5h-1L99.1,159.1
				L99.1,159.1z"/>
			<polygon class="st1" points="116.9,159.1 116.9,160 114,160 114,168.1 113,168.1 113,160 110.1,160 110.1,159.1 			"/>
			<rect x="121" y="159.1" class="st1" width="1" height="8.9"/>
			<path class="st1" d="M127.1,159.1h0.9l4,5.8c0.2,0.3,0.4,0.5,0.5,0.8c0.2,0.3,0.3,0.5,0.5,0.8l0,0c0-0.4,0-0.7,0-1
				c0-0.4,0-0.7,0-1v-5.3h1v8.9h-0.9l-3.9-5.6c-0.2-0.3-0.4-0.6-0.6-0.9c-0.2-0.3-0.4-0.6-0.5-1l0,0c0,0.4,0,0.8,0,1.2s0,0.8,0,1.2
				v5h-1L127.1,159.1L127.1,159.1z"/>
			<path class="st1" d="M141.6,159.1h0.9l3.4,8.9h-1.1l-1-2.6H140l-1,2.6h-1.1L141.6,159.1z M140.4,164.7h3.2l-0.7-1.9
				c-0.1-0.3-0.3-0.7-0.4-1.1s-0.3-0.9-0.4-1.4l0,0c-0.1,0.2-0.1,0.5-0.2,0.7c-0.1,0.2-0.1,0.4-0.2,0.6c-0.1,0.2-0.1,0.4-0.2,0.6
				c-0.1,0.2-0.1,0.4-0.2,0.6L140.4,164.7z"/>
		</g>
	</g>
</g>
</svg>
