<?xml version="1.0" encoding="utf-8"?>
<!-- Generator: Adobe Illustrator 25.4.1, SVG Export Plug-In . SVG Version: 6.00 Build 0)  -->
<svg version="1.1" id="Capa_1" xmlns="http://www.w3.org/2000/svg" xmlns:xlink="http://www.w3.org/1999/xlink" x="0px" y="0px"
	 viewBox="0 0 900 150" style="enable-background:new 0 0 900 150;" xml:space="preserve">
<style type="text/css">
	.st0{fill:#76B8C8;}
	.st1{fill:#A393C0;}
	.st2{fill:#FFFFFF;}
	.st3{opacity:0.5;clip-path:url(#SVGID_00000150067875674742136310000005920778475016902554_);}
	.st4{display:none;}
	.st5{display:inline;}
	.st6{display:inline;clip-path:url(#SVGID_00000170237034271657303300000003854807385004326321_);}
	.st7{fill:#67797E;}
	.st8{fill:#B3C3CA;}
	.st9{clip-path:url(#SVGID_00000152257133505840624970000002653595078146458791_);}
	.st10{fill:#333434;}
	.st11{clip-path:url(#SVGID_00000070819779072278750210000001878213208302243505_);}
	.st12{clip-path:url(#SVGID_00000103262049298404750680000003013192536762637202_);}
	.st13{fill:#F3F2F2;}
	.st14{fill:none;stroke:#828181;stroke-width:2;stroke-miterlimit:10;}
	.st15{fill:#828181;}
	.st16{fill:#CCCCCB;}
</style>
<g>
	<g>
		<polygon class="st0" points="900.6,150.55 528.27,150.55 467.25,115.42 467.25,70.78 477.88,58.85 581.16,-0.55 900.6,-0.55 		"/>
	</g>
	<g>
		<path class="st1" d="M38.53,66l7.64-32.92h10.22L43.3,78.46h-9.54l-13-45.39h10.16L38.53,66z"/>
		<path class="st1" d="M70.23,78.46h-9.16V33.08h9.16V78.46z"/>
		<path class="st1" d="M77.93,78.46V33.08h12c5.3,0,9.52,1.68,12.67,5.05c3.15,3.37,4.75,7.98,4.82,13.84v7.36
			c0,5.96-1.57,10.65-4.72,14.04s-7.49,5.1-13.01,5.1H77.93z M87.09,40.72v30.14h2.74c3.05,0,5.21-0.81,6.45-2.42
			c1.25-1.61,1.9-4.39,1.96-8.34v-7.89c0-4.24-0.59-7.2-1.78-8.87s-3.2-2.55-6.05-2.63H87.09z"/>
		<path class="st1" d="M137.44,58.83h-14.28v12.03h16.9v7.61H114V33.08h26v7.64h-16.83v10.72h14.28V58.83z"/>
		<path class="st1" d="M177.27,59.86c0,6.09-1.44,10.82-4.32,14.18c-2.88,3.37-6.87,5.05-11.99,5.05c-5.09,0-9.09-1.67-12-5
			c-2.91-3.33-4.38-8.01-4.43-14.01v-7.76c0-6.23,1.44-11.1,4.33-14.6c2.89-3.5,6.9-5.25,12.03-5.25c5.05,0,9.03,1.72,11.94,5.16
			c2.91,3.44,4.38,8.27,4.43,14.48V59.86z M168.08,52.25c0-4.09-0.58-7.14-1.75-9.13c-1.16-2-2.97-2.99-5.42-2.99
			c-2.43,0-4.23,0.96-5.39,2.88c-1.16,1.92-1.77,4.85-1.81,8.77v8.07c0,3.97,0.59,6.89,1.78,8.77c1.18,1.88,3.01,2.82,5.49,2.82
			c2.39,0,4.17-0.92,5.33-2.76c1.16-1.84,1.76-4.69,1.78-8.56V52.25z"/>
		<path class="st1" d="M210.53,33.08l8.57,32.82l8.54-32.82h11.97v45.39h-9.2V66.18l0.84-18.92l-9.07,31.2h-6.23l-9.07-31.2
			l0.84,18.92v12.28h-9.16V33.08H210.53z"/>
		<path class="st1" d="M269.2,69.18h-12.5l-2.43,9.29h-9.69l14.18-45.39h8.38l14.28,45.39h-9.79L269.2,69.18z M258.7,61.54h8.48
			l-4.24-16.18L258.7,61.54z"/>
		<path class="st1" d="M294.82,62.5v15.96h-9.16V33.08h15.46c4.49,0,8.07,1.39,10.74,4.18c2.67,2.79,4.01,6.4,4.01,10.85
			s-1.32,7.96-3.96,10.54c-2.64,2.58-6.3,3.87-10.97,3.87H294.82z M294.82,54.87h6.3c1.75,0,3.1-0.57,4.05-1.71
			c0.96-1.14,1.43-2.81,1.43-4.99c0-2.26-0.49-4.07-1.46-5.41c-0.98-1.34-2.29-2.02-3.93-2.04h-6.39V54.87z"/>
		<path class="st1" d="M331.14,62.5v15.96h-9.16V33.08h15.46c4.49,0,8.07,1.39,10.74,4.18c2.67,2.79,4.01,6.4,4.01,10.85
			s-1.32,7.96-3.96,10.54c-2.64,2.58-6.3,3.87-10.97,3.87H331.14z M331.14,54.87h6.3c1.75,0,3.1-0.57,4.05-1.71
			c0.96-1.14,1.43-2.81,1.43-4.99c0-2.26-0.49-4.07-1.46-5.41c-0.98-1.34-2.29-2.02-3.93-2.04h-6.39V54.87z"/>
		<path class="st1" d="M367.86,78.46h-9.16V33.08h9.16V78.46z"/>
		<path class="st1" d="M407.29,78.46h-9.16l-13.4-29.77v29.77h-9.16V33.08h9.16l13.44,29.8v-29.8h9.13V78.46z"/>
		<path class="st1" d="M445.51,73.32c-1.77,1.91-3.93,3.35-6.5,4.32c-2.57,0.97-5.38,1.45-8.43,1.45c-5.22,0-9.27-1.62-12.16-4.85
			s-4.38-7.93-4.46-14.11v-8.17c0-6.25,1.37-11.07,4.1-14.45c2.73-3.38,6.72-5.07,11.95-5.07c4.93,0,8.64,1.22,11.14,3.65
			c2.5,2.43,3.95,6.25,4.35,11.44h-8.92c-0.25-2.89-0.85-4.86-1.81-5.91c-0.96-1.05-2.45-1.57-4.49-1.57c-2.47,0-4.27,0.9-5.39,2.71
			c-1.12,1.81-1.7,4.69-1.75,8.63v8.23c0,4.14,0.62,7.14,1.85,9.02s3.27,2.82,6.09,2.82c1.81,0,3.27-0.36,4.4-1.09l0.81-0.56v-8.32
			h-6.42v-6.92h15.62V73.32z"/>
	</g>
	<g>
		<path d="M26.88,114.21h-4.52V92.26h4.52V114.21z"/>
		<path d="M49.84,114.21h-4.52l-8.8-14.44v14.44h-4.52V92.26h4.52l8.82,14.47V92.26h4.51V114.21z"/>
		<path d="M70.8,95.92h-6.72v18.29h-4.52V95.92h-6.63v-3.66H70.8V95.92z"/>
		<path d="M87.51,104.7h-8.68v5.88h10.19v3.63H74.31V92.26h14.68v3.66H78.83v5.23h8.68V104.7z"/>
		<path d="M100.73,106.18h-3.6v8.04H92.6V92.26h8.16c2.59,0,4.59,0.58,6,1.73c1.41,1.16,2.11,2.79,2.11,4.9
			c0,1.5-0.32,2.75-0.97,3.75s-1.63,1.8-2.95,2.39l4.75,8.97v0.21h-4.85L100.73,106.18z M97.12,102.51h3.65
			c1.14,0,2.01-0.29,2.64-0.87c0.62-0.58,0.93-1.37,0.93-2.39c0-1.04-0.29-1.85-0.88-2.44s-1.49-0.89-2.71-0.89h-3.63V102.51z"/>
		<path d="M121.06,108.77l4.98-16.51h5.04l-7.64,21.95h-4.72l-7.61-21.95h5.02L121.06,108.77z"/>
		<path d="M147.26,104.7h-8.68v5.88h10.19v3.63h-14.71V92.26h14.68v3.66h-10.16v5.23h8.68V104.7z"/>
		<path d="M170.2,114.21h-4.52l-8.8-14.44v14.44h-4.52V92.26h4.52l8.82,14.47V92.26h4.51V114.21z"/>
		<path d="M192.31,106.9c-0.17,2.36-1.04,4.22-2.62,5.58c-1.57,1.36-3.65,2.04-6.22,2.04c-2.81,0-5.03-0.95-6.64-2.84
			c-1.61-1.89-2.42-4.5-2.42-7.8v-1.34c0-2.11,0.37-3.97,1.12-5.58c0.74-1.61,1.81-2.84,3.19-3.7s2.99-1.29,4.82-1.29
			c2.53,0,4.57,0.68,6.12,2.04c1.55,1.36,2.44,3.26,2.68,5.71h-4.52c-0.11-1.42-0.51-2.44-1.18-3.08c-0.68-0.64-1.71-0.96-3.1-0.96
			c-1.51,0-2.64,0.54-3.38,1.62c-0.75,1.08-1.13,2.76-1.15,5.03v1.66c0,2.37,0.36,4.11,1.08,5.2s1.85,1.64,3.4,1.64
			c1.4,0,2.44-0.32,3.13-0.96c0.69-0.64,1.08-1.62,1.18-2.96H192.31z"/>
		<path d="M201.01,114.21h-4.52V92.26h4.52V114.21z"/>
		<path d="M224.16,103.73c0,2.16-0.38,4.06-1.15,5.68s-1.86,2.88-3.28,3.77c-1.42,0.88-3.05,1.33-4.89,1.33
			c-1.82,0-3.44-0.44-4.87-1.31c-1.43-0.88-2.53-2.12-3.32-3.75c-0.78-1.62-1.18-3.49-1.19-5.6v-1.08c0-2.16,0.39-4.06,1.17-5.71
			c0.78-1.64,1.88-2.9,3.3-3.78c1.42-0.88,3.05-1.32,4.88-1.32s3.45,0.44,4.88,1.32c1.42,0.88,2.52,2.14,3.3,3.78
			c0.78,1.64,1.17,3.54,1.17,5.69V103.73z M219.58,102.74c0-2.3-0.41-4.05-1.24-5.25s-2-1.79-3.53-1.79c-1.52,0-2.69,0.59-3.51,1.77
			c-0.82,1.18-1.24,2.91-1.25,5.19v1.07c0,2.24,0.41,3.98,1.24,5.22c0.82,1.24,2.01,1.85,3.56,1.85c1.52,0,2.68-0.6,3.5-1.79
			c0.81-1.19,1.23-2.93,1.24-5.21V102.74z"/>
		<path d="M246.22,114.21h-4.52l-8.8-14.44v14.44h-4.52V92.26h4.52l8.82,14.47V92.26h4.51V114.21z"/>
		<path d="M264.31,104.7h-8.68v5.88h10.19v3.63H251.1V92.26h14.68v3.66h-10.16v5.23h8.68V104.7z"/>
		<path d="M280.78,108.45c0-0.85-0.3-1.51-0.9-1.97c-0.6-0.46-1.69-0.94-3.26-1.45c-1.57-0.51-2.81-1.01-3.72-1.5
			c-2.49-1.35-3.74-3.16-3.74-5.44c0-1.19,0.33-2.24,1-3.17c0.67-0.93,1.63-1.66,2.88-2.18s2.66-0.78,4.21-0.78
			c1.57,0,2.96,0.28,4.19,0.85c1.23,0.57,2.18,1.37,2.86,2.41s1.02,2.21,1.02,3.53h-4.52c0-1-0.32-1.79-0.95-2.34
			c-0.63-0.56-1.52-0.84-2.67-0.84c-1.11,0-1.97,0.23-2.58,0.7c-0.61,0.47-0.92,1.08-0.92,1.85c0,0.71,0.36,1.31,1.08,1.79
			s1.78,0.93,3.17,1.36c2.57,0.77,4.45,1.73,5.62,2.88c1.18,1.15,1.76,2.57,1.76,4.28c0,1.9-0.72,3.39-2.16,4.47
			c-1.44,1.08-3.37,1.62-5.8,1.62c-1.69,0-3.23-0.31-4.61-0.93s-2.45-1.46-3.17-2.54s-1.09-2.32-1.09-3.74h4.54
			c0,2.42,1.45,3.63,4.34,3.63c1.08,0,1.91-0.22,2.52-0.66C280.47,109.85,280.78,109.24,280.78,108.45z"/>
		<path d="M314.53,92.26v14.46c0,2.4-0.75,4.3-2.25,5.7c-1.5,1.4-3.56,2.1-6.16,2.1c-2.56,0-4.6-0.68-6.11-2.04
			c-1.51-1.36-2.28-3.22-2.31-5.59V92.26h4.52v14.49c0,1.44,0.34,2.49,1.03,3.14s1.64,0.99,2.86,0.99c2.54,0,3.83-1.34,3.87-4.01
			V92.26H314.53z"/>
		<path d="M327.29,106.18h-3.6v8.04h-4.52V92.26h8.16c2.59,0,4.59,0.58,6,1.73c1.41,1.16,2.11,2.79,2.11,4.9
			c0,1.5-0.32,2.75-0.97,3.75s-1.63,1.8-2.95,2.39l4.75,8.97v0.21h-4.85L327.29,106.18z M323.69,102.51h3.65
			c1.14,0,2.01-0.29,2.64-0.87c0.62-0.58,0.93-1.37,0.93-2.39c0-1.04-0.29-1.85-0.88-2.44s-1.49-0.89-2.71-0.89h-3.63V102.51z"/>
		<path d="M339.79,114.21V92.26h7.69c2.66,0,4.68,0.51,6.06,1.53s2.07,2.52,2.07,4.49c0,1.08-0.28,2.02-0.83,2.84
			c-0.55,0.82-1.32,1.42-2.31,1.8c1.12,0.28,2.01,0.85,2.66,1.7c0.65,0.85,0.97,1.9,0.97,3.14c0,2.11-0.67,3.71-2.02,4.79
			c-1.35,1.08-3.27,1.64-5.76,1.66H339.79z M344.32,101.46h3.35c2.28-0.04,3.42-0.95,3.42-2.73c0-1-0.29-1.71-0.87-2.15
			s-1.49-0.66-2.74-0.66h-3.17V101.46z M344.32,104.65v5.92h3.88c1.06,0,1.9-0.25,2.49-0.76c0.6-0.51,0.9-1.21,0.9-2.1
			c0-2.01-1.04-3.03-3.12-3.06H344.32z"/>
		<path d="M372.82,109.69h-7.93l-1.51,4.52h-4.81l8.17-21.95h4.19l8.22,21.95h-4.81L372.82,109.69z M366.11,106.02h5.49l-2.76-8.22
			L366.11,106.02z"/>
		<path d="M399.98,114.21h-4.52l-8.8-14.44v14.44h-4.52V92.26h4.52l8.82,14.47V92.26h4.51V114.21z"/>
		<path d="M417.52,109.69h-7.93l-1.51,4.52h-4.81l8.17-21.95h4.19l8.22,21.95h-4.81L417.52,109.69z M410.81,106.02h5.49l-2.76-8.22
			L410.81,106.02z"/>
		<path d="M438.21,108.45c0-0.85-0.3-1.51-0.9-1.97c-0.6-0.46-1.69-0.94-3.26-1.45c-1.57-0.51-2.81-1.01-3.72-1.5
			c-2.49-1.35-3.74-3.16-3.74-5.44c0-1.19,0.33-2.24,1-3.17c0.67-0.93,1.63-1.66,2.88-2.18s2.66-0.78,4.21-0.78
			c1.57,0,2.96,0.28,4.19,0.85c1.23,0.57,2.18,1.37,2.86,2.41s1.02,2.21,1.02,3.53h-4.52c0-1-0.32-1.79-0.95-2.34
			c-0.63-0.56-1.52-0.84-2.67-0.84c-1.11,0-1.97,0.23-2.58,0.7c-0.61,0.47-0.92,1.08-0.92,1.85c0,0.71,0.36,1.31,1.08,1.79
			s1.78,0.93,3.17,1.36c2.57,0.77,4.45,1.73,5.62,2.88c1.18,1.15,1.76,2.57,1.76,4.28c0,1.9-0.72,3.39-2.16,4.47
			c-1.44,1.08-3.37,1.62-5.8,1.62c-1.69,0-3.23-0.31-4.61-0.93s-2.45-1.46-3.17-2.54s-1.09-2.32-1.09-3.74h4.54
			c0,2.42,1.45,3.63,4.34,3.63c1.08,0,1.91-0.22,2.52-0.66C437.9,109.85,438.21,109.24,438.21,108.45z"/>
	</g>
	<g>
		<path class="st2" d="M587.36,36.23c0-2.43,0.58-4.39,1.73-5.87c1.15-1.48,2.66-2.22,4.53-2.22c1.86,0,3.33,0.63,4.41,1.9v-8.26
			h2.71v22.5h-2.49l-0.13-1.7c-1.08,1.33-2.59,1.99-4.53,1.99c-1.84,0-3.33-0.75-4.49-2.26c-1.16-1.5-1.74-3.47-1.74-5.89V36.23z
			 M590.07,36.54c0,1.8,0.37,3.2,1.11,4.22s1.77,1.52,3.08,1.52c1.72,0,2.97-0.77,3.76-2.31v-7.28c-0.81-1.49-2.06-2.24-3.74-2.24
			c-1.33,0-2.36,0.51-3.11,1.54S590.07,34.52,590.07,36.54z"/>
		<path class="st2" d="M612.72,44.58c-2.15,0-3.9-0.71-5.24-2.12c-1.35-1.41-2.02-3.3-2.02-5.66v-0.5c0-1.57,0.3-2.98,0.9-4.21
			c0.6-1.23,1.44-2.2,2.52-2.9c1.08-0.7,2.25-1.05,3.51-1.05c2.06,0,3.66,0.68,4.8,2.04s1.71,3.3,1.71,5.83v1.13h-10.74
			c0.04,1.56,0.5,2.83,1.37,3.79s1.99,1.44,3.33,1.44c0.96,0,1.77-0.2,2.43-0.59s1.25-0.91,1.74-1.55l1.66,1.29
			C617.37,43.56,615.37,44.58,612.72,44.58z M612.38,30.37c-1.09,0-2.01,0.4-2.75,1.19c-0.74,0.8-1.2,1.91-1.38,3.35h7.94v-0.21
			c-0.08-1.38-0.45-2.44-1.11-3.2C614.41,30.75,613.51,30.37,612.38,30.37z"/>
		<path class="st2" d="M632.46,40.08c0-0.73-0.28-1.3-0.83-1.71s-1.51-0.75-2.88-1.05c-1.37-0.29-2.46-0.64-3.27-1.05
			c-0.8-0.41-1.4-0.9-1.79-1.46s-0.58-1.24-0.58-2.02c0-1.3,0.55-2.4,1.65-3.3c1.1-0.9,2.5-1.35,4.21-1.35
			c1.8,0,3.25,0.46,4.37,1.39c1.12,0.93,1.68,2.11,1.68,3.56h-2.72c0-0.74-0.32-1.38-0.94-1.92c-0.63-0.54-1.42-0.81-2.38-0.81
			c-0.99,0-1.76,0.21-2.31,0.64s-0.83,0.99-0.83,1.68c0,0.65,0.26,1.15,0.78,1.48s1.45,0.65,2.8,0.95s2.45,0.66,3.29,1.08
			s1.46,0.93,1.87,1.52s0.61,1.31,0.61,2.16c0,1.42-0.57,2.55-1.7,3.41s-2.6,1.28-4.41,1.28c-1.27,0-2.39-0.22-3.37-0.67
			s-1.74-1.08-2.29-1.88c-0.55-0.8-0.83-1.68-0.83-2.61h2.71c0.05,0.91,0.41,1.63,1.09,2.16c0.68,0.53,1.57,0.8,2.69,0.8
			c1.03,0,1.85-0.21,2.47-0.62C632.15,41.33,632.46,40.77,632.46,40.08z"/>
		<path class="st2" d="M639.24,36.23c0-2.43,0.58-4.39,1.73-5.87c1.15-1.48,2.66-2.22,4.53-2.22c1.86,0,3.33,0.63,4.41,1.9v-8.26
			h2.71v22.5h-2.49l-0.13-1.7c-1.08,1.33-2.59,1.99-4.53,1.99c-1.84,0-3.33-0.75-4.49-2.26c-1.16-1.5-1.74-3.47-1.74-5.89V36.23z
			 M641.95,36.54c0,1.8,0.37,3.2,1.11,4.22s1.77,1.52,3.08,1.52c1.72,0,2.97-0.77,3.76-2.31v-7.28c-0.81-1.49-2.06-2.24-3.74-2.24
			c-1.33,0-2.36,0.51-3.11,1.54S641.95,34.52,641.95,36.54z"/>
		<path class="st2" d="M664.6,44.58c-2.15,0-3.9-0.71-5.24-2.12c-1.35-1.41-2.02-3.3-2.02-5.66v-0.5c0-1.57,0.3-2.98,0.9-4.21
			c0.6-1.23,1.44-2.2,2.52-2.9c1.08-0.7,2.25-1.05,3.51-1.05c2.06,0,3.66,0.68,4.8,2.04s1.71,3.3,1.71,5.83v1.13h-10.74
			c0.04,1.56,0.5,2.83,1.37,3.79s1.99,1.44,3.33,1.44c0.96,0,1.77-0.2,2.43-0.59s1.25-0.91,1.74-1.55l1.66,1.29
			C669.25,43.56,667.25,44.58,664.6,44.58z M664.26,30.37c-1.09,0-2.01,0.4-2.75,1.19c-0.74,0.8-1.2,1.91-1.38,3.35h7.94v-0.21
			c-0.08-1.38-0.45-2.44-1.11-3.2C666.29,30.75,665.39,30.37,664.26,30.37z"/>
		<path class="st2" d="M590.96,76.29h-2.71v-22.5h2.71V76.29z"/>
		<path class="st2" d="M606.29,76.29c-0.16-0.31-0.28-0.87-0.38-1.67c-1.26,1.31-2.76,1.96-4.51,1.96c-1.56,0-2.84-0.44-3.85-1.33
			c-1-0.88-1.5-2-1.5-3.36c0-1.65,0.63-2.93,1.88-3.85c1.25-0.91,3.02-1.37,5.3-1.37h2.64v-1.25c0-0.95-0.28-1.7-0.85-2.26
			s-1.4-0.84-2.5-0.84c-0.97,0-1.78,0.24-2.43,0.73s-0.98,1.08-0.98,1.77h-2.72c0-0.79,0.28-1.55,0.84-2.29
			c0.56-0.74,1.32-1.32,2.29-1.75c0.96-0.43,2.02-0.64,3.17-0.64c1.83,0,3.26,0.46,4.29,1.37c1.04,0.91,1.57,2.17,1.61,3.77v7.29
			c0,1.46,0.19,2.61,0.56,3.47v0.23H606.29z M601.79,74.22c0.85,0,1.66-0.22,2.42-0.66s1.31-1.01,1.66-1.71V68.6h-2.12
			c-3.32,0-4.98,0.97-4.98,2.92c0,0.85,0.28,1.51,0.85,1.99S600.9,74.22,601.79,74.22z"/>
		<path class="st2" d="M626.32,56.6v3.84h2.96v2.09h-2.96v9.84c0,0.64,0.13,1.11,0.4,1.43s0.71,0.48,1.35,0.48
			c0.31,0,0.74-0.06,1.29-0.18v2.18c-0.71,0.2-1.41,0.29-2.08,0.29c-1.21,0-2.12-0.37-2.74-1.1c-0.62-0.73-0.92-1.77-0.92-3.12
			v-9.83h-2.89v-2.09h2.89V56.6H626.32z"/>
		<path class="st2" d="M640.22,76.58c-2.15,0-3.9-0.7-5.24-2.12c-1.35-1.41-2.02-3.3-2.02-5.66v-0.5c0-1.57,0.3-2.98,0.9-4.21
			c0.6-1.23,1.44-2.2,2.52-2.9c1.08-0.7,2.25-1.05,3.51-1.05c2.06,0,3.66,0.68,4.8,2.04s1.71,3.3,1.71,5.83v1.13h-10.74
			c0.04,1.56,0.5,2.83,1.37,3.79s1.99,1.44,3.33,1.44c0.96,0,1.77-0.2,2.43-0.59s1.25-0.91,1.74-1.55l1.66,1.29
			C644.87,75.56,642.88,76.58,640.22,76.58z M639.89,62.37c-1.09,0-2.01,0.4-2.75,1.19c-0.74,0.8-1.2,1.91-1.38,3.35h7.94v-0.21
			c-0.08-1.38-0.45-2.44-1.11-3.2C641.92,62.75,641.02,62.37,639.89,62.37z"/>
		<path class="st2" d="M657.1,74.37c0.97,0,1.81-0.29,2.53-0.88s1.12-1.32,1.2-2.2h2.56c-0.05,0.91-0.36,1.77-0.94,2.59
			s-1.35,1.47-2.31,1.96c-0.96,0.49-1.98,0.73-3.05,0.73c-2.16,0-3.88-0.72-5.15-2.16c-1.28-1.44-1.91-3.41-1.91-5.91v-0.45
			c0-1.54,0.28-2.92,0.85-4.12s1.38-2.13,2.44-2.8c1.06-0.66,2.31-1,3.76-1c1.78,0,3.25,0.53,4.43,1.6s1.8,2.45,1.88,4.15h-2.56
			c-0.08-1.03-0.47-1.87-1.17-2.53c-0.7-0.66-1.56-0.99-2.58-0.99c-1.38,0-2.44,0.5-3.2,1.49c-0.76,0.99-1.14,2.42-1.14,4.3v0.51
			c0,1.83,0.38,3.23,1.13,4.22S655.7,74.37,657.1,74.37z"/>
		<path class="st2" d="M670.21,60.44l0.09,1.99c1.21-1.52,2.79-2.29,4.75-2.29c3.35,0,5.04,1.89,5.07,5.67v10.47h-2.71V65.8
			c-0.01-1.14-0.27-1.99-0.78-2.53c-0.51-0.55-1.31-0.82-2.4-0.82c-0.88,0-1.65,0.23-2.31,0.7s-1.18,1.08-1.55,1.85v11.29h-2.71
			V60.44H670.21z"/>
		<path class="st2" d="M684.68,68.21c0-1.55,0.3-2.95,0.92-4.19s1.46-2.2,2.55-2.87s2.33-1.01,3.73-1.01c2.16,0,3.9,0.75,5.24,2.24
			c1.33,1.49,2,3.48,2,5.96v0.19c0,1.54-0.3,2.93-0.89,4.15s-1.44,2.18-2.53,2.86c-1.1,0.68-2.36,1.02-3.79,1.02
			c-2.15,0-3.89-0.75-5.22-2.24c-1.33-1.49-2-3.47-2-5.93V68.21z M687.4,68.54c0,1.76,0.41,3.17,1.22,4.23
			c0.81,1.06,1.91,1.6,3.27,1.6c1.38,0,2.47-0.54,3.28-1.62s1.22-2.59,1.22-4.53c0-1.74-0.41-3.15-1.24-4.23
			c-0.83-1.08-1.92-1.62-3.29-1.62c-1.34,0-2.42,0.53-3.24,1.6S687.4,66.55,687.4,68.54z"/>
		<path class="st2" d="M706.65,76.29h-2.71v-22.5h2.71V76.29z"/>
		<path class="st2" d="M711.47,68.21c0-1.55,0.3-2.95,0.92-4.19s1.46-2.2,2.55-2.87s2.33-1.01,3.73-1.01c2.16,0,3.9,0.75,5.24,2.24
			c1.33,1.49,2,3.48,2,5.96v0.19c0,1.54-0.3,2.93-0.89,4.15s-1.44,2.18-2.53,2.86c-1.1,0.68-2.36,1.02-3.79,1.02
			c-2.15,0-3.89-0.75-5.22-2.24c-1.33-1.49-2-3.47-2-5.93V68.21z M714.19,68.54c0,1.76,0.41,3.17,1.22,4.23
			c0.81,1.06,1.91,1.6,3.27,1.6c1.38,0,2.47-0.54,3.28-1.62s1.22-2.59,1.22-4.53c0-1.74-0.41-3.15-1.24-4.23
			c-0.83-1.08-1.92-1.62-3.29-1.62c-1.34,0-2.42,0.53-3.24,1.6S714.19,66.55,714.19,68.54z"/>
		<path class="st2" d="M729.85,68.23c0-2.47,0.57-4.44,1.71-5.9c1.14-1.46,2.66-2.19,4.54-2.19c1.93,0,3.44,0.68,4.53,2.05
			l0.13-1.76h2.48V75.9c0,2.05-0.61,3.67-1.82,4.85c-1.21,1.18-2.85,1.77-4.9,1.77c-1.14,0-2.26-0.24-3.35-0.73s-1.93-1.16-2.5-2.01
			l1.41-1.63c1.16,1.44,2.58,2.15,4.26,2.15c1.32,0,2.35-0.37,3.08-1.11c0.74-0.74,1.11-1.79,1.11-3.13V74.7
			c-1.08,1.25-2.56,1.87-4.44,1.87c-1.86,0-3.36-0.75-4.5-2.24S729.85,70.81,729.85,68.23z M732.57,68.54c0,1.79,0.37,3.19,1.1,4.21
			s1.76,1.53,3.08,1.53c1.71,0,2.96-0.78,3.76-2.33v-7.24c-0.83-1.51-2.08-2.27-3.74-2.27c-1.32,0-2.35,0.51-3.09,1.54
			S732.57,66.52,732.57,68.54z"/>
		<path class="st2" d="M751.5,53.8h3.28l-3.93,4.31l-2.18-0.01L751.5,53.8z M751.47,76.29h-2.72V60.44h2.72V76.29z"/>
		<path class="st2" d="M766.92,76.29c-0.16-0.31-0.28-0.87-0.38-1.67c-1.26,1.31-2.76,1.96-4.51,1.96c-1.56,0-2.84-0.44-3.85-1.33
			c-1-0.88-1.5-2-1.5-3.36c0-1.65,0.63-2.93,1.88-3.85c1.25-0.91,3.02-1.37,5.3-1.37h2.64v-1.25c0-0.95-0.28-1.7-0.85-2.26
			s-1.4-0.84-2.5-0.84c-0.97,0-1.78,0.24-2.43,0.73s-0.98,1.08-0.98,1.77h-2.72c0-0.79,0.28-1.55,0.84-2.29
			c0.56-0.74,1.32-1.32,2.29-1.75c0.96-0.43,2.02-0.64,3.17-0.64c1.83,0,3.26,0.46,4.29,1.37c1.04,0.91,1.57,2.17,1.61,3.77v7.29
			c0,1.46,0.19,2.61,0.56,3.47v0.23H766.92z M762.43,74.22c0.85,0,1.66-0.22,2.42-0.66s1.31-1.01,1.66-1.71V68.6h-2.12
			c-3.32,0-4.98,0.97-4.98,2.92c0,0.85,0.28,1.51,0.85,1.99S761.54,74.22,762.43,74.22z"/>
		<path class="st2" d="M593.21,104.32l3.69-11.88h2.9l-6.37,18.3c-0.99,2.64-2.55,3.96-4.7,3.96l-0.51-0.04l-1.01-0.19v-2.2
			l0.73,0.06c0.92,0,1.63-0.19,2.15-0.56c0.51-0.37,0.93-1.05,1.27-2.04l0.6-1.61l-5.65-15.67h2.96L593.21,104.32z"/>
		<path class="st2" d="M618.62,108.58c-2.15,0-3.9-0.71-5.24-2.12c-1.35-1.41-2.02-3.3-2.02-5.66v-0.5c0-1.57,0.3-2.98,0.9-4.21
			c0.6-1.23,1.44-2.2,2.52-2.9c1.08-0.7,2.25-1.05,3.51-1.05c2.06,0,3.66,0.68,4.8,2.04s1.71,3.3,1.71,5.83v1.13h-10.74
			c0.04,1.56,0.5,2.83,1.37,3.79c0.87,0.96,1.99,1.44,3.33,1.44c0.96,0,1.77-0.2,2.43-0.59s1.25-0.91,1.74-1.55l1.66,1.29
			C623.27,107.56,621.28,108.58,618.62,108.58z M618.28,94.37c-1.09,0-2.01,0.4-2.75,1.19c-0.74,0.8-1.2,1.91-1.38,3.35h7.94v-0.21
			c-0.08-1.38-0.45-2.44-1.11-3.2C620.31,94.75,619.42,94.37,618.28,94.37z"/>
		<path class="st2" d="M632.08,108.29h-2.71v-22.5h2.71V108.29z"/>
		<path class="st2" d="M656.03,108.29c-0.16-0.31-0.28-0.87-0.38-1.67c-1.26,1.31-2.76,1.96-4.51,1.96c-1.56,0-2.84-0.44-3.85-1.33
			c-1-0.88-1.5-2-1.5-3.36c0-1.65,0.63-2.93,1.88-3.85c1.25-0.91,3.02-1.37,5.3-1.37h2.64v-1.24c0-0.95-0.28-1.7-0.85-2.26
			c-0.57-0.56-1.4-0.84-2.5-0.84c-0.97,0-1.78,0.24-2.43,0.73s-0.98,1.08-0.98,1.77h-2.72c0-0.79,0.28-1.55,0.84-2.29
			c0.56-0.74,1.32-1.32,2.29-1.75c0.96-0.43,2.02-0.64,3.17-0.64c1.83,0,3.26,0.46,4.29,1.37c1.04,0.91,1.57,2.17,1.61,3.77v7.29
			c0,1.46,0.19,2.61,0.56,3.47v0.23H656.03z M651.53,106.22c0.85,0,1.66-0.22,2.42-0.66s1.31-1.01,1.66-1.71v-3.25h-2.12
			c-3.32,0-4.98,0.97-4.98,2.91c0,0.85,0.28,1.51,0.85,1.99S650.64,106.22,651.53,106.22z"/>
		<path class="st2" d="M671.42,94.87c-0.41-0.07-0.85-0.1-1.33-0.1c-1.78,0-2.98,0.76-3.62,2.27v11.25h-2.71V92.44h2.64l0.04,1.83
			c0.89-1.42,2.15-2.12,3.78-2.12c0.53,0,0.93,0.07,1.2,0.21V94.87z"/>
		<path class="st2" d="M679.52,88.6v3.84h2.96v2.1h-2.96v9.84c0,0.63,0.13,1.11,0.4,1.43c0.26,0.32,0.71,0.48,1.35,0.48
			c0.31,0,0.74-0.06,1.29-0.18v2.18c-0.71,0.2-1.41,0.29-2.08,0.29c-1.21,0-2.12-0.37-2.74-1.1s-0.92-1.77-0.92-3.12v-9.83h-2.89
			v-2.1h2.89V88.6H679.52z"/>
		<path class="st2" d="M693.42,108.58c-2.15,0-3.9-0.71-5.24-2.12c-1.35-1.41-2.02-3.3-2.02-5.66v-0.5c0-1.57,0.3-2.98,0.9-4.21
			c0.6-1.23,1.44-2.2,2.52-2.9c1.08-0.7,2.25-1.05,3.51-1.05c2.06,0,3.66,0.68,4.8,2.04s1.71,3.3,1.71,5.83v1.13h-10.74
			c0.04,1.56,0.5,2.83,1.37,3.79c0.87,0.96,1.99,1.44,3.33,1.44c0.96,0,1.77-0.2,2.43-0.59s1.25-0.91,1.74-1.55l1.66,1.29
			C698.07,107.56,696.08,108.58,693.42,108.58z M693.08,94.37c-1.09,0-2.01,0.4-2.75,1.19c-0.74,0.8-1.2,1.91-1.38,3.35h7.94v-0.21
			c-0.08-1.38-0.45-2.44-1.11-3.2C695.12,94.75,694.22,94.37,693.08,94.37z"/>
	</g>
	<g>
		<defs>
			<rect id="SVGID_1_" x="450.6" y="-0.55" width="351.5" height="150"/>
		</defs>
		<clipPath id="SVGID_00000052793601232695349010000015519015387531388042_">
			<use xlink:href="#SVGID_1_"  style="overflow:visible;"/>
		</clipPath>
		<g style="opacity:0.5;clip-path:url(#SVGID_00000052793601232695349010000015519015387531388042_);">
			<g class="st4">
				<defs>
					<polygon id="SVGID_00000120549910641351842990000004087192785511803784_" points="788.36,136.92 583.11,7.52 363.52,133.58 
						363.52,354.1 577.5,478.94 788.36,357.37 					"/>
				</defs>
				
					<use xlink:href="#SVGID_00000120549910641351842990000004087192785511803784_"  style="display:inline;overflow:visible;fill:#D6DFE5;"/>
				<clipPath id="SVGID_00000020359339678649645620000014126682710870312599_" class="st5">
					<use xlink:href="#SVGID_00000120549910641351842990000004087192785511803784_"  style="overflow:visible;"/>
				</clipPath>
				<g style="display:inline;clip-path:url(#SVGID_00000020359339678649645620000014126682710870312599_);">
					<polygon class="st7" points="338.61,113.98 574.16,251.24 574.16,491.11 298.09,344.7 					"/>
				</g>
				<g style="display:inline;clip-path:url(#SVGID_00000020359339678649645620000014126682710870312599_);">
					<polygon class="st8" points="337.84,119.27 577.5,259.98 816.16,120.86 565.12,-30.21 					"/>
				</g>
				<g style="display:inline;clip-path:url(#SVGID_00000020359339678649645620000014126682710870312599_);">
					<defs>
						<polygon id="SVGID_00000036211482417468332300000013872706601862234002_" points="596.39,265.21 775.92,162.61 775.94,224.86 
							596.39,329.26 						"/>
					</defs>
					<use xlink:href="#SVGID_00000036211482417468332300000013872706601862234002_"  style="overflow:visible;fill:#779198;"/>
					<clipPath id="SVGID_00000047047014117527437930000014502267259606977677_">
						<use xlink:href="#SVGID_00000036211482417468332300000013872706601862234002_"  style="overflow:visible;"/>
					</clipPath>
					<g style="clip-path:url(#SVGID_00000047047014117527437930000014502267259606977677_);">
						<polygon class="st10" points="695.48,178.28 785.74,229.92 781.82,148.22 						"/>
					</g>
				</g>
				<g style="display:inline;clip-path:url(#SVGID_00000020359339678649645620000014126682710870312599_);">
					<defs>
						<polygon id="SVGID_00000057849466552509577910000014224657242850204293_" points="596.39,340.37 775.21,236.17 774.17,349.05 
							596.39,450.83 						"/>
					</defs>
					<use xlink:href="#SVGID_00000057849466552509577910000014224657242850204293_"  style="overflow:visible;fill:#779198;"/>
					<clipPath id="SVGID_00000036222649201210677890000010474125983073862026_">
						<use xlink:href="#SVGID_00000057849466552509577910000014224657242850204293_"  style="overflow:visible;"/>
					</clipPath>
					<g style="clip-path:url(#SVGID_00000036222649201210677890000010474125983073862026_);">
						<polygon class="st10" points="783.13,351.49 676.59,288.09 779.2,226 						"/>
					</g>
				</g>
			</g>
			<g>
				<path d="M538.8,25.17l-22.44-4.75c0,0-8.82,3.39-11.54,9.5c-2.71,6.11,0,14.53,0,14.53L538.8,25.17z"/>
			</g>
			<g>
				<path d="M470.2,108.65v19.68c0,0,2.71,4.75,8.82,4.75s10.06-4.76,10.06-4.76v-19.67H470.2z"/>
			</g>
			<g>
				<path d="M577.5,162.61v19.68c0,0,2.71,4.75,8.82,4.75s10.06-4.76,10.06-4.76v-19.67H577.5z"/>
			</g>
			<g>
				<path d="M676.59,104.24v19.68c0,0,2.71,4.75,8.82,4.75s10.06-4.76,10.06-4.76v-19.67H676.59z"/>
			</g>
			<g>
				<defs>
					<polygon id="SVGID_00000105411535557391648230000015258913093527423880_" points="581.16,-0.55 698.97,69.52 698.97,116.17 
						583.11,183.88 467.25,115.42 467.25,70.78 475.03,60.48 					"/>
				</defs>
				<use xlink:href="#SVGID_00000105411535557391648230000015258913093527423880_"  style="overflow:visible;fill:#F3F2F2;"/>
				<clipPath id="SVGID_00000085213454843988592090000011780271812893932212_">
					<use xlink:href="#SVGID_00000105411535557391648230000015258913093527423880_"  style="overflow:visible;"/>
				</clipPath>
				<g style="clip-path:url(#SVGID_00000085213454843988592090000011780271812893932212_);">
					<defs>
						<polygon id="SVGID_00000081639848983239059950000017075775777955857086_" points="425.41,44.85 576.54,138.51 588.3,124.26 
							707.36,63.42 550.97,-42.7 						"/>
					</defs>
					<use xlink:href="#SVGID_00000081639848983239059950000017075775777955857086_"  style="overflow:visible;fill:#CCCCCB;"/>
					<clipPath id="SVGID_00000166646755503336526460000013125749648027483527_">
						<use xlink:href="#SVGID_00000081639848983239059950000017075775777955857086_"  style="overflow:visible;"/>
					</clipPath>
				</g>
				<g style="clip-path:url(#SVGID_00000085213454843988592090000011780271812893932212_);">
					<polygon class="st13" points="486.63,62.07 583.11,7.52 682.64,67.25 583.11,118.83 					"/>
				</g>
			</g>
			<g>
				<line class="st14" x1="593.2" y1="136.92" x2="606.23" y2="130.24"/>
				<line class="st14" x1="593.2" y1="141.42" x2="606.23" y2="134.74"/>
				<line class="st14" x1="593.2" y1="145.91" x2="606.23" y2="139.23"/>
				<line class="st14" x1="593.2" y1="150.4" x2="606.23" y2="143.72"/>
				<line class="st14" x1="593.2" y1="154.89" x2="606.23" y2="148.21"/>
				<line class="st14" x1="593.2" y1="159.38" x2="606.23" y2="152.7"/>
			</g>
			<g class="st4">
				<g class="st5">
					
						<rect x="675.78" y="85.91" transform="matrix(0.8899 -0.4562 0.4562 0.8899 35.5705 321.1854)" class="st15" width="14.64" height="2"/>
				</g>
				<g class="st5">
					
						<rect x="675.78" y="90.4" transform="matrix(0.8899 -0.4562 0.4562 0.8899 33.5212 321.6801)" class="st15" width="14.64" height="2"/>
				</g>
				<g class="st5">
					
						<rect x="675.78" y="94.9" transform="matrix(0.8899 -0.4562 0.4562 0.8899 31.472 322.1747)" class="st15" width="14.64" height="2"/>
				</g>
				<g class="st5">
					
						<rect x="675.78" y="99.39" transform="matrix(0.8899 -0.4562 0.4562 0.8899 29.423 322.6693)" class="st15" width="14.64" height="2"/>
				</g>
				<g class="st5">
					
						<rect x="675.78" y="103.88" transform="matrix(0.8899 -0.4562 0.4562 0.8899 27.3738 323.1639)" class="st15" width="14.64" height="2"/>
				</g>
				<g class="st5">
					
						<rect x="675.78" y="108.37" transform="matrix(0.8899 -0.4562 0.4562 0.8899 25.3247 323.6585)" class="st15" width="14.64" height="2"/>
				</g>
			</g>
			<g>
				<g>
					<polygon class="st16" points="470.33,77.88 574.16,141.6 572.83,173.8 470.33,111.25 					"/>
				</g>
			</g>
		</g>
	</g>
</g>
</svg>
