<?xml version="1.0" encoding="utf-8"?>
<!-- Generator: Adobe Illustrator 25.4.1, SVG Export Plug-In . SVG Version: 6.00 Build 0)  -->
<svg version="1.1" id="Capa_1" xmlns="http://www.w3.org/2000/svg" xmlns:xlink="http://www.w3.org/1999/xlink" x="0px" y="0px"
	 viewBox="0 0 600 200" style="enable-background:new 0 0 600 200;" xml:space="preserve">
<style type="text/css">
	.st0{fill:#A393C0;}
	.st1{fill:#44505F;}
	.st2{fill:#76B8C8;}
	.st3{opacity:0.5;clip-path:url(#SVGID_00000129165977779652466710000001011414800977744829_);}
	.st4{display:none;}
	.st5{display:inline;}
	.st6{display:inline;clip-path:url(#XMLID_00000104679608085057080680000002215350789201415052_);fill:#67797E;}
	.st7{display:inline;clip-path:url(#XMLID_00000104679608085057080680000002215350789201415052_);fill:#B3C3CA;}
	.st8{display:inline;clip-path:url(#XMLID_00000104679608085057080680000002215350789201415052_);}
	.st9{clip-path:url(#XMLID_00000044140400180355845950000013159163242711647392_);fill:#333434;}
	.st10{clip-path:url(#XMLID_00000121272370738417687650000018125487693597897405_);fill:#333434;}
	.st11{clip-path:url(#XMLID_00000110451460293363313450000013368930049262548901_);}
	.st12{clip-path:url(#XMLID_00000110451460293363313450000013368930049262548901_);fill:#F3F2F2;}
	.st13{fill:none;stroke:#828181;stroke-width:2;stroke-miterlimit:10;}
	.st14{display:inline;fill:none;stroke:#828181;stroke-width:2;stroke-miterlimit:10;}
	.st15{fill:#CCCCCB;}
</style>
<g>
	<g>
		<g>
			<path class="st0" d="M37.62,73.08l6.72-28.97h9L41.82,84.06h-8.39L21.98,44.12h8.94L37.62,73.08z"/>
			<path class="st0" d="M65.52,84.06h-8.06V44.12h8.06V84.06z"/>
			<path class="st0" d="M72.29,84.06V44.12h10.56c4.66,0,8.38,1.48,11.15,4.44s4.18,7.02,4.24,12.18v6.47
				c0,5.25-1.38,9.37-4.16,12.36c-2.77,2.99-6.59,4.49-11.45,4.49H72.29z M80.36,50.84v26.53h2.41c2.69,0,4.58-0.71,5.68-2.13
				c1.1-1.42,1.67-3.86,1.73-7.34v-6.94c0-3.73-0.52-6.33-1.56-7.8c-1.04-1.47-2.82-2.24-5.32-2.32H80.36z"/>
			<path class="st0" d="M124.66,66.77H112.1v10.59h14.87v6.69h-22.93V44.12h22.88v6.72H112.1v9.44h12.56V66.77z"/>
			<path class="st0" d="M159.72,67.68c0,5.36-1.27,9.52-3.8,12.48c-2.53,2.96-6.05,4.44-10.55,4.44c-4.48,0-8-1.47-10.56-4.4
				c-2.56-2.93-3.86-7.04-3.9-12.33v-6.83c0-5.49,1.27-9.77,3.81-12.85c2.54-3.08,6.07-4.62,10.59-4.62c4.44,0,7.95,1.51,10.51,4.54
				c2.56,3.03,3.86,7.27,3.89,12.74V67.68z M151.62,60.99c0-3.6-0.51-6.28-1.54-8.04c-1.02-1.75-2.62-2.63-4.77-2.63
				c-2.14,0-3.72,0.85-4.75,2.54c-1.02,1.69-1.55,4.27-1.59,7.72v7.11c0,3.49,0.52,6.07,1.56,7.72c1.04,1.66,2.65,2.48,4.83,2.48
				c2.1,0,3.67-0.81,4.69-2.43c1.02-1.62,1.54-4.13,1.56-7.53V60.99z"/>
			<path class="st0" d="M188.99,44.12L196.53,73l7.52-28.88h10.53v39.94h-8.09V73.25l0.74-16.65l-7.98,27.46h-5.49l-7.98-27.46
				l0.74,16.65v10.81h-8.07V44.12H188.99z"/>
			<path class="st0" d="M240.61,75.88h-11l-2.14,8.17h-8.53l12.48-39.94h7.38l12.56,39.94h-8.61L240.61,75.88z M231.37,69.16h7.46
				l-3.73-14.24L231.37,69.16z"/>
			<path class="st0" d="M263.16,70.01v14.04h-8.07V44.12h13.61c3.95,0,7.1,1.22,9.45,3.68c2.35,2.45,3.52,5.63,3.52,9.55
				s-1.16,7-3.48,9.27s-5.54,3.4-9.66,3.4H263.16z M263.16,63.29h5.54c1.54,0,2.72-0.5,3.57-1.51c0.84-1,1.26-2.47,1.26-4.39
				c0-1.99-0.43-3.58-1.29-4.76c-0.86-1.18-2.01-1.78-3.46-1.8h-5.62V63.29z"/>
			<path class="st0" d="M295.12,70.01v14.04h-8.07V44.12h13.61c3.95,0,7.1,1.22,9.45,3.68c2.35,2.45,3.52,5.63,3.52,9.55
				s-1.16,7-3.48,9.27s-5.54,3.4-9.66,3.4H295.12z M295.12,63.29h5.54c1.54,0,2.73-0.5,3.57-1.51c0.84-1,1.26-2.47,1.26-4.39
				c0-1.99-0.43-3.58-1.29-4.76c-0.86-1.18-2.01-1.78-3.46-1.8h-5.62V63.29z"/>
			<path class="st0" d="M327.43,84.06h-8.06V44.12h8.06V84.06z"/>
			<path class="st0" d="M362.13,84.06h-8.07l-11.79-26.2v26.2h-8.07V44.12h8.07l11.82,26.22V44.12h8.04V84.06z"/>
			<path class="st0" d="M395.76,79.53c-1.55,1.68-3.46,2.95-5.72,3.8c-2.26,0.85-4.73,1.28-7.42,1.28c-4.59,0-8.16-1.42-10.7-4.27
				s-3.85-6.98-3.92-12.41v-7.19c0-5.5,1.2-9.74,3.61-12.71c2.41-2.97,5.91-4.46,10.52-4.46c4.33,0,7.6,1.07,9.81,3.21
				c2.2,2.14,3.48,5.5,3.83,10.07h-7.84c-0.22-2.54-0.75-4.27-1.59-5.2c-0.84-0.92-2.16-1.38-3.95-1.38c-2.18,0-3.76,0.79-4.75,2.39
				c-0.99,1.59-1.5,4.12-1.54,7.6v7.24c0,3.64,0.54,6.29,1.63,7.94s2.88,2.48,5.36,2.48c1.59,0,2.88-0.32,3.87-0.96l0.71-0.49v-7.32
				h-5.65v-6.09h13.74V79.53z"/>
		</g>
		<g>
			<path d="M27.36,115.51h-3.98V96.2h3.98V115.51z"/>
			<path d="M47.58,115.51H43.6l-7.75-12.71v12.71h-3.98V96.2h3.98l7.76,12.74V96.2h3.97V115.51z"/>
			<path d="M66.02,99.42H60.1v16.09h-3.98V99.42h-5.84V96.2h15.73V99.42z"/>
			<path d="M80.73,107.14h-7.64v5.17h8.97v3.2H69.1V96.2h12.92v3.22h-8.94v4.6h7.64V107.14z"/>
			<path d="M92.35,108.44h-3.17v7.07H85.2V96.2h7.18c2.28,0,4.04,0.51,5.28,1.53c1.24,1.02,1.86,2.45,1.86,4.31
				c0,1.32-0.29,2.42-0.86,3.3c-0.57,0.88-1.43,1.58-2.59,2.1l4.18,7.89v0.19h-4.27L92.35,108.44z M89.18,105.22h3.21
				c1,0,1.77-0.25,2.32-0.76c0.55-0.51,0.82-1.21,0.82-2.1c0-0.91-0.26-1.63-0.78-2.15s-1.31-0.78-2.38-0.78h-3.2V105.22z"/>
			<path d="M110.24,110.72l4.38-14.53h4.43l-6.73,19.32h-4.15l-6.7-19.32h4.42L110.24,110.72z"/>
			<path d="M133.31,107.14h-7.64v5.17h8.97v3.2h-12.95V96.2h12.92v3.22h-8.94v4.6h7.64V107.14z"/>
			<path d="M153.49,115.51h-3.98l-7.75-12.71v12.71h-3.98V96.2h3.98l7.76,12.74V96.2h3.97V115.51z"/>
			<path d="M172.95,109.08c-0.15,2.08-0.92,3.71-2.3,4.91c-1.38,1.19-3.21,1.79-5.47,1.79c-2.48,0-4.42-0.83-5.84-2.5
				c-1.42-1.67-2.13-3.96-2.13-6.87v-1.18c0-1.86,0.33-3.49,0.98-4.91c0.65-1.42,1.59-2.5,2.81-3.26c1.22-0.76,2.63-1.13,4.24-1.13
				c2.23,0,4.02,0.6,5.39,1.79c1.36,1.19,2.15,2.87,2.36,5.03h-3.98c-0.1-1.25-0.44-2.15-1.04-2.71s-1.51-0.84-2.73-0.84
				c-1.33,0-2.32,0.48-2.98,1.43c-0.66,0.95-1,2.43-1.01,4.42v1.46c0,2.09,0.32,3.61,0.95,4.58c0.63,0.96,1.63,1.45,2.99,1.45
				c1.23,0,2.15-0.28,2.75-0.84c0.61-0.56,0.95-1.43,1.04-2.61H172.95z"/>
			<path d="M180.61,115.51h-3.98V96.2h3.98V115.51z"/>
			<path d="M200.98,106.29c0,1.9-0.34,3.57-1.01,5s-1.63,2.54-2.88,3.32c-1.25,0.78-2.69,1.17-4.31,1.17c-1.6,0-3.03-0.38-4.29-1.15
				s-2.23-1.87-2.92-3.3c-0.69-1.43-1.04-3.07-1.05-4.93v-0.96c0-1.9,0.34-3.58,1.03-5.02s1.65-2.56,2.91-3.33
				c1.25-0.77,2.68-1.16,4.29-1.16s3.04,0.39,4.29,1.16c1.25,0.77,2.22,1.88,2.91,3.33s1.03,3.12,1.03,5.01V106.29z M196.94,105.42
				c0-2.03-0.36-3.56-1.09-4.62c-0.73-1.05-1.76-1.58-3.1-1.58c-1.34,0-2.37,0.52-3.09,1.56c-0.73,1.04-1.09,2.56-1.1,4.57v0.94
				c0,1.97,0.36,3.5,1.09,4.59s1.77,1.63,3.13,1.63c1.34,0,2.36-0.52,3.08-1.57c0.72-1.05,1.08-2.58,1.09-4.58V105.42z"/>
			<path d="M220.39,115.51h-3.98l-7.75-12.71v12.71h-3.98V96.2h3.98l7.76,12.74V96.2h3.97V115.51z"/>
			<path d="M236.3,107.14h-7.64v5.17h8.97v3.2h-12.95V96.2h12.92v3.22h-8.94v4.6h7.64V107.14z"/>
			<path d="M250.8,110.45c0-0.75-0.27-1.33-0.8-1.73c-0.53-0.4-1.49-0.83-2.87-1.27c-1.38-0.45-2.47-0.89-3.28-1.32
				c-2.19-1.19-3.29-2.78-3.29-4.79c0-1.04,0.29-1.97,0.88-2.79s1.43-1.46,2.53-1.92c1.1-0.46,2.34-0.69,3.71-0.69
				c1.38,0,2.61,0.25,3.69,0.75c1.08,0.5,1.92,1.21,2.51,2.12c0.6,0.91,0.9,1.95,0.9,3.1h-3.98c0-0.88-0.28-1.57-0.84-2.06
				c-0.56-0.49-1.34-0.74-2.35-0.74c-0.97,0-1.73,0.21-2.27,0.62c-0.54,0.41-0.81,0.95-0.81,1.62c0,0.63,0.32,1.15,0.95,1.58
				c0.63,0.42,1.56,0.82,2.79,1.19c2.26,0.68,3.91,1.53,4.95,2.53c1.04,1.01,1.55,2.26,1.55,3.77c0,1.67-0.63,2.98-1.9,3.93
				c-1.26,0.95-2.97,1.43-5.11,1.43c-1.49,0-2.84-0.27-4.06-0.82s-2.15-1.29-2.79-2.24c-0.64-0.95-0.96-2.04-0.96-3.29h3.99
				c0,2.13,1.27,3.2,3.82,3.2c0.95,0,1.68-0.19,2.22-0.58C250.53,111.67,250.8,111.14,250.8,110.45z"/>
			<path d="M280.5,96.2v12.72c0,2.11-0.66,3.79-1.98,5.01c-1.32,1.23-3.13,1.84-5.42,1.84c-2.25,0-4.05-0.6-5.37-1.79
				c-1.33-1.19-2-2.83-2.03-4.92V96.2h3.98v12.75c0,1.27,0.3,2.19,0.91,2.77c0.61,0.58,1.44,0.87,2.51,0.87
				c2.24,0,3.37-1.18,3.41-3.53V96.2H280.5z"/>
			<path d="M291.73,108.44h-3.17v7.07h-3.98V96.2h7.18c2.28,0,4.04,0.51,5.28,1.53c1.24,1.02,1.86,2.45,1.86,4.31
				c0,1.32-0.29,2.42-0.86,3.3c-0.57,0.88-1.43,1.58-2.59,2.1l4.18,7.89v0.19h-4.27L291.73,108.44z M288.56,105.22h3.21
				c1,0,1.77-0.25,2.32-0.76c0.55-0.51,0.82-1.21,0.82-2.1c0-0.91-0.26-1.63-0.78-2.15s-1.31-0.78-2.38-0.78h-3.2V105.22z"/>
			<path d="M302.73,115.51V96.2h6.77c2.34,0,4.12,0.45,5.33,1.35c1.21,0.9,1.82,2.21,1.82,3.95c0,0.95-0.24,1.78-0.73,2.5
				c-0.49,0.72-1.16,1.25-2.03,1.59c0.99,0.25,1.77,0.75,2.34,1.5s0.86,1.67,0.86,2.76c0,1.86-0.59,3.26-1.78,4.22
				c-1.19,0.96-2.88,1.44-5.07,1.46H302.73z M306.71,104.29h2.94c2.01-0.04,3.01-0.84,3.01-2.4c0-0.88-0.25-1.51-0.76-1.89
				s-1.31-0.58-2.41-0.58h-2.79V104.29z M306.71,107.1v5.21h3.41c0.94,0,1.67-0.22,2.2-0.67s0.79-1.06,0.79-1.85
				c0-1.77-0.92-2.67-2.75-2.69H306.71z"/>
			<path d="M331.79,111.53h-6.98l-1.33,3.98h-4.23l7.19-19.32h3.69l7.23,19.32h-4.23L331.79,111.53z M325.89,108.31h4.83l-2.43-7.23
				L325.89,108.31z"/>
			<path d="M355.69,115.51h-3.98l-7.75-12.71v12.71h-3.98V96.2h3.98l7.76,12.74V96.2h3.97V115.51z"/>
			<path d="M371.13,111.53h-6.98l-1.33,3.98h-4.23l7.19-19.32h3.69l7.23,19.32h-4.23L371.13,111.53z M365.22,108.31h4.83l-2.43-7.23
				L365.22,108.31z"/>
			<path d="M389.33,110.45c0-0.75-0.27-1.33-0.8-1.73c-0.53-0.4-1.49-0.83-2.87-1.27c-1.38-0.45-2.47-0.89-3.28-1.32
				c-2.19-1.19-3.29-2.78-3.29-4.79c0-1.04,0.29-1.97,0.88-2.79s1.43-1.46,2.53-1.92c1.1-0.46,2.34-0.69,3.71-0.69
				c1.38,0,2.61,0.25,3.69,0.75c1.08,0.5,1.92,1.21,2.51,2.12c0.6,0.91,0.9,1.95,0.9,3.1h-3.98c0-0.88-0.28-1.57-0.84-2.06
				c-0.56-0.49-1.34-0.74-2.35-0.74c-0.97,0-1.73,0.21-2.27,0.62c-0.54,0.41-0.81,0.95-0.81,1.62c0,0.63,0.32,1.15,0.95,1.58
				c0.63,0.42,1.56,0.82,2.79,1.19c2.26,0.68,3.91,1.53,4.95,2.53c1.04,1.01,1.55,2.26,1.55,3.77c0,1.67-0.63,2.98-1.9,3.93
				c-1.26,0.95-2.97,1.43-5.11,1.43c-1.49,0-2.84-0.27-4.06-0.82s-2.15-1.29-2.79-2.24c-0.64-0.95-0.96-2.04-0.96-3.29h3.99
				c0,2.13,1.27,3.2,3.82,3.2c0.95,0,1.68-0.19,2.22-0.58C389.07,111.67,389.33,111.14,389.33,110.45z"/>
		</g>
		<g>
			<path class="st1" d="M22.69,136.43c0-2.24,0.53-4.03,1.59-5.39s2.45-2.04,4.16-2.04c1.71,0,3.06,0.58,4.05,1.75v-7.6h2.49v20.69
				H32.7l-0.12-1.56c-1,1.22-2.38,1.83-4.16,1.83c-1.69,0-3.06-0.69-4.13-2.07s-1.6-3.19-1.6-5.42V136.43z M25.18,136.71
				c0,1.65,0.34,2.95,1.02,3.88c0.68,0.93,1.62,1.4,2.83,1.4c1.58,0,2.74-0.71,3.46-2.13v-6.7c-0.75-1.37-1.89-2.06-3.43-2.06
				c-1.22,0-2.17,0.47-2.86,1.41C25.52,133.46,25.18,134.86,25.18,136.71z"/>
			<path class="st1" d="M46,144.1c-1.98,0-3.58-0.65-4.82-1.95s-1.86-3.03-1.86-5.21v-0.46c0-1.45,0.28-2.74,0.83-3.87
				c0.55-1.14,1.33-2.02,2.32-2.67c0.99-0.64,2.07-0.96,3.23-0.96c1.9,0,3.37,0.62,4.42,1.87c1.05,1.25,1.58,3.04,1.58,5.36v1.04
				h-9.87c0.04,1.44,0.46,2.6,1.26,3.48c0.8,0.88,1.83,1.33,3.07,1.33c0.88,0,1.62-0.18,2.24-0.54c0.61-0.36,1.15-0.83,1.6-1.43
				l1.52,1.19C50.28,143.17,48.45,144.1,46,144.1z M45.69,131.04c-1.01,0-1.85,0.37-2.53,1.1c-0.68,0.73-1.1,1.76-1.27,3.08h7.3
				v-0.19c-0.07-1.27-0.41-2.25-1.02-2.94C47.56,131.39,46.74,131.04,45.69,131.04z"/>
			<path class="st1" d="M64.16,139.97c0-0.67-0.25-1.2-0.76-1.57c-0.51-0.37-1.39-0.69-2.65-0.96c-1.26-0.27-2.26-0.59-3-0.97
				c-0.74-0.38-1.29-0.83-1.64-1.35c-0.36-0.52-0.53-1.14-0.53-1.86c0-1.19,0.5-2.21,1.52-3.03c1.01-0.83,2.3-1.24,3.87-1.24
				c1.65,0,2.99,0.43,4.02,1.28c1.03,0.85,1.54,1.95,1.54,3.27h-2.5c0-0.68-0.29-1.27-0.87-1.76c-0.58-0.49-1.31-0.74-2.19-0.74
				c-0.91,0-1.62,0.2-2.13,0.59c-0.51,0.39-0.77,0.91-0.77,1.55c0,0.6,0.24,1.06,0.71,1.36c0.48,0.31,1.34,0.6,2.58,0.88
				c1.24,0.28,2.25,0.61,3.02,1c0.77,0.39,1.34,0.85,1.72,1.39c0.37,0.54,0.56,1.21,0.56,1.99c0,1.3-0.52,2.35-1.56,3.13
				s-2.39,1.18-4.05,1.18c-1.17,0-2.2-0.21-3.1-0.62c-0.9-0.41-1.6-0.99-2.11-1.73c-0.51-0.74-0.76-1.54-0.76-2.4h2.49
				c0.04,0.83,0.38,1.5,1,1.99c0.62,0.49,1.45,0.73,2.47,0.73c0.94,0,1.7-0.19,2.27-0.57S64.16,140.61,64.16,139.97z"/>
			<path class="st1" d="M70.4,136.43c0-2.24,0.53-4.03,1.59-5.39s2.45-2.04,4.16-2.04c1.71,0,3.06,0.58,4.05,1.75v-7.6h2.49v20.69
				H80.4l-0.12-1.56c-1,1.22-2.38,1.83-4.16,1.83c-1.69,0-3.06-0.69-4.13-2.07s-1.6-3.19-1.6-5.42V136.43z M72.89,136.71
				c0,1.65,0.34,2.95,1.02,3.88c0.68,0.93,1.62,1.4,2.83,1.4c1.58,0,2.74-0.71,3.46-2.13v-6.7c-0.75-1.37-1.89-2.06-3.43-2.06
				c-1.22,0-2.17,0.47-2.86,1.41C73.23,133.46,72.89,134.86,72.89,136.71z"/>
			<path class="st1" d="M93.71,144.1c-1.98,0-3.58-0.65-4.82-1.95s-1.86-3.03-1.86-5.21v-0.46c0-1.45,0.28-2.74,0.83-3.87
				c0.55-1.14,1.33-2.02,2.32-2.67c0.99-0.64,2.07-0.96,3.23-0.96c1.9,0,3.37,0.62,4.42,1.87c1.05,1.25,1.58,3.04,1.58,5.36v1.04
				h-9.87c0.04,1.44,0.46,2.6,1.26,3.48c0.8,0.88,1.83,1.33,3.07,1.33c0.88,0,1.62-0.18,2.24-0.54c0.61-0.36,1.15-0.83,1.6-1.43
				l1.52,1.19C97.99,143.17,96.16,144.1,93.71,144.1z M93.4,131.04c-1.01,0-1.85,0.37-2.53,1.1c-0.68,0.73-1.1,1.76-1.27,3.08h7.3
				v-0.19c-0.07-1.27-0.41-2.25-1.02-2.94C95.27,131.39,94.44,131.04,93.4,131.04z"/>
			<path class="st1" d="M114.02,143.83h-2.49v-20.69h2.49V143.83z"/>
			<path class="st1" d="M128.11,143.83c-0.14-0.29-0.26-0.8-0.35-1.54c-1.16,1.2-2.54,1.81-4.15,1.81c-1.44,0-2.62-0.41-3.54-1.22
				c-0.92-0.81-1.38-1.84-1.38-3.09c0-1.52,0.58-2.7,1.73-3.54s2.78-1.26,4.87-1.26h2.42v-1.14c0-0.87-0.26-1.57-0.78-2.08
				c-0.52-0.52-1.29-0.77-2.3-0.77c-0.89,0-1.63,0.22-2.24,0.67s-0.9,0.99-0.9,1.63h-2.51c0-0.73,0.26-1.43,0.77-2.11
				c0.52-0.68,1.22-1.21,2.1-1.61s1.86-0.59,2.92-0.59c1.68,0,3,0.42,3.95,1.26s1.45,2,1.48,3.47v6.71c0,1.34,0.17,2.4,0.51,3.19
				v0.22H128.11z M123.98,141.94c0.78,0,1.52-0.2,2.22-0.61s1.21-0.93,1.52-1.58v-2.99h-1.95c-3.05,0-4.58,0.89-4.58,2.68
				c0,0.78,0.26,1.39,0.78,1.83C122.49,141.72,123.16,141.94,123.98,141.94z"/>
			<path class="st1" d="M146.54,125.73v3.53h2.72v1.93h-2.72v9.05c0,0.58,0.12,1.02,0.36,1.31c0.24,0.29,0.66,0.44,1.24,0.44
				c0.29,0,0.68-0.05,1.19-0.16v2.01c-0.66,0.18-1.29,0.27-1.91,0.27c-1.11,0-1.95-0.34-2.52-1.01c-0.57-0.67-0.85-1.63-0.85-2.87
				v-9.04h-2.65v-1.93h2.65v-3.53H146.54z"/>
			<path class="st1" d="M159.32,144.1c-1.98,0-3.58-0.65-4.82-1.95s-1.86-3.03-1.86-5.21v-0.46c0-1.45,0.28-2.74,0.83-3.87
				c0.55-1.14,1.33-2.02,2.32-2.67c0.99-0.64,2.07-0.96,3.23-0.96c1.9,0,3.37,0.62,4.42,1.87c1.05,1.25,1.58,3.04,1.58,5.36v1.04
				h-9.87c0.04,1.44,0.46,2.6,1.26,3.48c0.8,0.88,1.83,1.33,3.07,1.33c0.88,0,1.62-0.18,2.24-0.54c0.61-0.36,1.15-0.83,1.6-1.43
				l1.52,1.19C163.6,143.17,161.77,144.1,159.32,144.1z M159.01,131.04c-1.01,0-1.85,0.37-2.53,1.1c-0.68,0.73-1.1,1.76-1.27,3.08
				h7.3v-0.19c-0.07-1.27-0.41-2.25-1.02-2.94C160.88,131.39,160.06,131.04,159.01,131.04z"/>
			<path class="st1" d="M174.84,142.07c0.89,0,1.67-0.27,2.33-0.81c0.67-0.54,1.03-1.21,1.1-2.02h2.36
				c-0.04,0.83-0.33,1.63-0.86,2.38c-0.53,0.75-1.24,1.36-2.12,1.8c-0.88,0.45-1.82,0.67-2.81,0.67c-1.99,0-3.56-0.66-4.74-1.99
				c-1.17-1.32-1.76-3.14-1.76-5.44v-0.42c0-1.42,0.26-2.68,0.78-3.79s1.27-1.96,2.24-2.57c0.97-0.61,2.13-0.92,3.46-0.92
				c1.63,0,2.99,0.49,4.08,1.47c1.08,0.98,1.66,2.25,1.73,3.81h-2.36c-0.07-0.94-0.43-1.72-1.07-2.32
				c-0.64-0.61-1.43-0.91-2.38-0.91c-1.27,0-2.25,0.46-2.94,1.37s-1.04,2.23-1.04,3.95v0.47c0,1.68,0.35,2.97,1.04,3.88
				S173.56,142.07,174.84,142.07z"/>
			<path class="st1" d="M186.9,129.26l0.08,1.83c1.11-1.4,2.57-2.1,4.36-2.1c3.08,0,4.63,1.74,4.66,5.21v9.63h-2.49v-9.65
				c-0.01-1.05-0.25-1.83-0.72-2.33s-1.21-0.75-2.2-0.75c-0.81,0-1.52,0.21-2.13,0.65c-0.61,0.43-1.09,1-1.43,1.7v10.39h-2.49
				v-14.58H186.9z"/>
			<path class="st1" d="M200.2,136.41c0-1.43,0.28-2.71,0.84-3.85c0.56-1.14,1.34-2.02,2.34-2.64c1-0.62,2.14-0.93,3.43-0.93
				c1.98,0,3.59,0.69,4.82,2.06c1.23,1.37,1.84,3.2,1.84,5.48v0.17c0,1.42-0.27,2.69-0.81,3.82c-0.54,1.13-1.32,2-2.33,2.63
				c-1.01,0.63-2.17,0.94-3.48,0.94c-1.98,0-3.58-0.69-4.8-2.06s-1.84-3.19-1.84-5.46V136.41z M202.71,136.71
				c0,1.62,0.38,2.91,1.12,3.89c0.75,0.98,1.75,1.47,3.01,1.47c1.27,0,2.27-0.5,3.02-1.49c0.75-0.99,1.12-2.38,1.12-4.17
				c0-1.6-0.38-2.89-1.14-3.89s-1.77-1.49-3.02-1.49c-1.23,0-2.22,0.49-2.98,1.47C203.09,133.49,202.71,134.89,202.71,136.71z"/>
			<path class="st1" d="M220.41,143.83h-2.49v-20.69h2.49V143.83z"/>
			<path class="st1" d="M224.84,136.41c0-1.43,0.28-2.71,0.84-3.85c0.56-1.14,1.34-2.02,2.34-2.64c1-0.62,2.14-0.93,3.43-0.93
				c1.98,0,3.59,0.69,4.82,2.06c1.23,1.37,1.84,3.2,1.84,5.48v0.17c0,1.42-0.27,2.69-0.81,3.82c-0.54,1.13-1.32,2-2.33,2.63
				c-1.01,0.63-2.17,0.94-3.48,0.94c-1.98,0-3.58-0.69-4.8-2.06s-1.84-3.19-1.84-5.46V136.41z M227.34,136.71
				c0,1.62,0.38,2.91,1.12,3.89c0.75,0.98,1.75,1.47,3.01,1.47c1.27,0,2.27-0.5,3.02-1.49c0.75-0.99,1.12-2.38,1.12-4.17
				c0-1.6-0.38-2.89-1.14-3.89s-1.77-1.49-3.02-1.49c-1.23,0-2.22,0.49-2.98,1.47C227.72,133.49,227.34,134.89,227.34,136.71z"/>
			<path class="st1" d="M241.74,136.43c0-2.27,0.53-4.08,1.58-5.42c1.05-1.34,2.44-2.01,4.18-2.01c1.78,0,3.17,0.63,4.16,1.89
				l0.12-1.62h2.28v14.22c0,1.89-0.56,3.37-1.68,4.46c-1.12,1.09-2.62,1.63-4.51,1.63c-1.05,0-2.08-0.22-3.08-0.67
				c-1.01-0.45-1.77-1.06-2.3-1.85l1.29-1.5c1.07,1.32,2.38,1.98,3.92,1.98c1.21,0,2.16-0.34,2.84-1.02
				c0.68-0.68,1.02-1.64,1.02-2.88v-1.25c-1,1.15-2.36,1.72-4.08,1.72c-1.71,0-3.09-0.69-4.14-2.06
				C242.27,140.67,241.74,138.8,241.74,136.43z M244.25,136.71c0,1.64,0.34,2.93,1.01,3.87c0.67,0.94,1.62,1.41,2.83,1.41
				c1.57,0,2.73-0.71,3.46-2.14v-6.65c-0.76-1.39-1.91-2.09-3.43-2.09c-1.21,0-2.16,0.47-2.84,1.41S244.25,134.86,244.25,136.71z"/>
			<path class="st1" d="M261.65,123.16h3.02l-3.61,3.96l-2.01-0.01L261.65,123.16z M261.62,143.83h-2.51v-14.58h2.51V143.83z"/>
			<path class="st1" d="M275.84,143.83c-0.14-0.29-0.26-0.8-0.35-1.54c-1.16,1.2-2.54,1.81-4.15,1.81c-1.44,0-2.62-0.41-3.54-1.22
				c-0.92-0.81-1.38-1.84-1.38-3.09c0-1.52,0.58-2.7,1.73-3.54s2.78-1.26,4.87-1.26h2.42v-1.14c0-0.87-0.26-1.57-0.78-2.08
				c-0.52-0.52-1.29-0.77-2.3-0.77c-0.89,0-1.63,0.22-2.24,0.67s-0.9,0.99-0.9,1.63h-2.51c0-0.73,0.26-1.43,0.77-2.11
				c0.52-0.68,1.22-1.21,2.1-1.61s1.86-0.59,2.92-0.59c1.68,0,3,0.42,3.95,1.26s1.45,2,1.48,3.47v6.71c0,1.34,0.17,2.4,0.51,3.19
				v0.22H275.84z M271.7,141.94c0.78,0,1.52-0.2,2.22-0.61s1.21-0.93,1.52-1.58v-2.99h-1.95c-3.05,0-4.58,0.89-4.58,2.68
				c0,0.78,0.26,1.39,0.78,1.83C270.21,141.72,270.88,141.94,271.7,141.94z"/>
			<path class="st1" d="M295.65,140.18l3.39-10.92h2.67l-5.86,16.83c-0.91,2.42-2.35,3.64-4.32,3.64l-0.47-0.04l-0.93-0.18v-2.02
				l0.67,0.05c0.84,0,1.5-0.17,1.97-0.51c0.47-0.34,0.86-0.96,1.17-1.87l0.55-1.48l-5.2-14.41h2.72L295.65,140.18z"/>
			<path class="st1" d="M319.02,144.1c-1.98,0-3.58-0.65-4.82-1.95s-1.86-3.03-1.86-5.21v-0.46c0-1.45,0.28-2.74,0.83-3.87
				c0.55-1.14,1.33-2.02,2.32-2.67c0.99-0.64,2.07-0.96,3.23-0.96c1.9,0,3.37,0.62,4.42,1.87c1.05,1.25,1.58,3.04,1.58,5.36v1.04
				h-9.87c0.04,1.44,0.46,2.6,1.26,3.48c0.8,0.88,1.83,1.33,3.07,1.33c0.88,0,1.62-0.18,2.24-0.54c0.61-0.36,1.15-0.83,1.6-1.43
				l1.52,1.19C323.29,143.17,321.46,144.1,319.02,144.1z M318.71,131.04c-1.01,0-1.85,0.37-2.53,1.1c-0.68,0.73-1.1,1.76-1.27,3.08
				h7.3v-0.19c-0.07-1.27-0.41-2.25-1.02-2.94C320.58,131.39,319.75,131.04,318.71,131.04z"/>
			<path class="st1" d="M331.4,143.83h-2.49v-20.69h2.49V143.83z"/>
			<path class="st1" d="M353.42,143.83c-0.14-0.29-0.26-0.8-0.35-1.54c-1.16,1.2-2.54,1.81-4.15,1.81c-1.44,0-2.62-0.41-3.54-1.22
				c-0.92-0.81-1.38-1.84-1.38-3.09c0-1.52,0.58-2.7,1.73-3.54s2.78-1.26,4.87-1.26h2.42v-1.14c0-0.87-0.26-1.57-0.78-2.08
				c-0.52-0.52-1.29-0.77-2.3-0.77c-0.89,0-1.63,0.22-2.24,0.67s-0.9,0.99-0.9,1.63h-2.51c0-0.73,0.26-1.43,0.77-2.11
				c0.52-0.68,1.22-1.21,2.1-1.61s1.86-0.59,2.92-0.59c1.68,0,3,0.42,3.95,1.26s1.45,2,1.48,3.47v6.71c0,1.34,0.17,2.4,0.51,3.19
				v0.22H353.42z M349.29,141.94c0.78,0,1.52-0.2,2.22-0.61s1.21-0.93,1.52-1.58v-2.99h-1.95c-3.05,0-4.58,0.89-4.58,2.68
				c0,0.78,0.26,1.39,0.78,1.83C347.8,141.72,348.47,141.94,349.29,141.94z"/>
			<path class="st1" d="M367.58,131.5c-0.38-0.06-0.79-0.09-1.23-0.09c-1.63,0-2.74,0.7-3.33,2.09v10.35h-2.49v-14.58h2.42
				l0.04,1.68c0.82-1.3,1.98-1.95,3.48-1.95c0.49,0,0.85,0.06,1.1,0.19V131.5z"/>
			<path class="st1" d="M375.02,125.73v3.53h2.72v1.93h-2.72v9.05c0,0.58,0.12,1.02,0.36,1.31c0.24,0.29,0.66,0.44,1.24,0.44
				c0.29,0,0.68-0.05,1.19-0.16v2.01c-0.66,0.18-1.29,0.27-1.91,0.27c-1.11,0-1.95-0.34-2.52-1.01c-0.57-0.67-0.85-1.63-0.85-2.87
				v-9.04h-2.65v-1.93h2.65v-3.53H375.02z"/>
			<path class="st1" d="M387.81,144.1c-1.98,0-3.58-0.65-4.82-1.95s-1.86-3.03-1.86-5.21v-0.46c0-1.45,0.28-2.74,0.83-3.87
				c0.55-1.14,1.33-2.02,2.32-2.67c0.99-0.64,2.07-0.96,3.23-0.96c1.9,0,3.37,0.62,4.42,1.87c1.05,1.25,1.58,3.04,1.58,5.36v1.04
				h-9.87c0.04,1.44,0.46,2.6,1.26,3.48c0.8,0.88,1.83,1.33,3.07,1.33c0.88,0,1.62-0.18,2.24-0.54c0.61-0.36,1.15-0.83,1.6-1.43
				l1.52,1.19C392.08,143.17,390.25,144.1,387.81,144.1z M387.5,131.04c-1.01,0-1.85,0.37-2.53,1.1c-0.68,0.73-1.1,1.76-1.27,3.08
				h7.3v-0.19c-0.07-1.27-0.41-2.25-1.02-2.94C389.37,131.39,388.54,131.04,387.5,131.04z"/>
		</g>
	</g>
	<polygon class="st2" points="599.77,200 507.49,200 424.26,152.74 424.26,106.37 435.29,93.97 599.77,-0.55 	"/>
	<g>
		<defs>
			<rect id="SVGID_1_" x="403.22" y="1" width="196.55" height="198.86"/>
		</defs>
		<clipPath id="SVGID_00000121965454378941905520000006658040946977445300_">
			<use xlink:href="#SVGID_1_"  style="overflow:visible;"/>
		</clipPath>
		<g style="opacity:0.5;clip-path:url(#SVGID_00000121965454378941905520000006658040946977445300_);">
			<g class="st4">
				<defs>
					<polygon id="XMLID_00000176043521809821172930000008788525197262400896_" points="757.84,175.09 544.62,40.65 316.49,171.62 
						316.49,400.71 538.79,530.4 757.84,404.1 					"/>
				</defs>
				
					<use xlink:href="#XMLID_00000176043521809821172930000008788525197262400896_"  style="display:inline;overflow:visible;fill:#D6DFE5;"/>
				<clipPath id="XMLID_00000134951354538394657620000000391058335929748882_" class="st5">
					<use xlink:href="#XMLID_00000176043521809821172930000008788525197262400896_"  style="overflow:visible;"/>
				</clipPath>
				
					<polygon style="display:inline;clip-path:url(#XMLID_00000134951354538394657620000000391058335929748882_);fill:#67797E;" points="
					290.61,151.25 535.32,293.85 535.32,543.04 248.51,390.95 				"/>
				
					<polygon style="display:inline;clip-path:url(#XMLID_00000134951354538394657620000000391058335929748882_);fill:#B3C3CA;" points="
					289.8,156.75 538.79,302.93 786.73,158.4 525.92,1.45 				"/>
				<g style="display:inline;clip-path:url(#XMLID_00000134951354538394657620000000391058335929748882_);">
					<defs>
						<polygon id="XMLID_00000142158561327097982850000008597155862534522045_" points="558.41,308.36 744.92,201.77 744.94,266.45 
							558.41,374.91 						"/>
					</defs>
					<use xlink:href="#XMLID_00000142158561327097982850000008597155862534522045_"  style="overflow:visible;fill:#779198;"/>
					<clipPath id="XMLID_00000155141177175018532710000017079696032623556746_">
						<use xlink:href="#XMLID_00000142158561327097982850000008597155862534522045_"  style="overflow:visible;"/>
					</clipPath>
					<polygon style="clip-path:url(#XMLID_00000155141177175018532710000017079696032623556746_);fill:#333434;" points="
						661.35,218.05 755.13,271.7 751.05,186.82 					"/>
				</g>
				<g style="display:inline;clip-path:url(#XMLID_00000134951354538394657620000000391058335929748882_);">
					<defs>
						<polygon id="XMLID_00000098917425372447597510000012093162316303192749_" points="558.41,386.45 744.18,278.19 743.11,395.46 
							558.41,501.2 						"/>
					</defs>
					<use xlink:href="#XMLID_00000098917425372447597510000012093162316303192749_"  style="overflow:visible;fill:#779198;"/>
					<clipPath id="XMLID_00000055679408858736505800000018191733186227662473_">
						<use xlink:href="#XMLID_00000098917425372447597510000012093162316303192749_"  style="overflow:visible;"/>
					</clipPath>
					<polygon style="clip-path:url(#XMLID_00000055679408858736505800000018191733186227662473_);fill:#333434;" points="
						752.41,397.99 641.73,332.13 748.34,267.62 					"/>
				</g>
			</g>
			<path d="M498.58,58.98l-23.31-4.94c0,0-9.17,3.53-11.99,9.87s0,15.09,0,15.09L498.58,58.98z"/>
			<path d="M427.32,145.71v20.45c0,0,2.82,4.94,9.17,4.94s10.46-4.95,10.46-4.95v-20.44H427.32z"/>
			<path d="M538.79,201.77v20.45c0,0,2.82,4.94,9.17,4.94c6.35,0,10.46-4.95,10.46-4.95v-20.44H538.79z"/>
			<path d="M641.73,141.13v20.45c0,0,2.82,4.94,9.17,4.94c6.35,0,10.46-4.95,10.46-4.95v-20.44H641.73z"/>
			<g>
				<defs>
					<polygon id="XMLID_00000051382419264732111590000000043765178211015335_" points="542.59,32.26 664.99,105.06 664.99,153.52 
						544.62,223.87 424.26,152.74 424.26,106.37 432.33,95.67 					"/>
				</defs>
				<use xlink:href="#XMLID_00000051382419264732111590000000043765178211015335_"  style="overflow:visible;fill:#F3F2F2;"/>
				<clipPath id="XMLID_00000160174040208870735940000010461262747176615586_">
					<use xlink:href="#XMLID_00000051382419264732111590000000043765178211015335_"  style="overflow:visible;"/>
				</clipPath>
				<g style="clip-path:url(#XMLID_00000160174040208870735940000010461262747176615586_);">
					<defs>
						<polygon id="XMLID_00000049916828103638067440000000709252519378932611_" points="380.78,79.43 537.79,176.74 550.01,161.93 
							673.7,98.73 511.22,-11.53 						"/>
					</defs>
					<use xlink:href="#XMLID_00000049916828103638067440000000709252519378932611_"  style="overflow:visible;fill:#CCCCCB;"/>
					<clipPath id="XMLID_00000173874096754068848180000003568425641136024718_">
						<use xlink:href="#XMLID_00000049916828103638067440000000709252519378932611_"  style="overflow:visible;"/>
					</clipPath>
				</g>
				<polygon style="clip-path:url(#XMLID_00000160174040208870735940000010461262747176615586_);fill:#F3F2F2;" points="
					444.38,97.32 544.62,40.65 648.01,102.7 544.62,156.29 				"/>
			</g>
			<g>
				<line class="st13" x1="555.1" y1="175.09" x2="568.63" y2="168.15"/>
				<line class="st13" x1="555.1" y1="179.75" x2="568.63" y2="172.81"/>
				<line class="st13" x1="555.1" y1="184.42" x2="568.63" y2="177.48"/>
				<line class="st13" x1="555.1" y1="189.09" x2="568.63" y2="182.15"/>
				<line class="st13" x1="555.1" y1="193.75" x2="568.63" y2="186.81"/>
				<line class="st13" x1="555.1" y1="198.42" x2="568.63" y2="191.48"/>
			</g>
			<g class="st4">
				<line class="st14" x1="641.73" y1="126.6" x2="655.26" y2="119.66"/>
				<line class="st14" x1="641.73" y1="131.27" x2="655.26" y2="124.33"/>
				<line class="st14" x1="641.73" y1="135.93" x2="655.26" y2="128.99"/>
				<line class="st14" x1="641.73" y1="140.6" x2="655.26" y2="133.66"/>
				<line class="st14" x1="641.73" y1="145.27" x2="655.26" y2="138.33"/>
				<line class="st14" x1="641.73" y1="149.93" x2="655.26" y2="142.99"/>
			</g>
			<g>
				<polygon class="st15" points="427.45,113.74 535.32,179.95 533.93,213.4 427.45,148.41 				"/>
			</g>
		</g>
	</g>
</g>
</svg>
