<?xml version="1.0" encoding="utf-8"?>
<!-- Generator: Adobe Illustrator 24.3.0, SVG Export Plug-In . SVG Version: 6.00 Build 0)  -->
<svg version="1.1" id="Capa_1" xmlns="http://www.w3.org/2000/svg" xmlns:xlink="http://www.w3.org/1999/xlink" x="0px" y="0px"
	 viewBox="0 0 1012.3 825.7" style="enable-background:new 0 0 1012.3 825.7;" xml:space="preserve">
<style type="text/css">
	.st0{fill:#848484;}
	.st1{fill:#FFFFFF;}
</style>
<g>
	<g>
		<path class="st0" d="M482.5,0c9.3,0,18.6,0,27.9,0c1.2,0.4,2.4,1.1,3.6,1.3c19.7,3,37.8,9.2,54.8,20.6c28.4,19,48,44,58.6,76.1
			c16.8,51.5,8.7,99-24.2,142.2c-1.2,1.6-2.1,3.3-3.3,5c1.2,0.7,1.8,1.3,2.5,1.4c1.8,0.4,3.5,0.7,5.3,0.9c44.8,4.5,80.1,26,108,60.6
			c3.5,4.4,5.7,11.5,10,13c4.1,1.4,10.1-3.1,15.4-4.6c24.3-7,48.5-14,72.9-20.7c19-5.2,32.3,5,32.4,24.5c0.1,23,0.1,45.9,0,68.9
			c0,4.2,0.7,6.8,5.2,8.8c25.5,11.4,38.7,32.1,40.7,59.2c1.5,20,1.5,40.3,0,60.3c-1.9,26.4-14.3,47.2-39,58.7c-5.8,2.7-7,5.9-7,11.6
			c0.2,38.2,0.1,76.4,0.1,114.6c0,10.6-3.3,19.4-13.5,24.1c-6.9,3.2-14,6.2-21.3,8.3c-41.3,12.4-82.7,24.6-124.1,36.9
			c-42.4,12.6-84.7,25.2-127.1,37.7c-17.5,5.2-35,10.6-52.8,14.7c-7.2,1.7-15.5,1.8-22.6-0.1c-22-5.9-43.6-13.3-65.5-19.8
			c-42.1-12.6-84.2-25-126.3-37.5c-41.6-12.4-83.2-24.7-124.8-37.1c-16.9-5-21.9-11.8-21.9-29.7c0-37.9-0.1-75.9,0.1-113.8
			c0-4.7-1.3-7.1-5.8-9.2c-16.3-7.5-28.5-19.1-34.7-36.5c-2-5.8-4.1-11.5-6.1-17.3c0-23.2,0-46.5,0-69.7c1-3.4,2.1-6.8,3-10.3
			c5.5-20.7,17.8-35.8,37.2-44.7c5.2-2.4,6.4-5.2,6.4-10.4c-0.2-22.7-0.2-45.4-0.1-68.1c0.1-19.1,13.3-29.3,31.9-24.4
			c12.7,3.3,25.3,7,37.9,10.8c14.9,4.5,29.7,9.5,44.6,14.1c3.1,1,5.7,2.8,9.2-1.5c11.7-14.2,23.3-28.9,37.1-40.8
			c16.5-14.2,36.8-22.6,58.2-27.4c8.9-2,18-3.3,26.9-4.9c0-1.1,0.1-1.7,0-2.1c-0.3-0.7-0.7-1.4-1.2-1.9
			c-19.6-23.2-30.2-50.1-33-80.1c-6-62.8,24.3-117.8,77.1-146.7C449.4,7.4,466.6,4.9,482.5,0z M473.2,770.1c0-2.4,0-5.4,0-8.4
			c0-106.1-0.1-212.1,0.2-318.2c0-8.4-3.3-11.8-10.4-13.8c-42.6-12.6-85.2-25.4-127.8-37.8c-38.6-11.2-77.3-21.9-115.9-33
			c-8.6-2.5-17-6.1-26.3-9.5c0,15.2-0.2,28.9,0.2,42.5c0.1,2.1,2.4,5,4.4,5.9c26.7,12.2,39.7,33.8,41.5,62.1
			c1.2,18.8,1.2,37.7,0,56.5c-1.8,28-14.8,49.5-41.2,61.3c-4.2,1.9-4.8,4.3-4.8,8.3c0.1,32,0,64,0,96c0,1.8,0.3,3.5,0.4,4.6
			c10.9,3.9,21.1,8,31.6,11.1c42,12.7,84.2,25.2,126.3,37.6c16.8,5,33.7,9.5,50.5,14.3C425.4,756.3,449,763.1,473.2,770.1z
			 M799.8,349.2c-8.9,3.3-16.6,6.7-24.6,9.1c-44.8,13.4-89.6,26.8-134.5,39.9c-36.6,10.7-73.3,20.9-110,31.2
			c-7.7,2.1-11.4,5.5-11.4,14.7c0.4,106.1,0.2,212.1,0.2,318.2c0,2.9,0,5.8,0,9.1c3.8-1.7,6.2-3,8.8-3.8
			c50-14.8,100-29.6,150.1-44.3c40.4-11.8,80.8-23.5,121.4-35.3c0-35.7,0.1-70.3-0.2-104.8c0-1.8-2.5-4.2-4.4-5.1
			c-26.7-12.2-39.6-33.8-41.4-62.1c-1.2-18.8-1.2-37.7,0-56.5c1.8-28.1,14.9-49.3,41.1-61.6c2.2-1,4.6-4.2,4.6-6.5
			C800.1,377.9,799.8,364.4,799.8,349.2z M589.3,143.9c-0.3-3-0.9-8.6-1.5-14.3c-3.8-33.8-35.2-70.1-68-78.5
			c-24.9-6.4-48.2-3.1-70,11.1c-12.3,8-23.6,17.1-30.8,29.9c-20.8,37.4-21.5,74.5,1.9,111.8c18,28.7,57,45.5,90.5,39.5
			C559.9,234.7,589,192.2,589.3,143.9z M316.5,335.8c24.7,7.9,48.7,15.9,73,23.1c33.3,9.9,66.9,19.2,100.4,28.3
			c4.2,1.1,9.3,1.1,13.4-0.1c46.6-13.5,93.2-27.3,139.8-41.1c11-3.2,22.1-6.3,34.8-10c-8.4-7.9-15-15.5-23-21.3
			c-17.7-13-38.1-20-59.9-20.2c-66.1-0.5-132.1-0.9-198.2,0.2C364.4,295.3,337.3,309.5,316.5,335.8z M192.9,488.4
			c0-8.3,0.2-16.5,0-24.8c-0.4-13.7-10.6-23.9-23.4-23.7c-12.7,0.2-22.6,10.1-22.9,23.4c-0.3,16.2-0.3,32.5,0,48.8
			c0.2,13.8,10.4,23.8,23.4,23.7c12.7-0.1,22.5-10.1,22.9-23.4C193.1,504.4,192.9,496.4,192.9,488.4z M846.3,488c0-8,0.1-16,0-24
			c-0.3-13.9-10-24-23-24.2c-13-0.1-23.2,9.9-23.4,23.7c-0.3,16.2-0.3,32.5,0,48.8c0.2,13.3,10.3,23.3,22.9,23.4
			c13,0.1,23-10,23.4-23.7C846.5,504,846.3,496,846.3,488z"/>
		<path class="st1" d="M799.8,349.2c0,15.3,0.2,28.7-0.2,42.1c-0.1,2.3-2.5,5.5-4.6,6.5c-26.2,12.3-39.4,33.5-41.1,61.6
			c-1.2,18.8-1.2,37.7,0,56.5c1.8,28.3,14.8,49.9,41.4,62.1c1.9,0.9,4.4,3.4,4.4,5.1c0.3,34.5,0.2,69.1,0.2,104.8
			c-40.6,11.8-81,23.5-121.4,35.3c-50.1,14.7-100.1,29.5-150.1,44.3c-2.6,0.8-5,2.1-8.8,3.8c0-3.3,0-6.2,0-9.1
			c0-106.1,0.1-212.1-0.2-318.2c0-9.2,3.7-12.5,11.4-14.7c36.7-10.3,73.4-20.5,110-31.2c44.9-13.1,89.7-26.4,134.5-39.9
			C783.2,355.8,790.9,352.5,799.8,349.2z M590.9,702.8c1.9-0.4,5.5-1,8.9-2.1c8.2-2.7,16.2-6,24.5-8.4
			c35.8-10.4,71.7-20.8,107.6-30.7c7.6-2.1,12.6-6.8,16.4-12.8c6.5-10.4,3.8-20.2-3.4-29.2c-5.8-7.3-13.6-9.1-22.1-6.6
			c-9.8,2.8-19.2,6.7-29,9.6c-35.6,10.4-71.3,20.2-106.7,30.9c-6.1,1.9-12,6.6-16.4,11.6c-6.1,6.9-6.1,15.6-1.8,23.9
			C573.1,697.2,579.2,702.8,590.9,702.8z M680,529.4c-1.9,0.4-5.9,1-9.8,2.2c-25.7,7.8-51.4,15.8-77.1,23.7c-4.4,1.4-9,2.3-13.2,4.2
			c-11.3,4.9-16.5,17.8-12.5,29.8c3.9,11.7,15.3,18.1,27.5,15.2c8.2-2,16.4-4.3,24.5-6.8c23.2-7.1,46.5-14.2,69.6-21.6
			c11.6-3.7,18-14.5,16.1-25.8C703,537.3,694.4,529.5,680,529.4z M658.9,470.2c-0.1-15.6-13.4-26.5-28.7-22.8
			c-16,3.9-31.7,8.8-47.5,13.2c-10,2.8-14.2,10.7-16.2,19.7c-1.9,8.4,1.3,15.5,7.5,21.6c6.6,6.4,14,9.3,23,6c4.7-1.7,9.3-4,14.1-5.5
			c10.1-3.1,20.3-5.6,30.4-8.7C652.8,490.2,659,481.6,658.9,470.2z"/>
		<path class="st0" d="M266.6,612c5.5,1.5,13.5,3.5,21.3,5.9c18.1,5.6,36,11.6,54.2,16.9c21.7,6.5,43.7,12,65.2,18.8
			c16.9,5.4,25.6,24,14.2,39.2c-7.2,9.5-14.4,12.1-28.5,8c-43.8-12.9-87.5-26.2-131.4-38.9c-6.9-2-11.9-5.8-15.9-11.2
			c-5.5-7.4-6.5-15.6-2.4-24C247.5,618.1,253.6,612,266.6,612z"/>
		<path class="st0" d="M426.7,581.2c0.1,16-13.5,27.2-29.1,23.1c-23.9-6.3-47.6-13.3-71.4-20.2c-7.3-2.1-14.3-5.2-21.5-7.7
			c-14.1-4.9-19.9-16.4-15.7-31.3c3.3-11.8,15.8-18.4,29.2-14.5c21.6,6.3,43.1,13.3,64.7,19.9c8.6,2.6,17.4,4.8,26,7.5
			C420.3,561.4,426.6,569.9,426.7,581.2z"/>
		<path class="st0" d="M333.9,470.1c0.1-15.2,13.2-26.4,27.9-22.8c16.5,4,32.7,9,48.9,13.8c10,2.9,13.9,11.1,15.6,20.2
			c1.7,8.8-2.1,15.9-8.8,21.8c-8.3,7.3-16.2,7.2-26.4,2.6c-12.3-5.5-26-7.8-39.1-11.7C340.1,490.4,333.7,481.8,333.9,470.1z"/>
		<path class="st0" d="M590.9,702.8c-11.6,0-17.8-5.6-22-14c-4.2-8.3-4.3-17,1.8-23.9c4.3-4.9,10.2-9.7,16.4-11.6
			c35.4-10.8,71.2-20.6,106.7-30.9c9.8-2.8,19.2-6.7,29-9.6c8.6-2.5,16.3-0.7,22.1,6.6c7.2,9,9.9,18.8,3.4,29.2
			c-3.8,6.1-8.8,10.7-16.4,12.8c-36,9.9-71.8,20.3-107.6,30.7c-8.3,2.4-16.3,5.7-24.5,8.4C596.4,701.9,592.8,702.4,590.9,702.8z"/>
		<path class="st0" d="M680,529.4c14.4,0.1,22.9,7.9,25.1,20.8c1.9,11.3-4.5,22.1-16.1,25.8c-23.1,7.4-46.4,14.5-69.6,21.6
			c-8.1,2.5-16.3,4.8-24.5,6.8c-12.3,2.9-23.6-3.5-27.5-15.2c-4-12,1.2-24.9,12.5-29.8c4.2-1.8,8.8-2.8,13.2-4.2
			c25.7-7.9,51.3-15.9,77.1-23.7C674.1,530.4,678.2,529.8,680,529.4z"/>
		<path class="st0" d="M658.9,470.2c0.1,11.4-6.1,20-17.5,23.5c-10.1,3.1-20.3,5.7-30.4,8.7c-4.8,1.5-9.4,3.7-14.1,5.5
			c-9,3.3-16.3,0.4-23-6c-6.2-6-9.4-13.1-7.5-21.6c2-9.1,6.3-16.9,16.2-19.7c15.8-4.5,31.5-9.3,47.5-13.2
			C645.5,443.7,658.8,454.6,658.9,470.2z"/>
	</g>
</g>
</svg>
