<?xml version="1.0" encoding="utf-8"?>
<!-- Generator: Adobe Illustrator 25.4.1, SVG Export Plug-In . SVG Version: 6.00 Build 0)  -->
<svg version="1.1" id="Capa_1" xmlns="http://www.w3.org/2000/svg" xmlns:xlink="http://www.w3.org/1999/xlink" x="0px" y="0px"
	 viewBox="0 0 900 150" style="enable-background:new 0 0 900 150;" xml:space="preserve">
<style type="text/css">
	.st0{fill:#B0CEE9;}
	.st1{fill:#D9A926;}
	.st2{clip-path:url(#XMLID_00000179644002514625256430000004278341489869086366_);}
	.st3{fill:#DC5429;}
	.st4{fill:#333434;}
</style>
<g>
	<polygon class="st0" points="900.33,150.42 580.15,150 603.81,0.42 900.33,0.42 	"/>
</g>
<g>
	<path class="st1" d="M69.95,62.17c-0.3,6.73-2.19,11.82-5.67,15.28c-3.48,3.46-8.4,5.19-14.75,5.19c-6.67,0-11.79-2.19-15.34-6.58
		s-5.33-10.65-5.33-18.78v-9.93c0-8.1,1.84-14.35,5.51-18.74s8.78-6.58,15.32-6.58c6.43,0,11.31,1.8,14.65,5.39
		s5.23,8.75,5.69,15.48H58.08c-0.11-4.16-0.75-7.03-1.92-8.61c-1.18-1.58-3.33-2.37-6.46-2.37c-3.19,0-5.44,1.11-6.77,3.34
		c-1.32,2.23-2.03,5.9-2.11,11V57.4c0,5.86,0.65,9.89,1.97,12.08c1.31,2.19,3.56,3.28,6.75,3.28c3.13,0,5.29-0.76,6.48-2.29
		s1.86-4.29,2.03-8.29L69.95,62.17L69.95,62.17z"/>
	<path class="st1" d="M95.98,60.26h-5.92v21.56H78.15v-59h19c5.97,0,10.58,1.55,13.84,4.64c3.25,3.09,4.88,7.49,4.88,13.19
		c0,7.83-2.85,13.32-8.55,16.45l10.33,24.15v0.57h-12.8L95.98,60.26z M90.07,50.34h6.77c2.38,0,4.16-0.79,5.35-2.37
		c1.19-1.58,1.78-3.69,1.78-6.34c0-5.92-2.31-8.87-6.93-8.87h-6.97C90.07,32.76,90.07,50.34,90.07,50.34z"/>
	<path class="st1" d="M155.36,56.29H136.8v15.64h21.96v9.89h-33.87v-59h33.79v9.93H136.8v13.94h18.56V56.29z"/>
	<path class="st1" d="M194.61,69.75h-16.25l-3.16,12.08h-12.6l18.44-59h10.9l18.56,59h-12.72L194.61,69.75z M180.95,59.82h11.02
		l-5.51-21.03L180.95,59.82z"/>
	<path class="st1" d="M255.97,62.17c-0.3,6.73-2.19,11.82-5.67,15.28s-8.4,5.19-14.75,5.19c-6.67,0-11.79-2.19-15.34-6.58
		s-5.33-10.65-5.33-18.78v-9.93c0-8.1,1.84-14.35,5.51-18.74s8.78-6.58,15.32-6.58c6.43,0,11.31,1.8,14.65,5.39
		s5.23,8.75,5.69,15.48H244.1c-0.11-4.16-0.75-7.03-1.92-8.61c-1.18-1.58-3.33-2.37-6.46-2.37c-3.19,0-5.44,1.11-6.77,3.34
		c-1.32,2.23-2.03,5.9-2.11,11V57.4c0,5.86,0.65,9.89,1.97,12.08c1.31,2.19,3.56,3.28,6.75,3.28c3.13,0,5.29-0.76,6.48-2.29
		s1.86-4.29,2.03-8.29L255.97,62.17L255.97,62.17z"/>
	<path class="st1" d="M276.58,81.82h-11.91v-59h11.91V81.82z"/>
	<path class="st1" d="M328.95,57.63c0,7.92-1.87,14.06-5.61,18.44s-8.93,6.56-15.58,6.56c-6.62,0-11.82-2.17-15.6-6.5
		s-5.7-10.41-5.75-18.21v-10.1c0-8.1,1.88-14.43,5.63-18.98s8.97-6.83,15.64-6.83c6.56,0,11.74,2.24,15.52,6.71
		s5.7,10.75,5.75,18.82L328.95,57.63L328.95,57.63z M316.99,47.74c0-5.32-0.76-9.28-2.27-11.87c-1.51-2.59-3.86-3.89-7.05-3.89
		c-3.16,0-5.5,1.25-7.01,3.75s-2.3,6.3-2.35,11.41v10.49c0,5.16,0.77,8.96,2.31,11.41c1.54,2.45,3.92,3.67,7.13,3.67
		c3.11,0,5.42-1.2,6.93-3.59c1.51-2.39,2.28-6.1,2.31-11.12V47.74z M310.02,7.02h12.89l-11.26,12.56h-9.56L310.02,7.02z"/>
	<path class="st1" d="M379.58,81.82h-11.91l-17.42-38.7v38.7h-11.91v-59h11.91l17.46,38.74V22.82h11.87L379.58,81.82L379.58,81.82z"
		/>
	<path class="st1" d="M28.82,137.82V92.95h11.86c5.24,0,9.41,1.66,12.53,4.99s4.7,7.89,4.76,13.68v7.27c0,5.9-1.56,10.52-4.67,13.88
		s-7.4,5.04-12.87,5.04H28.82V137.82z M37.88,100.5v29.8h2.71c3.02,0,5.15-0.8,6.38-2.39s1.88-4.34,1.94-8.24v-7.8
		c0-4.19-0.59-7.11-1.76-8.77c-1.17-1.65-3.16-2.52-5.98-2.6C41.17,100.5,37.88,100.5,37.88,100.5z"/>
	<path class="st1" d="M87.64,118.41H73.53v11.89h16.7v7.52H64.47V92.95h25.7v7.55H73.53v10.6h14.11V118.41z"/>
	<path class="st1" d="M123.57,121.43h-4.5v16.39h-9.06V92.95h14.45c4.54,0,8.05,1.18,10.52,3.53c2.48,2.35,3.71,5.7,3.71,10.03
		c0,5.96-2.17,10.13-6.5,12.51l7.86,18.37v0.43h-9.74L123.57,121.43z M119.08,113.88h5.15c1.81,0,3.16-0.6,4.07-1.8
		c0.9-1.2,1.36-2.81,1.36-4.82c0-4.5-1.76-6.75-5.27-6.75h-5.3v13.37H119.08z"/>
	<path class="st1" d="M168.1,118.41h-14.11v11.89h16.7v7.52h-25.76V92.95h25.7v7.55h-16.64v10.6h14.11V118.41z"/>
	<path class="st1" d="M206.31,122.88c-0.23,5.12-1.66,8.99-4.31,11.62s-6.39,3.94-11.22,3.94c-5.07,0-8.96-1.67-11.66-5.01
		s-4.05-8.1-4.05-14.28v-7.55c0-6.16,1.4-10.91,4.19-14.25s6.68-5.01,11.65-5.01c4.89,0,8.6,1.37,11.14,4.1
		c2.54,2.73,3.98,6.66,4.33,11.77h-9.09c-0.08-3.16-0.57-5.35-1.46-6.55c-0.89-1.2-2.53-1.8-4.92-1.8c-2.42,0-4.14,0.85-5.15,2.54
		s-1.54,4.48-1.6,8.37v8.47c0,4.46,0.5,7.52,1.49,9.18c0.99,1.66,2.71,2.5,5.13,2.5c2.38,0,4.03-0.58,4.93-1.74s1.42-3.26,1.54-6.3
		C197.25,122.88,206.31,122.88,206.31,122.88z"/>
	<path class="st1" d="M241.07,92.95v31.06c-0.04,4.66-1.33,8.23-3.85,10.71c-2.53,2.48-6.15,3.71-10.88,3.71
		c-4.81,0-8.48-1.25-11.02-3.76c-2.54-2.51-3.81-6.13-3.81-10.88V92.95h9.12v30.88c0,2.55,0.41,4.37,1.23,5.46
		c0.82,1.09,2.31,1.63,4.47,1.63s3.64-0.54,4.44-1.62s1.21-2.85,1.23-5.32V92.95H241.07z"/>
	<path class="st1" d="M261.53,121.43h-4.5v16.39h-9.06V92.95h14.45c4.54,0,8.05,1.18,10.52,3.53c2.48,2.35,3.71,5.7,3.71,10.03
		c0,5.96-2.17,10.13-6.5,12.51l7.86,18.37v0.43h-9.74L261.53,121.43z M257.03,113.88h5.15c1.81,0,3.16-0.6,4.07-1.8
		c0.9-1.2,1.36-2.81,1.36-4.82c0-4.5-1.76-6.75-5.27-6.75h-5.3v13.37H257.03z"/>
	<path class="st1" d="M301.84,126.05c0-1.83-0.47-3.21-1.4-4.14c-0.94-0.93-2.63-1.91-5.1-2.91c-4.5-1.7-7.73-3.7-9.71-5.99
		c-1.97-2.29-2.96-5-2.96-8.12c0-3.78,1.34-6.82,4.02-9.11s6.09-3.44,10.21-3.44c2.75,0,5.21,0.58,7.36,1.74
		c2.16,1.16,3.82,2.8,4.98,4.92c1.16,2.12,1.74,4.52,1.74,7.21h-9.03c0-2.1-0.45-3.69-1.34-4.79c-0.89-1.1-2.18-1.65-3.87-1.65
		c-1.58,0-2.81,0.47-3.7,1.4c-0.88,0.94-1.32,2.19-1.32,3.78c0,1.23,0.49,2.35,1.48,3.34c0.99,1,2.73,2.03,5.24,3.1
		c4.38,1.58,7.55,3.52,9.54,5.82c1.98,2.3,2.97,5.23,2.97,8.78c0,3.9-1.24,6.95-3.73,9.15c-2.49,2.2-5.87,3.3-10.14,3.3
		c-2.9,0-5.54-0.6-7.92-1.79c-2.38-1.19-4.25-2.9-5.59-5.12c-1.35-2.22-2.02-4.84-2.02-7.86h9.09c0,2.59,0.5,4.47,1.51,5.64
		s2.65,1.76,4.93,1.76C300.25,131.07,301.84,129.4,301.84,126.05z"/>
	<path class="st1" d="M348.55,119.42c0,6.02-1.42,10.69-4.27,14.02c-2.85,3.33-6.79,4.99-11.85,4.99c-5.03,0-8.99-1.65-11.86-4.95
		c-2.88-3.3-4.33-7.91-4.38-13.85v-7.67c0-6.16,1.43-10.97,4.28-14.44c2.85-3.46,6.82-5.19,11.89-5.19c4.99,0,8.93,1.7,11.8,5.1
		c2.88,3.4,4.33,8.17,4.38,14.31L348.55,119.42L348.55,119.42z M339.46,111.91c0-4.05-0.58-7.06-1.73-9.03
		c-1.15-1.97-2.94-2.96-5.36-2.96c-2.4,0-4.18,0.95-5.33,2.85s-1.75,4.79-1.79,8.67v7.98c0,3.92,0.59,6.82,1.76,8.67
		s2.98,2.79,5.42,2.79c2.36,0,4.12-0.91,5.27-2.73c1.15-1.82,1.74-4.64,1.76-8.46L339.46,111.91L339.46,111.91z"/>
	<path class="st1" d="M374,126.05c0-1.83-0.47-3.21-1.4-4.14c-0.94-0.93-2.63-1.91-5.1-2.91c-4.5-1.7-7.73-3.7-9.71-5.99
		c-1.97-2.29-2.96-5-2.96-8.12c0-3.78,1.34-6.82,4.02-9.11s6.09-3.44,10.21-3.44c2.75,0,5.21,0.58,7.36,1.74
		c2.16,1.16,3.82,2.8,4.98,4.92c1.16,2.12,1.74,4.52,1.74,7.21h-9.03c0-2.1-0.45-3.69-1.34-4.79c-0.89-1.1-2.18-1.65-3.87-1.65
		c-1.58,0-2.81,0.47-3.7,1.4c-0.88,0.94-1.32,2.19-1.32,3.78c0,1.23,0.49,2.35,1.48,3.34c0.99,1,2.73,2.03,5.24,3.1
		c4.38,1.58,7.55,3.52,9.54,5.82c1.98,2.3,2.97,5.23,2.97,8.78c0,3.9-1.24,6.95-3.73,9.15c-2.49,2.2-5.87,3.3-10.14,3.3
		c-2.9,0-5.54-0.6-7.92-1.79c-2.38-1.19-4.25-2.9-5.59-5.12c-1.35-2.22-2.02-4.84-2.02-7.86h9.09c0,2.59,0.5,4.47,1.51,5.64
		s2.65,1.76,4.93,1.76C372.42,131.07,374,129.4,374,126.05z"/>
</g>
<g>
	<defs>
		<rect id="XMLID_00000140010859884729611400000011313225646691706291_" x="416" y="0.42" width="312.67" height="149.58"/>
	</defs>
	<clipPath id="XMLID_00000154427220284701755910000012590369563230259615_">
		<use xlink:href="#XMLID_00000140010859884729611400000011313225646691706291_"  style="overflow:visible;"/>
	</clipPath>
	<g style="clip-path:url(#XMLID_00000154427220284701755910000012590369563230259615_);">
		<path class="st0" d="M599.73,150.82C599.74,150.82,599.74,150.82,599.73,150.82l0.01-26.08h38.93h-12.93v26.08
			c57.91,0,111.5,0,124.4,0c59.55,0,58.24-92.6-25.64-82.82c2.16-76.62-111.7-114.63-150.42-41.08
			c-11.44-10-27.07-15.69-43.87-14.45c-22.44,1.66-40.83,21.19-48.87,39.49C416,53.39,399,157,481.18,150.82
			c24.38-0.1,55.82,0,92.56,0"/>
	</g>
</g>
<g>
	<path class="st3" d="M550.74,80.21l4.02,11.34l4-11.34h4.23v15.64h-3.23v-4.28l0.32-7.38l-4.22,11.66h-2.21l-4.21-11.64l0.32,7.37
		v4.28h-3.22V80.21H550.74z"/>
	<path class="st3" d="M580.63,88.39c0,1.54-0.27,2.89-0.82,4.05c-0.54,1.16-1.32,2.06-2.34,2.69c-1.01,0.63-2.18,0.95-3.49,0.95
		c-1.3,0-2.45-0.31-3.47-0.93c-1.02-0.62-1.8-1.51-2.36-2.67c-0.56-1.16-0.84-2.49-0.85-3.99V87.7c0-1.54,0.28-2.9,0.83-4.07
		s1.34-2.07,2.35-2.7c1.01-0.63,2.17-0.94,3.48-0.94c1.3,0,2.46,0.31,3.48,0.94c1.01,0.63,1.8,1.53,2.35,2.7s0.83,2.52,0.83,4.05
		v0.71H580.63z M577.37,87.68c0-1.64-0.29-2.89-0.88-3.74s-1.43-1.28-2.51-1.28s-1.92,0.42-2.5,1.26c-0.59,0.84-0.88,2.08-0.89,3.7
		v0.76c0,1.6,0.29,2.84,0.88,3.72c0.59,0.88,1.43,1.32,2.54,1.32c1.08,0,1.91-0.42,2.49-1.27s0.87-2.08,0.88-3.71L577.37,87.68
		L577.37,87.68z"/>
	<path class="st3" d="M597.8,88.39c0,1.54-0.27,2.89-0.82,4.05c-0.54,1.16-1.32,2.06-2.34,2.69c-1.01,0.63-2.18,0.95-3.49,0.95
		c-1.3,0-2.45-0.31-3.47-0.93c-1.02-0.62-1.8-1.51-2.36-2.67c-0.56-1.16-0.84-2.49-0.85-3.99V87.7c0-1.54,0.28-2.9,0.83-4.07
		s1.34-2.07,2.35-2.7c1.01-0.63,2.17-0.94,3.48-0.94c1.3,0,2.46,0.31,3.48,0.94c1.01,0.63,1.8,1.53,2.35,2.7s0.83,2.52,0.83,4.05
		v0.71H597.8z M594.54,87.68c0-1.64-0.29-2.89-0.88-3.74s-1.43-1.28-2.51-1.28s-1.92,0.42-2.5,1.26c-0.59,0.84-0.88,2.08-0.89,3.7
		v0.76c0,1.6,0.29,2.84,0.88,3.72c0.59,0.88,1.43,1.32,2.54,1.32c1.08,0,1.91-0.42,2.49-1.27s0.87-2.08,0.88-3.71L594.54,87.68
		L594.54,87.68z"/>
	<path class="st3" d="M602.12,95.85V80.21h4.81c1.38,0,2.6,0.31,3.69,0.93c1.08,0.62,1.93,1.5,2.54,2.64s0.91,2.44,0.91,3.89v0.72
		c0,1.45-0.3,2.75-0.9,3.88c-0.6,1.13-1.44,2.01-2.53,2.63c-1.09,0.62-2.32,0.94-3.68,0.95C606.96,95.85,602.12,95.85,602.12,95.85z
		 M605.35,82.82v10.44h1.56c1.26,0,2.22-0.41,2.89-1.24s1.01-2,1.02-3.53v-0.83c0-1.59-0.33-2.79-0.99-3.62
		c-0.66-0.82-1.62-1.23-2.89-1.23h-1.59V82.82z"/>
	<path class="st3" d="M621.62,93.26h6.84v2.59H618.4V80.21h3.22V93.26z"/>
	<path class="st3" d="M641.7,89.08h-6.19v4.19h7.26v2.59h-10.48V80.21h10.46v2.61h-7.24v3.73h6.19L641.7,89.08L641.7,89.08z"/>
	<path class="st3" d="M660.17,87.1h3.88v2.8h-3.88v4.38h-2.95V89.9h-3.89v-2.8h3.89v-4.2h2.95V87.1z"/>
	<path class="st3" d="M687.93,93.88c-0.58,0.69-1.4,1.23-2.46,1.62c-1.06,0.38-2.23,0.57-3.52,0.57c-1.35,0-2.54-0.29-3.56-0.89
		c-1.02-0.59-1.81-1.45-2.36-2.57c-0.56-1.12-0.84-2.45-0.85-3.96v-1.06c0-1.56,0.26-2.91,0.79-4.05c0.53-1.14,1.29-2.02,2.28-2.62
		c0.99-0.61,2.15-0.91,3.49-0.91c1.85,0,3.3,0.44,4.35,1.33c1.05,0.88,1.67,2.17,1.86,3.86h-3.14c-0.14-0.9-0.46-1.55-0.95-1.97
		s-1.17-0.62-2.02-0.62c-1.1,0-1.93,0.41-2.5,1.24c-0.57,0.82-0.86,2.05-0.87,3.67v1c0,1.64,0.31,2.88,0.93,3.72
		s1.54,1.26,2.74,1.26c1.21,0,2.07-0.26,2.59-0.77v-2.7h-2.93v-2.37h6.16v6.22H687.93z"/>
	<path class="st3" d="M705.37,88.39c0,1.54-0.27,2.89-0.82,4.05c-0.54,1.16-1.32,2.06-2.34,2.69c-1.01,0.63-2.18,0.95-3.49,0.95
		c-1.3,0-2.45-0.31-3.47-0.93c-1.02-0.62-1.8-1.51-2.36-2.67c-0.56-1.16-0.84-2.49-0.85-3.99V87.7c0-1.54,0.28-2.9,0.83-4.07
		s1.34-2.07,2.35-2.7c1.01-0.63,2.17-0.94,3.48-0.94c1.3,0,2.46,0.31,3.48,0.94c1.01,0.63,1.8,1.53,2.35,2.7s0.83,2.52,0.83,4.05
		v0.71H705.37z M702.1,87.68c0-1.64-0.29-2.89-0.88-3.74s-1.43-1.28-2.51-1.28s-1.92,0.42-2.5,1.26c-0.59,0.84-0.88,2.08-0.89,3.7
		v0.76c0,1.6,0.29,2.84,0.88,3.72c0.59,0.88,1.43,1.32,2.54,1.32c1.08,0,1.91-0.42,2.49-1.27s0.87-2.08,0.88-3.71L702.1,87.68
		L702.1,87.68z"/>
	<path class="st3" d="M722.54,88.39c0,1.54-0.27,2.89-0.82,4.05c-0.54,1.16-1.32,2.06-2.34,2.69c-1.01,0.63-2.18,0.95-3.49,0.95
		c-1.3,0-2.45-0.31-3.47-0.93c-1.02-0.62-1.8-1.51-2.36-2.67c-0.56-1.16-0.84-2.49-0.85-3.99V87.7c0-1.54,0.28-2.9,0.83-4.07
		s1.34-2.07,2.35-2.7c1.01-0.63,2.17-0.94,3.48-0.94c1.3,0,2.46,0.31,3.48,0.94c1.01,0.63,1.8,1.53,2.35,2.7s0.83,2.52,0.83,4.05
		v0.71H722.54z M719.27,87.68c0-1.64-0.29-2.89-0.88-3.74s-1.43-1.28-2.51-1.28s-1.92,0.42-2.5,1.26c-0.59,0.84-0.88,2.08-0.89,3.7
		v0.76c0,1.6,0.29,2.84,0.88,3.72c0.59,0.88,1.43,1.32,2.54,1.32c1.08,0,1.91-0.42,2.49-1.27s0.87-2.08,0.88-3.71L719.27,87.68
		L719.27,87.68z"/>
	<path class="st3" d="M739.23,93.88c-0.58,0.69-1.4,1.23-2.46,1.62c-1.06,0.38-2.23,0.57-3.52,0.57c-1.35,0-2.54-0.29-3.56-0.89
		c-1.02-0.59-1.81-1.45-2.36-2.57c-0.56-1.12-0.84-2.45-0.85-3.96v-1.06c0-1.56,0.26-2.91,0.79-4.05c0.53-1.14,1.29-2.02,2.28-2.62
		c0.99-0.61,2.15-0.91,3.49-0.91c1.85,0,3.3,0.44,4.35,1.33c1.05,0.88,1.67,2.17,1.86,3.86h-3.14c-0.14-0.9-0.46-1.55-0.95-1.97
		s-1.17-0.62-2.02-0.62c-1.1,0-1.93,0.41-2.5,1.24c-0.57,0.82-0.86,2.05-0.87,3.67v1c0,1.64,0.31,2.88,0.93,3.72
		s1.54,1.26,2.74,1.26c1.21,0,2.07-0.26,2.59-0.77v-2.7h-2.93v-2.37h6.16v6.22H739.23z"/>
	<path class="st3" d="M747.05,93.26h6.84v2.59h-10.07V80.21h3.22v13.05H747.05z"/>
	<path class="st3" d="M767.13,89.08h-6.19v4.19h7.26v2.59h-10.48V80.21h10.46v2.61h-7.24v3.73h6.19L767.13,89.08L767.13,89.08z"/>
	<path class="st3" d="M779.53,95.85V80.21h4.81c1.38,0,2.6,0.31,3.69,0.93c1.08,0.62,1.93,1.5,2.54,2.64s0.91,2.44,0.91,3.89v0.72
		c0,1.45-0.3,2.75-0.9,3.88c-0.6,1.13-1.44,2.01-2.53,2.63c-1.09,0.62-2.32,0.94-3.68,0.95C784.37,95.85,779.53,95.85,779.53,95.85z
		 M782.75,82.82v10.44h1.56c1.26,0,2.22-0.41,2.89-1.24s1.01-2,1.02-3.53v-0.83c0-1.59-0.33-2.79-0.99-3.62
		c-0.66-0.82-1.62-1.23-2.89-1.23h-1.59V82.82z"/>
	<path class="st3" d="M801.6,90.13h-2.57v5.73h-3.22V80.21h5.81c1.85,0,3.27,0.41,4.28,1.24c1,0.82,1.5,1.99,1.5,3.49
		c0,1.07-0.23,1.96-0.69,2.67s-1.16,1.28-2.1,1.7l3.38,6.39v0.15h-3.46L801.6,90.13z M799.03,87.52h2.6c0.81,0,1.44-0.21,1.88-0.62
		s0.67-0.98,0.67-1.7c0-0.74-0.21-1.32-0.63-1.74s-1.06-0.63-1.93-0.63h-2.59L799.03,87.52L799.03,87.52z"/>
	<path class="st3" d="M815.26,95.85h-3.22V80.21h3.22V95.85z"/>
	<path class="st3" d="M826,91.98l3.54-11.76h3.59l-5.45,15.64h-3.36l-5.42-15.64h3.58L826,91.98z"/>
	<path class="st3" d="M846,89.08h-6.19v4.19h7.26v2.59h-10.48V80.21h10.46v2.61h-7.24v3.73H846V89.08z"/>
	<path class="st3" d="M552.59,111.25h3.88v2.8h-3.88v4.38h-2.95v-4.38h-3.89v-2.8h3.89v-4.2h2.95V111.25z"/>
	<path class="st3" d="M580.83,112.54c0,1.54-0.27,2.89-0.82,4.05c-0.54,1.16-1.32,2.06-2.34,2.69c-1.01,0.63-2.18,0.95-3.49,0.95
		c-1.3,0-2.45-0.31-3.47-0.93c-1.02-0.62-1.8-1.51-2.36-2.67c-0.56-1.16-0.84-2.49-0.85-3.99v-0.77c0-1.54,0.28-2.9,0.83-4.07
		s1.34-2.07,2.35-2.7c1.01-0.63,2.17-0.94,3.48-0.94c1.3,0,2.46,0.31,3.48,0.94c1.01,0.63,1.8,1.53,2.35,2.7s0.83,2.52,0.83,4.05
		v0.69H580.83z M577.56,111.83c0-1.64-0.29-2.89-0.88-3.74s-1.43-1.28-2.51-1.28s-1.92,0.42-2.5,1.26c-0.59,0.84-0.88,2.08-0.89,3.7
		v0.76c0,1.6,0.29,2.84,0.88,3.72c0.59,0.88,1.43,1.32,2.54,1.32c1.08,0,1.91-0.42,2.49-1.27s0.87-2.08,0.88-3.71L577.56,111.83
		L577.56,111.83z"/>
	<path class="st3" d="M597.87,120h-3.22l-6.27-10.29V120h-3.22v-15.64h3.22l6.28,10.31v-10.31h3.21L597.87,120L597.87,120z"/>
	<path class="st3" d="M612.07,113.23h-6.19v4.19h7.26V120h-10.48v-15.64h10.46v2.61h-7.24v3.73h6.19L612.07,113.23L612.07,113.23z"
		/>
	<path class="st3" d="M617.02,120v-15.64h4.81c1.38,0,2.6,0.31,3.69,0.93c1.08,0.62,1.93,1.5,2.54,2.64s0.91,2.44,0.91,3.89v0.72
		c0,1.45-0.3,2.75-0.9,3.88c-0.6,1.13-1.44,2.01-2.53,2.63c-1.09,0.62-2.32,0.94-3.68,0.95C621.86,120,617.02,120,617.02,120z
		 M620.24,106.97v10.44h1.56c1.26,0,2.22-0.41,2.89-1.24s1.01-2,1.02-3.53v-0.83c0-1.59-0.33-2.79-0.99-3.62
		c-0.66-0.82-1.62-1.23-2.89-1.23h-1.59V106.97z"/>
	<path class="st3" d="M639.09,114.28h-2.57V120h-3.22v-15.64h5.81c1.85,0,3.27,0.41,4.28,1.24c1,0.82,1.5,1.99,1.5,3.49
		c0,1.07-0.23,1.96-0.69,2.67s-1.16,1.28-2.1,1.7l3.38,6.39V120h-3.46L639.09,114.28z M636.52,111.67h2.6
		c0.81,0,1.44-0.21,1.88-0.62s0.67-0.98,0.67-1.7c0-0.74-0.21-1.32-0.63-1.74s-1.06-0.63-1.93-0.63h-2.59L636.52,111.67
		L636.52,111.67z"/>
	<path class="st3" d="M652.74,120h-3.22v-15.64h3.22V120z"/>
	<path class="st3" d="M663.49,116.13l3.54-11.76h3.59L665.18,120h-3.36l-5.42-15.64h3.58L663.49,116.13z"/>
	<path class="st3" d="M683.48,113.23h-6.19v4.19h7.26V120h-10.48v-15.64h10.46v2.61h-7.24v3.73h6.19L683.48,113.23L683.48,113.23z"
		/>
</g>
<g>
	<path class="st4" d="M544.82,59.25c0-2.43,0.58-4.39,1.73-5.87c1.15-1.48,2.66-2.22,4.53-2.22c1.86,0,3.33,0.63,4.41,1.9V44.8h2.71
		v22.5h-2.49l-0.13-1.7c-1.08,1.33-2.59,1.99-4.53,1.99c-1.84,0-3.33-0.75-4.49-2.26c-1.16-1.5-1.74-3.47-1.74-5.89V59.25z
		 M547.53,59.56c0,1.8,0.37,3.2,1.11,4.22s1.77,1.52,3.08,1.52c1.72,0,2.97-0.77,3.76-2.31v-7.28c-0.81-1.49-2.06-2.24-3.74-2.24
		c-1.33,0-2.36,0.51-3.11,1.54S547.53,57.55,547.53,59.56z"/>
	<path class="st4" d="M562.11,47.25c0-0.44,0.13-0.81,0.4-1.11s0.67-0.45,1.19-0.45s0.93,0.15,1.2,0.45s0.41,0.67,0.41,1.11
		s-0.14,0.81-0.41,1.1s-0.67,0.44-1.2,0.44s-0.93-0.15-1.19-0.44S562.11,47.69,562.11,47.25z M565.04,67.31h-2.71V51.46h2.71V67.31z
		"/>
	<path class="st4" d="M568.42,59.25c0-2.43,0.58-4.39,1.73-5.87c1.15-1.48,2.66-2.22,4.53-2.22c1.86,0,3.33,0.63,4.41,1.9V44.8h2.71
		v22.5h-2.49l-0.13-1.7c-1.08,1.33-2.59,1.99-4.53,1.99c-1.84,0-3.33-0.75-4.49-2.26c-1.16-1.5-1.74-3.47-1.74-5.89V59.25z
		 M571.13,59.56c0,1.8,0.37,3.2,1.11,4.22s1.77,1.52,3.08,1.52c1.72,0,2.97-0.77,3.76-2.31v-7.28c-0.81-1.49-2.06-2.24-3.74-2.24
		c-1.33,0-2.36,0.51-3.11,1.54S571.13,57.55,571.13,59.56z"/>
	<path class="st4" d="M595.48,67.31c-0.16-0.31-0.28-0.87-0.38-1.67c-1.26,1.31-2.76,1.96-4.51,1.96c-1.56,0-2.84-0.44-3.85-1.33
		c-1-0.88-1.5-2-1.5-3.36c0-1.65,0.63-2.93,1.88-3.85c1.25-0.91,3.02-1.37,5.3-1.37h2.64v-1.25c0-0.95-0.28-1.7-0.85-2.26
		s-1.4-0.84-2.5-0.84c-0.97,0-1.78,0.24-2.43,0.73s-0.98,1.08-0.98,1.77h-2.72c0-0.79,0.28-1.55,0.84-2.29s1.32-1.32,2.29-1.75
		s2.02-0.64,3.17-0.64c1.83,0,3.26,0.46,4.29,1.37c1.04,0.91,1.57,2.17,1.61,3.77v7.29c0,1.46,0.19,2.61,0.56,3.47v0.23h-2.86V67.31
		z M590.98,65.24c0.85,0,1.66-0.22,2.42-0.66s1.31-1.01,1.66-1.71v-3.25h-2.12c-3.32,0-4.98,0.97-4.98,2.92
		c0,0.85,0.28,1.51,0.85,1.99S590.09,65.24,590.98,65.24z M593.49,44.81h3.28l-3.93,4.31l-2.18-0.01L593.49,44.81z"/>
	<path class="st4" d="M608.07,65.39c0.97,0,1.81-0.29,2.53-0.88c0.72-0.59,1.12-1.32,1.2-2.2h2.56c-0.05,0.91-0.36,1.77-0.94,2.59
		s-1.35,1.47-2.31,1.96s-1.98,0.73-3.05,0.73c-2.16,0-3.87-0.72-5.15-2.16c-1.27-1.44-1.91-3.41-1.91-5.91v-0.45
		c0-1.54,0.28-2.92,0.85-4.12s1.38-2.13,2.44-2.8s2.31-1,3.76-1c1.78,0,3.25,0.53,4.43,1.6s1.8,2.45,1.88,4.15h-2.56
		c-0.08-1.03-0.47-1.87-1.16-2.53c-0.7-0.66-1.56-0.99-2.59-0.99c-1.38,0-2.44,0.5-3.2,1.49s-1.14,2.42-1.14,4.3v0.51
		c0,1.83,0.38,3.23,1.13,4.22C605.6,64.89,606.67,65.39,608.07,65.39z"/>
	<path class="st4" d="M620.79,47.62v3.84h2.96v2.09h-2.96v9.84c0,0.64,0.13,1.11,0.4,1.43s0.71,0.48,1.35,0.48
		c0.31,0,0.74-0.06,1.29-0.18v2.18c-0.71,0.19-1.41,0.29-2.08,0.29c-1.21,0-2.12-0.37-2.74-1.1s-0.92-1.77-0.92-3.12v-9.83h-2.89
		v-2.09h2.89v-3.84L620.79,47.62L620.79,47.62z"/>
	<path class="st4" d="M626.63,47.25c0-0.44,0.13-0.81,0.4-1.11s0.67-0.45,1.19-0.45s0.93,0.15,1.2,0.45s0.41,0.67,0.41,1.11
		s-0.14,0.81-0.41,1.1s-0.67,0.44-1.2,0.44s-0.93-0.15-1.19-0.44S626.63,47.69,626.63,47.25z M629.56,67.31h-2.71V51.46h2.71V67.31z
		"/>
	<path class="st4" d="M639.95,65.39c0.97,0,1.81-0.29,2.53-0.88c0.72-0.59,1.12-1.32,1.2-2.2h2.56c-0.05,0.91-0.36,1.77-0.94,2.59
		s-1.35,1.47-2.31,1.96s-1.98,0.73-3.05,0.73c-2.16,0-3.87-0.72-5.15-2.16c-1.27-1.44-1.91-3.41-1.91-5.91v-0.45
		c0-1.54,0.28-2.92,0.85-4.12s1.38-2.13,2.44-2.8s2.31-1,3.76-1c1.78,0,3.25,0.53,4.43,1.6s1.8,2.45,1.88,4.15h-2.56
		c-0.08-1.03-0.47-1.87-1.16-2.53c-0.7-0.66-1.56-0.99-2.59-0.99c-1.38,0-2.44,0.5-3.2,1.49s-1.14,2.42-1.14,4.3v0.51
		c0,1.83,0.38,3.23,1.13,4.22C637.48,64.89,638.56,65.39,639.95,65.39z"/>
	<path class="st4" d="M648.28,59.24c0-1.55,0.31-2.95,0.92-4.19s1.46-2.2,2.55-2.87s2.33-1.01,3.73-1.01c2.16,0,3.9,0.75,5.24,2.24
		s2,3.48,2,5.96v0.19c0,1.54-0.3,2.93-0.89,4.15c-0.59,1.23-1.44,2.18-2.53,2.86s-2.36,1.03-3.79,1.03c-2.15,0-3.89-0.75-5.22-2.24
		c-1.33-1.49-2-3.47-2-5.93L648.28,59.24L648.28,59.24z M651.01,59.56c0,1.76,0.41,3.17,1.22,4.23c0.82,1.06,1.91,1.6,3.27,1.6
		c1.38,0,2.47-0.54,3.28-1.62c0.81-1.08,1.22-2.59,1.22-4.53c0-1.74-0.41-3.15-1.24-4.23s-1.92-1.62-3.29-1.62
		c-1.34,0-2.42,0.53-3.24,1.6S651.01,57.58,651.01,59.56z"/>
	<path class="st4" d="M675.04,63.1c0-0.73-0.28-1.3-0.83-1.71s-1.51-0.75-2.89-1.05s-2.46-0.64-3.27-1.05s-1.4-0.9-1.79-1.46
		s-0.58-1.24-0.58-2.02c0-1.3,0.55-2.4,1.65-3.3s2.5-1.35,4.21-1.35c1.8,0,3.25,0.46,4.37,1.39s1.68,2.11,1.68,3.56h-2.72
		c0-0.74-0.31-1.38-0.94-1.92s-1.42-0.81-2.38-0.81c-0.99,0-1.76,0.21-2.31,0.64s-0.83,0.99-0.83,1.68c0,0.65,0.26,1.15,0.78,1.48
		s1.45,0.65,2.81,0.95s2.45,0.66,3.29,1.08s1.46,0.93,1.87,1.52s0.61,1.31,0.61,2.16c0,1.42-0.57,2.55-1.7,3.41s-2.6,1.28-4.41,1.28
		c-1.27,0-2.39-0.22-3.37-0.67s-1.74-1.08-2.29-1.88c-0.55-0.8-0.83-1.68-0.83-2.61h2.71c0.05,0.91,0.41,1.63,1.09,2.16
		s1.57,0.8,2.69,0.8c1.03,0,1.85-0.21,2.47-0.62S675.04,63.8,675.04,63.1z"/>
	<path class="st4" d="M694.68,67.6c-2.15,0-3.9-0.71-5.24-2.12c-1.35-1.41-2.02-3.3-2.02-5.66v-0.5c0-1.57,0.3-2.98,0.9-4.21
		c0.6-1.23,1.44-2.2,2.52-2.9s2.25-1.05,3.51-1.05c2.06,0,3.66,0.68,4.8,2.04s1.71,3.3,1.71,5.83v1.13h-10.74
		c0.04,1.56,0.5,2.83,1.37,3.79s1.98,1.44,3.33,1.44c0.96,0,1.77-0.2,2.43-0.59s1.25-0.91,1.74-1.55l1.66,1.29
		C699.33,66.58,697.34,67.6,694.68,67.6z M694.35,53.39c-1.09,0-2.01,0.4-2.75,1.19c-0.74,0.8-1.2,1.91-1.38,3.35h7.94v-0.21
		c-0.08-1.38-0.45-2.44-1.11-3.2C696.38,53.77,695.48,53.39,694.35,53.39z"/>
	<path class="st4" d="M706.26,51.46l0.09,1.99c1.21-1.52,2.79-2.29,4.75-2.29c3.35,0,5.04,1.89,5.07,5.67V67.3h-2.71V56.82
		c-0.01-1.14-0.27-1.99-0.78-2.53s-1.31-0.82-2.4-0.82c-0.88,0-1.65,0.23-2.31,0.7s-1.18,1.08-1.55,1.85v11.29h-2.71V51.46H706.26z"
		/>
	<path class="st4" d="M730.02,67.31h-2.71v-22.5h2.71V67.31z"/>
	<path class="st4" d="M737.03,44.82h3.28l-3.93,4.31l-2.18-0.01L737.03,44.82z M737,67.31h-2.72V51.46H737V67.31z"/>
	<path class="st4" d="M743.73,51.46l0.09,1.99c1.21-1.52,2.79-2.29,4.75-2.29c3.35,0,5.04,1.89,5.07,5.67V67.3h-2.71V56.82
		c-0.01-1.14-0.27-1.99-0.78-2.53s-1.31-0.82-2.4-0.82c-0.88,0-1.65,0.23-2.31,0.7s-1.18,1.08-1.55,1.85v11.29h-2.71V51.46H743.73z"
		/>
	<path class="st4" d="M764,67.6c-2.15,0-3.9-0.71-5.24-2.12c-1.35-1.41-2.02-3.3-2.02-5.66v-0.5c0-1.57,0.3-2.98,0.9-4.21
		c0.6-1.23,1.44-2.2,2.52-2.9s2.25-1.05,3.51-1.05c2.06,0,3.66,0.68,4.8,2.04s1.71,3.3,1.71,5.83v1.13h-10.74
		c0.04,1.56,0.5,2.83,1.37,3.79s1.98,1.44,3.33,1.44c0.96,0,1.77-0.2,2.43-0.59s1.25-0.91,1.74-1.55l1.66,1.29
		C768.65,66.58,766.66,67.6,764,67.6z M763.66,53.39c-1.09,0-2.01,0.4-2.75,1.19c-0.74,0.8-1.2,1.91-1.38,3.35h7.94v-0.21
		c-0.08-1.38-0.45-2.44-1.11-3.2C765.69,53.77,764.8,53.39,763.66,53.39z"/>
	<path class="st4" d="M782.8,67.31c-0.16-0.31-0.28-0.87-0.38-1.67c-1.26,1.31-2.76,1.96-4.51,1.96c-1.56,0-2.84-0.44-3.85-1.33
		c-1-0.88-1.5-2-1.5-3.36c0-1.65,0.63-2.93,1.88-3.85c1.25-0.91,3.02-1.37,5.3-1.37h2.64v-1.25c0-0.95-0.28-1.7-0.85-2.26
		s-1.4-0.84-2.5-0.84c-0.97,0-1.78,0.24-2.43,0.73s-0.98,1.08-0.98,1.77h-2.72c0-0.79,0.28-1.55,0.84-2.29s1.32-1.32,2.29-1.75
		s2.02-0.64,3.17-0.64c1.83,0,3.26,0.46,4.29,1.37c1.04,0.91,1.57,2.17,1.61,3.77v7.29c0,1.46,0.19,2.61,0.56,3.47v0.23h-2.86V67.31
		z M778.3,65.24c0.85,0,1.66-0.22,2.42-0.66s1.31-1.01,1.66-1.71v-3.25h-2.12c-3.32,0-4.98,0.97-4.98,2.92
		c0,0.85,0.28,1.51,0.85,1.99S777.42,65.24,778.3,65.24z"/>
</g>
</svg>
