<?xml version="1.0" encoding="utf-8"?>
<!-- Generator: Adobe Illustrator 25.4.1, SVG Export Plug-In . SVG Version: 6.00 Build 0)  -->
<svg version="1.1" id="Capa_1" xmlns="http://www.w3.org/2000/svg" xmlns:xlink="http://www.w3.org/1999/xlink" x="0px" y="0px"
	 viewBox="0 0 600 200" style="enable-background:new 0 0 600 200;" xml:space="preserve">
<style type="text/css">
	.st0{fill:#A0BEE0;}
	.st1{fill:none;}
	.st2{fill:#D9A926;}
	.st3{fill:#DC5429;}
	.st4{fill:#333434;}
	.st5{clip-path:url(#XMLID_00000011014774491239012280000007839460756716606133_);}
	.st6{fill:#B0CEE9;}
	.st7{opacity:0.25;clip-path:url(#XMLID_00000011014774491239012280000007839460756716606133_);}
	.st8{fill:#FFFFFF;}
</style>
<g>
	<path class="st0" d="M617.98,165.38"/>
</g>
<g>
	<line class="st1" x1="564.89" y1="200.94" x2="564.9" y2="200.94"/>
</g>
<g>
	<path class="st2" d="M59.23,58.71c-0.24,5.38-1.75,9.46-4.54,12.22c-2.79,2.77-6.72,4.15-11.8,4.15c-5.34,0-9.43-1.76-12.27-5.27
		s-4.26-8.52-4.26-15.02v-7.94c0-6.48,1.47-11.48,4.41-14.99s7.02-5.27,12.25-5.27c5.14,0,9.05,1.44,11.72,4.31s4.19,7,4.55,12.38
		h-9.56c-0.09-3.33-0.6-5.62-1.54-6.89c-0.94-1.26-2.66-1.9-5.17-1.9c-2.55,0-4.36,0.89-5.41,2.67c-1.06,1.78-1.62,4.72-1.69,8.8
		v8.91c0,4.69,0.52,7.91,1.57,9.66c1.05,1.75,2.85,2.63,5.4,2.63c2.51,0,4.24-0.61,5.19-1.83s1.49-3.43,1.62-6.63h9.53V58.71z"/>
	<path class="st2" d="M80.05,57.19h-4.73v17.25h-9.53v-47.2h15.2c4.78,0,8.47,1.24,11.07,3.71c2.6,2.48,3.91,5.99,3.91,10.55
		c0,6.27-2.28,10.65-6.84,13.16l8.27,19.32v0.45H87.15L80.05,57.19z M75.32,49.24h5.41c1.9,0,3.33-0.63,4.28-1.9
		c0.95-1.26,1.43-2.96,1.43-5.07c0-4.73-1.85-7.1-5.54-7.1h-5.58C75.32,35.17,75.32,49.24,75.32,49.24z"/>
	<path class="st2" d="M127.56,54.01h-14.85v12.51h17.57v7.91h-27.1v-47.2h27.04v7.94h-17.5v11.15h14.85v7.69H127.56z"/>
	<path class="st2" d="M158.95,64.77h-13l-2.53,9.66h-10.08l14.75-47.2h8.72l14.85,47.2h-10.18L158.95,64.77z M148.03,56.83h8.82
		L152.44,40L148.03,56.83z"/>
	<path class="st2" d="M208.04,58.71c-0.24,5.38-1.75,9.46-4.54,12.22c-2.79,2.77-6.72,4.15-11.8,4.15c-5.34,0-9.43-1.76-12.27-5.27
		c-2.84-3.51-4.26-8.52-4.26-15.02v-7.94c0-6.48,1.47-11.48,4.41-14.99s7.02-5.27,12.25-5.27c5.14,0,9.05,1.44,11.72,4.31
		s4.19,7,4.55,12.38h-9.56c-0.09-3.33-0.6-5.62-1.54-6.89c-0.94-1.26-2.66-1.9-5.17-1.9c-2.55,0-4.35,0.89-5.41,2.67
		s-1.62,4.72-1.69,8.8v8.91c0,4.69,0.52,7.91,1.57,9.66c1.05,1.75,2.85,2.63,5.4,2.63c2.51,0,4.24-0.61,5.19-1.83
		s1.49-3.43,1.62-6.63h9.53V58.71z"/>
	<path class="st2" d="M224.53,74.43H215v-47.2h9.53V74.43z"/>
	<path class="st2" d="M266.42,55.08c0,6.33-1.5,11.25-4.49,14.75s-7.15,5.25-12.46,5.25c-5.29,0-9.46-1.73-12.48-5.2
		c-3.03-3.47-4.56-8.33-4.6-14.57v-8.07c0-6.48,1.5-11.54,4.51-15.19c3-3.64,7.17-5.46,12.51-5.46c5.25,0,9.39,1.79,12.42,5.36
		c3.03,3.58,4.56,8.6,4.6,15.06v8.07H266.42z M256.86,47.17c0-4.26-0.61-7.42-1.82-9.5c-1.21-2.07-3.09-3.11-5.64-3.11
		c-2.53,0-4.4,1-5.61,3s-1.84,5.04-1.88,9.12v8.4c0,4.13,0.62,7.17,1.85,9.12c1.23,1.96,3.13,2.93,5.71,2.93
		c2.48,0,4.33-0.96,5.54-2.87c1.21-1.91,1.83-4.88,1.85-8.9V47.17z M251.29,14.59h10.31l-9.01,10.05h-7.65L251.29,14.59z"/>
	<path class="st2" d="M306.93,74.43h-9.53l-13.94-30.96v30.96h-9.53v-47.2h9.53l13.97,30.99V27.23h9.5V74.43z"/>
	<path class="st2" d="M26.32,120.83V84.94h9.49c4.19,0,7.53,1.33,10.02,3.99c2.49,2.66,3.76,6.31,3.81,10.95v5.82
		c0,4.72-1.24,8.42-3.73,11.11c-2.49,2.69-5.92,4.03-10.29,4.03L26.32,120.83L26.32,120.83z M33.57,90.98v23.84h2.17
		c2.42,0,4.12-0.64,5.1-1.91c0.99-1.27,1.5-3.47,1.55-6.59v-6.24c0-3.35-0.47-5.69-1.41-7.01s-2.53-2.02-4.78-2.08h-2.63V90.98z"/>
	<path class="st2" d="M73.38,105.3H62.09v9.52h13.36v6.01H54.84V84.94H75.4v6.04H62.09v8.48h11.29V105.3z"/>
	<path class="st2" d="M102.13,107.72h-3.6v13.11h-7.25V84.94h11.56c3.63,0,6.44,0.94,8.42,2.82c1.98,1.88,2.97,4.56,2.97,8.02
		c0,4.77-1.73,8.1-5.2,10.01l6.29,14.69v0.34h-7.79L102.13,107.72z M98.53,101.68h4.12c1.45,0,2.53-0.48,3.25-1.44
		s1.08-2.25,1.08-3.86c0-3.6-1.41-5.4-4.22-5.4h-4.24L98.53,101.68L98.53,101.68z"/>
	<path class="st2" d="M137.75,105.3h-11.29v9.52h13.36v6.01h-20.61V84.94h20.56v6.04h-13.31v8.48h11.29L137.75,105.3L137.75,105.3z"
		/>
	<path class="st2" d="M168.32,108.88c-0.18,4.09-1.33,7.19-3.45,9.29s-5.11,3.16-8.97,3.16c-4.06,0-7.17-1.33-9.33-4.01
		s-3.24-6.48-3.24-11.43v-6.04c0-4.93,1.12-8.73,3.35-11.4c2.23-2.67,5.34-4.01,9.32-4.01c3.91,0,6.88,1.09,8.91,3.28
		s3.18,5.33,3.46,9.42h-7.27c-0.07-2.53-0.46-4.28-1.17-5.24c-0.71-0.96-2.03-1.44-3.93-1.44c-1.94,0-3.31,0.68-4.12,2.03
		c-0.81,1.36-1.23,3.59-1.28,6.69v6.78c0,3.57,0.4,6.02,1.2,7.35s2.17,2,4.1,2c1.91,0,3.22-0.46,3.94-1.39s1.13-2.61,1.23-5.04
		C161.07,108.88,168.32,108.88,168.32,108.88z"/>
	<path class="st2" d="M196.12,84.94v24.85c-0.03,3.73-1.06,6.59-3.08,8.57s-4.92,2.97-8.7,2.97c-3.85,0-6.78-1-8.81-3.01
		c-2.03-2-3.04-4.91-3.04-8.7V84.94h7.3v24.7c0,2.04,0.33,3.49,0.99,4.36s1.85,1.31,3.57,1.31s2.91-0.43,3.55-1.29
		s0.97-2.28,0.99-4.25V84.94H196.12z"/>
	<path class="st2" d="M212.49,107.72h-3.6v13.11h-7.25V84.94h11.56c3.63,0,6.44,0.94,8.42,2.82s2.97,4.56,2.97,8.02
		c0,4.77-1.73,8.1-5.2,10.01l6.29,14.69v0.34h-7.79L212.49,107.72z M208.89,101.68h4.12c1.45,0,2.53-0.48,3.25-1.44
		s1.08-2.25,1.08-3.86c0-3.6-1.4-5.4-4.21-5.4h-4.24L208.89,101.68L208.89,101.68z"/>
	<path class="st2" d="M244.74,111.41c0-1.46-0.37-2.57-1.12-3.32s-2.11-1.52-4.08-2.33c-3.6-1.36-6.19-2.96-7.77-4.79
		s-2.37-4-2.37-6.5c0-3.02,1.07-5.45,3.22-7.28c2.14-1.83,4.87-2.75,8.17-2.75c2.2,0,4.17,0.46,5.89,1.39
		c1.73,0.93,3.05,2.24,3.98,3.93s1.39,3.62,1.39,5.77h-7.22c0-1.68-0.36-2.95-1.07-3.83c-0.71-0.88-1.75-1.32-3.09-1.32
		c-1.27,0-2.25,0.37-2.96,1.12s-1.06,1.75-1.06,3.02c0,0.99,0.39,1.88,1.18,2.67c0.79,0.8,2.19,1.62,4.19,2.48
		c3.5,1.27,6.04,2.82,7.63,4.66c1.59,1.84,2.38,4.18,2.38,7.03c0,3.12-0.99,5.56-2.98,7.32c-1.99,1.76-4.69,2.64-8.11,2.64
		c-2.32,0-4.43-0.48-6.34-1.43s-3.4-2.32-4.47-4.09c-1.08-1.77-1.62-3.87-1.62-6.29h7.27c0,2.07,0.4,3.58,1.21,4.51
		c0.8,0.94,2.12,1.41,3.94,1.41C243.47,115.43,244.74,114.09,244.74,111.41z"/>
	<path class="st2" d="M282.11,106.11c0,4.82-1.14,8.55-3.41,11.22c-2.28,2.66-5.44,3.99-9.48,3.99c-4.03,0-7.19-1.32-9.49-3.96
		s-3.47-6.33-3.5-11.08v-6.14c0-4.93,1.14-8.78,3.43-11.55c2.28-2.77,5.46-4.15,9.52-4.15c3.99,0,7.14,1.36,9.44,4.08
		s3.47,6.54,3.5,11.45L282.11,106.11L282.11,106.11z M274.83,100.1c0-3.24-0.46-5.64-1.38-7.22s-2.35-2.37-4.29-2.37
		c-1.92,0-3.34,0.76-4.26,2.28s-1.4,3.83-1.43,6.94v6.38c0,3.14,0.47,5.45,1.41,6.94s2.38,2.23,4.34,2.23
		c1.89,0,3.29-0.73,4.21-2.18c0.92-1.45,1.39-3.71,1.41-6.77L274.83,100.1L274.83,100.1z"/>
	<path class="st2" d="M302.47,111.41c0-1.46-0.37-2.57-1.12-3.32s-2.11-1.52-4.08-2.33c-3.6-1.36-6.19-2.96-7.77-4.79
		s-2.37-4-2.37-6.5c0-3.02,1.07-5.45,3.22-7.28c2.14-1.83,4.87-2.75,8.17-2.75c2.2,0,4.17,0.46,5.89,1.39
		c1.73,0.93,3.05,2.24,3.98,3.93c0.93,1.69,1.39,3.62,1.39,5.77h-7.22c0-1.68-0.36-2.95-1.07-3.83c-0.71-0.88-1.75-1.32-3.09-1.32
		c-1.27,0-2.25,0.37-2.96,1.12s-1.06,1.75-1.06,3.02c0,0.99,0.39,1.88,1.18,2.67c0.79,0.8,2.19,1.62,4.19,2.48
		c3.5,1.27,6.04,2.82,7.63,4.66c1.59,1.84,2.38,4.18,2.38,7.03c0,3.12-0.99,5.56-2.98,7.32c-1.99,1.76-4.69,2.64-8.11,2.64
		c-2.32,0-4.43-0.48-6.34-1.43s-3.4-2.32-4.47-4.09c-1.08-1.77-1.62-3.87-1.62-6.29h7.27c0,2.07,0.4,3.58,1.21,4.51
		c0.8,0.94,2.12,1.41,3.94,1.41C301.2,115.43,302.47,114.09,302.47,111.41z"/>
</g>
<g>
	<path class="st3" d="M27.42,164.34l2.92,8.25l2.91-8.25h3.08v11.38h-2.35v-3.11l0.23-5.37l-3.07,8.48h-1.61l-3.06-8.47l0.23,5.36
		v3.11h-2.34v-11.38H27.42z"/>
	<path class="st3" d="M47.72,170.29c0,1.12-0.2,2.1-0.59,2.95c-0.4,0.84-0.96,1.5-1.7,1.95c-0.74,0.46-1.58,0.69-2.54,0.69
		c-0.94,0-1.78-0.23-2.52-0.68s-1.31-1.1-1.72-1.94s-0.61-1.81-0.62-2.9v-0.56c0-1.12,0.2-2.11,0.61-2.96
		c0.4-0.85,0.97-1.5,1.71-1.96c0.74-0.46,1.58-0.68,2.53-0.68c0.95,0,1.79,0.23,2.53,0.68c0.74,0.46,1.31,1.11,1.71,1.96
		c0.4,0.85,0.61,1.83,0.61,2.95L47.72,170.29L47.72,170.29z M45.34,169.77c0-1.19-0.21-2.1-0.64-2.72s-1.04-0.93-1.83-0.93
		s-1.39,0.31-1.82,0.92s-0.64,1.51-0.65,2.69v0.55c0,1.16,0.21,2.06,0.64,2.7s1.04,0.96,1.84,0.96c0.79,0,1.39-0.31,1.81-0.93
		s0.63-1.52,0.64-2.7v-0.54H45.34z"/>
	<path class="st3" d="M58.77,170.29c0,1.12-0.2,2.1-0.59,2.95c-0.4,0.84-0.96,1.5-1.7,1.95c-0.74,0.46-1.58,0.69-2.54,0.69
		c-0.94,0-1.78-0.23-2.52-0.68s-1.31-1.1-1.72-1.94s-0.61-1.81-0.62-2.9v-0.56c0-1.12,0.2-2.11,0.61-2.96
		c0.4-0.85,0.97-1.5,1.71-1.96c0.74-0.46,1.58-0.68,2.53-0.68c0.95,0,1.79,0.23,2.53,0.68c0.74,0.46,1.31,1.11,1.71,1.96
		c0.4,0.85,0.61,1.83,0.61,2.95L58.77,170.29L58.77,170.29z M56.39,169.77c0-1.19-0.21-2.1-0.64-2.72s-1.04-0.93-1.83-0.93
		s-1.39,0.31-1.82,0.92s-0.64,1.51-0.65,2.69v0.55c0,1.16,0.21,2.06,0.64,2.7s1.04,0.96,1.84,0.96c0.79,0,1.39-0.31,1.81-0.93
		s0.63-1.52,0.64-2.7v-0.54H56.39z"/>
	<path class="st3" d="M60.47,175.72v-11.38h3.5c1,0,1.89,0.23,2.68,0.68s1.4,1.09,1.85,1.92c0.44,0.83,0.66,1.77,0.66,2.83v0.52
		c0,1.06-0.22,2-0.65,2.82c-0.44,0.82-1.05,1.46-1.84,1.91c-0.79,0.45-1.69,0.68-2.68,0.69L60.47,175.72L60.47,175.72z
		 M62.81,166.24v7.59h1.13c0.92,0,1.62-0.3,2.1-0.9s0.73-1.46,0.74-2.57v-0.6c0-1.16-0.24-2.03-0.72-2.63s-1.18-0.89-2.1-0.89
		L62.81,166.24L62.81,166.24z"/>
	<path class="st3" d="M73.21,173.84h4.98v1.88h-7.32v-11.38h2.34V173.84z"/>
	<path class="st3" d="M86.38,170.79h-4.5v3.05h5.28v1.88h-7.62v-11.38h7.61v1.9h-5.27v2.71h4.5V170.79z"/>
	<path class="st3" d="M96.92,169.35h2.82v2.04h-2.82v3.19h-2.15v-3.19h-2.83v-2.04h2.83v-3.05h2.15V169.35z"/>
	<path class="st3" d="M114.23,174.28c-0.42,0.5-1.02,0.9-1.79,1.18c-0.77,0.28-1.62,0.42-2.56,0.42c-0.98,0-1.85-0.21-2.59-0.64
		s-1.32-1.05-1.72-1.87c-0.4-0.82-0.61-1.78-0.62-2.88v-0.77c0-1.14,0.19-2.12,0.57-2.95s0.93-1.47,1.66-1.91
		c0.72-0.44,1.57-0.66,2.54-0.66c1.35,0,2.4,0.32,3.16,0.96s1.21,1.58,1.35,2.81h-2.28c-0.1-0.65-0.33-1.13-0.69-1.43
		c-0.36-0.3-0.85-0.45-1.47-0.45c-0.8,0-1.4,0.3-1.82,0.9c-0.42,0.6-0.63,1.49-0.63,2.67v0.73c0,1.19,0.23,2.09,0.68,2.7
		s1.12,0.91,1.99,0.91c0.88,0,1.51-0.19,1.88-0.56v-1.96h-2.13v-1.73h4.48v4.53H114.23z"/>
	<path class="st3" d="M125.48,170.29c0,1.12-0.2,2.1-0.59,2.95c-0.4,0.84-0.96,1.5-1.7,1.95c-0.74,0.46-1.58,0.69-2.54,0.69
		c-0.94,0-1.78-0.23-2.52-0.68s-1.31-1.1-1.72-1.94s-0.61-1.81-0.62-2.9v-0.56c0-1.12,0.2-2.11,0.61-2.96
		c0.4-0.85,0.97-1.5,1.71-1.96s1.58-0.68,2.53-0.68s1.79,0.23,2.53,0.68c0.74,0.46,1.31,1.11,1.71,1.96s0.61,1.83,0.61,2.95v0.5
		H125.48z M123.1,169.77c0-1.19-0.21-2.1-0.64-2.72s-1.04-0.93-1.83-0.93s-1.39,0.31-1.82,0.92s-0.64,1.51-0.65,2.69v0.55
		c0,1.16,0.21,2.06,0.64,2.7s1.04,0.96,1.84,0.96c0.79,0,1.39-0.31,1.81-0.93s0.63-1.52,0.64-2.7v-0.54H123.1z"/>
	<path class="st3" d="M136.52,170.29c0,1.12-0.2,2.1-0.59,2.95c-0.4,0.84-0.96,1.5-1.7,1.95c-0.74,0.46-1.58,0.69-2.54,0.69
		c-0.94,0-1.78-0.23-2.52-0.68s-1.31-1.1-1.72-1.94s-0.61-1.81-0.62-2.9v-0.56c0-1.12,0.2-2.11,0.61-2.96
		c0.4-0.85,0.97-1.5,1.71-1.96s1.58-0.68,2.53-0.68s1.79,0.23,2.53,0.68c0.74,0.46,1.31,1.11,1.71,1.96
		c0.4,0.85,0.61,1.83,0.61,2.95v0.5H136.52z M134.15,169.77c0-1.19-0.21-2.1-0.64-2.72s-1.04-0.93-1.83-0.93
		c-0.79,0-1.39,0.31-1.82,0.92c-0.43,0.61-0.64,1.51-0.65,2.69v0.55c0,1.16,0.21,2.06,0.64,2.7s1.04,0.96,1.84,0.96
		c0.79,0,1.39-0.31,1.81-0.93s0.63-1.52,0.64-2.7v-0.54H134.15z"/>
	<path class="st3" d="M147.23,174.28c-0.42,0.5-1.02,0.9-1.79,1.18c-0.77,0.28-1.62,0.42-2.56,0.42c-0.98,0-1.85-0.21-2.59-0.64
		s-1.32-1.05-1.72-1.87c-0.4-0.82-0.61-1.78-0.62-2.88v-0.77c0-1.14,0.19-2.12,0.57-2.95s0.93-1.47,1.66-1.91
		c0.72-0.44,1.57-0.66,2.54-0.66c1.35,0,2.4,0.32,3.16,0.96c0.76,0.64,1.21,1.58,1.35,2.81h-2.28c-0.1-0.65-0.33-1.13-0.69-1.43
		c-0.36-0.3-0.85-0.45-1.47-0.45c-0.8,0-1.4,0.3-1.82,0.9c-0.42,0.6-0.63,1.49-0.63,2.67v0.73c0,1.19,0.23,2.09,0.68,2.7
		s1.12,0.91,1.99,0.91c0.88,0,1.51-0.19,1.88-0.56v-1.96h-2.13v-1.73h4.48v4.53H147.23z"/>
	<path class="st3" d="M151.47,173.84h4.98v1.88h-7.32v-11.38h2.34L151.47,173.84L151.47,173.84z"/>
	<path class="st3" d="M164.63,170.79h-4.5v3.05h5.28v1.88h-7.62v-11.38h7.61v1.9h-5.27v2.71h4.5V170.79z"/>
	<path class="st3" d="M170.77,175.72v-11.38h3.5c1,0,1.89,0.23,2.68,0.68s1.4,1.09,1.85,1.92c0.44,0.83,0.66,1.77,0.66,2.83v0.52
		c0,1.06-0.22,2-0.65,2.82c-0.44,0.82-1.05,1.46-1.84,1.91s-1.69,0.68-2.68,0.69L170.77,175.72L170.77,175.72z M173.12,166.24v7.59
		h1.13c0.92,0,1.62-0.3,2.1-0.9s0.73-1.46,0.74-2.57v-0.6c0-1.16-0.24-2.03-0.72-2.63s-1.18-0.89-2.1-0.89L173.12,166.24
		L173.12,166.24z"/>
	<path class="st3" d="M185.38,171.55h-1.87v4.16h-2.34v-11.38h4.23c1.34,0,2.38,0.3,3.11,0.9c0.73,0.6,1.09,1.45,1.09,2.54
		c0,0.78-0.17,1.42-0.5,1.94s-0.85,0.93-1.53,1.24l2.46,4.65v0.11h-2.52L185.38,171.55z M183.52,169.66h1.89
		c0.59,0,1.04-0.15,1.37-0.45c0.32-0.3,0.48-0.71,0.48-1.24c0-0.54-0.15-0.96-0.46-1.27s-0.77-0.46-1.4-0.46h-1.88L183.52,169.66
		L183.52,169.66z"/>
	<path class="st3" d="M193.88,175.72h-2.34v-11.38h2.34V175.72z"/>
	<path class="st3" d="M200.25,172.9l2.58-8.55h2.61l-3.96,11.38h-2.45l-3.95-11.38h2.6L200.25,172.9z"/>
	<path class="st3" d="M213.35,170.79h-4.5v3.05h5.28v1.88h-7.62v-11.38h7.61v1.9h-5.27v2.71h4.5V170.79z"/>
	<path class="st3" d="M223.9,169.35h2.82v2.04h-2.82v3.19h-2.15v-3.19h-2.83v-2.04h2.83v-3.05h2.15V169.35z"/>
	<path class="st3" d="M241.55,170.29c0,1.12-0.2,2.1-0.59,2.95c-0.4,0.84-0.96,1.5-1.7,1.95c-0.74,0.46-1.58,0.69-2.54,0.69
		c-0.94,0-1.78-0.23-2.52-0.68s-1.31-1.1-1.72-1.94s-0.61-1.81-0.62-2.9v-0.56c0-1.12,0.2-2.11,0.61-2.96
		c0.4-0.85,0.97-1.5,1.71-1.96s1.58-0.68,2.53-0.68s1.79,0.23,2.53,0.68c0.74,0.46,1.31,1.11,1.71,1.96
		c0.4,0.85,0.61,1.83,0.61,2.95v0.5H241.55z M239.18,169.77c0-1.19-0.21-2.1-0.64-2.72s-1.04-0.93-1.83-0.93
		c-0.79,0-1.39,0.31-1.82,0.92c-0.43,0.61-0.64,1.51-0.65,2.69v0.55c0,1.16,0.21,2.06,0.64,2.7s1.04,0.96,1.84,0.96
		c0.79,0,1.39-0.31,1.81-0.93s0.63-1.52,0.64-2.7v-0.54H239.18z"/>
	<path class="st3" d="M252.51,175.72h-2.34l-4.56-7.48v7.48h-2.34v-11.38h2.34l4.57,7.5v-7.5h2.34v11.38H252.51z"/>
	<path class="st3" d="M261.4,170.79h-4.5v3.05h5.28v1.88h-7.62v-11.38h7.61v1.9h-5.27v2.71h4.5V170.79z"/>
	<path class="st3" d="M263.55,175.72v-11.38h3.5c1,0,1.89,0.23,2.68,0.68s1.4,1.09,1.85,1.92c0.44,0.83,0.66,1.77,0.66,2.83v0.52
		c0,1.06-0.22,2-0.65,2.82c-0.44,0.82-1.05,1.46-1.84,1.91s-1.69,0.68-2.68,0.69L263.55,175.72L263.55,175.72z M265.9,166.24v7.59
		h1.13c0.92,0,1.62-0.3,2.1-0.9s0.73-1.46,0.74-2.57v-0.6c0-1.16-0.24-2.03-0.72-2.63s-1.18-0.89-2.1-0.89L265.9,166.24
		L265.9,166.24z"/>
	<path class="st3" d="M278.16,171.55h-1.87v4.16h-2.34v-11.38h4.23c1.34,0,2.38,0.3,3.11,0.9c0.73,0.6,1.09,1.45,1.09,2.54
		c0,0.78-0.17,1.42-0.5,1.94s-0.85,0.93-1.53,1.24l2.46,4.65v0.11h-2.52L278.16,171.55z M276.3,169.66h1.89
		c0.59,0,1.04-0.15,1.37-0.45c0.32-0.3,0.48-0.71,0.48-1.24c0-0.54-0.15-0.96-0.46-1.27s-0.77-0.46-1.4-0.46h-1.88L276.3,169.66
		L276.3,169.66z"/>
	<path class="st3" d="M286.66,175.72h-2.34v-11.38h2.34V175.72z"/>
	<path class="st3" d="M293.03,172.9l2.58-8.55h2.61l-3.96,11.38h-2.45l-3.95-11.38h2.6L293.03,172.9z"/>
	<path class="st3" d="M306.13,170.79h-4.5v3.05h5.28v1.88h-7.62v-11.38h7.61v1.9h-5.27v2.71h4.5V170.79z"/>
</g>
<g>
	<path class="st4" d="M27.12,153.34v-24.17h6.82c2.1,0,3.96,0.46,5.58,1.39c1.62,0.93,2.86,2.25,3.74,3.97s1.33,3.69,1.34,5.91v1.54
		c0,2.28-0.44,4.28-1.32,5.99s-2.14,3.03-3.77,3.95s-3.53,1.39-5.7,1.41L27.12,153.34L27.12,153.34z M30.31,131.78v18.96h3.35
		c2.46,0,4.37-0.76,5.74-2.29c1.37-1.53,2.05-3.71,2.05-6.53v-1.41c0-2.75-0.65-4.88-1.93-6.41c-1.29-1.52-3.12-2.3-5.49-2.32
		L30.31,131.78L30.31,131.78z"/>
	<path class="st4" d="M48.95,130.61c0-0.5,0.15-0.92,0.46-1.26c0.3-0.34,0.76-0.51,1.35-0.51s1.05,0.17,1.36,0.51
		s0.46,0.76,0.46,1.26s-0.16,0.91-0.46,1.25c-0.31,0.33-0.76,0.5-1.36,0.5s-1.05-0.17-1.35-0.5
		C49.1,131.53,48.95,131.11,48.95,130.61z M52.27,153.34H49.2v-17.96h3.07V153.34z"/>
	<path class="st4" d="M56.44,144.21c0-2.76,0.65-4.97,1.96-6.65c1.31-1.68,3.02-2.52,5.13-2.52c2.1,0,3.77,0.72,5,2.16v-9.36h3.07
		v25.5h-2.82l-0.15-1.93c-1.23,1.5-2.94,2.26-5.13,2.26c-2.08,0-3.78-0.85-5.09-2.56s-1.97-3.93-1.97-6.67
		C56.44,144.44,56.44,144.21,56.44,144.21z M59.51,144.56c0,2.04,0.42,3.63,1.26,4.78s2,1.73,3.49,1.73c1.95,0,3.37-0.87,4.27-2.62
		v-8.25c-0.92-1.69-2.33-2.54-4.23-2.54c-1.51,0-2.68,0.58-3.52,1.74C59.93,140.56,59.51,142.28,59.51,144.56z"/>
	<path class="st4" d="M87.45,153.34c-0.18-0.35-0.32-0.99-0.43-1.89c-1.43,1.48-3.13,2.22-5.11,2.22c-1.77,0-3.22-0.5-4.36-1.5
		c-1.13-1-1.7-2.27-1.7-3.81c0-1.87,0.71-3.32,2.13-4.36s3.42-1.55,6-1.55h2.99v-1.41c0-1.07-0.32-1.93-0.96-2.57
		c-0.64-0.64-1.59-0.95-2.84-0.95c-1.1,0-2.01,0.28-2.76,0.83c-0.74,0.55-1.11,1.22-1.11,2.01h-3.09c0-0.9,0.32-1.76,0.95-2.6
		c0.64-0.84,1.5-1.5,2.59-1.98c1.09-0.49,2.29-0.73,3.59-0.73c2.07,0,3.69,0.52,4.86,1.55s1.78,2.46,1.83,4.27v8.27
		c0,1.65,0.21,2.96,0.63,3.93v0.27H87.45z M82.35,151c0.96,0,1.88-0.25,2.74-0.75s1.49-1.15,1.88-1.94v-3.69h-2.41
		c-3.76,0-5.64,1.1-5.64,3.3c0,0.96,0.32,1.72,0.96,2.26C80.52,150.73,81.35,151,82.35,151z M85.19,127.84h3.72l-4.45,4.88
		l-2.47-0.01L85.19,127.84z"/>
	<path class="st4" d="M102.06,151.17c1.1,0,2.05-0.33,2.87-1c0.82-0.66,1.27-1.49,1.36-2.49h2.91c-0.06,1.03-0.41,2.01-1.06,2.94
		c-0.65,0.93-1.52,1.67-2.61,2.22c-1.09,0.55-2.24,0.83-3.46,0.83c-2.45,0-4.39-0.82-5.84-2.45c-1.44-1.63-2.17-3.87-2.17-6.7v-0.51
		c0-1.75,0.32-3.3,0.96-4.67c0.64-1.36,1.56-2.42,2.76-3.17c1.2-0.75,2.62-1.13,4.26-1.13c2.01,0,3.69,0.6,5.02,1.81
		c1.33,1.21,2.04,2.77,2.13,4.7h-2.91c-0.09-1.16-0.53-2.12-1.32-2.86c-0.79-0.75-1.77-1.12-2.93-1.12c-1.56,0-2.77,0.56-3.63,1.69
		c-0.86,1.12-1.29,2.75-1.29,4.87v0.58c0,2.07,0.43,3.66,1.28,4.78C99.26,150.61,100.48,151.17,102.06,151.17z"/>
	<path class="st4" d="M116.82,131.03v4.35h3.35v2.37h-3.35v11.15c0,0.72,0.15,1.26,0.45,1.62s0.81,0.54,1.53,0.54
		c0.35,0,0.84-0.07,1.46-0.2v2.48c-0.81,0.22-1.59,0.33-2.36,0.33c-1.37,0-2.41-0.42-3.1-1.25s-1.05-2.01-1.05-3.54v-11.14h-3.27
		v-2.37h3.27v-4.35h3.07V131.03z"/>
	<path class="st4" d="M123.77,130.61c0-0.5,0.15-0.92,0.46-1.26c0.3-0.34,0.76-0.51,1.35-0.51s1.05,0.17,1.36,0.51
		s0.46,0.76,0.46,1.26s-0.16,0.91-0.46,1.25c-0.31,0.33-0.76,0.5-1.36,0.5s-1.05-0.17-1.35-0.5S123.77,131.11,123.77,130.61z
		 M127.1,153.34h-3.07v-17.96h3.07V153.34z"/>
	<path class="st4" d="M139.21,151.17c1.1,0,2.05-0.33,2.87-1c0.82-0.66,1.27-1.49,1.36-2.49h2.91c-0.06,1.03-0.41,2.01-1.06,2.94
		c-0.65,0.93-1.52,1.67-2.61,2.22s-2.24,0.83-3.46,0.83c-2.45,0-4.39-0.82-5.84-2.45c-1.44-1.63-2.17-3.87-2.17-6.7v-0.51
		c0-1.75,0.32-3.3,0.96-4.67c0.64-1.36,1.56-2.42,2.76-3.17s2.62-1.13,4.26-1.13c2.01,0,3.69,0.6,5.02,1.81
		c1.33,1.21,2.04,2.77,2.13,4.7h-2.91c-0.09-1.16-0.53-2.12-1.32-2.86c-0.79-0.75-1.77-1.12-2.93-1.12c-1.56,0-2.77,0.56-3.63,1.69
		c-0.86,1.12-1.29,2.75-1.29,4.87v0.58c0,2.07,0.43,3.66,1.28,4.78C136.41,150.61,137.63,151.17,139.21,151.17z"/>
	<path class="st4" d="M148.99,144.19c0-1.76,0.35-3.34,1.04-4.75c0.69-1.41,1.65-2.49,2.89-3.25c1.23-0.76,2.64-1.15,4.23-1.15
		c2.45,0,4.42,0.85,5.94,2.54s2.27,3.95,2.27,6.76v0.22c0,1.75-0.33,3.32-1,4.71s-1.63,2.47-2.87,3.25s-2.68,1.16-4.29,1.16
		c-2.44,0-4.41-0.85-5.92-2.54s-2.27-3.93-2.27-6.72v-0.23H148.99z M152.08,144.56c0,1.99,0.46,3.59,1.39,4.8
		c0.92,1.21,2.16,1.81,3.71,1.81c1.56,0,2.8-0.61,3.72-1.83s1.38-2.94,1.38-5.14c0-1.97-0.47-3.57-1.4-4.79
		c-0.94-1.22-2.18-1.83-3.73-1.83c-1.52,0-2.74,0.6-3.67,1.81S152.08,142.31,152.08,144.56z"/>
	<path class="st4" d="M179.66,148.58c0-0.83-0.31-1.47-0.94-1.93c-0.63-0.46-1.72-0.85-3.27-1.19c-1.56-0.33-2.79-0.73-3.7-1.2
		s-1.59-1.02-2.03-1.66s-0.66-1.41-0.66-2.29c0-1.47,0.62-2.72,1.87-3.74s2.84-1.53,4.77-1.53c2.04,0,3.69,0.53,4.96,1.58
		s1.9,2.4,1.9,4.03h-3.09c0-0.84-0.36-1.57-1.07-2.17s-1.61-0.91-2.7-0.91c-1.12,0-1.99,0.24-2.62,0.73s-0.95,1.12-0.95,1.91
		c0,0.74,0.29,1.3,0.88,1.68c0.59,0.38,1.65,0.74,3.18,1.08s2.77,0.75,3.73,1.23c0.95,0.48,1.66,1.05,2.12,1.72
		c0.46,0.67,0.69,1.49,0.69,2.45c0,1.6-0.64,2.89-1.93,3.86c-1.28,0.97-2.95,1.45-5,1.45c-1.44,0-2.71-0.25-3.82-0.76
		s-1.97-1.22-2.6-2.13s-0.94-1.9-0.94-2.96h3.07c0.06,1.03,0.47,1.85,1.24,2.45c0.77,0.6,1.78,0.91,3.05,0.91
		c1.16,0,2.09-0.24,2.8-0.71C179.3,149.99,179.66,149.36,179.66,148.58z"/>
	<path class="st4" d="M202.6,153.67c-2.44,0-4.42-0.8-5.94-2.4c-1.53-1.6-2.29-3.74-2.29-6.42v-0.56c0-1.78,0.34-3.37,1.02-4.77
		c0.68-1.4,1.63-2.5,2.86-3.29c1.22-0.79,2.55-1.19,3.98-1.19c2.33,0,4.15,0.77,5.45,2.31s1.94,3.74,1.94,6.61v1.28h-12.17
		c0.04,1.77,0.56,3.2,1.55,4.29s2.25,1.64,3.78,1.64c1.08,0,2-0.22,2.76-0.66c0.75-0.44,1.41-1.03,1.98-1.76l1.88,1.46
		C207.87,152.52,205.61,153.67,202.6,153.67z M202.22,137.57c-1.24,0-2.28,0.45-3.12,1.35c-0.84,0.9-1.36,2.17-1.56,3.79h9v-0.23
		c-0.09-1.56-0.51-2.77-1.26-3.63C204.52,138,203.5,137.57,202.22,137.57z"/>
	<path class="st4" d="M216.06,135.38l0.1,2.26c1.37-1.73,3.17-2.59,5.38-2.59c3.8,0,5.71,2.14,5.74,6.42v11.87h-3.07v-11.89
		c-0.01-1.29-0.31-2.25-0.89-2.87s-1.49-0.93-2.71-0.93c-1,0-1.87,0.27-2.62,0.8s-1.34,1.23-1.76,2.09v12.8h-3.07v-17.96H216.06z"/>
	<path class="st4" d="M243.67,153.34h-3.07v-25.5h3.07V153.34z"/>
	<path class="st4" d="M251.96,127.86h3.72l-4.45,4.88l-2.47-0.01L251.96,127.86z M251.92,153.34h-3.09v-17.96h3.09V153.34z"/>
	<path class="st4" d="M259.89,135.38l0.1,2.26c1.37-1.73,3.17-2.59,5.38-2.59c3.8,0,5.71,2.14,5.74,6.42v11.87h-3.07v-11.89
		c-0.01-1.29-0.31-2.25-0.89-2.87s-1.49-0.93-2.71-0.93c-1,0-1.87,0.27-2.62,0.8s-1.34,1.23-1.76,2.09v12.8h-3.07v-17.96H259.89z"/>
	<path class="st4" d="M283.2,153.67c-2.44,0-4.42-0.8-5.94-2.4c-1.53-1.6-2.29-3.74-2.29-6.42v-0.56c0-1.78,0.34-3.37,1.02-4.77
		c0.68-1.4,1.63-2.5,2.86-3.29c1.22-0.79,2.55-1.19,3.98-1.19c2.33,0,4.15,0.77,5.45,2.31s1.94,3.74,1.94,6.61v1.28h-12.17
		c0.04,1.77,0.56,3.2,1.55,4.29s2.25,1.64,3.78,1.64c1.08,0,2-0.22,2.76-0.66c0.75-0.44,1.41-1.03,1.98-1.76l1.88,1.46
		C288.47,152.52,286.21,153.67,283.2,153.67z M282.82,137.57c-1.24,0-2.28,0.45-3.12,1.35c-0.84,0.9-1.36,2.17-1.56,3.79h9v-0.23
		c-0.09-1.56-0.51-2.77-1.26-3.63C285.12,138,284.1,137.57,282.82,137.57z"/>
	<path class="st4" d="M304.85,153.34c-0.18-0.35-0.32-0.99-0.43-1.89c-1.43,1.48-3.13,2.22-5.11,2.22c-1.77,0-3.22-0.5-4.36-1.5
		c-1.13-1-1.7-2.27-1.7-3.81c0-1.87,0.71-3.32,2.13-4.36s3.42-1.55,6-1.55h2.99v-1.41c0-1.07-0.32-1.93-0.96-2.57
		c-0.64-0.64-1.59-0.95-2.84-0.95c-1.1,0-2.01,0.28-2.76,0.83c-0.74,0.55-1.11,1.22-1.11,2.01h-3.09c0-0.9,0.32-1.76,0.95-2.6
		c0.64-0.84,1.5-1.5,2.59-1.98c1.09-0.49,2.29-0.73,3.59-0.73c2.07,0,3.69,0.52,4.86,1.55c1.17,1.03,1.78,2.46,1.83,4.27v8.27
		c0,1.65,0.21,2.96,0.63,3.93v0.27H304.85z M299.75,151c0.96,0,1.88-0.25,2.74-0.75s1.49-1.15,1.88-1.94v-3.69h-2.41
		c-3.76,0-5.65,1.1-5.65,3.3c0,0.96,0.32,1.72,0.96,2.26C297.92,150.73,298.74,151,299.75,151z"/>
</g>
<g>
	<defs>
		<rect id="XMLID_00000092455757902621298590000005160450100379880351_" x="315" width="285" height="200"/>
	</defs>
	<use xlink:href="#XMLID_00000092455757902621298590000005160450100379880351_"  style="overflow:visible;fill:#FFFFFF;"/>
	<clipPath id="XMLID_00000006707097012821856440000003599590224457877938_">
		<use xlink:href="#XMLID_00000092455757902621298590000005160450100379880351_"  style="overflow:visible;"/>
	</clipPath>
	<g style="clip-path:url(#XMLID_00000006707097012821856440000003599590224457877938_);">
		<path class="st6" d="M600.35,200.94c78.97,0,152.04,0,169.64,0c81.2,0,79.42-126.27-34.96-112.94
			c2.95-104.48-152.31-156.32-205.12-56.02c-15.59-13.64-36.98-22.07-59.82-19.7c-39.31,4.07-55.68,28.89-66.65,53.85
			C309.79,55.83,303.1,208,403.22,200.94c29.68,0.3,76.12,0,126.22,0"/>
	</g>
	<g style="opacity:0.25;clip-path:url(#XMLID_00000006707097012821856440000003599590224457877938_);">
		<g>
			<path class="st8" d="M652.94,97.21c-1.4-1.13-2.82-2.23-4.24-3.31L411.54,331.07c1.08,1.43,2.18,2.84,3.31,4.24L652.94,97.21z"/>
		</g>
		<g>
			<path class="st8" d="M595.01,66.77c-1.97-0.58-3.94-1.12-5.93-1.63L382.77,271.45c0.51,1.98,1.05,3.96,1.63,5.93L595.01,66.77z"
				/>
		</g>
		<g>
			<path class="st8" d="M635.7,84.99c-1.57-0.97-3.15-1.9-4.74-2.82L399.81,313.34c0.91,1.59,1.85,3.17,2.82,4.74L635.7,84.99z"/>
		</g>
		<g>
			<path class="st8" d="M616.47,74.76c-1.75-0.79-3.51-1.55-5.27-2.28L390.12,293.57c0.73,1.77,1.49,3.53,2.28,5.27L616.47,74.76z"
				/>
		</g>
		<g>
			<path class="st8" d="M570.82,61.49c-2.24-0.32-4.49-0.59-6.74-0.82L378.3,246.46c0.23,2.25,0.5,4.5,0.82,6.74L570.82,61.49z"/>
		</g>
		<g>
			<path class="st8" d="M666.47,109.37c-0.63-0.63-1.27-1.25-1.91-1.86L425.14,346.93c0.62,0.64,1.23,1.28,1.86,1.91
				c0.63,0.63,1.27,1.25,1.91,1.86l239.42-239.42C667.72,110.64,667.11,110,666.47,109.37z"/>
		</g>
		<g>
			<path class="st8" d="M543.03,59.82c-2.64,0.06-5.28,0.18-7.91,0.36L377.81,217.49c-0.18,2.64-0.3,5.27-0.36,7.91L543.03,59.82z"
				/>
		</g>
		<g>
			<path class="st8" d="M381.54,191.85L509.48,63.91c-3.41,0.77-6.8,1.64-10.17,2.62L384.16,181.67
				C383.18,185.04,382.31,188.43,381.54,191.85z"/>
		</g>
		<g>
			<path class="st8" d="M715.67,240.72c0.18-2.64,0.3-5.27,0.36-7.91L550.44,398.39c2.64-0.06,5.28-0.18,7.91-0.36L715.67,240.72z"
				/>
		</g>
		<g>
			<path class="st8" d="M715.17,211.76c-0.23-2.25-0.5-4.5-0.82-6.74l-191.7,191.7c2.24,0.32,4.49,0.59,6.74,0.82L715.17,211.76z"/>
		</g>
		<g>
			<path class="st8" d="M460.73,83.19c-12.04,7.11-23.39,15.83-33.73,26.17c-10.34,10.34-19.07,21.69-26.17,33.73L460.73,83.19z"/>
		</g>
		<g>
			<path class="st8" d="M709.32,276.54c0.98-3.37,1.85-6.76,2.62-10.17L584,394.3c3.41-0.77,6.8-1.64,10.17-2.62L709.32,276.54z"/>
		</g>
		<g>
			<path class="st8" d="M632.74,375.02c12.04-7.11,23.39-15.83,33.73-26.18c10.34-10.34,19.07-21.69,26.18-33.73L632.74,375.02z"/>
		</g>
		<g>
			<path class="st8" d="M693.67,144.88c-0.91-1.59-1.85-3.17-2.82-4.74L457.77,373.22c1.57,0.97,3.15,1.9,4.74,2.82L693.67,144.88z"
				/>
		</g>
		<g>
			<path class="st8" d="M681.94,127.14c-1.08-1.43-2.18-2.84-3.31-4.24L440.53,361c1.4,1.13,2.82,2.23,4.24,3.31L681.94,127.14z"/>
		</g>
		<g>
			<path class="st8" d="M591.23,298.68l-92.76,92.76c1.97,0.58,3.94,1.12,5.93,1.63l206.31-206.31c-0.51-1.98-1.05-3.96-1.63-5.93
				L591.23,298.68"/>
		</g>
		<g>
			<path class="st8" d="M703.36,164.65c-0.73-1.77-1.49-3.53-2.28-5.27L477,383.45c1.75,0.79,3.51,1.55,5.27,2.28L703.36,164.65z"/>
		</g>
	</g>
</g>
</svg>
