<?xml version="1.0" encoding="UTF-8" standalone="no"?>
<!-- Generator: Adobe Illustrator 25.4.1, SVG Export Plug-In . SVG Version: 6.00 Build 0)  -->

<svg
   version="1.1"
   id="Capa_1"
   x="0px"
   y="0px"
   viewBox="0 0 900 150"
   style="enable-background:new 0 0 900 150;"
   xml:space="preserve"
   sodipodi:docname="banner-tutorias.svg"
   xmlns:inkscape="http://www.inkscape.org/namespaces/inkscape"
   xmlns:sodipodi="http://sodipodi.sourceforge.net/DTD/sodipodi-0.dtd"
   xmlns:xlink="http://www.w3.org/1999/xlink"
   xmlns="http://www.w3.org/2000/svg"
   xmlns:svg="http://www.w3.org/2000/svg"><defs
   id="defs2342">
	
	
	
	

		
		
		
		
		
		
		
		
		
		
		
		
		
		
		
		
		
		
		
		
		
		
		
		
		
		
		
	</defs><sodipodi:namedview
   id="namedview2340"
   pagecolor="#ffffff"
   bordercolor="#666666"
   borderopacity="1.0"
   inkscape:pageshadow="2"
   inkscape:pageopacity="0.0"
   inkscape:pagecheckerboard="0"
   showgrid="false" />
<style
   type="text/css"
   id="style1745">
	.st0{fill:#724E91;}
	.st1{fill:#44505F;}
	.st2{clip-path:url(#SVGID_00000010281221421416452120000005887675501261662356_);}
	.st3{enable-background:new    ;}
	.st4{fill:#494F6F;}
	.st5{fill:#1A2E35;}
	.st6{fill:#5A4870;}
	.st7{fill:#424863;}
	.st8{fill:#545B80;}
	.st9{fill:#FAD1D7;}
	.st10{fill:#FFFFFF;}
	.st11{fill:#2462DE;}
	.st12{fill:#3A78F0;}
	.st13{fill:#2569D6;}
	.st14{fill:#8A71A5;}
	.st15{fill:#662D91;}
	.st16{fill:#FFC299;}
	.st17{fill:#F58D7D;}
	.st18{opacity:0.33;}
	.st19{fill:#FFC9C7;}
	.st20{fill:#F57E6C;}
</style>
<path
   class="st0"
   d="M 62.93,40.84 H 47.77 V 91.85 H 35.34 V 40.84 H 20.43 V 30.52 h 42.5 z"
   id="path1747" /><path
   class="st0"
   d="m 109.94,30.52 v 42.46 c -0.06,6.37 -1.81,11.25 -5.27,14.64 -3.45,3.38 -8.41,5.08 -14.87,5.08 -6.57,0 -11.59,-1.71 -15.06,-5.14 -3.47,-3.42 -5.2,-8.38 -5.2,-14.87 V 30.52 h 12.47 v 42.21 c 0,3.48 0.56,5.97 1.69,7.46 1.12,1.49 3.16,2.23 6.11,2.23 2.95,0 4.97,-0.74 6.07,-2.21 1.09,-1.47 1.66,-3.9 1.68,-7.27 V 30.52 Z"
   id="path1749" /><path
   class="st0"
   d="M 159.05,40.84 H 143.89 V 91.85 H 131.46 V 40.84 H 116.55 V 30.52 h 42.5 z"
   id="path1751" /><path
   class="st0"
   d="m 208.17,66.7 c 0,8.23 -1.94,14.62 -5.83,19.17 -3.89,4.55 -9.29,6.82 -16.2,6.82 -6.88,0 -12.29,-2.25 -16.22,-6.76 C 165.99,81.42 163.99,75.11 163.94,67 V 56.51 c 0,-8.42 1.95,-15 5.85,-19.73 3.9,-4.73 9.32,-7.1 16.26,-7.1 6.82,0 12.2,2.32 16.13,6.97 3.93,4.65 5.92,11.17 5.98,19.57 V 66.7 Z M 195.74,56.42 c 0,-5.53 -0.79,-9.65 -2.36,-12.34 -1.57,-2.7 -4.02,-4.04 -7.33,-4.04 -3.29,0 -5.71,1.3 -7.29,3.9 -1.57,2.6 -2.39,6.55 -2.44,11.86 v 10.9 c 0,5.36 0.8,9.32 2.4,11.86 1.6,2.54 4.07,3.81 7.41,3.81 3.23,0 5.63,-1.24 7.2,-3.73 1.57,-2.49 2.37,-6.34 2.4,-11.56 V 56.42 Z"
   id="path1753" /><path
   class="st0"
   d="m 235.63,69.44 h -6.15 V 91.85 H 217.1 V 30.52 h 19.76 c 6.21,0 11,1.61 14.38,4.82 3.38,3.22 5.08,7.79 5.08,13.71 0,8.14 -2.96,13.84 -8.89,17.1 l 10.74,25.1 v 0.59 h -13.31 z m -6.15,-10.32 h 7.03 c 2.47,0 4.32,-0.82 5.56,-2.46 1.24,-1.64 1.85,-3.84 1.85,-6.59 0,-6.15 -2.4,-9.22 -7.2,-9.22 h -7.25 v 18.27 z"
   id="path1755" /><path
   class="st0"
   d="M 277.75,91.85 H 265.37 V 30.52 h 12.38 z m -3.87,-77.89 h 13.39 l -11.71,13.06 h -9.94 z"
   id="path1757" /><path
   class="st0"
   d="M 318.19,79.29 H 301.3 l -3.29,12.55 h -13.1 l 19.17,-61.33 h 11.33 l 19.29,61.33 h -13.23 z m -14.2,-10.32 h 11.46 l -5.73,-21.86 z"
   id="path1759" /><path
   class="st0"
   d="m 366.33,75.76 c 0,-2.5 -0.64,-4.39 -1.92,-5.67 -1.28,-1.28 -3.6,-2.6 -6.97,-3.98 -6.15,-2.33 -10.57,-5.06 -13.27,-8.19 -2.7,-3.13 -4.04,-6.83 -4.04,-11.1 0,-5.17 1.83,-9.32 5.5,-12.45 3.67,-3.13 8.32,-4.7 13.96,-4.7 3.76,0 7.12,0.79 10.07,2.38 2.95,1.59 5.22,3.83 6.8,6.72 1.59,2.89 2.38,6.18 2.38,9.86 H 366.5 c 0,-2.86 -0.61,-5.05 -1.83,-6.55 -1.22,-1.5 -2.98,-2.25 -5.29,-2.25 -2.16,0 -3.85,0.64 -5.05,1.92 -1.21,1.28 -1.81,3 -1.81,5.16 0,1.68 0.67,3.21 2.02,4.57 1.35,1.36 3.73,2.77 7.16,4.23 5.98,2.16 10.33,4.82 13.04,7.96 2.71,3.15 4.06,7.15 4.06,12 0,5.34 -1.7,9.51 -5.1,12.51 -3.4,3.01 -8.02,4.51 -13.86,4.51 -3.96,0 -7.57,-0.82 -10.83,-2.44 -3.26,-1.63 -5.81,-3.96 -7.65,-6.99 -1.84,-3.03 -2.76,-6.61 -2.76,-10.74 h 12.43 c 0,3.54 0.69,6.11 2.06,7.71 1.38,1.6 3.62,2.4 6.74,2.4 4.34,-0.01 6.5,-2.3 6.5,-6.87 z"
   id="path1761" /><path
   d="m 42.5,115.17 h -7.92 v 5.36 h 9.29 v 3.31 H 30.46 v -20.02 h 13.39 v 3.34 h -9.27 v 4.77 h 7.92 z"
   id="path1763" /><path
   d="m 62.58,123.85 h -4.12 l -8.03,-13.17 v 13.17 H 46.3 v -20.02 h 4.12 l 8.04,13.2 v -13.2 h 4.11 v 20.02 z"
   id="path1765" /><path
   d="m 85.23,115.17 h -7.92 v 5.36 h 9.29 v 3.31 H 73.19 v -20.02 h 13.39 v 3.34 h -9.27 v 4.77 h 7.92 z"
   id="path1767" /><path
   d="m 105.31,123.85 h -4.12 l -8.03,-13.17 v 13.17 h -4.12 v -20.02 h 4.12 l 8.04,13.2 v -13.2 h 4.11 z"
   id="path1769" /><path
   d="m 123.58,107.17 h -6.13 v 16.68 h -4.12 v -16.68 h -6.05 v -3.34 h 16.31 v 3.34 z"
   id="path1771" /><path
   d="m 141.99,114.29 c 0,1.97 -0.35,3.7 -1.04,5.18 -0.7,1.49 -1.69,2.63 -2.99,3.44 -1.3,0.81 -2.78,1.21 -4.46,1.21 -1.66,0 -3.14,-0.4 -4.44,-1.2 -1.3,-0.8 -2.31,-1.94 -3.02,-3.42 -0.71,-1.48 -1.08,-3.18 -1.09,-5.11 v -0.99 c 0,-1.97 0.36,-3.71 1.07,-5.2 0.71,-1.5 1.71,-2.65 3.01,-3.45 1.3,-0.8 2.78,-1.2 4.45,-1.2 1.67,0 3.15,0.4 4.45,1.2 1.3,0.8 2.3,1.95 3.01,3.45 0.71,1.5 1.07,3.23 1.07,5.19 v 0.9 z m -4.18,-0.91 c 0,-2.1 -0.38,-3.69 -1.13,-4.78 -0.75,-1.09 -1.82,-1.64 -3.22,-1.64 -1.38,0 -2.45,0.54 -3.2,1.62 -0.75,1.08 -1.13,2.66 -1.14,4.74 v 0.98 c 0,2.04 0.38,3.63 1.13,4.76 0.75,1.13 1.83,1.69 3.24,1.69 1.38,0 2.45,-0.54 3.19,-1.63 0.74,-1.09 1.12,-2.67 1.13,-4.75 z"
   id="path1773" /><path
   d="m 152.39,116.52 h -3.29 v 7.33 h -4.12 v -20.02 h 7.44 c 2.36,0 4.19,0.53 5.47,1.58 1.28,1.05 1.92,2.54 1.92,4.47 0,1.37 -0.3,2.5 -0.89,3.42 -0.59,0.91 -1.49,1.64 -2.69,2.18 l 4.33,8.18 v 0.19 h -4.43 z m -3.28,-3.34 h 3.33 c 1.04,0 1.84,-0.26 2.41,-0.79 0.57,-0.53 0.85,-1.25 0.85,-2.18 0,-0.94 -0.27,-1.69 -0.8,-2.23 -0.53,-0.54 -1.36,-0.81 -2.47,-0.81 h -3.31 v 6.01 z"
   id="path1775" /><path
   d="m 179.23,123.85 h -4.12 l -8.03,-13.17 v 13.17 h -4.12 v -20.02 h 4.12 l 8.04,13.2 v -13.2 h 4.11 z"
   id="path1777" /><path
   d="m 199.28,114.29 c 0,1.97 -0.35,3.7 -1.04,5.18 -0.7,1.49 -1.69,2.63 -2.99,3.44 -1.3,0.81 -2.78,1.21 -4.46,1.21 -1.66,0 -3.14,-0.4 -4.44,-1.2 -1.3,-0.8 -2.31,-1.94 -3.02,-3.42 -0.71,-1.48 -1.08,-3.18 -1.09,-5.11 v -0.99 c 0,-1.97 0.36,-3.71 1.07,-5.2 0.71,-1.5 1.71,-2.65 3.01,-3.45 1.3,-0.8 2.78,-1.2 4.45,-1.2 1.67,0 3.15,0.4 4.45,1.2 1.3,0.8 2.3,1.95 3.01,3.45 0.71,1.5 1.07,3.23 1.07,5.19 v 0.9 z m -4.18,-0.91 c 0,-2.1 -0.38,-3.69 -1.13,-4.78 -0.75,-1.09 -1.82,-1.64 -3.22,-1.64 -1.38,0 -2.45,0.54 -3.2,1.62 -0.75,1.08 -1.13,2.66 -1.14,4.74 v 0.98 c 0,2.04 0.38,3.63 1.13,4.76 0.75,1.13 1.83,1.69 3.24,1.69 1.38,0 2.45,-0.54 3.19,-1.63 0.74,-1.09 1.12,-2.67 1.13,-4.75 z"
   id="path1779" /><path
   d="m 212.65,118.59 c 0,-0.78 -0.28,-1.38 -0.83,-1.79 -0.55,-0.41 -1.54,-0.86 -2.97,-1.32 -1.43,-0.46 -2.56,-0.92 -3.4,-1.37 -2.27,-1.23 -3.41,-2.88 -3.41,-4.96 0,-1.08 0.3,-2.05 0.91,-2.89 0.61,-0.84 1.48,-1.51 2.63,-1.99 1.14,-0.48 2.42,-0.71 3.84,-0.71 1.43,0 2.7,0.26 3.82,0.78 1.12,0.52 1.99,1.25 2.6,2.19 0.62,0.94 0.93,2.02 0.93,3.22 h -4.12 c 0,-0.92 -0.29,-1.63 -0.87,-2.14 -0.58,-0.51 -1.39,-0.76 -2.43,-0.76 -1.01,0 -1.79,0.21 -2.35,0.64 -0.56,0.43 -0.84,0.99 -0.84,1.68 0,0.65 0.33,1.2 0.98,1.64 0.66,0.44 1.62,0.85 2.89,1.24 2.35,0.71 4.06,1.58 5.13,2.63 1.07,1.04 1.61,2.35 1.61,3.9 0,1.73 -0.66,3.09 -1.97,4.08 -1.31,0.99 -3.07,1.48 -5.29,1.48 -1.54,0 -2.94,-0.28 -4.21,-0.85 -1.26,-0.56 -2.23,-1.34 -2.89,-2.32 -0.66,-0.98 -1,-2.12 -1,-3.41 h 4.14 c 0,2.21 1.32,3.31 3.96,3.31 0.98,0 1.75,-0.2 2.3,-0.6 0.57,-0.4 0.84,-0.96 0.84,-1.68 z"
   id="path1781" /><path
   d="m 233.99,118.88 4.54,-15.05 h 4.59 l -6.97,20.02 h -4.3 l -6.94,-20.02 h 4.58 z"
   id="path1783" /><path
   d="m 249.39,123.85 h -4.12 v -20.02 h 4.12 z"
   id="path1785" /><path
   d="m 260.62,116.52 h -3.29 v 7.33 h -4.12 v -20.02 h 7.44 c 2.36,0 4.19,0.53 5.47,1.58 1.28,1.05 1.92,2.54 1.92,4.47 0,1.37 -0.3,2.5 -0.89,3.42 -0.59,0.91 -1.49,1.64 -2.69,2.18 l 4.33,8.18 v 0.19 h -4.43 z m -3.28,-3.34 h 3.33 c 1.04,0 1.84,-0.26 2.41,-0.79 0.57,-0.53 0.85,-1.25 0.85,-2.18 0,-0.94 -0.27,-1.69 -0.8,-2.23 -0.53,-0.54 -1.36,-0.81 -2.47,-0.81 h -3.31 v 6.01 z"
   id="path1787" /><path
   d="m 285.56,107.17 h -6.13 v 16.68 h -4.12 v -16.68 h -6.05 v -3.34 h 16.31 v 3.34 z"
   id="path1789" /><path
   d="m 303.06,103.83 v 13.18 c 0,2.19 -0.69,3.92 -2.06,5.2 -1.37,1.27 -3.24,1.91 -5.62,1.91 -2.34,0 -4.19,-0.62 -5.57,-1.86 -1.38,-1.24 -2.08,-2.94 -2.1,-5.1 v -13.34 h 4.12 v 13.21 c 0,1.31 0.31,2.27 0.94,2.87 0.63,0.6 1.5,0.9 2.61,0.9 2.32,0 3.5,-1.22 3.53,-3.66 v -13.32 h 4.15 z"
   id="path1791" /><path
   d="m 317.44,119.72 h -7.23 l -1.38,4.12 h -4.39 l 7.45,-20.02 h 3.82 l 7.49,20.02 h -4.39 z m -6.11,-3.34 h 5 l -2.52,-7.49 z"
   id="path1793" /><path
   d="m 329.21,120.53 h 8.76 v 3.31 h -12.88 v -20.02 h 4.12 z"
   id="path1795" /><path
   d="m 352.38,115.17 h -7.92 v 5.36 h 9.29 v 3.31 h -13.42 v -20.02 h 13.39 v 3.34 h -9.27 v 4.77 h 7.92 v 3.24 z"
   id="path1797" /><path
   d="m 366.55,118.59 c 0,-0.78 -0.28,-1.38 -0.83,-1.79 -0.55,-0.41 -1.54,-0.86 -2.97,-1.32 -1.43,-0.46 -2.56,-0.92 -3.4,-1.37 -2.27,-1.23 -3.41,-2.88 -3.41,-4.96 0,-1.08 0.3,-2.05 0.91,-2.89 0.61,-0.84 1.48,-1.51 2.63,-1.99 1.14,-0.48 2.42,-0.71 3.84,-0.71 1.43,0 2.7,0.26 3.82,0.78 1.12,0.52 1.99,1.25 2.6,2.19 0.62,0.94 0.93,2.02 0.93,3.22 h -4.12 c 0,-0.92 -0.29,-1.63 -0.87,-2.14 -0.58,-0.51 -1.39,-0.76 -2.43,-0.76 -1.01,0 -1.79,0.21 -2.35,0.64 -0.56,0.43 -0.84,0.99 -0.84,1.68 0,0.65 0.33,1.2 0.98,1.64 0.66,0.44 1.62,0.85 2.89,1.24 2.35,0.71 4.06,1.58 5.13,2.63 1.07,1.04 1.61,2.35 1.61,3.9 0,1.73 -0.66,3.09 -1.97,4.08 -1.31,0.99 -3.07,1.48 -5.29,1.48 -1.54,0 -2.94,-0.28 -4.21,-0.85 -1.26,-0.56 -2.23,-1.34 -2.89,-2.32 -0.66,-0.98 -1,-2.12 -1,-3.41 h 4.14 c 0,2.21 1.32,3.31 3.96,3.31 0.98,0 1.75,-0.2 2.3,-0.6 0.57,-0.4 0.84,-0.96 0.84,-1.68 z"
   id="path1799" /><g
   id="g1811">
		<defs
   id="defs1804">
			<polygon
   id="SVGID_1_"
   points="669.79,0 900,0 900,150 357.77,150 " />
		</defs>
		<use
   xlink:href="#SVGID_1_"
   style="overflow:visible;opacity:0.6;fill:#f7b2bd"
   id="use1806"
   x="0"
   y="0"
   width="100%"
   height="100%" />
		<clipPath
   id="SVGID_00000137836274155595368410000005997502323807473831_">
			<use
   xlink:href="#SVGID_1_"
   style="overflow:visible;opacity:0.6"
   id="use1808"
   x="0"
   y="0"
   width="100%"
   height="100%" />
		</clipPath>
	</g><g
   id="g1859">
		<path
   class="st1"
   d="m 646.54,57.48 c 0,-2.27 0.54,-4.09 1.61,-5.48 1.07,-1.38 2.48,-2.07 4.22,-2.07 1.73,0 3.1,0.59 4.12,1.78 V 44 h 2.53 v 21 h -2.32 l -0.12,-1.59 c -1.01,1.24 -2.42,1.86 -4.22,1.86 -1.71,0 -3.11,-0.7 -4.19,-2.11 -1.08,-1.41 -1.62,-3.24 -1.62,-5.5 v -0.18 z m 2.52,0.29 c 0,1.68 0.35,2.99 1.04,3.94 0.69,0.95 1.65,1.42 2.87,1.42 1.6,0 2.78,-0.72 3.51,-2.16 v -6.79 c -0.76,-1.39 -1.92,-2.09 -3.49,-2.09 -1.24,0 -2.21,0.48 -2.9,1.44 -0.68,0.94 -1.03,2.36 -1.03,4.24 z"
   id="path1813" />
		<path
   class="st1"
   d="m 669.08,65.27 c -2.01,0 -3.64,-0.66 -4.89,-1.98 -1.25,-1.32 -1.89,-3.08 -1.89,-5.28 v -0.46 c 0,-1.47 0.28,-2.78 0.84,-3.93 0.56,-1.15 1.34,-2.06 2.35,-2.71 1.01,-0.65 2.1,-0.98 3.28,-0.98 1.92,0 3.42,0.63 4.48,1.9 1.06,1.27 1.6,3.08 1.6,5.44 v 1.05 h -10.02 c 0.04,1.46 0.46,2.64 1.28,3.53 0.82,0.9 1.85,1.35 3.11,1.35 0.89,0 1.65,-0.18 2.27,-0.55 0.62,-0.36 1.16,-0.85 1.63,-1.45 l 1.54,1.2 c -1.24,1.92 -3.1,2.87 -5.58,2.87 z m -0.31,-13.26 c -1.02,0 -1.88,0.37 -2.57,1.11 -0.69,0.74 -1.12,1.78 -1.29,3.12 h 7.41 v -0.19 c -0.07,-1.29 -0.42,-2.28 -1.04,-2.99 -0.62,-0.7 -1.46,-1.05 -2.51,-1.05 z"
   id="path1815" />
		<path
   class="st1"
   d="m 690.85,65.27 c -2.01,0 -3.64,-0.66 -4.89,-1.98 -1.25,-1.32 -1.89,-3.08 -1.89,-5.28 v -0.46 c 0,-1.47 0.28,-2.78 0.84,-3.93 0.56,-1.15 1.34,-2.06 2.35,-2.71 1.01,-0.65 2.1,-0.98 3.28,-0.98 1.92,0 3.42,0.63 4.48,1.9 1.06,1.27 1.6,3.08 1.6,5.44 v 1.05 H 686.6 c 0.04,1.46 0.46,2.64 1.28,3.53 0.82,0.9 1.85,1.35 3.11,1.35 0.89,0 1.65,-0.18 2.27,-0.55 0.62,-0.36 1.16,-0.85 1.63,-1.45 l 1.54,1.2 c -1.25,1.92 -3.11,2.87 -5.58,2.87 z m -0.32,-13.26 c -1.02,0 -1.88,0.37 -2.57,1.11 -0.69,0.74 -1.12,1.78 -1.29,3.12 h 7.41 v -0.19 c -0.07,-1.29 -0.42,-2.28 -1.04,-2.99 -0.61,-0.7 -1.45,-1.05 -2.51,-1.05 z"
   id="path1817" />
		<path
   class="st1"
   d="m 701.93,50.21 0.08,1.86 c 1.13,-1.42 2.61,-2.13 4.43,-2.13 3.12,0 4.7,1.76 4.73,5.29 V 65 h -2.53 v -9.79 c -0.01,-1.07 -0.25,-1.85 -0.73,-2.37 -0.48,-0.52 -1.22,-0.77 -2.23,-0.77 -0.82,0 -1.54,0.22 -2.16,0.66 -0.62,0.44 -1.1,1.01 -1.45,1.72 V 65 h -2.53 V 50.21 Z"
   id="path1819" />
		<path
   class="st1"
   d="m 723.6,61.07 c 0,-0.68 -0.26,-1.21 -0.77,-1.59 -0.51,-0.38 -1.41,-0.7 -2.69,-0.98 -1.28,-0.27 -2.3,-0.6 -3.05,-0.98 -0.75,-0.38 -1.31,-0.84 -1.67,-1.37 -0.36,-0.53 -0.54,-1.16 -0.54,-1.89 0,-1.21 0.51,-2.24 1.54,-3.08 1.03,-0.84 2.34,-1.26 3.93,-1.26 1.68,0 3.04,0.43 4.08,1.3 1.04,0.87 1.57,1.97 1.57,3.32 h -2.54 c 0,-0.69 -0.29,-1.29 -0.88,-1.79 -0.59,-0.5 -1.33,-0.75 -2.22,-0.75 -0.92,0 -1.64,0.2 -2.16,0.6 -0.52,0.4 -0.78,0.92 -0.78,1.57 0,0.61 0.24,1.07 0.72,1.38 0.48,0.31 1.36,0.61 2.62,0.89 1.26,0.28 2.29,0.62 3.07,1.01 0.78,0.39 1.36,0.86 1.74,1.42 0.38,0.55 0.57,1.22 0.57,2.02 0,1.32 -0.53,2.38 -1.59,3.18 -1.06,0.8 -2.43,1.2 -4.12,1.2 -1.19,0 -2.23,-0.21 -3.14,-0.63 -0.91,-0.42 -1.62,-1 -2.14,-1.76 -0.51,-0.75 -0.77,-1.57 -0.77,-2.44 h 2.53 c 0.04,0.85 0.38,1.52 1.02,2.02 0.63,0.5 1.47,0.75 2.51,0.75 0.96,0 1.72,-0.19 2.3,-0.58 0.57,-0.39 0.86,-0.91 0.86,-1.56 z"
   id="path1821" />
		<path
   class="st1"
   d="m 735.57,65.27 c -2.01,0 -3.64,-0.66 -4.89,-1.98 -1.25,-1.32 -1.89,-3.08 -1.89,-5.28 v -0.46 c 0,-1.47 0.28,-2.78 0.84,-3.93 0.56,-1.15 1.34,-2.06 2.35,-2.71 1.01,-0.65 2.1,-0.98 3.28,-0.98 1.92,0 3.42,0.63 4.48,1.9 1.06,1.27 1.6,3.08 1.6,5.44 v 1.05 h -10.02 c 0.04,1.46 0.46,2.64 1.28,3.53 0.82,0.9 1.85,1.35 3.11,1.35 0.89,0 1.65,-0.18 2.27,-0.55 0.62,-0.36 1.16,-0.85 1.63,-1.45 l 1.54,1.2 c -1.25,1.92 -3.11,2.87 -5.58,2.87 z m -0.32,-13.26 c -1.02,0 -1.88,0.37 -2.57,1.11 -0.69,0.74 -1.12,1.78 -1.29,3.12 h 7.41 v -0.19 c -0.07,-1.29 -0.42,-2.28 -1.04,-2.99 -0.61,-0.7 -1.45,-1.05 -2.51,-1.05 z"
   id="path1823" />
		<path
   class="st1"
   d="m 746.65,50.21 0.08,1.86 c 1.13,-1.42 2.61,-2.13 4.43,-2.13 3.12,0 4.7,1.76 4.73,5.29 V 65 h -2.53 v -9.79 c -0.01,-1.07 -0.25,-1.85 -0.73,-2.37 -0.48,-0.52 -1.22,-0.77 -2.23,-0.77 -0.82,0 -1.54,0.22 -2.16,0.66 -0.62,0.44 -1.1,1.01 -1.45,1.72 V 65 h -2.53 V 50.21 Z m 8.37,-5.77 c 0,0.98 -0.28,1.78 -0.84,2.39 -0.56,0.61 -1.26,0.92 -2.1,0.92 -0.38,0 -0.7,-0.05 -0.97,-0.14 -0.27,-0.09 -0.63,-0.28 -1.07,-0.56 -0.44,-0.28 -0.76,-0.45 -0.96,-0.51 -0.2,-0.06 -0.42,-0.09 -0.68,-0.09 -0.38,0 -0.69,0.14 -0.96,0.43 -0.27,0.29 -0.4,0.65 -0.4,1.1 l -1.7,-0.1 c 0,-0.98 0.28,-1.78 0.83,-2.42 0.55,-0.64 1.25,-0.96 2.1,-0.96 0.32,0 0.61,0.05 0.86,0.14 0.25,0.09 0.6,0.27 1.04,0.53 0.44,0.26 0.77,0.44 1,0.52 0.23,0.08 0.49,0.12 0.77,0.12 0.39,0 0.72,-0.16 0.98,-0.46 0.26,-0.3 0.39,-0.67 0.39,-1.08 z"
   id="path1825" />
		<path
   class="st1"
   d="m 768.84,65 c -0.15,-0.29 -0.27,-0.81 -0.36,-1.56 -1.18,1.22 -2.58,1.83 -4.21,1.83 -1.46,0 -2.66,-0.41 -3.59,-1.24 -0.93,-0.83 -1.4,-1.87 -1.4,-3.14 0,-1.54 0.58,-2.74 1.76,-3.59 1.17,-0.85 2.82,-1.28 4.94,-1.28 h 2.46 v -1.16 c 0,-0.88 -0.27,-1.59 -0.79,-2.11 -0.53,-0.52 -1.31,-0.79 -2.34,-0.79 -0.9,0 -1.66,0.23 -2.27,0.68 -0.61,0.46 -0.92,1.01 -0.92,1.65 h -2.54 c 0,-0.74 0.26,-1.45 0.79,-2.14 0.52,-0.69 1.24,-1.23 2.13,-1.63 0.9,-0.4 1.88,-0.6 2.96,-0.6 1.7,0 3.04,0.43 4.01,1.28 0.96,0.85 1.47,2.03 1.5,3.52 v 6.81 c 0,1.36 0.17,2.44 0.52,3.24 V 65 Z m -4.19,-1.93 c 0.79,0 1.54,-0.21 2.26,-0.62 0.72,-0.41 1.22,-0.94 1.54,-1.6 v -3.04 h -1.98 c -3.1,0 -4.65,0.91 -4.65,2.72 0,0.79 0.26,1.41 0.79,1.86 0.53,0.46 1.21,0.68 2.04,0.68 z"
   id="path1827" />
		<path
   class="st1"
   d="m 777.33,50.21 0.08,1.86 c 1.13,-1.42 2.61,-2.13 4.43,-2.13 3.12,0 4.7,1.76 4.73,5.29 V 65 h -2.53 v -9.79 c -0.01,-1.07 -0.25,-1.85 -0.73,-2.37 -0.48,-0.52 -1.22,-0.77 -2.23,-0.77 -0.82,0 -1.54,0.22 -2.16,0.66 -0.62,0.44 -1.1,1.01 -1.45,1.72 V 65 h -2.53 V 50.21 Z"
   id="path1829" />
		<path
   class="st1"
   d="m 792.77,62.93 h 8.65 V 65 h -11.74 v -1.86 l 8.16,-10.84 h -8.04 v -2.09 h 11.21 V 52 Z"
   id="path1831" />
		<path
   class="st1"
   d="m 813.4,65 c -0.15,-0.29 -0.27,-0.81 -0.36,-1.56 -1.18,1.22 -2.58,1.83 -4.21,1.83 -1.46,0 -2.66,-0.41 -3.59,-1.24 -0.93,-0.83 -1.4,-1.87 -1.4,-3.14 0,-1.54 0.58,-2.74 1.76,-3.59 1.17,-0.85 2.82,-1.28 4.94,-1.28 H 813 v -1.16 c 0,-0.88 -0.27,-1.59 -0.79,-2.11 -0.53,-0.52 -1.31,-0.79 -2.34,-0.79 -0.9,0 -1.66,0.23 -2.27,0.68 -0.61,0.46 -0.92,1.01 -0.92,1.65 h -2.54 c 0,-0.74 0.26,-1.45 0.79,-2.14 0.52,-0.69 1.24,-1.23 2.13,-1.63 0.9,-0.4 1.88,-0.6 2.96,-0.6 1.7,0 3.04,0.43 4.01,1.28 0.96,0.85 1.47,2.03 1.5,3.52 v 6.81 c 0,1.36 0.17,2.44 0.52,3.24 V 65 Z m -4.2,-1.93 c 0.79,0 1.54,-0.21 2.26,-0.62 0.72,-0.41 1.22,-0.94 1.54,-1.6 v -3.04 h -1.98 c -3.1,0 -4.65,0.91 -4.65,2.72 0,0.79 0.26,1.41 0.79,1.86 0.53,0.46 1.21,0.68 2.04,0.68 z"
   id="path1833" />
		<path
   class="st1"
   d="m 651.99,91.29 3.45,-11.09 h 2.71 l -5.95,17.08 c -0.92,2.46 -2.38,3.69 -4.39,3.69 l -0.48,-0.04 -0.94,-0.18 V 98.7 l 0.68,0.05 c 0.86,0 1.52,-0.17 2,-0.52 0.48,-0.35 0.87,-0.98 1.18,-1.9 l 0.56,-1.5 -5.28,-14.63 h 2.76 z"
   id="path1835" />
		<path
   class="st1"
   d="m 676.46,95 c -0.15,-0.29 -0.27,-0.81 -0.36,-1.56 -1.18,1.22 -2.58,1.83 -4.21,1.83 -1.46,0 -2.66,-0.41 -3.59,-1.24 -0.93,-0.83 -1.4,-1.87 -1.4,-3.14 0,-1.54 0.58,-2.74 1.76,-3.59 1.17,-0.85 2.82,-1.28 4.94,-1.28 h 2.46 v -1.16 c 0,-0.88 -0.27,-1.59 -0.79,-2.11 -0.53,-0.53 -1.31,-0.79 -2.34,-0.79 -0.9,0 -1.66,0.23 -2.27,0.68 -0.61,0.46 -0.92,1.01 -0.92,1.65 h -2.54 c 0,-0.74 0.26,-1.45 0.79,-2.14 0.52,-0.69 1.24,-1.23 2.13,-1.63 0.9,-0.4 1.88,-0.6 2.96,-0.6 1.7,0 3.04,0.43 4.01,1.28 0.96,0.85 1.47,2.03 1.5,3.52 v 6.81 c 0,1.36 0.17,2.44 0.52,3.24 V 95 Z m -4.19,-1.93 c 0.79,0 1.54,-0.21 2.26,-0.62 0.72,-0.41 1.22,-0.94 1.54,-1.6 v -3.04 h -1.98 c -3.1,0 -4.65,0.91 -4.65,2.72 0,0.79 0.26,1.41 0.79,1.86 0.53,0.46 1.21,0.68 2.04,0.68 z"
   id="path1837" />
		<path
   class="st1"
   d="m 695.9,87.77 c 0,2.25 -0.52,4.07 -1.54,5.44 -1.03,1.38 -2.43,2.06 -4.18,2.06 -1.8,0 -3.21,-0.57 -4.24,-1.71 v 7.12 h -2.53 V 80.21 h 2.31 l 0.12,1.64 c 1.03,-1.28 2.46,-1.91 4.29,-1.91 1.78,0 3.18,0.67 4.22,2.01 1.04,1.34 1.55,3.21 1.55,5.59 z m -2.53,-0.29 c 0,-1.67 -0.36,-2.98 -1.07,-3.95 -0.71,-0.96 -1.69,-1.45 -2.93,-1.45 -1.53,0 -2.68,0.68 -3.45,2.04 v 7.07 c 0.76,1.35 1.91,2.02 3.47,2.02 1.21,0 2.18,-0.48 2.89,-1.44 0.73,-0.97 1.09,-2.39 1.09,-4.29 z"
   id="path1839" />
		<path
   class="st1"
   d="m 707.1,82.47 c -0.38,-0.06 -0.8,-0.1 -1.24,-0.1 -1.66,0 -2.79,0.71 -3.38,2.12 V 95 h -2.53 V 80.21 h 2.46 l 0.04,1.71 c 0.83,-1.32 2,-1.98 3.53,-1.98 0.49,0 0.87,0.06 1.12,0.19 z"
   id="path1841" />
		<path
   class="st1"
   d="m 716.14,95.27 c -2.01,0 -3.64,-0.66 -4.89,-1.97 -1.26,-1.32 -1.89,-3.08 -1.89,-5.29 v -0.46 c 0,-1.47 0.28,-2.78 0.84,-3.93 0.56,-1.15 1.34,-2.06 2.35,-2.71 1.01,-0.65 2.1,-0.98 3.27,-0.98 1.92,0 3.42,0.63 4.48,1.9 1.07,1.27 1.6,3.08 1.6,5.44 v 1.05 h -10.02 c 0.04,1.46 0.46,2.64 1.28,3.54 0.82,0.9 1.85,1.35 3.11,1.35 0.89,0 1.65,-0.18 2.27,-0.55 0.62,-0.36 1.16,-0.85 1.63,-1.45 l 1.54,1.2 c -1.23,1.91 -3.09,2.86 -5.57,2.86 z m -0.31,-13.26 c -1.02,0 -1.88,0.37 -2.57,1.12 -0.69,0.74 -1.12,1.78 -1.29,3.12 h 7.41 v -0.19 c -0.07,-1.29 -0.42,-2.28 -1.04,-2.99 -0.62,-0.71 -1.46,-1.06 -2.51,-1.06 z"
   id="path1843" />
		<path
   class="st1"
   d="m 728.07,80.21 0.08,1.86 c 1.13,-1.42 2.61,-2.13 4.43,-2.13 3.13,0 4.7,1.76 4.73,5.29 V 95 h -2.53 v -9.79 c -0.01,-1.07 -0.25,-1.85 -0.73,-2.37 -0.48,-0.51 -1.22,-0.77 -2.24,-0.77 -0.82,0 -1.54,0.22 -2.16,0.66 -0.62,0.44 -1.1,1.01 -1.45,1.72 V 95 h -2.53 V 80.21 Z"
   id="path1845" />
		<path
   class="st1"
   d="m 741.35,87.48 c 0,-2.27 0.54,-4.09 1.61,-5.47 1.08,-1.38 2.48,-2.07 4.22,-2.07 1.73,0 3.1,0.59 4.12,1.78 V 74 h 2.53 v 21 h -2.32 l -0.12,-1.59 c -1.01,1.24 -2.42,1.86 -4.22,1.86 -1.71,0 -3.11,-0.7 -4.19,-2.11 -1.08,-1.4 -1.62,-3.23 -1.62,-5.5 v -0.18 z m 2.53,0.29 c 0,1.68 0.35,2.99 1.04,3.94 0.69,0.95 1.65,1.42 2.87,1.42 1.6,0 2.78,-0.72 3.51,-2.16 v -6.79 c -0.76,-1.39 -1.92,-2.09 -3.49,-2.09 -1.24,0 -2.21,0.48 -2.9,1.44 -0.68,0.94 -1.03,2.36 -1.03,4.24 z"
   id="path1847" />
		<path
   class="st1"
   d="m 758.61,76.28 c 0,-0.41 0.12,-0.76 0.38,-1.04 0.25,-0.28 0.62,-0.42 1.11,-0.42 0.49,0 0.87,0.14 1.12,0.42 0.26,0.28 0.38,0.63 0.38,1.04 0,0.41 -0.13,0.75 -0.38,1.03 -0.25,0.27 -0.63,0.41 -1.12,0.41 -0.49,0 -0.86,-0.14 -1.11,-0.41 -0.25,-0.28 -0.38,-0.62 -0.38,-1.03 z M 761.35,95 h -2.53 V 80.21 h 2.53 z"
   id="path1849" />
		<path
   class="st1"
   d="m 768.61,92.93 h 8.65 V 95 h -11.74 v -1.86 l 8.16,-10.84 h -8.04 v -2.09 h 11.21 V 82 Z"
   id="path1851" />
		<path
   class="st1"
   d="m 790.08,95 c -0.15,-0.29 -0.26,-0.81 -0.36,-1.56 -1.18,1.22 -2.58,1.83 -4.21,1.83 -1.46,0 -2.66,-0.41 -3.59,-1.24 -0.93,-0.83 -1.4,-1.87 -1.4,-3.14 0,-1.54 0.58,-2.74 1.76,-3.59 1.17,-0.85 2.82,-1.28 4.94,-1.28 h 2.46 v -1.16 c 0,-0.88 -0.26,-1.59 -0.79,-2.11 -0.53,-0.53 -1.31,-0.79 -2.34,-0.79 -0.9,0 -1.66,0.23 -2.27,0.68 -0.61,0.46 -0.92,1.01 -0.92,1.65 h -2.54 c 0,-0.74 0.26,-1.45 0.79,-2.14 0.52,-0.69 1.23,-1.23 2.13,-1.63 0.9,-0.4 1.88,-0.6 2.96,-0.6 1.7,0 3.04,0.43 4.01,1.28 0.97,0.85 1.47,2.03 1.5,3.52 v 6.81 c 0,1.36 0.17,2.44 0.52,3.24 V 95 Z m -4.19,-1.93 c 0.79,0 1.54,-0.21 2.26,-0.62 0.72,-0.41 1.23,-0.94 1.54,-1.6 v -3.04 h -1.98 c -3.1,0 -4.65,0.91 -4.65,2.72 0,0.79 0.26,1.41 0.79,1.86 0.53,0.46 1.21,0.68 2.04,0.68 z"
   id="path1853" />
		<path
   class="st1"
   d="m 799.63,80.21 v 16.5 c 0,2.84 -1.29,4.27 -3.87,4.27 -0.56,0 -1.07,-0.08 -1.54,-0.24 v -2.01 c 0.29,0.07 0.67,0.11 1.15,0.11 0.57,0 1,-0.15 1.29,-0.46 0.3,-0.31 0.44,-0.84 0.44,-1.6 V 80.21 Z m -2.79,-3.93 c 0,-0.4 0.12,-0.74 0.38,-1.03 0.25,-0.29 0.62,-0.43 1.1,-0.43 0.49,0 0.87,0.14 1.12,0.42 0.25,0.28 0.38,0.63 0.38,1.04 0,0.41 -0.13,0.75 -0.38,1.03 -0.25,0.28 -0.63,0.41 -1.12,0.41 -0.49,0 -0.86,-0.14 -1.11,-0.41 -0.25,-0.27 -0.37,-0.62 -0.37,-1.03 z"
   id="path1855" />
		<path
   class="st1"
   d="m 810.68,95.27 c -2,0 -3.64,-0.66 -4.89,-1.97 -1.26,-1.32 -1.89,-3.08 -1.89,-5.29 v -0.46 c 0,-1.47 0.28,-2.78 0.84,-3.93 0.56,-1.15 1.34,-2.06 2.35,-2.71 1.01,-0.65 2.1,-0.98 3.27,-0.98 1.92,0 3.42,0.63 4.48,1.9 1.07,1.27 1.6,3.08 1.6,5.44 v 1.05 h -10.02 c 0.04,1.46 0.46,2.64 1.28,3.54 0.82,0.9 1.85,1.35 3.11,1.35 0.89,0 1.65,-0.18 2.27,-0.55 0.62,-0.36 1.16,-0.85 1.63,-1.45 l 1.54,1.2 c -1.23,1.91 -3.09,2.86 -5.57,2.86 z m -0.31,-13.26 c -1.02,0 -1.88,0.37 -2.57,1.12 -0.69,0.74 -1.12,1.78 -1.29,3.12 h 7.41 v -0.19 c -0.07,-1.29 -0.42,-2.28 -1.04,-2.99 -0.61,-0.71 -1.45,-1.06 -2.51,-1.06 z"
   id="path1857" />
	</g><g
   id="g2335">
		<g
   id="g1961">
			<g
   id="g1925">
				<g
   id="g1863">
					<circle
   class="st0"
   cx="416.10999"
   cy="19.860001"
   r="2.6300001"
   id="circle1861" />
				</g>
				<g
   id="g1867">
					<circle
   class="st0"
   cx="450.47"
   cy="19.860001"
   r="2.6300001"
   id="circle1865" />
				</g>
				<g
   id="g1871">
					<circle
   class="st0"
   cx="484.84"
   cy="19.860001"
   r="2.6300001"
   id="circle1869" />
				</g>
				<g
   id="g1875">
					<circle
   class="st0"
   cx="519.21002"
   cy="19.860001"
   r="2.6300001"
   id="circle1873" />
				</g>
				<g
   id="g1879">
					<circle
   class="st0"
   cx="416.10999"
   cy="53.93"
   r="2.6300001"
   id="circle1877" />
				</g>
				<g
   id="g1883">
					<circle
   class="st0"
   cx="450.47"
   cy="53.93"
   r="2.6300001"
   id="circle1881" />
				</g>
				<g
   id="g1887">
					<circle
   class="st0"
   cx="484.84"
   cy="53.93"
   r="2.6300001"
   id="circle1885" />
				</g>
				<g
   id="g1891">
					<circle
   class="st0"
   cx="519.21002"
   cy="53.93"
   r="2.6300001"
   id="circle1889" />
				</g>
				<g
   id="g1895">
					<path
   class="st0"
   d="m 418.74,88 c 0,1.46 -1.18,2.63 -2.63,2.63 -1.46,0 -2.63,-1.18 -2.63,-2.63 0,-1.46 1.18,-2.63 2.63,-2.63 1.45,-0.01 2.63,1.17 2.63,2.63 z"
   id="path1893" />
				</g>
				<g
   id="g1899">
					<path
   class="st0"
   d="m 453.11,88 c 0,1.46 -1.18,2.63 -2.63,2.63 -1.46,0 -2.63,-1.18 -2.63,-2.63 0,-1.46 1.18,-2.63 2.63,-2.63 1.45,-0.01 2.63,1.17 2.63,2.63 z"
   id="path1897" />
				</g>
				<g
   id="g1903">
					<path
   class="st0"
   d="m 487.48,88 c 0,1.46 -1.18,2.63 -2.63,2.63 -1.46,0 -2.63,-1.18 -2.63,-2.63 0,-1.46 1.18,-2.63 2.63,-2.63 1.45,-0.01 2.63,1.17 2.63,2.63 z"
   id="path1901" />
				</g>
				<g
   id="g1907">
					<path
   class="st0"
   d="m 521.84,88 c 0,1.46 -1.18,2.63 -2.63,2.63 -1.46,0 -2.63,-1.18 -2.63,-2.63 0,-1.46 1.18,-2.63 2.63,-2.63 1.45,-0.01 2.63,1.17 2.63,2.63 z"
   id="path1905" />
				</g>
				<g
   id="g1911">
					<path
   class="st0"
   d="m 418.74,122.06 c 0,1.46 -1.18,2.63 -2.63,2.63 -1.46,0 -2.63,-1.18 -2.63,-2.63 0,-1.46 1.18,-2.63 2.63,-2.63 1.45,0 2.63,1.18 2.63,2.63 z"
   id="path1909" />
				</g>
				<g
   id="g1915">
					<path
   class="st0"
   d="m 453.11,122.06 c 0,1.46 -1.18,2.63 -2.63,2.63 -1.46,0 -2.63,-1.18 -2.63,-2.63 0,-1.46 1.18,-2.63 2.63,-2.63 1.45,0 2.63,1.18 2.63,2.63 z"
   id="path1913" />
				</g>
				<g
   id="g1919">
					<path
   class="st0"
   d="m 487.48,122.06 c 0,1.46 -1.18,2.63 -2.63,2.63 -1.46,0 -2.63,-1.18 -2.63,-2.63 0,-1.46 1.18,-2.63 2.63,-2.63 1.45,0 2.63,1.18 2.63,2.63 z"
   id="path1917" />
				</g>
				<g
   id="g1923">
					<path
   class="st0"
   d="m 521.84,122.06 c 0,1.46 -1.18,2.63 -2.63,2.63 -1.46,0 -2.63,-1.18 -2.63,-2.63 0,-1.46 1.18,-2.63 2.63,-2.63 1.45,0 2.63,1.18 2.63,2.63 z"
   id="path1921" />
				</g>
			</g>
			<g
   id="g1959">
				<g
   id="g1929">
					<circle
   class="st0"
   cx="551.45001"
   cy="19.860001"
   r="2.6300001"
   id="circle1927" />
				</g>
				<g
   id="g1933">
					<circle
   class="st0"
   cx="585.82001"
   cy="19.860001"
   r="2.6300001"
   id="circle1931" />
				</g>
				<g
   id="g1937">
					<circle
   class="st0"
   cx="551.45001"
   cy="53.93"
   r="2.6300001"
   id="circle1935" />
				</g>
				<g
   id="g1941">
					<circle
   class="st0"
   cx="585.82001"
   cy="53.93"
   r="2.6300001"
   id="circle1939" />
				</g>
				<g
   id="g1945">
					<path
   class="st0"
   d="m 554.09,88 c 0,1.46 -1.18,2.63 -2.63,2.63 -1.46,0 -2.63,-1.18 -2.63,-2.63 0,-1.46 1.18,-2.63 2.63,-2.63 1.45,-0.01 2.63,1.17 2.63,2.63 z"
   id="path1943" />
				</g>
				<g
   id="g1949">
					<path
   class="st0"
   d="m 588.45,88 c 0,1.46 -1.18,2.63 -2.63,2.63 -1.46,0 -2.63,-1.18 -2.63,-2.63 0,-1.46 1.18,-2.63 2.63,-2.63 1.45,-0.01 2.63,1.17 2.63,2.63 z"
   id="path1947" />
				</g>
				<g
   id="g1953">
					<path
   class="st0"
   d="m 554.09,122.06 c 0,1.46 -1.18,2.63 -2.63,2.63 -1.46,0 -2.63,-1.18 -2.63,-2.63 0,-1.46 1.18,-2.63 2.63,-2.63 1.45,0 2.63,1.18 2.63,2.63 z"
   id="path1951" />
				</g>
				<g
   id="g1957">
					<path
   class="st0"
   d="m 588.45,122.06 c 0,1.46 -1.18,2.63 -2.63,2.63 -1.46,0 -2.63,-1.18 -2.63,-2.63 0,-1.46 1.18,-2.63 2.63,-2.63 1.45,0 2.63,1.18 2.63,2.63 z"
   id="path1955" />
				</g>
			</g>
		</g>
		<g
   id="g2333">
			<defs
   id="defs1964">
				<rect
   id="SVGID_00000168108994335145886450000005734766230756769457_"
   x="448.92999"
   y="0"
   width="183.23"
   height="150" />
			</defs>
			<clipPath
   id="SVGID_00000181770724737485003090000005768494590768059805_">
				<use
   xlink:href="#SVGID_00000168108994335145886450000005734766230756769457_"
   style="overflow:visible"
   id="use1966"
   x="0"
   y="0"
   width="100%"
   height="100%" />
			</clipPath>
			<g
   clip-path="url(#SVGID_00000181770724737485003090000005768494590768059805_)"
   id="g2331">
				<g
   id="g2085">
					<g
   class="st3"
   id="g2083">
						<g
   id="g1973">
							<g
   id="g1971">
								<path
   class="st4"
   d="m 579.52,93.13 c 0.03,0.46 0.04,0.61 0.02,0.84 -0.02,0.24 -0.05,0.57 -0.08,0.81 -0.02,0.13 -0.05,0.3 -0.08,0.42 -0.16,0.74 -0.47,1.49 -0.71,1.94 -0.46,0.87 -0.93,1.41 -1.17,1.65 -0.26,0.26 -0.44,0.44 -0.89,0.77 -0.11,0.08 -0.36,0.25 -0.77,0.46 0.21,-0.1 0.33,-0.32 0.3,-0.62 1.91,-0.92 3.31,-3.59 3.09,-5.91 0.21,-0.08 0.31,-0.21 0.29,-0.36 z"
   id="path1969" />
							</g>
						</g>
						<g
   id="g1979">
							<g
   id="g1977">
								<path
   class="st4"
   d="m 572.57,19.7 0.7,7.34 0.7,7.34 0.7,7.34 0.7,7.34 0.7,7.34 0.7,7.34 0.7,7.34 0.7,7.34 0.7,7.34 0.7,7.34 c 0.01,0.14 -0.08,0.28 -0.29,0.38 l -6.95,-73.43 c 0.16,-0.07 0.25,-0.21 0.24,-0.35 z"
   id="path1975" />
							</g>
						</g>
						<g
   id="g1985">
							<g
   id="g1983">
								<path
   class="st5"
   d="m 565.8,15.72 c 0.4,-0.18 0.52,-0.23 0.92,-0.34 0.31,-0.08 0.67,-0.12 0.83,-0.13 0.61,-0.02 1.17,0.03 1.92,0.33 -0.81,-0.34 -1.79,-0.31 -2.8,0.18 -0.34,-0.13 -0.66,-0.14 -0.87,-0.04 z"
   id="path1981" />
							</g>
						</g>
						<g
   id="g1991">
							<g
   id="g1989">
								<path
   class="st4"
   d="m 569.48,15.6 0.32,0.13 c -0.81,-0.34 -1.79,-0.31 -2.8,0.18 l -0.32,-0.13 c 1.01,-0.49 1.99,-0.52 2.8,-0.18 z"
   id="path1987" />
							</g>
						</g>
						<g
   id="g1997">
							<g
   id="g1995">
								<path
   class="st6"
   d="m 569.8,15.73 c 0.31,0.14 0.35,0.16 0.48,0.24 0.21,0.13 0.39,0.25 0.54,0.36 0.35,0.28 0.64,0.58 0.87,0.91 0.18,0.26 0.74,1.06 0.88,2.46 0.01,0.14 -0.08,0.28 -0.29,0.38 -0.22,-2.31 -1.98,-3.46 -3.89,-2.53 -0.06,-0.61 -0.68,-1.34 -1.39,-1.64 1.01,-0.48 1.99,-0.52 2.8,-0.18 z"
   id="path1993" />
							</g>
						</g>
						<g
   id="g2003">
							<g
   id="g2001">
								<path
   class="st5"
   d="m 575.85,100.03 -7.42,3.59 -7.42,3.59 -7.42,3.59 -7.42,3.59 -7.42,3.59 -7.42,3.59 -7.42,3.59 -7.42,3.59 -7.42,3.59 -7.42,3.59 c 0.21,-0.1 0.33,-0.32 0.3,-0.62 l 74.2,-35.93 c 0.02,0.34 -0.09,0.55 -0.3,0.65 z"
   id="path1999" />
							</g>
						</g>
						<g
   id="g2009">
							<g
   id="g2007">
								<path
   class="st7"
   d="m 497.65,135.96 c -0.28,-0.13 -0.37,-0.17 -0.57,-0.29 -0.23,-0.14 -0.42,-0.28 -0.53,-0.38 -0.46,-0.38 -0.73,-0.76 -0.85,-0.94 -0.05,-0.08 -0.34,-0.5 -0.54,-1.08 -0.19,-0.56 -0.24,-0.97 -0.27,-1.28 0.02,0.2 0.25,0.42 0.66,0.6 0.16,1.7 0.97,2.9 2.1,3.37 z"
   id="path2005" />
							</g>
						</g>
						<g
   id="g2015">
							<g
   id="g2013">
								<path
   class="st4"
   d="m 497.97,136.1 -0.32,-0.13 c -1.13,-0.47 -1.94,-1.67 -2.1,-3.37 l 0.32,0.13 c 0.16,1.7 0.97,2.89 2.1,3.37 z"
   id="path2011" />
							</g>
						</g>
						<g
   id="g2021">
							<g
   id="g2019">
								<path
   class="st8"
   d="m 501.65,135.97 c -0.4,0.18 -0.51,0.23 -0.92,0.34 -0.27,0.07 -0.65,0.12 -0.81,0.12 -0.23,0.01 -0.56,0.02 -0.95,-0.05 -0.32,-0.06 -0.58,-0.12 -0.99,-0.28 -1.13,-0.47 -1.94,-1.67 -2.1,-3.37 0.71,0.3 1.69,0.34 2.19,0.1 0.22,2.32 1.97,3.46 3.89,2.53 0.01,0.29 -0.1,0.5 -0.31,0.61 z"
   id="path2017" />
							</g>
						</g>
						<g
   id="g2027">
							<g
   id="g2025">
								<path
   class="st5"
   d="m 491.6,51.66 7.42,-3.59 7.42,-3.59 7.42,-3.59 7.42,-3.59 7.42,-3.59 7.42,-3.59 7.42,-3.59 7.42,-3.59 7.42,-3.59 7.42,-3.59 c 0.21,-0.1 0.52,-0.09 0.88,0.06 l -74.2,35.93 c -0.35,-0.19 -0.66,-0.2 -0.88,-0.09 z"
   id="path2023" />
							</g>
						</g>
						<g
   id="g2033">
							<g
   id="g2031">
								<polygon
   class="st4"
   points="566.68,15.78 567,15.92 492.8,51.85 492.48,51.71 "
   id="polygon2029" />
							</g>
						</g>
						<g
   id="g2039">
							<g
   id="g2037">
								<path
   class="st5"
   d="m 494.88,131.99 -0.7,-7.34 -0.7,-7.34 -0.7,-7.34 -0.7,-7.34 -0.7,-7.34 -0.7,-7.34 -0.7,-7.34 -0.7,-7.34 -0.7,-7.34 -0.7,-7.34 c 0.02,0.2 0.25,0.42 0.66,0.6 l 6.95,73.43 c -0.36,-0.2 -0.59,-0.42 -0.61,-0.63 z"
   id="path2035" />
							</g>
						</g>
						<g
   id="g2045">
							<g
   id="g2043">
								<polygon
   class="st4"
   points="488.59,59.16 488.91,59.29 495.87,132.73 495.54,132.59 "
   id="polygon2041" />
							</g>
						</g>
						<g
   id="g2051">
							<g
   id="g2049">
								<path
   class="st6"
   d="m 494.19,53.48 c -0.06,-0.61 -0.68,-1.34 -1.39,-1.64 L 567,15.92 c 0.71,0.3 1.33,1.03 1.39,1.64 z"
   id="path2047" />
							</g>
						</g>
						<g
   id="g2057">
							<g
   id="g2055">
								<path
   class="st6"
   d="m 498.06,132.82 c -0.5,0.24 -1.48,0.2 -2.19,-0.1 l -6.95,-73.43 c 0.71,0.3 1.69,0.34 2.19,0.1 z"
   id="path2053" />
							</g>
						</g>
						<g
   id="g2063">
							<g
   id="g2061">
								<path
   class="st5"
   d="m 487.93,58.56 c -0.03,-0.45 -0.04,-0.61 -0.02,-0.84 0.02,-0.24 0.05,-0.57 0.08,-0.81 0.02,-0.13 0.05,-0.3 0.08,-0.42 0.16,-0.74 0.47,-1.49 0.71,-1.94 0.46,-0.87 0.93,-1.41 1.17,-1.65 0.26,-0.26 0.44,-0.44 0.89,-0.77 0.11,-0.08 0.36,-0.25 0.77,-0.46 0.21,-0.1 0.52,-0.09 0.88,0.06 -2.42,1.17 -4.17,4.52 -3.89,7.44 -0.42,-0.19 -0.65,-0.41 -0.67,-0.61 z"
   id="path2059" />
							</g>
						</g>
						<g
   id="g2069">
							<g
   id="g2067">
								<path
   class="st4"
   d="m 488.91,59.29 -0.32,-0.13 c -0.28,-2.92 1.48,-6.27 3.89,-7.44 l 0.32,0.13 c -2.41,1.17 -4.17,4.52 -3.89,7.44 z"
   id="path2065" />
							</g>
						</g>
						<g
   id="g2075">
							<g
   id="g2073">
								<path
   class="st6"
   d="m 491.1,59.39 c -0.5,0.24 -1.48,0.2 -2.19,-0.1 -0.28,-2.92 1.48,-6.27 3.89,-7.44 0.71,0.3 1.33,1.03 1.39,1.64 -1.91,0.92 -3.31,3.59 -3.09,5.9 z"
   id="path2071" />
							</g>
						</g>
						<g
   id="g2081">
							<g
   id="g2079">
								<path
   class="st0"
   d="m 568.39,17.55 c 1.91,-0.93 3.67,0.21 3.89,2.53 2.32,24.48 4.64,48.96 6.95,73.43 0.22,2.31 -1.18,4.98 -3.09,5.91 -24.73,11.98 -49.47,23.96 -74.2,35.93 -1.91,0.93 -3.67,-0.21 -3.89,-2.53 -2.32,-24.48 -4.64,-48.96 -6.95,-73.43 -0.22,-2.31 1.17,-4.98 3.09,-5.91 24.74,-11.97 49.47,-23.95 74.2,-35.93 z"
   id="path2077" />
							</g>
						</g>
					</g>
				</g>
				<g
   id="g2203">
					<g
   class="st3"
   id="g2201">
						<g
   id="g2091">
							<g
   id="g2089">
								<path
   class="st6"
   d="m 579.85,94 c 0.01,0.07 -0.04,0.14 -0.15,0.2 0.17,1.79 -0.91,3.86 -2.4,4.58 0.01,0.16 -0.05,0.27 -0.15,0.32 0.64,-0.32 1,-0.69 1.2,-0.89 0.18,-0.18 0.53,-0.59 0.87,-1.23 0.09,-0.16 0.38,-0.75 0.53,-1.44 0.08,-0.4 0.1,-0.6 0.12,-0.91 0.01,-0.18 0,-0.3 -0.02,-0.63 z"
   id="path2087" />
							</g>
						</g>
						<g
   id="g2097">
							<g
   id="g2095">
								<path
   class="st6"
   d="m 572.92,20.79 0.69,7.32 0.69,7.32 0.69,7.32 0.69,7.32 0.69,7.32 0.69,7.32 0.69,7.32 0.69,7.32 0.69,7.32 0.69,7.32 c 0.01,0.07 -0.04,0.14 -0.15,0.2 l -6.93,-73.21 c 0.13,-0.05 0.18,-0.12 0.18,-0.19 z"
   id="path2093" />
							</g>
						</g>
						<g
   id="g2103">
							<g
   id="g2101">
								<path
   class="st9"
   d="m 568.41,18.08 c 0.28,-0.12 0.36,-0.16 0.64,-0.24 0.19,-0.05 0.43,-0.08 0.57,-0.09 0.46,-0.02 0.84,0.05 1.26,0.22 -0.59,-0.25 -1.29,-0.22 -2.02,0.13 -0.18,-0.07 -0.34,-0.07 -0.45,-0.02 z"
   id="path2099" />
							</g>
						</g>
						<g
   id="g2109">
							<g
   id="g2107">
								<path
   class="st10"
   d="m 570.88,17.98 0.17,0.07 c -0.59,-0.25 -1.29,-0.22 -2.02,0.13 l -0.17,-0.07 c 0.74,-0.35 1.44,-0.38 2.02,-0.13 z"
   id="path2105" />
							</g>
						</g>
						<g
   id="g2115">
							<g
   id="g2113">
								<path
   class="st0"
   d="m 571.05,18.05 c 0.35,0.16 0.49,0.24 0.81,0.51 0.25,0.21 0.45,0.5 0.51,0.6 0.17,0.25 0.46,0.78 0.54,1.63 0.01,0.07 -0.04,0.14 -0.15,0.2 -0.17,-1.79 -1.53,-2.68 -3.01,-1.96 -0.03,-0.31 -0.35,-0.69 -0.72,-0.85 0.73,-0.35 1.43,-0.38 2.02,-0.13 z"
   id="path2111" />
							</g>
						</g>
						<g
   id="g2121">
							<g
   id="g2119">
								<path
   class="st6"
   d="m 577.15,99.09 -7.41,3.59 -7.41,3.59 -7.41,3.59 -7.41,3.59 -7.41,3.59 -7.41,3.59 -7.41,3.59 -7.41,3.59 -7.41,3.59 -7.41,3.59 c 0.11,-0.05 0.17,-0.16 0.15,-0.32 l 74.11,-35.89 c 0.01,0.15 -0.05,0.26 -0.16,0.31 z"
   id="path2117" />
							</g>
						</g>
						<g
   id="g2127">
							<g
   id="g2125">
								<path
   class="st11"
   d="m 500.4,135.02 c -0.27,-0.12 -0.82,-0.37 -1.29,-1.07 -0.46,-0.67 -0.54,-1.38 -0.57,-1.68 0.01,0.11 0.13,0.22 0.34,0.31 0.12,1.23 0.71,2.09 1.52,2.44 z"
   id="path2123" />
							</g>
						</g>
						<g
   id="g2133">
							<g
   id="g2131">
								<path
   class="st12"
   d="m 500.57,135.09 -0.17,-0.07 c -0.81,-0.34 -1.4,-1.2 -1.52,-2.43 l 0.17,0.07 c 0.11,1.22 0.7,2.08 1.52,2.43 z"
   id="path2129" />
							</g>
						</g>
						<g
   id="g2139">
							<g
   id="g2137">
								<path
   class="st12"
   d="m 503.04,134.98 c -0.29,0.13 -0.36,0.16 -0.64,0.24 -0.17,0.05 -0.41,0.08 -0.55,0.09 -0.48,0.02 -0.84,-0.04 -1.28,-0.22 -0.81,-0.34 -1.4,-1.2 -1.52,-2.43 0.37,0.15 0.88,0.18 1.14,0.05 0.17,1.79 1.53,2.68 3.01,1.96 0.01,0.15 -0.05,0.26 -0.16,0.31 z"
   id="path2135" />
							</g>
						</g>
						<g
   id="g2145">
							<g
   id="g2143">
								<path
   class="st9"
   d="m 494.3,53.97 7.41,-3.59 7.41,-3.59 7.41,-3.59 7.41,-3.59 7.41,-3.59 7.41,-3.59 7.41,-3.59 7.41,-3.59 7.41,-3.59 7.41,-3.59 c 0.11,-0.05 0.27,-0.05 0.46,0.03 L 494.76,54 c -0.19,-0.08 -0.35,-0.08 -0.46,-0.03 z"
   id="path2141" />
							</g>
						</g>
						<g
   id="g2151">
							<g
   id="g2149">
								<polygon
   class="st10"
   points="568.86,18.11 569.03,18.18 494.92,54.07 494.76,54 "
   id="polygon2147" />
							</g>
						</g>
						<g
   id="g2157">
							<g
   id="g2155">
								<path
   class="st9"
   d="m 498.54,132.27 c -2.31,-24.4 -4.62,-48.81 -6.93,-73.21 0.01,0.11 0.13,0.22 0.34,0.31 l 6.93,73.21 c -0.21,-0.09 -0.33,-0.2 -0.34,-0.31 z"
   id="path2153" />
							</g>
						</g>
						<g
   id="g2163">
							<g
   id="g2161">
								<polygon
   class="st10"
   points="491.95,59.37 492.11,59.44 499.05,132.65 498.88,132.58 "
   id="polygon2159" />
							</g>
						</g>
						<g
   id="g2169">
							<g
   id="g2167">
								<path
   class="st0"
   d="m 495.65,54.92 c -0.03,-0.31 -0.35,-0.69 -0.72,-0.85 l 74.11,-35.89 c 0.37,0.15 0.69,0.53 0.72,0.85 z"
   id="path2165" />
							</g>
						</g>
						<g
   id="g2175">
							<g
   id="g2173">
								<path
   class="st0"
   d="m 500.19,132.7 c -0.26,0.13 -0.77,0.1 -1.14,-0.05 l -6.93,-73.21 c 0.37,0.15 0.88,0.18 1.14,0.05 z"
   id="path2171" />
							</g>
						</g>
						<g
   id="g2181">
							<g
   id="g2179">
								<path
   class="st9"
   d="m 491.6,59.06 c -0.02,-0.33 -0.03,-0.45 -0.02,-0.62 0.02,-0.34 0.04,-0.53 0.12,-0.91 0.15,-0.69 0.44,-1.28 0.53,-1.44 0.34,-0.64 0.69,-1.04 0.87,-1.23 0.2,-0.2 0.56,-0.58 1.2,-0.89 0.11,-0.05 0.27,-0.05 0.46,0.03 -1.74,0.84 -3.01,3.26 -2.81,5.37 -0.22,-0.09 -0.34,-0.2 -0.35,-0.31 z"
   id="path2177" />
							</g>
						</g>
						<g
   id="g2187">
							<g
   id="g2185">
								<path
   class="st10"
   d="m 492.11,59.44 -0.17,-0.07 c -0.2,-2.11 1.07,-4.53 2.81,-5.37 l 0.17,0.07 c -1.74,0.84 -3.01,3.26 -2.81,5.37 z"
   id="path2183" />
							</g>
						</g>
						<g
   id="g2193">
							<g
   id="g2191">
								<path
   class="st0"
   d="m 493.25,59.49 c -0.26,0.13 -0.77,0.1 -1.14,-0.05 -0.2,-2.11 1.07,-4.53 2.81,-5.37 0.37,0.15 0.69,0.53 0.72,0.85 -1.48,0.71 -2.56,2.78 -2.39,4.57 z"
   id="path2189" />
							</g>
						</g>
						<g
   id="g2199">
							<g
   id="g2197">
								<path
   class="st10"
   d="m 569.75,19.03 c 1.48,-0.72 2.84,0.16 3.01,1.96 2.31,24.4 4.62,48.81 6.93,73.21 0.17,1.79 -0.91,3.86 -2.4,4.58 -24.7,11.96 -49.4,23.93 -74.11,35.89 -1.48,0.72 -2.84,-0.16 -3.01,-1.96 -2.31,-24.4 -4.62,-48.81 -6.93,-73.21 -0.17,-1.79 0.91,-3.86 2.39,-4.58 24.72,-11.97 49.42,-23.93 74.12,-35.89 z"
   id="path2195" />
							</g>
						</g>
					</g>
				</g>
				<g
   class="st3"
   id="g2273">
					<g
   id="g2271">
						<g
   id="g2207">
							<path
   class="st13"
   d="m 507.81,120.35 -3.03,-31.99 31.67,-15.34 3.03,31.99 z m 38.37,-18.58 -3.03,-31.99 25.44,-12.32 3.03,31.99 z m -42.31,-22.42 -1.74,-18.39 63.88,-30.75 1.74,18.39 -3.58,1.73 -59.42,28.59 z"
   id="path2205" />
						</g>
						<g
   id="g2213">
							<g
   id="g2211">
								<path
   class="st14"
   d="m 556.6,71.3 c -2.5,1.21 -4.29,4.63 -4,7.65 0.29,3.02 2.54,4.48 5.04,3.27 1.84,-0.89 3.29,-2.98 3.82,-5.22 0.19,-0.8 0.26,-1.63 0.18,-2.43 -0.16,-1.73 -0.98,-2.95 -2.11,-3.45 -0.85,-0.36 -1.87,-0.33 -2.93,0.18 z m -3.57,23.81 -0.2,-2.1 11.14,-5.39 0.2,2.1 z m 5.1,-7.63 c -4.9,2.37 -9.33,-0.5 -9.89,-6.42 -0.56,-5.92 2.96,-12.64 7.86,-15.02 0.08,-0.04 0.15,-0.07 0.23,-0.11 0.15,-0.07 0.3,-0.13 0.45,-0.19 0.08,-0.03 0.15,-0.06 0.23,-0.08 0.15,-0.06 0.3,-0.11 0.45,-0.15 0.14,-0.04 0.28,-0.08 0.42,-0.11 l 0.04,-0.01 c 0.07,-0.02 0.14,-0.03 0.21,-0.04 0.15,-0.03 0.29,-0.06 0.44,-0.08 0.14,-0.02 0.29,-0.03 0.43,-0.04 0.07,-0.01 0.14,-0.01 0.22,-0.01 0.14,-0.01 0.28,-0.01 0.42,0 0.14,0 0.28,0.01 0.41,0.02 0.07,0 0.14,0.01 0.21,0.02 0.41,0.05 0.8,0.14 1.17,0.28 0.06,0.02 0.12,0.04 0.19,0.07 0.08,0.03 0.15,0.06 0.23,0.09 v 0 c 2.23,0.98 3.83,3.37 4.15,6.77 0.15,1.56 0.01,3.18 -0.36,4.77 l -0.01,0.02 c -0.03,0.13 -0.06,0.26 -0.1,0.39 -0.03,0.11 -0.05,0.21 -0.08,0.31 -0.2,0.69 -0.43,1.38 -0.72,2.04 -0.03,0.07 -0.06,0.14 -0.09,0.21 -0.1,0.22 -0.2,0.44 -0.3,0.66 -0.05,0.1 -0.1,0.21 -0.15,0.31 -0.11,0.22 -0.22,0.43 -0.34,0.64 -0.05,0.09 -0.09,0.16 -0.14,0.25 l -0.01,0.01 c -0.09,0.16 -0.19,0.32 -0.3,0.48 -0.05,0.08 -0.1,0.16 -0.15,0.24 -0.1,0.16 -0.21,0.32 -0.32,0.47 -0.33,0.46 -0.67,0.9 -1.04,1.31 -0.06,0.07 -0.12,0.14 -0.18,0.2 -0.18,0.2 -0.37,0.4 -0.57,0.59 -0.2,0.19 -0.4,0.37 -0.6,0.55 -0.2,0.17 -0.4,0.33 -0.61,0.49 l -0.04,0.03 c -0.07,0.05 -0.13,0.09 -0.2,0.14 -0.07,0.05 -0.14,0.1 -0.22,0.15 -0.07,0.05 -0.14,0.1 -0.22,0.14 -0.07,0.05 -0.15,0.1 -0.22,0.14 -0.07,0.05 -0.15,0.09 -0.22,0.13 -0.22,0.11 -0.45,0.23 -0.68,0.34 z m 10.46,-30.02 -25.44,12.32 3.03,31.99 25.44,-12.32 z"
   id="path2209" />
							</g>
						</g>
						<g
   id="g2219">
							<g
   id="g2217">
								<path
   class="st14"
   d="m 509.59,111.56 -0.2,-2.1 13.06,-6.32 0.2,2.1 z m -0.46,-4.83 -0.2,-2.1 26.68,-12.92 0.2,2.1 z m -0.45,-4.82 -0.2,-2.1 26.68,-12.92 0.2,2.1 z m -0.46,-4.83 -0.2,-2.1 26.68,-12.92 0.2,2.1 z m -0.46,-4.82 -0.2,-2.1 26.68,-12.92 0.2,2.1 z m 28.7,-19.24 -31.67,15.34 3.03,31.99 31.67,-15.34 z"
   id="path2215" />
							</g>
						</g>
						<g
   id="g2225">
							<g
   id="g2223">
								<path
   class="st14"
   d="m 506.28,73.96 -0.25,-2.68 50.36,-24.21 0.25,2.68 z m -0.66,-6.92 -0.38,-3.99 40.51,-19.43 0.38,3.99 z m 43.3,-20.79 -0.38,-3.99 11.8,-5.71 0.38,3.99 z m 17.09,-16.04 -63.88,30.75 1.74,18.39 0.88,-0.43 59.42,-28.59 3.58,-1.73 z"
   id="path2221" />
							</g>
						</g>
						<g
   id="g2229">
							<polygon
   class="st9"
   points="505.62,67.04 546.13,47.61 545.75,43.61 505.25,63.05 "
   id="polygon2227" />
						</g>
						<g
   id="g2233">
							<polygon
   class="st9"
   points="506.28,73.96 556.64,49.76 556.39,47.07 506.03,71.28 "
   id="polygon2231" />
						</g>
						<g
   id="g2237">
							<polygon
   class="st9"
   points="507.76,92.26 534.45,79.34 534.25,77.23 507.56,90.16 "
   id="polygon2235" />
						</g>
						<g
   id="g2241">
							<polygon
   class="st9"
   points="508.22,97.08 534.9,84.16 534.7,82.06 508.02,94.98 "
   id="polygon2239" />
						</g>
						<g
   id="g2245">
							<polygon
   class="st9"
   points="508.68,101.91 535.36,88.99 535.16,86.88 508.48,99.81 "
   id="polygon2243" />
						</g>
						<g
   id="g2249">
							<polygon
   class="st9"
   points="509.13,106.73 535.82,93.81 535.62,91.71 508.93,104.63 "
   id="polygon2247" />
						</g>
						<g
   id="g2253">
							<polygon
   class="st9"
   points="509.59,111.56 522.65,105.23 522.45,103.13 509.39,109.45 "
   id="polygon2251" />
						</g>
						<g
   id="g2257">
							<polygon
   class="st9"
   points="553.03,95.11 564.17,89.71 563.97,87.61 552.83,93.01 "
   id="polygon2255" />
						</g>
						<g
   id="g2261">
							<polygon
   class="st9"
   points="548.92,46.25 560.72,40.54 560.35,36.54 548.55,42.26 "
   id="polygon2259" />
						</g>
						<g
   id="g2265">
							<path
   class="st9"
   d="m 561.84,65.7 -2.32,5.43 c -0.84,-0.37 -1.86,-0.34 -2.92,0.18 -2.5,1.21 -4.29,4.63 -4,7.65 -0.29,-3.02 1.51,-6.44 4,-7.65 1.06,-0.52 2.08,-0.54 2.92,-0.18 1.14,0.5 1.95,1.72 2.11,3.45 0.08,0.8 0.01,1.62 -0.18,2.43 l 4.17,0.23 -0.01,0.02 c -0.03,0.13 -0.06,0.26 -0.1,0.39 -0.03,0.11 -0.05,0.21 -0.08,0.31 -0.2,0.69 -0.43,1.38 -0.72,2.04 -0.03,0.07 -0.06,0.14 -0.09,0.21 -0.1,0.22 -0.2,0.44 -0.3,0.66 -0.05,0.1 -0.1,0.21 -0.15,0.31 -0.11,0.22 -0.22,0.43 -0.34,0.64 -0.05,0.09 -0.09,0.16 -0.14,0.25 l -0.01,0.01 c -0.09,0.16 -0.19,0.32 -0.3,0.48 -0.05,0.08 -0.1,0.16 -0.15,0.24 0.05,-0.08 0.1,-0.16 0.15,-0.24 0.1,-0.16 0.2,-0.32 0.3,-0.48 l 0.01,-0.01 c 0.05,-0.09 0.09,-0.16 0.14,-0.25 0.12,-0.21 0.24,-0.42 0.34,-0.64 0.05,-0.1 0.1,-0.2 0.15,-0.31 0.11,-0.21 0.21,-0.43 0.3,-0.66 0.03,-0.07 0.06,-0.14 0.09,-0.21 0.28,-0.67 0.52,-1.35 0.72,-2.04 0.03,-0.1 0.06,-0.21 0.08,-0.31 0.04,-0.13 0.07,-0.26 0.1,-0.39 l 0.01,-0.02 c 0.37,-1.58 0.51,-3.2 0.36,-4.77 -0.32,-3.4 -1.91,-5.79 -4.14,-6.77 z"
   id="path2263" />
						</g>
						<g
   id="g2269">
							<path
   class="st15"
   d="m 556.1,66.04 c -4.9,2.37 -8.42,9.1 -7.86,15.02 0.56,5.92 4.99,8.8 9.89,6.42 0.23,-0.11 0.46,-0.23 0.68,-0.36 0.08,-0.04 0.15,-0.09 0.22,-0.13 0.07,-0.04 0.15,-0.09 0.22,-0.14 0.07,-0.05 0.14,-0.09 0.22,-0.14 0.07,-0.05 0.14,-0.1 0.22,-0.15 0.07,-0.05 0.13,-0.1 0.2,-0.14 l 0.04,-0.03 c 0.2,-0.15 0.41,-0.31 0.61,-0.49 0.2,-0.17 0.4,-0.35 0.6,-0.55 0.2,-0.19 0.39,-0.38 0.57,-0.59 0.06,-0.07 0.12,-0.14 0.18,-0.2 0.37,-0.41 0.71,-0.85 1.04,-1.31 0.11,-0.15 0.22,-0.3 0.32,-0.47 0.05,-0.08 0.1,-0.16 0.15,-0.24 0.1,-0.16 0.2,-0.32 0.3,-0.48 l 0.01,-0.01 c 0.05,-0.09 0.09,-0.16 0.14,-0.25 0.12,-0.21 0.24,-0.42 0.34,-0.64 0.05,-0.1 0.1,-0.2 0.15,-0.31 0.11,-0.21 0.21,-0.43 0.3,-0.66 0.03,-0.07 0.06,-0.14 0.09,-0.21 0.28,-0.67 0.52,-1.35 0.72,-2.04 0.03,-0.1 0.06,-0.21 0.08,-0.31 0.04,-0.13 0.07,-0.26 0.1,-0.39 l 0.01,-0.02 -4.19,-0.22 c -0.53,2.24 -1.98,4.33 -3.82,5.22 -2.5,1.21 -4.75,-0.26 -5.04,-3.27 -0.29,-3.02 1.51,-6.44 4,-7.65 1.06,-0.52 2.08,-0.54 2.92,-0.18 l 2.32,-5.43 v 0 c -0.08,-0.03 -0.15,-0.07 -0.23,-0.09 -0.06,-0.02 -0.12,-0.05 -0.19,-0.07 -0.37,-0.13 -0.77,-0.23 -1.17,-0.28 -0.07,-0.01 -0.14,-0.02 -0.21,-0.02 -0.14,-0.02 -0.27,-0.03 -0.41,-0.02 -0.14,-0.01 -0.28,-0.01 -0.42,0 -0.07,0 -0.14,0 -0.22,0.01 -0.14,0.01 -0.28,0.03 -0.43,0.04 -0.15,0.02 -0.29,0.04 -0.44,0.08 -0.07,0.01 -0.14,0.03 -0.21,0.04 l -0.04,0.01 c -0.14,0.03 -0.28,0.07 -0.42,0.11 -0.15,0.04 -0.3,0.09 -0.45,0.15 -0.08,0.03 -0.15,0.05 -0.23,0.08 -0.15,0.06 -0.3,0.12 -0.45,0.19 -0.06,0.05 -0.13,0.09 -0.21,0.12 z"
   id="path2267" />
						</g>
					</g>
				</g>
				<g
   id="g2299">
					<g
   id="g2291">
						<g
   id="g2277">
							<path
   class="st16"
   d="m 512.58,121.12 c 0.09,2.58 -0.74,7.08 -0.79,7.64 2.68,11.2 9.39,19.54 10.3,23.47 0.61,2.62 -5.86,3.56 -11.45,6.26 -2.78,1.35 -8.66,2.97 -8.76,2.69 -0.3,-0.85 -6.28,-27.34 -9.22,-32.03 -2.94,-4.69 -8.78,-14.23 -8.95,-15.67 -0.02,-0.13 -0.01,-0.28 0.01,-0.43 0.2,-1.52 1.76,-5.68 2.07,-6.41 0.33,-0.8 1.6,-8.76 1.71,-10.22 0.04,-0.49 0.27,-1.22 0.59,-1.97 0.37,-0.89 0.85,-1.84 1.27,-2.54 0,-0.01 0,-0.01 0,-0.01 0.27,-0.44 0.5,-0.79 0.65,-0.96 0.18,-0.19 0.52,-0.41 0.91,-0.62 0.91,-0.49 2.1,-0.95 2.1,-0.95 0,0 0.24,-0.52 0.63,-1.2 1.15,-2.05 3.75,-1.57 3.75,-1.57 0.04,0 1.18,0.1 2.09,1.53 0.66,1.04 2.83,9.12 2.83,9.12 0,0 2.2,7.19 5.57,11.76"
   id="path2275" />
						</g>
						<g
   id="g2281">
							<path
   class="st17"
   d="m 498.25,113.83 c -1.36,-4.06 -1.66,-6.05 -1.66,-6.05 l -2.09,-2.57 c 0,0 0.43,-0.76 0.59,-1.06 0.16,-0.3 -1.32,-3.68 -2.49,-7.04 -1.17,-3.36 -2.77,-2.65 -2.84,-3.51 -0.05,-0.63 0.56,-2.05 1.16,-3.27 0.91,-0.49 2.1,-0.95 2.1,-0.95 -0.23,1.04 -0.11,3.52 0.4,5.56 0.51,2.04 3.8,11.79 4.52,13.71 0.72,1.9 -0.15,2.46 0.31,5.18 z"
   id="path2279" />
						</g>
						<g
   class="st18"
   id="g2285">
							<path
   class="st17"
   d="m 507.45,159.64 c -2.78,1.35 -5.46,1.83 -5.56,1.55 -0.3,-0.85 -6.28,-27.34 -9.22,-32.03 -2.94,-4.69 -8.78,-14.24 -8.95,-15.67 -0.02,-0.13 -0.01,-0.28 0.01,-0.43 0,0.01 0.01,0.01 0.01,0.01 1,2.01 2.97,-0.27 2.39,-1.76 -0.58,-1.49 0.69,-4.75 1.07,-6.24 0.38,-1.47 0.65,-9.49 0.9,-10.61 v -0.02 c 0.23,-1 1.19,-2.41 1.27,-2.52 -0.05,0.19 -0.99,4.27 -1.15,7.36 -0.16,3.16 0.34,5.13 -0.32,6.66 -0.66,1.54 -1.04,2.86 0.7,3.68 1.73,0.81 5.85,10.29 7.45,14.75 1.44,4 1.17,4.85 2.55,9.64 1.23,4.34 5.71,17.86 8.85,25.63 z"
   id="path2283" />
						</g>
						<g
   id="g2289">
							<path
   class="st19"
   d="m 499.84,92.01 c -0.26,0.77 -3.09,1.36 -3.78,1.48 -0.69,0.11 -1.5,-1.2 -1.64,-1.52 -0.14,-0.32 -0.6,-2.02 0,-3.34 0.59,-1.32 2,-1.65 2.73,-1.61 0.73,0.04 1.58,0.5 2.06,1.63 0.58,1.38 0.65,3.26 0.65,3.26 z"
   id="path2287" />
						</g>
					</g>
					<g
   id="g2297">
						<g
   id="g2295">
							<path
   class="st17"
   d="m 513.3,152.56 c 5.35,-1.98 9.31,-1.77 8.85,0.48 -0.46,2.24 -6.05,6.16 -11.4,8.14 -5.35,1.98 -9.31,1.76 -8.85,-0.48 0.47,-2.25 6.06,-6.16 11.4,-8.14 z"
   id="path2293" />
						</g>
					</g>
				</g>
				<g
   id="g2329">
					<g
   id="g2321">
						<g
   id="g2303">
							<path
   class="st16"
   d="m 615.49,154.34 -13.77,7.29 -5.33,2.83 c 0,0 -10.49,-18.53 -11.5,-19.95 -1,-1.42 -4.87,-3.45 -6.06,-4.91 -1.2,-1.46 -7.43,-10.49 -8,-12.58 -0.57,-2.09 -1.15,-7.77 -1.23,-11.08 -0.08,-3.3 0.31,-4.58 0.31,-4.58 0,0 -0.28,-0.88 -0.99,-2.41 -0.46,-0.99 -0.66,-1.7 -0.45,-2.39 v 0 c 0.11,-0.38 0.35,-0.76 0.73,-1.18 0.59,-0.65 1.4,-0.63 2.01,-0.49 0.49,0.12 0.84,0.31 0.84,0.31 0,0 -4.84,-15.46 -5.27,-19 -0.25,-2.04 0.49,-3.03 1.36,-3.51 0.63,-0.36 1.33,-0.45 1.75,-0.49 1,-0.09 2.09,3.44 2.09,3.44 l 10.54,23.91 c 0,0 1.41,-2.04 4.04,-2.17 2.63,-0.13 3.11,1.67 3.11,1.67 0,0 0,0 1.21,-0.19 1.21,-0.19 3.64,0.69 4.2,3.01 1.49,-0.85 3.87,0.02 4.89,1.52 1.02,1.5 2.17,7.52 2.45,11.24 0.28,3.72 0.34,6.25 1.49,9.02 1.35,3.26 11.58,20.69 11.58,20.69 z"
   id="path2301" />
						</g>
						<g
   id="g2307">
							<path
   class="st17"
   d="m 576.62,125.17 c -0.17,-1.15 -0.49,-3.11 -0.56,-4.46 -0.06,-1.34 -0.04,-3.1 -0.54,-5.08 -0.5,-1.97 -0.4,-3.96 -1.04,-5.15 -0.65,-1.19 -2.43,-5.29 -2.43,-5.29 0,0 1.67,5.57 1.95,6.98 0.29,1.42 1.1,8.03 1.15,9.23 0.05,1.21 0.54,2.87 1.47,3.77 z"
   id="path2305" />
						</g>
						<g
   id="g2311">
							<path
   class="st19"
   d="m 572.49,107.88 c -0.14,0.87 -0.99,1.59 -1.56,1.94 -0.57,0.35 -1.12,0.35 -1.12,0.35 0,0 -0.15,-0.04 -0.43,-0.46 -0.29,-0.42 -0.87,-1.98 -0.92,-2.63 -0.05,-0.66 0.53,-1.72 1.4,-1.9 0.87,-0.18 1.23,-0.09 1.41,0.2 0.17,0.28 1.25,2.33 1.22,2.5 z"
   id="path2309" />
						</g>
						<g
   id="g2315">
							<path
   class="st19"
   d="m 568.13,83.31 c -0.1,1.21 0.73,2.77 1.2,3.13 0.47,0.36 1.68,0.37 1.99,0.24 0.66,-0.26 0.77,-0.61 0.59,-1.06 -0.26,-0.64 -0.81,-2.58 -1.51,-3.04 -0.7,-0.46 -2.22,0.01 -2.27,0.73 z"
   id="path2313" />
						</g>
						<g
   class="st18"
   id="g2319">
							<path
   class="st17"
   d="m 601.01,162.22 -4.62,2.23 c 0,0 -10.49,-18.53 -11.5,-19.95 -1,-1.42 -4.87,-3.45 -6.06,-4.91 -1.2,-1.46 -7.43,-10.49 -8,-12.58 -0.57,-2.09 -1.15,-7.77 -1.23,-11.08 -0.08,-3.3 0.31,-4.58 0.31,-4.58 0,0 -0.28,-0.88 -0.99,-2.41 -0.46,-0.99 -0.66,-1.7 -0.45,-2.39 0.3,1.94 1.66,4.18 1.69,4.81 0.03,0.63 -0.09,0.96 -0.16,1.98 -0.06,1.02 0.09,3.22 0.32,5.97 0.17,1.93 0.27,3.84 0.72,5.43 0.18,-0.17 0.51,-0.46 0.8,-0.69 0.01,-0.01 0.01,-0.01 0.02,-0.02 0.01,-0.01 0.02,-0.02 0.04,-0.03 0,0 0,0 0.01,-0.01 0.74,-0.55 1.56,-0.05 1.62,-0.81 0.1,-1.24 -0.69,-5 -0.97,-7.25 -0.28,-2.24 0.55,-7.01 -1,-10.44 -0.08,-0.18 -0.2,-0.38 -0.36,-0.62 0.49,0.12 0.84,0.31 0.84,0.31 0,0 -4.84,-15.46 -5.27,-19 -0.25,-2.04 0.49,-3.03 1.36,-3.51 -0.37,0.61 -0.55,1.23 -0.6,1.83 -0.07,0.91 0.4,3.61 2.16,8.65 1.76,5.04 7.53,20.42 8.63,22.79 1.1,2.36 -0.38,6.65 -0.08,8.64 0.3,1.99 1.55,7.8 6.05,11.27 4.51,3.47 3.13,3.96 4.43,7.21 1.23,3.07 12.29,19.16 12.29,19.16 z"
   id="path2317" />
						</g>
					</g>
					<g
   id="g2327">
						<g
   id="g2325">
							<path
   class="st20"
   d="m 606.59,155.21 c 5.36,-2.28 9.42,-2.25 9.06,0.06 -0.36,2.31 -5,6.03 -10.36,8.31 -5.36,2.28 -9.41,2.25 -9.05,-0.07 0.35,-2.31 4.99,-6.03 10.35,-8.3 z"
   id="path2323" />
						</g>
					</g>
				</g>
			</g>
		</g>
	</g>
</svg>
