<?xml version="1.0" encoding="utf-8"?>
<!-- Generator: Adobe Illustrator 25.4.1, SVG Export Plug-In . SVG Version: 6.00 Build 0)  -->
<svg version="1.1" id="Capa_1" xmlns="http://www.w3.org/2000/svg" xmlns:xlink="http://www.w3.org/1999/xlink" x="0px" y="0px"
	 viewBox="0 0 600 200" style="enable-background:new 0 0 600 200;" xml:space="preserve">
<style type="text/css">
	.st0{fill:#724E91;}
	.st1{fill:#44505F;}
	.st2{clip-path:url(#SVGID_00000087396469496427519420000003446726632307771778_);}
	.st3{enable-background:new    ;}
	.st4{fill:#494F6F;}
	.st5{fill:#1A2E35;}
	.st6{fill:#5A4870;}
	.st7{fill:#424863;}
	.st8{fill:#545B80;}
	.st9{fill:#FAD1D7;}
	.st10{fill:#FFFFFF;}
	.st11{fill:#2462DE;}
	.st12{fill:#3A78F0;}
	.st13{fill:#2569D6;}
	.st14{fill:#8A71A5;}
	.st15{fill:#662D91;}
	.st16{fill:#FFC299;}
	.st17{fill:#F58D7D;}
	.st18{opacity:0.33;}
	.st19{fill:#FFC9C7;}
	.st20{fill:#F57E6C;}
</style>
<g>
	<g>
		<path class="st0" d="M60.82,49.73H47.93v43.35H37.37V49.73H24.7v-8.77h36.12V49.73z"/>
		<path class="st0" d="M100.77,40.96v36.08c-0.05,5.42-1.54,9.56-4.47,12.44c-2.94,2.88-7.15,4.31-12.64,4.31
			c-5.58,0-9.85-1.46-12.8-4.37c-2.95-2.91-4.42-7.12-4.42-12.64V40.96h10.6v35.87c0,2.96,0.48,5.07,1.43,6.34
			c0.95,1.27,2.69,1.9,5.19,1.9s4.22-0.63,5.15-1.88s1.41-3.31,1.43-6.17V40.96H100.77z"/>
		<path class="st0" d="M142.51,49.73h-12.89v43.35h-10.56V49.73h-12.67v-8.77h36.12V49.73z"/>
		<path class="st0" d="M184.25,71.71c0,6.99-1.65,12.42-4.96,16.29c-3.31,3.87-7.89,5.8-13.76,5.8c-5.85,0-10.44-1.92-13.78-5.75
			c-3.34-3.83-5.04-9.19-5.08-16.09v-8.91c0-7.16,1.66-12.75,4.98-16.77c3.32-4.02,7.92-6.03,13.82-6.03
			c5.8,0,10.37,1.97,13.71,5.92c3.34,3.95,5.04,9.49,5.08,16.63V71.71z M173.69,62.97c0-4.7-0.67-8.2-2-10.49
			c-1.34-2.29-3.41-3.44-6.23-3.44c-2.79,0-4.86,1.1-6.19,3.31c-1.34,2.21-2.03,5.57-2.08,10.08v9.27c0,4.56,0.68,7.92,2.04,10.08
			s3.46,3.24,6.3,3.24c2.74,0,4.78-1.06,6.12-3.17c1.34-2.11,2.02-5.39,2.04-9.83V62.97z"/>
		<path class="st0" d="M207.59,74.03h-5.23v19.04h-10.52V40.96h16.79c5.27,0,9.35,1.37,12.22,4.1c2.88,2.73,4.31,6.62,4.31,11.65
			c0,6.92-2.52,11.77-7.55,14.53l9.13,21.34v0.5h-11.31L207.59,74.03z M202.36,65.26h5.98c2.1,0,3.68-0.7,4.73-2.09
			c1.05-1.4,1.58-3.26,1.58-5.6c0-5.23-2.04-7.84-6.12-7.84h-6.16V65.26z"/>
		<path class="st0" d="M243.39,93.08h-10.52V40.96h10.52V93.08z M240.1,26.89h11.38l-9.95,11.1h-8.45L240.1,26.89z"/>
		<path class="st0" d="M277.75,82.41H263.4l-2.79,10.67h-11.13l16.29-52.12h9.63l16.4,52.12h-11.24L277.75,82.41z M265.69,73.64
			h9.74l-4.87-18.58L265.69,73.64z"/>
		<path class="st0" d="M318.67,79.4c0-2.12-0.54-3.73-1.63-4.81c-1.09-1.09-3.06-2.21-5.92-3.38c-5.23-1.98-8.98-4.3-11.28-6.96
			c-2.29-2.66-3.44-5.8-3.44-9.43c0-4.39,1.56-7.92,4.67-10.58s7.07-3.99,11.87-3.99c3.2,0,6.05,0.67,8.55,2.02s4.43,3.25,5.78,5.71
			c1.35,2.46,2.02,5.25,2.02,8.38h-10.49c0-2.43-0.52-4.29-1.56-5.57c-1.04-1.28-2.54-1.92-4.49-1.92c-1.84,0-3.27,0.54-4.29,1.63
			c-1.03,1.09-1.54,2.55-1.54,4.38c0,1.43,0.57,2.73,1.72,3.88s3.17,2.36,6.08,3.6c5.08,1.84,8.78,4.09,11.08,6.77
			c2.3,2.67,3.45,6.07,3.45,10.2c0,4.53-1.44,8.08-4.33,10.63c-2.89,2.55-6.81,3.83-11.78,3.83c-3.37,0-6.43-0.69-9.2-2.08
			s-4.93-3.37-6.5-5.94c-1.56-2.58-2.34-5.62-2.34-9.13h10.56c0,3.01,0.58,5.19,1.75,6.55c1.17,1.36,3.08,2.04,5.73,2.04
			C316.83,85.24,318.67,83.29,318.67,79.4z"/>
		<path d="M43.46,120.07h-6.73v4.56h7.9v2.81h-11.4v-17.01h11.38v2.84h-7.88v4.05h6.73V120.07z"/>
		<path d="M60.52,127.45h-3.51l-6.82-11.19v11.19h-3.51v-17.01h3.51l6.83,11.22v-11.22h3.49V127.45z"/>
		<path d="M79.78,120.07h-6.73v4.56h7.9v2.81h-11.4v-17.01h11.38v2.84h-7.88v4.05h6.73V120.07z"/>
		<path d="M96.83,127.45h-3.51l-6.82-11.19v11.19H83v-17.01h3.51l6.83,11.22v-11.22h3.49V127.45z"/>
		<path d="M112.36,113.28h-5.21v14.17h-3.51v-14.17h-5.14v-2.84h13.86V113.28z"/>
		<path d="M128.01,119.33c0,1.67-0.3,3.14-0.89,4.4c-0.59,1.26-1.44,2.24-2.54,2.92c-1.1,0.69-2.37,1.03-3.79,1.03
			c-1.41,0-2.67-0.34-3.77-1.02c-1.11-0.68-1.96-1.64-2.57-2.9c-0.61-1.26-0.92-2.71-0.92-4.34v-0.84c0-1.68,0.3-3.15,0.91-4.42
			c0.6-1.27,1.46-2.25,2.56-2.93c1.1-0.68,2.36-1.02,3.78-1.02c1.42,0,2.68,0.34,3.78,1.02s1.96,1.66,2.56,2.93
			c0.6,1.27,0.91,2.74,0.91,4.41V119.33z M124.46,118.56c0-1.79-0.32-3.14-0.96-4.07s-1.55-1.39-2.73-1.39
			c-1.18,0-2.08,0.46-2.72,1.37c-0.64,0.92-0.96,2.26-0.97,4.03v0.83c0,1.74,0.32,3.08,0.96,4.04c0.64,0.96,1.56,1.44,2.76,1.44
			c1.18,0,2.08-0.46,2.71-1.38c0.63-0.92,0.95-2.27,0.96-4.04V118.56z"/>
		<path d="M136.85,121.22h-2.79v6.23h-3.51v-17.01h6.32c2.01,0,3.56,0.45,4.65,1.34c1.09,0.9,1.64,2.16,1.64,3.8
			c0,1.16-0.25,2.13-0.75,2.9s-1.26,1.39-2.28,1.85l3.68,6.95v0.16h-3.76L136.85,121.22z M134.06,118.38h2.83
			c0.88,0,1.56-0.22,2.04-0.67s0.72-1.06,0.72-1.85c0-0.8-0.23-1.43-0.68-1.89c-0.46-0.46-1.15-0.69-2.1-0.69h-2.82V118.38z"/>
		<path d="M159.66,127.45h-3.51l-6.82-11.19v11.19h-3.51v-17.01h3.51l6.83,11.22v-11.22h3.49V127.45z"/>
		<path d="M176.7,119.33c0,1.67-0.3,3.14-0.89,4.4c-0.59,1.26-1.44,2.24-2.54,2.92c-1.1,0.69-2.37,1.03-3.79,1.03
			c-1.41,0-2.67-0.34-3.77-1.02c-1.11-0.68-1.96-1.64-2.57-2.9c-0.61-1.26-0.92-2.71-0.92-4.34v-0.84c0-1.68,0.3-3.15,0.91-4.42
			c0.6-1.27,1.46-2.25,2.56-2.93c1.1-0.68,2.36-1.02,3.78-1.02c1.42,0,2.68,0.34,3.78,1.02s1.96,1.66,2.56,2.93
			c0.6,1.27,0.91,2.74,0.91,4.41V119.33z M173.14,118.56c0-1.79-0.32-3.14-0.96-4.07s-1.55-1.39-2.73-1.39
			c-1.18,0-2.08,0.46-2.72,1.37c-0.64,0.92-0.96,2.26-0.97,4.03v0.83c0,1.74,0.32,3.08,0.96,4.04c0.64,0.96,1.56,1.44,2.76,1.44
			c1.18,0,2.08-0.46,2.71-1.38c0.63-0.92,0.95-2.27,0.96-4.04V118.56z"/>
		<path d="M188.06,122.98c0-0.66-0.23-1.17-0.7-1.53c-0.47-0.35-1.31-0.73-2.52-1.12s-2.18-0.78-2.89-1.16
			c-1.93-1.04-2.9-2.45-2.9-4.22c0-0.92,0.26-1.74,0.78-2.46s1.26-1.28,2.23-1.69c0.97-0.4,2.06-0.61,3.27-0.61
			c1.22,0,2.3,0.22,3.25,0.66c0.95,0.44,1.69,1.06,2.21,1.87c0.53,0.8,0.79,1.71,0.79,2.73h-3.51c0-0.78-0.25-1.38-0.74-1.82
			c-0.49-0.43-1.18-0.65-2.07-0.65c-0.86,0-1.52,0.18-2,0.54c-0.48,0.36-0.71,0.84-0.71,1.43c0,0.55,0.28,1.02,0.84,1.39
			c0.56,0.37,1.38,0.72,2.46,1.05c1.99,0.6,3.45,1.34,4.36,2.23c0.91,0.89,1.37,1.99,1.37,3.32c0,1.47-0.56,2.63-1.67,3.46
			s-2.61,1.26-4.5,1.26c-1.31,0-2.5-0.24-3.58-0.72c-1.07-0.48-1.9-1.13-2.46-1.97c-0.56-0.83-0.85-1.8-0.85-2.9h3.52
			c0,1.88,1.12,2.82,3.36,2.82c0.83,0,1.48-0.17,1.95-0.51C187.83,124.07,188.06,123.59,188.06,122.98z"/>
		<path d="M206.2,123.23l3.86-12.79h3.9l-5.92,17.01h-3.66l-5.9-17.01h3.89L206.2,123.23z"/>
		<path d="M219.28,127.45h-3.51v-17.01h3.51V127.45z"/>
		<path d="M228.83,121.22h-2.79v6.23h-3.51v-17.01h6.32c2.01,0,3.56,0.45,4.65,1.34c1.09,0.9,1.64,2.16,1.64,3.8
			c0,1.16-0.25,2.13-0.75,2.9s-1.26,1.39-2.28,1.85l3.68,6.95v0.16h-3.76L228.83,121.22z M226.04,118.38h2.83
			c0.88,0,1.56-0.22,2.04-0.67s0.72-1.06,0.72-1.85c0-0.8-0.23-1.43-0.68-1.89c-0.46-0.46-1.15-0.69-2.1-0.69h-2.82V118.38z"/>
		<path d="M250.03,113.28h-5.21v14.17h-3.51v-14.17h-5.14v-2.84h13.86V113.28z"/>
		<path d="M264.9,110.44v11.21c0,1.86-0.58,3.33-1.75,4.42c-1.16,1.08-2.76,1.62-4.77,1.62c-1.99,0-3.56-0.53-4.73-1.58
			c-1.17-1.05-1.76-2.5-1.79-4.33v-11.33h3.51v11.23c0,1.11,0.27,1.93,0.8,2.44c0.53,0.51,1.27,0.77,2.21,0.77
			c1.97,0,2.97-1.04,3-3.11v-11.32H264.9z"/>
		<path d="M277.12,123.94h-6.15l-1.17,3.5h-3.73l6.33-17.01h3.25l6.37,17.01h-3.73L277.12,123.94z M271.92,121.1h4.25l-2.14-6.37
			L271.92,121.1z"/>
		<path d="M287.12,124.63h7.44v2.81h-10.95v-17.01h3.51V124.63z"/>
		<path d="M306.81,120.07h-6.73v4.56h7.9v2.81h-11.4v-17.01h11.38v2.84h-7.88v4.05h6.73V120.07z"/>
		<path d="M318.86,122.98c0-0.66-0.23-1.17-0.7-1.53c-0.47-0.35-1.31-0.73-2.52-1.12s-2.18-0.78-2.89-1.16
			c-1.93-1.04-2.9-2.45-2.9-4.22c0-0.92,0.26-1.74,0.78-2.46s1.26-1.28,2.23-1.69c0.97-0.4,2.06-0.61,3.27-0.61
			c1.22,0,2.3,0.22,3.25,0.66c0.95,0.44,1.69,1.06,2.21,1.87c0.53,0.8,0.79,1.71,0.79,2.73h-3.51c0-0.78-0.25-1.38-0.74-1.82
			c-0.49-0.43-1.18-0.65-2.07-0.65c-0.86,0-1.52,0.18-2,0.54c-0.47,0.36-0.71,0.84-0.71,1.43c0,0.55,0.28,1.02,0.83,1.39
			s1.38,0.72,2.46,1.05c1.99,0.6,3.45,1.34,4.36,2.23c0.91,0.89,1.37,1.99,1.37,3.32c0,1.47-0.56,2.63-1.67,3.46
			c-1.11,0.84-2.61,1.26-4.5,1.26c-1.31,0-2.5-0.24-3.58-0.72s-1.9-1.13-2.46-1.97s-0.85-1.8-0.85-2.9h3.52
			c0,1.88,1.12,2.82,3.37,2.82c0.83,0,1.48-0.17,1.95-0.51C318.62,124.07,318.86,123.59,318.86,122.98z"/>
		<path class="st1" d="M32.18,149.7c0-1.94,0.46-3.49,1.38-4.67c0.92-1.18,2.12-1.77,3.6-1.77c1.48,0,2.65,0.51,3.51,1.52v-6.58
			h2.16v17.92h-1.98l-0.1-1.35c-0.86,1.06-2.07,1.59-3.6,1.59c-1.46,0-2.65-0.6-3.58-1.8c-0.92-1.2-1.38-2.76-1.38-4.69V149.7z
			 M34.34,149.95c0,1.43,0.3,2.55,0.89,3.36c0.59,0.81,1.41,1.21,2.45,1.21c1.37,0,2.37-0.62,3-1.84v-5.8
			c-0.65-1.19-1.64-1.79-2.98-1.79c-1.06,0-1.88,0.41-2.47,1.23C34.64,147.14,34.34,148.35,34.34,149.95z"/>
		<path class="st1" d="M51.42,156.35c-1.71,0-3.1-0.56-4.18-1.69c-1.07-1.12-1.61-2.63-1.61-4.51v-0.4c0-1.25,0.24-2.37,0.72-3.36
			c0.48-0.98,1.15-1.75,2.01-2.31c0.86-0.56,1.79-0.83,2.79-0.83c1.64,0,2.92,0.54,3.83,1.62c0.91,1.08,1.36,2.63,1.36,4.64v0.9
			h-8.55c0.03,1.24,0.4,2.25,1.09,3.02c0.7,0.77,1.58,1.15,2.65,1.15c0.76,0,1.41-0.16,1.94-0.47s0.99-0.72,1.39-1.24l1.32,1.03
			C55.12,155.54,53.54,156.35,51.42,156.35z M51.15,145.04c-0.87,0-1.6,0.32-2.19,0.95c-0.59,0.63-0.96,1.52-1.1,2.67h6.32v-0.16
			c-0.06-1.1-0.36-1.95-0.89-2.55C52.77,145.34,52.05,145.04,51.15,145.04z"/>
		<path class="st1" d="M69.99,156.35c-1.71,0-3.1-0.56-4.18-1.69c-1.07-1.12-1.61-2.63-1.61-4.51v-0.4c0-1.25,0.24-2.37,0.72-3.36
			c0.48-0.98,1.15-1.75,2.01-2.31c0.86-0.56,1.79-0.83,2.79-0.83c1.64,0,2.92,0.54,3.83,1.62c0.91,1.08,1.36,2.63,1.36,4.64v0.9
			h-8.55c0.03,1.24,0.4,2.25,1.09,3.02c0.7,0.77,1.58,1.15,2.65,1.15c0.76,0,1.41-0.16,1.94-0.47s0.99-0.72,1.39-1.24l1.32,1.03
			C73.7,155.54,72.11,156.35,69.99,156.35z M69.73,145.04c-0.87,0-1.6,0.32-2.19,0.95c-0.59,0.63-0.96,1.52-1.1,2.67h6.32v-0.16
			c-0.06-1.1-0.36-1.95-0.89-2.55C71.34,145.34,70.63,145.04,69.73,145.04z"/>
		<path class="st1" d="M79.46,143.5l0.07,1.59c0.96-1.21,2.22-1.82,3.78-1.82c2.67,0,4.01,1.5,4.04,4.51v8.34h-2.16v-8.35
			c-0.01-0.91-0.22-1.58-0.62-2.02s-1.04-0.65-1.91-0.65c-0.7,0-1.31,0.19-1.84,0.56s-0.94,0.86-1.24,1.47v8.99h-2.16V143.5H79.46z"
			/>
		<path class="st1" d="M97.95,152.77c0-0.58-0.22-1.04-0.66-1.36s-1.21-0.6-2.3-0.83c-1.09-0.23-1.96-0.51-2.6-0.84
			s-1.12-0.72-1.42-1.17c-0.31-0.45-0.46-0.99-0.46-1.61c0-1.03,0.44-1.91,1.31-2.62c0.88-0.71,1.99-1.07,3.35-1.07
			c1.43,0,2.59,0.37,3.48,1.11s1.34,1.68,1.34,2.84h-2.17c0-0.59-0.25-1.1-0.75-1.53s-1.13-0.64-1.9-0.64
			c-0.79,0-1.4,0.17-1.84,0.51c-0.44,0.34-0.67,0.79-0.67,1.34c0,0.52,0.21,0.91,0.62,1.18c0.41,0.26,1.16,0.52,2.23,0.76
			s1.95,0.53,2.62,0.86s1.16,0.74,1.49,1.21c0.32,0.47,0.48,1.04,0.48,1.72c0,1.13-0.45,2.03-1.35,2.71
			c-0.9,0.68-2.07,1.02-3.51,1.02c-1.01,0-1.91-0.18-2.68-0.54s-1.39-0.86-1.83-1.5c-0.44-0.64-0.66-1.34-0.66-2.08h2.16
			c0.04,0.72,0.33,1.3,0.87,1.72s1.25,0.64,2.14,0.64c0.82,0,1.47-0.17,1.97-0.5C97.7,153.77,97.95,153.32,97.95,152.77z"/>
		<path class="st1" d="M108.16,156.35c-1.71,0-3.1-0.56-4.18-1.69c-1.07-1.12-1.61-2.63-1.61-4.51v-0.4c0-1.25,0.24-2.37,0.72-3.36
			c0.48-0.98,1.15-1.75,2.01-2.31c0.86-0.56,1.79-0.83,2.79-0.83c1.64,0,2.92,0.54,3.83,1.62c0.91,1.08,1.36,2.63,1.36,4.64v0.9
			h-8.55c0.03,1.24,0.4,2.25,1.09,3.02c0.7,0.77,1.58,1.15,2.65,1.15c0.76,0,1.41-0.16,1.94-0.47s0.99-0.72,1.39-1.24l1.32,1.03
			C111.86,155.54,110.27,156.35,108.16,156.35z M107.89,145.04c-0.87,0-1.6,0.32-2.19,0.95c-0.59,0.63-0.96,1.52-1.1,2.67h6.32
			v-0.16c-0.06-1.1-0.36-1.95-0.89-2.55C109.5,145.34,108.79,145.04,107.89,145.04z"/>
		<path class="st1" d="M117.62,143.5l0.07,1.59c0.96-1.21,2.22-1.82,3.78-1.82c2.67,0,4.01,1.5,4.04,4.51v8.34h-2.16v-8.35
			c-0.01-0.91-0.22-1.58-0.62-2.02s-1.04-0.65-1.91-0.65c-0.7,0-1.31,0.19-1.84,0.56s-0.94,0.86-1.24,1.47v8.99h-2.16V143.5H117.62z
			 M124.76,138.57c0,0.84-0.24,1.52-0.72,2.04c-0.48,0.52-1.08,0.78-1.79,0.78c-0.32,0-0.59-0.04-0.83-0.12s-0.54-0.24-0.92-0.48
			c-0.38-0.24-0.65-0.39-0.82-0.44c-0.17-0.05-0.36-0.08-0.58-0.08c-0.32,0-0.59,0.12-0.82,0.37c-0.23,0.24-0.34,0.56-0.34,0.94
			l-1.45-0.08c0-0.83,0.23-1.52,0.71-2.07c0.47-0.54,1.07-0.82,1.79-0.82c0.27,0,0.52,0.04,0.73,0.12s0.51,0.23,0.89,0.46
			c0.37,0.22,0.66,0.37,0.86,0.44s0.42,0.11,0.66,0.11c0.33,0,0.61-0.13,0.83-0.4c0.22-0.27,0.33-0.57,0.33-0.92L124.76,138.57z"/>
		<path class="st1" d="M136.55,156.12c-0.12-0.25-0.23-0.69-0.3-1.33c-1,1.04-2.2,1.56-3.59,1.56c-1.24,0-2.27-0.35-3.06-1.06
			c-0.8-0.7-1.2-1.6-1.2-2.68c0-1.31,0.5-2.33,1.5-3.06c1-0.73,2.4-1.09,4.22-1.09h2.1v-0.99c0-0.75-0.23-1.36-0.68-1.8
			s-1.12-0.67-2-0.67c-0.77,0-1.42,0.19-1.94,0.58s-0.78,0.86-0.78,1.41h-2.17c0-0.63,0.22-1.24,0.67-1.83
			c0.45-0.59,1.05-1.05,1.82-1.39c0.77-0.34,1.61-0.51,2.53-0.51c1.45,0,2.59,0.36,3.42,1.09c0.82,0.73,1.25,1.73,1.28,3v5.81
			c0,1.16,0.15,2.08,0.44,2.77v0.19H136.55z M132.97,154.48c0.68,0,1.32-0.18,1.92-0.53s1.05-0.8,1.32-1.37v-2.59h-1.69
			c-2.64,0-3.97,0.78-3.97,2.32c0,0.68,0.23,1.21,0.68,1.59S132.26,154.48,132.97,154.48z"/>
		<path class="st1" d="M143.8,143.5l0.07,1.59c0.96-1.21,2.22-1.82,3.78-1.82c2.67,0,4.01,1.5,4.04,4.51v8.34h-2.16v-8.35
			c-0.01-0.91-0.22-1.58-0.62-2.02s-1.04-0.65-1.91-0.65c-0.7,0-1.31,0.19-1.84,0.56s-0.94,0.86-1.24,1.47v8.99h-2.16V143.5H143.8z"
			/>
		<path class="st1" d="M156.97,154.36h7.38v1.76h-10.02v-1.59l6.96-9.25h-6.86v-1.79H164v1.53L156.97,154.36z"/>
		<path class="st1" d="M174.57,156.12c-0.12-0.25-0.23-0.69-0.3-1.33c-1,1.04-2.2,1.56-3.59,1.56c-1.24,0-2.27-0.35-3.06-1.06
			c-0.8-0.7-1.2-1.6-1.2-2.68c0-1.31,0.5-2.33,1.5-3.06c1-0.73,2.4-1.09,4.22-1.09h2.1v-0.99c0-0.75-0.23-1.36-0.68-1.8
			s-1.12-0.67-2-0.67c-0.77,0-1.42,0.19-1.94,0.58s-0.78,0.86-0.78,1.41h-2.17c0-0.63,0.22-1.24,0.67-1.83
			c0.45-0.59,1.05-1.05,1.82-1.39c0.77-0.34,1.61-0.51,2.53-0.51c1.45,0,2.59,0.36,3.42,1.09c0.82,0.73,1.25,1.73,1.28,3v5.81
			c0,1.16,0.15,2.08,0.44,2.77v0.19H174.57z M170.99,154.48c0.68,0,1.32-0.18,1.92-0.53s1.05-0.8,1.32-1.37v-2.59h-1.69
			c-2.64,0-3.97,0.78-3.97,2.32c0,0.68,0.23,1.21,0.68,1.59S170.28,154.48,170.99,154.48z"/>
		<path class="st1" d="M189.82,152.96l2.94-9.46h2.31L190,158.07c-0.79,2.1-2.03,3.15-3.75,3.15l-0.41-0.04l-0.81-0.15v-1.75
			l0.58,0.05c0.73,0,1.3-0.15,1.71-0.44s0.74-0.84,1.01-1.62l0.48-1.28l-4.5-12.48h2.36L189.82,152.96z"/>
		<path class="st1" d="M210.71,156.12c-0.12-0.25-0.23-0.69-0.3-1.33c-1,1.04-2.2,1.56-3.59,1.56c-1.24,0-2.27-0.35-3.06-1.06
			c-0.8-0.7-1.2-1.6-1.2-2.68c0-1.31,0.5-2.33,1.5-3.06c1-0.73,2.4-1.09,4.22-1.09h2.1v-0.99c0-0.75-0.23-1.36-0.68-1.8
			s-1.12-0.67-2-0.67c-0.77,0-1.42,0.19-1.94,0.58s-0.78,0.86-0.78,1.41h-2.17c0-0.63,0.22-1.24,0.67-1.83
			c0.45-0.59,1.05-1.05,1.82-1.39c0.77-0.34,1.61-0.51,2.53-0.51c1.45,0,2.59,0.36,3.42,1.09c0.82,0.73,1.25,1.73,1.28,3v5.81
			c0,1.16,0.15,2.08,0.44,2.77v0.19H210.71z M207.12,154.48c0.68,0,1.32-0.18,1.92-0.53s1.05-0.8,1.32-1.37v-2.59h-1.69
			c-2.64,0-3.97,0.78-3.97,2.32c0,0.68,0.23,1.21,0.68,1.59S206.42,154.48,207.12,154.48z"/>
		<path class="st1" d="M226.57,149.95c0,1.92-0.44,3.47-1.32,4.64c-0.88,1.17-2.07,1.76-3.57,1.76c-1.53,0-2.74-0.49-3.62-1.46v6.08
			h-2.16V143.5h1.97l0.1,1.4c0.88-1.09,2.1-1.63,3.66-1.63c1.52,0,2.72,0.57,3.6,1.71c0.88,1.14,1.32,2.73,1.32,4.77V149.95z
			 M224.41,149.7c0-1.42-0.3-2.55-0.91-3.37c-0.61-0.82-1.44-1.24-2.5-1.24c-1.31,0-2.29,0.58-2.94,1.74v6.03
			c0.65,1.15,1.63,1.73,2.96,1.73c1.03,0,1.86-0.41,2.47-1.23C224.11,152.54,224.41,151.32,224.41,149.7z"/>
		<path class="st1" d="M235.42,145.43c-0.33-0.05-0.68-0.08-1.06-0.08c-1.42,0-2.38,0.6-2.88,1.81v8.96h-2.16V143.5h2.1l0.04,1.46
			c0.71-1.13,1.71-1.69,3.01-1.69c0.42,0,0.74,0.05,0.96,0.16V145.43z"/>
		<path class="st1" d="M242.42,156.35c-1.71,0-3.1-0.56-4.18-1.69c-1.07-1.12-1.61-2.63-1.61-4.51v-0.4c0-1.25,0.24-2.37,0.72-3.36
			c0.48-0.98,1.15-1.75,2.01-2.31c0.86-0.56,1.79-0.83,2.79-0.83c1.64,0,2.92,0.54,3.83,1.62c0.91,1.08,1.36,2.63,1.36,4.64v0.9
			h-8.55c0.03,1.24,0.4,2.25,1.09,3.02c0.7,0.77,1.58,1.15,2.65,1.15c0.76,0,1.41-0.16,1.94-0.47s0.99-0.72,1.39-1.24l1.32,1.03
			C246.12,155.54,244.53,156.35,242.42,156.35z M242.15,145.04c-0.87,0-1.6,0.32-2.19,0.95c-0.59,0.63-0.96,1.52-1.1,2.67h6.32
			v-0.16c-0.06-1.1-0.36-1.95-0.89-2.55C243.77,145.34,243.05,145.04,242.15,145.04z"/>
		<path class="st1" d="M251.88,143.5l0.07,1.59c0.96-1.21,2.22-1.82,3.78-1.82c2.67,0,4.01,1.5,4.04,4.51v8.34h-2.16v-8.35
			c-0.01-0.91-0.22-1.58-0.62-2.02s-1.04-0.65-1.91-0.65c-0.7,0-1.31,0.19-1.84,0.56s-0.94,0.86-1.24,1.47v8.99h-2.16V143.5H251.88z
			"/>
		<path class="st1" d="M262.49,149.7c0-1.94,0.46-3.49,1.38-4.67c0.92-1.18,2.12-1.77,3.6-1.77c1.48,0,2.65,0.51,3.51,1.52v-6.58
			h2.16v17.92h-1.98l-0.1-1.35c-0.86,1.06-2.07,1.59-3.6,1.59c-1.46,0-2.65-0.6-3.58-1.8c-0.92-1.2-1.38-2.76-1.38-4.69V149.7z
			 M264.65,149.95c0,1.43,0.3,2.55,0.89,3.36c0.59,0.81,1.41,1.21,2.45,1.21c1.37,0,2.37-0.62,3-1.84v-5.8
			c-0.65-1.19-1.64-1.79-2.98-1.79c-1.06,0-1.88,0.41-2.47,1.23C264.95,147.14,264.65,148.35,264.65,149.95z"/>
		<path class="st1" d="M276.51,140.15c0-0.35,0.11-0.65,0.32-0.89c0.21-0.24,0.53-0.36,0.95-0.36c0.42,0,0.74,0.12,0.96,0.36
			c0.22,0.24,0.33,0.54,0.33,0.89s-0.11,0.64-0.33,0.88c-0.22,0.23-0.54,0.35-0.96,0.35c-0.42,0-0.74-0.12-0.95-0.35
			C276.61,140.79,276.51,140.5,276.51,140.15z M278.84,156.12h-2.16V143.5h2.16V156.12z"/>
		<path class="st1" d="M284.32,154.36h7.38v1.76h-10.02v-1.59l6.96-9.25h-6.86v-1.79h9.57v1.53L284.32,154.36z"/>
		<path class="st1" d="M301.93,156.12c-0.12-0.25-0.23-0.69-0.3-1.33c-1,1.04-2.2,1.56-3.59,1.56c-1.24,0-2.27-0.35-3.06-1.06
			c-0.8-0.7-1.2-1.6-1.2-2.68c0-1.31,0.5-2.33,1.5-3.06c1-0.73,2.4-1.09,4.22-1.09h2.1v-0.99c0-0.75-0.23-1.36-0.68-1.8
			c-0.45-0.45-1.12-0.67-2-0.67c-0.77,0-1.42,0.19-1.94,0.58s-0.78,0.86-0.78,1.41h-2.17c0-0.63,0.22-1.24,0.67-1.83
			c0.45-0.59,1.05-1.05,1.82-1.39c0.77-0.34,1.61-0.51,2.53-0.51c1.45,0,2.59,0.36,3.42,1.09c0.82,0.73,1.25,1.73,1.28,3v5.81
			c0,1.16,0.15,2.08,0.44,2.77v0.19H301.93z M298.35,154.48c0.68,0,1.32-0.18,1.92-0.53s1.05-0.8,1.32-1.37v-2.59h-1.69
			c-2.64,0-3.97,0.78-3.97,2.32c0,0.68,0.23,1.21,0.68,1.59S297.64,154.48,298.35,154.48z"/>
		<path class="st1" d="M309.36,143.5v14.08c0,2.43-1.1,3.64-3.3,3.64c-0.47,0-0.91-0.07-1.32-0.21v-1.72
			c0.25,0.06,0.58,0.09,0.98,0.09c0.48,0,0.85-0.13,1.1-0.39c0.25-0.26,0.38-0.71,0.38-1.36V143.5H309.36z M306.98,140.15
			c0-0.34,0.11-0.64,0.32-0.88c0.21-0.25,0.53-0.37,0.94-0.37c0.42,0,0.74,0.12,0.96,0.36c0.22,0.24,0.33,0.54,0.33,0.89
			s-0.11,0.64-0.33,0.88c-0.22,0.23-0.54,0.35-0.96,0.35s-0.74-0.12-0.94-0.35C307.08,140.79,306.98,140.5,306.98,140.15z"/>
		<path class="st1" d="M318.07,156.35c-1.71,0-3.1-0.56-4.18-1.69c-1.07-1.12-1.61-2.63-1.61-4.51v-0.4c0-1.25,0.24-2.37,0.72-3.36
			c0.48-0.98,1.15-1.75,2.01-2.31c0.86-0.56,1.79-0.83,2.79-0.83c1.64,0,2.92,0.54,3.83,1.62c0.91,1.08,1.37,2.63,1.37,4.64v0.9
			h-8.55c0.03,1.24,0.4,2.25,1.09,3.02c0.7,0.77,1.58,1.15,2.65,1.15c0.76,0,1.41-0.16,1.94-0.47c0.53-0.31,0.99-0.72,1.39-1.24
			l1.32,1.03C321.78,155.54,320.19,156.35,318.07,156.35z M317.81,145.04c-0.87,0-1.6,0.32-2.19,0.95c-0.59,0.63-0.96,1.52-1.1,2.67
			h6.32v-0.16c-0.06-1.1-0.36-1.95-0.89-2.55C319.42,145.34,318.71,145.04,317.81,145.04z"/>
	</g>
	<g>
		<defs>
			<polygon id="SVGID_1_" points="600,200.55 294,200.55 535.11,0.55 600,0.55 			"/>
		</defs>
		<use xlink:href="#SVGID_1_"  style="overflow:visible;opacity:0.6;fill:#F7B2BD;"/>
		<clipPath id="SVGID_00000131361772465193127610000015011527492505452932_">
			<use xlink:href="#SVGID_1_"  style="overflow:visible;opacity:0.6;"/>
		</clipPath>
	</g>
	<g>
		<g>
			<g>
				<circle class="st0" cx="363.69" cy="22.46" r="3.81"/>
			</g>
			<g>
				<circle class="st0" cx="413.4" cy="22.46" r="3.81"/>
			</g>
			<g>
				<circle class="st0" cx="463.11" cy="22.46" r="3.81"/>
			</g>
			<g>
				<circle class="st0" cx="363.69" cy="71.74" r="3.81"/>
			</g>
			<g>
				<circle class="st0" cx="413.4" cy="71.74" r="3.81"/>
			</g>
			<g>
				<circle class="st0" cx="463.11" cy="71.74" r="3.81"/>
			</g>
			<g>
				<path class="st0" d="M367.5,121.01c0,2.1-1.71,3.81-3.81,3.81c-2.1,0-3.81-1.71-3.81-3.81c0-2.1,1.71-3.81,3.81-3.81
					C365.8,117.2,367.5,118.91,367.5,121.01z"/>
			</g>
			<g>
				<path class="st0" d="M417.21,121.01c0,2.1-1.71,3.81-3.81,3.81c-2.1,0-3.81-1.71-3.81-3.81c0-2.1,1.71-3.81,3.81-3.81
					C415.51,117.2,417.21,118.91,417.21,121.01z"/>
			</g>
			<g>
				<path class="st0" d="M466.92,121.01c0,2.1-1.71,3.81-3.81,3.81c-2.1,0-3.81-1.71-3.81-3.81c0-2.1,1.71-3.81,3.81-3.81
					C465.22,117.2,466.92,118.91,466.92,121.01z"/>
			</g>
			<g>
				<path class="st0" d="M367.5,170.29c0,2.1-1.71,3.81-3.81,3.81c-2.1,0-3.81-1.71-3.81-3.81c0-2.1,1.71-3.81,3.81-3.81
					C365.8,166.48,367.5,168.19,367.5,170.29z"/>
			</g>
			<g>
				<path class="st0" d="M417.21,170.29c0,2.1-1.71,3.81-3.81,3.81c-2.1,0-3.81-1.71-3.81-3.81c0-2.1,1.71-3.81,3.81-3.81
					C415.51,166.48,417.21,168.19,417.21,170.29z"/>
			</g>
			<g>
				<path class="st0" d="M466.92,170.29c0,2.1-1.71,3.81-3.81,3.81c-2.1,0-3.81-1.71-3.81-3.81c0-2.1,1.71-3.81,3.81-3.81
					C465.22,166.48,466.92,168.19,466.92,170.29z"/>
			</g>
		</g>
		<g>
			<g>
				<circle class="st0" cx="509.75" cy="22.46" r="3.81"/>
			</g>
			<g>
				<circle class="st0" cx="559.46" cy="22.46" r="3.81"/>
			</g>
			<g>
				<circle class="st0" cx="509.75" cy="71.74" r="3.81"/>
			</g>
			<g>
				<circle class="st0" cx="559.46" cy="71.74" r="3.81"/>
			</g>
			<g>
				<path class="st0" d="M513.56,121.01c0,2.1-1.71,3.81-3.81,3.81c-2.1,0-3.81-1.71-3.81-3.81c0-2.1,1.71-3.81,3.81-3.81
					C511.86,117.2,513.56,118.91,513.56,121.01z"/>
			</g>
			<g>
				<path class="st0" d="M563.27,121.01c0,2.1-1.71,3.81-3.81,3.81c-2.1,0-3.81-1.71-3.81-3.81c0-2.1,1.71-3.81,3.81-3.81
					C561.57,117.2,563.27,118.91,563.27,121.01z"/>
			</g>
			<g>
				<path class="st0" d="M513.56,170.29c0,2.1-1.71,3.81-3.81,3.81c-2.1,0-3.81-1.71-3.81-3.81c0-2.1,1.71-3.81,3.81-3.81
					C511.86,166.48,513.56,168.19,513.56,170.29z"/>
			</g>
			<g>
				<path class="st0" d="M563.27,170.29c0,2.1-1.71,3.81-3.81,3.81c-2.1,0-3.81-1.71-3.81-3.81c0-2.1,1.71-3.81,3.81-3.81
					C561.57,166.48,563.27,168.19,563.27,170.29z"/>
			</g>
		</g>
	</g>
	<g>
		<defs>
			<polygon id="SVGID_00000062193479835370386870000014483725409769563055_" points="585.68,201.45 340.28,201.45 345.28,0.55 
				585.68,0.55 			"/>
		</defs>
		<clipPath id="SVGID_00000152246048475870733200000011434378202035464126_">
			<use xlink:href="#SVGID_00000062193479835370386870000014483725409769563055_"  style="overflow:visible;"/>
		</clipPath>
		<g style="clip-path:url(#SVGID_00000152246048475870733200000011434378202035464126_);">
			<g>
				<g class="st3">
					<g>
						<g>
							<path class="st4" d="M515.18,125.28c0.04,0.61,0.05,0.82,0.03,1.13c-0.02,0.33-0.07,0.76-0.11,1.09
								c-0.02,0.17-0.07,0.4-0.11,0.57c-0.21,1-0.63,2-0.95,2.6c-0.62,1.17-1.25,1.89-1.57,2.22c-0.34,0.35-0.59,0.59-1.19,1.04
								c-0.15,0.11-0.48,0.34-1.03,0.61c0.28-0.14,0.44-0.42,0.4-0.83c2.56-1.24,4.43-4.81,4.14-7.91
								C515.08,125.66,515.2,125.48,515.18,125.28z"/>
						</g>
					</g>
					<g>
						<g>
							<path class="st4" d="M505.87,26.93l0.93,9.83l0.93,9.84l0.93,9.83l0.93,9.84l0.93,9.83l0.93,9.84l0.93,9.83l0.93,9.84
								l0.93,9.83l0.93,9.84c0.02,0.19-0.11,0.37-0.39,0.51l-9.31-98.35C505.76,27.31,505.89,27.13,505.87,26.93z"/>
						</g>
					</g>
					<g>
						<g>
							<path class="st5" d="M496.81,21.61c0.53-0.24,0.69-0.31,1.23-0.45c0.41-0.11,0.9-0.16,1.12-0.17
								c0.81-0.03,1.56,0.04,2.58,0.45c-1.09-0.45-2.39-0.41-3.75,0.25C497.51,21.49,497.09,21.47,496.81,21.61z"/>
						</g>
					</g>
					<g>
						<g>
							<path class="st4" d="M501.73,21.44l0.43,0.18c-1.09-0.45-2.39-0.41-3.75,0.25l-0.43-0.18
								C499.34,21.03,500.65,20.99,501.73,21.44z"/>
						</g>
					</g>
					<g>
						<g>
							<path class="st6" d="M502.16,21.62c0.41,0.19,0.46,0.21,0.65,0.32c0.29,0.17,0.53,0.33,0.72,0.48
								c0.47,0.37,0.86,0.78,1.16,1.22c0.25,0.35,0.99,1.43,1.18,3.29c0.02,0.19-0.11,0.37-0.39,0.51c-0.29-3.1-2.65-4.63-5.21-3.38
								c-0.08-0.81-0.91-1.79-1.86-2.19C499.77,21.21,501.08,21.17,502.16,21.62z"/>
						</g>
					</g>
					<g>
						<g>
							<path class="st5" d="M510.26,134.53l-9.94,4.81l-9.94,4.81l-9.94,4.81l-9.94,4.81l-9.94,4.81l-9.94,4.81l-9.94,4.81
								l-9.94,4.81l-9.94,4.81l-9.94,4.81c0.28-0.14,0.44-0.42,0.4-0.83l99.37-48.12C510.7,134.11,510.54,134.39,510.26,134.53z"/>
						</g>
					</g>
					<g>
						<g>
							<path class="st7" d="M405.53,182.65c-0.37-0.17-0.5-0.23-0.76-0.39c-0.31-0.19-0.56-0.38-0.71-0.5
								c-0.62-0.51-0.97-1.02-1.14-1.26c-0.07-0.11-0.45-0.67-0.72-1.45c-0.26-0.75-0.32-1.31-0.37-1.71
								c0.03,0.27,0.33,0.57,0.89,0.8C402.93,180.41,404.02,182.01,405.53,182.65z"/>
						</g>
					</g>
					<g>
						<g>
							<path class="st4" d="M405.96,182.83l-0.43-0.18c-1.51-0.63-2.6-2.23-2.82-4.51l0.43,0.18
								C403.36,180.59,404.45,182.19,405.96,182.83z"/>
						</g>
					</g>
					<g>
						<g>
							<path class="st8" d="M410.89,182.65c-0.54,0.24-0.69,0.3-1.23,0.45c-0.36,0.1-0.86,0.16-1.08,0.17
								c-0.31,0.01-0.75,0.03-1.27-0.06c-0.43-0.07-0.77-0.16-1.33-0.38c-1.51-0.63-2.6-2.23-2.82-4.51
								c0.95,0.4,2.26,0.46,2.94,0.13c0.29,3.1,2.64,4.63,5.21,3.38C411.33,182.23,411.17,182.52,410.89,182.65z"/>
						</g>
					</g>
					<g>
						<g>
							<path class="st5" d="M397.43,69.74l9.94-4.81l9.94-4.81l9.94-4.81l9.94-4.81l9.94-4.81l9.94-4.81l9.94-4.81l9.94-4.81
								l9.94-4.81l9.94-4.81c0.29-0.14,0.7-0.12,1.18,0.08l-99.37,48.12C398.14,69.61,397.72,69.6,397.43,69.74z"/>
						</g>
					</g>
					<g>
						<g>
							<polygon class="st4" points="399.04,69.99 398.61,69.81 497.99,21.69 498.42,21.87 							"/>
						</g>
					</g>
					<g>
						<g>
							<path class="st5" d="M401.83,177.33l-0.93-9.83l-0.93-9.84l-0.93-9.83l-0.93-9.84l-0.93-9.83l-0.93-9.84l-0.93-9.83
								l-0.93-9.84l-0.93-9.83l-0.93-9.83c0.03,0.27,0.33,0.57,0.89,0.8l9.31,98.35C402.16,177.9,401.85,177.6,401.83,177.33z"/>
						</g>
					</g>
					<g>
						<g>
							<polygon class="st4" points="403.14,178.31 402.71,178.13 393.4,79.78 393.83,79.96 							"/>
						</g>
					</g>
					<g>
						<g>
							<path class="st6" d="M400.9,72.18c-0.08-0.81-0.91-1.79-1.86-2.19l99.37-48.12c0.95,0.4,1.78,1.38,1.86,2.19L400.9,72.18z"/>
						</g>
					</g>
					<g>
						<g>
							<path class="st6" d="M406.08,178.44c-0.67,0.33-1.99,0.27-2.94-0.13l-9.31-98.35c0.95,0.4,2.26,0.46,2.94,0.13L406.08,178.44
								z"/>
						</g>
					</g>
					<g>
						<g>
							<path class="st5" d="M392.51,78.98c-0.04-0.6-0.05-0.82-0.03-1.13c0.02-0.33,0.07-0.76,0.11-1.09
								c0.02-0.17,0.07-0.4,0.11-0.57c0.21-1,0.63-2,0.95-2.6c0.62-1.17,1.25-1.89,1.57-2.22c0.34-0.35,0.59-0.59,1.19-1.04
								c0.15-0.11,0.49-0.34,1.03-0.61c0.29-0.14,0.7-0.12,1.18,0.08c-3.24,1.57-5.59,6.05-5.22,9.97
								C392.84,79.55,392.54,79.25,392.51,78.98z"/>
						</g>
					</g>
					<g>
						<g>
							<path class="st4" d="M393.83,79.96l-0.43-0.18c-0.37-3.92,1.98-8.4,5.22-9.97l0.43,0.18
								C395.8,71.56,393.46,76.05,393.83,79.96z"/>
						</g>
					</g>
					<g>
						<g>
							<path class="st6" d="M396.76,80.09c-0.67,0.33-1.99,0.27-2.94-0.13c-0.37-3.92,1.98-8.4,5.22-9.97
								c0.95,0.4,1.78,1.38,1.86,2.19C398.34,73.42,396.47,76.99,396.76,80.09z"/>
						</g>
					</g>
					<g>
						<g>
							<path class="st0" d="M500.28,24.06c2.56-1.24,4.92,0.28,5.21,3.38c3.1,32.78,6.21,65.57,9.31,98.35
								c0.3,3.1-1.58,6.67-4.14,7.91c-33.12,16.04-66.25,32.08-99.37,48.12c-2.56,1.24-4.92-0.28-5.21-3.38
								c-3.1-32.78-6.21-65.57-9.31-98.35c-0.3-3.1,1.57-6.67,4.14-7.91C434.03,56.14,467.15,40.1,500.28,24.06z"/>
						</g>
					</g>
				</g>
			</g>
			<g>
				<g class="st3">
					<g>
						<g>
							<path class="st6" d="M515.62,126.45c0.01,0.1-0.05,0.19-0.2,0.26c0.23,2.4-1.22,5.17-3.21,6.13
								c0.02,0.21-0.06,0.36-0.21,0.43c0.85-0.43,1.34-0.93,1.61-1.2c0.24-0.25,0.71-0.79,1.16-1.64c0.12-0.22,0.51-1.01,0.71-1.93
								c0.11-0.53,0.13-0.81,0.16-1.22C515.66,127.05,515.65,126.88,515.62,126.45z"/>
						</g>
					</g>
					<g>
						<g>
							<path class="st6" d="M506.34,28.4l0.93,9.81l0.93,9.81l0.93,9.81l0.93,9.81l0.93,9.81l0.93,9.81l0.93,9.81l0.93,9.81
								l0.93,9.81l0.93,9.81c0.01,0.1-0.06,0.19-0.2,0.26l-9.29-98.05C506.28,28.59,506.35,28.5,506.34,28.4z"/>
						</g>
					</g>
					<g>
						<g>
							<path class="st9" d="M500.3,24.77c0.37-0.17,0.48-0.22,0.86-0.32c0.26-0.07,0.57-0.11,0.76-0.12
								c0.62-0.03,1.12,0.06,1.69,0.29c-0.78-0.33-1.73-0.3-2.7,0.18C500.66,24.7,500.45,24.7,500.3,24.77z"/>
						</g>
					</g>
					<g>
						<g>
							<path class="st10" d="M503.62,24.63l0.22,0.09c-0.78-0.33-1.73-0.3-2.7,0.18l-0.22-0.09
								C501.89,24.33,502.83,24.3,503.62,24.63z"/>
						</g>
					</g>
					<g>
						<g>
							<path class="st0" d="M503.84,24.72c0.47,0.21,0.65,0.32,1.08,0.68c0.33,0.28,0.6,0.67,0.69,0.81
								c0.22,0.33,0.62,1.05,0.73,2.19c0.01,0.1-0.05,0.19-0.2,0.26c-0.23-2.4-2.05-3.59-4.04-2.62c-0.04-0.42-0.47-0.93-0.97-1.14
								C502.11,24.43,503.05,24.39,503.84,24.72z"/>
						</g>
					</g>
					<g>
						<g>
							<path class="st6" d="M512.01,133.27l-9.93,4.81l-9.93,4.81l-9.93,4.81l-9.93,4.81l-9.93,4.81l-9.93,4.81l-9.93,4.81
								l-9.93,4.81l-9.93,4.81l-9.93,4.81c0.15-0.07,0.23-0.22,0.21-0.43l99.25-48.07C512.23,133.05,512.15,133.2,512.01,133.27z"/>
						</g>
					</g>
					<g>
						<g>
							<path class="st11" d="M409.22,181.38c-0.36-0.16-1.1-0.5-1.73-1.43c-0.61-0.9-0.72-1.84-0.76-2.24
								c0.01,0.14,0.17,0.29,0.46,0.42C407.34,179.77,408.13,180.92,409.22,181.38z"/>
						</g>
					</g>
					<g>
						<g>
							<path class="st12" d="M409.44,181.47l-0.22-0.09c-1.09-0.46-1.88-1.61-2.03-3.26l0.22,0.09
								C407.56,179.86,408.35,181.02,409.44,181.47z"/>
						</g>
					</g>
					<g>
						<g>
							<path class="st12" d="M412.76,181.33c-0.39,0.17-0.48,0.21-0.86,0.32c-0.23,0.06-0.56,0.11-0.74,0.11
								c-0.65,0.03-1.13-0.05-1.71-0.29c-1.09-0.46-1.88-1.61-2.03-3.26c0.49,0.21,1.18,0.24,1.52,0.07
								c0.23,2.4,2.05,3.58,4.03,2.62C412.98,181.11,412.9,181.26,412.76,181.33z"/>
						</g>
					</g>
					<g>
						<g>
							<path class="st9" d="M401.05,72.83l9.93-4.81l9.93-4.81l9.93-4.81l9.93-4.81l9.93-4.81l9.93-4.81l9.93-4.81l9.93-4.81
								l9.93-4.81l9.93-4.81c0.15-0.07,0.36-0.06,0.61,0.04l-99.25,48.07C401.41,72.77,401.2,72.76,401.05,72.83z"/>
						</g>
					</g>
					<g>
						<g>
							<polygon class="st10" points="401.88,72.97 401.66,72.87 500.91,24.81 501.13,24.9 							"/>
						</g>
					</g>
					<g>
						<g>
							<path class="st9" d="M406.72,177.71c-3.1-32.68-6.19-65.37-9.29-98.05c0.01,0.14,0.17,0.29,0.46,0.42l9.29,98.05
								C406.89,178,406.73,177.85,406.72,177.71z"/>
						</g>
					</g>
					<g>
						<g>
							<polygon class="st10" points="407.41,178.22 407.18,178.12 397.9,80.07 398.12,80.17 							"/>
						</g>
					</g>
					<g>
						<g>
							<path class="st0" d="M402.85,74.1c-0.04-0.42-0.47-0.93-0.97-1.14l99.25-48.07c0.49,0.21,0.93,0.72,0.97,1.14L402.85,74.1z"
								/>
						</g>
					</g>
					<g>
						<g>
							<path class="st0" d="M408.93,178.28c-0.35,0.17-1.03,0.14-1.52-0.07l-9.29-98.05c0.49,0.21,1.18,0.24,1.52,0.07
								L408.93,178.28z"/>
						</g>
					</g>
					<g>
						<g>
							<path class="st9" d="M397.43,79.66c-0.03-0.44-0.04-0.6-0.02-0.83c0.03-0.45,0.05-0.71,0.16-1.22
								c0.2-0.93,0.59-1.72,0.71-1.94c0.45-0.86,0.92-1.4,1.16-1.64c0.26-0.27,0.75-0.77,1.61-1.2c0.15-0.07,0.36-0.06,0.61,0.04
								c-2.34,1.13-4.03,4.37-3.76,7.2C397.61,79.95,397.45,79.8,397.43,79.66z"/>
						</g>
					</g>
					<g>
						<g>
							<path class="st10" d="M398.12,80.17l-0.22-0.09c-0.27-2.83,1.43-6.07,3.76-7.2l0.22,0.09
								C399.55,74.1,397.85,77.34,398.12,80.17z"/>
						</g>
					</g>
					<g>
						<g>
							<path class="st0" d="M399.64,80.23c-0.35,0.17-1.03,0.14-1.52-0.07c-0.27-2.83,1.43-6.07,3.76-7.2
								c0.49,0.21,0.93,0.72,0.97,1.14C400.86,75.06,399.41,77.83,399.64,80.23z"/>
						</g>
					</g>
					<g>
						<g>
							<path class="st10" d="M502.1,26.04c1.99-0.96,3.81,0.22,4.04,2.62c3.1,32.68,6.19,65.37,9.29,98.05
								c0.23,2.4-1.22,5.17-3.21,6.13c-33.08,16.02-66.17,32.04-99.25,48.07c-1.99,0.96-3.81-0.22-4.03-2.62
								c-3.1-32.68-6.19-65.37-9.29-98.05c-0.23-2.4,1.22-5.17,3.2-6.13C435.93,58.08,469.02,42.06,502.1,26.04z"/>
						</g>
					</g>
				</g>
			</g>
			<g class="st3">
				<g>
					<g>
						<path class="st13" d="M419.15,161.74l-4.06-42.84l42.42-20.54l4.06,42.84L419.15,161.74L419.15,161.74z M470.53,136.85
							l-4.06-42.84l34.07-16.5l4.06,42.84L470.53,136.85L470.53,136.85z M413.86,106.83l-2.33-24.63l85.56-41.19l2.33,24.63
							l-4.79,2.32l-79.58,38.29L413.86,106.83L413.86,106.83z"/>
					</g>
					<g>
						<g>
							<path class="st14" d="M484.48,96.05c-3.34,1.62-5.74,6.2-5.36,10.24c0.38,4.04,3.4,6,6.75,4.38
								c2.46-1.19,4.41-3.99,5.11-6.99c0.25-1.08,0.35-2.18,0.24-3.25c-0.22-2.32-1.31-3.95-2.83-4.62
								C487.27,95.32,485.91,95.36,484.48,96.05L484.48,96.05z M479.7,127.93l-0.27-2.82l14.92-7.22l0.27,2.82L479.7,127.93
								L479.7,127.93z M486.53,117.72c-6.56,3.18-12.49-0.68-13.24-8.6c-0.75-7.93,3.96-16.93,10.52-20.11
								c0.1-0.05,0.2-0.1,0.31-0.14c0.21-0.09,0.41-0.17,0.61-0.26c0.1-0.04,0.2-0.08,0.31-0.11c0.2-0.07,0.4-0.14,0.6-0.2
								c0.19-0.05,0.37-0.1,0.56-0.14l0.06-0.01c0.09-0.02,0.19-0.04,0.28-0.06c0.2-0.04,0.39-0.08,0.59-0.1
								c0.19-0.02,0.38-0.04,0.57-0.06c0.1-0.01,0.19-0.02,0.29-0.02c0.19-0.01,0.38-0.02,0.56,0c0.19,0,0.37,0.01,0.55,0.03
								c0.09,0.01,0.18,0.02,0.28,0.03c0.55,0.06,1.07,0.19,1.57,0.37c0.09,0.03,0.17,0.06,0.25,0.09c0.1,0.04,0.21,0.08,0.31,0.12
								l0,0c2.99,1.31,5.12,4.51,5.56,9.06c0.2,2.09,0.01,4.27-0.48,6.38l-0.01,0.03c-0.04,0.17-0.08,0.34-0.13,0.52
								c-0.03,0.14-0.07,0.28-0.11,0.42c-0.26,0.93-0.58,1.84-0.96,2.74c-0.04,0.1-0.08,0.19-0.12,0.28
								c-0.13,0.3-0.26,0.59-0.41,0.88c-0.07,0.14-0.14,0.28-0.21,0.41c-0.15,0.29-0.3,0.57-0.46,0.85
								c-0.06,0.11-0.12,0.22-0.19,0.33l-0.01,0.01c-0.13,0.22-0.26,0.43-0.4,0.64c-0.07,0.11-0.14,0.22-0.2,0.32
								c-0.14,0.22-0.28,0.42-0.43,0.63c-0.44,0.62-0.9,1.21-1.4,1.76c-0.08,0.09-0.16,0.18-0.25,0.27
								c-0.25,0.27-0.5,0.54-0.76,0.79c-0.26,0.26-0.53,0.5-0.8,0.73c-0.27,0.23-0.54,0.45-0.81,0.65l-0.05,0.04
								c-0.09,0.06-0.17,0.13-0.26,0.19c-0.1,0.07-0.19,0.14-0.29,0.2c-0.1,0.07-0.19,0.13-0.29,0.19c-0.1,0.07-0.2,0.13-0.29,0.19
								c-0.1,0.06-0.2,0.12-0.3,0.18C487.15,117.41,486.84,117.57,486.53,117.72L486.53,117.72z M500.54,77.51l-34.07,16.5
								l4.06,42.84l34.07-16.5L500.54,77.51L500.54,77.51z"/>
						</g>
					</g>
					<g>
						<g>
							<path class="st14" d="M421.52,149.96l-0.27-2.82l17.49-8.47l0.27,2.82L421.52,149.96L421.52,149.96z M420.91,143.5
								l-0.27-2.82l35.74-17.31l0.27,2.82L420.91,143.5L420.91,143.5z M420.3,137.04l-0.27-2.82l35.74-17.31l0.27,2.82L420.3,137.04
								L420.3,137.04z M419.69,130.58l-0.27-2.82l35.74-17.31l0.27,2.82L419.69,130.58L419.69,130.58z M419.08,124.12l-0.27-2.82
								l35.74-17.31l0.27,2.82L419.08,124.12L419.08,124.12z M457.51,98.35l-42.42,20.54l4.06,42.84l42.42-20.54L457.51,98.35
								L457.51,98.35z"/>
						</g>
					</g>
					<g>
						<g>
							<path class="st14" d="M417.09,99.61l-0.34-3.59L484.2,63.6l0.34,3.59L417.09,99.61L417.09,99.61z M416.21,90.34l-0.51-5.35
								l54.25-26.03l0.51,5.35L416.21,90.34L416.21,90.34z M474.2,62.5l-0.51-5.35l15.8-7.65l0.51,5.35L474.2,62.5L474.2,62.5z
								 M497.09,41.01L411.53,82.2l2.33,24.63l1.18-0.57l79.58-38.29l4.79-2.32L497.09,41.01L497.09,41.01z"/>
						</g>
					</g>
					<g>
						<polygon class="st9" points="469.96,58.96 415.71,84.99 416.21,90.34 470.46,64.31 469.96,58.96 						"/>
					</g>
					<g>
						<polygon class="st9" points="484.2,63.6 416.75,96.02 417.09,99.61 484.54,67.19 484.2,63.6 						"/>
					</g>
					<g>
						<polygon class="st9" points="454.55,103.99 418.81,121.3 419.08,124.12 454.81,106.81 454.55,103.99 						"/>
					</g>
					<g>
						<polygon class="st9" points="455.16,110.45 419.42,127.76 419.69,130.58 455.43,113.27 455.16,110.45 						"/>
					</g>
					<g>
						<polygon class="st9" points="455.77,116.91 420.03,134.22 420.3,137.04 456.04,119.73 455.77,116.91 						"/>
					</g>
					<g>
						<polygon class="st9" points="456.38,123.38 420.65,140.69 420.91,143.5 456.65,126.2 456.38,123.38 						"/>
					</g>
					<g>
						<polygon class="st9" points="438.74,138.68 421.26,147.15 421.52,149.96 439.01,141.49 438.74,138.68 						"/>
					</g>
					<g>
						<polygon class="st9" points="494.35,117.89 479.43,125.12 479.7,127.93 494.62,120.71 494.35,117.89 						"/>
					</g>
					<g>
						<polygon class="st9" points="489.5,49.5 473.7,57.15 474.2,62.5 490.01,54.85 489.5,49.5 						"/>
					</g>
					<g>
						<path class="st9" d="M491.5,88.55l-3.1,7.27c-1.13-0.49-2.49-0.45-3.91,0.24c-3.34,1.62-5.74,6.2-5.36,10.24
							c-0.38-4.04,2.02-8.62,5.36-10.24c1.42-0.69,2.79-0.73,3.91-0.24c1.52,0.66,2.61,2.3,2.83,4.62c0.1,1.07,0.01,2.17-0.24,3.25
							l5.59,0.31l-0.01,0.03c-0.04,0.17-0.08,0.34-0.13,0.52c-0.03,0.14-0.07,0.28-0.11,0.42c-0.26,0.93-0.58,1.84-0.96,2.74
							c-0.04,0.1-0.08,0.19-0.12,0.28c-0.13,0.3-0.26,0.59-0.41,0.88c-0.07,0.14-0.14,0.28-0.21,0.41c-0.15,0.29-0.3,0.57-0.46,0.85
							c-0.06,0.11-0.12,0.22-0.19,0.33l-0.01,0.01c-0.13,0.22-0.26,0.43-0.4,0.64c-0.07,0.11-0.14,0.22-0.2,0.32
							c0.07-0.1,0.14-0.21,0.2-0.32c0.14-0.21,0.27-0.43,0.4-0.64l0.01-0.01c0.06-0.11,0.12-0.22,0.19-0.33
							c0.16-0.28,0.32-0.56,0.46-0.85c0.07-0.13,0.14-0.27,0.21-0.41c0.14-0.29,0.28-0.58,0.41-0.88c0.04-0.09,0.08-0.18,0.12-0.28
							c0.38-0.89,0.7-1.81,0.96-2.74c0.04-0.14,0.08-0.28,0.11-0.42c0.05-0.17,0.09-0.34,0.13-0.52l0.01-0.03
							c0.5-2.12,0.68-4.29,0.48-6.38C496.62,93.06,494.48,89.85,491.5,88.55L491.5,88.55z"/>
					</g>
					<g>
						<path class="st15" d="M483.81,89c-6.56,3.18-11.27,12.18-10.52,20.11c0.75,7.93,6.68,11.78,13.24,8.6
							c0.31-0.15,0.61-0.31,0.91-0.49c0.1-0.06,0.2-0.11,0.3-0.18c0.1-0.06,0.2-0.12,0.29-0.19c0.1-0.06,0.19-0.13,0.29-0.19
							c0.1-0.06,0.19-0.13,0.29-0.2c0.09-0.07,0.17-0.13,0.26-0.19l0.05-0.04c0.27-0.2,0.55-0.42,0.81-0.65
							c0.27-0.23,0.54-0.47,0.8-0.73c0.26-0.25,0.52-0.51,0.76-0.79c0.08-0.09,0.17-0.18,0.25-0.27c0.49-0.55,0.96-1.14,1.4-1.76
							c0.15-0.2,0.29-0.41,0.43-0.63c0.07-0.1,0.14-0.21,0.2-0.32c0.14-0.21,0.27-0.43,0.4-0.64l0.01-0.01
							c0.06-0.11,0.12-0.22,0.19-0.33c0.16-0.28,0.32-0.56,0.46-0.85c0.07-0.13,0.14-0.27,0.21-0.41c0.14-0.29,0.28-0.58,0.41-0.88
							c0.04-0.09,0.08-0.18,0.12-0.28c0.38-0.89,0.7-1.81,0.96-2.74c0.04-0.14,0.08-0.28,0.11-0.42c0.05-0.17,0.09-0.34,0.13-0.52
							l0.01-0.03l-5.59-0.31c-0.71,3-2.65,5.8-5.11,6.99c-3.34,1.62-6.36-0.35-6.75-4.38c-0.38-4.04,2.02-8.62,5.36-10.24
							c1.42-0.69,2.79-0.73,3.91-0.24l3.1-7.27l0,0c-0.1-0.04-0.21-0.09-0.31-0.12c-0.09-0.03-0.17-0.06-0.25-0.09
							c-0.5-0.18-1.02-0.31-1.57-0.37c-0.09-0.01-0.18-0.02-0.28-0.03c-0.18-0.02-0.36-0.03-0.55-0.03c-0.18-0.01-0.37-0.01-0.56,0
							c-0.1,0-0.19,0.01-0.29,0.02c-0.19,0.01-0.38,0.04-0.57,0.06c-0.2,0.02-0.39,0.06-0.59,0.1c-0.09,0.02-0.19,0.04-0.28,0.06
							l-0.06,0.01c-0.18,0.04-0.37,0.09-0.56,0.14c-0.2,0.05-0.4,0.12-0.6,0.2c-0.1,0.04-0.2,0.07-0.31,0.11
							c-0.2,0.08-0.4,0.17-0.61,0.26C484.02,88.91,483.92,88.95,483.81,89L483.81,89z"/>
					</g>
				</g>
			</g>
			<g>
				<g>
					<g>
						<path class="st16" d="M425.53,162.77c0.12,3.46-0.99,9.48-1.05,10.23c3.59,15,12.58,26.17,13.8,31.43
							c0.82,3.51-7.85,4.77-15.34,8.38c-3.73,1.81-11.6,3.98-11.74,3.6c-0.41-1.14-8.41-36.62-12.35-42.9
							c-3.93-6.28-11.76-19.06-11.99-20.99c-0.03-0.18-0.02-0.37,0.01-0.58c0.27-2.03,2.36-7.61,2.77-8.59
							c0.45-1.08,2.14-11.73,2.29-13.69c0.05-0.66,0.36-1.63,0.79-2.64c0.49-1.19,1.15-2.46,1.7-3.4c0-0.01,0-0.01,0-0.01
							c0.36-0.6,0.67-1.06,0.88-1.28c0.24-0.26,0.69-0.55,1.22-0.84c1.23-0.66,2.82-1.27,2.82-1.27s0.33-0.7,0.84-1.6
							c1.54-2.74,5.03-2.1,5.03-2.1c0.05,0,1.58,0.13,2.81,2.05c0.89,1.39,3.79,12.22,3.79,12.22s2.95,9.63,7.45,15.75"/>
					</g>
					<g>
						<path class="st17" d="M406.34,153c-1.82-5.44-2.23-8.1-2.23-8.1l-2.8-3.44c0,0,0.58-1.02,0.8-1.42
							c0.22-0.4-1.77-4.93-3.33-9.43c-1.56-4.5-3.71-3.55-3.81-4.71c-0.07-0.84,0.74-2.75,1.55-4.38c1.23-0.66,2.82-1.27,2.82-1.27
							c-0.3,1.39-0.15,4.71,0.53,7.44c0.68,2.73,5.09,15.79,6.05,18.36C406.89,148.61,405.72,149.36,406.34,153z"/>
					</g>
					<g class="st18">
						<path class="st17" d="M418.66,214.35c-3.73,1.8-7.32,2.45-7.45,2.07c-0.4-1.14-8.41-36.62-12.35-42.9
							c-3.94-6.28-11.76-19.07-11.99-20.99c-0.02-0.18-0.02-0.37,0.01-0.58c0,0.01,0.01,0.01,0.01,0.01c1.33,2.7,3.98-0.36,3.2-2.36
							c-0.77-2,0.92-6.36,1.44-8.36c0.51-1.97,0.87-12.71,1.2-14.21l0-0.03c0.31-1.34,1.59-3.22,1.7-3.37
							c-0.06,0.25-1.33,5.72-1.54,9.86c-0.21,4.23,0.46,6.87-0.43,8.92c-0.89,2.06-1.39,3.83,0.93,4.93
							c2.32,1.08,7.83,13.78,9.98,19.76c1.92,5.35,1.57,6.49,3.42,12.91C408.45,185.84,414.45,203.95,418.66,214.35z"/>
					</g>
					<g>
						<path class="st19" d="M408.47,123.78c-0.35,1.02-4.14,1.83-5.06,1.98c-0.92,0.15-2.01-1.61-2.2-2.04
							c-0.19-0.43-0.8-2.71-0.01-4.48c0.79-1.77,2.69-2.2,3.66-2.15c0.97,0.05,2.12,0.67,2.75,2.18c0.78,1.85,0.87,4.37,0.87,4.37
							L408.47,123.78z"/>
					</g>
				</g>
				<g>
					<g>
						<path class="st17" d="M426.5,204.88c7.16-2.65,12.47-2.37,11.86,0.64c-0.61,3.01-8.11,8.25-15.27,10.9
							c-7.16,2.65-12.47,2.36-11.85-0.65C411.85,212.77,419.34,207.53,426.5,204.88z"/>
					</g>
				</g>
			</g>
			<g>
				<g>
					<g>
						<path class="st16" d="M563.36,207.25l-18.44,9.77l-7.14,3.79c0,0-14.05-24.82-15.4-26.72c-1.34-1.9-6.52-4.61-8.11-6.57
							c-1.6-1.96-9.94-14.05-10.72-16.86c-0.77-2.8-1.54-10.41-1.64-14.84c-0.11-4.42,0.41-6.14,0.41-6.14s-0.37-1.18-1.33-3.23
							c-0.62-1.32-0.88-2.27-0.61-3.19l0-0.01c0.15-0.51,0.47-1.02,0.98-1.57c0.79-0.86,1.88-0.85,2.69-0.65
							c0.65,0.16,1.13,0.42,1.13,0.42s-6.48-20.71-7.06-25.44c-0.33-2.73,0.66-4.05,1.82-4.7c0.84-0.48,1.78-0.6,2.34-0.65
							c1.35-0.13,2.8,4.61,2.8,4.61l14.12,32.03c0,0,1.89-2.73,5.41-2.91c3.52-0.18,4.17,2.23,4.17,2.23s0,0,1.62-0.25
							c1.62-0.25,4.88,0.92,5.63,4.03c2-1.14,5.18,0.03,6.55,2.04c1.37,2.01,2.91,10.07,3.28,15.05c0.37,4.98,0.45,8.36,2,12.09
							C549.65,183.92,563.36,207.25,563.36,207.25z"/>
					</g>
					<g>
						<path class="st17" d="M511.29,168.19c-0.22-1.54-0.66-4.17-0.75-5.97c-0.09-1.8-0.05-4.16-0.72-6.8
							c-0.67-2.64-0.53-5.3-1.4-6.89c-0.86-1.59-3.25-7.08-3.25-7.08s2.23,7.46,2.61,9.35c0.38,1.9,1.47,10.75,1.54,12.36
							S510.06,166.99,511.29,168.19z"/>
					</g>
					<g>
						<path class="st19" d="M505.77,145.04c-0.19,1.17-1.33,2.12-2.09,2.6c-0.76,0.47-1.5,0.47-1.5,0.47s-0.2-0.06-0.58-0.62
							c-0.38-0.56-1.16-2.65-1.23-3.53c-0.06-0.88,0.72-2.31,1.88-2.54c1.16-0.23,1.65-0.12,1.88,0.26
							C504.37,142.07,505.81,144.81,505.77,145.04z"/>
					</g>
					<g>
						<path class="st19" d="M499.92,112.13c-0.13,1.62,0.98,3.71,1.6,4.2c0.62,0.48,2.25,0.49,2.66,0.33
							c0.88-0.35,1.03-0.81,0.79-1.42c-0.34-0.85-1.09-3.45-2.02-4.07C502.03,110.54,500,111.17,499.92,112.13z"/>
					</g>
					<g class="st18">
						<path class="st17" d="M543.97,217.82l-6.19,2.99c0,0-14.05-24.82-15.4-26.72c-1.34-1.9-6.52-4.61-8.11-6.57
							c-1.6-1.96-9.94-14.05-10.72-16.86c-0.77-2.8-1.54-10.41-1.64-14.84c-0.11-4.42,0.41-6.14,0.41-6.14s-0.37-1.18-1.33-3.23
							c-0.62-1.32-0.88-2.27-0.61-3.19c0.4,2.6,2.23,5.6,2.26,6.45c0.04,0.84-0.13,1.28-0.21,2.65c-0.08,1.37,0.12,4.31,0.44,7.99
							c0.22,2.59,0.36,5.14,0.97,7.27c0.24-0.22,0.68-0.61,1.07-0.92c0.01-0.01,0.02-0.02,0.03-0.02c0.02-0.02,0.03-0.03,0.05-0.04
							c0.01-0.01,0.01-0.01,0.01-0.01c0.99-0.74,2.09-0.07,2.17-1.08c0.13-1.67-0.92-6.7-1.29-9.71c-0.37-3,0.74-9.39-1.33-13.98
							c-0.11-0.24-0.27-0.52-0.48-0.82c0.65,0.16,1.13,0.42,1.13,0.42s-6.48-20.71-7.06-25.44c-0.33-2.73,0.66-4.05,1.82-4.7
							c-0.5,0.82-0.73,1.65-0.8,2.46c-0.1,1.21,0.53,4.84,2.9,11.58c2.36,6.74,10.08,27.35,11.56,30.52c1.48,3.17-0.5,8.9-0.1,11.58
							c0.4,2.67,2.07,10.45,8.11,15.09c6.04,4.64,4.19,5.3,5.93,9.65C529.15,196.26,543.97,217.82,543.97,217.82z"/>
					</g>
				</g>
				<g>
					<g>
						<path class="st20" d="M551.44,208.42c7.18-3.05,12.61-3.01,12.13,0.08c-0.48,3.1-6.7,8.08-13.88,11.13
							c-7.18,3.05-12.6,3.01-12.12-0.09C538.05,216.45,544.26,211.47,551.44,208.42z"/>
					</g>
				</g>
			</g>
		</g>
	</g>
</g>
</svg>
