<?xml version="1.0" encoding="utf-8"?>
<!-- Generator: Adobe Illustrator 25.4.1, SVG Export Plug-In . SVG Version: 6.00 Build 0)  -->
<svg version="1.1" id="Capa_1" xmlns="http://www.w3.org/2000/svg" xmlns:xlink="http://www.w3.org/1999/xlink" x="0px" y="0px"
	 viewBox="0 0 600 200" style="enable-background:new 0 0 600 200;" xml:space="preserve">
<style type="text/css">
	.st0{fill:#A393C0;}
	.st1{clip-path:url(#SVGID_00000049930557599203762600000005166229555998582915_);}
	.st2{fill:#FFFFFF;}
	.st3{fill:#44505F;}
</style>
<g>
	<path class="st0" d="M35.91,76.75v17.7H25.75V44.12h17.15c4.98,0,8.95,1.54,11.91,4.63c2.96,3.09,4.44,7.1,4.44,12.03
		c0,4.93-1.46,8.83-4.39,11.69c-2.93,2.86-6.98,4.29-12.17,4.29H35.91z M35.91,68.28h6.98c1.94,0,3.43-0.63,4.49-1.9
		c1.06-1.27,1.59-3.11,1.59-5.53c0-2.51-0.54-4.51-1.62-6c-1.08-1.49-2.54-2.24-4.36-2.26h-7.09V68.28z"/>
	<path class="st0" d="M102.16,73.81c0,6.75-1.6,12-4.79,15.73c-3.19,3.73-7.62,5.6-13.29,5.6c-5.65,0-10.08-1.85-13.31-5.55
		c-3.23-3.7-4.86-8.88-4.91-15.54v-8.61c0-6.91,1.6-12.31,4.81-16.2c3.2-3.88,7.65-5.82,13.34-5.82c5.6,0,10.01,1.91,13.24,5.72
		c3.23,3.81,4.86,9.17,4.91,16.06V73.81z M91.96,65.38c0-4.54-0.65-7.92-1.94-10.13c-1.29-2.21-3.3-3.32-6.02-3.32
		c-2.7,0-4.69,1.07-5.98,3.2c-1.29,2.13-1.96,5.38-2,9.73v8.95c0,4.4,0.66,7.65,1.97,9.73c1.31,2.09,3.34,3.13,6.08,3.13
		c2.65,0,4.62-1.02,5.91-3.06c1.29-2.04,1.95-5.2,1.97-9.49V65.38z"/>
	<path class="st0" d="M110.17,94.45V44.12h13.31c5.88,0,10.56,1.87,14.05,5.6c3.49,3.73,5.27,8.85,5.34,15.35v8.16
		c0,6.62-1.75,11.81-5.24,15.57c-3.49,3.77-8.3,5.65-14.43,5.65H110.17z M120.33,52.59v33.43h3.04c3.39,0,5.77-0.89,7.16-2.68
		s2.11-4.87,2.18-9.25v-8.75c0-4.7-0.66-7.98-1.97-9.83c-1.31-1.86-3.55-2.83-6.71-2.92H120.33z"/>
	<path class="st0" d="M184.99,77.69c-0.25,5.74-1.87,10.08-4.84,13.03s-7.17,4.42-12.58,4.42c-5.69,0-10.05-1.87-13.08-5.62
		c-3.03-3.75-4.55-9.09-4.55-16.02v-8.47c0-6.91,1.57-12.24,4.7-15.99c3.13-3.75,7.49-5.62,13.07-5.62c5.48,0,9.65,1.53,12.5,4.6
		c2.85,3.07,4.47,7.47,4.86,13.21h-10.2c-0.09-3.55-0.64-6-1.64-7.35c-1-1.35-2.84-2.02-5.51-2.02c-2.72,0-4.64,0.95-5.77,2.85
		c-1.13,1.9-1.73,5.03-1.8,9.39v9.51c0,5,0.56,8.43,1.68,10.3c1.12,1.87,3.04,2.8,5.76,2.8c2.67,0,4.52-0.65,5.53-1.95
		c1.01-1.3,1.59-3.66,1.73-7.07H184.99z"/>
	<path class="st0" d="M215.98,84.15h-13.86l-2.7,10.3h-10.75l15.73-50.33h9.3l15.83,50.33h-10.85L215.98,84.15z M204.33,75.68h9.4
		l-4.7-17.94L204.33,75.68z"/>
	<path class="st0" d="M256.21,81.25c0-2.05-0.52-3.6-1.57-4.65c-1.05-1.05-2.96-2.14-5.72-3.27c-5.05-1.91-8.68-4.15-10.89-6.72
		c-2.21-2.57-3.32-5.61-3.32-9.11c0-4.24,1.5-7.65,4.51-10.21c3.01-2.57,6.83-3.85,11.46-3.85c3.09,0,5.84,0.65,8.26,1.95
		s4.28,3.14,5.58,5.51c1.3,2.37,1.95,5.07,1.95,8.09h-10.13c0-2.35-0.5-4.14-1.5-5.38c-1-1.23-2.45-1.85-4.34-1.85
		c-1.78,0-3.16,0.52-4.15,1.57c-0.99,1.05-1.49,2.46-1.49,4.23c0,1.38,0.55,2.63,1.66,3.75c1.11,1.12,3.06,2.28,5.88,3.47
		c4.91,1.77,8.48,3.95,10.7,6.53c2.22,2.58,3.34,5.87,3.34,9.85c0,4.38-1.39,7.8-4.18,10.27c-2.79,2.47-6.58,3.7-11.37,3.7
		c-3.25,0-6.21-0.67-8.88-2c-2.67-1.34-4.77-3.25-6.27-5.74c-1.51-2.49-2.26-5.43-2.26-8.82h10.2c0,2.9,0.56,5.01,1.69,6.33
		c1.13,1.31,2.97,1.97,5.53,1.97C254.43,86.88,256.21,85,256.21,81.25z"/>
	<path class="st0" d="M306.49,52.59h-12.45v41.86h-10.2V52.59h-12.24v-8.47h34.88V52.59z"/>
</g>
<g>
	<defs>
		<polygon id="SVGID_1_" points="600,200.44 286.7,200.44 397.61,0.56 600,0.56 		"/>
	</defs>
	<use xlink:href="#SVGID_1_"  style="overflow:visible;fill:#CBDBC1;"/>
	<clipPath id="SVGID_00000103257449676050138790000005924141033372757399_">
		<use xlink:href="#SVGID_1_"  style="overflow:visible;"/>
	</clipPath>
	<g style="clip-path:url(#SVGID_00000103257449676050138790000005924141033372757399_);">
		<g>
			<g>
				<path class="st2" d="M322.94,140.16c-0.33,0-0.66-0.08-0.96-0.25c-0.97-0.53-1.32-1.75-0.79-2.72l41.64-75.75
					c0.53-0.97,1.75-1.32,2.72-0.79c0.97,0.53,1.32,1.75,0.79,2.72l-41.64,75.75C324.33,139.79,323.64,140.16,322.94,140.16z"/>
			</g>
			<g>
				<path class="st2" d="M330.59,145.12c-0.33,0-0.66-0.08-0.97-0.25c-0.97-0.54-1.32-1.75-0.78-2.72l50.84-91.7
					c0.54-0.97,1.75-1.31,2.72-0.78c0.97,0.54,1.32,1.75,0.78,2.72l-50.84,91.7C331.97,144.75,331.29,145.12,330.59,145.12z"/>
			</g>
			<g>
				<path class="st2" d="M349.85,149.84c-0.33,0-0.66-0.08-0.97-0.25c-0.97-0.54-1.31-1.75-0.77-2.72l53.38-95.85
					c0.54-0.96,1.76-1.31,2.72-0.77c0.97,0.54,1.31,1.76,0.77,2.72l-53.38,95.85C351.23,149.47,350.55,149.84,349.85,149.84z"/>
			</g>
			<g>
				<path class="st2" d="M355.27,159.22c-0.33,0-0.66-0.08-0.97-0.25c-0.97-0.54-1.31-1.75-0.77-2.72L417.54,41.3
					c0.54-0.96,1.75-1.31,2.72-0.77c0.96,0.54,1.31,1.76,0.77,2.72l-64.02,114.94C356.65,158.85,355.97,159.22,355.27,159.22z"/>
			</g>
			<g>
				<path class="st2" d="M370.56,150.88c-0.33,0-0.66-0.08-0.97-0.25c-0.97-0.54-1.31-1.75-0.77-2.72l54.91-98.59
					c0.54-0.96,1.75-1.31,2.72-0.77c0.96,0.54,1.31,1.76,0.77,2.72l-54.91,98.59C371.94,150.51,371.26,150.88,370.56,150.88z"/>
			</g>
			<g>
				<path class="st2" d="M373.12,165.38c-0.33,0-0.66-0.08-0.97-0.25c-0.97-0.54-1.31-1.75-0.77-2.72l71.24-127.92
					c0.54-0.96,1.76-1.31,2.72-0.77c0.97,0.54,1.31,1.76,0.77,2.72l-71.24,127.92C374.51,165.01,373.83,165.38,373.12,165.38z"/>
			</g>
			<g>
				<path class="st2" d="M381.82,168.87c-0.33,0-0.66-0.08-0.97-0.25c-0.96-0.54-1.31-1.75-0.77-2.72l75.67-135.87
					c0.54-0.96,1.75-1.31,2.72-0.77c0.96,0.54,1.31,1.76,0.77,2.72l-75.67,135.87C383.2,168.5,382.52,168.87,381.82,168.87z"/>
			</g>
			<g>
				<path class="st2" d="M342.15,142.85c-0.34,0-0.68-0.08-0.99-0.26c-0.96-0.55-1.29-1.77-0.75-2.73l47.38-83.09
					c0.55-0.96,1.77-1.29,2.73-0.75c0.96,0.55,1.29,1.77,0.75,2.73l-47.38,83.09C343.52,142.48,342.85,142.85,342.15,142.85z"/>
			</g>
		</g>
		<g>
			<path class="st2" d="M393.76,170.51c-0.33,0-0.66-0.08-0.96-0.25c-0.97-0.53-1.32-1.75-0.79-2.72l77.2-140.1
				c0.53-0.97,1.75-1.32,2.72-0.79c0.97,0.53,1.32,1.75,0.79,2.72l-77.2,140.1C395.15,170.13,394.46,170.51,393.76,170.51z"/>
		</g>
		<g>
			<path class="st2" d="M399.77,187.21c-0.32,0-0.65-0.08-0.95-0.24c-0.97-0.53-1.33-1.74-0.81-2.71l93.73-173.49
				c0.53-0.97,1.74-1.33,2.71-0.81c0.97,0.53,1.33,1.74,0.81,2.71l-93.73,173.49C401.17,186.83,400.48,187.21,399.77,187.21z"/>
		</g>
		<g>
			<path class="st2" d="M421.97,169.05c-0.33,0-0.66-0.08-0.96-0.25c-0.97-0.53-1.32-1.75-0.79-2.72l76.21-138.3
				c0.53-0.97,1.75-1.32,2.72-0.79c0.97,0.53,1.32,1.75,0.79,2.72l-76.21,138.3C423.36,168.68,422.68,169.05,421.97,169.05z"/>
		</g>
		<g>
			<path class="st2" d="M440.55,157.47c-0.33,0-0.66-0.08-0.96-0.25c-0.97-0.53-1.32-1.75-0.79-2.72l63.71-115.62
				c0.53-0.97,1.75-1.32,2.72-0.79c0.97,0.53,1.32,1.75,0.79,2.72L442.3,156.43C441.94,157.09,441.25,157.47,440.55,157.47z"/>
		</g>
		<g>
			<path class="st2" d="M451.43,159.86c-0.33,0-0.66-0.08-0.96-0.25c-0.97-0.53-1.32-1.75-0.79-2.72L516.3,36
				c0.53-0.97,1.75-1.32,2.72-0.79c0.97,0.53,1.32,1.75,0.79,2.72l-66.62,120.89C452.82,159.49,452.14,159.86,451.43,159.86z"/>
		</g>
		<g>
			<path class="st2" d="M471.67,145.26c-0.33,0-0.66-0.08-0.96-0.25c-0.97-0.53-1.32-1.75-0.79-2.72l50.81-92.2
				c0.53-0.97,1.75-1.32,2.72-0.79c0.97,0.53,1.32,1.75,0.79,2.72l-50.81,92.2C473.06,144.89,472.37,145.26,471.67,145.26z"/>
		</g>
		<g>
			<path class="st2" d="M482.87,147.07c-0.33,0-0.66-0.08-0.96-0.25c-0.97-0.53-1.32-1.75-0.79-2.72l53.06-96.3
				c0.53-0.97,1.75-1.32,2.72-0.79c0.97,0.53,1.32,1.75,0.79,2.72l-53.06,96.29C484.26,146.7,483.58,147.07,482.87,147.07z"/>
		</g>
		<g>
			<path class="st2" d="M501.7,135.04c-0.33,0-0.66-0.08-0.96-0.25c-0.97-0.53-1.32-1.75-0.79-2.72l40.08-72.74
				c0.53-0.97,1.75-1.32,2.72-0.79c0.97,0.53,1.32,1.75,0.79,2.72l-40.08,72.74C503.08,134.67,502.4,135.04,501.7,135.04z"/>
		</g>
		<g>
			<path class="st2" d="M506.72,148.07c-0.33,0-0.66-0.08-0.96-0.25c-0.97-0.53-1.32-1.75-0.79-2.72l54.71-99.28
				c0.53-0.97,1.75-1.32,2.72-0.79c0.97,0.53,1.32,1.75,0.79,2.72l-54.71,99.28C508.11,147.7,507.42,148.07,506.72,148.07z"/>
		</g>
		<g>
			<path class="st2" d="M524.1,138.64c-0.33,0-0.66-0.08-0.96-0.25c-0.97-0.53-1.32-1.75-0.79-2.72l44.59-80.93
				c0.53-0.97,1.75-1.32,2.72-0.79c0.97,0.53,1.32,1.75,0.79,2.72l-44.59,80.93C525.49,138.27,524.81,138.64,524.1,138.64z"/>
		</g>
		<g>
			<path class="st2" d="M540.61,130.82c-0.33,0-0.66-0.08-0.96-0.25c-0.97-0.53-1.32-1.75-0.79-2.72l36.24-65.77
				c0.53-0.97,1.75-1.32,2.72-0.79c0.97,0.53,1.32,1.75,0.79,2.72l-36.24,65.77C542,130.45,541.31,130.82,540.61,130.82z"/>
		</g>
		<g>
			<path class="st2" d="M561.11,115.75c-0.33,0-0.66-0.08-0.96-0.25c-0.97-0.53-1.32-1.75-0.79-2.72l19.91-36.12
				c0.53-0.97,1.75-1.32,2.72-0.79c0.97,0.53,1.32,1.75,0.79,2.72l-19.91,36.12C562.5,115.38,561.82,115.75,561.11,115.75z"/>
		</g>
		<g>
			<path class="st2" d="M558.16,143.24c-0.32,0-0.64-0.07-0.93-0.23c-0.98-0.52-1.35-1.73-0.83-2.7l48.23-90.96
				c0.52-0.98,1.73-1.35,2.7-0.83c0.98,0.52,1.35,1.73,0.83,2.7l-48.23,90.96C559.57,142.86,558.88,143.24,558.16,143.24z"/>
		</g>
		<g>
			<path class="st2" d="M571.28,141.57c-0.33,0-0.66-0.08-0.96-0.25c-0.97-0.53-1.32-1.75-0.79-2.72l48.91-88.75
				c0.53-0.97,1.75-1.32,2.72-0.79c0.97,0.53,1.32,1.75,0.79,2.72l-48.91,88.75C572.67,141.2,571.98,141.57,571.28,141.57z"/>
		</g>
		<g>
			<path class="st2" d="M575.79,155.52c-0.33,0-0.66-0.08-0.96-0.25c-0.97-0.53-1.32-1.75-0.79-2.72l64.55-117.13
				c0.53-0.97,1.75-1.32,2.72-0.79c0.97,0.53,1.32,1.75,0.79,2.72l-64.55,117.13C577.18,155.14,576.49,155.52,575.79,155.52z"/>
		</g>
		<g>
			<path class="st2" d="M585.69,159.68c-0.33,0-0.66-0.08-0.96-0.25c-0.97-0.53-1.32-1.75-0.79-2.72l69.4-125.95
				c0.53-0.97,1.75-1.32,2.72-0.79c0.97,0.53,1.32,1.75,0.79,2.72l-69.4,125.94C587.08,159.31,586.4,159.68,585.69,159.68z"/>
		</g>
		<g>
			<path class="st2" d="M592.94,168.67c-0.33,0-0.66-0.08-0.96-0.25c-0.97-0.53-1.32-1.75-0.79-2.72l79.58-144.41
				c0.53-0.97,1.75-1.32,2.72-0.79c0.97,0.53,1.32,1.75,0.79,2.72l-79.58,144.41C594.33,168.29,593.64,168.67,592.94,168.67z"/>
		</g>
		<g>
			<path class="st2" d="M610.57,158.79c-0.33,0-0.66-0.08-0.96-0.25c-0.97-0.53-1.32-1.75-0.79-2.72l68.97-125.16
				c0.53-0.97,1.75-1.32,2.72-0.79c0.97,0.53,1.32,1.75,0.79,2.72l-68.97,125.16C611.96,158.42,611.28,158.79,610.57,158.79z"/>
		</g>
	</g>
</g>
<g>
	<path class="st3" d="M26.25,124.96h-2.17v-16.49h2.17V124.96z"/>
	<path class="st3" d="M31.88,112.7l0.07,1.54c0.94-1.18,2.16-1.77,3.67-1.77c2.59,0,3.9,1.46,3.92,4.38v8.1h-2.1v-8.11
		c-0.01-0.88-0.21-1.54-0.61-1.96s-1.01-0.63-1.85-0.63c-0.68,0-1.28,0.18-1.79,0.54s-0.91,0.84-1.2,1.43v8.73h-2.1V112.7H31.88z"/>
	<path class="st3" d="M46.74,122.11l3.04-9.41h2.14l-4.4,12.26h-1.6l-4.44-12.26h2.14L46.74,122.11z"/>
	<path class="st3" d="M58.87,125.18c-1.66,0-3.01-0.55-4.06-1.64c-1.04-1.09-1.56-2.55-1.56-4.38v-0.38c0-1.22,0.23-2.3,0.7-3.26
		c0.46-0.96,1.11-1.7,1.95-2.24s1.74-0.81,2.71-0.81c1.59,0,2.83,0.52,3.72,1.57c0.88,1.05,1.33,2.55,1.33,4.51v0.87h-8.3
		c0.03,1.21,0.38,2.18,1.06,2.93c0.68,0.74,1.53,1.12,2.58,1.12c0.74,0,1.37-0.15,1.88-0.45c0.51-0.3,0.96-0.7,1.35-1.2l1.28,1
		C62.47,124.39,60.93,125.18,58.87,125.18z M58.61,114.19c-0.85,0-1.56,0.31-2.13,0.92c-0.57,0.62-0.93,1.48-1.06,2.59h6.14v-0.16
		c-0.06-1.07-0.35-1.89-0.86-2.48S59.49,114.19,58.61,114.19z"/>
	<path class="st3" d="M73.22,121.71c0-0.57-0.21-1.01-0.64-1.32c-0.43-0.31-1.17-0.58-2.23-0.81s-1.9-0.5-2.53-0.82
		s-1.08-0.7-1.38-1.13c-0.3-0.44-0.45-0.96-0.45-1.56c0-1,0.42-1.85,1.27-2.55c0.85-0.69,1.94-1.04,3.26-1.04
		c1.39,0,2.52,0.36,3.38,1.08c0.86,0.72,1.3,1.63,1.3,2.75h-2.11c0-0.57-0.24-1.07-0.73-1.48c-0.49-0.42-1.1-0.62-1.84-0.62
		c-0.76,0-1.36,0.17-1.79,0.5c-0.43,0.33-0.65,0.77-0.65,1.3c0,0.51,0.2,0.89,0.6,1.14s1.12,0.5,2.17,0.74
		c1.05,0.23,1.89,0.51,2.54,0.84c0.65,0.33,1.13,0.72,1.44,1.17s0.47,1.01,0.47,1.67c0,1.09-0.44,1.97-1.31,2.63
		c-0.88,0.66-2.01,0.99-3.41,0.99c-0.98,0-1.85-0.17-2.61-0.52c-0.76-0.35-1.35-0.83-1.77-1.46c-0.43-0.62-0.64-1.3-0.64-2.02h2.1
		c0.04,0.7,0.32,1.26,0.84,1.67c0.52,0.41,1.22,0.62,2.08,0.62c0.79,0,1.43-0.16,1.91-0.48C72.98,122.67,73.22,122.24,73.22,121.71z
		"/>
	<path class="st3" d="M80.88,109.73v2.97h2.29v1.62h-2.29v7.61c0,0.49,0.1,0.86,0.31,1.11c0.2,0.25,0.55,0.37,1.04,0.37
		c0.24,0,0.57-0.05,1-0.14v1.69c-0.55,0.15-1.09,0.23-1.61,0.23c-0.94,0-1.64-0.28-2.12-0.85c-0.48-0.57-0.71-1.37-0.71-2.41v-7.6
		h-2.23v-1.62h2.23v-2.97H80.88z"/>
	<path class="st3" d="M85.63,109.45c0-0.34,0.1-0.63,0.31-0.86s0.52-0.35,0.92-0.35s0.72,0.12,0.93,0.35s0.32,0.52,0.32,0.86
		s-0.11,0.62-0.32,0.85s-0.52,0.34-0.93,0.34s-0.72-0.11-0.92-0.34S85.63,109.79,85.63,109.45z M87.9,124.96h-2.1V112.7h2.1V124.96z
		"/>
	<path class="st3" d="M90.75,118.73c0-1.91,0.44-3.43,1.33-4.56c0.88-1.13,2.05-1.69,3.51-1.69c1.5,0,2.66,0.53,3.5,1.59l0.1-1.36
		h1.91v11.96c0,1.59-0.47,2.84-1.41,3.75c-0.94,0.91-2.2,1.37-3.79,1.37c-0.88,0-1.75-0.19-2.59-0.57c-0.85-0.38-1.49-0.9-1.94-1.55
		l1.09-1.26c0.9,1.11,2,1.67,3.3,1.67c1.02,0,1.81-0.29,2.38-0.86c0.57-0.57,0.86-1.38,0.86-2.42v-1.05
		c-0.84,0.97-1.98,1.45-3.43,1.45c-1.44,0-2.6-0.58-3.48-1.73S90.75,120.72,90.75,118.73z M92.86,118.96c0,1.38,0.28,2.47,0.85,3.26
		s1.36,1.18,2.38,1.18c1.32,0,2.29-0.6,2.91-1.8v-5.6c-0.64-1.17-1.6-1.76-2.89-1.76c-1.02,0-1.82,0.4-2.39,1.19
		C93.15,116.23,92.86,117.41,92.86,118.96z"/>
	<path class="st3" d="M111.83,124.96c-0.12-0.24-0.22-0.67-0.29-1.29c-0.97,1.01-2.14,1.52-3.49,1.52c-1.21,0-2.2-0.34-2.97-1.03
		c-0.77-0.68-1.16-1.55-1.16-2.6c0-1.28,0.48-2.27,1.46-2.97c0.97-0.71,2.34-1.06,4.1-1.06h2.04v-0.96c0-0.73-0.22-1.32-0.66-1.75
		c-0.44-0.43-1.08-0.65-1.94-0.65c-0.75,0-1.37,0.19-1.88,0.57c-0.51,0.38-0.76,0.83-0.76,1.37h-2.11c0-0.61,0.22-1.2,0.65-1.77
		c0.43-0.57,1.02-1.02,1.77-1.35c0.74-0.33,1.56-0.5,2.45-0.5c1.41,0,2.52,0.35,3.32,1.06c0.8,0.71,1.22,1.68,1.25,2.92v5.64
		c0,1.13,0.14,2.02,0.43,2.68v0.18H111.83z M108.35,123.36c0.66,0,1.28-0.17,1.87-0.51c0.59-0.34,1.02-0.78,1.28-1.33v-2.51h-1.64
		c-2.57,0-3.85,0.75-3.85,2.25c0,0.66,0.22,1.17,0.66,1.54S107.67,123.36,108.35,123.36z"/>
	<path class="st3" d="M121.8,123.47c0.75,0,1.4-0.23,1.96-0.68c0.56-0.45,0.87-1.02,0.93-1.7h1.98c-0.04,0.7-0.28,1.37-0.73,2.01
		c-0.45,0.63-1.04,1.14-1.78,1.52c-0.74,0.38-1.53,0.57-2.36,0.57c-1.67,0-3-0.56-3.98-1.67s-1.48-2.64-1.48-4.57v-0.35
		c0-1.19,0.22-2.25,0.66-3.18s1.07-1.65,1.89-2.16c0.82-0.51,1.79-0.77,2.91-0.77c1.37,0,2.52,0.41,3.43,1.23
		c0.91,0.82,1.4,1.89,1.46,3.21h-1.98c-0.06-0.79-0.36-1.44-0.9-1.95s-1.21-0.76-2-0.76c-1.06,0-1.89,0.38-2.48,1.15
		c-0.58,0.77-0.88,1.88-0.88,3.33v0.4c0,1.41,0.29,2.5,0.87,3.26S120.72,123.47,121.8,123.47z"/>
	<path class="st3" d="M129.04,109.45c0-0.34,0.1-0.63,0.31-0.86s0.52-0.35,0.92-0.35s0.72,0.12,0.93,0.35s0.32,0.52,0.32,0.86
		s-0.11,0.62-0.32,0.85s-0.52,0.34-0.93,0.34s-0.72-0.11-0.92-0.34S129.04,109.79,129.04,109.45z M131.31,124.96h-2.1V112.7h2.1
		V124.96z"/>
	<path class="st3" d="M134.1,118.71c0-1.2,0.24-2.28,0.71-3.24s1.13-1.7,1.97-2.22c0.84-0.52,1.8-0.78,2.88-0.78
		c1.67,0,3.02,0.58,4.05,1.73c1.03,1.16,1.55,2.69,1.55,4.61v0.15c0,1.19-0.23,2.26-0.69,3.21c-0.46,0.95-1.11,1.69-1.96,2.21
		s-1.83,0.79-2.93,0.79c-1.66,0-3.01-0.58-4.04-1.73s-1.55-2.68-1.55-4.59V118.71z M136.21,118.96c0,1.36,0.32,2.45,0.95,3.27
		c0.63,0.82,1.47,1.23,2.53,1.23c1.06,0,1.91-0.42,2.54-1.25c0.63-0.83,0.94-2,0.94-3.51c0-1.34-0.32-2.43-0.96-3.27
		c-0.64-0.83-1.49-1.25-2.54-1.25c-1.03,0-1.87,0.41-2.5,1.23C136.53,116.25,136.21,117.43,136.21,118.96z M140.62,107.56h2.54
		l-3.04,3.33l-1.69-0.01L140.62,107.56z"/>
	<path class="st3" d="M149.87,112.7l0.07,1.54c0.94-1.18,2.16-1.77,3.67-1.77c2.59,0,3.9,1.46,3.92,4.38v8.1h-2.1v-8.11
		c-0.01-0.88-0.21-1.54-0.61-1.96s-1.01-0.63-1.85-0.63c-0.68,0-1.28,0.18-1.79,0.54s-0.91,0.84-1.2,1.43v8.73h-2.1V112.7H149.87z"
		/>
	<path class="st3" d="M160.62,128.24l-1.19-0.82c0.71-0.99,1.08-2.01,1.11-3.06v-1.89h2.05v1.64c0,0.76-0.19,1.53-0.56,2.29
		C161.66,127.17,161.19,127.78,160.62,128.24z"/>
	<path class="st3" d="M181.34,118.96c0,1.87-0.43,3.37-1.28,4.51c-0.85,1.14-2.01,1.71-3.47,1.71c-1.49,0-2.66-0.47-3.51-1.42v5.9
		h-2.1V112.7h1.91l0.1,1.36c0.85-1.06,2.04-1.59,3.56-1.59c1.47,0,2.64,0.55,3.5,1.67c0.86,1.11,1.29,2.65,1.29,4.63V118.96z
		 M179.25,118.73c0-1.38-0.29-2.47-0.88-3.27c-0.59-0.8-1.4-1.2-2.42-1.2c-1.27,0-2.22,0.56-2.85,1.69v5.86
		c0.63,1.12,1.59,1.68,2.88,1.68c1,0,1.8-0.4,2.4-1.19C178.95,121.48,179.25,120.3,179.25,118.73z"/>
	<path class="st3" d="M186.28,124.96h-2.1v-17.4h2.1V124.96z"/>
	<path class="st3" d="M197.2,124.96c-0.12-0.24-0.22-0.67-0.29-1.29c-0.97,1.01-2.14,1.52-3.49,1.52c-1.21,0-2.2-0.34-2.97-1.03
		c-0.77-0.68-1.16-1.55-1.16-2.6c0-1.28,0.48-2.27,1.46-2.97c0.97-0.71,2.34-1.06,4.1-1.06h2.04v-0.96c0-0.73-0.22-1.32-0.66-1.75
		c-0.44-0.43-1.08-0.65-1.94-0.65c-0.75,0-1.37,0.19-1.88,0.57c-0.51,0.38-0.76,0.83-0.76,1.37h-2.11c0-0.61,0.22-1.2,0.65-1.77
		c0.43-0.57,1.02-1.02,1.77-1.35c0.74-0.33,1.56-0.5,2.45-0.5c1.41,0,2.52,0.35,3.32,1.06c0.8,0.71,1.22,1.68,1.25,2.92v5.64
		c0,1.13,0.14,2.02,0.43,2.68v0.18H197.2z M193.72,123.36c0.66,0,1.28-0.17,1.87-0.51c0.59-0.34,1.02-0.78,1.28-1.33v-2.51h-1.64
		c-2.57,0-3.85,0.75-3.85,2.25c0,0.66,0.22,1.17,0.66,1.54S193.04,123.36,193.72,123.36z"/>
	<path class="st3" d="M204.24,112.7l0.07,1.54c0.94-1.18,2.16-1.77,3.67-1.77c2.59,0,3.9,1.46,3.92,4.38v8.1h-2.1v-8.11
		c-0.01-0.88-0.21-1.54-0.61-1.96s-1.01-0.63-1.85-0.63c-0.68,0-1.28,0.18-1.79,0.54s-0.91,0.84-1.2,1.43v8.73h-2.1V112.7H204.24z"
		/>
	<path class="st3" d="M215.07,109.45c0-0.34,0.1-0.63,0.31-0.86s0.52-0.35,0.92-0.35s0.72,0.12,0.93,0.35s0.32,0.52,0.32,0.86
		s-0.11,0.62-0.32,0.85s-0.52,0.34-0.93,0.34s-0.72-0.11-0.92-0.34S215.07,109.79,215.07,109.45z M217.33,124.96h-2.1V112.7h2.1
		V124.96z"/>
	<path class="st3" d="M221.71,124.96v-10.64h-1.94v-1.62h1.94v-1.26c0-1.31,0.35-2.33,1.05-3.05c0.7-0.72,1.7-1.08,2.98-1.08
		c0.48,0,0.96,0.06,1.44,0.19l-0.11,1.69c-0.35-0.07-0.73-0.1-1.13-0.1c-0.68,0-1.2,0.2-1.57,0.6s-0.56,0.97-0.56,1.71v1.3h2.62
		v1.62h-2.62v10.64H221.71z"/>
	<path class="st3" d="M228.75,109.45c0-0.34,0.1-0.63,0.31-0.86s0.52-0.35,0.92-0.35s0.72,0.12,0.93,0.35s0.32,0.52,0.32,0.86
		s-0.11,0.62-0.32,0.85s-0.52,0.34-0.93,0.34s-0.72-0.11-0.92-0.34S228.75,109.79,228.75,109.45z M231.02,124.96h-2.1V112.7h2.1
		V124.96z"/>
	<path class="st3" d="M239.28,123.47c0.75,0,1.4-0.23,1.96-0.68c0.56-0.45,0.87-1.02,0.93-1.7h1.98c-0.04,0.7-0.28,1.37-0.73,2.01
		c-0.45,0.63-1.04,1.14-1.78,1.52c-0.74,0.38-1.53,0.57-2.36,0.57c-1.67,0-3-0.56-3.98-1.67s-1.48-2.64-1.48-4.57v-0.35
		c0-1.19,0.22-2.25,0.66-3.18s1.07-1.65,1.89-2.16c0.82-0.51,1.79-0.77,2.91-0.77c1.37,0,2.52,0.41,3.43,1.23
		c0.91,0.82,1.4,1.89,1.46,3.21h-1.98c-0.06-0.79-0.36-1.44-0.9-1.95s-1.21-0.76-2-0.76c-1.06,0-1.89,0.38-2.48,1.15
		c-0.58,0.77-0.88,1.88-0.88,3.33v0.4c0,1.41,0.29,2.5,0.87,3.26S238.2,123.47,239.28,123.47z"/>
	<path class="st3" d="M254.08,124.96c-0.12-0.24-0.22-0.67-0.29-1.29c-0.97,1.01-2.14,1.52-3.49,1.52c-1.21,0-2.2-0.34-2.97-1.03
		c-0.77-0.68-1.16-1.55-1.16-2.6c0-1.28,0.48-2.27,1.46-2.97c0.97-0.71,2.34-1.06,4.1-1.06h2.04v-0.96c0-0.73-0.22-1.32-0.66-1.75
		c-0.44-0.43-1.08-0.65-1.94-0.65c-0.75,0-1.37,0.19-1.88,0.57c-0.51,0.38-0.76,0.83-0.76,1.37h-2.11c0-0.61,0.22-1.2,0.65-1.77
		c0.43-0.57,1.02-1.02,1.77-1.35c0.74-0.33,1.56-0.5,2.45-0.5c1.41,0,2.52,0.35,3.32,1.06c0.8,0.71,1.22,1.68,1.25,2.92v5.64
		c0,1.13,0.14,2.02,0.43,2.68v0.18H254.08z M250.6,123.36c0.66,0,1.28-0.17,1.87-0.51c0.59-0.34,1.02-0.78,1.28-1.33v-2.51h-1.64
		c-2.57,0-3.85,0.75-3.85,2.25c0,0.66,0.22,1.17,0.66,1.54S249.91,123.36,250.6,123.36z"/>
	<path class="st3" d="M264.05,123.47c0.75,0,1.4-0.23,1.96-0.68c0.56-0.45,0.87-1.02,0.93-1.7h1.98c-0.04,0.7-0.28,1.37-0.73,2.01
		c-0.45,0.63-1.04,1.14-1.78,1.52c-0.74,0.38-1.53,0.57-2.36,0.57c-1.67,0-3-0.56-3.98-1.67s-1.48-2.64-1.48-4.57v-0.35
		c0-1.19,0.22-2.25,0.66-3.18s1.07-1.65,1.89-2.16c0.82-0.51,1.79-0.77,2.91-0.77c1.37,0,2.52,0.41,3.43,1.23
		c0.91,0.82,1.4,1.89,1.46,3.21h-1.98c-0.06-0.79-0.36-1.44-0.9-1.95s-1.21-0.76-2-0.76c-1.06,0-1.89,0.38-2.48,1.15
		c-0.58,0.77-0.88,1.88-0.88,3.33v0.4c0,1.41,0.29,2.5,0.87,3.26S262.97,123.47,264.05,123.47z"/>
	<path class="st3" d="M271.29,109.45c0-0.34,0.1-0.63,0.31-0.86s0.52-0.35,0.92-0.35s0.72,0.12,0.93,0.35s0.32,0.52,0.32,0.86
		s-0.11,0.62-0.32,0.85s-0.52,0.34-0.93,0.34s-0.72-0.11-0.92-0.34S271.29,109.79,271.29,109.45z M273.55,124.96h-2.1V112.7h2.1
		V124.96z"/>
	<path class="st3" d="M276.35,118.71c0-1.2,0.24-2.28,0.71-3.24s1.13-1.7,1.97-2.22c0.84-0.52,1.8-0.78,2.88-0.78
		c1.67,0,3.02,0.58,4.05,1.73c1.03,1.16,1.55,2.69,1.55,4.61v0.15c0,1.19-0.23,2.26-0.69,3.21c-0.46,0.95-1.11,1.69-1.96,2.21
		s-1.83,0.79-2.93,0.79c-1.66,0-3.01-0.58-4.04-1.73s-1.55-2.68-1.55-4.59V118.71z M278.46,118.96c0,1.36,0.32,2.45,0.95,3.27
		c0.63,0.82,1.47,1.23,2.53,1.23c1.06,0,1.91-0.42,2.54-1.25c0.63-0.83,0.94-2,0.94-3.51c0-1.34-0.32-2.43-0.96-3.27
		c-0.64-0.83-1.49-1.25-2.54-1.25c-1.03,0-1.87,0.41-2.5,1.23C278.77,116.25,278.46,117.43,278.46,118.96z M282.86,107.56h2.54
		l-3.04,3.33l-1.69-0.01L282.86,107.56z"/>
	<path class="st3" d="M292.12,112.7l0.07,1.54c0.94-1.18,2.16-1.77,3.67-1.77c2.59,0,3.9,1.46,3.92,4.38v8.1h-2.1v-8.11
		c-0.01-0.88-0.21-1.54-0.61-1.96s-1.01-0.63-1.85-0.63c-0.68,0-1.28,0.18-1.79,0.54s-0.91,0.84-1.2,1.43v8.73h-2.1V112.7H292.12z"
		/>
	<path class="st3" d="M101.07,149.73l2.85-9.19h2.24l-4.93,14.15c-0.76,2.04-1.98,3.06-3.64,3.06l-0.4-0.03l-0.78-0.15v-1.7
		l0.57,0.04c0.71,0,1.26-0.14,1.66-0.43s0.72-0.81,0.98-1.57l0.46-1.25l-4.37-12.12h2.29L101.07,149.73z"/>
	<path class="st3" d="M124.13,146.8c0,1.87-0.43,3.37-1.28,4.51c-0.85,1.14-2.01,1.71-3.47,1.71c-1.49,0-2.66-0.47-3.51-1.42v5.9
		h-2.1v-16.97h1.91l0.1,1.36c0.85-1.06,2.04-1.59,3.56-1.59c1.47,0,2.64,0.55,3.5,1.67c0.86,1.11,1.29,2.65,1.29,4.63V146.8z
		 M122.03,146.57c0-1.38-0.29-2.47-0.88-3.27c-0.59-0.8-1.4-1.2-2.42-1.2c-1.27,0-2.22,0.56-2.85,1.69v5.86
		c0.63,1.12,1.59,1.68,2.88,1.68c1,0,1.8-0.4,2.4-1.19C121.74,149.32,122.03,148.14,122.03,146.57z"/>
	<path class="st3" d="M132.72,142.42c-0.32-0.05-0.66-0.08-1.03-0.08c-1.37,0-2.31,0.59-2.8,1.76v8.7h-2.1v-12.26h2.04l0.03,1.42
		c0.69-1.09,1.66-1.64,2.92-1.64c0.41,0,0.72,0.05,0.93,0.16V142.42z"/>
	<path class="st3" d="M133.86,146.55c0-1.2,0.24-2.28,0.71-3.24s1.13-1.7,1.97-2.22c0.84-0.52,1.8-0.78,2.88-0.78
		c1.67,0,3.02,0.58,4.05,1.73c1.03,1.16,1.55,2.69,1.55,4.61v0.15c0,1.19-0.23,2.26-0.69,3.21c-0.46,0.95-1.11,1.69-1.96,2.21
		s-1.83,0.79-2.93,0.79c-1.66,0-3.01-0.58-4.04-1.73s-1.55-2.68-1.55-4.59V146.55z M135.97,146.8c0,1.36,0.32,2.45,0.95,3.27
		c0.63,0.82,1.47,1.23,2.53,1.23c1.06,0,1.91-0.42,2.54-1.25c0.63-0.83,0.94-2,0.94-3.51c0-1.34-0.32-2.43-0.96-3.27
		c-0.64-0.83-1.49-1.25-2.54-1.25c-1.03,0-1.87,0.41-2.5,1.23C136.29,144.09,135.97,145.27,135.97,146.8z"/>
	<path class="st3" d="M147.14,146.57c0-1.88,0.45-3.39,1.34-4.54c0.89-1.14,2.06-1.72,3.5-1.72c1.44,0,2.57,0.49,3.41,1.47v-6.39
		h2.1v17.4h-1.93l-0.1-1.31c-0.84,1.03-2.01,1.54-3.5,1.54c-1.42,0-2.58-0.58-3.47-1.74s-1.34-2.68-1.34-4.55V146.57z M149.23,146.8
		c0,1.39,0.29,2.48,0.86,3.26c0.57,0.79,1.37,1.18,2.38,1.18c1.33,0,2.3-0.6,2.91-1.79v-5.63c-0.63-1.16-1.59-1.73-2.89-1.73
		c-1.03,0-1.83,0.4-2.4,1.19S149.23,145.25,149.23,146.8z"/>
	<path class="st3" d="M168.3,151.58c-0.82,0.96-2.01,1.44-3.59,1.44c-1.31,0-2.3-0.38-2.98-1.14s-1.03-1.88-1.04-3.37v-7.97h2.1
		v7.92c0,1.86,0.76,2.79,2.27,2.79c1.6,0,2.67-0.6,3.19-1.79v-8.92h2.1v12.26h-1.99L168.3,151.58z"/>
	<path class="st3" d="M178.44,151.31c0.75,0,1.4-0.23,1.96-0.68c0.56-0.45,0.87-1.02,0.93-1.7h1.98c-0.04,0.7-0.28,1.37-0.73,2.01
		c-0.45,0.63-1.04,1.14-1.78,1.52c-0.74,0.38-1.53,0.57-2.36,0.57c-1.67,0-3-0.56-3.98-1.67s-1.48-2.64-1.48-4.57v-0.35
		c0-1.19,0.22-2.25,0.66-3.18s1.07-1.65,1.89-2.16c0.82-0.51,1.79-0.77,2.91-0.77c1.37,0,2.52,0.41,3.43,1.23
		c0.91,0.82,1.4,1.89,1.46,3.21h-1.98c-0.06-0.79-0.36-1.44-0.9-1.95s-1.21-0.76-2-0.76c-1.06,0-1.89,0.38-2.48,1.15
		c-0.58,0.77-0.88,1.88-0.88,3.33v0.4c0,1.41,0.29,2.5,0.87,3.26S177.36,151.31,178.44,151.31z"/>
	<path class="st3" d="M190.58,151.31c0.75,0,1.4-0.23,1.96-0.68c0.56-0.45,0.87-1.02,0.93-1.7h1.98c-0.04,0.7-0.28,1.37-0.73,2.01
		c-0.45,0.63-1.04,1.14-1.78,1.52c-0.74,0.38-1.53,0.57-2.36,0.57c-1.67,0-3-0.56-3.98-1.67s-1.48-2.64-1.48-4.57v-0.35
		c0-1.19,0.22-2.25,0.66-3.18s1.07-1.65,1.89-2.16c0.82-0.51,1.79-0.77,2.91-0.77c1.37,0,2.52,0.41,3.43,1.23
		c0.91,0.82,1.4,1.89,1.46,3.21h-1.98c-0.06-0.79-0.36-1.44-0.9-1.95s-1.21-0.76-2-0.76c-1.06,0-1.89,0.38-2.48,1.15
		c-0.58,0.77-0.88,1.88-0.88,3.33v0.4c0,1.41,0.29,2.5,0.87,3.26S189.5,151.31,190.58,151.31z"/>
	<path class="st3" d="M197.82,137.29c0-0.34,0.1-0.63,0.31-0.86s0.52-0.35,0.92-0.35s0.72,0.12,0.93,0.35s0.32,0.52,0.32,0.86
		s-0.11,0.62-0.32,0.85s-0.52,0.34-0.93,0.34s-0.72-0.11-0.92-0.34S197.82,137.63,197.82,137.29z M200.09,152.8h-2.1v-12.26h2.1
		V152.8z"/>
	<path class="st3" d="M202.88,146.55c0-1.2,0.24-2.28,0.71-3.24s1.13-1.7,1.97-2.22c0.84-0.52,1.8-0.78,2.88-0.78
		c1.67,0,3.02,0.58,4.05,1.73c1.03,1.16,1.55,2.69,1.55,4.61v0.15c0,1.19-0.23,2.26-0.69,3.21c-0.46,0.95-1.11,1.69-1.96,2.21
		s-1.83,0.79-2.93,0.79c-1.66,0-3.01-0.58-4.04-1.73s-1.55-2.68-1.55-4.59V146.55z M204.99,146.8c0,1.36,0.32,2.45,0.95,3.27
		c0.63,0.82,1.47,1.23,2.53,1.23c1.06,0,1.91-0.42,2.54-1.25c0.63-0.83,0.94-2,0.94-3.51c0-1.34-0.32-2.43-0.96-3.27
		c-0.64-0.83-1.49-1.25-2.54-1.25c-1.03,0-1.87,0.41-2.5,1.23C205.31,144.09,204.99,145.27,204.99,146.8z M209.4,135.4h2.54
		l-3.04,3.33l-1.69-0.01L209.4,135.4z"/>
	<path class="st3" d="M218.65,140.54l0.07,1.54c0.94-1.18,2.16-1.77,3.67-1.77c2.59,0,3.9,1.46,3.92,4.38v8.1h-2.1v-8.11
		c-0.01-0.88-0.21-1.54-0.61-1.96s-1.01-0.63-1.85-0.63c-0.68,0-1.28,0.18-1.79,0.54s-0.91,0.84-1.2,1.43v8.73h-2.1v-12.26H218.65z"
		/>
</g>
</svg>
