<?xml version="1.0" encoding="utf-8"?>
<!-- Generator: Adobe Illustrator 25.4.1, SVG Export Plug-In . SVG Version: 6.00 Build 0)  -->
<svg version="1.1" id="Capa_1" xmlns="http://www.w3.org/2000/svg" xmlns:xlink="http://www.w3.org/1999/xlink" x="0px" y="0px"
	 viewBox="0 0 900 150" style="enable-background:new 0 0 900 150;" xml:space="preserve">
<style type="text/css">
	.st0{fill:#A393C0;}
	.st1{display:none;clip-path:url(#SVGID_00000070087199481750758730000016339244645216973952_);}
	.st2{display:inline;}
	.st3{fill:#CBDBC1;}
	.st4{display:inline;opacity:0.5;}
	.st5{fill:#1A2E35;}
</style>
<g>
	<path class="st0" d="M39.67,85.4v22.12H26.97V44.61H48.4c6.22,0,11.19,1.93,14.89,5.79c3.7,3.86,5.55,8.87,5.55,15.04
		c0,6.17-1.83,11.03-5.49,14.61c-3.66,3.57-8.73,5.36-15.21,5.36H39.67z M39.67,74.81h8.73c2.42,0,4.29-0.79,5.62-2.38
		c1.32-1.58,1.99-3.89,1.99-6.91c0-3.14-0.68-5.64-2.03-7.5c-1.35-1.86-3.17-2.8-5.44-2.83h-8.86V74.81z"/>
	<path class="st0" d="M122.49,81.73c0,8.44-2,15-5.98,19.66c-3.99,4.67-9.53,7-16.62,7c-7.06,0-12.6-2.31-16.64-6.94
		c-4.03-4.62-6.08-11.1-6.14-19.42V71.27c0-8.64,2-15.39,6.01-20.25c4-4.85,9.56-7.28,16.68-7.28c7,0,12.52,2.38,16.55,7.15
		c4.03,4.77,6.08,11.46,6.14,20.07V81.73z M109.74,71.18c0-5.68-0.81-9.9-2.42-12.66c-1.61-2.77-4.12-4.15-7.52-4.15
		c-3.37,0-5.86,1.33-7.48,4c-1.61,2.67-2.45,6.72-2.51,12.16v11.19c0,5.5,0.82,9.56,2.46,12.16c1.64,2.61,4.18,3.91,7.61,3.91
		c3.31,0,5.78-1.28,7.39-3.82c1.61-2.55,2.43-6.5,2.46-11.86V71.18z"/>
	<path class="st0" d="M132.49,107.52V44.61h16.64c7.35,0,13.2,2.33,17.57,7c4.36,4.67,6.59,11.06,6.68,19.19v10.2
		c0,8.27-2.18,14.76-6.55,19.47c-4.36,4.71-10.38,7.07-18.04,7.07H132.49z M145.19,55.19v41.79h3.8c4.23,0,7.22-1.12,8.94-3.35
		s2.64-6.09,2.72-11.56V71.14c0-5.88-0.82-9.98-2.46-12.29c-1.64-2.32-4.44-3.54-8.38-3.65H145.19z"/>
	<path class="st0" d="M226.02,86.57c-0.32,7.17-2.33,12.6-6.05,16.29s-8.96,5.53-15.73,5.53c-7.12,0-12.57-2.34-16.36-7.02
		c-3.79-4.68-5.68-11.36-5.68-20.03V70.75c0-8.64,1.96-15.3,5.88-19.99c3.92-4.68,9.36-7.02,16.33-7.02
		c6.86,0,12.06,1.92,15.62,5.75c3.56,3.83,5.58,9.33,6.07,16.51h-12.75c-0.12-4.44-0.8-7.5-2.05-9.18
		c-1.25-1.69-3.55-2.53-6.89-2.53c-3.4,0-5.81,1.19-7.22,3.57c-1.41,2.38-2.16,6.29-2.25,11.73v11.88c0,6.25,0.7,10.54,2.1,12.88
		c1.4,2.33,3.8,3.5,7.19,3.5c3.34,0,5.65-0.81,6.91-2.44c1.27-1.63,1.99-4.57,2.16-8.84H226.02z"/>
	<path class="st0" d="M264.76,94.65h-17.33l-3.37,12.88h-13.44l19.66-62.92h11.62l19.79,62.92h-13.57L264.76,94.65z M250.2,84.06
		h11.75l-5.88-22.43L250.2,84.06z"/>
	<path class="st0" d="M315.04,91.02c0-2.56-0.66-4.5-1.97-5.81c-1.31-1.31-3.69-2.67-7.15-4.08c-6.31-2.39-10.85-5.19-13.61-8.4
		s-4.15-7.01-4.15-11.39c0-5.3,1.88-9.56,5.64-12.77c3.76-3.21,8.53-4.82,14.33-4.82c3.86,0,7.3,0.81,10.33,2.44
		c3.02,1.63,5.35,3.93,6.98,6.89c1.63,2.97,2.44,6.34,2.44,10.11h-12.66c0-2.94-0.63-5.18-1.88-6.72c-1.25-1.54-3.06-2.31-5.42-2.31
		c-2.22,0-3.95,0.66-5.19,1.97c-1.24,1.31-1.86,3.08-1.86,5.29c0,1.73,0.69,3.29,2.07,4.69c1.38,1.4,3.83,2.85,7.35,4.34
		c6.14,2.22,10.59,4.94,13.37,8.17c2.78,3.23,4.17,7.33,4.17,12.32c0,5.47-1.74,9.75-5.23,12.83c-3.49,3.08-8.23,4.62-14.22,4.62
		c-4.06,0-7.76-0.84-11.11-2.51c-3.34-1.67-5.96-4.06-7.84-7.17c-1.89-3.11-2.83-6.78-2.83-11.02h12.75c0,3.63,0.71,6.27,2.12,7.91
		c1.41,1.64,3.72,2.46,6.91,2.46C312.82,98.06,315.04,95.71,315.04,91.02z"/>
	<path class="st0" d="M377.89,55.19h-15.56v52.33h-12.75V55.19h-15.3V44.61h43.6V55.19z"/>
</g>
<g>
	<defs>
		<polygon id="SVGID_1_" points="900.17,150 452.24,150 536.48,0 900.17,0 		"/>
	</defs>
	<use xlink:href="#SVGID_1_"  style="overflow:visible;fill:#CBDBC1;"/>
	<clipPath id="SVGID_00000060709740426840369790000017925439604721057176_">
		<use xlink:href="#SVGID_1_"  style="overflow:visible;"/>
	</clipPath>
	<g style="display:none;clip-path:url(#SVGID_00000060709740426840369790000017925439604721057176_);">
		<g class="st2">
			<path class="st3" d="M1181.67,58.02c1.56-0.03,2.21,1.04,1.47,2.4l-3.12,5.66c-0.75,1.36-2.61,2.48-4.17,2.51
				c-1.56,0.03-2.21-1.04-1.47-2.4l3.12-5.66C1178.24,59.18,1180.11,58.05,1181.67,58.02z"/>
		</g>
		<g class="st2">
			<path class="st3" d="M1170.28,58.25c1.56-0.03,2.21,1.04,1.47,2.4l-3.12,5.66c-0.75,1.36-2.61,2.48-4.17,2.51
				c-1.56,0.03-2.21-1.04-1.47-2.4l3.12-5.66C1166.86,59.4,1168.72,58.28,1170.28,58.25z"/>
		</g>
		<g class="st2">
			<path class="st3" d="M1165.46,46.56c1.56-0.03,2.21,1.04,1.47,2.4l-16.25,29.49c-0.75,1.36-2.61,2.48-4.17,2.51
				c-1.56,0.03-2.21-1.04-1.47-2.4l16.25-29.49C1162.04,47.71,1163.9,46.59,1165.46,46.56z"/>
		</g>
		<g class="st2">
			<path class="st3" d="M1154.16,46.63c1.56-0.03,2.21,1.04,1.47,2.4l-16.42,29.8c-0.75,1.36-2.61,2.48-4.17,2.51
				c-1.56,0.03-2.21-1.04-1.47-2.4l16.42-29.8C1150.74,47.79,1152.61,46.66,1154.16,46.63z"/>
		</g>
		<g class="st2">
			<path class="st3" d="M1149.66,34.36c1.56-0.03,2.21,1.04,1.47,2.4l-30.19,54.79c-0.75,1.36-2.61,2.48-4.17,2.51
				c-1.56,0.03-2.21-1.04-1.47-2.4l30.19-54.79C1146.24,35.51,1148.11,34.39,1149.66,34.36z"/>
		</g>
		<g class="st2">
			<path class="st3" d="M1131.5,46.88c1.56-0.03,2.21,1.04,1.47,2.4l-16.65,30.22c-0.75,1.36-2.61,2.48-4.17,2.51
				c-1.56,0.03-2.21-1.04-1.47-2.4l16.65-30.22C1128.08,48.03,1129.95,46.91,1131.5,46.88z"/>
		</g>
		<g class="st2">
			<path class="st3" d="M1130.97,27.41c1.56-0.03,2.21,1.04,1.47,2.4l-38.36,69.61c-0.75,1.36-2.61,2.48-4.17,2.51
				c-1.56,0.03-2.21-1.04-1.47-2.4l38.36-69.61C1127.55,28.56,1129.41,27.44,1130.97,27.41z"/>
		</g>
		<g class="st2">
			<path class="st3" d="M1126.5,15.09c1.56-0.03,2.21,1.04,1.47,2.4l-52.19,94.71c-0.75,1.36-2.61,2.48-4.17,2.51
				c-1.56,0.03-2.21-1.04-1.47-2.4l52.19-94.71C1123.08,16.24,1124.94,15.12,1126.5,15.09z"/>
		</g>
		<g class="st2">
			<path class="st3" d="M1122.25,2.36c1.56-0.03,2.21,1.04,1.47,2.4l-66.46,120.61c-0.75,1.36-2.61,2.48-4.17,2.51
				c-1.56,0.03,1.78-8.28,2.52-9.63l62.47-113.37C1118.83,3.52,1120.7,2.4,1122.25,2.36z"/>
		</g>
		<g class="st2">
			<path class="st3" d="M1105.78,11.82c1.56-0.03,2.21,1.04,1.47,2.4l-56.29,102.15c-0.75,1.36-2.61,2.48-4.17,2.51
				c-1.56,0.03-2.21-1.04-1.47-2.4l56.29-102.15C1102.36,12.97,1104.22,11.85,1105.78,11.82z"/>
		</g>
		<g class="st2">
			<path class="st3" d="M1096.72,7.81c1.56-0.03,2.21,1.04,1.47,2.4l-60.96,110.62c-0.75,1.36-2.61,2.48-4.17,2.51
				c-1.56,0.03-2.21-1.04-1.47-2.4l60.96-110.62C1093.3,8.97,1095.17,7.85,1096.72,7.81z"/>
		</g>
		<g class="st2">
			<path class="st3" d="M1090.91-2.07c1.56-0.03,2.21,1.04,1.47,2.4l-72.1,130.84c-0.75,1.36-2.61,2.48-4.17,2.51
				c-1.56,0.03-2.21-1.04-1.47-2.4l72.1-130.84C1087.49-0.92,1089.35-2.04,1090.91-2.07z"/>
		</g>
		<g class="st2">
			<path class="st3" d="M1088.4-17.95c1.56-0.03,2.21,1.04,1.47,2.4l-89.85,163.06c-0.75,1.36-2.61,2.48-4.17,2.51
				c-1.56,0.03-2.21-1.04-1.47-2.4l89.85-163.06C1084.98-16.8,1086.84-17.92,1088.4-17.95z"/>
		</g>
		<g class="st2">
			<path class="st3" d="M1069.22-3.58c1.56-0.03,2.21,1.04,1.47,2.4l-74.26,134.76c-0.75,1.36-2.61,2.48-4.17,2.51
				c-1.56,0.03-2.21-1.04-1.47-2.4l74.26-134.76C1065.8-2.42,1067.66-3.54,1069.22-3.58z"/>
		</g>
		<g class="st2">
			<path class="st3" d="M1053.4,4.69c1.56-0.03,2.21,1.04,1.47,2.4l-65.4,118.68c-0.75,1.36-2.61,2.48-4.17,2.51
				c-1.56,0.03-2.21-1.04-1.47-2.4l65.4-118.68C1049.98,5.84,1051.85,4.72,1053.4,4.69z"/>
		</g>
		<g class="st2">
			<path class="st3" d="M1048.6-7.04c1.56-0.03,2.21,1.04,1.47,2.4l-78.58,142.59c-0.75,1.36-2.61,2.48-4.17,2.51
				c-1.56,0.03-2.21-1.04-1.47-2.4l78.58-142.59C1045.18-5.88,1047.05-7.01,1048.6-7.04z"/>
		</g>
		<g class="st2">
			<path class="st3" d="M1030.41,5.54c1.56-0.03,2.21,1.04,1.47,2.4l-64.97,117.89c-0.75,1.36-2.61,2.48-4.17,2.51
				c-1.56,0.03-2.21-1.04-1.47-2.4l64.97-117.89C1026.99,6.69,1028.85,5.57,1030.41,5.54z"/>
		</g>
		<g class="st2">
			<path class="st3" d="M1015.42,12.3c1.56-0.03,2.21,1.04,1.47,2.4l-57.76,104.82c-0.75,1.36-2.61,2.48-4.17,2.51
				c-1.56,0.03-2.21-1.04-1.47-2.4l57.76-104.82C1012,13.46,1013.86,12.33,1015.42,12.3z"/>
		</g>
		<g class="st2">
			<path class="st3" d="M1001.11,17.84c1.56-0.03,2.21,1.04,1.47,2.4l-51.91,94.21c-0.75,1.36-2.61,2.48-4.17,2.51
				c-1.56,0.03-2.21-1.04-1.47-2.4l51.91-94.21C997.69,18.99,999.55,17.87,1001.11,17.84z"/>
		</g>
		<g class="st2">
			<path class="st3" d="M987.72,21.71c1.56-0.03,2.21,1.04,1.47,2.4l-47.89,86.9c-0.75,1.36-2.61,2.48-4.17,2.51
				c-1.56,0.03-2.21-1.04-1.47-2.4l47.89-86.9C984.3,22.87,986.16,21.75,987.72,21.71z"/>
		</g>
		<g class="st2">
			<path class="st3" d="M978.95,17.18c1.56-0.03,2.21,1.04,1.47,2.4L927.29,116c-0.75,1.36-2.61,2.48-4.17,2.51
				c-1.56,0.03-2.21-1.04-1.47-2.4l53.13-96.42C975.53,18.34,977.39,17.21,978.95,17.18z"/>
		</g>
		<g class="st2">
			<path class="st3" d="M962.66,26.31c1.56-0.03,2.21,1.04,1.47,2.4l-43.32,78.62c-0.75,1.36-2.61,2.48-4.17,2.51
				c-1.56,0.03-2.21-1.04-1.47-2.4l43.32-78.62C959.24,27.46,961.1,26.34,962.66,26.31z"/>
		</g>
		<g class="st2">
			<path class="st3" d="M946.69,34.85c1.56-0.03,2.21,1.04,1.47,2.4L914,99.23c-0.75,1.36-2.61,2.48-4.17,2.51
				c-1.56,0.03-2.21-1.04-1.47-2.4l34.16-61.98C943.27,36.01,945.13,34.89,946.69,34.85z"/>
		</g>
		<g class="st2">
			<path class="st3" d="M938.94,28.49c1.56-0.03,2.21,1.04,1.47,2.4l-41.43,75.18c-0.75,1.36-2.61,2.48-4.17,2.51
				c-1.56,0.03-2.21-1.04-1.47-2.4l41.43-75.18C935.52,29.64,937.38,28.52,938.94,28.49z"/>
		</g>
		<g class="st2">
			<path class="st3" d="M914.87,51.73c1.56-0.03,2.21,1.04,1.47,2.4l-16.06,29.14c-0.75,1.36-2.61,2.48-4.17,2.51
				c-1.56,0.03-2.21-1.04-1.47-2.4l16.06-29.14C911.45,52.88,913.31,51.76,914.87,51.73z"/>
		</g>
		<g class="st2">
			<path class="st3" d="M899.67,58.88c1.56-0.03,2.21,1.04,1.47,2.4l-8.43,15.3c-0.75,1.36-2.61,2.48-4.17,2.51
				c-1.56,0.03-2.21-1.04-1.47-2.4l8.43-15.3C896.25,60.03,898.11,58.91,899.67,58.88z"/>
		</g>
		<g class="st2">
			<path class="st3" d="M906.62,25.83c1.56-0.03,2.21,1.04,1.47,2.4l-45.11,81.86c-0.75,1.36-2.61,2.48-4.17,2.51
				c-1.56,0.03-2.21-1.04-1.47-2.4l45.11-81.86C903.2,26.98,905.06,25.86,906.62,25.83z"/>
		</g>
		<g class="st2">
			<path class="st3" d="M891.79,32.3c1.56-0.03,2.21,1.04,1.47,2.4l-38.23,69.37c-0.75,1.36-2.61,2.48-4.17,2.51
				c-1.56,0.03-2.21-1.04-1.47-2.4l38.23-69.37C888.37,33.45,890.24,32.33,891.79,32.3z"/>
		</g>
		<g class="st2">
			<path class="st3" d="M894.87,6.28c1.56-0.03,2.21,1.04,1.47,2.4l-67.16,121.87c-0.75,1.36-2.61,2.48-4.17,2.51
				c-1.56,0.03-2.21-1.04-1.47-2.4L890.7,8.79C891.45,7.43,893.31,6.31,894.87,6.28z"/>
		</g>
		<g class="st2">
			<path class="st3" d="M886.17,1.64c1.56-0.03,2.21,1.04,1.47,2.4l-72.52,131.6c-0.75,1.36-2.61,2.48-4.17,2.51
				c-1.56,0.03-2.21-1.04-1.47-2.4L882,4.15C882.74,2.79,884.61,1.67,886.17,1.64z"/>
		</g>
		<g class="st2">
			<path class="st3" d="M882.16-11.52c1.56-0.03,2.21,1.04,1.47,2.4l-87.26,158.36c-0.75,1.36-2.61,2.48-4.17,2.51
				c-1.56,0.03-2.21-1.04-1.47-2.4L877.99-9.01C878.74-10.36,880.6-11.48,882.16-11.52z"/>
		</g>
		<g class="st2">
			<path class="st3" d="M876.46-21.62c1.56-0.03,2.21,1.04,1.47,2.4L779.28,159.8c-0.75,1.36-2.61,2.48-4.17,2.51
				c-1.56,0.03-2.21-1.04-1.47-2.4l98.65-179.02C873.04-20.47,874.91-21.59,876.46-21.62z"/>
		</g>
		<g class="st4">
			<path class="st3" d="M861.85-15.54c1.56-0.03,2.21,1.04,1.47,2.4l-92.21,167.33c-0.75,1.36-2.61,2.48-4.17,2.51
				c-1.56,0.03-2.21-1.04-1.47-2.4l92.21-167.33C858.43-14.39,860.29-15.51,861.85-15.54z"/>
		</g>
		<g class="st4">
			<path class="st3" d="M846.62-8.35c1.56-0.03,2.21,1.04,1.47,2.4l-84.53,153.4c-0.75,1.36-2.61,2.48-4.17,2.51
				c-1.56,0.03-2.21-1.04-1.47-2.4l84.53-153.4C843.2-7.2,845.07-8.32,846.62-8.35z"/>
		</g>
		<g class="st4">
			<path class="st3" d="M838.51-14.06c1.56-0.03,2.21,1.04,1.47,2.4L748.91,153.6c-0.75,1.36-2.61,2.48-4.17,2.51
				c-1.56,0.03-2.21-1.04-1.47-2.4l91.07-165.26C835.09-12.9,836.95-14.02,838.51-14.06z"/>
		</g>
		<g class="st4">
			<path class="st3" d="M833.32-25.07c1.56-0.03,2.21,1.04,1.47,2.4L731.33,165.06c-0.75,1.36-2.61,2.48-4.17,2.51
				c-1.56,0.03-2.21-1.04-1.47-2.4L829.15-22.56C829.89-23.92,831.76-25.04,833.32-25.07z"/>
		</g>
		<g class="st4">
			<path class="st3" d="M807.04,2.18c1.56-0.03,2.21,1.04,1.47,2.4l-73.67,133.69c-0.75,1.36-2.61,2.48-4.17,2.51
				c-1.56,0.03-2.21-1.04-1.47-2.4L802.87,4.69C803.62,3.33,805.48,2.21,807.04,2.18z"/>
		</g>
		<g class="st4">
			<path class="st3" d="M795.5,2.69c1.56-0.03,2.21,1.04,1.47,2.4L723.6,138.21c-0.75,1.36-2.61,2.48-4.17,2.51
				c-1.56,0.03-2.21-1.04-1.47-2.4L791.33,5.2C792.08,3.84,793.94,2.72,795.5,2.69z"/>
		</g>
		<g class="st4">
			<path class="st3" d="M778.98,12.24c1.56-0.03,2.21,1.04,1.47,2.4l-63.09,114.49c-0.75,1.36-2.61,2.48-4.17,2.51
				c-1.56,0.03-2.21-1.04-1.47-2.4l63.09-114.49C775.55,13.39,777.42,12.27,778.98,12.24z"/>
		</g>
		<g class="st4">
			<path class="st3" d="M759.04,27.97c1.56-0.03,2.21,1.04,1.47,2.4l-49.99,90.72c-0.75,1.36-2.61,2.48-4.17,2.51
				c-1.56,0.03-2.21-1.04-1.47-2.4l49.99-90.72C755.62,29.12,757.49,28,759.04,27.97z"/>
		</g>
		<g class="st4">
			<path class="st3" d="M750.37,23.27c1.56-0.03,2.21,1.04,1.47,2.4l-51.42,93.32c-0.75,1.36-2.61,2.48-4.17,2.51
				c-1.56,0.03-2.21-1.04-1.47-2.4l51.42-93.32C746.95,24.43,748.81,23.31,750.37,23.27z"/>
		</g>
		<g class="st4">
			<path class="st3" d="M728.89,41.82c1.56-0.03,2.21,1.04,1.47,2.4l-31.23,56.68c-0.75,1.36-2.61,2.48-4.17,2.51
				c-1.56,0.03-2.21-1.04-1.47-2.4l31.23-56.68C725.47,42.98,727.34,41.85,728.89,41.82z"/>
		</g>
		<g class="st4">
			<path class="st3" d="M730.53,18.41c1.56-0.03,2.21,1.04,1.47,2.4l-57.28,103.95c-0.75,1.36-2.61,2.48-4.17,2.51
				c-1.56,0.03-2.21-1.04-1.47-2.4l57.28-103.95C727.11,19.57,728.97,18.44,730.53,18.41z"/>
		</g>
		<g class="st4">
			<path class="st3" d="M720.99,15.29c1.56-0.03,2.21,1.04,1.47,2.4l-60.98,110.66c-0.75,1.36-2.61,2.48-4.17,2.51
				c-1.56,0.03-2.21-1.04-1.47-2.4L716.82,17.8C717.57,16.44,719.43,15.32,720.99,15.29z"/>
		</g>
		<g class="st4">
			<path class="st3" d="M714.5,6.63c1.56-0.03,2.21,1.04,1.47,2.4l-70.77,128.43c-0.75,1.36-2.61,2.48-4.17,2.51
				c-1.56,0.03-2.21-1.04-1.47-2.4L710.33,9.14C711.08,7.78,712.94,6.66,714.5,6.63z"/>
		</g>
		<g class="st4">
			<path class="st3" d="M698.42,15.38c1.56-0.03,2.21,1.04,1.47,2.4L638.5,129.16c-0.75,1.36-2.61,2.48-4.17,2.51
				c-1.56,0.03-2.21-1.04-1.47-2.4l61.38-111.38C694.99,16.54,696.86,15.41,698.42,15.38z"/>
		</g>
		<g class="st4">
			<path class="st3" d="M684.79,19.68c1.56-0.03,2.21,1.04,1.47,2.4l-56.89,103.24c-0.75,1.36-2.61,2.48-4.17,2.51
				c-1.56,0.03-2.21-1.04-1.47-2.4l56.89-103.24C681.37,20.83,683.23,19.71,684.79,19.68z"/>
		</g>
		<g class="st4">
			<path class="st3" d="M666.18,33.01c1.56-0.03,2.21,1.04,1.47,2.4l-42.45,77.04c-0.75,1.36-2.61,2.48-4.17,2.51
				c-1.56,0.03-2.21-1.04-1.47-2.4l42.45-77.04C662.76,34.16,664.63,33.04,666.18,33.01z"/>
		</g>
		<g class="st4">
			<path class="st3" d="M655.52,31.92c1.56-0.03,2.21,1.04,1.47,2.4l-43.9,79.67c-0.75,1.36-2.61,2.48-4.17,2.51
				c-1.56,0.03-2.21-1.04-1.47-2.4l43.9-79.67C652.1,33.07,653.96,31.95,655.52,31.92z"/>
		</g>
		<g class="st4">
			<path class="st3" d="M630.02,57.75c1.56-0.03,2.21,1.04,1.47,2.4L615.81,88.6c-0.75,1.36-2.61,2.48-4.17,2.51
				c-1.56,0.03-2.21-1.04-1.47-2.4l15.68-28.45C626.6,58.91,628.46,57.79,630.02,57.75z"/>
		</g>
		<g class="st4">
			<path class="st3" d="M626.17,44.3c1.56-0.03,2.21,1.04,1.47,2.4l-30.76,55.82c-0.75,1.36-2.61,2.48-4.17,2.51
				c-1.56,0.03-2.21-1.04-1.47-2.4L622,46.8C622.75,45.45,624.62,44.33,626.17,44.3z"/>
		</g>
		<g class="st4">
			<path class="st3" d="M618.65,37.53c1.56-0.03,2.21,1.04,1.47,2.4l-38.47,69.81c-0.75,1.36-2.61,2.48-4.17,2.51
				c-1.56,0.03-2.21-1.04-1.47-2.4l38.47-69.81C615.22,38.68,617.09,37.56,618.65,37.53z"/>
		</g>
		<g class="st4">
			<path class="st3" d="M611.93,29.28c1.56-0.03,2.21,1.04,1.47,2.4l-47.81,86.76c-0.75,1.36-2.61,2.48-4.17,2.51
				c-1.56,0.03-2.21-1.04-1.47-2.4l47.81-86.76C608.51,30.44,610.37,29.31,611.93,29.28z"/>
		</g>
		<g class="st4">
			<path class="st3" d="M593.79,41.76c1.56-0.03,2.21,1.04,1.47,2.4l-34.31,62.26c-0.75,1.36-2.61,2.48-4.17,2.51
				c-1.56,0.03-2.21-1.04-1.47-2.4l34.31-62.26C590.37,42.91,592.23,41.79,593.79,41.76z"/>
		</g>
		<g class="st4">
			<path class="st3" d="M588.39,31.11c1.56-0.03,2.21,1.04,1.47,2.4l-46.29,84c-0.75,1.36-2.61,2.48-4.17,2.51
				c-1.56,0.03-2.21-1.04-1.47-2.4l46.29-84C584.97,32.27,586.84,31.15,588.39,31.11z"/>
		</g>
		<g class="st4">
			<path class="st3" d="M575.97,33.23c1.56-0.03,2.21,1.04,1.47,2.4l-44.21,80.22c-0.75,1.36-2.61,2.48-4.17,2.51
				c-1.56,0.03-2.21-1.04-1.47-2.4l44.21-80.22C572.54,34.38,574.41,33.26,575.97,33.23z"/>
		</g>
		<g class="st4">
			<path class="st3" d="M571.88,20.21c1.56-0.03,2.21,1.04,1.47,2.4l-58.81,106.72c-0.75,1.36-2.61,2.48-4.17,2.51
				c-1.56,0.03-2.21-1.04-1.47-2.4l58.81-106.72C568.46,21.37,570.32,20.24,571.88,20.21z"/>
		</g>
		<g class="st4">
			<path class="st3" d="M559.15,22.88c1.56-0.03,2.21,1.04,1.47,2.4l-56.12,101.84c-0.75,1.36-2.61,2.48-4.17,2.51
				c-1.56,0.03-2.21-1.04-1.47-2.4l56.12-101.84C555.73,24.03,557.59,22.91,559.15,22.88z"/>
		</g>
		<g class="st4">
			<path class="st3" d="M553.54,12.63c1.56-0.03,2.21,1.04,1.47,2.4l-67.66,122.78c-0.75,1.36-2.61,2.48-4.17,2.51
				c-1.56,0.03-2.21-1.04-1.47-2.4l67.66-122.78C550.12,13.78,551.98,12.66,553.54,12.63z"/>
		</g>
		<g class="st4">
			<path class="st3" d="M551.26-3.67c1.56-0.03,2.21,1.04,1.47,2.4l-85.88,155.85c-0.75,1.36-2.61,2.48-4.17,2.51
				s-2.21-1.04-1.47-2.4L547.09-1.17C547.84-2.52,549.7-3.64,551.26-3.67z"/>
		</g>
		<g class="st4">
			<path class="st3" d="M532.57,9.8c1.56-0.03,2.21,1.04,1.47,2.4l-71.28,129.35c-0.75,1.36-2.61,2.48-4.17,2.51
				s-2.21-1.04-1.47-2.4l71.28-129.35C529.15,10.95,531.02,9.83,532.57,9.8z"/>
		</g>
		<g class="st4">
			<path class="st3" d="M525.53,2.14c1.56-0.03,2.21,1.04,1.47,2.4l-79.98,145.13c-0.75,1.36-2.61,2.48-4.17,2.51
				c-1.56,0.03-2.21-1.04-1.47-2.4L521.36,4.64C522.11,3.29,523.98,2.17,525.53,2.14z"/>
		</g>
		<g class="st4">
			<path class="st3" d="M510.29,9.37c1.56-0.03,2.21,1.04,1.47,2.4L439.5,142.89c-0.75,1.36-2.61,2.48-4.17,2.51
				c-1.56,0.03-2.21-1.04-1.47-2.4l72.26-131.12C506.87,10.53,508.73,9.4,510.29,9.37z"/>
		</g>
		<g class="st4">
			<path class="st3" d="M490.31,25.19c1.56-0.03,2.21,1.04,1.47,2.4l-55.07,99.94c-0.75,1.36-2.61,2.48-4.17,2.51
				c-1.56,0.03-2.21-1.04-1.47-2.4l55.07-99.94C486.89,26.34,488.76,25.22,490.31,25.19z"/>
		</g>
		<g class="st4">
			<path class="st3" d="M483.72,16.72c1.56-0.03,2.21,1.04,1.47,2.4l-64.65,117.32c-0.75,1.36-2.61,2.48-4.17,2.51
				s-2.21-1.04-1.47-2.4l64.65-117.32C480.3,17.88,482.16,16.75,483.72,16.72z"/>
		</g>
		<g class="st4">
			<path class="st3" d="M466.73,27.1c1.56-0.03,2.21,1.04,1.47,2.4l-53.46,97.02c-0.75,1.36-2.61,2.48-4.17,2.51
				c-1.56,0.03-2.21-1.04-1.47-2.4l53.46-97.02C463.31,28.26,465.18,27.13,466.73,27.1z"/>
		</g>
		<g class="st4">
			<path class="st3" d="M451.15,34.94c1.56-0.03,2.21,1.04,1.47,2.4l-45.08,81.8c-0.75,1.36-2.61,2.48-4.17,2.51
				c-1.56,0.03-2.21-1.04-1.47-2.4l45.08-81.8C447.73,36.09,449.59,34.97,451.15,34.94z"/>
		</g>
		<g class="st4">
			<path class="st3" d="M437.28,39.69c1.56-0.03,2.21,1.04,1.47,2.4l-40.09,72.76c-0.75,1.36-2.61,2.48-4.17,2.51
				c-1.56,0.03-2.21-1.04-1.47-2.4l40.09-72.76C433.86,40.84,435.72,39.72,437.28,39.69z"/>
		</g>
	</g>
</g>
<g>
	<path class="st5" d="M559.61,48.34h-2.72V27.73h2.72V48.34z"/>
	<path class="st5" d="M566.65,33.02l0.08,1.93c1.17-1.47,2.7-2.21,4.59-2.21c3.24,0,4.87,1.83,4.9,5.48v10.12h-2.62V38.2
		c-0.01-1.1-0.26-1.92-0.76-2.45c-0.5-0.53-1.27-0.79-2.31-0.79c-0.85,0-1.6,0.23-2.24,0.68c-0.64,0.45-1.14,1.05-1.5,1.78v10.92
		h-2.62V33.02H566.65z"/>
	<path class="st5" d="M585.23,44.79l3.79-11.77h2.68l-5.49,15.32h-2l-5.55-15.32h2.68L585.23,44.79z"/>
	<path class="st5" d="M600.39,48.63c-2.08,0-3.77-0.68-5.07-2.05s-1.95-3.19-1.95-5.47v-0.48c0-1.52,0.29-2.88,0.87-4.07
		c0.58-1.19,1.39-2.13,2.44-2.8s2.17-1.01,3.39-1.01c1.99,0,3.54,0.66,4.64,1.97c1.1,1.31,1.66,3.19,1.66,5.64v1.09h-10.38
		c0.04,1.51,0.48,2.73,1.32,3.66c0.84,0.93,1.92,1.39,3.22,1.39c0.93,0,1.71-0.19,2.35-0.57c0.64-0.38,1.2-0.88,1.69-1.5l1.6,1.25
		C604.89,47.64,602.96,48.63,600.39,48.63z M600.07,34.89c-1.06,0-1.95,0.38-2.66,1.15c-0.72,0.77-1.16,1.85-1.33,3.24h7.67v-0.2
		c-0.08-1.33-0.43-2.36-1.08-3.09C602.03,35.26,601.16,34.89,600.07,34.89z"/>
	<path class="st5" d="M618.32,44.28c0-0.71-0.27-1.26-0.8-1.65s-1.46-0.73-2.79-1.01c-1.33-0.28-2.38-0.62-3.16-1.02
		c-0.78-0.4-1.35-0.87-1.73-1.42c-0.37-0.55-0.56-1.2-0.56-1.95c0-1.26,0.53-2.32,1.59-3.19c1.06-0.87,2.42-1.3,4.07-1.3
		c1.74,0,3.15,0.45,4.23,1.34c1.08,0.9,1.62,2.04,1.62,3.44h-2.63c0-0.72-0.3-1.34-0.91-1.86c-0.61-0.52-1.38-0.78-2.3-0.78
		c-0.95,0-1.7,0.21-2.24,0.62s-0.81,0.96-0.81,1.63c0,0.63,0.25,1.11,0.75,1.43c0.5,0.32,1.4,0.63,2.71,0.92
		c1.31,0.29,2.37,0.64,3.18,1.05c0.81,0.41,1.41,0.89,1.81,1.47s0.59,1.27,0.59,2.09c0,1.37-0.55,2.47-1.64,3.29
		c-1.1,0.83-2.52,1.24-4.26,1.24c-1.23,0-2.31-0.22-3.26-0.65c-0.94-0.43-1.68-1.04-2.22-1.82c-0.53-0.78-0.8-1.62-0.8-2.53h2.62
		c0.05,0.88,0.4,1.57,1.05,2.09c0.66,0.51,1.52,0.77,2.6,0.77c0.99,0,1.79-0.2,2.39-0.6C618.02,45.48,618.32,44.95,618.32,44.28z"/>
	<path class="st5" d="M627.91,29.31v3.71h2.86v2.02h-2.86v9.51c0,0.61,0.13,1.08,0.38,1.38c0.25,0.31,0.69,0.46,1.3,0.46
		c0.3,0,0.72-0.06,1.25-0.17v2.11c-0.69,0.19-1.36,0.28-2.01,0.28c-1.17,0-2.05-0.35-2.65-1.06c-0.59-0.71-0.89-1.71-0.89-3.02v-9.5
		h-2.79v-2.02h2.79v-3.71H627.91z"/>
	<path class="st5" d="M633.84,28.96c0-0.43,0.13-0.78,0.39-1.08c0.26-0.29,0.64-0.44,1.15-0.44s0.9,0.15,1.16,0.44
		c0.26,0.29,0.4,0.65,0.4,1.08c0,0.42-0.13,0.78-0.4,1.06c-0.26,0.28-0.65,0.42-1.16,0.42s-0.89-0.14-1.15-0.42
		S633.84,29.38,633.84,28.96z M636.67,48.34h-2.62V33.02h2.62V48.34z"/>
	<path class="st5" d="M640.24,40.55c0-2.39,0.55-4.29,1.66-5.7s2.57-2.12,4.39-2.12c1.87,0,3.33,0.66,4.38,1.98l0.13-1.7h2.39v14.95
		c0,1.98-0.59,3.54-1.76,4.69c-1.18,1.14-2.75,1.71-4.74,1.71c-1.1,0-2.19-0.24-3.24-0.71c-1.06-0.47-1.86-1.12-2.42-1.94l1.36-1.57
		c1.12,1.39,2.5,2.08,4.12,2.08c1.27,0,2.27-0.36,2.98-1.08c0.71-0.72,1.07-1.73,1.07-3.03v-1.32c-1.05,1.21-2.48,1.81-4.29,1.81
		c-1.79,0-3.25-0.72-4.35-2.17C640.8,45.01,640.24,43.05,640.24,40.55z M642.88,40.85c0,1.73,0.35,3.08,1.06,4.07
		s1.7,1.48,2.97,1.48c1.65,0,2.87-0.75,3.64-2.25v-7c-0.8-1.46-2.01-2.19-3.61-2.19c-1.27,0-2.27,0.5-2.99,1.49
		C643.23,37.44,642.88,38.91,642.88,40.85z"/>
	<path class="st5" d="M666.59,48.34c-0.15-0.3-0.27-0.84-0.37-1.61c-1.22,1.26-2.67,1.9-4.36,1.9c-1.51,0-2.75-0.43-3.72-1.28
		c-0.97-0.85-1.45-1.94-1.45-3.25c0-1.6,0.61-2.83,1.82-3.72c1.21-0.88,2.92-1.32,5.12-1.32h2.55v-1.2c0-0.92-0.27-1.65-0.82-2.19
		c-0.55-0.54-1.35-0.81-2.42-0.81c-0.93,0-1.72,0.24-2.35,0.71c-0.63,0.47-0.95,1.04-0.95,1.71h-2.63c0-0.76,0.27-1.5,0.81-2.22
		s1.28-1.28,2.21-1.69s1.95-0.62,3.07-0.62c1.77,0,3.15,0.44,4.15,1.32c1,0.88,1.52,2.1,1.56,3.65v7.05c0,1.41,0.18,2.52,0.54,3.36
		v0.23H666.59z M662.25,46.35c0.82,0,1.6-0.21,2.34-0.64s1.27-0.98,1.6-1.66v-3.14h-2.05c-3.21,0-4.81,0.94-4.81,2.82
		c0,0.82,0.27,1.46,0.82,1.93C660.68,46.12,661.39,46.35,662.25,46.35z"/>
	<path class="st5" d="M679.05,46.49c0.93,0,1.75-0.28,2.45-0.85c0.7-0.57,1.09-1.27,1.16-2.12h2.48c-0.05,0.88-0.35,1.71-0.91,2.51
		c-0.56,0.79-1.3,1.43-2.23,1.9s-1.91,0.71-2.95,0.71c-2.09,0-3.75-0.7-4.98-2.09c-1.23-1.39-1.85-3.3-1.85-5.71v-0.44
		c0-1.49,0.27-2.82,0.82-3.98c0.55-1.16,1.33-2.06,2.36-2.7s2.24-0.96,3.63-0.96c1.72,0,3.15,0.51,4.28,1.54
		c1.14,1.03,1.74,2.36,1.82,4.01h-2.48c-0.08-0.99-0.45-1.81-1.12-2.44c-0.68-0.64-1.51-0.96-2.5-0.96c-1.33,0-2.36,0.48-3.09,1.44
		s-1.1,2.34-1.1,4.16v0.5c0,1.77,0.36,3.12,1.09,4.08C676.67,46.01,677.7,46.49,679.05,46.49z"/>
	<path class="st5" d="M688.1,28.96c0-0.43,0.13-0.78,0.39-1.08c0.26-0.29,0.64-0.44,1.15-0.44s0.9,0.15,1.16,0.44
		c0.26,0.29,0.4,0.65,0.4,1.08c0,0.42-0.13,0.78-0.4,1.06c-0.26,0.28-0.65,0.42-1.16,0.42s-0.89-0.14-1.15-0.42
		S688.1,29.38,688.1,28.96z M690.93,48.34h-2.62V33.02h2.62V48.34z"/>
	<path class="st5" d="M694.43,40.54c0-1.5,0.29-2.85,0.88-4.05c0.59-1.2,1.41-2.12,2.46-2.78c1.05-0.65,2.25-0.98,3.6-0.98
		c2.09,0,3.77,0.72,5.06,2.17c1.29,1.44,1.93,3.37,1.93,5.76v0.18c0,1.49-0.29,2.83-0.86,4.01s-1.39,2.11-2.45,2.77
		c-1.06,0.66-2.28,0.99-3.66,0.99c-2.08,0-3.76-0.72-5.05-2.17c-1.29-1.45-1.93-3.36-1.93-5.74V40.54z M697.07,40.85
		c0,1.7,0.39,3.06,1.18,4.09c0.79,1.03,1.84,1.54,3.17,1.54c1.33,0,2.39-0.52,3.17-1.56c0.78-1.04,1.18-2.5,1.18-4.38
		c0-1.68-0.4-3.04-1.2-4.08c-0.8-1.04-1.86-1.56-3.18-1.56c-1.29,0-2.34,0.51-3.13,1.54C697.46,37.46,697.07,38.94,697.07,40.85z
		 M702.57,26.59h3.17l-3.79,4.16l-2.11-0.01L702.57,26.59z"/>
	<path class="st5" d="M714.14,33.02l0.08,1.93c1.17-1.47,2.7-2.21,4.59-2.21c3.24,0,4.87,1.83,4.9,5.48v10.12h-2.62V38.2
		c-0.01-1.1-0.26-1.92-0.76-2.45c-0.5-0.53-1.27-0.79-2.31-0.79c-0.85,0-1.6,0.23-2.24,0.68c-0.64,0.45-1.14,1.05-1.5,1.78v10.92
		h-2.62V33.02H714.14z"/>
	<path class="st5" d="M727.58,52.45l-1.49-1.02c0.89-1.24,1.35-2.51,1.39-3.82v-2.37h2.56v2.05c0,0.95-0.23,1.91-0.7,2.86
		C728.88,51.11,728.29,51.87,727.58,52.45z"/>
	<path class="st5" d="M569.23,75.65c0,2.33-0.53,4.21-1.6,5.63c-1.07,1.43-2.51,2.14-4.33,2.14c-1.86,0-3.32-0.59-4.39-1.77v7.38
		h-2.62V67.82h2.39l0.13,1.7c1.07-1.32,2.55-1.98,4.45-1.98c1.84,0,3.3,0.69,4.37,2.08c1.07,1.39,1.61,3.32,1.61,5.79V75.65z
		 M566.61,75.35c0-1.73-0.37-3.09-1.1-4.09c-0.74-1-1.75-1.5-3.03-1.5c-1.59,0-2.78,0.7-3.57,2.11v7.32c0.78,1.4,1.98,2.1,3.6,2.1
		c1.26,0,2.25-0.5,3-1.49S566.61,77.32,566.61,75.35z"/>
	<path class="st5" d="M575.4,83.14h-2.62V61.39h2.62V83.14z"/>
	<path class="st5" d="M589.05,83.14c-0.15-0.3-0.27-0.84-0.37-1.61c-1.22,1.26-2.67,1.9-4.36,1.9c-1.51,0-2.75-0.43-3.72-1.28
		c-0.97-0.85-1.45-1.94-1.45-3.25c0-1.6,0.61-2.83,1.82-3.72c1.21-0.88,2.92-1.32,5.12-1.32h2.55v-1.2c0-0.92-0.27-1.65-0.82-2.19
		c-0.55-0.54-1.35-0.81-2.42-0.81c-0.93,0-1.72,0.24-2.35,0.71c-0.63,0.47-0.95,1.04-0.95,1.71h-2.63c0-0.76,0.27-1.5,0.81-2.22
		s1.28-1.28,2.21-1.69s1.95-0.62,3.07-0.62c1.77,0,3.15,0.44,4.15,1.32c1,0.88,1.52,2.1,1.56,3.65v7.05c0,1.41,0.18,2.52,0.54,3.36
		v0.23H589.05z M584.71,81.15c0.82,0,1.6-0.21,2.34-0.64s1.27-0.98,1.6-1.66v-3.14h-2.05c-3.21,0-4.81,0.94-4.81,2.82
		c0,0.82,0.27,1.46,0.82,1.93C583.14,80.92,583.85,81.15,584.71,81.15z"/>
	<path class="st5" d="M597.85,67.82l0.08,1.93c1.17-1.47,2.7-2.21,4.59-2.21c3.24,0,4.87,1.83,4.9,5.48v10.12h-2.62V73
		c-0.01-1.1-0.26-1.92-0.76-2.45c-0.5-0.53-1.27-0.79-2.32-0.79c-0.85,0-1.59,0.23-2.24,0.68c-0.64,0.45-1.14,1.05-1.5,1.78v10.92
		h-2.62V67.82H597.85z"/>
	<path class="st5" d="M611.38,63.76c0-0.43,0.13-0.78,0.39-1.08c0.26-0.29,0.64-0.44,1.15-0.44s0.9,0.15,1.16,0.44
		c0.26,0.29,0.4,0.65,0.4,1.08c0,0.42-0.13,0.78-0.4,1.06c-0.26,0.28-0.65,0.42-1.16,0.42s-0.89-0.14-1.15-0.42
		S611.38,64.18,611.38,63.76z M614.21,83.14h-2.62V67.82h2.62V83.14z"/>
	<path class="st5" d="M619.7,83.14v-13.3h-2.42v-2.02h2.42v-1.57c0-1.64,0.44-2.91,1.32-3.81s2.12-1.34,3.72-1.34
		c0.6,0,1.2,0.08,1.8,0.24l-0.14,2.11c-0.44-0.08-0.92-0.13-1.42-0.13c-0.85,0-1.51,0.25-1.97,0.75c-0.46,0.5-0.69,1.21-0.69,2.14
		v1.62h3.27v2.02h-3.27v13.3H619.7z"/>
	<path class="st5" d="M628.49,63.76c0-0.43,0.13-0.78,0.39-1.08c0.26-0.29,0.64-0.44,1.15-0.44s0.9,0.15,1.16,0.44
		c0.26,0.29,0.4,0.65,0.4,1.08c0,0.42-0.13,0.78-0.4,1.06c-0.26,0.28-0.65,0.42-1.16,0.42s-0.89-0.14-1.15-0.42
		S628.49,64.18,628.49,63.76z M631.32,83.14h-2.62V67.82h2.62V83.14z"/>
	<path class="st5" d="M641.66,81.29c0.93,0,1.75-0.28,2.45-0.85c0.7-0.57,1.08-1.27,1.16-2.12h2.48c-0.05,0.88-0.35,1.71-0.91,2.51
		c-0.56,0.79-1.3,1.43-2.23,1.9c-0.93,0.47-1.91,0.71-2.95,0.71c-2.09,0-3.75-0.7-4.98-2.09c-1.23-1.39-1.85-3.3-1.85-5.71v-0.44
		c0-1.49,0.27-2.82,0.82-3.98c0.55-1.16,1.33-2.06,2.36-2.7c1.02-0.64,2.24-0.96,3.63-0.96c1.72,0,3.15,0.51,4.28,1.54
		c1.14,1.03,1.74,2.36,1.82,4.01h-2.48c-0.08-0.99-0.45-1.81-1.13-2.44c-0.67-0.64-1.51-0.96-2.5-0.96c-1.33,0-2.36,0.48-3.09,1.44
		c-0.73,0.96-1.1,2.34-1.1,4.16v0.5c0,1.77,0.36,3.12,1.09,4.08C639.27,80.81,640.31,81.29,641.66,81.29z"/>
	<path class="st5" d="M660.15,83.14c-0.15-0.3-0.27-0.84-0.37-1.61c-1.22,1.26-2.67,1.9-4.36,1.9c-1.51,0-2.75-0.43-3.72-1.28
		s-1.45-1.94-1.45-3.25c0-1.6,0.61-2.83,1.82-3.72s2.92-1.32,5.12-1.32h2.55v-1.2c0-0.92-0.27-1.65-0.82-2.19
		c-0.55-0.54-1.35-0.81-2.42-0.81c-0.93,0-1.72,0.24-2.35,0.71c-0.63,0.47-0.95,1.04-0.95,1.71h-2.63c0-0.76,0.27-1.5,0.81-2.22
		c0.54-0.71,1.28-1.28,2.21-1.69c0.93-0.42,1.95-0.62,3.07-0.62c1.76,0,3.15,0.44,4.15,1.32c1,0.88,1.52,2.1,1.56,3.65v7.05
		c0,1.41,0.18,2.52,0.54,3.36v0.23H660.15z M655.8,81.15c0.82,0,1.6-0.21,2.34-0.64s1.27-0.98,1.6-1.66v-3.14h-2.05
		c-3.21,0-4.81,0.94-4.81,2.82c0,0.82,0.27,1.46,0.82,1.93C654.24,80.92,654.94,81.15,655.8,81.15z"/>
	<path class="st5" d="M672.61,81.29c0.93,0,1.75-0.28,2.45-0.85c0.7-0.57,1.08-1.27,1.16-2.12h2.48c-0.05,0.88-0.35,1.71-0.91,2.51
		c-0.56,0.79-1.3,1.43-2.23,1.9c-0.93,0.47-1.91,0.71-2.95,0.71c-2.09,0-3.75-0.7-4.98-2.09c-1.23-1.39-1.85-3.3-1.85-5.71v-0.44
		c0-1.49,0.27-2.82,0.82-3.98c0.55-1.16,1.33-2.06,2.36-2.7c1.02-0.64,2.24-0.96,3.63-0.96c1.72,0,3.15,0.51,4.28,1.54
		c1.14,1.03,1.74,2.36,1.82,4.01h-2.48c-0.08-0.99-0.45-1.81-1.13-2.44c-0.67-0.64-1.51-0.96-2.5-0.96c-1.33,0-2.36,0.48-3.09,1.44
		c-0.73,0.96-1.1,2.34-1.1,4.16v0.5c0,1.77,0.36,3.12,1.09,4.08C670.22,80.81,671.26,81.29,672.61,81.29z"/>
	<path class="st5" d="M681.66,63.76c0-0.43,0.13-0.78,0.39-1.08c0.26-0.29,0.64-0.44,1.15-0.44s0.9,0.15,1.16,0.44
		c0.26,0.29,0.4,0.65,0.4,1.08c0,0.42-0.13,0.78-0.4,1.06c-0.26,0.28-0.65,0.42-1.16,0.42s-0.89-0.14-1.15-0.42
		C681.79,64.54,681.66,64.18,681.66,63.76z M684.49,83.14h-2.62V67.82h2.62V83.14z"/>
	<path class="st5" d="M687.99,75.34c0-1.5,0.29-2.85,0.89-4.05c0.59-1.2,1.41-2.12,2.46-2.78c1.05-0.65,2.25-0.98,3.6-0.98
		c2.09,0,3.77,0.72,5.06,2.17c1.29,1.44,1.93,3.37,1.93,5.76v0.18c0,1.49-0.29,2.83-0.86,4.01c-0.57,1.18-1.39,2.11-2.45,2.77
		c-1.06,0.66-2.28,0.99-3.66,0.99c-2.08,0-3.76-0.72-5.05-2.17c-1.29-1.45-1.93-3.36-1.93-5.74V75.34z M690.62,75.65
		c0,1.7,0.39,3.06,1.18,4.09s1.84,1.54,3.17,1.54c1.33,0,2.39-0.52,3.17-1.56c0.78-1.04,1.17-2.5,1.17-4.38
		c0-1.68-0.4-3.04-1.2-4.08s-1.86-1.56-3.18-1.56c-1.29,0-2.34,0.51-3.13,1.54C691.02,72.26,690.62,73.74,690.62,75.65z
		 M696.13,61.39h3.17l-3.79,4.16l-2.11-0.01L696.13,61.39z"/>
	<path class="st5" d="M707.7,67.82l0.08,1.93c1.17-1.47,2.7-2.21,4.59-2.21c3.24,0,4.87,1.83,4.9,5.48v10.12h-2.62V73
		c-0.01-1.1-0.26-1.92-0.76-2.45c-0.5-0.53-1.27-0.79-2.32-0.79c-0.85,0-1.59,0.23-2.24,0.68c-0.64,0.45-1.14,1.05-1.5,1.78v10.92
		h-2.62V67.82H707.7z"/>
	<path class="st5" d="M561.3,114.1l3.57-11.48h2.8l-6.16,17.69c-0.95,2.55-2.47,3.82-4.54,3.82l-0.5-0.04l-0.98-0.18v-2.12
		l0.71,0.06c0.89,0,1.58-0.18,2.07-0.54c0.5-0.36,0.9-1.01,1.22-1.97l0.58-1.56l-5.47-15.15h2.86L561.3,114.1z"/>
	<path class="st5" d="M590.13,110.45c0,2.33-0.53,4.21-1.6,5.63c-1.07,1.43-2.51,2.14-4.33,2.14c-1.86,0-3.32-0.59-4.39-1.77v7.38
		h-2.62v-21.21h2.39l0.13,1.7c1.07-1.32,2.55-1.98,4.45-1.98c1.84,0,3.3,0.69,4.37,2.08c1.07,1.39,1.61,3.32,1.61,5.79V110.45z
		 M587.51,110.15c0-1.73-0.37-3.09-1.1-4.09c-0.74-1-1.75-1.5-3.03-1.5c-1.59,0-2.78,0.7-3.57,2.11v7.32c0.78,1.4,1.98,2.1,3.6,2.1
		c1.26,0,2.25-0.5,3-1.49S587.51,112.12,587.51,110.15z"/>
	<path class="st5" d="M600.86,104.97c-0.4-0.07-0.83-0.1-1.29-0.1c-1.72,0-2.88,0.73-3.5,2.2v10.88h-2.62v-15.32H596l0.04,1.77
		c0.86-1.37,2.08-2.05,3.65-2.05c0.51,0,0.9,0.07,1.16,0.2V104.97z"/>
	<path class="st5" d="M602.29,110.14c0-1.5,0.29-2.85,0.89-4.05c0.59-1.2,1.41-2.12,2.46-2.78c1.05-0.65,2.25-0.98,3.6-0.98
		c2.09,0,3.77,0.72,5.06,2.17c1.29,1.44,1.93,3.37,1.93,5.76v0.18c0,1.49-0.29,2.83-0.86,4.01c-0.57,1.18-1.39,2.11-2.45,2.77
		c-1.06,0.66-2.28,0.99-3.66,0.99c-2.08,0-3.76-0.72-5.05-2.17c-1.29-1.45-1.93-3.36-1.93-5.74V110.14z M604.93,110.45
		c0,1.7,0.39,3.06,1.18,4.09s1.84,1.54,3.17,1.54c1.33,0,2.39-0.52,3.17-1.56c0.78-1.04,1.17-2.5,1.17-4.38
		c0-1.68-0.4-3.04-1.2-4.08s-1.86-1.56-3.18-1.56c-1.29,0-2.34,0.51-3.13,1.54C605.32,107.06,604.93,108.54,604.93,110.45z"/>
	<path class="st5" d="M618.89,110.15c0-2.35,0.56-4.24,1.67-5.67c1.11-1.43,2.57-2.15,4.38-2.15c1.79,0,3.21,0.61,4.26,1.84v-7.99
		h2.62v21.75h-2.41l-0.13-1.64c-1.05,1.28-2.51,1.93-4.38,1.93c-1.78,0-3.22-0.73-4.34-2.18c-1.12-1.45-1.68-3.35-1.68-5.69V110.15z
		 M621.51,110.45c0,1.74,0.36,3.1,1.08,4.08c0.72,0.98,1.71,1.47,2.97,1.47c1.66,0,2.87-0.75,3.64-2.24v-7.04
		c-0.78-1.44-1.99-2.17-3.61-2.17c-1.28,0-2.29,0.5-3,1.49C621.87,107.04,621.51,108.51,621.51,110.45z"/>
	<path class="st5" d="M645.34,116.43c-1.02,1.2-2.52,1.8-4.49,1.8c-1.63,0-2.88-0.47-3.73-1.42c-0.85-0.95-1.29-2.35-1.3-4.21v-9.97
		h2.62v9.9c0,2.32,0.94,3.48,2.83,3.48c2,0,3.33-0.75,3.99-2.24v-11.14h2.62v15.32h-2.49L645.34,116.43z"/>
	<path class="st5" d="M658.01,116.09c0.93,0,1.75-0.28,2.45-0.85c0.7-0.57,1.09-1.27,1.16-2.12h2.48c-0.05,0.88-0.35,1.71-0.91,2.51
		c-0.56,0.79-1.3,1.43-2.23,1.9s-1.91,0.71-2.95,0.71c-2.09,0-3.75-0.7-4.98-2.09c-1.23-1.39-1.85-3.3-1.85-5.71v-0.44
		c0-1.49,0.27-2.82,0.82-3.98c0.55-1.16,1.33-2.06,2.36-2.7s2.24-0.96,3.63-0.96c1.72,0,3.15,0.51,4.28,1.54
		c1.14,1.03,1.74,2.36,1.82,4.01h-2.48c-0.08-0.99-0.45-1.81-1.12-2.44c-0.68-0.64-1.51-0.96-2.5-0.96c-1.33,0-2.36,0.48-3.09,1.44
		s-1.1,2.34-1.1,4.16v0.5c0,1.77,0.36,3.12,1.09,4.08C655.62,115.61,656.66,116.09,658.01,116.09z"/>
	<path class="st5" d="M673.19,116.09c0.93,0,1.75-0.28,2.45-0.85c0.7-0.57,1.09-1.27,1.16-2.12h2.48c-0.05,0.88-0.35,1.71-0.91,2.51
		c-0.56,0.79-1.3,1.43-2.23,1.9s-1.91,0.71-2.95,0.71c-2.09,0-3.75-0.7-4.98-2.09c-1.23-1.39-1.85-3.3-1.85-5.71v-0.44
		c0-1.49,0.27-2.82,0.82-3.98c0.55-1.16,1.33-2.06,2.36-2.7s2.24-0.96,3.63-0.96c1.72,0,3.15,0.51,4.28,1.54
		c1.14,1.03,1.74,2.36,1.82,4.01h-2.48c-0.08-0.99-0.45-1.81-1.12-2.44c-0.68-0.64-1.51-0.96-2.5-0.96c-1.33,0-2.36,0.48-3.09,1.44
		s-1.1,2.34-1.1,4.16v0.5c0,1.77,0.36,3.12,1.09,4.08C670.8,115.61,671.84,116.09,673.19,116.09z"/>
	<path class="st5" d="M682.24,98.56c0-0.43,0.13-0.78,0.39-1.08c0.26-0.29,0.64-0.44,1.15-0.44s0.9,0.15,1.16,0.44
		c0.26,0.29,0.4,0.65,0.4,1.08c0,0.42-0.13,0.78-0.4,1.06c-0.26,0.28-0.65,0.42-1.16,0.42s-0.89-0.14-1.15-0.42
		S682.24,98.98,682.24,98.56z M685.07,117.94h-2.62v-15.32h2.62V117.94z"/>
	<path class="st5" d="M688.57,110.14c0-1.5,0.29-2.85,0.88-4.05c0.59-1.2,1.41-2.12,2.46-2.78c1.05-0.65,2.25-0.98,3.6-0.98
		c2.09,0,3.77,0.72,5.06,2.17c1.29,1.44,1.93,3.37,1.93,5.76v0.18c0,1.49-0.29,2.83-0.86,4.01s-1.39,2.11-2.45,2.77
		c-1.06,0.66-2.28,0.99-3.66,0.99c-2.08,0-3.76-0.72-5.05-2.17c-1.29-1.45-1.93-3.36-1.93-5.74V110.14z M691.2,110.45
		c0,1.7,0.39,3.06,1.18,4.09c0.79,1.03,1.84,1.54,3.17,1.54c1.33,0,2.39-0.52,3.17-1.56c0.78-1.04,1.18-2.5,1.18-4.38
		c0-1.68-0.4-3.04-1.2-4.08c-0.8-1.04-1.86-1.56-3.18-1.56c-1.29,0-2.34,0.51-3.13,1.54C691.6,107.06,691.2,108.54,691.2,110.45z
		 M696.71,96.19h3.17l-3.79,4.16l-2.11-0.01L696.71,96.19z"/>
	<path class="st5" d="M708.28,102.62l0.08,1.93c1.17-1.47,2.7-2.21,4.59-2.21c3.24,0,4.87,1.83,4.9,5.48v10.12h-2.62V107.8
		c-0.01-1.1-0.26-1.92-0.76-2.45c-0.5-0.53-1.27-0.79-2.31-0.79c-0.85,0-1.6,0.23-2.24,0.68c-0.64,0.45-1.14,1.05-1.5,1.78v10.92
		h-2.62v-15.32H708.28z"/>
</g>
<g>
	<g>
		<path class="st3" d="M386.35,117c-0.3,0-0.6-0.08-0.87-0.23c-0.84-0.48-1.13-1.55-0.64-2.39l44.99-78.1
			c0.48-0.84,1.55-1.12,2.39-0.64c0.84,0.48,1.13,1.55,0.64,2.39l-44.99,78.1C387.55,116.69,386.96,117,386.35,117z"/>
	</g>
	<g>
		<path class="st3" d="M393.21,122.12c-0.3,0-0.61-0.08-0.88-0.24c-0.83-0.49-1.11-1.56-0.62-2.39l55.51-94.55
			c0.49-0.83,1.56-1.11,2.4-0.62c0.83,0.49,1.11,1.56,0.62,2.4l-55.51,94.55C394.39,121.81,393.81,122.12,393.21,122.12z"/>
	</g>
	<g>
		<path class="st3" d="M414.1,126.98c-0.29,0-0.58-0.07-0.85-0.22c-0.84-0.47-1.15-1.54-0.68-2.38l55.04-98.82
			c0.47-0.84,1.54-1.15,2.38-0.68c0.84,0.47,1.15,1.54,0.68,2.38l-55.04,98.82C415.31,126.65,414.71,126.98,414.1,126.98z"/>
	</g>
	<g>
		<path class="st3" d="M419.69,136.65c-0.29,0-0.58-0.07-0.85-0.22c-0.84-0.47-1.15-1.54-0.68-2.38l66-118.51
			c0.47-0.84,1.54-1.15,2.38-0.68c0.84,0.47,1.15,1.54,0.68,2.38l-66,118.51C420.9,136.33,420.3,136.65,419.69,136.65z"/>
	</g>
	<g>
		<path class="st3" d="M435.45,128.05c-0.29,0-0.58-0.07-0.85-0.22c-0.84-0.47-1.15-1.54-0.68-2.38L490.54,23.8
			c0.47-0.84,1.54-1.15,2.38-0.68c0.84,0.47,1.15,1.54,0.68,2.38l-56.62,101.65C436.66,127.73,436.07,128.05,435.45,128.05z"/>
	</g>
	<g>
		<path class="st3" d="M438.1,143c-0.29,0-0.58-0.07-0.85-0.22c-0.84-0.47-1.15-1.54-0.68-2.38L510.02,8.51
			c0.47-0.85,1.54-1.15,2.38-0.68c0.84,0.47,1.15,1.54,0.68,2.38L439.63,142.1C439.31,142.68,438.71,143,438.1,143z"/>
	</g>
	<g>
		<path class="st3" d="M447.06,146.6c-0.29,0-0.58-0.07-0.85-0.22c-0.84-0.47-1.15-1.54-0.68-2.38L523.55,3.91
			c0.47-0.84,1.54-1.15,2.38-0.68c0.84,0.47,1.15,1.54,0.68,2.38L448.59,145.7C448.27,146.27,447.68,146.6,447.06,146.6z"/>
	</g>
	<g>
		<path class="st3" d="M406.16,119.77c-0.29,0-0.59-0.07-0.87-0.23c-0.84-0.48-1.13-1.55-0.65-2.39l48.85-85.67
			c0.48-0.84,1.55-1.13,2.39-0.65c0.84,0.48,1.13,1.55,0.65,2.39l-48.86,85.67C407.36,119.45,406.77,119.77,406.16,119.77z"/>
	</g>
</g>
</svg>
