<?xml version="1.0" encoding="utf-8"?>
<!-- Generator: Adobe Illustrator 25.4.1, SVG Export Plug-In . SVG Version: 6.00 Build 0)  -->
<svg version="1.1" id="Capa_1" xmlns="http://www.w3.org/2000/svg" xmlns:xlink="http://www.w3.org/1999/xlink" x="0px" y="0px"
	 viewBox="0 0 900 150" style="enable-background:new 0 0 900 150;" xml:space="preserve">
<style type="text/css">
	.st0{fill:#F7B2BD;}
	.st1{fill:#55868C;}
	.st2{fill:#44505F;}
	.st3{enable-background:new    ;}
	.st4{fill:#FFFFFF;}
	.st5{fill:#77CBB9;}
</style>
<g>
	<polygon class="st0" points="900.17,150.57 412.99,150.57 625.04,0.57 900.17,0.57 	"/>
</g>
<g>
	<path class="st1" d="M70.02,55.83c-0.36,4.96-2.19,8.86-5.49,11.7s-7.65,4.27-13.05,4.27c-5.9,0-10.55-1.99-13.93-5.96
		s-5.08-9.43-5.08-16.37v-2.82c0-4.43,0.78-8.33,2.34-11.7c1.56-3.37,3.79-5.96,6.69-7.76c2.9-1.8,6.27-2.7,10.11-2.7
		c5.31,0,9.59,1.42,12.84,4.27s5.12,6.84,5.63,11.99H60.6c-0.23-2.97-1.06-5.13-2.48-6.47c-1.42-1.34-3.59-2.01-6.5-2.01
		c-3.16,0-5.53,1.13-7.1,3.4c-1.57,2.27-2.38,5.78-2.42,10.55v3.48c0,4.98,0.75,8.61,2.26,10.91c1.51,2.3,3.88,3.45,7.13,3.45
		c2.93,0,5.12-0.67,6.56-2.01c1.44-1.34,2.27-3.41,2.48-6.21H70.02z"/>
	<path class="st1" d="M114.08,49.19c0,4.53-0.8,8.51-2.4,11.92c-1.6,3.42-3.9,6.05-6.88,7.91c-2.98,1.86-6.41,2.78-10.26,2.78
		c-3.82,0-7.22-0.92-10.22-2.75s-5.31-4.45-6.96-7.86c-1.64-3.4-2.48-7.32-2.5-11.75v-2.28c0-4.53,0.82-8.52,2.45-11.97
		s3.94-6.09,6.93-7.94c2.98-1.85,6.39-2.77,10.23-2.77s7.25,0.92,10.23,2.77c2.98,1.84,5.29,4.49,6.93,7.94
		c1.63,3.45,2.45,7.43,2.45,11.94V49.19z M104.47,47.1c0-4.83-0.87-8.5-2.59-11.01c-1.73-2.51-4.2-3.76-7.4-3.76
		c-3.18,0-5.64,1.24-7.37,3.72c-1.73,2.48-2.6,6.11-2.62,10.9v2.25c0,4.7,0.86,8.35,2.59,10.94c1.73,2.59,4.22,3.89,7.46,3.89
		c3.18,0,5.63-1.25,7.34-3.75s2.57-6.14,2.59-10.93V47.1z"/>
	<path class="st1" d="M133.38,25.12l11.83,33.4l11.77-33.4h12.46v46.05h-9.52V58.58l0.95-21.73l-12.43,34.32h-6.52l-12.4-34.29
		l0.95,21.7v12.59h-9.49V25.12H133.38z"/>
	<path class="st1" d="M212.58,25.12v30.33c0,5.04-1.58,9.03-4.73,11.96c-3.15,2.93-7.46,4.4-12.92,4.4c-5.38,0-9.65-1.42-12.81-4.27
		s-4.78-6.76-4.84-11.73V25.12h9.49v30.4c0,3.02,0.72,5.21,2.17,6.59s3.44,2.07,5.99,2.07c5.33,0,8.04-2.8,8.13-8.41V25.12H212.58z"
		/>
	<path class="st1" d="M257.81,71.17h-9.49l-18.47-30.3v30.3h-9.49V25.12h9.49l18.5,30.36V25.12h9.46V71.17z"/>
	<path class="st1" d="M276.18,71.17h-9.49V25.12h9.49V71.17z"/>
	<path class="st1" d="M321.13,55.83c-0.36,4.96-2.19,8.86-5.49,11.7s-7.65,4.27-13.05,4.27c-5.9,0-10.55-1.99-13.93-5.96
		s-5.08-9.43-5.08-16.37v-2.82c0-4.43,0.78-8.33,2.34-11.7c1.56-3.37,3.79-5.96,6.69-7.76c2.9-1.8,6.27-2.7,10.11-2.7
		c5.31,0,9.59,1.42,12.84,4.27s5.12,6.84,5.63,11.99h-9.49c-0.23-2.97-1.06-5.13-2.48-6.47c-1.42-1.34-3.59-2.01-6.5-2.01
		c-3.16,0-5.53,1.13-7.1,3.4c-1.57,2.27-2.38,5.78-2.42,10.55v3.48c0,4.98,0.75,8.61,2.26,10.91c1.51,2.3,3.88,3.45,7.13,3.45
		c2.93,0,5.12-0.67,6.56-2.01c1.44-1.34,2.27-3.41,2.48-6.21H321.13z"/>
	<path class="st1" d="M353.36,61.68h-16.64l-3.16,9.49h-10.09l17.14-46.05h8.79l17.24,46.05h-10.09L353.36,61.68z M339.28,54h11.51
		l-5.79-17.24L339.28,54z"/>
	<path class="st1" d="M387.99,54.31h-7.56v16.86h-9.49V25.12h17.11c5.44,0,9.64,1.21,12.59,3.64c2.95,2.42,4.43,5.85,4.43,10.28
		c0,3.14-0.68,5.76-2.04,7.86c-1.36,2.1-3.42,3.77-6.18,5.01l9.96,18.82v0.44h-10.18L387.99,54.31z M380.43,46.63h7.65
		c2.38,0,4.23-0.61,5.54-1.82c1.31-1.21,1.96-2.88,1.96-5.01c0-2.17-0.62-3.88-1.85-5.12c-1.23-1.24-3.13-1.87-5.68-1.87h-7.62
		V46.63z"/>
	<path d="M61.57,111.51c-0.29,4-1.77,7.15-4.43,9.44c-2.66,2.3-6.17,3.45-10.53,3.45c-4.76,0-8.51-1.6-11.24-4.81
		c-2.73-3.21-4.1-7.61-4.1-13.21v-2.27c0-3.57,0.63-6.72,1.89-9.44c1.26-2.72,3.06-4.81,5.4-6.27c2.34-1.46,5.06-2.18,8.15-2.18
		c4.29,0,7.74,1.15,10.36,3.45s4.13,5.52,4.54,9.67h-7.66c-0.19-2.4-0.85-4.14-2-5.22c-1.15-1.08-2.9-1.62-5.25-1.62
		c-2.55,0-4.46,0.92-5.73,2.74c-1.27,1.83-1.92,4.67-1.95,8.51v2.81c0,4.02,0.61,6.95,1.82,8.8c1.22,1.86,3.13,2.78,5.75,2.78
		c2.37,0,4.13-0.54,5.3-1.62s1.83-2.75,2-5.02H61.57z"/>
	<path d="M97.13,106.15c0,3.66-0.65,6.87-1.94,9.62c-1.29,2.76-3.14,4.88-5.55,6.38c-2.41,1.5-5.17,2.25-8.28,2.25
		c-3.08,0-5.83-0.74-8.24-2.22s-4.29-3.59-5.61-6.34s-2-5.91-2.02-9.48v-1.84c0-3.66,0.66-6.88,1.98-9.66
		c1.32-2.78,3.18-4.92,5.59-6.41c2.41-1.49,5.16-2.23,8.26-2.23s5.85,0.74,8.26,2.23c2.41,1.49,4.27,3.62,5.59,6.41
		s1.98,5.99,1.98,9.63V106.15z M89.37,104.47c0-3.9-0.7-6.86-2.09-8.88c-1.4-2.02-3.39-3.04-5.97-3.04c-2.57,0-4.55,1-5.95,3
		c-1.4,2-2.1,4.93-2.12,8.79v1.81c0,3.79,0.7,6.74,2.09,8.83c1.39,2.09,3.4,3.14,6.02,3.14c2.57,0,4.54-1.01,5.92-3.03
		s2.08-4.96,2.09-8.82V104.47z"/>
	<path d="M132.91,123.89h-7.66l-14.9-24.45v24.45h-7.66V86.73h7.66l14.93,24.5v-24.5h7.63V123.89z"/>
	<path d="M160.75,123.89h-7.66V86.73h7.66V123.89z"/>
	<path d="M177.85,86.73l9.54,26.95l9.49-26.95h10.06v37.16h-7.68v-10.16l0.77-17.53L190,123.89h-5.26l-10-27.67l0.77,17.51v10.16
		h-7.66V86.73H177.85z"/>
	<path d="M235.07,116.23h-13.42l-2.55,7.66h-8.14l13.83-37.16h7.1l13.91,37.16h-8.14L235.07,116.23z M223.71,110.03H233l-4.67-13.91
		L223.71,110.03z M229.91,76.78h8.04l-7.07,7.91h-6L229.91,76.78z"/>
	<path d="M278.12,119.19c-1.38,1.65-3.33,2.93-5.84,3.84c-2.52,0.91-5.31,1.37-8.37,1.37c-3.22,0-6.04-0.7-8.46-2.11
		c-2.42-1.4-4.3-3.44-5.62-6.11c-1.32-2.67-2-5.81-2.03-9.42v-2.53c0-3.71,0.63-6.92,1.88-9.63c1.25-2.71,3.05-4.79,5.41-6.23
		c2.36-1.44,5.12-2.16,8.28-2.16c4.41,0,7.85,1.05,10.34,3.15c2.48,2.1,3.96,5.16,4.42,9.17h-7.45c-0.34-2.13-1.09-3.68-2.26-4.67
		c-1.17-0.99-2.77-1.48-4.81-1.48c-2.6,0-4.58,0.98-5.95,2.94s-2.05,4.87-2.07,8.73v2.37c0,3.9,0.74,6.84,2.22,8.83
		s3.65,2.99,6.51,2.99c2.88,0,4.93-0.61,6.15-1.84V110h-6.97v-5.64h14.62V119.19z"/>
	<path d="M306.68,107.78h-14.7v9.96h17.25v6.15h-24.91V86.73h24.86v6.2h-17.2v8.86h14.7V107.78z"/>
	<path d="M343.95,123.89h-7.66l-14.9-24.45v24.45h-7.66V86.73h7.66l14.93,24.5v-24.5h7.63V123.89z"/>
	<path d="M372.99,107.78h-14.7v9.96h17.25v6.15h-24.91V86.73h24.86v6.2h-17.2v8.86h14.7V107.78z"/>
	<path d="M399.3,114.14c0-1.45-0.51-2.56-1.53-3.33c-1.02-0.77-2.86-1.59-5.51-2.45c-2.65-0.86-4.75-1.71-6.3-2.54
		c-4.22-2.28-6.33-5.35-6.33-9.21c0-2.01,0.57-3.8,1.7-5.37c1.13-1.57,2.76-2.8,4.88-3.69c2.12-0.88,4.5-1.33,7.13-1.33
		c2.65,0,5.02,0.48,7.09,1.44c2.08,0.96,3.69,2.32,4.84,4.07c1.15,1.75,1.72,3.74,1.72,5.97h-7.66c0-1.7-0.54-3.03-1.61-3.97
		c-1.07-0.94-2.58-1.42-4.52-1.42c-1.87,0-3.33,0.39-4.36,1.19c-1.04,0.79-1.56,1.83-1.56,3.13c0,1.21,0.61,2.22,1.83,3.04
		c1.22,0.82,3.01,1.58,5.37,2.3c4.36,1.31,7.53,2.94,9.52,4.88c1.99,1.94,2.99,4.36,2.99,7.25c0,3.21-1.22,5.74-3.65,7.57
		c-2.43,1.83-5.71,2.74-9.83,2.74c-2.86,0-5.46-0.52-7.81-1.57c-2.35-1.04-4.14-2.48-5.37-4.3c-1.23-1.82-1.85-3.93-1.85-6.33h7.68
		c0,4.1,2.45,6.15,7.35,6.15c1.82,0,3.24-0.37,4.26-1.11C398.79,116.5,399.3,115.47,399.3,114.14z"/>
</g>
<g>
	<path class="st2" d="M649.41,52.49h-2.64v-9.2h-10.04v9.2h-2.62V32.59h2.62v8.56h10.04v-8.56h2.64V52.49z"/>
	<path class="st2" d="M660.38,52.77c-2.01,0-3.64-0.66-4.89-1.98s-1.89-3.08-1.89-5.28v-0.46c0-1.47,0.28-2.78,0.84-3.93
		s1.34-2.06,2.35-2.71c1.01-0.65,2.1-0.98,3.27-0.98c1.92,0,3.42,0.63,4.48,1.9s1.6,3.08,1.6,5.44v1.05h-10.02
		c0.04,1.46,0.46,2.64,1.28,3.53c0.82,0.9,1.85,1.35,3.11,1.35c0.89,0,1.65-0.18,2.27-0.55c0.62-0.36,1.16-0.85,1.63-1.45l1.54,1.2
		C664.72,51.81,662.86,52.77,660.38,52.77z M660.06,39.5c-1.02,0-1.88,0.37-2.57,1.11c-0.69,0.74-1.12,1.78-1.29,3.12h7.41v-0.19
		c-0.07-1.29-0.42-2.28-1.04-2.99C661.96,39.86,661.12,39.5,660.06,39.5z"/>
	<path class="st2" d="M676.78,39.97c-0.38-0.06-0.8-0.1-1.24-0.1c-1.66,0-2.78,0.71-3.38,2.12v10.5h-2.53V37.7h2.46l0.04,1.71
		c0.83-1.32,2-1.98,3.53-1.98c0.49,0,0.87,0.06,1.12,0.19V39.97z"/>
	<path class="st2" d="M686.82,39.97c-0.38-0.06-0.8-0.1-1.24-0.1c-1.66,0-2.79,0.71-3.38,2.12v10.5h-2.53V37.7h2.46l0.04,1.71
		c0.83-1.32,2-1.98,3.53-1.98c0.49,0,0.87,0.06,1.12,0.19V39.97z"/>
	<path class="st2" d="M698.29,52.49c-0.15-0.29-0.26-0.81-0.36-1.56c-1.18,1.22-2.58,1.83-4.21,1.83c-1.46,0-2.65-0.41-3.59-1.24
		s-1.4-1.87-1.4-3.14c0-1.54,0.59-2.74,1.76-3.59s2.82-1.28,4.94-1.28h2.46v-1.16c0-0.88-0.26-1.59-0.79-2.11s-1.31-0.79-2.34-0.79
		c-0.9,0-1.66,0.23-2.27,0.68s-0.92,1.01-0.92,1.65h-2.54c0-0.74,0.26-1.45,0.79-2.14s1.24-1.23,2.13-1.63s1.88-0.6,2.96-0.6
		c1.7,0,3.04,0.43,4.01,1.28s1.47,2.03,1.5,3.52v6.81c0,1.36,0.17,2.44,0.52,3.24v0.22H698.29z M694.09,50.56
		c0.79,0,1.54-0.21,2.26-0.62s1.23-0.94,1.54-1.6v-3.04h-1.98c-3.1,0-4.65,0.91-4.65,2.72c0,0.79,0.26,1.41,0.79,1.86
		S693.26,50.56,694.09,50.56z"/>
	<path class="st2" d="M707.33,37.7l0.07,1.64c1.08-1.28,2.55-1.91,4.39-1.91c2.07,0,3.48,0.79,4.22,2.38
		c0.49-0.71,1.13-1.29,1.92-1.72s1.72-0.66,2.8-0.66c3.25,0,4.89,1.72,4.95,5.15v9.91h-2.53v-9.76c0-1.06-0.24-1.85-0.72-2.37
		s-1.29-0.79-2.43-0.79c-0.94,0-1.72,0.28-2.34,0.84s-0.98,1.31-1.08,2.26v9.82h-2.54V42.8c0-2.15-1.05-3.23-3.16-3.23
		c-1.66,0-2.79,0.71-3.4,2.12v10.8h-2.53V37.7H707.33z"/>
	<path class="st2" d="M730.06,33.78c0-0.41,0.12-0.76,0.38-1.04c0.25-0.28,0.62-0.42,1.11-0.42s0.87,0.14,1.12,0.42
		c0.25,0.28,0.38,0.63,0.38,1.04s-0.13,0.75-0.38,1.03c-0.26,0.27-0.63,0.41-1.12,0.41s-0.86-0.14-1.11-0.41
		C730.19,34.53,730.06,34.19,730.06,33.78z M732.8,52.49h-2.53V37.7h2.53V52.49z"/>
	<path class="st2" d="M743.54,52.77c-2,0-3.64-0.66-4.89-1.98s-1.89-3.08-1.89-5.28v-0.46c0-1.47,0.28-2.78,0.84-3.93
		s1.34-2.06,2.35-2.71s2.1-0.98,3.27-0.98c1.92,0,3.42,0.63,4.48,1.9s1.6,3.08,1.6,5.44v1.05h-10.02c0.04,1.46,0.46,2.64,1.28,3.53
		s1.85,1.35,3.11,1.35c0.89,0,1.65-0.18,2.27-0.55s1.16-0.85,1.63-1.45l1.54,1.2C747.88,51.81,746.02,52.77,743.54,52.77z
		 M743.23,39.5c-1.02,0-1.88,0.37-2.57,1.11s-1.12,1.78-1.29,3.12h7.41v-0.19c-0.07-1.29-0.42-2.28-1.04-2.99
		S744.28,39.5,743.23,39.5z"/>
	<path class="st2" d="M755.19,37.7l0.08,1.86c1.13-1.42,2.61-2.13,4.43-2.13c3.13,0,4.7,1.76,4.73,5.29v9.78h-2.53V42.7
		c-0.01-1.07-0.25-1.85-0.73-2.37s-1.22-0.77-2.24-0.77c-0.82,0-1.54,0.22-2.16,0.66c-0.62,0.44-1.1,1.01-1.45,1.72v10.54h-2.53
		V37.7H755.19z"/>
	<path class="st2" d="M772.24,34.12v3.58H775v1.96h-2.76v9.19c0,0.59,0.12,1.04,0.37,1.33c0.25,0.3,0.67,0.44,1.26,0.44
		c0.29,0,0.69-0.05,1.2-0.16v2.04c-0.67,0.18-1.31,0.27-1.94,0.27c-1.13,0-1.98-0.34-2.56-1.03s-0.86-1.65-0.86-2.91v-9.17h-2.69
		V37.7h2.69v-3.58H772.24z"/>
	<path class="st2" d="M787.65,52.49c-0.15-0.29-0.26-0.81-0.36-1.56c-1.18,1.22-2.58,1.83-4.21,1.83c-1.46,0-2.66-0.41-3.59-1.24
		c-0.93-0.83-1.4-1.87-1.4-3.14c0-1.54,0.58-2.74,1.76-3.59c1.17-0.85,2.82-1.28,4.94-1.28h2.46v-1.16c0-0.88-0.26-1.59-0.79-2.11
		c-0.53-0.52-1.31-0.79-2.34-0.79c-0.9,0-1.66,0.23-2.27,0.68c-0.61,0.46-0.92,1.01-0.92,1.65h-2.54c0-0.74,0.26-1.45,0.79-2.14
		c0.52-0.69,1.23-1.23,2.13-1.63c0.9-0.4,1.88-0.6,2.96-0.6c1.7,0,3.04,0.43,4.01,1.28c0.97,0.85,1.47,2.03,1.5,3.52v6.81
		c0,1.36,0.17,2.44,0.52,3.24v0.22H787.65z M783.45,50.56c0.79,0,1.54-0.21,2.26-0.62s1.23-0.94,1.54-1.6v-3.04h-1.98
		c-3.1,0-4.65,0.91-4.65,2.72c0,0.79,0.26,1.41,0.79,1.86C781.94,50.34,782.62,50.56,783.45,50.56z"/>
	<path class="st2" d="M802.92,48.57c0-0.68-0.26-1.21-0.77-1.59s-1.41-0.7-2.69-0.98s-2.3-0.6-3.05-0.98s-1.31-0.84-1.67-1.37
		s-0.54-1.16-0.54-1.89c0-1.21,0.51-2.24,1.54-3.08s2.34-1.26,3.93-1.26c1.68,0,3.04,0.43,4.08,1.3s1.57,1.97,1.57,3.32h-2.54
		c0-0.69-0.29-1.29-0.88-1.79s-1.33-0.75-2.22-0.75c-0.92,0-1.64,0.2-2.16,0.6s-0.78,0.92-0.78,1.57c0,0.61,0.24,1.07,0.72,1.38
		s1.36,0.61,2.62,0.89s2.29,0.62,3.07,1.01s1.37,0.86,1.74,1.42s0.57,1.22,0.57,2.02c0,1.32-0.53,2.38-1.59,3.18s-2.43,1.2-4.12,1.2
		c-1.18,0-2.23-0.21-3.14-0.63s-1.62-1-2.14-1.76s-0.77-1.57-0.77-2.44h2.53c0.05,0.85,0.38,1.52,1.02,2.02s1.47,0.75,2.51,0.75
		c0.96,0,1.72-0.19,2.3-0.58S802.92,49.22,802.92,48.57z"/>
	<path class="st2" d="M633.12,80.97c0-2.3,0.53-4.14,1.6-5.5c1.07-1.36,2.48-2.04,4.24-2.04c1.8,0,3.21,0.64,4.22,1.91l0.12-1.64
		h2.31v14.44c0,1.91-0.57,3.42-1.7,4.53c-1.13,1.1-2.66,1.65-4.57,1.65c-1.07,0-2.11-0.23-3.13-0.68c-1.02-0.46-1.8-1.08-2.34-1.87
		l1.31-1.52c1.08,1.34,2.41,2.01,3.98,2.01c1.23,0,2.19-0.35,2.88-1.04c0.69-0.69,1.03-1.67,1.03-2.93v-1.27
		c-1.01,1.17-2.39,1.75-4.14,1.75c-1.73,0-3.13-0.7-4.2-2.09S633.12,83.38,633.12,80.97z M635.66,81.26c0,1.67,0.34,2.98,1.03,3.93
		c0.68,0.95,1.64,1.43,2.87,1.43c1.59,0,2.77-0.72,3.51-2.17v-6.75c-0.77-1.41-1.94-2.12-3.49-2.12c-1.23,0-2.19,0.48-2.88,1.44
		S635.66,79.38,635.66,81.26z"/>
	<path class="st2" d="M657.14,75.97c-0.38-0.06-0.8-0.1-1.24-0.1c-1.66,0-2.79,0.71-3.38,2.12v10.5h-2.53V73.7h2.46l0.04,1.71
		c0.83-1.32,2-1.98,3.53-1.98c0.49,0,0.87,0.06,1.12,0.19V75.97z"/>
	<path class="st2" d="M668.61,88.49c-0.15-0.29-0.26-0.81-0.36-1.56c-1.18,1.22-2.58,1.83-4.21,1.83c-1.46,0-2.65-0.41-3.59-1.24
		c-0.93-0.83-1.4-1.87-1.4-3.14c0-1.54,0.59-2.74,1.76-3.59c1.17-0.85,2.82-1.28,4.94-1.28h2.46v-1.16c0-0.88-0.26-1.59-0.79-2.11
		c-0.53-0.52-1.31-0.79-2.34-0.79c-0.9,0-1.66,0.23-2.27,0.68c-0.61,0.46-0.92,1.01-0.92,1.65h-2.54c0-0.74,0.26-1.45,0.79-2.14
		c0.52-0.69,1.24-1.23,2.13-1.63s1.88-0.6,2.96-0.6c1.7,0,3.04,0.43,4.01,1.28s1.47,2.03,1.5,3.52v6.81c0,1.36,0.17,2.44,0.52,3.24
		v0.22H668.61z M664.41,86.56c0.79,0,1.54-0.21,2.26-0.62s1.23-0.94,1.54-1.6v-3.04h-1.98c-3.1,0-4.65,0.91-4.65,2.72
		c0,0.79,0.26,1.41,0.79,1.86C662.9,86.34,663.58,86.56,664.41,86.56z M666.75,67.49h3.06l-3.66,4.02l-2.04-0.01L666.75,67.49z"/>
	<path class="st2" d="M676.51,88.49V75.65h-2.34V73.7h2.34v-1.52c0-1.59,0.42-2.81,1.27-3.68s2.05-1.3,3.6-1.3
		c0.58,0,1.16,0.08,1.74,0.23l-0.14,2.04c-0.43-0.08-0.88-0.12-1.37-0.12c-0.82,0-1.45,0.24-1.9,0.72
		c-0.45,0.48-0.67,1.17-0.67,2.06v1.56h3.16v1.96h-3.16v12.84H676.51z"/>
	<path class="st2" d="M685.56,69.78c0-0.41,0.12-0.76,0.38-1.04s0.62-0.42,1.11-0.42s0.87,0.14,1.12,0.42s0.38,0.63,0.38,1.04
		s-0.13,0.75-0.38,1.03s-0.63,0.41-1.12,0.41s-0.86-0.14-1.11-0.41S685.56,70.19,685.56,69.78z M688.29,88.49h-2.53V73.7h2.53V88.49
		z"/>
	<path class="st2" d="M698.83,86.7c0.9,0,1.69-0.27,2.37-0.82s1.05-1.23,1.12-2.05h2.39c-0.05,0.85-0.34,1.65-0.88,2.42
		s-1.26,1.38-2.15,1.83c-0.9,0.46-1.85,0.68-2.85,0.68c-2.01,0-3.62-0.67-4.81-2.02c-1.19-1.35-1.78-3.18-1.78-5.52v-0.42
		c0-1.44,0.26-2.72,0.79-3.84c0.53-1.12,1.29-1.99,2.28-2.61s2.16-0.93,3.51-0.93c1.66,0,3.04,0.5,4.14,1.49s1.68,2.28,1.76,3.87
		h-2.39c-0.07-0.96-0.44-1.74-1.09-2.36c-0.65-0.62-1.46-0.92-2.41-0.92c-1.29,0-2.28,0.46-2.99,1.39
		c-0.71,0.92-1.06,2.26-1.06,4.01v0.48c0,1.71,0.35,3.02,1.05,3.94C696.53,86.24,697.53,86.7,698.83,86.7z"/>
	<path class="st2" d="M717.25,88.49c-0.15-0.29-0.26-0.81-0.36-1.56c-1.18,1.22-2.58,1.83-4.21,1.83c-1.46,0-2.66-0.41-3.59-1.24
		c-0.93-0.83-1.4-1.87-1.4-3.14c0-1.54,0.58-2.74,1.76-3.59c1.17-0.85,2.82-1.28,4.94-1.28h2.46v-1.16c0-0.88-0.26-1.59-0.79-2.11
		c-0.53-0.52-1.31-0.79-2.34-0.79c-0.9,0-1.66,0.23-2.27,0.68c-0.61,0.46-0.92,1.01-0.92,1.65H708c0-0.74,0.26-1.45,0.79-2.14
		c0.52-0.69,1.23-1.23,2.13-1.63c0.9-0.4,1.88-0.6,2.96-0.6c1.7,0,3.04,0.43,4.01,1.28c0.97,0.85,1.47,2.03,1.5,3.52v6.81
		c0,1.36,0.17,2.44,0.52,3.24v0.22H717.25z M713.05,86.56c0.79,0,1.54-0.21,2.26-0.62s1.23-0.94,1.54-1.6v-3.04h-1.98
		c-3.1,0-4.65,0.91-4.65,2.72c0,0.79,0.26,1.41,0.79,1.86C711.54,86.34,712.22,86.56,713.05,86.56z"/>
	<path class="st2" d="M732.52,84.57c0-0.68-0.26-1.21-0.77-1.59c-0.51-0.38-1.41-0.71-2.69-0.98s-2.3-0.6-3.05-0.98
		s-1.31-0.84-1.67-1.37c-0.36-0.53-0.54-1.16-0.54-1.89c0-1.21,0.51-2.24,1.54-3.08s2.34-1.26,3.93-1.26c1.68,0,3.04,0.43,4.08,1.3
		s1.57,1.97,1.57,3.32h-2.54c0-0.69-0.29-1.29-0.88-1.79c-0.59-0.5-1.33-0.75-2.22-0.75c-0.92,0-1.64,0.2-2.16,0.6
		c-0.52,0.4-0.78,0.93-0.78,1.57c0,0.61,0.24,1.07,0.72,1.38c0.48,0.31,1.36,0.61,2.62,0.89c1.26,0.28,2.29,0.62,3.07,1.01
		c0.78,0.39,1.37,0.86,1.74,1.42c0.38,0.55,0.57,1.22,0.57,2.02c0,1.32-0.53,2.38-1.59,3.18c-1.06,0.8-2.43,1.2-4.12,1.2
		c-1.18,0-2.23-0.21-3.14-0.63c-0.91-0.42-1.62-1-2.14-1.76s-0.77-1.57-0.77-2.44h2.53c0.05,0.85,0.38,1.52,1.02,2.02
		c0.63,0.5,1.47,0.74,2.51,0.74c0.96,0,1.72-0.19,2.3-0.58C732.23,85.73,732.52,85.22,732.52,84.57z"/>
	<path class="st2" d="M751.24,84.79l3.45-11.09h2.71l-5.95,17.08c-0.92,2.46-2.38,3.69-4.39,3.69l-0.48-0.04l-0.94-0.18V92.2
		l0.68,0.05c0.86,0,1.52-0.17,2-0.52c0.48-0.35,0.87-0.98,1.18-1.9l0.56-1.5l-5.28-14.63h2.76L751.24,84.79z"/>
	<path class="st2" d="M639.86,124.77c-2,0-3.64-0.66-4.89-1.97c-1.26-1.32-1.89-3.08-1.89-5.29v-0.46c0-1.47,0.28-2.78,0.84-3.93
		c0.56-1.15,1.34-2.06,2.35-2.71c1.01-0.65,2.1-0.98,3.27-0.98c1.92,0,3.42,0.63,4.48,1.9c1.07,1.27,1.6,3.08,1.6,5.44v1.05h-10.02
		c0.04,1.46,0.46,2.64,1.28,3.54c0.82,0.9,1.85,1.35,3.11,1.35c0.89,0,1.65-0.18,2.27-0.55c0.62-0.36,1.16-0.85,1.63-1.45l1.54,1.2
		C644.2,123.81,642.34,124.77,639.86,124.77z M639.54,111.5c-1.02,0-1.88,0.37-2.57,1.12c-0.69,0.74-1.12,1.78-1.29,3.12h7.41v-0.19
		c-0.07-1.29-0.42-2.28-1.04-2.99C641.44,111.86,640.6,111.5,639.54,111.5z"/>
	<path class="st2" d="M648.5,116.97c0-2.27,0.54-4.09,1.61-5.47c1.08-1.38,2.48-2.07,4.22-2.07c1.73,0,3.1,0.59,4.12,1.78v-7.71
		h2.53v21h-2.32l-0.12-1.59c-1.01,1.24-2.42,1.86-4.22,1.86c-1.71,0-3.11-0.7-4.19-2.11c-1.08-1.4-1.62-3.23-1.62-5.5V116.97z
		 M651.03,117.26c0,1.68,0.35,2.99,1.04,3.94c0.69,0.95,1.65,1.42,2.87,1.42c1.6,0,2.78-0.72,3.51-2.16v-6.79
		c-0.76-1.39-1.92-2.09-3.49-2.09c-1.24,0-2.21,0.48-2.9,1.44C651.37,113.96,651.03,115.38,651.03,117.26z"/>
	<path class="st2" d="M665.48,105.78c0-0.41,0.12-0.76,0.38-1.04c0.25-0.28,0.62-0.42,1.11-0.42s0.87,0.14,1.12,0.42
		c0.25,0.28,0.38,0.63,0.38,1.04s-0.13,0.75-0.38,1.03s-0.63,0.41-1.12,0.41s-0.86-0.14-1.11-0.41S665.48,106.19,665.48,105.78z
		 M668.21,124.49h-2.53V109.7h2.53V124.49z"/>
	<path class="st2" d="M678.75,122.7c0.9,0,1.69-0.27,2.37-0.82c0.67-0.55,1.05-1.23,1.12-2.05h2.39c-0.05,0.85-0.34,1.65-0.88,2.42
		c-0.54,0.77-1.26,1.38-2.15,1.83c-0.9,0.46-1.85,0.68-2.85,0.68c-2.01,0-3.62-0.67-4.81-2.02c-1.19-1.35-1.78-3.18-1.78-5.52v-0.42
		c0-1.44,0.26-2.72,0.79-3.84c0.53-1.12,1.29-1.99,2.28-2.61c0.99-0.62,2.16-0.93,3.51-0.93c1.66,0,3.04,0.5,4.14,1.49
		c1.1,0.99,1.68,2.28,1.76,3.87h-2.39c-0.07-0.96-0.44-1.74-1.09-2.36c-0.65-0.62-1.46-0.92-2.41-0.92c-1.29,0-2.28,0.46-2.99,1.39
		c-0.71,0.92-1.06,2.26-1.06,4.01v0.48c0,1.71,0.35,3.02,1.05,3.94C676.45,122.24,677.45,122.7,678.75,122.7z"/>
	<path class="st2" d="M688.05,105.78c0-0.41,0.12-0.76,0.38-1.04c0.25-0.28,0.62-0.42,1.11-0.42s0.87,0.14,1.12,0.42
		c0.25,0.28,0.38,0.63,0.38,1.04s-0.13,0.75-0.38,1.03s-0.63,0.41-1.12,0.41s-0.86-0.14-1.11-0.41S688.05,106.19,688.05,105.78z
		 M690.78,124.49h-2.53V109.7h2.53V124.49z"/>
	<path class="st2" d="M694.72,116.96c0-1.45,0.29-2.75,0.85-3.91c0.57-1.16,1.36-2.05,2.38-2.68s2.18-0.94,3.48-0.94
		c2.01,0,3.64,0.7,4.89,2.09s1.87,3.25,1.87,5.56v0.18c0,1.44-0.28,2.73-0.83,3.88c-0.55,1.14-1.34,2.04-2.37,2.67
		c-1.03,0.64-2.2,0.96-3.53,0.96c-2,0-3.63-0.7-4.87-2.09s-1.87-3.24-1.87-5.54V116.96z M697.26,117.26c0,1.64,0.38,2.96,1.14,3.95
		c0.76,0.99,1.78,1.49,3.06,1.49c1.29,0,2.31-0.5,3.06-1.51c0.76-1.01,1.13-2.42,1.13-4.23c0-1.62-0.38-2.94-1.16-3.94
		c-0.77-1.01-1.79-1.51-3.07-1.51c-1.25,0-2.26,0.5-3.02,1.49C697.65,113.99,697.26,115.41,697.26,117.26z M702.58,103.49h3.06
		l-3.66,4.02l-2.04-0.01L702.58,103.49z"/>
	<path class="st2" d="M714.31,109.7l0.08,1.86c1.13-1.42,2.61-2.13,4.43-2.13c3.13,0,4.7,1.76,4.73,5.29v9.78h-2.53v-9.79
		c-0.01-1.07-0.25-1.85-0.73-2.37c-0.48-0.51-1.22-0.77-2.24-0.77c-0.82,0-1.54,0.22-2.16,0.66c-0.62,0.44-1.1,1.01-1.45,1.72v10.54
		h-2.53V109.7H714.31z"/>
	<path class="st2" d="M740.3,121.06l3.66-11.36h2.58l-5.3,14.79h-1.93l-5.36-14.79h2.58L740.3,121.06z"/>
	<path class="st2" d="M749.56,105.78c0-0.41,0.12-0.76,0.38-1.04c0.25-0.28,0.62-0.42,1.11-0.42s0.87,0.14,1.12,0.42
		c0.25,0.28,0.38,0.63,0.38,1.04s-0.13,0.75-0.38,1.03s-0.63,0.41-1.12,0.41s-0.86-0.14-1.11-0.41S749.56,106.19,749.56,105.78z
		 M752.29,124.49h-2.53V109.7h2.53V124.49z"/>
	<path class="st2" d="M764.05,111.97c-0.38-0.06-0.8-0.1-1.24-0.1c-1.66,0-2.79,0.71-3.38,2.12v10.5h-2.53V109.7h2.46l0.04,1.71
		c0.83-1.32,2-1.98,3.53-1.98c0.49,0,0.87,0.06,1.12,0.19V111.97z"/>
	<path class="st2" d="M771.05,106.12v3.58h2.76v1.96h-2.76v9.19c0,0.59,0.12,1.04,0.37,1.34c0.25,0.29,0.67,0.44,1.26,0.44
		c0.29,0,0.69-0.05,1.2-0.16v2.04c-0.67,0.18-1.31,0.27-1.94,0.27c-1.13,0-1.98-0.34-2.56-1.03s-0.86-1.65-0.86-2.91v-9.17h-2.69
		v-1.96h2.69v-3.58H771.05z"/>
	<path class="st2" d="M786.46,123.03c-0.98,1.16-2.43,1.74-4.33,1.74c-1.58,0-2.78-0.46-3.6-1.37c-0.83-0.92-1.24-2.27-1.25-4.07
		v-9.62h2.53v9.56c0,2.24,0.91,3.36,2.73,3.36c1.93,0,3.22-0.72,3.86-2.16V109.7h2.53v14.79h-2.41L786.46,123.03z"/>
	<path class="st2" d="M802.45,124.49c-0.15-0.29-0.26-0.81-0.36-1.56c-1.18,1.22-2.58,1.83-4.21,1.83c-1.46,0-2.66-0.41-3.59-1.24
		c-0.93-0.83-1.4-1.87-1.4-3.14c0-1.54,0.58-2.74,1.76-3.59c1.17-0.85,2.82-1.28,4.94-1.28h2.46v-1.16c0-0.88-0.26-1.59-0.79-2.11
		c-0.53-0.53-1.31-0.79-2.34-0.79c-0.9,0-1.66,0.23-2.27,0.68c-0.61,0.46-0.92,1.01-0.92,1.65h-2.54c0-0.74,0.26-1.45,0.79-2.14
		c0.52-0.69,1.23-1.23,2.13-1.63c0.9-0.4,1.88-0.6,2.96-0.6c1.7,0,3.04,0.43,4.01,1.28c0.97,0.85,1.47,2.03,1.5,3.52v6.81
		c0,1.36,0.17,2.44,0.52,3.24v0.22H802.45z M798.25,122.56c0.79,0,1.54-0.21,2.26-0.62s1.23-0.94,1.54-1.6v-3.04h-1.98
		c-3.1,0-4.65,0.91-4.65,2.72c0,0.79,0.26,1.41,0.79,1.86C796.74,122.34,797.42,122.56,798.25,122.56z"/>
	<path class="st2" d="M811.86,124.49h-2.53v-21h2.53V124.49z"/>
</g>
<g>
	<g class="st3">
		<g>
			<g>
				<polygon class="st0" points="577.04,64.65 554.87,77.53 532.57,64.65 554.73,51.77 				"/>
			</g>
		</g>
		<g>
			<g>
				<polygon class="st0" points="550.44,80.11 528.27,92.99 505.96,80.11 528.13,67.23 				"/>
			</g>
		</g>
		<g>
			<g>
				<polygon class="st0" points="522.07,96.6 499.9,109.48 477.59,96.6 499.76,83.72 				"/>
			</g>
		</g>
		<g>
			<g>
				<polygon class="st0" points="495.48,112.04 473.32,124.92 451.01,112.04 473.17,99.16 				"/>
			</g>
		</g>
		<g>
			<g>
				<path class="st4" d="M554.7,46.62l32.12,18.54l-115.25,66.98l-32.12-18.55L554.7,46.62z M499.9,109.48l22.16-12.88l-22.31-12.88
					L477.59,96.6L499.9,109.48L499.9,109.48z M528.27,92.99l22.16-12.88l-22.31-12.88l-22.16,12.88L528.27,92.99L528.27,92.99z
					 M554.87,77.53l22.16-12.88l-22.31-12.88l-22.16,12.88L554.87,77.53L554.87,77.53z M473.32,124.92l22.16-12.88l-22.31-12.88
					l-22.16,12.88L473.32,124.92L473.32,124.92z"/>
			</g>
		</g>
	</g>
</g>
<g>
	<g class="st3">
		<g>
			<g>
				<polygon class="st5" points="570.27,26.55 547.23,37.79 525.91,23.33 548.96,12.09 				"/>
			</g>
		</g>
		<g>
			<g>
				<polygon class="st5" points="542.62,40.04 519.58,51.28 498.27,36.81 521.3,25.57 				"/>
			</g>
		</g>
		<g>
			<g>
				<polygon class="st5" points="513.13,54.42 490.09,65.66 468.77,51.2 491.81,39.96 				"/>
			</g>
		</g>
		<g>
			<g>
				<polygon class="st5" points="485.5,67.9 462.45,79.14 441.14,64.68 464.18,53.44 				"/>
			</g>
		</g>
		<g>
			<g>
				<path class="st4" d="M549.3,6.95l30.69,20.83L460.18,86.21l-30.69-20.82L549.3,6.95z M490.09,65.66l23.04-11.24l-21.31-14.46
					L468.77,51.2L490.09,65.66L490.09,65.66z M519.58,51.28l23.04-11.24L521.3,25.57l-23.04,11.24L519.58,51.28L519.58,51.28z
					 M547.23,37.79l23.04-11.24l-21.31-14.46l-23.04,11.24L547.23,37.79L547.23,37.79z M462.45,79.14L485.5,67.9l-21.32-14.47
					l-23.04,11.24L462.45,79.14L462.45,79.14z"/>
			</g>
		</g>
	</g>
</g>
</svg>
