<?xml version="1.0" encoding="utf-8"?>
<!-- Generator: Adobe Illustrator 25.4.1, SVG Export Plug-In . SVG Version: 6.00 Build 0)  -->
<svg version="1.1" id="Capa_1" xmlns="http://www.w3.org/2000/svg" xmlns:xlink="http://www.w3.org/1999/xlink" x="0px" y="0px"
	 viewBox="0 0 600 200" style="enable-background:new 0 0 600 200;" xml:space="preserve">
<style type="text/css">
	.st0{fill:#57878D;}
	.st1{fill:#44505F;}
	.st2{fill:#F4B1BD;}
	.st3{enable-background:new    ;}
	.st4{fill:#FFFFFF;}
	.st5{fill:#7CC5B6;}
</style>
<g>
	<g>
		<path class="st0" d="M61.96,52.16c-0.32,4.43-1.96,7.92-4.91,10.47c-2.95,2.55-6.84,3.82-11.67,3.82c-5.28,0-9.44-1.78-12.47-5.33
			c-3.03-3.56-4.54-8.44-4.54-14.65v-2.52c0-3.96,0.7-7.45,2.09-10.47c1.4-3.02,3.39-5.33,5.99-6.95c2.59-1.61,5.61-2.42,9.04-2.42
			c4.75,0,8.58,1.27,11.49,3.82s4.58,6.12,5.04,10.73h-8.49c-0.21-2.66-0.95-4.59-2.22-5.79s-3.21-1.8-5.82-1.8
			c-2.83,0-4.95,1.01-6.35,3.04c-1.41,2.03-2.13,5.17-2.17,9.44v3.11c0,4.45,0.67,7.71,2.02,9.76c1.35,2.06,3.48,3.08,6.38,3.08
			c2.62,0,4.58-0.6,5.87-1.8c1.29-1.2,2.03-3.05,2.22-5.56H61.96z"/>
		<path class="st0" d="M101.38,46.22c0,4.06-0.72,7.61-2.15,10.67c-1.43,3.06-3.49,5.42-6.16,7.07c-2.67,1.66-5.73,2.49-9.18,2.49
			c-3.41,0-6.46-0.82-9.14-2.46c-2.68-1.64-4.75-3.99-6.23-7.03s-2.22-6.55-2.24-10.51v-2.04c0-4.06,0.73-7.63,2.19-10.71
			c1.46-3.08,3.53-5.45,6.2-7.1c2.67-1.65,5.72-2.48,9.16-2.48c3.43,0,6.48,0.83,9.15,2.48c2.67,1.65,4.74,4.02,6.2,7.1
			c1.46,3.08,2.19,6.65,2.19,10.68V46.22z M92.78,44.35c0-4.32-0.77-7.6-2.32-9.85c-1.55-2.25-3.75-3.37-6.62-3.37
			c-2.85,0-5.05,1.11-6.59,3.33s-2.33,5.47-2.35,9.75v2.01c0,4.21,0.77,7.47,2.32,9.79c1.55,2.32,3.77,3.48,6.68,3.48
			c2.85,0,5.04-1.12,6.57-3.35c1.53-2.24,2.3-5.5,2.32-9.78V44.35z"/>
		<path class="st0" d="M118.64,24.68l10.58,29.88l10.53-29.88h11.15v41.21h-8.52V54.62l0.85-19.44l-11.12,30.71h-5.83l-11.09-30.68
			l0.85,19.41v11.26h-8.49V24.68H118.64z"/>
		<path class="st0" d="M189.51,24.68v27.14c0,4.51-1.41,8.08-4.23,10.7c-2.82,2.62-6.67,3.93-11.56,3.93
			c-4.81,0-8.63-1.27-11.46-3.82c-2.83-2.55-4.27-6.05-4.33-10.5V24.68h8.49v27.2c0,2.7,0.65,4.67,1.94,5.9
			c1.29,1.24,3.08,1.85,5.36,1.85c4.77,0,7.2-2.51,7.27-7.53V24.68H189.51z"/>
		<path class="st0" d="M229.98,65.89h-8.49l-16.53-27.11v27.11h-8.49V24.68h8.49l16.56,27.17V24.68h8.46V65.89z"/>
		<path class="st0" d="M246.42,65.89h-8.49V24.68h8.49V65.89z"/>
		<path class="st0" d="M286.63,52.16c-0.32,4.43-1.96,7.92-4.91,10.47c-2.95,2.55-6.84,3.82-11.67,3.82
			c-5.28,0-9.44-1.78-12.47-5.33c-3.03-3.56-4.54-8.44-4.54-14.65v-2.52c0-3.96,0.7-7.45,2.09-10.47c1.4-3.02,3.39-5.33,5.99-6.95
			c2.59-1.61,5.61-2.42,9.04-2.42c4.75,0,8.58,1.27,11.49,3.82s4.58,6.12,5.04,10.73h-8.49c-0.21-2.66-0.95-4.59-2.22-5.79
			s-3.21-1.8-5.82-1.8c-2.83,0-4.95,1.01-6.35,3.04c-1.41,2.03-2.13,5.17-2.17,9.44v3.11c0,4.45,0.67,7.71,2.02,9.76
			c1.35,2.06,3.48,3.08,6.38,3.08c2.62,0,4.58-0.6,5.87-1.8c1.29-1.2,2.03-3.05,2.22-5.56H286.63z"/>
		<path class="st0" d="M315.47,57.4h-14.89l-2.83,8.49h-9.03l15.34-41.21h7.87l15.42,41.21h-9.03L315.47,57.4z M302.88,50.52h10.3
			L308,35.1L302.88,50.52z"/>
		<path class="st0" d="M346.46,50.8h-6.76v15.08h-8.49V24.68h15.31c4.87,0,8.62,1.09,11.26,3.25c2.64,2.17,3.96,5.24,3.96,9.2
			c0,2.81-0.61,5.16-1.83,7.03c-1.22,1.88-3.06,3.37-5.53,4.49l8.91,16.84v0.4h-9.11L346.46,50.8z M339.7,43.93h6.85
			c2.13,0,3.78-0.54,4.95-1.63s1.75-2.58,1.75-4.49c0-1.94-0.55-3.47-1.65-4.58c-1.1-1.11-2.8-1.67-5.08-1.67h-6.82V43.93z"/>
		<path d="M54.4,101.98c-0.26,3.58-1.58,6.39-3.96,8.45c-2.38,2.05-5.52,3.08-9.42,3.08c-4.26,0-7.62-1.43-10.06-4.3
			c-2.44-2.87-3.67-6.81-3.67-11.82v-2.03c0-3.2,0.56-6.01,1.69-8.45c1.13-2.44,2.74-4.3,4.83-5.61c2.09-1.3,4.52-1.95,7.3-1.95
			c3.84,0,6.93,1.03,9.27,3.08c2.34,2.06,3.7,4.94,4.06,8.65h-6.85c-0.17-2.15-0.76-3.7-1.79-4.67c-1.03-0.97-2.59-1.45-4.69-1.45
			c-2.28,0-3.99,0.82-5.13,2.45c-1.13,1.64-1.72,4.18-1.75,7.62v2.51c0,3.59,0.54,6.22,1.63,7.88c1.09,1.66,2.8,2.49,5.15,2.49
			c2.12,0,3.7-0.48,4.74-1.45c1.04-0.97,1.64-2.46,1.79-4.49H54.4z"/>
		<path d="M86.21,97.18c0,3.27-0.58,6.14-1.74,8.61c-1.16,2.47-2.81,4.37-4.97,5.71s-4.62,2.01-7.41,2.01
			c-2.76,0-5.21-0.66-7.38-1.99c-2.16-1.32-3.84-3.22-5.02-5.67c-1.19-2.46-1.79-5.29-1.8-8.48v-1.64c0-3.27,0.59-6.15,1.77-8.64
			c1.18-2.49,2.85-4.4,5-5.73c2.15-1.33,4.62-2,7.39-2c2.77,0,5.23,0.67,7.39,2c2.15,1.33,3.82,3.24,5,5.73
			c1.18,2.49,1.77,5.36,1.77,8.62V97.18z M79.27,95.68c0-3.49-0.62-6.13-1.87-7.95s-3.03-2.72-5.34-2.72c-2.3,0-4.07,0.89-5.32,2.68
			c-1.25,1.79-1.88,4.41-1.9,7.87v1.62c0,3.39,0.62,6.03,1.87,7.9c1.25,1.87,3.04,2.81,5.39,2.81c2.3,0,4.06-0.9,5.3-2.71
			c1.23-1.8,1.86-4.43,1.87-7.89V95.68z"/>
		<path d="M118.22,113.05h-6.85L98.04,91.18v21.88h-6.85V79.81h6.85l13.36,21.92V79.81h6.83V113.05z"/>
		<path d="M143.14,113.05h-6.85V79.81h6.85V113.05z"/>
		<path d="M158.44,79.81l8.54,24.11l8.49-24.11h9v33.25h-6.87v-9.09l0.69-15.69l-8.97,24.78h-4.7l-8.95-24.75l0.69,15.66v9.09h-6.85
			V79.81H158.44z"/>
		<path d="M209.63,106.2h-12.01l-2.28,6.85h-7.28l12.38-33.25h6.35l12.44,33.25h-7.28L209.63,106.2z M199.47,100.65h8.31
			l-4.18-12.45L199.47,100.65z M205.02,70.9h7.19l-6.33,7.08h-5.37L205.02,70.9z"/>
		<path d="M248.16,108.85c-1.23,1.48-2.98,2.62-5.23,3.44c-2.25,0.81-4.75,1.22-7.49,1.22c-2.88,0-5.4-0.63-7.57-1.88
			c-2.17-1.26-3.84-3.08-5.02-5.47c-1.18-2.39-1.79-5.2-1.82-8.43v-2.26c0-3.32,0.56-6.19,1.68-8.62c1.12-2.43,2.73-4.29,4.84-5.57
			c2.11-1.29,4.58-1.93,7.41-1.93c3.94,0,7.02,0.94,9.25,2.82c2.22,1.88,3.54,4.62,3.95,8.21h-6.67c-0.3-1.9-0.98-3.3-2.02-4.18
			c-1.04-0.88-2.48-1.32-4.3-1.32c-2.33,0-4.1,0.88-5.32,2.63c-1.22,1.75-1.83,4.35-1.85,7.81v2.12c0,3.49,0.66,6.12,1.99,7.9
			c1.32,1.78,3.27,2.67,5.82,2.67c2.57,0,4.41-0.55,5.5-1.64v-5.73h-6.23v-5.05h13.08V108.85z"/>
		<path d="M273.71,98.65h-13.15v8.91h15.44v5.5H253.7V79.81h22.24v5.55h-15.39v7.92h13.15V98.65z"/>
		<path d="M307.05,113.05h-6.85l-13.34-21.88v21.88h-6.85V79.81h6.85l13.36,21.92V79.81h6.83V113.05z"/>
		<path d="M333.03,98.65h-13.15v8.91h15.44v5.5h-22.29V79.81h22.24v5.55h-15.39v7.92h13.15V98.65z"/>
		<path d="M356.58,104.33c0-1.29-0.46-2.29-1.37-2.98c-0.91-0.69-2.56-1.42-4.93-2.19c-2.38-0.77-4.25-1.53-5.64-2.27
			c-3.78-2.04-5.66-4.79-5.66-8.24c0-1.8,0.51-3.4,1.52-4.81c1.01-1.41,2.47-2.51,4.36-3.3c1.89-0.79,4.02-1.19,6.38-1.19
			c2.38,0,4.49,0.43,6.35,1.29c1.86,0.86,3.3,2.07,4.33,3.64c1.03,1.57,1.54,3.35,1.54,5.34h-6.85c0-1.52-0.48-2.71-1.44-3.55
			s-2.31-1.27-4.04-1.27c-1.67,0-2.98,0.35-3.9,1.06c-0.93,0.71-1.39,1.64-1.39,2.8c0,1.08,0.54,1.99,1.63,2.72
			c1.09,0.73,2.69,1.42,4.81,2.06c3.9,1.17,6.74,2.63,8.52,4.36s2.67,3.9,2.67,6.49c0,2.88-1.09,5.13-3.27,6.77
			s-5.11,2.46-8.79,2.46c-2.56,0-4.89-0.47-6.99-1.4c-2.1-0.94-3.7-2.22-4.81-3.85c-1.1-1.63-1.66-3.52-1.66-5.66h6.87
			c0,3.67,2.19,5.5,6.58,5.5c1.63,0,2.9-0.33,3.81-0.99C356.12,106.44,356.58,105.52,356.58,104.33z"/>
		<path class="st1" d="M43.27,144.23h-2.45v-8.54h-9.31v8.54h-2.44v-18.47h2.44v7.94h9.31v-7.94h2.45V144.23z"/>
		<path class="st1" d="M56.92,144.49c-1.86,0-3.37-0.61-4.54-1.83c-1.17-1.22-1.75-2.86-1.75-4.9v-0.43c0-1.36,0.26-2.58,0.78-3.65
			c0.52-1.07,1.25-1.91,2.18-2.51s1.95-0.91,3.04-0.91c1.78,0,3.17,0.59,4.16,1.76c0.99,1.18,1.48,2.86,1.48,5.05v0.98h-9.3
			c0.03,1.35,0.43,2.45,1.19,3.28s1.72,1.25,2.89,1.25c0.83,0,1.53-0.17,2.11-0.51c0.57-0.34,1.08-0.79,1.51-1.34l1.43,1.12
			C60.95,143.6,59.23,144.49,56.92,144.49z M56.63,132.18c-0.95,0-1.74,0.34-2.38,1.03c-0.64,0.69-1.04,1.66-1.19,2.9h6.88v-0.18
			c-0.07-1.19-0.39-2.12-0.96-2.77S57.61,132.18,56.63,132.18z"/>
		<path class="st1" d="M75.63,132.61c-0.36-0.06-0.74-0.09-1.15-0.09c-1.54,0-2.58,0.66-3.13,1.97v9.74h-2.35v-13.73h2.28l0.04,1.59
			c0.77-1.23,1.86-1.84,3.27-1.84c0.46,0,0.8,0.06,1.04,0.18V132.61z"/>
		<path class="st1" d="M88.42,132.61c-0.36-0.06-0.74-0.09-1.15-0.09c-1.54,0-2.58,0.66-3.13,1.97v9.74h-2.35v-13.73h2.28l0.04,1.59
			c0.77-1.23,1.86-1.84,3.27-1.84c0.46,0,0.8,0.06,1.04,0.18V132.61z"/>
		<path class="st1" d="M102.55,144.23c-0.14-0.27-0.25-0.75-0.33-1.45c-1.09,1.13-2.39,1.7-3.91,1.7c-1.35,0-2.46-0.38-3.33-1.15
			c-0.87-0.77-1.3-1.74-1.3-2.91c0-1.43,0.54-2.54,1.63-3.33c1.09-0.79,2.62-1.19,4.59-1.19h2.28v-1.08c0-0.82-0.25-1.47-0.74-1.96
			c-0.49-0.49-1.21-0.73-2.17-0.73c-0.84,0-1.54,0.21-2.11,0.63c-0.57,0.42-0.85,0.93-0.85,1.54h-2.36c0-0.68,0.24-1.35,0.73-1.99
			s1.15-1.14,1.98-1.52c0.83-0.37,1.75-0.56,2.75-0.56c1.58,0,2.82,0.4,3.72,1.19s1.36,1.88,1.4,3.27v6.32
			c0,1.26,0.16,2.26,0.48,3.01v0.2H102.55z M98.65,142.44c0.74,0,1.43-0.19,2.09-0.57c0.66-0.38,1.14-0.88,1.43-1.48v-2.82h-1.84
			c-2.88,0-4.31,0.84-4.31,2.52c0,0.74,0.25,1.31,0.74,1.73C97.25,142.24,97.88,142.44,98.65,142.44z"/>
		<path class="st1" d="M114.41,130.51l0.06,1.52c1.01-1.18,2.36-1.78,4.07-1.78c1.92,0,3.23,0.74,3.92,2.21
			c0.46-0.66,1.05-1.19,1.78-1.6c0.73-0.41,1.6-0.61,2.59-0.61c3.01,0,4.54,1.59,4.59,4.78v9.2h-2.35v-9.06
			c0-0.98-0.22-1.71-0.67-2.2c-0.45-0.49-1.2-0.73-2.26-0.73c-0.87,0-1.59,0.26-2.17,0.78c-0.58,0.52-0.91,1.22-1,2.1v9.11h-2.36
			v-8.99c0-2-0.98-2.99-2.93-2.99c-1.54,0-2.59,0.66-3.16,1.97v10.02h-2.35v-13.73H114.41z"/>
		<path class="st1" d="M138.99,126.87c0-0.38,0.12-0.7,0.35-0.96c0.23-0.26,0.58-0.39,1.03-0.39c0.46,0,0.8,0.13,1.04,0.39
			c0.24,0.26,0.35,0.58,0.35,0.96s-0.12,0.7-0.35,0.95s-0.58,0.38-1.04,0.38c-0.46,0-0.8-0.13-1.03-0.38
			C139.11,127.56,138.99,127.25,138.99,126.87z M141.53,144.23h-2.35v-13.73h2.35V144.23z"/>
		<path class="st1" d="M154.98,144.49c-1.86,0-3.37-0.61-4.54-1.83c-1.17-1.22-1.75-2.86-1.75-4.9v-0.43c0-1.36,0.26-2.58,0.78-3.65
			c0.52-1.07,1.25-1.91,2.18-2.51s1.95-0.91,3.04-0.91c1.78,0,3.17,0.59,4.16,1.76c0.99,1.18,1.48,2.86,1.48,5.05v0.98h-9.3
			c0.03,1.35,0.43,2.45,1.19,3.28s1.72,1.25,2.89,1.25c0.83,0,1.53-0.17,2.11-0.51c0.57-0.34,1.08-0.79,1.51-1.34l1.43,1.12
			C159.01,143.6,157.28,144.49,154.98,144.49z M154.69,132.18c-0.95,0-1.74,0.34-2.38,1.03c-0.64,0.69-1.04,1.66-1.19,2.9h6.88
			v-0.18c-0.07-1.19-0.39-2.12-0.96-2.77S155.67,132.18,154.69,132.18z"/>
		<path class="st1" d="M169.27,130.51l0.08,1.73c1.05-1.32,2.42-1.98,4.11-1.98c2.9,0,4.36,1.64,4.39,4.91v9.07h-2.35v-9.08
			c-0.01-0.99-0.23-1.72-0.68-2.2s-1.14-0.71-2.07-0.71c-0.76,0-1.43,0.2-2,0.61c-0.58,0.41-1.02,0.94-1.34,1.6v9.78h-2.35v-13.73
			H169.27z"/>
		<path class="st1" d="M188.57,127.18v3.32h2.56v1.81h-2.56v8.52c0,0.55,0.11,0.96,0.34,1.24c0.23,0.27,0.62,0.41,1.17,0.41
			c0.27,0,0.64-0.05,1.12-0.15v1.89c-0.62,0.17-1.22,0.25-1.8,0.25c-1.05,0-1.84-0.32-2.37-0.95c-0.53-0.63-0.8-1.54-0.8-2.7v-8.51
			h-2.5v-1.81h2.5v-3.32H188.57z"/>
		<path class="st1" d="M206.35,144.23c-0.14-0.27-0.25-0.75-0.33-1.45c-1.09,1.13-2.39,1.7-3.91,1.7c-1.35,0-2.46-0.38-3.33-1.15
			c-0.87-0.77-1.3-1.74-1.3-2.91c0-1.43,0.54-2.54,1.63-3.33c1.09-0.79,2.62-1.19,4.59-1.19h2.28v-1.08c0-0.82-0.25-1.47-0.74-1.96
			c-0.49-0.49-1.21-0.73-2.17-0.73c-0.84,0-1.54,0.21-2.11,0.63c-0.57,0.42-0.85,0.93-0.85,1.54h-2.36c0-0.68,0.24-1.35,0.73-1.99
			s1.15-1.14,1.98-1.52c0.83-0.37,1.75-0.56,2.75-0.56c1.58,0,2.82,0.4,3.72,1.19s1.36,1.88,1.4,3.27v6.32
			c0,1.26,0.16,2.26,0.48,3.01v0.2H206.35z M202.46,142.44c0.74,0,1.43-0.19,2.09-0.57c0.66-0.38,1.14-0.88,1.43-1.48v-2.82h-1.84
			c-2.88,0-4.31,0.84-4.31,2.52c0,0.74,0.25,1.31,0.74,1.73C201.06,142.24,201.69,142.44,202.46,142.44z"/>
		<path class="st1" d="M224,140.59c0-0.63-0.24-1.13-0.72-1.48c-0.48-0.35-1.31-0.65-2.5-0.91c-1.19-0.25-2.13-0.56-2.83-0.91
			c-0.7-0.36-1.21-0.78-1.55-1.27c-0.33-0.49-0.5-1.07-0.5-1.75c0-1.12,0.48-2.08,1.43-2.85c0.95-0.78,2.17-1.17,3.65-1.17
			c1.56,0,2.82,0.4,3.79,1.21c0.97,0.8,1.45,1.83,1.45,3.08h-2.36c0-0.64-0.27-1.2-0.82-1.66c-0.55-0.46-1.23-0.7-2.06-0.7
			c-0.85,0-1.52,0.19-2,0.56c-0.48,0.37-0.72,0.86-0.72,1.46c0,0.57,0.22,0.99,0.67,1.28c0.45,0.29,1.26,0.56,2.43,0.83
			c1.17,0.26,2.12,0.58,2.85,0.94c0.73,0.36,1.27,0.8,1.62,1.31c0.35,0.51,0.53,1.13,0.53,1.87c0,1.23-0.49,2.21-1.47,2.95
			s-2.25,1.11-3.82,1.11c-1.1,0-2.07-0.2-2.92-0.58s-1.51-0.93-1.99-1.63c-0.48-0.7-0.72-1.45-0.72-2.26h2.35
			c0.04,0.79,0.36,1.41,0.94,1.87s1.36,0.69,2.33,0.69c0.89,0,1.6-0.18,2.14-0.54S224,141.19,224,140.59z"/>
		<path class="st1" d="M243.28,137.25c0-2.14,0.49-3.84,1.48-5.11c0.99-1.26,2.3-1.9,3.93-1.9c1.67,0,2.98,0.59,3.92,1.78l0.11-1.52
			h2.14v13.4c0,1.78-0.53,3.18-1.58,4.2c-1.05,1.02-2.47,1.54-4.24,1.54c-0.99,0-1.96-0.21-2.91-0.63s-1.67-1-2.17-1.74l1.22-1.41
			c1.01,1.24,2.24,1.86,3.69,1.86c1.14,0,2.03-0.32,2.67-0.96s0.96-1.55,0.96-2.71v-1.18c-0.94,1.08-2.22,1.62-3.84,1.62
			c-1.61,0-2.91-0.65-3.9-1.94S243.28,139.49,243.28,137.25z M245.64,137.52c0,1.55,0.32,2.76,0.95,3.65s1.52,1.33,2.66,1.33
			c1.48,0,2.57-0.67,3.26-2.02v-6.27c-0.72-1.31-1.8-1.97-3.24-1.97c-1.14,0-2.03,0.44-2.68,1.33S245.64,135.78,245.64,137.52z"/>
		<path class="st1" d="M269.05,132.61c-0.36-0.06-0.74-0.09-1.15-0.09c-1.54,0-2.58,0.66-3.13,1.97v9.74h-2.35v-13.73h2.28
			l0.04,1.59c0.77-1.23,1.86-1.84,3.27-1.84c0.46,0,0.8,0.06,1.04,0.18V132.61z"/>
		<path class="st1" d="M283.18,144.23c-0.14-0.27-0.25-0.75-0.33-1.45c-1.09,1.13-2.39,1.7-3.91,1.7c-1.35,0-2.46-0.38-3.33-1.15
			c-0.87-0.77-1.3-1.74-1.3-2.91c0-1.43,0.54-2.54,1.63-3.33c1.09-0.79,2.62-1.19,4.59-1.19h2.28v-1.08c0-0.82-0.25-1.47-0.74-1.96
			c-0.49-0.49-1.21-0.73-2.17-0.73c-0.84,0-1.54,0.21-2.11,0.63c-0.57,0.42-0.85,0.93-0.85,1.54h-2.36c0-0.68,0.24-1.35,0.73-1.99
			s1.15-1.14,1.98-1.52c0.83-0.37,1.75-0.56,2.75-0.56c1.58,0,2.82,0.4,3.72,1.19s1.36,1.88,1.4,3.27v6.32
			c0,1.26,0.16,2.26,0.48,3.01v0.2H283.18z M279.28,142.44c0.74,0,1.43-0.19,2.09-0.57c0.66-0.38,1.14-0.88,1.43-1.48v-2.82h-1.84
			c-2.88,0-4.31,0.84-4.31,2.52c0,0.74,0.25,1.31,0.74,1.73C277.88,142.24,278.51,142.44,279.28,142.44z M281.45,124.75h2.84
			l-3.4,3.73l-1.89-0.01L281.45,124.75z"/>
		<path class="st1" d="M293.99,144.23v-11.91h-2.17v-1.81h2.17v-1.41c0-1.47,0.39-2.61,1.18-3.41s1.9-1.21,3.34-1.21
			c0.54,0,1.08,0.07,1.61,0.21l-0.13,1.89c-0.4-0.08-0.82-0.11-1.27-0.11c-0.76,0-1.35,0.22-1.76,0.67s-0.62,1.08-0.62,1.92v1.45
			h2.93v1.81h-2.93v11.91H293.99z"/>
		<path class="st1" d="M305.87,126.87c0-0.38,0.12-0.7,0.35-0.96c0.23-0.26,0.58-0.39,1.03-0.39s0.8,0.13,1.04,0.39
			c0.24,0.26,0.35,0.58,0.35,0.96s-0.12,0.7-0.35,0.95s-0.58,0.38-1.04,0.38s-0.8-0.13-1.03-0.38
			C305.98,127.56,305.87,127.25,305.87,126.87z M308.41,144.23h-2.35v-13.73h2.35V144.23z"/>
		<path class="st1" d="M321.67,142.57c0.84,0,1.57-0.25,2.2-0.76c0.63-0.51,0.97-1.14,1.04-1.9h2.22c-0.04,0.79-0.31,1.54-0.81,2.25
			c-0.5,0.71-1.17,1.28-2,1.7s-1.71,0.63-2.65,0.63c-1.87,0-3.36-0.62-4.46-1.87c-1.1-1.25-1.66-2.95-1.66-5.12v-0.39
			c0-1.34,0.25-2.52,0.74-3.56c0.49-1.04,1.2-1.85,2.11-2.42c0.92-0.58,2-0.86,3.25-0.86c1.54,0,2.82,0.46,3.84,1.38
			c1.02,0.92,1.56,2.12,1.63,3.59h-2.22c-0.07-0.89-0.4-1.62-1.01-2.19c-0.6-0.57-1.35-0.86-2.24-0.86c-1.19,0-2.12,0.43-2.77,1.29
			c-0.66,0.86-0.98,2.1-0.98,3.72v0.44c0,1.58,0.33,2.8,0.98,3.65C319.53,142.14,320.46,142.57,321.67,142.57z"/>
		<path class="st1" d="M342.24,144.23c-0.13-0.27-0.25-0.75-0.33-1.45c-1.09,1.13-2.39,1.7-3.91,1.7c-1.35,0-2.46-0.38-3.33-1.15
			c-0.87-0.77-1.3-1.74-1.3-2.91c0-1.43,0.54-2.54,1.63-3.33s2.62-1.19,4.59-1.19h2.28v-1.08c0-0.82-0.25-1.47-0.74-1.96
			s-1.21-0.73-2.17-0.73c-0.84,0-1.54,0.21-2.11,0.63c-0.57,0.42-0.85,0.93-0.85,1.54h-2.36c0-0.68,0.24-1.35,0.73-1.99
			s1.15-1.14,1.98-1.52s1.75-0.56,2.75-0.56c1.58,0,2.82,0.4,3.72,1.19s1.36,1.88,1.39,3.27v6.32c0,1.26,0.16,2.26,0.48,3.01v0.2
			H342.24z M338.34,142.44c0.74,0,1.43-0.19,2.09-0.57c0.66-0.38,1.14-0.88,1.43-1.48v-2.82h-1.84c-2.88,0-4.31,0.84-4.31,2.52
			c0,0.74,0.25,1.31,0.74,1.73S337.57,142.44,338.34,142.44z"/>
		<path class="st1" d="M359.89,140.59c0-0.63-0.24-1.13-0.72-1.48c-0.48-0.35-1.31-0.65-2.5-0.91c-1.19-0.25-2.13-0.56-2.83-0.91
			s-1.21-0.78-1.55-1.27c-0.33-0.49-0.5-1.07-0.5-1.75c0-1.12,0.48-2.08,1.43-2.85c0.95-0.78,2.17-1.17,3.65-1.17
			c1.56,0,2.82,0.4,3.79,1.21c0.97,0.8,1.45,1.83,1.45,3.08h-2.36c0-0.64-0.27-1.2-0.82-1.66c-0.55-0.46-1.23-0.7-2.06-0.7
			c-0.85,0-1.52,0.19-2,0.56c-0.48,0.37-0.72,0.86-0.72,1.46c0,0.57,0.22,0.99,0.67,1.28c0.45,0.29,1.26,0.56,2.43,0.83
			c1.17,0.26,2.12,0.58,2.85,0.94c0.73,0.36,1.27,0.8,1.62,1.31c0.35,0.51,0.53,1.13,0.53,1.87c0,1.23-0.49,2.21-1.47,2.95
			c-0.98,0.74-2.25,1.11-3.82,1.11c-1.1,0-2.07-0.2-2.92-0.58s-1.51-0.93-1.98-1.63c-0.48-0.7-0.72-1.45-0.72-2.26h2.35
			c0.04,0.79,0.36,1.41,0.94,1.87s1.36,0.69,2.33,0.69c0.89,0,1.6-0.18,2.14-0.54S359.89,141.19,359.89,140.59z"/>
		<path class="st1" d="M79.23,171.97l3.2-10.29h2.51l-5.52,15.84c-0.85,2.28-2.21,3.43-4.07,3.43l-0.44-0.04l-0.88-0.17v-1.9
			l0.63,0.05c0.79,0,1.41-0.16,1.86-0.48c0.44-0.32,0.81-0.91,1.1-1.76l0.52-1.4l-4.9-13.57h2.56L79.23,171.97z"/>
		<path class="st1" d="M107.16,175.66c-1.86,0-3.37-0.61-4.54-1.83c-1.17-1.22-1.75-2.86-1.75-4.9v-0.43c0-1.36,0.26-2.58,0.78-3.65
			c0.52-1.07,1.25-1.91,2.18-2.51s1.95-0.91,3.04-0.91c1.78,0,3.17,0.59,4.16,1.76c0.99,1.18,1.48,2.86,1.48,5.05v0.98h-9.3
			c0.03,1.35,0.43,2.45,1.19,3.28s1.72,1.25,2.89,1.25c0.83,0,1.53-0.17,2.11-0.51c0.57-0.34,1.08-0.79,1.51-1.34l1.43,1.12
			C111.19,174.78,109.46,175.66,107.16,175.66z M106.87,163.36c-0.95,0-1.74,0.34-2.38,1.03c-0.64,0.69-1.04,1.66-1.19,2.9h6.88
			v-0.18c-0.07-1.19-0.39-2.12-0.96-2.77S107.85,163.36,106.87,163.36z"/>
		<path class="st1" d="M118.66,168.43c0-2.11,0.5-3.8,1.5-5.08s2.3-1.92,3.92-1.92c1.61,0,2.88,0.55,3.82,1.65v-7.16h2.35v19.49
			h-2.16l-0.11-1.47c-0.94,1.15-2.25,1.73-3.92,1.73c-1.59,0-2.89-0.65-3.89-1.95c-1-1.3-1.5-3-1.5-5.1V168.43z M121.01,168.7
			c0,1.56,0.32,2.77,0.96,3.65c0.64,0.88,1.53,1.32,2.66,1.32c1.49,0,2.58-0.67,3.26-2v-6.31c-0.7-1.29-1.78-1.94-3.24-1.94
			c-1.15,0-2.05,0.44-2.69,1.33S121.01,166.96,121.01,168.7z"/>
		<path class="st1" d="M137.9,158.04c0-0.38,0.12-0.7,0.35-0.96c0.23-0.26,0.58-0.39,1.03-0.39c0.46,0,0.8,0.13,1.04,0.39
			c0.24,0.26,0.35,0.58,0.35,0.96s-0.12,0.7-0.35,0.95s-0.58,0.38-1.04,0.38c-0.46,0-0.8-0.13-1.03-0.38
			C138.02,158.74,137.9,158.42,137.9,158.04z M140.44,175.41h-2.35v-13.73h2.35V175.41z"/>
		<path class="st1" d="M153.7,173.75c0.84,0,1.57-0.25,2.19-0.76c0.63-0.51,0.97-1.14,1.04-1.9h2.22c-0.04,0.79-0.31,1.54-0.81,2.25
			c-0.5,0.71-1.17,1.28-2,1.7s-1.71,0.63-2.65,0.63c-1.87,0-3.36-0.62-4.46-1.87c-1.1-1.25-1.66-2.95-1.66-5.12v-0.39
			c0-1.34,0.25-2.52,0.74-3.56s1.19-1.85,2.11-2.42c0.92-0.58,2-0.86,3.25-0.86c1.54,0,2.82,0.46,3.84,1.38
			c1.02,0.92,1.56,2.12,1.63,3.59h-2.22c-0.07-0.89-0.4-1.62-1.01-2.19c-0.6-0.57-1.35-0.86-2.24-0.86c-1.19,0-2.12,0.43-2.77,1.29
			c-0.66,0.86-0.98,2.1-0.98,3.72v0.44c0,1.58,0.33,2.8,0.98,3.65C151.56,173.32,152.49,173.75,153.7,173.75z"/>
		<path class="st1" d="M165.81,158.04c0-0.38,0.12-0.7,0.35-0.96c0.23-0.26,0.58-0.39,1.03-0.39c0.46,0,0.8,0.13,1.04,0.39
			c0.24,0.26,0.35,0.58,0.35,0.96s-0.12,0.7-0.35,0.95s-0.58,0.38-1.04,0.38c-0.46,0-0.8-0.13-1.03-0.38
			C165.92,158.74,165.81,158.42,165.81,158.04z M168.34,175.41H166v-13.73h2.35V175.41z"/>
		<path class="st1" d="M175.48,168.42c0-1.34,0.26-2.55,0.79-3.63c0.53-1.07,1.26-1.9,2.21-2.49c0.94-0.58,2.02-0.88,3.23-0.88
			c1.87,0,3.38,0.65,4.54,1.94c1.15,1.29,1.73,3.01,1.73,5.16v0.17c0,1.34-0.26,2.54-0.77,3.6s-1.24,1.89-2.19,2.48
			c-0.95,0.59-2.04,0.89-3.28,0.89c-1.86,0-3.37-0.65-4.52-1.94c-1.15-1.29-1.73-3.01-1.73-5.14V168.42z M177.84,168.7
			c0,1.52,0.35,2.74,1.06,3.67s1.65,1.38,2.84,1.38c1.19,0,2.14-0.47,2.84-1.4c0.7-0.93,1.05-2.24,1.05-3.93
			c0-1.5-0.36-2.73-1.07-3.66c-0.71-0.93-1.66-1.4-2.85-1.4c-1.16,0-2.09,0.46-2.8,1.38S177.84,166.98,177.84,168.7z M182.77,155.92
			h2.84l-3.4,3.73l-1.89-0.01L182.77,155.92z"/>
		<path class="st1" d="M197.14,161.68l0.08,1.73c1.05-1.32,2.42-1.98,4.11-1.98c2.9,0,4.36,1.64,4.39,4.91v9.07h-2.35v-9.08
			c-0.01-0.99-0.23-1.72-0.68-2.2s-1.14-0.71-2.07-0.71c-0.76,0-1.43,0.2-2,0.61c-0.58,0.41-1.02,0.94-1.34,1.6v9.78h-2.35v-13.73
			H197.14z"/>
		<path class="st1" d="M228.22,172.23l3.4-10.54h2.4l-4.92,13.73h-1.79l-4.97-13.73h2.4L228.22,172.23z"/>
		<path class="st1" d="M240.29,158.04c0-0.38,0.12-0.7,0.35-0.96c0.23-0.26,0.58-0.39,1.03-0.39c0.46,0,0.8,0.13,1.04,0.39
			c0.24,0.26,0.35,0.58,0.35,0.96s-0.12,0.7-0.35,0.95s-0.58,0.38-1.04,0.38c-0.46,0-0.8-0.13-1.03-0.38
			C240.4,158.74,240.29,158.42,240.29,158.04z M242.82,175.41h-2.35v-13.73h2.35V175.41z"/>
		<path class="st1" d="M257.22,163.79c-0.36-0.06-0.74-0.09-1.15-0.09c-1.54,0-2.58,0.66-3.13,1.97v9.74h-2.35v-13.73h2.28
			l0.04,1.59c0.77-1.23,1.86-1.84,3.27-1.84c0.46,0,0.8,0.06,1.04,0.18V163.79z"/>
		<path class="st1" d="M267.19,158.36v3.32h2.56v1.81h-2.56v8.52c0,0.55,0.11,0.96,0.34,1.24c0.23,0.27,0.62,0.41,1.17,0.41
			c0.27,0,0.64-0.05,1.12-0.15v1.89c-0.62,0.17-1.22,0.25-1.8,0.25c-1.05,0-1.84-0.32-2.37-0.95c-0.53-0.63-0.8-1.54-0.8-2.7v-8.51
			h-2.5v-1.81h2.5v-3.32H267.19z"/>
		<path class="st1" d="M284.97,174.05c-0.91,1.07-2.25,1.61-4.02,1.61c-1.46,0-2.58-0.42-3.34-1.28c-0.77-0.85-1.15-2.11-1.16-3.77
			v-8.93h2.35v8.87c0,2.08,0.85,3.12,2.54,3.12c1.79,0,2.99-0.67,3.58-2v-9.98h2.35v13.73h-2.23L284.97,174.05z"/>
		<path class="st1" d="M303.29,175.41c-0.14-0.27-0.25-0.75-0.33-1.45c-1.09,1.13-2.39,1.7-3.91,1.7c-1.35,0-2.46-0.38-3.33-1.15
			c-0.87-0.77-1.3-1.74-1.3-2.91c0-1.43,0.54-2.54,1.63-3.33c1.09-0.79,2.62-1.19,4.59-1.19h2.28v-1.08c0-0.82-0.25-1.47-0.74-1.96
			c-0.49-0.49-1.21-0.73-2.17-0.73c-0.84,0-1.54,0.21-2.11,0.63c-0.57,0.42-0.85,0.93-0.85,1.54h-2.36c0-0.68,0.24-1.35,0.73-1.99
			s1.15-1.14,1.98-1.52c0.83-0.37,1.75-0.56,2.75-0.56c1.58,0,2.82,0.4,3.72,1.19s1.36,1.88,1.4,3.27v6.32
			c0,1.26,0.16,2.26,0.48,3.01v0.2H303.29z M299.4,173.62c0.74,0,1.43-0.19,2.09-0.57c0.66-0.38,1.14-0.88,1.43-1.48v-2.82h-1.84
			c-2.88,0-4.31,0.84-4.31,2.52c0,0.74,0.25,1.31,0.74,1.73C298,173.41,298.63,173.62,299.4,173.62z"/>
		<path class="st1" d="M315.5,175.41h-2.35v-19.49h2.35V175.41z"/>
	</g>
	<g>
		<polygon class="st2" points="601,201.42 351.24,201.42 536,-0.58 601,-0.58 		"/>
	</g>
	<g>
		<g class="st3">
			<g>
				<g>
					<polygon class="st2" points="514.69,57.75 498.99,74.41 476.61,69.05 492.32,52.39 					"/>
				</g>
			</g>
			<g>
				<g>
					<polygon class="st2" points="495.84,77.75 480.14,94.41 457.76,89.05 473.47,72.39 					"/>
				</g>
			</g>
			<g>
				<g>
					<polygon class="st2" points="475.74,99.07 460.03,115.73 437.65,110.37 453.36,93.71 					"/>
				</g>
			</g>
			<g>
				<g>
					<polygon class="st2" points="456.9,119.06 441.19,135.72 418.81,130.35 434.52,113.69 					"/>
				</g>
			</g>
			<g>
				<g>
					<path class="st4" d="M490.98,47.98l32.22,7.72l-81.68,86.64l-32.22-7.72L490.98,47.98z M460.03,115.73l15.71-16.66l-22.38-5.36
						l-15.71,16.66L460.03,115.73L460.03,115.73z M480.14,94.41l15.71-16.66l-22.38-5.36l-15.71,16.66L480.14,94.41L480.14,94.41z
						 M498.99,74.41l15.71-16.66l-22.38-5.36l-15.71,16.66L498.99,74.41L498.99,74.41z M441.19,135.72l15.71-16.66l-22.38-5.36
						l-15.71,16.66L441.19,135.72L441.19,135.72z"/>
				</g>
			</g>
		</g>
	</g>
	<g>
		<g class="st3">
			<g>
				<g>
					<polygon class="st5" points="499.22,26.84 482.35,42.32 460.42,35.35 477.29,19.87 					"/>
				</g>
			</g>
			<g>
				<g>
					<polygon class="st5" points="478.97,45.42 462.09,60.9 440.17,53.92 457.04,38.45 					"/>
				</g>
			</g>
			<g>
				<g>
					<polygon class="st5" points="457.37,65.23 440.49,80.71 418.57,73.74 435.44,58.26 					"/>
				</g>
			</g>
			<g>
				<g>
					<polygon class="st5" points="437.13,83.79 420.25,99.27 398.33,92.3 415.2,76.82 					"/>
				</g>
			</g>
			<g>
				<g>
					<path class="st4" d="M476.28,15.38l31.57,10.04L420.1,105.9l-31.57-10.04L476.28,15.38z M440.49,80.71l16.87-15.48l-21.93-6.97
						l-16.88,15.48L440.49,80.71L440.49,80.71z M462.09,60.9l16.88-15.48l-21.93-6.97l-16.87,15.48L462.09,60.9L462.09,60.9z
						 M482.35,42.32l16.87-15.48l-21.93-6.97l-16.88,15.48L482.35,42.32L482.35,42.32z M420.25,99.27l16.88-15.48l-21.93-6.97
						L398.33,92.3L420.25,99.27L420.25,99.27z"/>
				</g>
			</g>
		</g>
	</g>
</g>
</svg>
