<?xml version="1.0" encoding="utf-8"?>
<!-- Generator: Adobe Illustrator 25.4.1, SVG Export Plug-In . SVG Version: 6.00 Build 0)  -->
<svg version="1.1" id="Capa_1" xmlns="http://www.w3.org/2000/svg" xmlns:xlink="http://www.w3.org/1999/xlink" x="0px" y="0px"
	 viewBox="0 0 751.32 521.05" style="enable-background:new 0 0 751.32 521.05;" xml:space="preserve">
<style type="text/css">
	.st0{fill:#27DEBF;}
	.st1{opacity:0.4;fill:#FFFFFF;}
	.st2{opacity:0.1;fill:#1A2E35;}
	.st3{fill:#37474F;}
	.st4{opacity:0.1;}
	.st5{enable-background:new    ;}
	.st6{clip-path:url(#SVGID_00000002350813594067757510000011831409591867223742_);enable-background:new    ;}
	.st7{fill:#B2C5CC;}
	.st8{fill:#ADC0C7;}
	.st9{fill:#A9BBC2;}
	.st10{fill:#A4B6BD;}
	.st11{fill:#A0B1B8;}
	.st12{fill:#9BACB3;}
	.st13{fill:#97A7AD;}
	.st14{fill:#93A2A8;}
	.st15{fill:#8E9DA3;}
	.st16{fill:#8A999E;}
	.st17{fill:#859499;}
	.st18{fill:#818F94;}
	.st19{fill:#7C8A8F;}
	.st20{fill:#78858A;}
	.st21{fill:#738085;}
	.st22{clip-path:url(#SVGID_00000114772243688472532820000006842726322768496309_);enable-background:new    ;}
	.st23{clip-path:url(#SVGID_00000130626244117099662620000017608872764904443065_);enable-background:new    ;}
	.st24{fill:#87ABBB;}
	.st25{fill:#84A7B7;}
	.st26{fill:#80A3B2;}
	.st27{fill:#7D9EAD;}
	.st28{fill:#7A9AA8;}
	.st29{fill:#7696A4;}
	.st30{fill:#73929F;}
	.st31{fill:#708D9A;}
	.st32{fill:#6C8996;}
	.st33{fill:#698591;}
	.st34{clip-path:url(#SVGID_00000035496906003440107500000016616348141947428281_);enable-background:new    ;}
	.st35{fill:#586F7A;}
	.st36{fill:#5B747E;}
	.st37{fill:#5F7883;}
	.st38{fill:#627C88;}
	.st39{fill:#65808C;}
	.st40{fill:#95C4DE;}
	.st41{fill:#BFD4DB;}
	.st42{fill:#778488;}
	.st43{fill:#ACEADB;}
	.st44{fill:#91B8C9;}
	.st45{fill:#5A727D;}
	.st46{fill:#77CBB9;}
	.st47{fill:#DEF6FF;}
	.st48{fill:#B6D119;}
	.st49{fill:#F3F4F4;}
	.st50{fill:#DC522A;}
	.st51{fill:#EDF9F5;}
	.st52{fill:#ABD9CE;}
	.st53{opacity:0.2;fill:#FFFFFF;}
	.st54{fill:#F8A555;}
	.st55{fill:#FFFDE3;}
	.st56{fill:#FFD876;}
	.st57{fill:#008FA5;}
	.st58{fill:#CCEAEA;}
	.st59{fill:#5DC5C4;}
	.st60{fill:#646768;}
	.st61{fill:#424546;}
	.st62{fill:url(#SVGID_00000008123409637201808640000017987423382521771406_);}
	.st63{fill:#FFC300;}
	.st64{fill:#FFAF00;}
	.st65{fill:url(#SVGID_00000106837249045175612890000017246427237061083315_);}
	.st66{fill:url(#SVGID_00000139275806614741456350000016938545239153185453_);}
	.st67{fill:url(#SVGID_00000043450617551715143230000015389311435493223820_);}
	.st68{fill:url(#SVGID_00000041277691824185733330000004261730807733974170_);}
	.st69{fill-rule:evenodd;clip-rule:evenodd;fill:#3F210A;}
	.st70{fill-rule:evenodd;clip-rule:evenodd;fill:#DB9669;}
	.st71{fill-rule:evenodd;clip-rule:evenodd;fill:#F2B387;}
	.st72{fill:none;stroke:#FFFFFF;stroke-width:4;stroke-miterlimit:10;}
	.st73{fill:none;stroke:#FFFFFF;stroke-width:4;stroke-miterlimit:10;stroke-dasharray:11.7347,11.7347;}
	.st74{fill:none;stroke:#FFFFFF;stroke-width:4;stroke-miterlimit:10;stroke-dasharray:11.6281,11.6281;}
	.st75{fill:none;stroke:#FFFFFF;stroke-width:4;stroke-miterlimit:10;stroke-dasharray:11.6284,11.6284;}
	.st76{fill:none;stroke:#77CBB9;stroke-width:4;stroke-miterlimit:10;stroke-dasharray:12;}
</style>
<g>
	<g>
		<g id="Tab_1_">
			<g id="XMLID_64_">
				<path id="XMLID_68_" class="st0" d="M31.53,389.54l-3.47-2.18c-1.09-0.69-1.94-2.29-1.9-3.58l3.81-104.92
					c0.05-1.29,1.01-2.83,2.15-3.43l92.77-49.16c1.14-0.6,2.95-0.54,4.05,0.15l3.47,2.18c1.09,0.69,1.94,2.29,1.9,3.58l-3.81,104.92
					c-0.05,1.29-1.01,2.83-2.15,3.43l-92.77,49.16C34.43,390.3,32.62,390.23,31.53,389.54z"/>
				<path id="XMLID_67_" class="st1" d="M134.26,231.6c-0.21-0.86-0.99-1.17-1.93-0.66L39.56,280.1c-0.57,0.3-1.1,0.84-1.49,1.46
					l-7.43-4.66c0.4-0.62,0.92-1.16,1.48-1.46l92.77-49.16c1.15-0.6,2.96-0.54,4.05,0.15l3.48,2.18
					C133.33,229.19,134.09,230.44,134.26,231.6z"/>
				<path id="XMLID_66_" class="st0" d="M35.23,389.84c-0.07,0.03-0.13,0.05-0.21,0.07c-0.03,0.01-0.05,0.02-0.07,0.02
					c-1.11,0.33-2.51,0.19-3.42-0.38l-3.48-2.18c-0.34-0.22-0.65-0.52-0.93-0.87c-0.6-0.78-0.99-1.81-0.96-2.7l3.81-104.92
					c0.02-0.64,0.27-1.36,0.66-1.98l7.43,4.66c-0.1,0.16-0.19,0.31-0.26,0.48c-0.24,0.5-0.38,1.02-0.4,1.5l-3.81,104.92
					c-0.01,0.22,0.01,0.42,0.06,0.6c0.02,0.09,0.05,0.18,0.08,0.26c0.03,0.08,0.07,0.14,0.12,0.21c0.07,0.09,0.15,0.17,0.24,0.23
					c0.01,0.01,0.02,0.01,0.03,0.02c0.09,0.06,0.19,0.1,0.3,0.13c0,0,0,0,0,0C34.66,389.96,34.93,389.94,35.23,389.84z"/>
				<path id="XMLID_65_" class="st2" d="M35.26,389.84c-1.14,0.45-2.74,0.34-3.73-0.29l-3.48-2.18c-0.34-0.21-0.66-0.52-0.93-0.88
					c-0.6-0.78-0.99-1.81-0.96-2.7l3.81-104.92c0.02-0.64,0.27-1.36,0.66-1.98l7.43,4.66l0.01,0c-0.1,0.16-0.19,0.32-0.27,0.48
					c-0.24,0.5-0.38,1.02-0.4,1.5l-3.81,104.92c-0.01,0.22,0.01,0.42,0.06,0.6c0.02,0.09,0.05,0.18,0.08,0.26
					c0.03,0.08,0.07,0.14,0.12,0.21c0.24,0.33,0.62,0.48,1.09,0.4c0.02,0,0.04-0.01,0.07-0.02
					C35.09,389.89,35.18,389.87,35.26,389.84z"/>
			</g>
			<g id="XMLID_43_">
				<g id="XMLID_60_">
					<path id="XMLID_61_" class="st3" d="M84.52,294.57c-7.7,4.08-14.2,14.44-14.51,23.14c-0.32,8.71,5.67,12.46,13.37,8.38
						c7.69-4.07,14.18-14.43,14.5-23.15C98.19,294.24,92.21,290.49,84.52,294.57z M83.52,321.99c-5.71,3.02-10.13,0.23-9.9-6.2
						c0.23-6.44,5.04-14.1,10.75-17.13L83.52,321.99z"/>
				</g>
				<g id="XMLID_58_">
					<path id="XMLID_59_" class="st3" d="M84.66,290.81c-0.89,0.47-1.58,0.04-1.54-0.97l0.24-6.59c0.04-1.01,0.79-2.2,1.67-2.67
						c0.89-0.47,1.58-0.04,1.54,0.97l-0.24,6.59C86.29,289.15,85.55,290.34,84.66,290.81z"/>
				</g>
				<g id="XMLID_56_">
					<path id="XMLID_57_" class="st3" d="M71.1,304.12c-0.41,0.22-0.82,0.26-1.12,0.07l-3.95-2.47c-0.6-0.38-0.56-1.53,0.09-2.57
						c0.65-1.04,1.67-1.58,2.27-1.2l3.95,2.47c0.6,0.38,0.56,1.53-0.09,2.57C71.93,303.51,71.51,303.9,71.1,304.12z"/>
				</g>
				<g id="XMLID_54_">
					<path id="XMLID_55_" class="st3" d="M65.03,322.12l-5.82,3.09c-0.89,0.47-1.58,0.04-1.54-0.97c0.04-1.01,0.79-2.2,1.67-2.67
						l5.82-3.09c0.89-0.47,1.58-0.04,1.54,0.97S65.92,321.65,65.03,322.12z"/>
				</g>
				<g id="XMLID_52_">
					<path id="XMLID_53_" class="st3" d="M65.72,341.11c-0.41,0.22-0.82,0.26-1.12,0.07c-0.6-0.38-0.56-1.53,0.09-2.57l4.29-6.84
						c0.65-1.04,1.67-1.58,2.27-1.2c0.6,0.38,0.56,1.53-0.09,2.57l-4.29,6.84C66.55,340.5,66.13,340.9,65.72,341.11z"/>
				</g>
				<g id="XMLID_50_">
					<path id="XMLID_51_" class="st3" d="M82.87,340.04c-0.89,0.47-1.58,0.04-1.54-0.97l0.24-6.59c0.04-1.01,0.79-2.2,1.67-2.67
						c0.89-0.47,1.58-0.04,1.54,0.97l-0.24,6.58C84.51,338.37,83.76,339.57,82.87,340.04z"/>
				</g>
				<g id="XMLID_48_">
					<path id="XMLID_49_" class="st3" d="M100.61,322.62c-0.41,0.22-0.82,0.26-1.12,0.07l-3.95-2.47c-0.6-0.38-0.56-1.53,0.09-2.57
						c0.65-1.04,1.67-1.58,2.27-1.2l3.95,2.47c0.6,0.38,0.56,1.53-0.09,2.57C101.44,322.01,101.02,322.4,100.61,322.62z"/>
				</g>
				<g id="XMLID_46_">
					<path id="XMLID_47_" class="st3" d="M108.56,299.06l-5.82,3.09c-0.89,0.47-1.58,0.04-1.54-0.97s0.79-2.2,1.67-2.67l5.82-3.09
						c0.89-0.47,1.58-0.04,1.54,0.97S109.45,298.59,108.56,299.06z"/>
				</g>
				<g id="XMLID_44_">
					<path id="XMLID_45_" class="st3" d="M97.76,289.99c-0.41,0.22-0.82,0.26-1.12,0.07c-0.6-0.38-0.56-1.53,0.09-2.57l4.29-6.84
						c0.65-1.04,1.67-1.58,2.27-1.2c0.6,0.38,0.56,1.53-0.09,2.57l-4.29,6.84C98.59,289.38,98.17,289.78,97.76,289.99z"/>
				</g>
			</g>
		</g>
		<g>
			<g>
				<g class="st4">
					<polygon points="487.67,403.19 316.44,496.19 127.13,386.89 300.34,297.52 					"/>
				</g>
				<g>
					<g class="st5">
						<defs>
							<path id="SVGID_1_" class="st5" d="M418.81,401.57c-0.01-3.47-1.23-5.9-3.2-7.04c3.9,2.26,7.81,4.53,11.71,6.8l0,0
								c1.97,1.14,3.19,3.58,3.2,7.05c0.02,6.95-4.86,15.41-10.91,18.91l-11.71-6.81C413.94,416.98,418.83,408.52,418.81,401.57z"/>
						</defs>
						<clipPath id="SVGID_00000031906631767301392280000009792005655934903206_">
							<use xlink:href="#SVGID_1_"  style="overflow:visible;"/>
						</clipPath>
						<g style="clip-path:url(#SVGID_00000031906631767301392280000009792005655934903206_);enable-background:new    ;">
							<path class="st7" d="M419.61,427.29l-11.71-6.81c1.28-0.74,2.51-1.7,3.65-2.83l11.72,6.8
								C422.12,425.58,420.89,426.55,419.61,427.29L419.61,427.29z"/>
							<path class="st8" d="M423.27,424.45l-11.72-6.8c0.41-0.41,0.81-0.83,1.2-1.27l11.71,6.8
								C424.07,423.63,423.67,424.06,423.27,424.45L423.27,424.45z"/>
							<path class="st9" d="M424.46,423.19l-11.71-6.8c0.3-0.36,0.6-0.72,0.89-1.09l11.71,6.8
								C425.07,422.48,424.77,422.83,424.46,423.19L424.46,423.19z"/>
							<path class="st10" d="M425.35,422.09l-11.71-6.8c0.25-0.32,0.49-0.65,0.72-0.98l11.72,6.8
								C425.84,421.45,425.6,421.77,425.35,422.09L425.35,422.09z"/>
							<path class="st11" d="M426.08,421.11l-11.72-6.8c0.22-0.31,0.43-0.63,0.63-0.95l11.71,6.81
								C426.51,420.49,426.3,420.8,426.08,421.11L426.08,421.11z"/>
							<path class="st12" d="M426.71,420.17L415,413.36c0.19-0.3,0.38-0.61,0.57-0.92l11.71,6.8
								C427.1,419.55,426.91,419.86,426.71,420.17L426.71,420.17z"/>
							<path class="st13" d="M427.28,419.24l-11.71-6.8c0.17-0.31,0.35-0.61,0.51-0.92l11.71,6.8
								C427.63,418.63,427.46,418.94,427.28,419.24L427.28,419.24z"/>
							<path class="st14" d="M427.79,418.31l-11.71-6.8c0.16-0.31,0.32-0.62,0.47-0.93l11.71,6.8
								C428.11,417.69,427.96,418,427.79,418.31L427.79,418.31z"/>
							<path class="st15" d="M428.27,417.38l-11.71-6.8c0.15-0.32,0.3-0.63,0.43-0.96l11.72,6.81
								C428.56,416.75,428.42,417.07,428.27,417.38L428.27,417.38z"/>
							<path class="st16" d="M428.7,416.43l-11.72-6.81c0.14-0.32,0.28-0.65,0.4-0.98l11.71,6.81
								C428.98,415.78,428.84,416.11,428.7,416.43L428.7,416.43z"/>
							<path class="st17" d="M429.1,415.46l-11.71-6.81c0.13-0.35,0.25-0.69,0.37-1.04l11.71,6.81
								C429.36,414.77,429.23,415.11,429.1,415.46L429.1,415.46z"/>
							<path class="st18" d="M429.47,414.42l-11.71-6.81c0.13-0.36,0.24-0.75,0.34-1.11l11.71,6.8
								C429.71,413.68,429.6,414.05,429.47,414.42L429.47,414.42z"/>
							<path class="st19" d="M429.81,413.3l-11.71-6.8c0.11-0.43,0.22-0.84,0.31-1.26l11.71,6.81
								C430.03,412.47,429.93,412.89,429.81,413.3L429.81,413.3z"/>
							<path class="st20" d="M430.12,412.05l-11.71-6.81c0.11-0.51,0.2-1.02,0.26-1.52l11.71,6.8
								C430.32,411.03,430.23,411.54,430.12,412.05L430.12,412.05z"/>
							<path class="st21" d="M430.38,410.53l-11.71-6.8c0.09-0.73,0.14-1.45,0.14-2.15c-0.01-3.47-1.23-5.9-3.2-7.04l11.71,6.8
								c1.97,1.14,3.19,3.58,3.2,7.05C430.53,409.09,430.48,409.8,430.38,410.53L430.38,410.53z"/>
						</g>
					</g>
					<g class="st5">
						<defs>
							<path id="SVGID_00000096028518654709085160000007049240914148380818_" class="st5" d="M400.07,421.25
								c1.99,1.16,4.76,0.99,7.82-0.77l11.71,6.81c-3.06,1.77-5.83,1.93-7.82,0.77C408.27,426.02,403.59,423.29,400.07,421.25z"/>
						</defs>
						<clipPath id="SVGID_00000076589019144450428900000010189055195058359198_">
							<use xlink:href="#SVGID_00000096028518654709085160000007049240914148380818_"  style="overflow:visible;"/>
						</clipPath>
						<g style="clip-path:url(#SVGID_00000076589019144450428900000010189055195058359198_);enable-background:new    ;">
							<path class="st16" d="M411.79,428.06l-11.71-6.8c0.02,0.01,0.04,0.02,0.06,0.03l11.71,6.81
								C411.83,428.09,411.81,428.07,411.79,428.06L411.79,428.06z"/>
							<path class="st15" d="M411.85,428.1l-11.71-6.81c0.17,0.1,0.36,0.2,0.55,0.27l11.71,6.81
								C412.21,428.29,412.03,428.2,411.85,428.1L411.85,428.1z"/>
							<path class="st14" d="M412.4,428.37l-11.71-6.81c0.19,0.08,0.38,0.15,0.58,0.21l11.72,6.8
								C412.78,428.51,412.59,428.45,412.4,428.37L412.4,428.37z"/>
							<path class="st13" d="M412.98,428.57l-11.72-6.8c0.2,0.05,0.4,0.1,0.62,0.13l11.72,6.81
								C413.38,428.68,413.18,428.62,412.98,428.57L412.98,428.57z"/>
							<path class="st12" d="M413.59,428.71l-11.72-6.81c0.22,0.04,0.44,0.07,0.66,0.08l11.72,6.81
								C414.03,428.77,413.81,428.75,413.59,428.71L413.59,428.71z"/>
							<path class="st11" d="M414.26,428.79l-11.72-6.81c0.24,0.02,0.48,0.02,0.73,0.01l11.71,6.8
								C414.73,428.81,414.49,428.8,414.26,428.79L414.26,428.79z"/>
							<path class="st10" d="M414.98,428.79l-11.71-6.8c0.27-0.02,0.54-0.04,0.82-0.08l11.71,6.8
								C415.52,428.76,415.25,428.78,414.98,428.79L414.98,428.79z"/>
							<path class="st9" d="M415.8,428.71l-11.71-6.8c0.31-0.05,0.64-0.12,0.96-0.21l11.71,6.81
								C416.44,428.6,416.12,428.67,415.8,428.71L415.8,428.71z"/>
							<path class="st8" d="M416.77,428.51l-11.71-6.81c0.42-0.11,0.86-0.26,1.29-0.44l11.71,6.8
								C417.62,428.24,417.19,428.39,416.77,428.51L416.77,428.51z"/>
							<path class="st7" d="M418.06,428.06l-11.71-6.8c0.51-0.21,1.02-0.46,1.55-0.77l11.71,6.81
								C419.08,427.59,418.57,427.84,418.06,428.06L418.06,428.06z"/>
						</g>
					</g>
					<g class="st5">
						<defs>
							<path id="SVGID_00000119813316943366706190000006396947675517781670_" class="st5" d="M415.61,394.53l11.71,6.8
								c-1.99-1.16-4.74-0.99-7.79,0.76l-11.71-6.8C410.86,393.53,413.62,393.37,415.61,394.53z"/>
						</defs>
						<clipPath id="SVGID_00000075133722982963330450000008687308267821560252_">
							<use xlink:href="#SVGID_00000119813316943366706190000006396947675517781670_"  style="overflow:visible;"/>
						</clipPath>
						<g style="clip-path:url(#SVGID_00000075133722982963330450000008687308267821560252_);enable-background:new    ;">
							<path class="st24" d="M419.54,402.1l-11.71-6.8c0.52-0.3,1.03-0.56,1.53-0.76l11.71,6.8
								C420.57,401.55,420.06,401.8,419.54,402.1L419.54,402.1z"/>
							<path class="st25" d="M421.07,401.33l-11.71-6.8c0.44-0.19,0.86-0.34,1.29-0.44l11.71,6.8
								C421.94,401.01,421.51,401.16,421.07,401.33L421.07,401.33z"/>
							<path class="st26" d="M422.36,400.89l-11.71-6.8c0.33-0.1,0.64-0.17,0.96-0.21l11.71,6.81
								C423.01,400.73,422.69,400.8,422.36,400.89L422.36,400.89z"/>
							<path class="st27" d="M423.32,400.69l-11.71-6.81c0.28-0.04,0.55-0.07,0.81-0.08l11.72,6.8
								C423.87,400.62,423.6,400.64,423.32,400.69L423.32,400.69z"/>
							<path class="st28" d="M424.14,400.6l-11.72-6.8c0.25-0.01,0.49-0.01,0.73,0.01l11.71,6.8
								C424.62,400.59,424.38,400.59,424.14,400.6L424.14,400.6z"/>
							<path class="st29" d="M424.86,400.61l-11.71-6.8c0.22,0.01,0.44,0.04,0.66,0.07l11.71,6.81
								C425.31,400.65,425.08,400.63,424.86,400.61L424.86,400.61z"/>
							<path class="st30" d="M425.52,400.69l-11.71-6.81c0.21,0.04,0.41,0.09,0.61,0.15l11.71,6.8
								C425.93,400.77,425.73,400.72,425.52,400.69L425.52,400.69z"/>
							<path class="st31" d="M426.14,400.83l-11.71-6.8c0.2,0.05,0.39,0.12,0.58,0.2l11.71,6.81
								C426.53,400.95,426.33,400.88,426.14,400.83L426.14,400.83z"/>
							<path class="st32" d="M426.71,401.03L415,394.22c0.19,0.08,0.37,0.17,0.55,0.28l11.71,6.8
								C427.09,401.2,426.9,401.11,426.71,401.03L426.71,401.03z"/>
							<path class="st33" d="M427.26,401.3l-11.71-6.8c0.02,0.01,0.04,0.02,0.06,0.04l11.71,6.8
								C427.3,401.33,427.28,401.32,427.26,401.3L427.26,401.3z"/>
						</g>
					</g>
					<g class="st5">
						<defs>
							<path id="SVGID_00000067225630471701495680000008931591846592073884_" class="st5" d="M411.79,428.06
								c-3.12-1.82-6.25-3.64-9.37-5.45c-0.17-0.1-0.41-0.24-0.58-0.35c-0.59-0.34-1.17-0.67-1.76-1.01
								c-1.96-1.14-3.18-3.58-3.19-7.03c-0.02-6.97,4.87-15.44,10.94-18.94l11.71,6.8c-6.07,3.5-10.96,11.97-10.94,18.95
								C408.61,424.49,409.83,426.92,411.79,428.06z"/>
						</defs>
						<clipPath id="SVGID_00000015322345724649998440000012778989531196149133_">
							<use xlink:href="#SVGID_00000067225630471701495680000008931591846592073884_"  style="overflow:visible;"/>
						</clipPath>
						<g style="clip-path:url(#SVGID_00000015322345724649998440000012778989531196149133_);enable-background:new    ;">
							<path class="st35" d="M411.79,428.06l-11.71-6.8c-1.96-1.14-3.18-3.58-3.19-7.03c0-0.71,0.04-1.43,0.14-2.16l11.71,6.81
								c-0.1,0.73-0.14,1.45-0.14,2.16C408.61,424.49,409.83,426.92,411.79,428.06L411.79,428.06z"/>
							<path class="st36" d="M408.74,418.89l-11.71-6.81c0.06-0.51,0.15-1.01,0.26-1.53l11.71,6.81
								C408.89,417.87,408.8,418.39,408.74,418.89L408.74,418.89z"/>
							<path class="st37" d="M409,417.37l-11.71-6.81c0.09-0.42,0.19-0.83,0.31-1.26l11.71,6.8
								C409.19,416.52,409.09,416.94,409,417.37L409,417.37z"/>
							<path class="st38" d="M409.31,416.1l-11.71-6.8c0.1-0.37,0.22-0.75,0.34-1.12l11.71,6.81
								C409.53,415.35,409.41,415.73,409.31,416.1L409.31,416.1z"/>
							<path class="st39" d="M409.65,414.99l-11.71-6.81c0.12-0.35,0.24-0.69,0.37-1.04l11.71,6.81
								C409.89,414.3,409.77,414.64,409.65,414.99L409.65,414.99z"/>
							<path class="st33" d="M410.02,413.95l-11.71-6.81c0.13-0.33,0.27-0.65,0.4-0.98l11.71,6.8
								C410.28,413.29,410.15,413.62,410.02,413.95L410.02,413.95z"/>
							<path class="st32" d="M410.42,412.97l-11.71-6.8c0.14-0.33,0.28-0.64,0.44-0.95l11.71,6.8
								C410.71,412.33,410.56,412.65,410.42,412.97L410.42,412.97z"/>
							<path class="st31" d="M410.86,412.02l-11.71-6.8c0.15-0.32,0.31-0.63,0.47-0.94l11.71,6.81
								C411.17,411.4,411.01,411.71,410.86,412.02L410.86,412.02z"/>
							<path class="st30" d="M411.33,411.08l-11.71-6.81c0.16-0.3,0.33-0.61,0.51-0.91l11.72,6.8
								C411.67,410.46,411.49,410.77,411.33,411.08L411.33,411.08z"/>
							<path class="st29" d="M411.85,410.16l-11.72-6.8c0.18-0.31,0.37-0.63,0.57-0.93l11.71,6.81
								C412.22,409.54,412.03,409.85,411.85,410.16L411.85,410.16z"/>
							<path class="st28" d="M412.41,409.24l-11.71-6.81c0.2-0.31,0.41-0.63,0.63-0.94l11.71,6.8
								C412.83,408.61,412.61,408.92,412.41,409.24L412.41,409.24z"/>
							<path class="st27" d="M413.04,408.29l-11.71-6.8c0.24-0.34,0.48-0.67,0.73-0.98l11.71,6.8
								C413.52,407.62,413.28,407.95,413.04,408.29L413.04,408.29z"/>
							<path class="st26" d="M413.77,407.31l-11.71-6.8c0.28-0.37,0.58-0.74,0.89-1.08l11.71,6.8
								C414.36,406.57,414.06,406.93,413.77,407.31L413.77,407.31z"/>
							<path class="st25" d="M414.66,406.22l-11.71-6.8c0.38-0.45,0.78-0.87,1.2-1.28l11.71,6.8
								C415.45,405.35,415.05,405.77,414.66,406.22L414.66,406.22z"/>
							<path class="st24" d="M415.86,404.95l-11.71-6.8c1.15-1.14,2.38-2.11,3.68-2.85l11.71,6.8
								C418.24,402.84,417.01,403.81,415.86,404.95L415.86,404.95z"/>
						</g>
					</g>
					<g>
						<path class="st40" d="M419.54,402.1c6.05-3.5,10.97-0.69,10.98,6.29c0.02,6.95-4.86,15.41-10.91,18.91
							c-6.07,3.5-10.99,0.7-11.01-6.25C408.58,414.07,413.47,405.6,419.54,402.1z"/>
					</g>
					<g>
						<polygon class="st41" points="329.52,439.7 317.81,432.89 498.22,328.73 509.93,335.54 						"/>
					</g>
					<g>
						<polygon class="st42" points="509.93,335.54 498.22,328.73 497.45,58.73 509.17,65.53 						"/>
					</g>
					<g>
						<polygon class="st43" points="509.17,65.53 509.93,335.54 329.52,439.7 328.76,169.69 						"/>
					</g>
					<g>
						<polygon class="st44" points="328.76,169.69 317.04,162.89 497.45,58.73 509.17,65.53 						"/>
					</g>
					<g>
						<polygon class="st45" points="329.52,439.7 317.81,432.89 317.04,162.89 328.76,169.69 						"/>
					</g>
					<path class="st46" d="M315.49,492.38l-0.91-323.37l-11.72-6.8l0.92,323.37c0.01,2.98,1.06,5.07,2.75,6.06l11.71,6.81
						C316.55,497.47,315.5,495.36,315.49,492.38z"/>
					<g>
						<path class="st47" d="M515.01,42.42c5.2-3,9.44-0.59,9.45,5.41l0.92,323.37c0.02,6-4.19,13.29-9.39,16.29L324.97,497.79
							c-5.23,3.02-9.46,0.6-9.48-5.4l-0.91-323.37c-0.02-6,4.19-13.29,9.41-16.3L515.01,42.42z M509.93,335.54l-0.76-270.01
							L328.76,169.69l0.76,270.01L509.93,335.54L509.93,335.54z M419.61,427.29c6.05-3.5,10.93-11.96,10.91-18.91
							c-0.02-6.98-4.93-9.79-10.98-6.29c-6.07,3.5-10.96,11.97-10.94,18.95C408.62,427.99,413.54,430.8,419.61,427.29L419.61,427.29
							z"/>
					</g>
					<path class="st46" d="M510,34.96c-0.02-0.01-0.04-0.02-0.05-0.03c-0.15-0.09-0.31-0.17-0.48-0.23
						c-0.16-0.08-0.33-0.13-0.49-0.18c-0.1-0.04-0.22-0.05-0.33-0.08c-0.03-0.01-0.06-0.02-0.09-0.02
						c-0.04-0.01-0.08-0.03-0.11-0.03c-0.18-0.04-0.37-0.06-0.57-0.07c-0.2-0.01-0.41-0.02-0.62-0.01
						c-0.07,0.01-0.14,0.02-0.21,0.03c-0.04,0.01-0.1,0.01-0.14,0.02c-0.12,0.01-0.23,0.01-0.35,0.03
						c-0.27,0.04-0.55,0.11-0.83,0.18c-0.12,0.04-0.24,0.09-0.36,0.13c-0.1,0.03-0.21,0.07-0.32,0.11
						c-0.14,0.05-0.28,0.09-0.43,0.15c-0.43,0.18-0.86,0.39-1.31,0.65L312.28,145.9c-0.61,0.36-1.2,0.77-1.78,1.23
						c-0.19,0.15-0.37,0.33-0.56,0.5c-0.27,0.23-0.56,0.46-0.82,0.72c-0.12,0.12-0.23,0.25-0.35,0.36
						c-0.11,0.12-0.22,0.23-0.33,0.35c-0.12,0.13-0.24,0.25-0.36,0.38c-0.26,0.3-0.52,0.61-0.77,0.93
						c-0.08,0.11-0.16,0.21-0.24,0.33c-0.05,0.06-0.1,0.13-0.16,0.2c-0.08,0.11-0.16,0.21-0.23,0.32c-0.19,0.27-0.37,0.54-0.55,0.82
						c-0.17,0.27-0.33,0.52-0.49,0.8c-0.02,0.02-0.03,0.05-0.04,0.07c-0.01,0.02-0.02,0.04-0.03,0.04
						c-0.12,0.22-0.25,0.45-0.37,0.67c-0.14,0.27-0.28,0.53-0.41,0.81c-0.12,0.24-0.23,0.49-0.34,0.75c0,0.01-0.01,0.02-0.01,0.03
						c0,0.02-0.02,0.03-0.02,0.04c-0.12,0.28-0.24,0.56-0.35,0.85c-0.11,0.28-0.22,0.59-0.32,0.88c-0.05,0.16-0.09,0.3-0.14,0.45
						c-0.02,0.07-0.04,0.13-0.06,0.2c-0.03,0.11-0.06,0.21-0.09,0.31c-0.1,0.36-0.19,0.73-0.27,1.08c-0.04,0.21-0.07,0.43-0.1,0.64
						c-0.02,0.12-0.05,0.26-0.07,0.38c-0.01,0.1-0.04,0.2-0.05,0.3c-0.08,0.62-0.13,1.23-0.13,1.85l11.72,6.8
						c0-0.7,0.06-1.44,0.17-2.16c0.02-0.11,0.04-0.22,0.06-0.34c0.12-0.69,0.27-1.38,0.48-2.08c0.02-0.05,0.03-0.11,0.05-0.16
						c0.23-0.75,0.5-1.51,0.82-2.24c0-0.01,0.01-0.03,0.02-0.04c0.33-0.75,0.7-1.49,1.12-2.2c0.01-0.03,0.02-0.05,0.03-0.07
						c0.4-0.7,0.85-1.38,1.32-2.03c0.04-0.04,0.08-0.1,0.12-0.15c0.44-0.59,0.91-1.15,1.4-1.69c0.1-0.1,0.19-0.2,0.29-0.31
						c0.39-0.41,0.81-0.78,1.23-1.14c0.17-0.15,0.33-0.31,0.51-0.45c0.58-0.46,1.17-0.89,1.78-1.23L515.01,42.42
						c0.6-0.35,1.17-0.59,1.74-0.8c0.1-0.04,0.22-0.08,0.32-0.11c0.53-0.17,1.05-0.29,1.55-0.34c0.05-0.01,0.09-0.01,0.14-0.01
						c0.53-0.05,1.04-0.02,1.51,0.07c0.03,0,0.05,0.01,0.07,0.02c0.49,0.1,0.95,0.27,1.36,0.51L510,34.96z"/>
				</g>
			</g>
		</g>
		<g>
			<g class="st5">
				<g>
					<polygon class="st48" points="570.13,151.64 596.01,166.68 622.06,151.64 596.18,136.6 					"/>
				</g>
				<g>
					<polygon class="st48" points="601.19,169.69 627.08,184.74 653.13,169.69 627.25,154.65 					"/>
				</g>
				<g>
					<polygon class="st48" points="634.33,188.95 660.21,203.99 686.27,188.95 660.38,173.91 					"/>
				</g>
				<g>
					<polygon class="st48" points="665.37,206.99 691.26,222.03 717.31,206.99 691.43,191.94 					"/>
				</g>
				<g>
					<path class="st49" d="M730.82,208.79l-37.52,21.66L558.7,152.23l37.52-21.66L730.82,208.79z M660.21,203.99l26.06-15.04
						l-25.89-15.04l-26.06,15.04L660.21,203.99L660.21,203.99z M627.08,184.74l26.06-15.04l-25.89-15.04l-26.06,15.04L627.08,184.74
						L627.08,184.74z M596.01,166.68l26.05-15.04l-25.88-15.04l-26.06,15.04L596.01,166.68L596.01,166.68z M691.26,222.03
						l26.05-15.04l-25.88-15.04l-26.06,15.04L691.26,222.03L691.26,222.03z"/>
				</g>
			</g>
		</g>
		<g>
			<g class="st5">
				<g>
					<polygon class="st50" points="568.68,107.14 595.58,120.27 620.48,103.37 593.57,90.25 					"/>
				</g>
				<g>
					<polygon class="st50" points="600.97,122.89 627.88,136.02 652.77,119.12 625.87,106 					"/>
				</g>
				<g>
					<polygon class="st50" points="635.42,139.69 662.33,152.82 687.22,135.92 660.31,122.8 					"/>
				</g>
				<g>
					<polygon class="st50" points="667.69,155.44 694.6,168.56 719.49,151.66 692.59,138.54 					"/>
				</g>
				<g>
					<path class="st49" d="M733.1,152.49l-35.85,24.32l-139.93-68.25l35.85-24.32L733.1,152.49z M662.33,152.82l24.89-16.9
						l-26.91-13.12l-24.89,16.89L662.33,152.82L662.33,152.82z M627.88,136.02l24.89-16.9L625.87,106l-24.89,16.9L627.88,136.02
						L627.88,136.02z M595.58,120.27l24.9-16.89l-26.91-13.13l-24.89,16.89L595.58,120.27L595.58,120.27z M694.6,168.56l24.89-16.9
						l-26.91-13.12l-24.9,16.9L694.6,168.56L694.6,168.56z"/>
				</g>
			</g>
		</g>
		<g>
			<path class="st43" d="M662.14,260.34c0.02-0.02,0.05-0.03,0.06-0.05l0.06-0.04l0,0c2.27-1.58,5.15-2.32,8.12-1.84
				c6.03,0.98,10.13,6.6,9.16,12.55c-0.58,3.56-2.84,6.43-5.86,7.95l-51.84,35.27c0.23-0.15,0.43-0.34,0.62-0.54
				c0.04-0.05,0.09-0.1,0.13-0.15c0.18-0.21,0.35-0.45,0.49-0.7c0.1-0.19,0.2-0.38,0.27-0.58c0.01-0.02,0.02-0.04,0.02-0.05
				c0.07-0.18,0.12-0.38,0.18-0.58c0.01-0.04,0.02-0.08,0.03-0.11c0.05-0.21,0.09-0.43,0.12-0.65c0-0.04,0.01-0.07,0.01-0.11
				c0.03-0.23,0.05-0.47,0.06-0.72c0-0.03,0-0.05,0.01-0.08c0-0.27,0-0.54-0.03-0.82l0,0c0,0,0-0.01,0-0.02
				c-0.02-0.29-0.05-0.58-0.1-0.88c0-0.03,0-0.06-0.01-0.1c-0.05-0.29-0.1-0.58-0.17-0.88c-0.01-0.01,0-0.02-0.02-0.04
				c-0.06-0.29-0.14-0.59-0.24-0.89c-0.01-0.03-0.01-0.05-0.03-0.08c-0.09-0.29-0.19-0.59-0.29-0.88c-0.01-0.02-0.01-0.03-0.02-0.05
				c-0.11-0.3-0.24-0.6-0.37-0.9c-0.02-0.03-0.02-0.05-0.03-0.08c-0.13-0.29-0.28-0.58-0.42-0.87c-0.01-0.01-0.01-0.02-0.01-0.02
				c-0.16-0.29-0.32-0.58-0.49-0.87c-0.02-0.03-0.04-0.06-0.06-0.09c-0.13-0.23-0.28-0.46-0.44-0.68c-0.03-0.06-0.08-0.13-0.12-0.18
				c-0.1-0.14-0.2-0.27-0.29-0.41c-0.12-0.16-0.23-0.32-0.36-0.48c-0.19-0.25-0.38-0.49-0.58-0.72c0-0.01,0-0.01-0.01-0.02l0-0.01
				c-0.22-0.25-0.44-0.5-0.67-0.74c0-0.01-0.01-0.02-0.02-0.03c0,0,0,0,0-0.01c-0.23-0.24-0.46-0.46-0.7-0.68
				c-0.02-0.02-0.04-0.04-0.06-0.06c-0.22-0.2-0.46-0.4-0.69-0.59c-0.03-0.02-0.05-0.05-0.09-0.07c-0.23-0.18-0.46-0.36-0.7-0.53
				c-0.02-0.02-0.05-0.04-0.07-0.05c-0.25-0.17-0.5-0.34-0.76-0.49c-0.01-0.01-0.02-0.01-0.04-0.03c-0.27-0.16-0.54-0.3-0.81-0.44
				c-0.27-0.13-0.54-0.24-0.8-0.34c-0.02-0.01-0.03-0.01-0.05-0.02c-0.26-0.1-0.51-0.18-0.76-0.25c-0.01,0-0.03,0-0.04-0.01
				c-0.24-0.06-0.47-0.11-0.7-0.14c-0.02,0-0.04-0.01-0.06-0.01c-0.23-0.03-0.45-0.05-0.66-0.06c-0.02,0-0.05,0-0.07,0
				c-0.2,0-0.4,0.01-0.58,0.03c-0.05,0-0.08,0.01-0.12,0.01c-0.2,0.03-0.39,0.06-0.58,0.11c-0.04,0.01-0.07,0.03-0.11,0.04
				c-0.15,0.05-0.3,0.1-0.44,0.17c-0.2,0.09-0.39,0.19-0.57,0.31L662.14,260.34z"/>
			<path class="st0" d="M673.69,278.91l-36.55,24.87l-4.88-7.52l46.86-30.47c0.55,1.61,0.72,3.38,0.43,5.17
				C678.97,274.52,676.71,277.39,673.69,278.91z"/>
			<path class="st51" d="M649.17,291.42c-0.01-0.12-0.03-0.24-0.04-0.37c0-0.06-0.02-0.12-0.02-0.18c0-0.01-0.01-0.03-0.01-0.06
				c0-0.04-0.01-0.09-0.02-0.14c-0.02-0.12-0.04-0.25-0.07-0.37c-0.02-0.13-0.06-0.25-0.08-0.38c-0.03-0.13-0.06-0.26-0.1-0.38
				c-0.03-0.14-0.07-0.27-0.11-0.4c-0.01-0.05-0.03-0.09-0.04-0.14c0-0.03-0.02-0.05-0.02-0.08c-0.02-0.05-0.03-0.11-0.06-0.17
				c-0.04-0.13-0.09-0.27-0.13-0.4c-0.03-0.09-0.07-0.19-0.1-0.28c-0.01-0.03-0.02-0.05-0.03-0.08c0-0.01-0.01-0.03-0.02-0.04
				c-0.05-0.13-0.1-0.26-0.15-0.39c-0.05-0.13-0.11-0.26-0.16-0.38c-0.02-0.02-0.03-0.05-0.04-0.07c-0.01-0.02-0.01-0.04-0.02-0.06
				c-0.04-0.08-0.08-0.16-0.11-0.24c-0.06-0.12-0.11-0.24-0.18-0.36c-0.04-0.09-0.08-0.17-0.13-0.26c-0.01-0.02-0.02-0.04-0.03-0.06
				c-0.01-0.01-0.02-0.03-0.02-0.04c-0.06-0.12-0.12-0.24-0.19-0.36c-0.08-0.13-0.15-0.26-0.23-0.39c-0.02-0.03-0.03-0.05-0.04-0.07
				c-0.02-0.02-0.03-0.05-0.04-0.06c-0.06-0.11-0.13-0.21-0.2-0.31c-0.08-0.13-0.16-0.25-0.25-0.37c-0.04-0.07-0.09-0.14-0.14-0.21
				c-0.02-0.02-0.03-0.04-0.04-0.07c-0.08-0.1-0.15-0.19-0.23-0.3c-0.11-0.17-0.24-0.34-0.36-0.5c-0.02-0.03-0.03-0.06-0.06-0.08
				c-0.17-0.22-0.35-0.44-0.54-0.66c-0.12-0.14-0.25-0.29-0.38-0.42c-0.1-0.12-0.21-0.23-0.32-0.34c0,0,0,0,0,0c0,0,0,0,0-0.01
				c-0.11-0.11-0.22-0.22-0.33-0.33c-0.11-0.11-0.22-0.21-0.33-0.31c-0.01-0.02-0.04-0.03-0.05-0.05c-0.02-0.02-0.04-0.03-0.05-0.05
				c-0.08-0.07-0.15-0.14-0.23-0.21c-0.12-0.1-0.23-0.2-0.35-0.3c-0.04-0.03-0.08-0.06-0.12-0.09c-0.02-0.02-0.05-0.04-0.08-0.06
				c-0.05-0.05-0.11-0.09-0.17-0.14c-0.13-0.1-0.25-0.19-0.37-0.28c-0.05-0.04-0.11-0.08-0.17-0.12c-0.02-0.01-0.05-0.03-0.07-0.04
				c-0.05-0.03-0.09-0.06-0.13-0.09c-0.12-0.08-0.24-0.16-0.36-0.24c-0.09-0.06-0.18-0.11-0.27-0.17c-0.01-0.01-0.02-0.01-0.04-0.02
				c-0.02-0.01-0.03-0.02-0.05-0.03c-0.12-0.07-0.23-0.13-0.34-0.19c-0.12-0.06-0.23-0.12-0.35-0.18c-0.03-0.01-0.06-0.03-0.08-0.04
				c-0.09-0.04-0.17-0.08-0.26-0.12c-0.11-0.05-0.22-0.1-0.33-0.14c-0.07-0.03-0.15-0.06-0.22-0.08c-0.01,0-0.02-0.01-0.03-0.01
				c-0.02-0.01-0.05-0.02-0.07-0.03c-0.11-0.04-0.21-0.07-0.32-0.11c-0.11-0.04-0.22-0.07-0.32-0.1c-0.02-0.01-0.04-0.01-0.06-0.02
				c-0.01,0-0.03,0-0.03-0.01c-0.07-0.02-0.15-0.04-0.22-0.05c-0.11-0.03-0.22-0.05-0.33-0.07c-0.05-0.01-0.1-0.02-0.17-0.03
				c-0.01,0-0.03-0.01-0.05,0c-0.03,0-0.07-0.01-0.1-0.02c-0.12-0.01-0.23-0.02-0.34-0.03c-0.07-0.01-0.14,0-0.21-0.01
				c-0.02,0-0.04,0-0.07,0c-0.03,0-0.05,0-0.07,0c-0.12-0.01-0.25,0-0.37,0.01c-0.05,0.01-0.1,0.01-0.15,0.02
				c-0.04,0-0.08,0.01-0.13,0.01c-0.03,0-0.08,0.01-0.12,0.01c-0.15,0.03-0.3,0.05-0.44,0.1c0,0-0.01,0-0.01,0
				c-0.03,0.01-0.04,0.02-0.07,0.03c-0.15,0.05-0.3,0.09-0.45,0.16c-0.02,0-0.02,0.01-0.03,0.02c-0.21,0.09-0.4,0.19-0.57,0.31
				l-54.6,37.15c0.18-0.12,0.37-0.23,0.57-0.32c0.14-0.07,0.29-0.11,0.45-0.16c0.03-0.01,0.07-0.03,0.11-0.04
				c0.18-0.05,0.37-0.09,0.57-0.11c0.04-0.01,0.08-0.01,0.12-0.02c0.19-0.02,0.39-0.03,0.59-0.03c0.02,0,0.04,0,0.07,0
				c0.21,0,0.43,0.02,0.65,0.05c0.03,0,0.04,0.01,0.06,0.01c0.23,0.03,0.46,0.08,0.7,0.14c0.02,0,0.04,0.01,0.05,0.01
				c0.25,0.07,0.5,0.15,0.76,0.24c0.02,0.01,0.03,0.02,0.04,0.02c0.27,0.1,0.53,0.21,0.8,0.34c0.27,0.13,0.54,0.28,0.81,0.44
				c0.01,0.01,0.02,0.02,0.04,0.02c0.25,0.15,0.5,0.31,0.75,0.49c0.02,0.01,0.06,0.03,0.07,0.05c0.24,0.17,0.48,0.34,0.71,0.53
				c0.03,0.02,0.06,0.05,0.08,0.07c0.24,0.19,0.46,0.39,0.69,0.59c0.02,0.02,0.04,0.04,0.06,0.06c0.24,0.22,0.47,0.44,0.7,0.68l0,0
				c0.01,0.01,0.02,0.02,0.03,0.03c0.23,0.24,0.45,0.49,0.67,0.75c0,0,0.01,0,0.01,0c0.01,0.01,0.01,0.01,0.01,0.01
				c0.2,0.23,0.39,0.48,0.57,0.72c0.12,0.16,0.24,0.32,0.36,0.48c0.1,0.13,0.2,0.27,0.29,0.41c0.04,0.06,0.09,0.12,0.12,0.18
				c0.15,0.23,0.3,0.46,0.44,0.68c0.01,0.03,0.04,0.06,0.06,0.09c0.17,0.29,0.34,0.58,0.49,0.88c0,0.01,0.01,0.01,0.02,0.02
				c0.14,0.28,0.29,0.57,0.42,0.87c0.01,0.02,0.02,0.05,0.03,0.07c0.14,0.3,0.26,0.59,0.37,0.9c0,0.01,0.01,0.04,0.02,0.05
				c0.11,0.29,0.22,0.58,0.3,0.87c0.01,0.02,0.02,0.05,0.03,0.08c0.09,0.3,0.17,0.59,0.23,0.88c0.01,0.02,0.01,0.03,0.01,0.04
				c0.06,0.29,0.12,0.59,0.18,0.88c0,0.03,0,0.07,0.01,0.1c0.05,0.3,0.08,0.59,0.1,0.88c0,0.01,0,0.02,0,0.02c0,0,0,0,0.01,0.01
				c0.02,0.29,0.03,0.56,0.02,0.82c0,0.03,0,0.05,0,0.08c-0.01,0.25-0.03,0.49-0.06,0.72c0,0.03-0.01,0.07-0.01,0.11
				c-0.03,0.23-0.07,0.44-0.12,0.65c-0.01,0.03-0.02,0.07-0.03,0.11c-0.05,0.2-0.12,0.39-0.18,0.57c0,0.02-0.01,0.04-0.02,0.05
				c-0.07,0.21-0.17,0.4-0.27,0.58c-0.14,0.26-0.31,0.48-0.49,0.7c-0.05,0.05-0.08,0.1-0.13,0.15c-0.19,0.21-0.29,0.11-0.52,0.26
				l54.5-36.87c0.23-0.15,0.42-0.35,0.62-0.55c0.04-0.05,0.09-0.1,0.13-0.15c0.18-0.21,0.34-0.44,0.49-0.7c0,0,0,0,0.01-0.01
				c0.09-0.17,0.18-0.35,0.25-0.55c0-0.01,0-0.02,0.01-0.02c0-0.02,0.01-0.03,0.02-0.05c0.04-0.12,0.09-0.25,0.13-0.38
				c0.02-0.07,0.03-0.13,0.05-0.2c0.01-0.04,0.02-0.07,0.02-0.11c0.02-0.03,0.02-0.07,0.03-0.11c0.03-0.13,0.05-0.27,0.07-0.4
				c0.01-0.05,0.02-0.1,0.02-0.15c0-0.03,0.01-0.06,0.01-0.09c0.01-0.05,0.01-0.09,0.02-0.14c0.01-0.12,0.01-0.25,0.02-0.37
				c0.01-0.07,0-0.14,0-0.21c0-0.03,0.01-0.05,0.01-0.08c0-0.03,0-0.06,0-0.08c0-0.12,0-0.24-0.01-0.36c0-0.13-0.01-0.25-0.02-0.38
				c0-0.01,0-0.01,0-0.02C649.19,291.65,649.18,291.53,649.17,291.42z"/>
			<path class="st51" d="M575.73,323.2c-0.28,1.75-0.11,3.47,0.4,5.05c-0.75,0.52-1.31,1.33-1.47,2.29c-0.31,1.9,1.01,3.7,2.93,4.01
				c1,0.16,1.97-0.11,2.72-0.68c1.32,0.93,2.88,1.59,4.59,1.87c2.23,0.36,4.41,0.02,6.33-0.83l36.16-24.51
				c-0.23-11.14-9.81-16.96-12.52-17.9l-33.94,23.09C578.24,317.2,576.26,319.91,575.73,323.2z"/>
			<g>
				<g>
					<path class="st52" d="M644.26,271.32c6.78,3.28,12.71,12,13.21,19.45c0.52,7.46-4.58,10.85-11.37,7.56
						c-6.81-3.29-12.73-12-13.23-19.46C632.36,271.42,637.45,268.04,644.26,271.32z"/>
				</g>
				<g>
					<path class="st51" d="M642.79,272.78c6.44,3.13,12.06,11.43,12.54,18.54c0.49,7.11-4.34,10.34-10.78,7.21
						c-6.46-3.14-12.09-11.45-12.56-18.56C631.5,272.87,636.33,269.65,642.79,272.78z"/>
				</g>
			</g>
			<path class="st52" d="M641.78,276.34c-4.53-2.21-8.08-0.51-8.67,3.77l1.89-1.29c0.17-0.12,0.36-0.22,0.57-0.31
				c0.01-0.01,0.02-0.02,0.03-0.02c0.14-0.07,0.29-0.11,0.45-0.16c0.03-0.01,0.04-0.02,0.07-0.03c0,0,0.01,0,0.01,0
				c0.14-0.04,0.29-0.07,0.44-0.1c0.04,0,0.09-0.01,0.12-0.01c0.04-0.01,0.08-0.01,0.13-0.01c0.05-0.01,0.1-0.01,0.15-0.02
				c0.13-0.01,0.25-0.02,0.37-0.01c0.02,0,0.04,0,0.07,0c0.02,0,0.04,0,0.07,0c0.07,0,0.14,0,0.21,0.01
				c0.11,0.01,0.23,0.02,0.34,0.03c0.03,0,0.07,0.01,0.1,0.02c0.02,0,0.04,0,0.05,0c0.06,0.01,0.11,0.02,0.17,0.03
				c0.11,0.02,0.21,0.04,0.33,0.07c0.07,0.02,0.15,0.03,0.22,0.05c0.01,0,0.03,0,0.03,0.01c0.02,0.01,0.05,0.01,0.06,0.02
				c0.1,0.03,0.21,0.06,0.32,0.1c0.1,0.04,0.21,0.07,0.32,0.11c0.02,0.01,0.05,0.02,0.07,0.03c0.01,0.01,0.01,0.01,0.03,0.01
				c0.07,0.03,0.15,0.05,0.22,0.08c0.11,0.05,0.22,0.09,0.33,0.14c0.09,0.04,0.17,0.08,0.26,0.12c0.02,0.01,0.05,0.03,0.08,0.04
				c0.11,0.06,0.23,0.12,0.35,0.18c0.11,0.06,0.22,0.13,0.34,0.19c0.02,0.01,0.03,0.02,0.05,0.03c0.01,0.01,0.02,0.01,0.04,0.02
				c0.09,0.06,0.18,0.11,0.27,0.17c0.12,0.08,0.24,0.16,0.36,0.24c0.04,0.03,0.08,0.06,0.13,0.09c0.02,0.01,0.04,0.03,0.07,0.04
				c0.06,0.04,0.11,0.08,0.17,0.12c0.12,0.09,0.24,0.18,0.37,0.28c0.06,0.05,0.11,0.09,0.17,0.14c0.03,0.02,0.06,0.04,0.08,0.06
				c0.04,0.03,0.08,0.06,0.12,0.09c0.12,0.1,0.23,0.2,0.35,0.3c0.08,0.07,0.15,0.14,0.23,0.21c0.02,0.02,0.03,0.03,0.05,0.05
				c0.02,0.02,0.04,0.03,0.05,0.05c0.11,0.1,0.22,0.2,0.33,0.31c0.11,0.11,0.22,0.21,0.33,0.33c0,0,0,0,0,0.01c0,0,0,0,0,0
				c0.11,0.11,0.22,0.22,0.32,0.34c0.13,0.14,0.26,0.28,0.38,0.42c0.18,0.22,0.36,0.44,0.54,0.66c0.02,0.02,0.04,0.05,0.06,0.08
				c0.13,0.16,0.25,0.33,0.36,0.5c0.08,0.1,0.15,0.2,0.23,0.3c0.01,0.03,0.02,0.05,0.04,0.07c0.05,0.07,0.09,0.14,0.14,0.21
				c0.09,0.12,0.17,0.24,0.25,0.37c0.07,0.1,0.13,0.21,0.2,0.31c0.02,0.02,0.03,0.04,0.04,0.06c0.01,0.02,0.02,0.04,0.04,0.07
				c0.08,0.13,0.15,0.26,0.23,0.39c0.07,0.12,0.14,0.24,0.19,0.36c0.01,0.02,0.02,0.03,0.02,0.04c0.01,0.02,0.02,0.05,0.03,0.06
				c0.05,0.09,0.09,0.17,0.13,0.26c0.06,0.12,0.12,0.25,0.18,0.36c0.04,0.08,0.08,0.16,0.11,0.24c0.01,0.02,0.01,0.04,0.02,0.06
				c0.01,0.02,0.02,0.05,0.04,0.07c0.06,0.13,0.11,0.26,0.16,0.38c0.05,0.13,0.1,0.26,0.15,0.39c0.01,0.01,0.02,0.03,0.02,0.04
				c0.01,0.03,0.02,0.05,0.03,0.08c0.04,0.1,0.07,0.19,0.1,0.28c0.05,0.14,0.09,0.27,0.13,0.4c0.03,0.06,0.04,0.12,0.06,0.17
				c0,0.03,0.02,0.05,0.02,0.08c0.01,0.04,0.03,0.09,0.04,0.14c0.04,0.13,0.08,0.26,0.11,0.4c0.04,0.13,0.07,0.26,0.1,0.38
				c0.03,0.13,0.06,0.25,0.08,0.38c0.03,0.13,0.05,0.25,0.07,0.37c0.01,0.05,0.02,0.09,0.02,0.14c0,0.02,0.01,0.04,0.01,0.06
				c0,0.06,0.02,0.13,0.02,0.18c0.02,0.13,0.04,0.25,0.04,0.37c0.01,0.12,0.02,0.23,0.03,0.35c0,0.01,0,0.01,0,0.02
				c0.01,0.13,0.02,0.25,0.02,0.38c0,0.12,0.01,0.25,0.01,0.36c0,0.03,0,0.06,0,0.08c0,0.03,0,0.05-0.01,0.08c0,0.07,0,0.14,0,0.21
				c-0.01,0.13-0.01,0.25-0.02,0.37c0,0.05-0.01,0.1-0.02,0.14c-0.01,0.03-0.01,0.06-0.01,0.09c0,0.05-0.01,0.11-0.02,0.15
				c-0.02,0.14-0.04,0.28-0.07,0.4c-0.01,0.04-0.02,0.07-0.03,0.11c-0.01,0.04-0.02,0.07-0.02,0.11c-0.02,0.07-0.04,0.13-0.05,0.2
				c-0.04,0.13-0.09,0.26-0.13,0.38c-0.01,0.02-0.01,0.03-0.02,0.05c-0.01,0-0.01,0.01-0.01,0.02c-0.08,0.19-0.16,0.38-0.25,0.55
				c-0.01,0-0.01,0.01-0.01,0.01c-0.15,0.26-0.31,0.49-0.49,0.7c-0.04,0.05-0.09,0.1-0.13,0.15c-0.19,0.2-0.39,0.39-0.62,0.55
				l-1.65,1.13c3.93,0.75,6.62-1.85,6.29-6.66C651.54,285.6,647,278.88,641.78,276.34z"/>
			<path class="st53" d="M647.93,287.03c0.01,0.02,0.01,0.04,0.02,0.06c0.01,0.02,0.02,0.05,0.04,0.07
				c0.06,0.13,0.11,0.26,0.16,0.38c0.05,0.13,0.1,0.26,0.15,0.39c0.01,0.01,0.02,0.03,0.02,0.04c0.01,0.03,0.02,0.05,0.03,0.08
				c0.04,0.1,0.07,0.19,0.1,0.28c0.05,0.14,0.09,0.27,0.13,0.4c0.03,0.06,0.04,0.12,0.06,0.17c0,0.03,0.02,0.05,0.02,0.08
				c0.01,0.04,0.03,0.09,0.04,0.14c0.04,0.13,0.08,0.26,0.11,0.4c0.04,0.13,0.07,0.26,0.1,0.38c0.03,0.13,0.06,0.25,0.08,0.38
				c0.03,0.13,0.05,0.25,0.07,0.37c0.01,0.05,0.02,0.09,0.02,0.14c0,0.02,0.01,0.04,0.01,0.06c0,0.06,0.02,0.13,0.02,0.18
				c0.02,0.13,0.04,0.25,0.04,0.37c0.01,0.12,0.02,0.23,0.03,0.35c0,0.01,0,0.01,0,0.02c0.01,0.13,0.02,0.25,0.02,0.38
				c0,0.12,0.01,0.25,0.01,0.36c0,0.03,0,0.06,0,0.08c0,0.03,0,0.05-0.01,0.08c0,0.07,0,0.14,0,0.21c-0.01,0.13-0.01,0.25-0.02,0.37
				c0,0.05-0.01,0.1-0.02,0.14c-0.01,0.03-0.01,0.06-0.01,0.09c0,0.05-0.01,0.11-0.02,0.15c-0.02,0.14-0.04,0.28-0.07,0.4
				c-0.01,0.04-0.02,0.07-0.03,0.11c-0.01,0.04-0.02,0.07-0.02,0.11c-0.02,0.07-0.04,0.13-0.05,0.2c-0.04,0.13-0.09,0.26-0.13,0.38
				c-0.01,0.02-0.01,0.03-0.02,0.05c-0.01,0-0.01,0.01-0.01,0.02c-0.08,0.19-0.16,0.38-0.25,0.55c-0.01,0-0.01,0.01-0.01,0.01
				c-0.15,0.26-0.31,0.49-0.49,0.7c-0.04,0.05-0.09,0.1-0.13,0.15c-0.19,0.2-0.39,0.39-0.62,0.55l-19.92,13.47
				c0,0.02,0.01,0.04,0.01,0.06l-34.12,23.12c-0.04,0.03-0.08,0.06-0.11,0.07l-1.93,1.31c-1.92,0.85-4.1,1.19-6.33,0.83
				c-1.71-0.28-3.26-0.94-4.59-1.87c-0.75,0.57-1.71,0.84-2.72,0.68c-0.13-0.02-0.25-0.06-0.37-0.1l70.45-47.98
				c0.05,0.1,0.1,0.19,0.14,0.29C647.85,286.87,647.89,286.95,647.93,287.03z"/>
		</g>
		<g>
			<g>
				<g>
					<g class="st5">
						<g>
							<polygon class="st50" points="128.98,160.24 146.02,150.41 145.96,130.5 139.94,133.97 139.98,147 128.96,153.36 
								128.98,160.24 							"/>
						</g>
					</g>
				</g>
				<g>
					<g class="st5">
						<g>
							<polygon class="st50" points="57.44,203.26 74.79,193.24 74.77,186.36 63.41,192.92 63.37,180.26 57.38,183.72 57.44,203.26 
															"/>
						</g>
					</g>
				</g>
				<g>
					<g class="st5">
						<g>
							<polygon class="st50" points="57.41,113.13 63.4,109.67 63.36,96.65 74.41,90.27 74.39,83.36 57.35,93.19 57.41,113.13 
															"/>
						</g>
					</g>
				</g>
				<g>
					<g class="st5">
						<g>
							<polygon class="st50" points="139.97,63.38 145.99,59.91 145.93,40.34 128.57,50.36 128.59,57.24 139.93,50.7 139.97,63.38 
															"/>
						</g>
					</g>
				</g>
			</g>
			<g>
				<g>
					<g class="st5">
						<g class="st5">
							<g>
								<path class="st54" d="M101.35,95.94l-5.25-3.05c19.29-11.13,35.21-4.69,42.06-0.72l5.25,3.05
									C136.57,91.24,120.64,84.8,101.35,95.94L101.35,95.94z"/>
							</g>
						</g>
						<g class="st5">
							<g>
								<path class="st54" d="M55.89,150.18l-5.25-3.05c1.02-1.99,20.31-39.73,45.46-54.25l5.25,3.05
									C76.2,110.46,56.91,148.2,55.89,150.18L55.89,150.18z"/>
							</g>
						</g>
						<g>
							<path class="st55" d="M101.35,95.94c25.15-14.52,44.6,0.86,45.62,1.66c0.23,0.51,0.44,1.13,0.79,1.58
								c-4.91,8.79-24.44,38.82-46.25,51.41c-25.15,14.52-44.59,0.34-45.61-0.41C56.91,148.2,76.2,110.46,101.35,95.94z"/>
						</g>
						<g>
							<path class="st56" d="M102.14,97.52c25.15-14.52,44.6,0.86,45.62,1.66c-1.02,1.92-20.31,38.47-45.46,52.99
								c-25.15,14.52-44.2-0.42-45.23-1.16C58.08,149.03,76.99,112.04,102.14,97.52z"/>
							<path class="st56" d="M147.76,99.18c3.97,1.99-15.17,38.54-45.46,52.99L147.76,99.18z"/>
						</g>
					</g>
				</g>
				<g>
					<g class="st5">
						<g class="st5">
							<g>
								<path class="st57" d="M106.56,102.45l-5.25-3.05c5.62-3.25,10.72-3.54,14.4-1.41l5.25,3.05
									C117.27,98.9,112.18,99.2,106.56,102.45L106.56,102.45z"/>
							</g>
						</g>
						<g class="st5">
							<g>
								<path class="st57" d="M92.31,150.3l-5.25-3.05c-3.63-2.11-5.88-6.59-5.9-12.96c-0.04-12.81,8.99-28.46,20.15-34.89
									l5.25,3.05c-11.15,6.44-20.18,22.08-20.15,34.89C86.43,143.71,88.68,148.19,92.31,150.3L92.31,150.3z"/>
							</g>
						</g>
						<g>
							<path class="st58" d="M106.56,102.45c11.17-6.45,20.26-1.27,20.29,11.55c0.04,12.83-8.99,28.46-20.16,34.9
								c-11.15,6.44-20.24,1.28-20.28-11.56C86.37,124.53,95.4,108.89,106.56,102.45z"/>
						</g>
						<g>
							<path class="st59" d="M107.5,102.96c11.17-6.45,20.26-1.27,20.29,11.55c0.04,12.83-8.99,28.46-20.16,34.9
								c-11.15,6.44-20.24,1.28-20.28-11.56C87.32,125.04,96.35,109.4,107.5,102.96z"/>
						</g>
					</g>
				</g>
				<g>
					<g class="st5">
						<g>
							<path class="st60" d="M107.53,111.56c-7.02,4.05-12.7,13.9-12.68,21.96c0.02,8.08,5.74,11.34,12.76,7.29
								c7.03-4.06,12.72-13.9,12.69-21.99C120.28,110.76,114.56,107.5,107.53,111.56L107.53,111.56z"/>
						</g>
					</g>
				</g>
				<path class="st61" d="M116.36,110.57c1.96,1.44,3.16,4.1,3.17,7.78c0.02,8.08-5.66,17.93-12.69,21.99
					c-3.41,1.97-6.52,2.2-8.81,0.99c2.34,1.72,5.76,1.69,9.58-0.51c7.03-4.06,12.72-13.9,12.69-21.99
					C120.29,114.69,118.78,111.83,116.36,110.57z"/>
			</g>
		</g>
		
			<linearGradient id="SVGID_00000057133620352078043950000001406259911190354092_" gradientUnits="userSpaceOnUse" x1="193.8173" y1="271.0795" x2="193.8173" y2="201.4356">
			<stop  offset="0" style="stop-color:#1C75BC"/>
			<stop  offset="1" style="stop-color:#15A9FA"/>
		</linearGradient>
		<path style="fill:url(#SVGID_00000057133620352078043950000001406259911190354092_);" d="M210.97,230.96
			c4.18,9.85,6.93,23.71-0.93,32.56c-7.86,8.86-21.31,10.27-30.5,2.47c-9.12-7.73-8.05-21.19-3.71-31.18
			c5.02-11.55,13.6-21.29,17.49-33.38c3.69,4.35,6.27,9.47,9.28,14.27C205.69,220.62,208.7,225.6,210.97,230.96
			C211.49,232.19,208.69,225.58,210.97,230.96z"/>
		<g>
			<path class="st63" d="M231.88,50.84c-0.04-0.01-0.09-0.03-0.12-0.05c-0.02-0.01-0.06-0.03-0.08-0.04
				c-0.03-0.02-0.06-0.03-0.09-0.05l-1.8,8.66c-0.08,0.37-0.05,0.85,0.28,1.03c2.17,1.15,4.35,2.31,6.52,3.48
				c-0.21-0.16-0.33-0.5-0.22-1l1.99-9.58c0.08-0.44,0.02-0.97-0.4-1.07L231.88,50.84z"/>
			<path class="st63" d="M231.6,50.65c-0.39-0.48,0.02-1.78,0.78-2.25l7.3-4.54c0.4-0.26,0.78-0.79,0.9-1.37l1.99-9.59
				c0.12-0.57,0.65-1.39,1.2-1.51c0.15-0.04,0.29-0.02,0.41,0.04c-2.18-1.16-4.36-2.34-6.53-3.49c-0.01-0.01-0.02-0.01-0.03-0.02
				c-0.11-0.06-0.26-0.08-0.41-0.04c-0.55,0.11-1.08,0.93-1.2,1.51l-1.99,9.58c-0.12,0.6-0.51,1.13-0.91,1.38l-7.3,4.55
				c-0.85,0.54-1.26,2.08-0.63,2.39c2.13,1.14,4.28,2.28,6.41,3.41l0.01-0.03L231.6,50.65z"/>
			<path class="st63" d="M248.65,30.67L244.91,33l2.06,5.51c0.13,0.35,0.48,0.5,0.96,0.21l7.3-4.54c0.27-0.16,0.49-0.19,0.67-0.12
				c-2.18-1.15-4.35-2.32-6.54-3.49C249.15,30.47,248.89,30.52,248.65,30.67z"/>
			<path class="st64" d="M255.23,34.18l-7.3,4.54c-0.48,0.29-0.82,0.14-0.96-0.21L244.91,33l-0.47-1.26
				c-0.06-0.15-0.15-0.26-0.26-0.31c-0.12-0.06-0.26-0.08-0.41-0.04c-0.55,0.12-1.07,0.94-1.2,1.51l-1.99,9.59
				c-0.12,0.59-0.5,1.12-0.9,1.37l-7.3,4.54c-0.77,0.48-1.18,1.77-0.78,2.25l0,0.01c0.02,0.03,0.05,0.06,0.08,0.09
				c0.02,0.01,0.06,0.03,0.08,0.04c0.03,0.02,0.08,0.04,0.12,0.05l6.08,1.37c0.42,0.1,0.48,0.62,0.4,1.07l-1.99,9.58
				c-0.1,0.5,0.01,0.84,0.22,1c0.02,0.01,0.03,0.02,0.06,0.03c0.33,0.17,0.85-0.03,1.27-0.67l5.74-8.73
				c0.07-0.1,0.14-0.19,0.22-0.28c0.21-0.25,0.61-0.51,0.93-0.44l6.08,1.37c0.79,0.18,1.79-1.35,1.46-2.22l-2.53-6.77
				c-0.17-0.46,0.04-1.09,0.31-1.51l5.74-8.74c0.51-0.77,0.46-1.61,0.06-1.82c-0.01-0.01-0.02-0.01-0.03-0.02
				C255.72,33.99,255.5,34.02,255.23,34.18z"/>
		</g>
		<g>
			<path class="st63" d="M298.29,49.41c-0.05-0.01-0.1-0.03-0.14-0.06c-0.02-0.01-0.06-0.03-0.09-0.05
				c-0.04-0.02-0.06-0.03-0.1-0.06L296,58.74c-0.08,0.4-0.05,0.93,0.3,1.13c2.37,1.26,4.77,2.54,7.15,3.81
				c-0.24-0.17-0.36-0.54-0.24-1.09l2.18-10.5c0.09-0.49,0.02-1.06-0.44-1.17L298.29,49.41z"/>
			<path class="st63" d="M297.98,49.2c-0.43-0.53,0.02-1.95,0.86-2.47l8-4.98c0.44-0.28,0.85-0.86,0.99-1.51l2.18-10.51
				c0.14-0.62,0.71-1.52,1.31-1.65c0.17-0.04,0.31-0.02,0.45,0.05c-2.39-1.27-4.77-2.56-7.16-3.82c-0.01-0.01-0.02-0.01-0.04-0.02
				c-0.12-0.07-0.28-0.09-0.45-0.05c-0.6,0.12-1.19,1.02-1.31,1.65l-2.18,10.5c-0.14,0.66-0.56,1.24-1,1.51l-8,4.99
				c-0.94,0.59-1.39,2.28-0.69,2.62c2.34,1.25,4.69,2.5,7.02,3.74l0.01-0.04L297.98,49.2z"/>
			<path class="st63" d="M316.67,27.3l-4.1,2.55l2.26,6.04c0.15,0.38,0.53,0.55,1.05,0.23l8-4.98c0.3-0.18,0.54-0.21,0.73-0.13
				c-2.39-1.26-4.77-2.55-7.17-3.82C317.22,27.08,316.93,27.14,316.67,27.3z"/>
			<path class="st64" d="M323.88,31.15l-8,4.98c-0.52,0.32-0.9,0.15-1.05-0.23l-2.26-6.04l-0.52-1.38
				c-0.07-0.17-0.17-0.28-0.29-0.34c-0.14-0.07-0.28-0.09-0.45-0.05c-0.6,0.13-1.17,1.03-1.31,1.65l-2.18,10.51
				c-0.14,0.64-0.55,1.23-0.99,1.51l-8,4.98c-0.84,0.52-1.29,1.94-0.86,2.47l0,0.01c0.03,0.04,0.05,0.07,0.09,0.09
				c0.02,0.01,0.06,0.03,0.09,0.05c0.04,0.02,0.09,0.05,0.14,0.06l6.66,1.51c0.46,0.11,0.53,0.68,0.44,1.17l-2.18,10.5
				c-0.11,0.55,0.01,0.92,0.24,1.09c0.02,0.01,0.04,0.02,0.06,0.03c0.36,0.18,0.93-0.03,1.39-0.73l6.29-9.57
				c0.08-0.11,0.15-0.21,0.24-0.31c0.23-0.27,0.67-0.55,1.02-0.48l6.66,1.51c0.86,0.2,1.96-1.48,1.6-2.43l-2.77-7.42
				c-0.19-0.5,0.04-1.2,0.34-1.65l6.29-9.57c0.56-0.84,0.51-1.77,0.07-2c-0.01-0.01-0.02-0.01-0.04-0.02
				C324.42,30.94,324.18,30.97,323.88,31.15z"/>
		</g>
		<g>
			<g>
				
					<linearGradient id="SVGID_00000090975512885350406610000007904373051494024094_" gradientUnits="userSpaceOnUse" x1="325.006" y1="52.9409" x2="291.8541" y2="98.1482">
					<stop  offset="0" style="stop-color:#FFC62C"/>
					<stop  offset="1" style="stop-color:#FEA00F"/>
				</linearGradient>
				<path style="fill:url(#SVGID_00000090975512885350406610000007904373051494024094_);" d="M288.25,114.98
					c0-0.03-0.01-0.07-0.01-0.11c0-0.04-0.01-0.07-0.01-0.11c0-0.01,0-0.02,0-0.03l-2.03-15.08c0,0,0,0,0,0
					c0-0.04-0.01-0.07-0.01-0.1c0-0.03-0.01-0.07-0.01-0.1c0-0.03,0-0.07,0-0.1c0-0.03,0-0.07,0-0.1c0-0.03,0-0.07,0-0.1
					c0-0.03,0-0.07,0.01-0.1c0-0.03,0.01-0.07,0.01-0.1c0-0.03,0.01-0.07,0.01-0.1c0.01-0.04,0.01-0.07,0.02-0.1
					c0.01-0.04,0.02-0.07,0.03-0.11c0.01-0.04,0.02-0.08,0.04-0.11c0.02-0.04,0.03-0.08,0.05-0.12c0.02-0.05,0.05-0.1,0.08-0.14
					c0.09-0.14,0.21-0.26,0.35-0.34l-6.97,4.05c-0.14,0.08-0.26,0.2-0.35,0.34c-0.03,0.04-0.05,0.09-0.08,0.14
					c-0.02,0.04-0.03,0.08-0.05,0.12c-0.01,0.04-0.03,0.07-0.04,0.11c-0.01,0.03-0.02,0.07-0.03,0.11c-0.01,0.03-0.01,0.07-0.02,0.1
					c-0.01,0.03-0.01,0.07-0.01,0.1c0,0.03-0.01,0.07-0.01,0.1c0,0.03,0,0.07-0.01,0.1c0,0.03,0,0.07,0,0.1c0,0.03,0,0.07,0,0.1
					c0,0.03,0,0.07,0,0.1c0,0.03,0.01,0.07,0.01,0.1c0,0.03,0.01,0.07,0.01,0.1c0,0,0,0,0,0l2.03,15.08c0,0.01,0,0.02,0,0.03
					c0,0.04,0.01,0.07,0.01,0.11c0,0.04,0.01,0.07,0.01,0.11c0,0.03,0,0.07,0,0.1c0,0.03,0,0.07,0,0.1c0,0.03,0,0.07,0,0.1
					c0,0.03,0,0.06-0.01,0.1c0,0.03-0.01,0.07-0.01,0.1c0,0.03-0.01,0.07-0.01,0.1c-0.01,0.03-0.01,0.07-0.02,0.1
					c-0.01,0.03-0.02,0.07-0.03,0.1c-0.01,0.04-0.02,0.07-0.04,0.11c-0.02,0.04-0.03,0.08-0.05,0.12c-0.02,0.05-0.05,0.09-0.08,0.14
					c-0.1,0.15-0.21,0.26-0.35,0.34l6.97-4.05c0.14-0.08,0.26-0.2,0.35-0.34c0.03-0.04,0.05-0.09,0.08-0.14
					c0.02-0.04,0.03-0.08,0.05-0.12c0.01-0.04,0.03-0.07,0.04-0.11c0.01-0.03,0.02-0.07,0.03-0.1c0.01-0.03,0.01-0.07,0.02-0.1
					c0.01-0.03,0.01-0.06,0.01-0.1c0-0.03,0.01-0.06,0.01-0.1c0-0.03,0-0.06,0.01-0.1c0-0.03,0-0.07,0-0.1c0-0.03,0-0.07,0-0.1
					C288.26,115.05,288.25,115.02,288.25,114.98z"/>
				
					<linearGradient id="SVGID_00000081610869760519516250000005667990640392049582_" gradientUnits="userSpaceOnUse" x1="287.1085" y1="25.1495" x2="253.9567" y2="70.3566">
					<stop  offset="0" style="stop-color:#FFC62C"/>
					<stop  offset="1" style="stop-color:#FEA00F"/>
				</linearGradient>
				<path style="fill:url(#SVGID_00000081610869760519516250000005667990640392049582_);" d="M265.55,69.33
					c-0.04,0.01-0.08,0.01-0.12,0.02c-0.03,0-0.07,0-0.1,0c-0.03,0-0.06,0-0.1,0c-0.03,0-0.06-0.01-0.09-0.01
					c-0.03,0-0.06-0.01-0.09-0.01c-0.03-0.01-0.06-0.01-0.09-0.02c-0.03-0.01-0.06-0.02-0.09-0.02c-0.03-0.01-0.06-0.02-0.09-0.03
					c-0.03-0.01-0.06-0.02-0.09-0.03c0,0-0.01,0-0.01-0.01l-12.14-4.98c-0.01,0-0.01-0.01-0.02-0.01c-0.03-0.01-0.06-0.02-0.09-0.03
					c-0.03-0.01-0.06-0.02-0.09-0.03c-0.03-0.01-0.06-0.02-0.09-0.02c-0.03-0.01-0.06-0.01-0.09-0.02
					c-0.03-0.01-0.06-0.01-0.09-0.01c-0.03,0-0.06-0.01-0.09-0.01c-0.03,0-0.06,0-0.09,0c-0.04,0-0.07,0-0.1,0.01
					c-0.04,0-0.07,0.01-0.11,0.02c-0.05,0.01-0.1,0.02-0.14,0.04c-0.05,0.02-0.11,0.04-0.16,0.07l-6.97,4.05
					c0.05-0.03,0.1-0.05,0.16-0.07c0.05-0.02,0.09-0.03,0.15-0.04c0.04-0.01,0.07-0.01,0.11-0.02c0.03,0,0.07,0,0.1-0.01
					c0.03,0,0.06,0,0.09,0c0.03,0,0.06,0.01,0.09,0.01c0.03,0,0.06,0.01,0.09,0.01c0.03,0.01,0.06,0.01,0.09,0.02
					c0.03,0.01,0.06,0.02,0.09,0.02c0.03,0.01,0.06,0.02,0.09,0.03c0.03,0.01,0.06,0.02,0.09,0.03c0.01,0,0.01,0.01,0.02,0.01
					l12.14,4.98c0,0,0.01,0,0.01,0.01c0.03,0.01,0.06,0.02,0.09,0.03c0.03,0.01,0.06,0.02,0.09,0.03c0.03,0.01,0.06,0.02,0.09,0.02
					c0.03,0.01,0.06,0.01,0.09,0.02c0.03,0.01,0.06,0.01,0.09,0.01c0.03,0,0.06,0.01,0.09,0.01c0.03,0,0.07,0,0.1,0
					c0.04,0,0.07,0,0.1,0c0.04,0,0.08-0.01,0.12-0.02c0.05-0.01,0.09-0.02,0.14-0.04c0.06-0.02,0.11-0.05,0.17-0.08l6.97-4.05
					c-0.05,0.03-0.11,0.06-0.17,0.08C265.65,69.31,265.6,69.32,265.55,69.33z"/>
				
					<linearGradient id="SVGID_00000034049237571845095000000006732260644466118806_" gradientUnits="userSpaceOnUse" x1="307.9902" y1="40.4625" x2="274.8383" y2="85.6698">
					<stop  offset="0" style="stop-color:#FFC62C"/>
					<stop  offset="1" style="stop-color:#FEA00F"/>
				</linearGradient>
				<path style="fill:url(#SVGID_00000034049237571845095000000006732260644466118806_);" d="M296.24,91.72c0-0.03,0-0.07,0-0.1
					c0-0.03,0-0.07-0.01-0.1c0-0.03-0.01-0.07-0.01-0.1c0-0.03-0.01-0.07-0.01-0.1c-0.01-0.04-0.01-0.07-0.02-0.11
					c-0.01-0.04-0.01-0.07-0.02-0.11c-0.01-0.04-0.02-0.07-0.03-0.11c-0.01-0.04-0.02-0.07-0.03-0.11
					c-0.01-0.04-0.02-0.08-0.03-0.11c-0.01-0.04-0.02-0.07-0.03-0.11c-0.01-0.04-0.02-0.07-0.04-0.11
					c-0.01-0.04-0.03-0.07-0.04-0.11c-0.01-0.03-0.03-0.07-0.04-0.1c-0.01-0.03-0.03-0.07-0.04-0.1c-0.01-0.03-0.03-0.07-0.05-0.1
					c-0.02-0.04-0.04-0.08-0.05-0.11c-0.02-0.04-0.04-0.07-0.06-0.11c-0.04-0.08-0.08-0.15-0.13-0.22c-0.03-0.05-0.07-0.11-0.1-0.16
					c-0.05-0.07-0.1-0.14-0.15-0.21c-0.03-0.04-0.05-0.07-0.08-0.11c-0.03-0.03-0.06-0.07-0.08-0.1c-0.03-0.03-0.05-0.06-0.08-0.09
					c-0.03-0.03-0.05-0.06-0.08-0.09c-0.03-0.03-0.05-0.06-0.08-0.09c-0.03-0.03-0.06-0.06-0.09-0.09
					c-0.03-0.03-0.06-0.06-0.09-0.08c-0.03-0.03-0.06-0.06-0.09-0.08c-0.03-0.03-0.06-0.05-0.1-0.08c-0.03-0.02-0.06-0.04-0.08-0.06
					l-12.14-9.04c-0.02-0.02-0.05-0.04-0.07-0.05c-0.03-0.02-0.06-0.05-0.09-0.08c-0.03-0.03-0.06-0.05-0.09-0.08
					c-0.03-0.03-0.06-0.06-0.09-0.09c-0.03-0.03-0.06-0.06-0.09-0.09c-0.03-0.03-0.06-0.06-0.08-0.09
					c-0.03-0.03-0.05-0.06-0.08-0.09c-0.03-0.03-0.05-0.06-0.08-0.09c-0.03-0.03-0.05-0.06-0.08-0.1c-0.03-0.04-0.06-0.07-0.09-0.11
					c-0.04-0.05-0.08-0.11-0.12-0.17c-0.06-0.09-0.12-0.18-0.17-0.28c-0.03-0.05-0.06-0.11-0.09-0.16
					c-0.02-0.04-0.04-0.08-0.06-0.12c-0.02-0.03-0.03-0.07-0.05-0.1c-0.02-0.03-0.03-0.06-0.04-0.1c-0.01-0.03-0.03-0.06-0.04-0.1
					c-0.01-0.03-0.03-0.07-0.04-0.1c-0.01-0.03-0.03-0.07-0.04-0.1c-0.01-0.03-0.02-0.06-0.03-0.1l-5.39-15.78
					c-0.01-0.03-0.02-0.05-0.03-0.08c-0.01-0.04-0.03-0.07-0.04-0.11c-0.01-0.03-0.03-0.07-0.04-0.1c-0.01-0.03-0.03-0.07-0.04-0.1
					c-0.01-0.03-0.03-0.07-0.05-0.1c-0.02-0.04-0.03-0.07-0.05-0.11c-0.02-0.04-0.04-0.08-0.06-0.12c-0.03-0.06-0.06-0.12-0.1-0.17
					c-0.05-0.09-0.11-0.18-0.16-0.26c-0.04-0.06-0.08-0.12-0.12-0.17c-0.03-0.04-0.06-0.07-0.08-0.11c-0.03-0.03-0.05-0.06-0.08-0.1
					c-0.03-0.03-0.05-0.06-0.08-0.09c-0.03-0.03-0.05-0.06-0.08-0.09c-0.03-0.03-0.06-0.06-0.08-0.09
					c-0.03-0.03-0.06-0.06-0.09-0.09c-0.03-0.03-0.06-0.06-0.09-0.09c-0.03-0.03-0.06-0.06-0.09-0.08
					c-0.03-0.03-0.06-0.05-0.09-0.08c-0.03-0.02-0.06-0.05-0.09-0.07c-0.03-0.02-0.06-0.04-0.09-0.07
					c-0.03-0.02-0.06-0.04-0.09-0.06c-0.03-0.02-0.06-0.04-0.09-0.05c-0.01,0-0.01-0.01-0.02-0.01c-0.02-0.01-0.04-0.03-0.07-0.04
					c-0.03-0.02-0.06-0.03-0.09-0.04c-0.03-0.01-0.06-0.03-0.09-0.04c-0.03-0.01-0.06-0.02-0.08-0.04
					c-0.03-0.01-0.06-0.02-0.08-0.03c-0.03-0.01-0.06-0.02-0.09-0.03c-0.03-0.01-0.06-0.02-0.09-0.02
					c-0.03-0.01-0.06-0.01-0.09-0.02c-0.03-0.01-0.06-0.01-0.09-0.01c-0.03,0-0.06-0.01-0.09-0.01c-0.03,0-0.06,0-0.1,0
					c-0.03,0-0.07,0-0.1,0c-0.04,0-0.08,0.01-0.11,0.02c-0.05,0.01-0.09,0.02-0.14,0.04c-0.06,0.02-0.11,0.04-0.16,0.08l-6.97,4.05
					c0.05-0.03,0.11-0.06,0.16-0.08c0.05-0.02,0.09-0.03,0.14-0.04c0.04-0.01,0.08-0.01,0.11-0.02c0.03,0,0.07,0,0.1,0
					c0.03,0,0.06,0,0.1,0c0.03,0,0.06,0.01,0.09,0.01c0.03,0,0.06,0.01,0.09,0.01c0.03,0.01,0.06,0.01,0.09,0.02
					c0.03,0.01,0.06,0.01,0.09,0.02c0.03,0.01,0.06,0.02,0.09,0.03c0.03,0.01,0.06,0.02,0.08,0.03c0.03,0.01,0.06,0.02,0.08,0.04
					c0.03,0.01,0.06,0.03,0.09,0.04c0.03,0.01,0.06,0.03,0.09,0.04c0.02,0.01,0.04,0.02,0.07,0.04c0.01,0,0.01,0.01,0.02,0.01
					c0.03,0.02,0.06,0.04,0.09,0.05c0.03,0.02,0.06,0.04,0.09,0.06c0.03,0.02,0.06,0.04,0.09,0.07c0.03,0.02,0.06,0.05,0.09,0.07
					c0.03,0.02,0.06,0.05,0.09,0.08c0.03,0.03,0.06,0.05,0.09,0.08c0.03,0.03,0.06,0.06,0.09,0.09c0.03,0.03,0.06,0.06,0.09,0.09
					c0.03,0.03,0.06,0.06,0.08,0.09c0.03,0.03,0.05,0.06,0.08,0.09c0.03,0.03,0.05,0.06,0.08,0.09c0.03,0.03,0.05,0.06,0.08,0.1
					c0.03,0.04,0.06,0.07,0.08,0.11c0.04,0.06,0.08,0.11,0.12,0.17c0.06,0.08,0.11,0.17,0.16,0.26c0.03,0.06,0.07,0.11,0.1,0.17
					c0.02,0.04,0.04,0.08,0.06,0.12c0.02,0.03,0.03,0.07,0.05,0.11c0.02,0.03,0.03,0.07,0.05,0.1c0.01,0.03,0.03,0.07,0.04,0.1
					c0.01,0.03,0.03,0.07,0.04,0.1c0.01,0.04,0.03,0.07,0.04,0.11c0.01,0.02,0.02,0.05,0.03,0.08l5.39,15.78
					c0.01,0.03,0.02,0.06,0.03,0.1c0.01,0.03,0.02,0.07,0.04,0.1c0.01,0.03,0.03,0.07,0.04,0.1c0.01,0.03,0.03,0.06,0.04,0.1
					c0.01,0.03,0.03,0.07,0.04,0.1c0.02,0.03,0.03,0.07,0.05,0.1c0.02,0.04,0.04,0.08,0.06,0.12c0.03,0.06,0.06,0.11,0.09,0.16
					c0.06,0.1,0.11,0.19,0.17,0.28c0.04,0.06,0.08,0.11,0.12,0.17c0.03,0.04,0.06,0.08,0.09,0.11c0.03,0.03,0.05,0.07,0.08,0.1
					c0.03,0.03,0.05,0.06,0.08,0.09c0.03,0.03,0.05,0.06,0.08,0.09c0.03,0.03,0.06,0.06,0.08,0.09c0.03,0.03,0.06,0.06,0.09,0.09
					c0.03,0.03,0.06,0.06,0.09,0.09c0.03,0.03,0.06,0.05,0.09,0.08c0.03,0.03,0.06,0.05,0.09,0.08c0.02,0.02,0.05,0.04,0.07,0.05
					l12.14,9.04c0.03,0.02,0.06,0.04,0.08,0.06c0.03,0.03,0.06,0.05,0.1,0.08c0.03,0.03,0.06,0.05,0.09,0.08
					c0.03,0.03,0.06,0.06,0.09,0.08c0.03,0.03,0.06,0.06,0.09,0.09c0.03,0.03,0.06,0.06,0.08,0.09c0.03,0.03,0.05,0.06,0.08,0.09
					c0.03,0.03,0.05,0.06,0.08,0.09c0.03,0.03,0.06,0.07,0.08,0.1c0.03,0.03,0.05,0.07,0.08,0.11c0.05,0.07,0.1,0.14,0.15,0.21
					c0.03,0.05,0.07,0.11,0.1,0.16c0.04,0.07,0.09,0.15,0.13,0.22c0.02,0.04,0.04,0.07,0.06,0.11c0.02,0.04,0.04,0.07,0.05,0.11
					c0.02,0.03,0.03,0.07,0.05,0.1c0.01,0.03,0.03,0.07,0.04,0.1c0.01,0.03,0.03,0.07,0.04,0.1c0.01,0.04,0.03,0.07,0.04,0.11
					c0.01,0.04,0.03,0.07,0.04,0.11c0.01,0.04,0.02,0.07,0.03,0.11c0.01,0.04,0.02,0.08,0.03,0.11c0.01,0.04,0.02,0.07,0.03,0.11
					c0.01,0.04,0.02,0.07,0.03,0.11c0.01,0.04,0.02,0.07,0.02,0.11c0.01,0.04,0.01,0.07,0.02,0.11c0.01,0.03,0.01,0.07,0.01,0.1
					c0,0.03,0.01,0.07,0.01,0.1c0,0.03,0.01,0.07,0.01,0.1c0,0.03,0,0.07,0,0.1c0,0.03,0,0.07,0,0.1c0,0.03,0,0.07,0,0.1
					c0,0.03,0,0.06-0.01,0.1c0,0.03-0.01,0.06-0.01,0.1c0,0.03-0.01,0.07-0.01,0.1c-0.01,0.03-0.01,0.06-0.02,0.1
					c-0.01,0.04-0.02,0.07-0.03,0.11c-0.01,0.03-0.02,0.07-0.03,0.1c-0.02,0.04-0.03,0.08-0.05,0.12c-0.02,0.05-0.05,0.09-0.08,0.14
					c-0.1,0.15-0.23,0.27-0.39,0.36l6.97-4.05c0.16-0.09,0.29-0.21,0.39-0.36c0.03-0.04,0.05-0.09,0.08-0.14
					c0.02-0.04,0.04-0.08,0.05-0.12c0.01-0.03,0.02-0.07,0.03-0.1c0.01-0.03,0.02-0.07,0.03-0.11c0.01-0.03,0.01-0.06,0.02-0.1
					c0.01-0.03,0.01-0.07,0.01-0.1c0-0.03,0.01-0.06,0.01-0.1c0-0.03,0-0.06,0.01-0.1c0-0.03,0-0.06,0-0.1
					C296.24,91.79,296.24,91.76,296.24,91.72z"/>
			</g>
			
				<linearGradient id="SVGID_00000015326510140971779640000007278683406986952346_" gradientUnits="userSpaceOnUse" x1="278.6677" y1="57.9994" x2="254.8909" y2="111.7174">
				<stop  offset="0" style="stop-color:#FFD71D"/>
				<stop  offset="1" style="stop-color:#FEB200"/>
			</linearGradient>
			<path style="fill:url(#SVGID_00000015326510140971779640000007278683406986952346_);" d="M266.59,63.11
				c0.74,0.42,1.47,1.29,1.85,2.38l5.39,15.78c0.3,0.88,0.87,1.69,1.54,2.19l12.14,9.04c1.69,1.25,2.36,4.03,1.12,4.69l-8.81,4.77
				c-0.49,0.26-0.71,0.92-0.6,1.75l2.03,15.08c0.22,1.66-0.83,2.3-2.03,1.61c-0.32-0.18-0.64-0.46-0.96-0.83l-10.84-12.83
				c-0.3-0.35-0.63-0.63-0.96-0.82s-0.66-0.29-0.96-0.28l-10.88,0.29c-0.32,0.01-0.64-0.09-0.96-0.28c-1.2-0.69-2.26-2.55-2.02-3.95
				l2.11-12.69c0.12-0.7-0.1-1.62-0.58-2.43l-8.76-14.92c-1.22-2.08-0.54-4.07,1.15-3.38l12.14,4.98c0.68,0.28,1.26,0.13,1.55-0.4
				l5.46-9.51C265.12,62.7,265.86,62.69,266.59,63.11z"/>
		</g>
		<g>
			<path class="st69" d="M439.71,175.97c-3.5,2.17-11.11,57.1-16.57,103.25c-5.86,49.52,51,12.45,63.74,5.61
				c-9.22-50.36-8.55-85.99-8.55-85.99L439.71,175.97z"/>
			<path class="st70" d="M454.76,295.63c-1.36,13.37,2.73,28.31-15.19,37.74c-40.85,21.5-50.34-2.01-38.48-49.3
				C406.39,293.69,423.47,305.46,454.76,295.63z"/>
			<path class="st71" d="M469.12,201.4c0.93,27.71,9.06,63.96-17.79,100.27c-20.85,28.2-60.07,15.55-66.22-4.07
				c0,0,4.24-42.98,9.7-63.68c5.47-20.71,14.06-37.11,27.92-47.99C436.65,175.05,464.3,161.28,469.12,201.4z"/>
			<path class="st70" d="M470.61,220.64c-1.08,6-24.18,16.16-24.67,23.37c-0.23,3.47,0.38,14.03,1.87,16.5
				c7.93,15.12-6.37,10.29-7.19,22.46c-0.52,7.67,0.79,13.43-3.44,24.02c0.18-0.1-3.97,14.85-3.79,15.32
				c6.09-1.02,15.45-17.76,17.94-20.64C474.58,274.85,472.87,245.45,470.61,220.64z"/>
			<path class="st69" d="M390.35,184.41c-26.2,26.55-34.6,68.13-33.42,114.41c1.14,44.6,48.7,22.33,48.7,22.33
				c-9.67-16.55-27.98-75.03,24.92-85.44c19.12-3.77,45.81-24.37,47.78-36.87C483.65,150.25,416.28,158.13,390.35,184.41z"/>
		</g>
		<g>
			<g>
				<g>
					<polyline class="st72" points="486.74,108.55 491.93,105.55 491.95,111.55 					"/>
					<line class="st73" x1="491.98" y1="123.29" x2="492.49" y2="305.17"/>
					<polyline class="st72" points="492.51,311.04 492.53,317.04 487.33,320.04 					"/>
					<line class="st74" x1="477.26" y1="325.85" x2="361.45" y2="392.72"/>
					<polyline class="st72" points="356.42,395.62 351.22,398.62 351.21,392.62 					"/>
					<line class="st73" x1="351.17" y1="380.89" x2="350.66" y2="199"/>
					<polyline class="st72" points="350.64,193.13 350.63,187.13 355.82,184.13 					"/>
					<line class="st75" x1="365.89" y1="178.32" x2="481.7" y2="111.46"/>
				</g>
			</g>
		</g>
		<line class="st76" x1="329.52" y1="72.25" x2="461.79" y2="100.38"/>
		<line class="st76" x1="500.61" y1="285.23" x2="622.71" y2="213.85"/>
		<line class="st76" x1="229.61" y1="256.67" x2="355.69" y2="251.5"/>
		<line class="st76" x1="169.03" y1="137.24" x2="350.63" y2="187.13"/>
	</g>
	<line class="st76" x1="144.52" y1="363.41" x2="360.5" y2="373.03"/>
</g>
</svg>
