<?xml version="1.0" encoding="utf-8"?>
<!-- Generator: Adobe Illustrator 26.0.3, SVG Export Plug-In . SVG Version: 6.00 Build 0)  -->
<!DOCTYPE svg PUBLIC "-//W3C//DTD SVG 1.1//EN" "http://www.w3.org/Graphics/SVG/1.1/DTD/svg11.dtd" [
	<!ENTITY ns_extend "http://ns.adobe.com/Extensibility/1.0/">
	<!ENTITY ns_ai "http://ns.adobe.com/AdobeIllustrator/10.0/">
	<!ENTITY ns_graphs "http://ns.adobe.com/Graphs/1.0/">
	<!ENTITY ns_vars "http://ns.adobe.com/Variables/1.0/">
	<!ENTITY ns_imrep "http://ns.adobe.com/ImageReplacement/1.0/">
	<!ENTITY ns_sfw "http://ns.adobe.com/SaveForWeb/1.0/">
	<!ENTITY ns_custom "http://ns.adobe.com/GenericCustomNamespace/1.0/">
	<!ENTITY ns_adobe_xpath "http://ns.adobe.com/XPath/1.0/">
]>
<svg version="1.1" id="Capa_1" xmlns:x="&ns_extend;" xmlns:i="&ns_ai;" xmlns:graph="&ns_graphs;"
	 xmlns="http://www.w3.org/2000/svg" xmlns:xlink="http://www.w3.org/1999/xlink" x="0px" y="0px" viewBox="0 0 176.7 87.4"
	 style="enable-background:new 0 0 176.7 87.4;" xml:space="preserve">
<style type="text/css">
	.st0{fill:#DA522A;}
	.st1{fill:#FFFFFF;}
	.st2{fill:#142F4E;}
</style>
<metadata>
	<sfw  xmlns="&ns_sfw;">
		<slices></slices>
		<sliceSourceBounds  bottomLeftOrigin="true" height="87.4" width="176.7" x="871.3" y="-584.1"></sliceSourceBounds>
	</sfw>
</metadata>
<g>
	<g>
		<g>
			<rect x="89.3" class="st0" width="87.4" height="87.4"/>
			<g>
				<path class="st1" d="M103.4,20.6h-1.8V23h-0.7v-5.4h2.8v0.6h-2.1V20h1.8V20.6z"/>
				<path class="st1" d="M106.3,23c0-0.1-0.1-0.2-0.1-0.4c-0.2,0.3-0.5,0.5-0.9,0.5c-0.4,0-0.6-0.1-0.8-0.3s-0.3-0.5-0.3-0.9
					c0-0.4,0.1-0.7,0.4-1c0.3-0.2,0.7-0.4,1.1-0.4h0.5v-0.4c0-0.2-0.1-0.4-0.2-0.5s-0.3-0.2-0.5-0.2c-0.2,0-0.4,0.1-0.5,0.2
					c-0.1,0.1-0.2,0.3-0.2,0.4h-0.7c0-0.2,0.1-0.4,0.2-0.6c0.1-0.2,0.3-0.3,0.5-0.4c0.2-0.1,0.4-0.2,0.7-0.2c0.4,0,0.7,0.1,0.9,0.3
					s0.3,0.5,0.3,0.9v2c0,0.3,0,0.6,0.1,0.8V23H106.3z M105.5,22.5c0.2,0,0.3,0,0.5-0.1s0.2-0.2,0.3-0.3V21h-0.4
					c-0.3,0-0.6,0.1-0.7,0.2s-0.3,0.3-0.3,0.6c0,0.2,0,0.4,0.1,0.5S105.3,22.5,105.5,22.5z"/>
				<path class="st1" d="M109.3,22.5c0.2,0,0.4-0.1,0.5-0.2s0.2-0.3,0.2-0.6h0.6c0,0.4-0.2,0.7-0.4,1c-0.3,0.3-0.6,0.4-0.9,0.4
					c-0.5,0-0.9-0.2-1.1-0.5c-0.3-0.3-0.4-0.8-0.4-1.4v-0.4c0-0.6,0.1-1.1,0.4-1.4c0.3-0.3,0.6-0.5,1.1-0.5c0.4,0,0.7,0.1,1,0.4
					c0.2,0.3,0.4,0.6,0.4,1.1H110c0-0.3-0.1-0.5-0.2-0.7c-0.1-0.1-0.3-0.2-0.5-0.2c-0.3,0-0.5,0.1-0.6,0.3c-0.1,0.2-0.2,0.5-0.2,0.9
					v0.5c0,0.5,0.1,0.8,0.2,1C108.8,22.4,109,22.5,109.3,22.5z"/>
				<path class="st1" d="M113.4,22.6c-0.2,0.3-0.5,0.4-0.9,0.4c-0.4,0-0.6-0.1-0.8-0.4c-0.2-0.2-0.3-0.6-0.3-1.1V19h0.6v2.5
					c0,0.6,0.2,0.9,0.6,0.9c0.4,0,0.7-0.2,0.8-0.5V19h0.7v4h-0.6L113.4,22.6z"/>
				<path class="st1" d="M115.7,23h-0.7v-5.6h0.7V23z"/>
				<path class="st1" d="M117.6,18v1h0.6v0.5h-0.6V22c0,0.2,0,0.3,0.1,0.4s0.1,0.1,0.3,0.1c0.1,0,0.2,0,0.3,0l0,0.5
					c-0.1,0-0.3,0.1-0.5,0.1c-0.3,0-0.5-0.1-0.6-0.3S117,22.3,117,22v-2.5h-0.6V19h0.6v-1H117.6z"/>
				<path class="st1" d="M121,23c0-0.1-0.1-0.2-0.1-0.4c-0.2,0.3-0.5,0.5-0.9,0.5c-0.4,0-0.6-0.1-0.8-0.3s-0.3-0.5-0.3-0.9
					c0-0.4,0.1-0.7,0.4-1c0.3-0.2,0.7-0.4,1.1-0.4h0.5v-0.4c0-0.2-0.1-0.4-0.2-0.5s-0.3-0.2-0.5-0.2c-0.2,0-0.4,0.1-0.5,0.2
					c-0.1,0.1-0.2,0.3-0.2,0.4H119c0-0.2,0.1-0.4,0.2-0.6c0.1-0.2,0.3-0.3,0.5-0.4s0.4-0.2,0.7-0.2c0.4,0,0.7,0.1,0.9,0.3
					c0.2,0.2,0.3,0.5,0.3,0.9v2c0,0.3,0,0.6,0.1,0.8V23H121z M120.1,22.5c0.2,0,0.3,0,0.5-0.1c0.1-0.1,0.2-0.2,0.3-0.3V21h-0.4
					c-0.3,0-0.6,0.1-0.7,0.2s-0.3,0.3-0.3,0.6c0,0.2,0,0.4,0.1,0.5C119.8,22.4,119.9,22.5,120.1,22.5z"/>
				<path class="st1" d="M122.4,20.8c0-0.6,0.1-1.1,0.3-1.4c0.2-0.3,0.6-0.5,1-0.5c0.4,0,0.7,0.2,0.9,0.5v-2.1h0.7V23h-0.6l0-0.4
					c-0.2,0.3-0.5,0.5-0.9,0.5c-0.4,0-0.7-0.2-1-0.5c-0.2-0.3-0.4-0.8-0.4-1.4V20.8z M123.1,21.2c0,0.4,0.1,0.8,0.2,1
					s0.3,0.3,0.6,0.3c0.3,0,0.6-0.2,0.7-0.5v-2c-0.2-0.3-0.4-0.5-0.7-0.5c-0.3,0-0.5,0.1-0.6,0.3c-0.1,0.2-0.2,0.5-0.2,1V21.2z"/>
			</g>
			<g>
				<path class="st1" d="M101.6,30.1h2.1v0.6h-2.8v-5.4h0.7V30.1z"/>
				<path class="st1" d="M106.4,30.6c0-0.1-0.1-0.2-0.1-0.4c-0.2,0.3-0.5,0.5-0.9,0.5c-0.4,0-0.6-0.1-0.8-0.3s-0.3-0.5-0.3-0.9
					c0-0.4,0.1-0.7,0.4-1c0.3-0.2,0.7-0.4,1.1-0.4h0.5v-0.4c0-0.2-0.1-0.4-0.2-0.5s-0.3-0.2-0.5-0.2c-0.2,0-0.4,0.1-0.5,0.2
					c-0.1,0.1-0.2,0.3-0.2,0.4h-0.7c0-0.2,0.1-0.4,0.2-0.6c0.1-0.2,0.3-0.3,0.5-0.4c0.2-0.1,0.4-0.2,0.7-0.2c0.4,0,0.7,0.1,0.9,0.3
					s0.3,0.5,0.3,0.9v2c0,0.3,0,0.6,0.1,0.8v0.1H106.4z M105.6,30.1c0.2,0,0.3,0,0.5-0.1s0.2-0.2,0.3-0.3v-0.9H106
					c-0.3,0-0.6,0.1-0.7,0.2s-0.3,0.3-0.3,0.6c0,0.2,0,0.4,0.1,0.5S105.3,30.1,105.6,30.1z"/>
				<path class="st1" d="M108.8,25.7v1h0.6v0.5h-0.6v2.5c0,0.2,0,0.3,0.1,0.4c0.1,0.1,0.1,0.1,0.3,0.1c0.1,0,0.2,0,0.3,0l0,0.5
					c-0.1,0-0.3,0.1-0.5,0.1c-0.3,0-0.5-0.1-0.6-0.3s-0.2-0.4-0.2-0.8v-2.5h-0.6v-0.5h0.6v-1H108.8z"/>
				<path class="st1" d="M111,25.6c0,0.1,0,0.2-0.1,0.3c-0.1,0.1-0.2,0.1-0.3,0.1c-0.1,0-0.2,0-0.3-0.1c-0.1-0.1-0.1-0.2-0.1-0.3
					s0-0.2,0.1-0.3c0.1-0.1,0.2-0.1,0.3-0.1c0.1,0,0.2,0,0.3,0.1C110.9,25.4,111,25.5,111,25.6z M110.9,30.6h-0.7v-4h0.7V30.6z"/>
				<path class="st1" d="M112.5,26.7l0,0.4c0.3-0.3,0.6-0.5,1-0.5c0.7,0,1.1,0.5,1.1,1.4v2.6H114V28c0-0.3-0.1-0.5-0.2-0.7
					c-0.1-0.1-0.3-0.2-0.5-0.2c-0.2,0-0.3,0.1-0.4,0.2c-0.1,0.1-0.2,0.2-0.3,0.4v2.9h-0.7v-4H112.5z"/>
				<path class="st1" d="M115.4,28.5c0-0.6,0.1-1,0.4-1.4c0.3-0.3,0.7-0.5,1.1-0.5s0.8,0.2,1.1,0.5c0.3,0.3,0.4,0.8,0.4,1.3v0.4
					c0,0.6-0.1,1-0.4,1.4c-0.3,0.3-0.7,0.5-1.1,0.5c-0.5,0-0.8-0.2-1.1-0.5c-0.3-0.3-0.4-0.8-0.4-1.3V28.5z M116.1,28.8
					c0,0.4,0.1,0.7,0.2,1c0.2,0.2,0.4,0.4,0.6,0.4c0.6,0,0.9-0.4,0.9-1.2v-0.4c0-0.4-0.1-0.7-0.2-1c-0.2-0.2-0.4-0.4-0.7-0.4
					c-0.3,0-0.5,0.1-0.6,0.4c-0.2,0.2-0.2,0.6-0.2,1V28.8z"/>
				<path class="st1" d="M121.4,30.6c0-0.1-0.1-0.2-0.1-0.4c-0.2,0.3-0.5,0.5-0.9,0.5c-0.4,0-0.6-0.1-0.8-0.3s-0.3-0.5-0.3-0.9
					c0-0.4,0.1-0.7,0.4-1c0.3-0.2,0.7-0.4,1.1-0.4h0.5v-0.4c0-0.2-0.1-0.4-0.2-0.5s-0.3-0.2-0.5-0.2c-0.2,0-0.4,0.1-0.5,0.2
					c-0.1,0.1-0.2,0.3-0.2,0.4h-0.7c0-0.2,0.1-0.4,0.2-0.6c0.1-0.2,0.3-0.3,0.5-0.4s0.4-0.2,0.7-0.2c0.4,0,0.7,0.1,0.9,0.3
					s0.3,0.5,0.3,0.9v2c0,0.3,0,0.6,0.1,0.8v0.1H121.4z M120.5,30.1c0.2,0,0.3,0,0.5-0.1s0.2-0.2,0.3-0.3v-0.9h-0.4
					c-0.3,0-0.6,0.1-0.7,0.2s-0.3,0.3-0.3,0.6c0,0.2,0,0.4,0.1,0.5S120.3,30.1,120.5,30.1z"/>
				<path class="st1" d="M123.6,26.7l0,0.4c0.2-0.3,0.6-0.4,1-0.4c0.4,0,0.8,0.2,0.9,0.6c0.2-0.4,0.6-0.6,1-0.6
					c0.7,0,1.1,0.5,1.1,1.4v2.7H127V28c0-0.3-0.1-0.5-0.2-0.6c-0.1-0.1-0.3-0.2-0.5-0.2c-0.2,0-0.4,0.1-0.5,0.2
					c-0.1,0.2-0.2,0.3-0.2,0.6v2.7H125V28c0-0.6-0.2-0.8-0.7-0.8c-0.3,0-0.6,0.2-0.7,0.5v3H123v-4H123.6z"/>
				<path class="st1" d="M130,30.7c-0.5,0-0.9-0.1-1.1-0.4c-0.3-0.3-0.4-0.7-0.4-1.3v-0.5c0-0.6,0.1-1.1,0.4-1.4
					c0.3-0.3,0.6-0.5,1.1-0.5c0.5,0,0.8,0.1,1,0.4s0.3,0.8,0.4,1.4v0.4h-2.2v0.1c0,0.4,0.1,0.7,0.2,0.9c0.2,0.2,0.4,0.3,0.7,0.3
					c0.2,0,0.4,0,0.5-0.1c0.1-0.1,0.3-0.2,0.4-0.3l0.3,0.4C131.1,30.5,130.6,30.7,130,30.7z M130,27.1c-0.3,0-0.5,0.1-0.6,0.3
					c-0.1,0.2-0.2,0.5-0.2,0.9h1.6v-0.1c0-0.4-0.1-0.6-0.2-0.8C130.4,27.2,130.2,27.1,130,27.1z"/>
				<path class="st1" d="M133.8,27.3c-0.1,0-0.2,0-0.3,0c-0.3,0-0.6,0.2-0.7,0.5v2.8h-0.7v-4h0.6l0,0.4c0.2-0.3,0.4-0.5,0.7-0.5
					c0.1,0,0.2,0,0.3,0.1L133.8,27.3z"/>
				<path class="st1" d="M135.2,25.6c0,0.1,0,0.2-0.1,0.3c-0.1,0.1-0.2,0.1-0.3,0.1c-0.1,0-0.2,0-0.3-0.1s-0.1-0.2-0.1-0.3
					s0-0.2,0.1-0.3c0.1-0.1,0.2-0.1,0.3-0.1c0.1,0,0.2,0,0.3,0.1C135.2,25.4,135.2,25.5,135.2,25.6z M135.1,30.6h-0.7v-4h0.7V30.6z"
					/>
				<path class="st1" d="M137.5,30.2c0.2,0,0.4-0.1,0.5-0.2s0.2-0.3,0.2-0.6h0.6c0,0.4-0.1,0.7-0.4,1c-0.3,0.3-0.6,0.4-0.9,0.4
					c-0.5,0-0.9-0.2-1.1-0.5c-0.3-0.3-0.4-0.8-0.4-1.4v-0.4c0-0.6,0.1-1.1,0.4-1.4c0.3-0.3,0.6-0.5,1.1-0.5c0.4,0,0.7,0.1,1,0.4
					c0.2,0.3,0.4,0.6,0.4,1.1h-0.6c0-0.3-0.1-0.5-0.2-0.7c-0.1-0.1-0.3-0.2-0.5-0.2c-0.3,0-0.5,0.1-0.6,0.3
					c-0.1,0.2-0.2,0.5-0.2,0.9v0.5c0,0.5,0.1,0.8,0.2,1C137,30.1,137.2,30.2,137.5,30.2z"/>
				<path class="st1" d="M141.7,30.6c0-0.1-0.1-0.2-0.1-0.4c-0.2,0.3-0.5,0.5-0.9,0.5c-0.4,0-0.6-0.1-0.8-0.3s-0.3-0.5-0.3-0.9
					c0-0.4,0.1-0.7,0.4-1c0.3-0.2,0.7-0.4,1.1-0.4h0.5v-0.4c0-0.2-0.1-0.4-0.2-0.5s-0.3-0.2-0.5-0.2c-0.2,0-0.4,0.1-0.5,0.2
					c-0.1,0.1-0.2,0.3-0.2,0.4h-0.7c0-0.2,0.1-0.4,0.2-0.6c0.1-0.2,0.3-0.3,0.5-0.4c0.2-0.1,0.4-0.2,0.7-0.2c0.4,0,0.7,0.1,0.9,0.3
					s0.3,0.5,0.3,0.9v2c0,0.3,0,0.6,0.1,0.8v0.1H141.7z M140.8,30.1c0.2,0,0.3,0,0.5-0.1s0.2-0.2,0.3-0.3v-0.9h-0.4
					c-0.3,0-0.6,0.1-0.7,0.2c-0.2,0.1-0.3,0.3-0.3,0.6c0,0.2,0,0.4,0.1,0.5S140.6,30.1,140.8,30.1z"/>
				<path class="st1" d="M143.9,26.7l0,0.4c0.3-0.3,0.6-0.5,1-0.5c0.7,0,1.1,0.5,1.1,1.4v2.6h-0.6V28c0-0.3-0.1-0.5-0.2-0.7
					c-0.1-0.1-0.3-0.2-0.5-0.2c-0.2,0-0.3,0.1-0.4,0.2c-0.1,0.1-0.2,0.2-0.3,0.4v2.9h-0.7v-4H143.9z"/>
				<path class="st1" d="M148.9,30.6c0-0.1-0.1-0.2-0.1-0.4c-0.2,0.3-0.5,0.5-0.9,0.5c-0.4,0-0.6-0.1-0.8-0.3s-0.3-0.5-0.3-0.9
					c0-0.4,0.1-0.7,0.4-1c0.3-0.2,0.7-0.4,1.1-0.4h0.5v-0.4c0-0.2-0.1-0.4-0.2-0.5s-0.3-0.2-0.5-0.2c-0.2,0-0.4,0.1-0.5,0.2
					c-0.1,0.1-0.2,0.3-0.2,0.4h-0.7c0-0.2,0.1-0.4,0.2-0.6c0.1-0.2,0.3-0.3,0.5-0.4c0.2-0.1,0.4-0.2,0.7-0.2c0.4,0,0.7,0.1,0.9,0.3
					s0.3,0.5,0.3,0.9v2c0,0.3,0,0.6,0.1,0.8v0.1H148.9z M148.1,30.1c0.2,0,0.3,0,0.5-0.1s0.2-0.2,0.3-0.3v-0.9h-0.4
					c-0.3,0-0.6,0.1-0.7,0.2s-0.3,0.3-0.3,0.6c0,0.2,0,0.4,0.1,0.5S147.9,30.1,148.1,30.1z"/>
				<path class="st1" d="M152.1,28.5c0-0.6,0.1-1.1,0.3-1.4c0.2-0.3,0.6-0.5,1-0.5c0.4,0,0.7,0.2,0.9,0.5V25h0.7v5.6h-0.6l0-0.4
					c-0.2,0.3-0.5,0.5-0.9,0.5c-0.4,0-0.7-0.2-1-0.5c-0.2-0.3-0.4-0.8-0.4-1.4V28.5z M152.7,28.8c0,0.4,0.1,0.8,0.2,1
					c0.1,0.2,0.3,0.3,0.6,0.3c0.3,0,0.6-0.2,0.7-0.5v-2c-0.2-0.3-0.4-0.5-0.7-0.5c-0.3,0-0.5,0.1-0.6,0.3c-0.1,0.2-0.2,0.5-0.2,1
					V28.8z"/>
				<path class="st1" d="M157.4,30.7c-0.5,0-0.9-0.1-1.1-0.4c-0.3-0.3-0.4-0.7-0.4-1.3v-0.5c0-0.6,0.1-1.1,0.4-1.4s0.6-0.5,1.1-0.5
					c0.5,0,0.8,0.1,1,0.4s0.3,0.8,0.4,1.4v0.4h-2.2v0.1c0,0.4,0.1,0.7,0.2,0.9c0.2,0.2,0.4,0.3,0.7,0.3c0.2,0,0.4,0,0.5-0.1
					s0.3-0.2,0.4-0.3l0.3,0.4C158.4,30.5,158,30.7,157.4,30.7z M157.3,27.1c-0.3,0-0.5,0.1-0.6,0.3c-0.1,0.2-0.2,0.5-0.2,0.9h1.6
					v-0.1c0-0.4-0.1-0.6-0.2-0.8C157.7,27.2,157.5,27.1,157.3,27.1z"/>
			</g>
			<g>
				<path class="st1" d="M104.3,36.6c0,0.6-0.2,1-0.5,1.3c-0.3,0.3-0.7,0.5-1.2,0.5c-0.5,0-1-0.2-1.3-0.6c-0.3-0.4-0.5-1-0.5-1.7v-1
					c0-0.7,0.2-1.2,0.5-1.7c0.3-0.4,0.8-0.6,1.3-0.6c0.5,0,0.9,0.2,1.2,0.5s0.4,0.8,0.5,1.3h-0.7c0-0.4-0.1-0.7-0.3-0.9
					s-0.4-0.3-0.7-0.3c-0.4,0-0.6,0.1-0.8,0.4c-0.2,0.3-0.3,0.7-0.3,1.3v1c0,0.5,0.1,1,0.3,1.2s0.4,0.4,0.8,0.4s0.6-0.1,0.8-0.3
					c0.2-0.2,0.2-0.5,0.3-0.9H104.3z"/>
				<path class="st1" d="M105.8,33.3c0,0.1,0,0.2-0.1,0.3s-0.2,0.1-0.3,0.1c-0.1,0-0.2,0-0.3-0.1s-0.1-0.2-0.1-0.3s0-0.2,0.1-0.3
					c0.1-0.1,0.2-0.1,0.3-0.1s0.2,0,0.3,0.1C105.8,33.1,105.8,33.2,105.8,33.3z M105.8,38.3h-0.7v-4h0.7V38.3z"/>
				<path class="st1" d="M108.2,38.4c-0.5,0-0.9-0.1-1.1-0.4c-0.3-0.3-0.4-0.7-0.4-1.3v-0.5c0-0.6,0.1-1.1,0.4-1.4
					c0.3-0.3,0.6-0.5,1.1-0.5c0.5,0,0.8,0.1,1,0.4s0.3,0.8,0.4,1.4v0.4h-2.2v0.1c0,0.4,0.1,0.7,0.2,0.9c0.2,0.2,0.4,0.3,0.7,0.3
					c0.2,0,0.4,0,0.5-0.1c0.1-0.1,0.3-0.2,0.4-0.3l0.3,0.4C109.2,38.2,108.8,38.4,108.2,38.4z M108.1,34.8c-0.3,0-0.5,0.1-0.6,0.3
					c-0.1,0.2-0.2,0.5-0.2,0.9h1.6v-0.1c0-0.4-0.1-0.6-0.2-0.8C108.6,34.9,108.4,34.8,108.1,34.8z"/>
				<path class="st1" d="M110.9,34.3l0,0.4c0.3-0.3,0.6-0.5,1-0.5c0.7,0,1.1,0.5,1.1,1.4v2.6h-0.6v-2.6c0-0.3-0.1-0.5-0.2-0.7
					s-0.3-0.2-0.5-0.2c-0.2,0-0.3,0.1-0.4,0.2s-0.2,0.2-0.3,0.4v2.9h-0.7v-4H110.9z"/>
				<path class="st1" d="M115.3,37.8c0.2,0,0.4-0.1,0.5-0.2c0.1-0.1,0.2-0.3,0.2-0.6h0.6c0,0.4-0.1,0.7-0.4,1
					c-0.3,0.3-0.6,0.4-0.9,0.4c-0.5,0-0.9-0.2-1.1-0.5c-0.3-0.3-0.4-0.8-0.4-1.4v-0.4c0-0.6,0.1-1.1,0.4-1.4
					c0.3-0.3,0.6-0.5,1.1-0.5c0.4,0,0.7,0.1,1,0.4c0.2,0.3,0.4,0.6,0.4,1.1h-0.6c0-0.3-0.1-0.5-0.2-0.7c-0.1-0.1-0.3-0.2-0.5-0.2
					c-0.3,0-0.5,0.1-0.6,0.3c-0.1,0.2-0.2,0.5-0.2,0.9v0.5c0,0.5,0.1,0.8,0.2,1C114.8,37.7,115,37.8,115.3,37.8z"/>
				<path class="st1" d="M118.2,33.3c0,0.1,0,0.2-0.1,0.3c-0.1,0.1-0.2,0.1-0.3,0.1c-0.1,0-0.2,0-0.3-0.1c-0.1-0.1-0.1-0.2-0.1-0.3
					s0-0.2,0.1-0.3c0.1-0.1,0.2-0.1,0.3-0.1c0.1,0,0.2,0,0.3,0.1C118.2,33.1,118.2,33.2,118.2,33.3z M118.1,38.3h-0.7v-4h0.7V38.3z"
					/>
				<path class="st1" d="M121.2,38.3c0-0.1-0.1-0.2-0.1-0.4c-0.2,0.3-0.5,0.5-0.9,0.5c-0.4,0-0.6-0.1-0.8-0.3s-0.3-0.5-0.3-0.9
					c0-0.4,0.1-0.7,0.4-1c0.3-0.2,0.7-0.4,1.1-0.4h0.5v-0.4c0-0.2-0.1-0.4-0.2-0.5s-0.3-0.2-0.5-0.2c-0.2,0-0.4,0.1-0.5,0.2
					c-0.1,0.1-0.2,0.3-0.2,0.4h-0.7c0-0.2,0.1-0.4,0.2-0.6c0.1-0.2,0.3-0.3,0.5-0.4c0.2-0.1,0.4-0.2,0.7-0.2c0.4,0,0.7,0.1,0.9,0.3
					s0.3,0.5,0.3,0.9v2c0,0.3,0,0.6,0.1,0.8v0.1H121.2z M120.3,37.8c0.2,0,0.3,0,0.5-0.1s0.2-0.2,0.3-0.3v-0.9h-0.4
					c-0.3,0-0.6,0.1-0.7,0.2c-0.2,0.1-0.3,0.3-0.3,0.6c0,0.2,0,0.4,0.1,0.5S120.1,37.8,120.3,37.8z"/>
				<path class="st1" d="M124.7,37.3c0-0.1-0.1-0.3-0.2-0.4s-0.3-0.2-0.6-0.4c-0.3-0.1-0.6-0.3-0.7-0.4c-0.1-0.1-0.2-0.2-0.3-0.4
					s-0.1-0.3-0.1-0.5c0-0.3,0.1-0.6,0.4-0.8c0.2-0.2,0.5-0.3,0.9-0.3c0.4,0,0.7,0.1,0.9,0.3c0.2,0.2,0.4,0.5,0.4,0.9h-0.6
					c0-0.2-0.1-0.3-0.2-0.5c-0.1-0.1-0.3-0.2-0.5-0.2c-0.2,0-0.3,0-0.5,0.1c-0.1,0.1-0.2,0.2-0.2,0.4c0,0.1,0,0.2,0.1,0.3
					c0.1,0.1,0.3,0.2,0.6,0.3c0.5,0.2,0.8,0.4,1,0.6c0.2,0.2,0.3,0.4,0.3,0.7c0,0.3-0.1,0.6-0.4,0.8c-0.2,0.2-0.6,0.3-1,0.3
					c-0.4,0-0.8-0.1-1-0.4c-0.3-0.2-0.4-0.5-0.4-0.9h0.7c0,0.2,0.1,0.4,0.2,0.5c0.1,0.1,0.3,0.2,0.5,0.2c0.2,0,0.4,0,0.5-0.1
					C124.6,37.6,124.7,37.4,124.7,37.3z"/>
				<path class="st1" d="M130.4,36.9c0-0.3-0.1-0.5-0.2-0.6c-0.1-0.1-0.4-0.3-0.8-0.4s-0.7-0.3-0.9-0.4c-0.2-0.1-0.3-0.3-0.4-0.5
					c-0.1-0.2-0.1-0.4-0.1-0.7c0-0.4,0.1-0.8,0.4-1c0.3-0.3,0.7-0.4,1.1-0.4c0.3,0,0.6,0.1,0.8,0.2s0.4,0.3,0.6,0.6
					c0.1,0.2,0.2,0.5,0.2,0.8h-0.7c0-0.3-0.1-0.6-0.2-0.8c-0.2-0.2-0.4-0.3-0.7-0.3c-0.3,0-0.5,0.1-0.6,0.2
					c-0.1,0.2-0.2,0.4-0.2,0.6c0,0.2,0.1,0.4,0.2,0.6c0.2,0.2,0.4,0.3,0.7,0.4c0.5,0.2,0.9,0.4,1.1,0.6s0.3,0.6,0.3,1
					c0,0.4-0.1,0.8-0.4,1c-0.3,0.3-0.7,0.4-1.2,0.4c-0.3,0-0.6-0.1-0.9-0.2c-0.3-0.1-0.5-0.3-0.6-0.6c-0.2-0.2-0.2-0.5-0.2-0.8h0.7
					c0,0.3,0.1,0.6,0.3,0.8c0.2,0.2,0.4,0.3,0.8,0.3c0.3,0,0.5-0.1,0.7-0.2C130.3,37.4,130.4,37.2,130.4,36.9z"/>
				<path class="st1" d="M131.7,36.1c0-0.6,0.1-1,0.4-1.4s0.7-0.5,1.1-0.5c0.5,0,0.8,0.2,1.1,0.5c0.3,0.3,0.4,0.8,0.4,1.3v0.4
					c0,0.6-0.1,1-0.4,1.4c-0.3,0.3-0.7,0.5-1.1,0.5c-0.5,0-0.8-0.2-1.1-0.5c-0.3-0.3-0.4-0.8-0.4-1.3V36.1z M132.3,36.5
					c0,0.4,0.1,0.7,0.2,1c0.2,0.2,0.4,0.4,0.6,0.4c0.6,0,0.9-0.4,0.9-1.2v-0.4c0-0.4-0.1-0.7-0.2-1c-0.2-0.2-0.4-0.4-0.7-0.4
					c-0.3,0-0.5,0.1-0.6,0.4c-0.2,0.2-0.2,0.6-0.2,1V36.5z"/>
				<path class="st1" d="M137,37.8c0.2,0,0.4-0.1,0.5-0.2s0.2-0.3,0.2-0.6h0.6c0,0.4-0.2,0.7-0.4,1c-0.3,0.3-0.6,0.4-0.9,0.4
					c-0.5,0-0.9-0.2-1.1-0.5c-0.3-0.3-0.4-0.8-0.4-1.4v-0.4c0-0.6,0.1-1.1,0.4-1.4c0.3-0.3,0.6-0.5,1.1-0.5c0.4,0,0.7,0.1,1,0.4
					c0.2,0.3,0.4,0.6,0.4,1.1h-0.6c0-0.3-0.1-0.5-0.2-0.7c-0.1-0.1-0.3-0.2-0.5-0.2c-0.3,0-0.5,0.1-0.6,0.3
					c-0.1,0.2-0.2,0.5-0.2,0.9v0.5c0,0.5,0.1,0.8,0.2,1C136.5,37.7,136.7,37.8,137,37.8z"/>
				<path class="st1" d="M139.8,33.3c0,0.1,0,0.2-0.1,0.3c-0.1,0.1-0.2,0.1-0.3,0.1c-0.1,0-0.2,0-0.3-0.1c-0.1-0.1-0.1-0.2-0.1-0.3
					s0-0.2,0.1-0.3c0.1-0.1,0.2-0.1,0.3-0.1c0.1,0,0.2,0,0.3,0.1C139.8,33.1,139.8,33.2,139.8,33.3z M139.8,38.3h-0.7v-4h0.7V38.3z"
					/>
				<path class="st1" d="M142.8,38.3c0-0.1-0.1-0.2-0.1-0.4c-0.2,0.3-0.5,0.5-0.9,0.5c-0.4,0-0.6-0.1-0.8-0.3s-0.3-0.5-0.3-0.9
					c0-0.4,0.1-0.7,0.4-1c0.3-0.2,0.7-0.4,1.1-0.4h0.5v-0.4c0-0.2-0.1-0.4-0.2-0.5s-0.3-0.2-0.5-0.2c-0.2,0-0.4,0.1-0.5,0.2
					c-0.1,0.1-0.2,0.3-0.2,0.4h-0.7c0-0.2,0.1-0.4,0.2-0.6c0.1-0.2,0.3-0.3,0.5-0.4c0.2-0.1,0.4-0.2,0.7-0.2c0.4,0,0.7,0.1,0.9,0.3
					s0.3,0.5,0.3,0.9v2c0,0.3,0,0.6,0.1,0.8v0.1H142.8z M142,37.8c0.2,0,0.3,0,0.5-0.1s0.2-0.2,0.3-0.3v-0.9h-0.4
					c-0.3,0-0.6,0.1-0.7,0.2s-0.3,0.3-0.3,0.6c0,0.2,0,0.4,0.1,0.5S141.8,37.8,142,37.8z"/>
				<path class="st1" d="M145.1,38.3h-0.7v-5.6h0.7V38.3z"/>
				<path class="st1" d="M147.6,38.4c-0.5,0-0.9-0.1-1.1-0.4c-0.3-0.3-0.4-0.7-0.4-1.3v-0.5c0-0.6,0.1-1.1,0.4-1.4
					c0.3-0.3,0.6-0.5,1.1-0.5c0.5,0,0.8,0.1,1,0.4s0.3,0.8,0.4,1.4v0.4h-2.2v0.1c0,0.4,0.1,0.7,0.2,0.9c0.2,0.2,0.4,0.3,0.7,0.3
					c0.2,0,0.4,0,0.5-0.1c0.1-0.1,0.3-0.2,0.4-0.3l0.3,0.4C148.6,38.2,148.1,38.4,147.6,38.4z M147.5,34.8c-0.3,0-0.5,0.1-0.6,0.3
					c-0.1,0.2-0.2,0.5-0.2,0.9h1.6v-0.1c0-0.4-0.1-0.6-0.2-0.8C147.9,34.9,147.7,34.8,147.5,34.8z"/>
				<path class="st1" d="M151.6,37.3c0-0.1-0.1-0.3-0.2-0.4s-0.3-0.2-0.6-0.4c-0.4-0.1-0.6-0.3-0.7-0.4c-0.1-0.1-0.3-0.2-0.3-0.4
					c-0.1-0.1-0.1-0.3-0.1-0.5c0-0.3,0.1-0.6,0.4-0.8c0.2-0.2,0.5-0.3,0.9-0.3c0.4,0,0.7,0.1,0.9,0.3s0.4,0.5,0.4,0.9h-0.6
					c0-0.2-0.1-0.3-0.2-0.5c-0.1-0.1-0.3-0.2-0.5-0.2c-0.2,0-0.3,0-0.5,0.1c-0.1,0.1-0.2,0.2-0.2,0.4c0,0.1,0,0.2,0.1,0.3
					c0.1,0.1,0.3,0.2,0.6,0.3c0.5,0.2,0.8,0.4,1,0.6c0.2,0.2,0.3,0.4,0.3,0.7c0,0.3-0.1,0.6-0.4,0.8c-0.2,0.2-0.6,0.3-1,0.3
					c-0.4,0-0.8-0.1-1-0.4c-0.3-0.2-0.4-0.5-0.4-0.9h0.7c0,0.2,0.1,0.4,0.2,0.5c0.1,0.1,0.3,0.2,0.5,0.2c0.2,0,0.4,0,0.5-0.1
					C151.5,37.6,151.6,37.4,151.6,37.3z"/>
				<path class="st1" d="M153.1,37.9c0-0.1,0-0.2,0.1-0.3s0.2-0.1,0.3-0.1s0.2,0,0.3,0.1s0.1,0.2,0.1,0.3c0,0.1,0,0.2-0.1,0.3
					c-0.1,0.1-0.2,0.1-0.3,0.1s-0.2,0-0.3-0.1C153.2,38.1,153.1,38.1,153.1,37.9z"/>
			</g>
			<g>
				<path class="st1" d="M103.2,44.6c0-0.3-0.1-0.5-0.2-0.6c-0.1-0.1-0.4-0.3-0.8-0.4c-0.4-0.1-0.7-0.3-0.9-0.4
					c-0.2-0.1-0.3-0.3-0.4-0.5c-0.1-0.2-0.1-0.4-0.1-0.7c0-0.4,0.1-0.8,0.4-1s0.7-0.4,1.1-0.4c0.3,0,0.6,0.1,0.8,0.2
					c0.2,0.1,0.4,0.3,0.6,0.6c0.1,0.2,0.2,0.5,0.2,0.8h-0.7c0-0.3-0.1-0.6-0.2-0.8c-0.2-0.2-0.4-0.3-0.7-0.3c-0.3,0-0.5,0.1-0.6,0.2
					c-0.1,0.2-0.2,0.4-0.2,0.6c0,0.2,0.1,0.4,0.2,0.6c0.2,0.2,0.4,0.3,0.8,0.4c0.5,0.2,0.9,0.4,1.1,0.6s0.3,0.6,0.3,1
					c0,0.4-0.1,0.8-0.4,1c-0.3,0.3-0.7,0.4-1.2,0.4c-0.3,0-0.6-0.1-0.9-0.2c-0.3-0.1-0.5-0.3-0.6-0.6c-0.2-0.2-0.2-0.5-0.2-0.8h0.7
					c0,0.3,0.1,0.6,0.3,0.8c0.2,0.2,0.4,0.3,0.8,0.3c0.3,0,0.5-0.1,0.7-0.2C103.2,45.1,103.2,44.9,103.2,44.6z"/>
				<path class="st1" d="M106.1,46c-0.5,0-0.9-0.1-1.1-0.4c-0.3-0.3-0.4-0.7-0.4-1.3v-0.5c0-0.6,0.1-1.1,0.4-1.4s0.6-0.5,1.1-0.5
					c0.5,0,0.8,0.1,1,0.4c0.2,0.3,0.3,0.8,0.4,1.4v0.4h-2.2v0.1c0,0.4,0.1,0.7,0.2,0.9c0.2,0.2,0.4,0.3,0.7,0.3c0.2,0,0.4,0,0.5-0.1
					s0.3-0.2,0.4-0.3l0.3,0.4C107.1,45.8,106.7,46,106.1,46z M106.1,42.5c-0.3,0-0.5,0.1-0.6,0.3c-0.1,0.2-0.2,0.5-0.2,0.9h1.6v-0.1
					c0-0.4-0.1-0.6-0.2-0.8C106.5,42.6,106.3,42.5,106.1,42.5z"/>
				<path class="st1" d="M108.1,43.8c0-0.6,0.1-1.1,0.3-1.4c0.2-0.3,0.6-0.5,1-0.5c0.4,0,0.7,0.2,0.9,0.5v-2.1h0.7V46h-0.6l0-0.4
					c-0.2,0.3-0.5,0.5-0.9,0.5c-0.4,0-0.7-0.2-1-0.5c-0.2-0.3-0.4-0.8-0.4-1.4V43.8z M108.7,44.2c0,0.4,0.1,0.8,0.2,1
					c0.1,0.2,0.3,0.3,0.6,0.3c0.3,0,0.6-0.2,0.7-0.5v-2c-0.2-0.3-0.4-0.5-0.7-0.5c-0.3,0-0.5,0.1-0.6,0.3c-0.1,0.2-0.2,0.5-0.2,1
					V44.2z"/>
				<path class="st1" d="M113.4,46c-0.5,0-0.9-0.1-1.1-0.4c-0.3-0.3-0.4-0.7-0.4-1.3v-0.5c0-0.6,0.1-1.1,0.4-1.4s0.6-0.5,1.1-0.5
					c0.5,0,0.8,0.1,1,0.4c0.2,0.3,0.3,0.8,0.4,1.4v0.4h-2.2v0.1c0,0.4,0.1,0.7,0.2,0.9c0.2,0.2,0.4,0.3,0.7,0.3c0.2,0,0.4,0,0.5-0.1
					s0.3-0.2,0.4-0.3l0.3,0.4C114.4,45.8,114,46,113.4,46z M113.3,42.5c-0.3,0-0.5,0.1-0.6,0.3c-0.1,0.2-0.2,0.5-0.2,0.9h1.6v-0.1
					c0-0.4-0.1-0.6-0.2-0.8C113.7,42.6,113.6,42.5,113.3,42.5z"/>
				<path class="st1" d="M119.8,44.6H118l-0.4,1.4h-0.7l1.7-5.4h0.6l1.7,5.4h-0.7L119.8,44.6z M118.2,44h1.5l-0.7-2.4L118.2,44z"/>
				<path class="st1" d="M123.2,42.6c-0.1,0-0.2,0-0.3,0c-0.3,0-0.6,0.2-0.7,0.5V46h-0.7v-4h0.6l0,0.4c0.2-0.3,0.4-0.5,0.7-0.5
					c0.1,0,0.2,0,0.3,0.1L123.2,42.6z"/>
				<path class="st1" d="M123.6,43.8c0-0.6,0.1-1.1,0.3-1.4s0.6-0.5,1-0.5c0.4,0,0.7,0.2,0.9,0.5l0-0.4h0.6v4c0,0.5-0.1,0.9-0.4,1.1
					c-0.3,0.3-0.6,0.4-1.1,0.4c-0.2,0-0.4,0-0.7-0.1c-0.2-0.1-0.4-0.2-0.5-0.4l0.3-0.4c0.3,0.3,0.6,0.4,0.9,0.4
					c0.5,0,0.8-0.3,0.8-0.9v-0.5c-0.2,0.3-0.5,0.5-0.9,0.5c-0.4,0-0.7-0.2-1-0.5c-0.2-0.3-0.3-0.8-0.4-1.3V43.8z M124.3,44.2
					c0,0.4,0.1,0.8,0.2,1s0.3,0.3,0.6,0.3c0.3,0,0.6-0.2,0.7-0.5v-2c-0.2-0.3-0.4-0.5-0.7-0.5c-0.3,0-0.5,0.1-0.6,0.3
					c-0.1,0.2-0.2,0.5-0.2,1V44.2z"/>
				<path class="st1" d="M128.9,46c-0.5,0-0.9-0.1-1.1-0.4c-0.3-0.3-0.4-0.7-0.4-1.3v-0.5c0-0.6,0.1-1.1,0.4-1.4
					c0.3-0.3,0.6-0.5,1.1-0.5c0.5,0,0.8,0.1,1,0.4s0.3,0.8,0.4,1.4v0.4H128v0.1c0,0.4,0.1,0.7,0.2,0.9c0.2,0.2,0.4,0.3,0.7,0.3
					c0.2,0,0.4,0,0.5-0.1c0.1-0.1,0.3-0.2,0.4-0.3l0.3,0.4C129.9,45.8,129.5,46,128.9,46z M128.8,42.5c-0.3,0-0.5,0.1-0.6,0.3
					c-0.1,0.2-0.2,0.5-0.2,0.9h1.6v-0.1c0-0.4-0.1-0.6-0.2-0.8S129.1,42.5,128.8,42.5z"/>
				<path class="st1" d="M131.6,42l0,0.4c0.3-0.3,0.6-0.5,1-0.5c0.7,0,1.1,0.5,1.1,1.4V46H133v-2.6c0-0.3-0.1-0.5-0.2-0.7
					s-0.3-0.2-0.5-0.2c-0.2,0-0.3,0.1-0.4,0.2s-0.2,0.2-0.3,0.4V46H131v-4H131.6z"/>
				<path class="st1" d="M135.5,41v1h0.6v0.5h-0.6V45c0,0.2,0,0.3,0.1,0.4c0.1,0.1,0.1,0.1,0.3,0.1c0.1,0,0.2,0,0.3,0l0,0.5
					c-0.1,0-0.3,0.1-0.5,0.1c-0.3,0-0.5-0.1-0.6-0.3s-0.2-0.4-0.2-0.8v-2.5h-0.6V42h0.6v-1H135.5z"/>
				<path class="st1" d="M137.6,40.9c0,0.1,0,0.2-0.1,0.3s-0.2,0.1-0.3,0.1c-0.1,0-0.2,0-0.3-0.1c-0.1-0.1-0.1-0.2-0.1-0.3
					s0-0.2,0.1-0.3c0.1-0.1,0.2-0.1,0.3-0.1c0.1,0,0.2,0,0.3,0.1C137.6,40.7,137.6,40.8,137.6,40.9z M137.6,46h-0.7v-4h0.7V46z"/>
				<path class="st1" d="M139.2,42l0,0.4c0.3-0.3,0.6-0.5,1-0.5c0.7,0,1.1,0.5,1.1,1.4V46h-0.6v-2.6c0-0.3-0.1-0.5-0.2-0.7
					c-0.1-0.1-0.3-0.2-0.5-0.2c-0.2,0-0.3,0.1-0.4,0.2s-0.2,0.2-0.3,0.4V46h-0.7v-4H139.2z"/>
				<path class="st1" d="M144.3,46c0-0.1-0.1-0.2-0.1-0.4c-0.2,0.3-0.5,0.5-0.9,0.5c-0.4,0-0.6-0.1-0.8-0.3s-0.3-0.5-0.3-0.9
					c0-0.4,0.1-0.7,0.4-1c0.3-0.2,0.7-0.4,1.1-0.4h0.5v-0.4c0-0.2-0.1-0.4-0.2-0.5s-0.3-0.2-0.5-0.2c-0.2,0-0.4,0.1-0.5,0.2
					c-0.1,0.1-0.2,0.3-0.2,0.4h-0.7c0-0.2,0.1-0.4,0.2-0.6c0.1-0.2,0.3-0.3,0.5-0.4c0.2-0.1,0.4-0.2,0.7-0.2c0.4,0,0.7,0.1,0.9,0.3
					s0.3,0.5,0.3,0.9v2c0,0.3,0,0.6,0.1,0.8V46H144.3z M143.4,45.4c0.2,0,0.3,0,0.5-0.1s0.2-0.2,0.3-0.3V44h-0.4
					c-0.3,0-0.6,0.1-0.7,0.2s-0.3,0.3-0.3,0.6c0,0.2,0,0.4,0.1,0.5S143.2,45.4,143.4,45.4z"/>
				<path class="st1" d="M145.9,45.6c0-0.1,0-0.2,0.1-0.3c0.1-0.1,0.2-0.1,0.3-0.1s0.2,0,0.3,0.1s0.1,0.2,0.1,0.3
					c0,0.1,0,0.2-0.1,0.3c-0.1,0.1-0.2,0.1-0.3,0.1s-0.2,0-0.3-0.1C145.9,45.8,145.9,45.7,145.9,45.6z"/>
			</g>
			<g>
				<path class="st1" d="M101.8,59.8v1.9h-1.1v-5.4h1.8c0.5,0,1,0.2,1.3,0.5c0.3,0.3,0.5,0.8,0.5,1.3s-0.2,0.9-0.5,1.3
					c-0.3,0.3-0.8,0.5-1.3,0.5H101.8z M101.8,58.9h0.8c0.2,0,0.4-0.1,0.5-0.2c0.1-0.1,0.2-0.3,0.2-0.6c0-0.3-0.1-0.5-0.2-0.6
					c-0.1-0.2-0.3-0.2-0.5-0.2h-0.8V58.9z"/>
				<path class="st1" d="M107,58.7l-0.3,0c-0.3,0-0.5,0.1-0.6,0.4v2.7H105v-4h1l0,0.4c0.2-0.3,0.4-0.5,0.7-0.5c0.1,0,0.2,0,0.3,0
					L107,58.7z"/>
				<path class="st1" d="M107.4,59.6c0-0.6,0.1-1.1,0.4-1.4c0.3-0.3,0.7-0.5,1.2-0.5c0.5,0,0.9,0.2,1.2,0.5c0.3,0.3,0.4,0.8,0.4,1.4
					v0.3c0,0.6-0.1,1.1-0.4,1.4s-0.7,0.5-1.2,0.5c-0.5,0-0.9-0.2-1.2-0.5c-0.3-0.3-0.4-0.8-0.4-1.4V59.6z M108.5,59.9
					c0,0.7,0.2,1.1,0.6,1.1c0.4,0,0.5-0.3,0.6-0.9l0-0.4c0-0.4-0.1-0.6-0.2-0.8c-0.1-0.2-0.2-0.3-0.4-0.3c-0.2,0-0.3,0.1-0.4,0.3
					c-0.1,0.2-0.2,0.4-0.2,0.8V59.9z"/>
				<path class="st1" d="M111.2,59.6c0-0.7,0.1-1.2,0.4-1.5c0.2-0.3,0.6-0.5,1-0.5c0.4,0,0.6,0.1,0.8,0.4l0-0.4h0.9v4
					c0,0.5-0.1,0.9-0.4,1.2c-0.3,0.3-0.7,0.4-1.2,0.4c-0.2,0-0.5,0-0.7-0.1c-0.2-0.1-0.4-0.2-0.5-0.3l0.4-0.7
					c0.1,0.1,0.2,0.2,0.4,0.3c0.2,0.1,0.3,0.1,0.5,0.1c0.2,0,0.4-0.1,0.5-0.2c0.1-0.1,0.2-0.3,0.2-0.5v-0.3
					c-0.2,0.3-0.5,0.4-0.8,0.4c-0.4,0-0.8-0.2-1-0.5s-0.4-0.8-0.4-1.4V59.6z M112.3,59.9c0,0.4,0,0.6,0.1,0.8s0.3,0.3,0.5,0.3
					c0.2,0,0.4-0.1,0.5-0.2v-1.9c-0.1-0.2-0.3-0.3-0.5-0.3c-0.2,0-0.4,0.1-0.5,0.3c-0.1,0.2-0.2,0.4-0.2,0.8V59.9z"/>
				<path class="st1" d="M117.2,58.7l-0.3,0c-0.3,0-0.5,0.1-0.6,0.4v2.7h-1.1v-4h1l0,0.4c0.2-0.3,0.4-0.5,0.7-0.5c0.1,0,0.2,0,0.3,0
					L117.2,58.7z"/>
				<path class="st1" d="M119.6,61.7c0-0.1-0.1-0.2-0.1-0.3c-0.2,0.3-0.4,0.4-0.8,0.4c-0.3,0-0.6-0.1-0.8-0.3
					c-0.2-0.2-0.3-0.5-0.3-0.9c0-0.4,0.1-0.7,0.4-1c0.3-0.2,0.7-0.3,1.2-0.4h0.3V59c0-0.2,0-0.3-0.1-0.4c-0.1-0.1-0.2-0.1-0.3-0.1
					c-0.3,0-0.4,0.2-0.4,0.5h-1.1c0-0.4,0.1-0.7,0.4-0.9c0.3-0.2,0.6-0.4,1.1-0.4c0.4,0,0.8,0.1,1,0.3c0.2,0.2,0.4,0.6,0.4,1v1.9
					c0,0.3,0.1,0.6,0.1,0.8v0.1H119.6z M119,61c0.1,0,0.2,0,0.3-0.1c0.1,0,0.1-0.1,0.2-0.2v-0.8h-0.3c-0.2,0-0.3,0.1-0.4,0.2
					c-0.1,0.1-0.2,0.3-0.2,0.5C118.6,60.8,118.8,61,119,61z"/>
				<path class="st1" d="M122.3,57.7l0,0.4c0.2-0.3,0.5-0.4,0.9-0.4c0.4,0,0.7,0.2,0.9,0.5c0.2-0.4,0.6-0.5,1-0.5
					c0.7,0,1.1,0.5,1.1,1.5v2.6h-1.1v-2.6c0-0.2,0-0.4-0.1-0.5c-0.1-0.1-0.2-0.1-0.3-0.1c-0.2,0-0.3,0.1-0.4,0.4l0,0.1v2.7h-1.1
					v-2.6c0-0.2,0-0.4-0.1-0.5c-0.1-0.1-0.2-0.2-0.3-0.2c-0.2,0-0.3,0.1-0.4,0.3v2.9h-1.1v-4H122.3z"/>
				<path class="st1" d="M128.8,61.7c0-0.1-0.1-0.2-0.1-0.3c-0.2,0.3-0.4,0.4-0.8,0.4c-0.3,0-0.6-0.1-0.8-0.3
					c-0.2-0.2-0.3-0.5-0.3-0.9c0-0.4,0.1-0.7,0.4-1s0.7-0.3,1.2-0.4h0.3V59c0-0.2,0-0.3-0.1-0.4c-0.1-0.1-0.2-0.1-0.3-0.1
					c-0.3,0-0.4,0.2-0.4,0.5h-1.1c0-0.4,0.1-0.7,0.4-0.9c0.3-0.2,0.6-0.4,1.1-0.4c0.4,0,0.8,0.1,1,0.3c0.2,0.2,0.4,0.6,0.4,1v1.9
					c0,0.3,0.1,0.6,0.1,0.8v0.1H128.8z M128.2,61c0.1,0,0.2,0,0.3-0.1c0.1,0,0.1-0.1,0.2-0.2v-0.8h-0.3c-0.2,0-0.3,0.1-0.4,0.2
					c-0.1,0.1-0.2,0.3-0.2,0.5C127.9,60.8,128,61,128.2,61z"/>
				<path class="st1" d="M103.6,68.5h-1.7V70h2v0.9h-3.1v-5.4h3.1v0.9h-2v1.3h1.7V68.5z"/>
				<path class="st1" d="M104.3,68.8c0-0.7,0.1-1.2,0.3-1.5c0.2-0.3,0.5-0.5,1-0.5c0.3,0,0.6,0.1,0.8,0.4v-2h1.1v5.7h-1l0-0.4
					c-0.2,0.3-0.5,0.5-0.8,0.5c-0.4,0-0.7-0.2-1-0.5s-0.3-0.8-0.3-1.4V68.8z M105.4,69c0,0.4,0,0.7,0.1,0.8c0.1,0.2,0.2,0.2,0.4,0.2
					c0.2,0,0.4-0.1,0.5-0.3V68c-0.1-0.2-0.3-0.3-0.5-0.3c-0.2,0-0.3,0.1-0.4,0.2s-0.1,0.4-0.1,0.8V69z"/>
				<path class="st1" d="M110.2,70.5c-0.2,0.3-0.5,0.4-0.9,0.4c-0.4,0-0.6-0.1-0.8-0.4c-0.2-0.3-0.3-0.6-0.3-1.1v-2.6h1.1v2.6
					c0,0.4,0.1,0.6,0.4,0.6c0.2,0,0.4-0.1,0.5-0.3v-2.9h1.1v4h-1L110.2,70.5z"/>
				<path class="st1" d="M113.4,70.1c0.3,0,0.5-0.2,0.5-0.6h1c0,0.4-0.1,0.8-0.4,1.1c-0.3,0.3-0.6,0.4-1,0.4c-0.5,0-0.9-0.2-1.2-0.5
					s-0.4-0.8-0.4-1.4v-0.3c0-0.6,0.1-1.1,0.4-1.4c0.3-0.3,0.7-0.5,1.2-0.5c0.4,0,0.8,0.1,1,0.4c0.3,0.3,0.4,0.7,0.4,1.2h-1
					c0-0.2,0-0.4-0.1-0.5c-0.1-0.1-0.2-0.2-0.4-0.2c-0.2,0-0.3,0.1-0.4,0.2c-0.1,0.1-0.1,0.4-0.1,0.8V69c0,0.3,0,0.6,0,0.7
					s0.1,0.2,0.2,0.3S113.3,70.1,113.4,70.1z"/>
				<path class="st1" d="M117.4,70.9c0-0.1-0.1-0.2-0.1-0.3c-0.2,0.3-0.4,0.4-0.8,0.4c-0.3,0-0.6-0.1-0.8-0.3
					c-0.2-0.2-0.3-0.5-0.3-0.9c0-0.4,0.1-0.7,0.4-1c0.3-0.2,0.7-0.3,1.2-0.4h0.3v-0.3c0-0.2,0-0.3-0.1-0.4c-0.1-0.1-0.2-0.1-0.3-0.1
					c-0.3,0-0.4,0.2-0.4,0.5h-1.1c0-0.4,0.1-0.7,0.4-0.9c0.3-0.2,0.6-0.4,1.1-0.4c0.4,0,0.8,0.1,1,0.3c0.2,0.2,0.4,0.6,0.4,1V70
					c0,0.3,0.1,0.6,0.1,0.8v0.1H117.4z M116.8,70.1c0.1,0,0.2,0,0.3-0.1c0.1,0,0.1-0.1,0.2-0.2v-0.8H117c-0.2,0-0.3,0.1-0.4,0.2
					c-0.1,0.1-0.2,0.3-0.2,0.5C116.4,70,116.5,70.1,116.8,70.1z"/>
				<path class="st1" d="M120.5,70.1c0.3,0,0.5-0.2,0.5-0.6h1c0,0.4-0.1,0.8-0.4,1.1c-0.3,0.3-0.6,0.4-1,0.4c-0.5,0-0.9-0.2-1.2-0.5
					s-0.4-0.8-0.4-1.4v-0.3c0-0.6,0.1-1.1,0.4-1.4s0.7-0.5,1.2-0.5c0.4,0,0.8,0.1,1,0.4c0.3,0.3,0.4,0.7,0.4,1.2h-1
					c0-0.2,0-0.4-0.1-0.5c-0.1-0.1-0.2-0.2-0.4-0.2c-0.2,0-0.3,0.1-0.4,0.2c-0.1,0.1-0.1,0.4-0.1,0.8V69c0,0.3,0,0.6,0,0.7
					c0,0.1,0.1,0.2,0.2,0.3S120.4,70.1,120.5,70.1z"/>
				<path class="st1" d="M122.5,65.8c0-0.2,0.1-0.3,0.2-0.4c0.1-0.1,0.2-0.2,0.4-0.2c0.2,0,0.3,0.1,0.4,0.2c0.1,0.1,0.2,0.2,0.2,0.4
					c0,0.2-0.1,0.3-0.2,0.4s-0.2,0.2-0.4,0.2c-0.2,0-0.3-0.1-0.4-0.2C122.6,66.1,122.5,66,122.5,65.8z M123.7,70.9h-1.1v-4h1.1V70.9
					z"/>
				<path class="st1" d="M124.3,68.7c0-0.6,0.1-1.1,0.4-1.4c0.3-0.3,0.7-0.5,1.2-0.5c0.5,0,0.9,0.2,1.2,0.5c0.3,0.3,0.4,0.8,0.4,1.4
					V69c0,0.6-0.1,1.1-0.4,1.4c-0.3,0.3-0.7,0.5-1.2,0.5c-0.5,0-0.9-0.2-1.2-0.5s-0.4-0.8-0.4-1.4V68.7z M125.4,69
					c0,0.7,0.2,1.1,0.6,1.1c0.4,0,0.5-0.3,0.6-0.9l0-0.4c0-0.4-0.1-0.6-0.2-0.8c-0.1-0.2-0.2-0.3-0.4-0.3c-0.2,0-0.3,0.1-0.4,0.3
					c-0.1,0.2-0.2,0.4-0.2,0.8V69z M126.2,65.2h1.2l-1,1.2h-0.9L126.2,65.2z"/>
				<path class="st1" d="M129.2,66.9l0,0.4c0.2-0.3,0.5-0.5,0.9-0.5c0.7,0,1,0.5,1.1,1.5v2.6h-1.1v-2.6c0-0.2,0-0.4-0.1-0.5
					s-0.2-0.2-0.4-0.2c-0.2,0-0.3,0.1-0.4,0.3v2.9h-1.1v-4H129.2z"/>
				<path class="st1" d="M135.7,70.9c0-0.1-0.1-0.2-0.1-0.3c-0.2,0.3-0.4,0.4-0.8,0.4c-0.3,0-0.6-0.1-0.8-0.3
					c-0.2-0.2-0.3-0.5-0.3-0.9c0-0.4,0.1-0.7,0.4-1c0.3-0.2,0.7-0.3,1.2-0.4h0.3v-0.3c0-0.2,0-0.3-0.1-0.4c-0.1-0.1-0.2-0.1-0.3-0.1
					c-0.3,0-0.4,0.2-0.4,0.5h-1.1c0-0.4,0.1-0.7,0.4-0.9c0.3-0.2,0.6-0.4,1.1-0.4c0.4,0,0.8,0.1,1,0.3c0.2,0.2,0.4,0.6,0.4,1V70
					c0,0.3,0.1,0.6,0.1,0.8v0.1H135.7z M135,70.1c0.1,0,0.2,0,0.3-0.1c0.1,0,0.1-0.1,0.2-0.2v-0.8h-0.3c-0.2,0-0.3,0.1-0.4,0.2
					c-0.1,0.1-0.2,0.3-0.2,0.5C134.7,70,134.8,70.1,135,70.1z"/>
				<path class="st1" d="M139.1,70.9v-5.4h1.4c0.6,0,1.1,0.2,1.5,0.6c0.4,0.4,0.6,1,0.6,1.7v0.9c0,0.7-0.2,1.3-0.6,1.7
					c-0.4,0.4-0.9,0.6-1.6,0.6H139.1z M140.2,66.4V70h0.3c0.4,0,0.6-0.1,0.8-0.3s0.2-0.5,0.2-1v-0.9c0-0.5-0.1-0.9-0.2-1.1
					c-0.1-0.2-0.4-0.3-0.7-0.3H140.2z"/>
				<path class="st1" d="M143.4,65.8c0-0.2,0.1-0.3,0.2-0.4c0.1-0.1,0.2-0.2,0.4-0.2c0.2,0,0.3,0.1,0.4,0.2c0.1,0.1,0.2,0.2,0.2,0.4
					c0,0.2-0.1,0.3-0.2,0.4c-0.1,0.1-0.2,0.2-0.4,0.2c-0.2,0-0.3-0.1-0.4-0.2S143.4,66,143.4,65.8z M144.5,70.9h-1.1v-4h1.1V70.9z"
					/>
				<path class="st1" d="M147.1,69.8c0-0.1,0-0.2-0.1-0.2c-0.1-0.1-0.3-0.2-0.6-0.3c-0.4-0.2-0.7-0.4-0.9-0.5s-0.2-0.4-0.2-0.7
					c0-0.4,0.1-0.6,0.4-0.9c0.3-0.2,0.6-0.3,1-0.3c0.4,0,0.8,0.1,1.1,0.3c0.3,0.2,0.4,0.5,0.4,0.9h-1.1c0-0.3-0.1-0.5-0.4-0.5
					c-0.1,0-0.2,0-0.3,0.1c-0.1,0.1-0.1,0.2-0.1,0.3c0,0.1,0,0.2,0.1,0.2s0.3,0.2,0.6,0.3c0.4,0.2,0.7,0.3,0.9,0.5
					c0.2,0.2,0.3,0.4,0.3,0.8c0,0.4-0.1,0.6-0.4,0.9s-0.6,0.3-1.1,0.3c-0.3,0-0.6-0.1-0.8-0.2s-0.4-0.3-0.5-0.5
					c-0.1-0.2-0.2-0.4-0.2-0.7h1c0,0.2,0,0.3,0.1,0.4c0.1,0.1,0.2,0.1,0.4,0.1C147,70.2,147.1,70.1,147.1,69.8z"/>
				<path class="st1" d="M150,65.9v1h0.5v0.8H150v2c0,0.2,0,0.3,0.1,0.3c0,0.1,0.1,0.1,0.3,0.1c0.1,0,0.2,0,0.2,0l0,0.8
					c-0.2,0.1-0.4,0.1-0.6,0.1c-0.7,0-1-0.4-1-1.2v-2.1h-0.5v-0.8h0.5v-1H150z"/>
				<path class="st1" d="M153,70.9c0-0.1-0.1-0.2-0.1-0.3c-0.2,0.3-0.4,0.4-0.8,0.4c-0.3,0-0.6-0.1-0.8-0.3
					c-0.2-0.2-0.3-0.5-0.3-0.9c0-0.4,0.1-0.7,0.4-1c0.3-0.2,0.7-0.3,1.2-0.4h0.3v-0.3c0-0.2,0-0.3-0.1-0.4c-0.1-0.1-0.2-0.1-0.3-0.1
					c-0.3,0-0.4,0.2-0.4,0.5h-1.1c0-0.4,0.1-0.7,0.4-0.9c0.3-0.2,0.6-0.4,1.1-0.4c0.4,0,0.8,0.1,1,0.3s0.4,0.6,0.4,1V70
					c0,0.3,0.1,0.6,0.1,0.8v0.1H153z M152.4,70.1c0.1,0,0.2,0,0.3-0.1c0.1,0,0.1-0.1,0.2-0.2v-0.8h-0.3c-0.2,0-0.3,0.1-0.4,0.2
					c-0.1,0.1-0.2,0.3-0.2,0.5C152.1,70,152.2,70.1,152.4,70.1z"/>
				<path class="st1" d="M155.7,66.9l0,0.4c0.2-0.3,0.5-0.5,0.9-0.5c0.7,0,1,0.5,1.1,1.5v2.6h-1.1v-2.6c0-0.2,0-0.4-0.1-0.5
					s-0.2-0.2-0.4-0.2c-0.2,0-0.3,0.1-0.4,0.3v2.9h-1.1v-4H155.7z"/>
				<path class="st1" d="M159.9,70.1c0.3,0,0.5-0.2,0.5-0.6h1c0,0.4-0.1,0.8-0.4,1.1c-0.3,0.3-0.6,0.4-1,0.4c-0.5,0-0.9-0.2-1.2-0.5
					s-0.4-0.8-0.4-1.4v-0.3c0-0.6,0.1-1.1,0.4-1.4c0.3-0.3,0.7-0.5,1.2-0.5c0.4,0,0.8,0.1,1,0.4c0.3,0.3,0.4,0.7,0.4,1.2h-1
					c0-0.2,0-0.4-0.1-0.5s-0.2-0.2-0.4-0.2c-0.2,0-0.3,0.1-0.4,0.2s-0.1,0.4-0.1,0.8V69c0,0.3,0,0.6,0,0.7s0.1,0.2,0.2,0.3
					S159.8,70.1,159.9,70.1z"/>
				<path class="st1" d="M161.9,65.8c0-0.2,0.1-0.3,0.2-0.4c0.1-0.1,0.2-0.2,0.4-0.2c0.2,0,0.3,0.1,0.4,0.2c0.1,0.1,0.2,0.2,0.2,0.4
					c0,0.2-0.1,0.3-0.2,0.4c-0.1,0.1-0.2,0.2-0.4,0.2c-0.2,0-0.3-0.1-0.4-0.2S161.9,66,161.9,65.8z M163,70.9H162v-4h1.1V70.9z"/>
				<path class="st1" d="M165.8,70.9c0-0.1-0.1-0.2-0.1-0.3c-0.2,0.3-0.4,0.4-0.8,0.4c-0.3,0-0.6-0.1-0.8-0.3
					c-0.2-0.2-0.3-0.5-0.3-0.9c0-0.4,0.1-0.7,0.4-1c0.3-0.2,0.7-0.3,1.2-0.4h0.3v-0.3c0-0.2,0-0.3-0.1-0.4c-0.1-0.1-0.2-0.1-0.3-0.1
					c-0.3,0-0.4,0.2-0.4,0.5h-1.1c0-0.4,0.1-0.7,0.4-0.9c0.3-0.2,0.6-0.4,1.1-0.4c0.4,0,0.8,0.1,1,0.3s0.4,0.6,0.4,1V70
					c0,0.3,0.1,0.6,0.1,0.8v0.1H165.8z M165.2,70.1c0.1,0,0.2,0,0.3-0.1c0.1,0,0.1-0.1,0.2-0.2v-0.8h-0.3c-0.2,0-0.3,0.1-0.4,0.2
					c-0.1,0.1-0.2,0.3-0.2,0.5C164.8,70,164.9,70.1,165.2,70.1z"/>
				<path class="st1" d="M167.5,70.4c0-0.2,0.1-0.3,0.2-0.4c0.1-0.1,0.3-0.2,0.4-0.2c0.2,0,0.3,0.1,0.4,0.2c0.1,0.1,0.2,0.2,0.2,0.4
					c0,0.2-0.1,0.3-0.2,0.4c-0.1,0.1-0.3,0.2-0.4,0.2c-0.2,0-0.3-0.1-0.4-0.2S167.5,70.5,167.5,70.4z"/>
			</g>
		</g>
	</g>
	<g>
		<rect class="st2" width="87.4" height="87.4"/>
		<g>
			<path class="st1" d="M48.4,14.8c-0.9-0.1-1.9-0.2-2.8-0.2c-0.3,0-0.6,0-0.8,0h-1.1c-0.6,0-1.2,0-1.7,0c-0.6,0-1.3,0.1-1.9,0.1
				c-3.2,0.2-6.4,0.8-9.6,1.6c-0.1,0-0.2,0.1-0.3,0.1c0.1,0.1,0.2,0.1,0.3,0.2c0,0,0,0,0.1,0c0.2,0.1,0.2,0.2,0.4,0.2
				c0.3,0,0.5,0.1,0.7,0c0.5-0.1,0.5-0.2,0.9,0.1c0.2,0.1,0.2,0.2,0.2,0.4c0,0.2,0,0.3,0.2,0.4c0.2,0.1,0.3,0.2,0.4,0
				c0.2-0.4,0.7,0.1,0.7,0.3c0,0.4,0.1,0.2,0.2,0.3c0.1,0.1,0.1,0.6,0.4,0.7c0.1,0,0.3,0,0.3,0.2c0,0.1,0,0.1-0.1,0.2
				c0,0.1-0.1,0.2-0.2,0.3c-0.2,0.4-0.2,0.8,0,1.2c0.1,0.1,0.1,0.2,0.2,0.3c0.2,0.4,0.2,0.5,0.5,0.7c0.2,0.1,0.4,0.1,0.6,0.1
				c0.2,0,0.2,0,0.3-0.1c0.1-0.1,0.2-0.1,0.3,0c0.3,0.2,0.2,0,0.3-0.2c0.2-0.3,0.3,0,0.3-0.5c0-0.1,0.1-0.2,0.2-0.3
				c0.3,0,0.4-0.2,0.7-0.1c0.1,0,0.4,0,0.3,0.3c-0.2,0.2-0.2,0.2-0.2,0.5c0,0.2,0,0.3-0.2,0.5c-0.2,0.2-0.1,0.2-0.2,0.4
				c0,0.1-0.1,0.2-0.1,0.3c0,0.1,0,0.2,0.3,0.2c0.2,0,0.3,0,0.4,0c0.2,0,0.3,0,0.5,0c0.2,0,0.5,0,0.6,0.2c0.2,0.2,0.2,0.3,0.1,0.7
				c0,0.1,0,0.2,0,0.3c0,0.2-0.1,0.4-0.1,0.5c0,0.1,0,0.2,0,0.3c0.1,0.1,0.2,0.2,0.2,0.3c0.1,0.1,0.2,0.2,0.4,0.3
				c0.5,0.3,0.6,0,1-0.1c0.2,0,0.4,0,0.5,0c0.1,0.1,0.3,0.2,0.4,0.3c0.1,0.1,0.2,0.2,0.3-0.1c0-0.1,0.1-0.2,0.2-0.2
				c0.1,0,0.1,0,0.1-0.2c0,0,0,0,0-0.1v0v0c0.1-0.3,0.4-0.4,0.7-0.5h0.1c0.2,0,0.4-0.1,0.5-0.2c0.1-0.1,0.4-0.3,0.3,0.1
				c-0.1,0.1-0.1,0.1-0.1,0.2c0,0,0,0.1,0,0.1c0.1,0.2-0.1,0.2-0.1,0.3c0,0.1,0.1,0.1,0.1,0.1c0,0,0,0.1,0.1,0.2
				c0.1,0.1,0.2,0,0.2-0.1v0v-0.1c0-0.1,0-0.1,0-0.2c0-0.1,0-0.2,0-0.2c0,0,0.1,0,0.1-0.1c0.3-0.2,0.5-0.3,0.7-0.1
				c0,0,0.1,0.1,0.1,0.1c0.3,0.2,0.1,0.3,0.5,0.3c0.3,0,0.4-0.1,0.6,0.1c0.2,0.1,0.6,0.2,0.7,0c0.1-0.2,0.5-0.2,0.5,0
				c0.1,0.1,0.2,0.2,0.3,0.2c0,0,0,0,0,0c0.1,0,0.1,0,0.2,0.1c0.1,0.2,0,0.1,0,0.3c0,0.1,0,0.1,0.2,0.1c0.3,0,0.8,0.1,0.9,0.5
				c0.1,0.2,0.2,0.1,0.4,0.2c0.2,0.2,0.1,0.2,0.5,0.3c0.1,0,0.1,0,0.2,0c0.3-0.1,0.4-0.1,0.6,0c0.2,0.1,0.2,0.2,0.4,0.2
				c0.3-0.1,0.4,0.2,0.6,0.4c0.2,0.2,0.4,0.2,0.4,0.6c0,0.3,0,0.2,0.2,0.4c0.2,0.3,0.3,0.3,0,0.6c-0.2,0.2-0.2,0.3,0.2,0.1
				c0.1-0.1,0.2,0,0.5,0.1c0.1,0.1,0.1,0.2,0,0.3c0,0.3-0.1,0.3,0.2,0.1c0.3-0.2,0.5-0.3,0.8,0c0.1,0.1,0.2,0.2,0.4,0.3
				c0.3,0.3,0.6,0.4,1.1,0.4c0.3,0,0.4,0.1,0.7,0.1c0.3,0,0.6,0.1,0.8,0.4c0.1,0.1,0.2,0.3,0.4,0.4c0.4,0.2,0.6,0,0.7,0.5
				c0.3,0.9-0.3,1.6-0.9,2.2c-0.2,0.3-0.2,0.4-0.3,0.6c-0.2,0.2-0.5,0-0.5,0.4c0,0.1-0.1,0.2-0.1,0.4c0,0.1,0,0.1,0,0.2
				c0,0.2,0.1,0.4-0.1,0.5c0,0.2,0,0.4-0.1,0.5c-0.2,0.4-0.4,0.6-0.5,0.9c-0.1,0.1-0.2,0.2-0.3,0.3c-0.2,0.1-0.1,0.3-0.2,0.5
				c0,0.1-0.1,0.1-0.2,0.1c-0.3,0.2-0.3,0.2-0.6,0.2c-0.7,0-1.6,0.4-2,1.1c-0.2,0.2-0.2,0.4-0.2,0.6c0,0.3-0.2,0.3-0.3,0.5
				c-0.3,0.3-0.3,0.7-0.6,0.6c-0.1,0-0.1,0.1-0.3,0.2c-0.1,0.1-0.2,0.2-0.2,0.4c0,0.1,0,0.2-0.2,0.3c-0.1,0.1-0.2,0.2-0.3,0.3
				c-0.2,0.5-0.6,0.4-1.1,0.4c-0.1,0-0.3-0.1-0.4-0.2c-0.3-0.1-0.3,0.1,0,0.2c0.1,0,0.1,0.1,0.1,0.1c0,0.2-0.2,0.2,0.1,0.5
				c0.1,0.2,0,0.3-0.2,0.5c-0.2,0.3-0.5,0.4-0.8,0.4c-0.2,0-0.4,0-0.6,0c-0.4,0-0.3-0.1-0.3,0.2c0,0.1,0,0.1-0.1,0.2
				c0,0.3-0.2,0.4-0.4,0.3c-0.5-0.2-0.3-0.2-0.4,0.1c0,0.1,0,0.2,0,0.2c0,0,0,0.2,0.1,0.2c0,0,0.1,0,0.1,0c0.2,0,0-0.1,0.2-0.1
				c0.1,0,0.1,0,0.1,0.1c0,0.2-0.1,0.1-0.2,0.1c-0.2,0-0.2,0-0.2,0.2c0,0.2-0.1,0.2-0.2,0.3c0,0.1,0,0.1-0.1,0.2
				C46.2,47,46.1,47,45.9,47c-0.1,0.1-0.2,0.1-0.3,0.2c-0.1,0.1-0.1,0.3,0,0.4c0,0,0.1,0.1,0.1,0.1c0,0,0.1,0.1,0.1,0.1
				c0.2,0,0.2-0.1,0.2,0.1c0,0.2-0.1,0.2-0.3,0.3c0,0-0.1,0.1-0.1,0.1c-0.1,0.1-0.1,0.1-0.2,0.2c0,0.1-0.1,0.2-0.2,0.3
				c-0.3,0.1-0.3,0.2-0.3,0.5c0.1,0.3,0,0.2-0.2,0.3c-0.1,0-0.1,0-0.2,0.1c-0.1,0.1-0.1,0.2-0.2,0.3c-0.2,0.2,0,0-0.4,0.1
				c-0.2,0-0.2-0.1-0.2-0.3c0-0.1,0-0.1-0.1-0.2c0,0,0,0,0-0.1c-0.1-0.3,0-0.2-0.2-0.4c-0.2-0.1,0-0.3-0.1-0.4
				c-0.1-0.2-0.1-0.1-0.1-0.3c0-0.1,0-0.1-0.1-0.2c0-0.1,0-0.2,0.1-0.2c0.2-0.1,0.1,0,0.2-0.2c0.1-0.4,0.1-0.1-0.2-0.3
				c-0.1,0,0-0.2,0.1-0.3c0.1-0.2,0.2-0.2,0.3-0.2c0,0,0,0,0.1,0c0.1,0,0.1-0.1,0.1-0.4c0-0.2,0.1-0.4,0.2-0.5
				c0.1-0.1,0.1-0.3,0-0.4c-0.1-0.2-0.4,0-0.3-0.4c0-0.3,0.1-0.3,0.2-0.5c0-0.1,0-0.2,0-0.4c-0.1-0.4-0.1-0.4,0.1-0.8
				c0.1-0.1,0.1-0.3,0.2-0.4c0-0.1,0-0.2,0.1-0.4c0.1-0.1,0.1-0.2,0.1-0.4c0-0.2,0.1-0.2,0.1-0.5c0-0.2,0-0.2-0.1-0.3
				c0-0.1,0-0.2,0-0.2c0.1-0.2,0.2-0.2,0.1-0.5c-0.1-0.2,0.1-0.3,0.1-0.5c0,0,0-0.1,0-0.1c0.1-0.3,0.1-0.5,0.2-0.8
				c0-0.2,0.1-0.4,0-0.6c0-0.1,0-0.2,0-0.3c0.1-0.2,0.1-0.2,0.1-0.4c0-0.1,0-0.3,0-0.4c0.1-0.2,0-0.5,0-0.9c0-0.3-0.1-0.4-0.3-0.6
				c0,0-0.1-0.1-0.1-0.1c-0.3-0.2-0.5-0.4-0.8-0.5c0,0-0.1,0-0.1,0c-0.3-0.1-0.3,0-0.6-0.3c-0.1-0.1-0.2-0.2-0.3-0.3
				c-0.1-0.2,0.1-0.2,0-0.4c-0.1-0.1-0.2-0.2-0.2-0.3c-0.3-0.4-0.4-0.7-0.6-1.1c-0.3-0.5-0.5-1-0.9-1.4c-0.2,0-0.2-0.1-0.2-0.3
				c0-0.1-0.1-0.2-0.1-0.3c-0.2-0.3,0.3-0.4,0.5-0.5c0.1-0.1,0.1-0.2,0-0.3c-0.1,0-0.1,0-0.2,0c-0.3-0.1-0.2-0.5,0-0.7
				c0.1-0.1,0.2-0.3,0.2-0.4c0-0.3,0.1-0.3,0.2-0.3c0.3-0.1,0.2-0.1,0.3-0.3c0-0.2,0-0.2,0.2-0.3c0,0,0,0,0.1,0
				c0.4-0.4,0.4-0.6,0.3-1.2c0-0.3-0.1-0.4-0.2-0.6c-0.1-0.1-0.2-0.2-0.2-0.2c0,0,0,0,0-0.1c0-0.2,0-0.2-0.1-0.4
				c-0.2-0.1-0.4-0.1-0.5,0.1c0,0,0,0.1-0.1,0.2c-0.2,0.1-0.1,0-0.1,0.3c0,0.1,0,0.1,0,0.1c-0.2,0.2-0.2-0.1-0.3-0.2
				c-0.2-0.1-0.1,0.1-0.3-0.1c-0.1-0.1-0.1-0.1-0.3-0.1H40c-0.1,0-0.1-0.1-0.2-0.2c-0.1-0.1,0-0.2-0.2-0.3c0,0-0.1,0-0.1,0
				c-0.2-0.2,0-0.2-0.3-0.1c-0.1,0-0.2-0.1-0.3-0.3c0.1-0.4,0-0.4-0.4-0.7c-0.1-0.1-0.2-0.3-0.3-0.4c-0.1-0.2-0.2-0.1-0.3-0.1
				c-0.1,0-0.4,0-0.5-0.2c-0.3-0.2-0.4-0.2-0.6-0.2c-0.3,0-0.5-0.4-0.6-0.5c-0.2-0.2-0.4-0.4-0.7-0.3c-0.2,0.1-0.3,0.3-0.6,0.2
				c-0.2,0-0.3-0.2-0.7-0.3c-0.3-0.1-0.5-0.2-0.8-0.3c-0.3-0.1-0.3-0.3-0.6-0.4c-0.6-0.1-0.3-0.1-0.6-0.4c-0.1,0-0.1-0.1-0.2-0.1
				c-0.2-0.1-0.4-0.3-0.2-0.5C32,21,32,20.9,32,20.7c-0.1-0.1-0.1-0.3-0.1-0.4c0-0.1-0.2-0.4-0.3-0.5c-0.2-0.2-0.3-0.4-0.5-0.6
				c-0.6-0.3,0.1-0.3-0.2-0.6c-0.2,0-0.2-0.1-0.2-0.2c-0.1-0.2,0-0.2-0.2-0.4c-0.1,0-0.1-0.1-0.2-0.2c-0.1-0.1-0.1-0.3-0.1-0.4
				c0-0.1,0-0.2,0-0.3c0-0.3,0-0.3-0.3-0.4c-0.1,0-0.1,0-0.2,0c0,0,0,0-0.1,0c-0.1,0-0.1,0.1-0.1,0.2c0,0.3,0,0.3,0.1,0.5
				c0.1,0.1,0.1,0.2,0.1,0.2c0.2,0.2,0.2,0.2,0.2,0.4c0,0.2,0,0.2,0.1,0.4c0.3,0.4,0.2,0.5,0.3,0.8c0,0.2,0,0.3-0.1,0.3
				c-0.1,0-0.2,0-0.4-0.1c-0.1-0.1,0-0.2,0-0.3c0.2-0.3-0.2-0.5-0.4-0.6c-0.2-0.2-0.4-0.3-0.1-0.6c0.2-0.2,0.1-0.3,0-0.5
				c-0.3-0.2-0.3-0.3-0.3-0.4c0-0.2,0-0.3,0-0.3c-1.6,0.5-3.3,1-4.9,1.7v28.2c2.1,0.8,4.2,1.5,6.3,2.1c3.2,0.8,6.4,1.4,9.6,1.6
				c0.6,0,1.3,0.1,1.9,0.1c0.6,0,1.1,0,1.7,0h0.5c0.1,0,0.2,0,0.3-0.1c0.4,0.1,0.1-0.3,0.3-0.4c0,0,0.1,0,0.1,0c0.2,0,0.2,0,0.2,0.1
				c0.1,0.2,0.2,0.3,0.3,0.4h0.2c0.9,0,1.9-0.1,2.8-0.2c5-0.5,9.9-1.7,14.8-3.6V18.3C58.3,16.4,53.4,15.2,48.4,14.8 M40.2,20.6
				c-0.1,0-0.1,0-0.1,0.1c0,0-0.1,0.1-0.1,0.1c-0.2,0.1-0.3-0.1,0-0.2c0.1,0,0.1-0.1,0.2-0.1C40.3,20.4,40.5,20.6,40.2,20.6
				 M43.1,21.7c-0.2,0-0.2,0-0.4,0c-0.3,0-0.3,0-0.3-0.2c0-0.2-0.4-0.1-0.4-0.2c0,0,0,0,0-0.1v0c-0.1-0.2,0-0.1-0.4-0.1
				c-0.1,0-0.2,0-0.2-0.1c-0.1-0.1-0.2-0.2-0.4-0.2c-0.2,0-0.4-0.3-0.2-0.4c0.3,0,0.2,0.1,0.5,0.1c0.2,0,0.2,0,0.4,0.2
				c0.1,0.1,0.2,0.1,0.3,0.1c0,0,0.1,0,0.1,0c0.1,0,0.2,0.1,0.3,0.1c0.1,0,0.1,0.1,0.2,0.1c0.1,0.1,0.2,0.2,0.4,0.2
				c0.2,0,0.2,0,0.4,0.1C43.3,21.6,43.5,21.7,43.1,21.7 M43.9,22.4c0,0-0.1,0-0.2,0c-0.1,0-0.2,0-0.2-0.1c0-0.2,0-0.1,0.2-0.1h0
				c0.1,0,0.1,0,0.1,0.1C43.8,22.3,43.9,22.3,43.9,22.4C44.1,22.3,44,22.4,43.9,22.4 M45.1,22.2c-0.3,0-0.3,0-0.4,0.1
				c0,0,0,0.1-0.1,0.1c0,0.1,0,0-0.2,0c-0.2,0-0.3-0.2-0.3-0.2c0-0.1,0-0.1,0-0.2c-0.3-0.6-0.1-0.2,0.5-0.3c0,0,0.1,0,0.1,0
				c0.2,0,0.2-0.1,0.4,0.1c0,0,0.1,0.1,0.1,0.1C45.8,22.2,45.2,22.3,45.1,22.2 M45.6,22.3C45.6,22.3,45.5,22.2,45.6,22.3
				c-0.1-0.1,0-0.2,0-0.2C45.7,22.1,45.7,22.1,45.6,22.3C45.7,22.2,45.7,22.3,45.6,22.3 M43.7,46L43.7,46c0,0,0-0.1,0.1-0.1
				c0-0.1,0.1,0,0,0c0,0.1,0,0.4-0.1,0.4c-0.2,0-0.1,0-0.1-0.1C43.6,46,43.6,46.1,43.7,46 M30.5,20c-0.1,0-0.1,0-0.1,0c0,0,0,0,0,0
				c0-0.2-0.2-0.1-0.2-0.2c0-0.1,0.1-0.2,0.2-0.1c0.1,0,0.1,0.1,0.1,0.2C30.6,19.9,30.7,20,30.5,20 M48.9,47.8
				c-0.1,0.2-0.2,0.1-0.4,0.1h-0.1c-0.1,0-0.1,0.2-0.3,0.1c-0.1-0.1-0.2-0.2-0.1-0.3c0-0.1,0.1-0.1,0.1-0.1c0.1,0,0.2,0,0.3,0
				c0.1,0,0.1,0,0.2-0.1C48.9,47.4,48.9,47.6,48.9,47.8"/>
			<polygon class="st1" points="28.8,57.8 28.8,59.1 25.9,59.1 25.9,60.9 28.5,60.9 28.5,62.2 25.9,62.2 25.9,64.9 24.1,64.9 
				24.1,57.8 			"/>
			<polygon class="st1" points="30.2,57.8 32,57.8 32,63.6 34.4,63.6 34.4,64.9 30.2,64.9 			"/>
			<path class="st1" d="M37.9,57.8h1.8l2.6,7.1h-1.8L40,63.4h-2.4l-0.5,1.5h-1.8L37.9,57.8z M37.9,62.2h1.6l-0.3-0.9
				c-0.1-0.3-0.2-0.6-0.3-0.9c-0.1-0.3-0.2-0.6-0.2-0.9h0c-0.1,0.3-0.2,0.5-0.3,0.9c-0.1,0.3-0.2,0.6-0.3,0.9L37.9,62.2z"/>
			<path class="st1" d="M46.5,63.7c0.3,0,0.6,0,0.9-0.1c0.2-0.1,0.4-0.1,0.6-0.2l0.3,1.2c-0.2,0.1-0.4,0.2-0.7,0.3
				c-0.3,0.1-0.7,0.1-1.2,0.1c-0.6,0-1.1-0.1-1.5-0.3c-0.5-0.2-0.9-0.4-1.2-0.7c-0.3-0.3-0.6-0.7-0.8-1.2c-0.2-0.5-0.3-1-0.3-1.5
				c0-0.5,0.1-1.1,0.3-1.5c0.2-0.5,0.4-0.8,0.8-1.2c0.3-0.3,0.7-0.6,1.2-0.7c0.5-0.2,1-0.3,1.6-0.3c0.5,0,0.9,0,1.2,0.1
				c0.3,0.1,0.6,0.2,0.7,0.3L48,59.4c-0.2-0.1-0.4-0.2-0.6-0.3C47.1,59,46.8,59,46.6,59c-0.3,0-0.6,0-0.8,0.1
				c-0.3,0.1-0.5,0.2-0.7,0.4c-0.2,0.2-0.3,0.4-0.5,0.7c-0.1,0.3-0.2,0.7-0.2,1.1c0,0.4,0.1,0.8,0.2,1c0.1,0.3,0.3,0.6,0.5,0.8
				c0.2,0.2,0.4,0.3,0.7,0.4C46,63.7,46.2,63.7,46.5,63.7"/>
			<path class="st1" d="M52.2,57.7c0.5,0,0.9,0.1,1.3,0.2c0.4,0.1,0.7,0.2,0.9,0.4l-0.4,1.3c-0.3-0.2-0.6-0.3-0.9-0.4
				C52.9,59,52.6,59,52.3,59c-0.3,0-0.6,0.1-0.8,0.2c-0.2,0.1-0.3,0.3-0.3,0.5c0,0.2,0.1,0.4,0.3,0.5c0.2,0.1,0.4,0.2,0.8,0.3
				l0.7,0.2c0.3,0.1,0.5,0.2,0.7,0.3c0.2,0.1,0.4,0.3,0.6,0.5c0.2,0.2,0.3,0.4,0.4,0.6c0.1,0.2,0.1,0.5,0.1,0.7
				c0,0.3-0.1,0.6-0.2,0.9c-0.1,0.3-0.3,0.5-0.5,0.7c-0.2,0.2-0.5,0.4-0.9,0.5c-0.3,0.1-0.8,0.2-1.2,0.2c-0.4,0-0.9,0-1.3-0.1
				c-0.4-0.1-0.8-0.2-1.1-0.4l0.4-1.3c0.3,0.2,0.6,0.3,0.9,0.4c0.3,0.1,0.6,0.1,1,0.1c0.4,0,0.7-0.1,0.9-0.2
				c0.2-0.1,0.3-0.3,0.3-0.5c0-0.1,0-0.2,0-0.2c0-0.1-0.1-0.2-0.2-0.2c-0.1-0.1-0.2-0.1-0.4-0.2c-0.2-0.1-0.4-0.1-0.6-0.2L51.4,62
				c-0.3-0.1-0.5-0.2-0.7-0.3c-0.2-0.1-0.4-0.3-0.6-0.4c-0.2-0.2-0.3-0.4-0.4-0.6c-0.1-0.2-0.1-0.5-0.1-0.8c0-0.3,0.1-0.6,0.2-0.9
				c0.1-0.3,0.3-0.5,0.5-0.7c0.2-0.2,0.5-0.3,0.8-0.5C51.4,57.7,51.8,57.7,52.2,57.7"/>
			<path class="st1" d="M59.7,57.7c0.5,0,1,0.1,1.4,0.3c0.4,0.2,0.8,0.4,1.1,0.7c0.3,0.3,0.6,0.7,0.7,1.2c0.2,0.5,0.3,1,0.3,1.6
				c0,0.6-0.1,1.1-0.3,1.5c-0.2,0.5-0.4,0.8-0.8,1.2c-0.3,0.3-0.7,0.6-1.1,0.7c-0.4,0.2-0.9,0.3-1.4,0.3c-0.5,0-1-0.1-1.4-0.2
				c-0.4-0.2-0.8-0.4-1.1-0.7c-0.3-0.3-0.6-0.7-0.7-1.2c-0.2-0.5-0.3-1-0.3-1.5c0-0.6,0.1-1.1,0.3-1.5c0.2-0.5,0.4-0.8,0.8-1.2
				c0.3-0.3,0.7-0.6,1.1-0.7C58.7,57.8,59.2,57.7,59.7,57.7 M57.9,61.4c0,0.4,0,0.7,0.1,1c0.1,0.3,0.2,0.5,0.4,0.7
				c0.2,0.2,0.4,0.3,0.6,0.4c0.2,0.1,0.4,0.1,0.7,0.1c0.2,0,0.5-0.1,0.7-0.1c0.2-0.1,0.4-0.2,0.6-0.4c0.2-0.2,0.3-0.4,0.4-0.7
				c0.1-0.3,0.1-0.7,0.1-1c0-0.4,0-0.8-0.1-1.1c-0.1-0.3-0.2-0.6-0.4-0.8c-0.2-0.2-0.4-0.3-0.6-0.4C60.2,59,59.9,59,59.7,59
				c-0.2,0-0.5,0.1-0.7,0.2c-0.2,0.1-0.4,0.3-0.6,0.5c-0.2,0.2-0.3,0.5-0.4,0.8C58,60.6,57.9,61,57.9,61.4"/>
			<path class="st1" d="M25.6,68.9H26l1.5,3.9h-0.5l-0.4-1.1H25l-0.4,1.1h-0.5L25.6,68.9z M25.1,71.3h1.4l-0.3-0.8
				c-0.1-0.1-0.1-0.3-0.2-0.5c-0.1-0.2-0.1-0.4-0.2-0.6h0c0,0.1-0.1,0.2-0.1,0.3c0,0.1-0.1,0.2-0.1,0.3c0,0.1-0.1,0.2-0.1,0.3
				c0,0.1-0.1,0.2-0.1,0.3L25.1,71.3z"/>
			<path class="st1" d="M29.3,68.9h1.2c0.2,0,0.4,0,0.5,0.1c0.2,0.1,0.3,0.1,0.4,0.2c0.1,0.1,0.2,0.2,0.2,0.4
				c0.1,0.1,0.1,0.3,0.1,0.5c0,0.1,0,0.3-0.1,0.4c0,0.1-0.1,0.2-0.2,0.3c-0.1,0.1-0.2,0.2-0.3,0.2c-0.1,0.1-0.2,0.1-0.3,0.1l1,1.7
				h-0.5l-1-1.6h-0.8v1.6h-0.4V68.9z M29.7,70.9h0.6c0.1,0,0.3,0,0.4,0c0.1,0,0.2-0.1,0.3-0.1c0.1-0.1,0.2-0.1,0.2-0.2
				c0.1-0.1,0.1-0.2,0.1-0.4c0-0.3-0.1-0.5-0.2-0.6c-0.2-0.1-0.4-0.2-0.7-0.2h-0.6V70.9z"/>
			<path class="st1" d="M35.4,68.9c0.2,0,0.4,0,0.6,0c0.2,0,0.3,0.1,0.5,0.2l-0.1,0.3c-0.1-0.1-0.3-0.1-0.4-0.2
				c-0.1,0-0.3-0.1-0.5-0.1c-0.2,0-0.4,0-0.6,0.1c-0.2,0.1-0.3,0.1-0.5,0.3c-0.1,0.1-0.2,0.3-0.3,0.5c-0.1,0.2-0.1,0.4-0.1,0.7
				c0,0.2,0,0.5,0.1,0.7c0.1,0.2,0.2,0.4,0.3,0.5c0.1,0.1,0.3,0.2,0.5,0.3c0.2,0.1,0.4,0.1,0.6,0.1c0.2,0,0.3,0,0.4,0
				c0.1,0,0.2,0,0.3-0.1v-1.2h-0.8v-0.3h1.2v1.8c-0.1,0.1-0.3,0.1-0.5,0.1c-0.2,0-0.4,0.1-0.7,0.1c-0.3,0-0.5,0-0.7-0.1
				c-0.2-0.1-0.4-0.2-0.6-0.4c-0.2-0.2-0.3-0.4-0.4-0.6c-0.1-0.2-0.2-0.5-0.2-0.8c0-0.3,0-0.6,0.1-0.8c0.1-0.2,0.2-0.4,0.4-0.6
				c0.2-0.2,0.4-0.3,0.6-0.4C34.9,69,35.2,68.9,35.4,68.9"/>
			<polygon class="st1" points="38.7,68.9 40.9,68.9 40.9,69.3 39.1,69.3 39.1,70.6 40.8,70.6 40.8,71 39.1,71 39.1,72.4 41,72.4 
				41,72.8 38.7,72.8 			"/>
			<path class="st1" d="M42.9,68.9h0.4l1.7,2.5c0.1,0.1,0.2,0.2,0.2,0.3c0.1,0.1,0.1,0.2,0.2,0.3h0c0-0.2,0-0.3,0-0.4
				c0-0.2,0-0.3,0-0.5v-2.3h0.4v3.9h-0.4l-1.7-2.4c-0.1-0.1-0.2-0.3-0.3-0.4c-0.1-0.1-0.2-0.3-0.2-0.4h0c0,0.2,0,0.4,0,0.5
				c0,0.2,0,0.4,0,0.5v2.2h-0.4V68.9z"/>
			<polygon class="st1" points="50.6,68.9 50.6,69.3 49.4,69.3 49.4,72.8 48.9,72.8 48.9,69.3 47.7,69.3 47.7,68.9 			"/>
			<rect x="52.4" y="68.9" class="st1" width="0.4" height="3.9"/>
			<path class="st1" d="M55.1,68.9h0.4l1.7,2.5c0.1,0.1,0.2,0.2,0.2,0.3c0.1,0.1,0.1,0.2,0.2,0.3h0c0-0.2,0-0.3,0-0.4
				c0-0.2,0-0.3,0-0.5v-2.3h0.4v3.9h-0.4L56,70.4c-0.1-0.1-0.2-0.3-0.3-0.4c-0.1-0.1-0.2-0.3-0.2-0.4h0c0,0.2,0,0.4,0,0.5
				c0,0.2,0,0.4,0,0.5v2.2h-0.4V68.9z"/>
			<path class="st1" d="M61.4,68.9h0.4l1.5,3.9h-0.5l-0.4-1.1h-1.7l-0.4,1.1h-0.5L61.4,68.9z M60.8,71.3h1.4l-0.3-0.8
				c-0.1-0.1-0.1-0.3-0.2-0.5c-0.1-0.2-0.1-0.4-0.2-0.6h0c0,0.1-0.1,0.2-0.1,0.3c0,0.1-0.1,0.2-0.1,0.3c0,0.1-0.1,0.2-0.1,0.3
				c0,0.1-0.1,0.2-0.1,0.3L60.8,71.3z"/>
		</g>
	</g>
</g>
</svg>
